<svg width="50" height="50" viewBox="0 0 50 50" fill="none" xmlns="http://www.w3.org/2000/svg">
<circle cx="25" cy="25" r="25" fill="white"/>
<path d="M17.327 16.3783C17.327 16.2241 17.4531 16.098 17.6073 16.098H31.065C31.2192 16.098 31.3453 16.2241 31.3453 16.3783V18.0605C31.3453 18.2148 31.2192 18.3409 31.065 18.3409H17.6073C17.4531 18.3409 17.327 18.2148 17.327 18.0605V16.3783Z" fill="#0E918C"/>
<path d="M17.6073 21.1446H24.0558C24.21 21.1446 24.3361 21.2708 24.3361 21.425V23.1072C24.3361 23.2614 24.21 23.3875 24.0558 23.3875H17.6073C17.4531 23.3875 17.327 23.2614 17.327 23.1072V21.425C17.327 21.2708 17.4531 21.1446 17.6073 21.1446Z" fill="#0E918C"/>
<path d="M14.5233 37.1956H22.3736C22.5278 37.1956 22.6539 37.3218 22.6539 37.476V39.4385C22.6539 39.5927 22.5278 39.7189 22.3736 39.7189H13.1215C12.5012 39.7189 12 39.2177 12 38.5974V11.1215C12 10.5012 12.5012 10 13.1215 10H35.5508C36.1711 10 36.6723 10.5012 36.6723 11.1215V18.738C36.6723 18.8922 36.5461 19.0183 36.3919 19.0183H34.4294C34.2752 19.0183 34.149 18.8922 34.149 18.738V12.5233H14.5233V37.1956Z" fill="#0E918C"/>
<path d="M41.3426 22.8228C41.2739 22.0699 40.9173 21.3889 40.3386 20.9049C39.76 20.421 39.0284 20.1922 38.2787 20.2606C37.529 20.329 36.851 20.6866 36.3695 21.2672L35.6048 22.1894L35.6017 22.1868L35.5309 22.2785L31.7731 26.8104C31.722 26.8722 31.6699 26.9404 31.6183 27.0131C31.4478 27.2532 31.5611 27.405 31.6438 27.4742L35.4974 30.6968C35.5691 30.7568 35.6402 30.784 35.7088 30.7778C35.803 30.7692 35.8633 30.7023 35.9033 30.658C35.9093 30.6513 35.9149 30.6451 35.9201 30.6398C35.9882 30.57 36.0508 30.5008 36.1062 30.4339L39.8624 25.904L39.9399 25.8146L39.9379 25.8129L40.7025 24.8908C41.184 24.31 41.4113 23.5756 41.3426 22.8228Z" fill="#0E918C"/>
<path d="M30.8297 29.0372C30.7587 28.9779 30.6694 28.9498 30.5782 28.9581C30.4839 28.9667 30.3962 29.0151 30.3378 29.091L25.7924 34.9854C25.6922 35.1152 25.5752 35.3498 25.5315 35.5082L25.3333 36.2276C25.2843 36.406 25.3568 36.6384 25.4984 36.7569L25.5537 36.8031L24.8428 39.3847C24.8119 39.4969 24.8397 39.5617 24.8684 39.5963C24.9018 39.6364 24.9528 39.6556 25.012 39.6502C25.0459 39.6471 25.0826 39.6361 25.121 39.6174L27.5203 38.4478L27.5756 38.494C27.6723 38.5749 27.8209 38.6171 27.9634 38.6041C28.0225 38.5987 28.0763 38.5842 28.1237 38.5612L28.7924 38.2353C28.9395 38.1636 29.148 38.0055 29.2572 37.883L34.2067 32.3265C34.2697 32.2557 34.3007 32.165 34.2938 32.071C34.2868 31.977 34.243 31.8918 34.1702 31.831L30.8297 29.0372Z" fill="#0E918C"/>
</svg>
