<svg width="50" height="50" viewBox="0 0 50 50" fill="none" xmlns="http://www.w3.org/2000/svg">
<circle cx="25" cy="25" r="25" fill="white"/>
<path d="M17.6073 16.098C17.4531 16.098 17.327 16.2241 17.327 16.3783V18.0605C17.327 18.2148 17.4531 18.3409 17.6073 18.3409H31.065C31.2192 18.3409 31.3453 18.2148 31.3453 18.0605V16.3783C31.3453 16.2241 31.2192 16.098 31.065 16.098H17.6073ZM24.0558 21.1446H17.6073C17.4531 21.1446 17.327 21.2708 17.327 21.425V23.1072C17.327 23.2614 17.4531 23.3875 17.6073 23.3875H24.0558C24.21 23.3875 24.3361 23.2614 24.3361 23.1072V21.425C24.3361 21.2708 24.21 21.1446 24.0558 21.1446ZM22.3736 37.1956H14.5233V12.5233H34.149V23.738C34.149 23.8922 34.2752 24.0183 34.4294 24.0183H36.3919C36.5461 24.0183 36.6723 23.8922 36.6723 23.738V11.1215C36.6723 10.5012 36.1711 10 35.5508 10H13.1215C12.5012 10 12 10.5012 12 11.1215V38.5974C12 39.2177 12.5012 39.7189 13.1215 39.7189H22.3736C22.5278 39.7189 22.6539 39.5927 22.6539 39.4385V37.476C22.6539 37.3218 22.5278 37.1956 22.3736 37.1956Z" fill="#DC3545"/>
<path d="M37.5 28L28.5 38.5L24 33.5" stroke="#DC3545" stroke-width="2" stroke-linecap="round" stroke-linejoin="round"/>
</svg>
