<svg width="50" height="50" viewBox="0 0 50 50" fill="none" xmlns="http://www.w3.org/2000/svg">
<circle cx="25" cy="25" r="25" fill="white"/>
<path d="M17.6073 16.098C17.4531 16.098 17.327 16.2241 17.327 16.3783V18.0605C17.327 18.2148 17.4531 18.3409 17.6073 18.3409H31.065C31.2192 18.3409 31.3453 18.2148 31.3453 18.0605V16.3783C31.3453 16.2241 31.2192 16.098 31.065 16.098H17.6073ZM24.0558 21.1446H17.6073C17.4531 21.1446 17.327 21.2708 17.327 21.425V23.1072C17.327 23.2614 17.4531 23.3875 17.6073 23.3875H24.0558C24.21 23.3875 24.3361 23.2614 24.3361 23.1072V21.425C24.3361 21.2708 24.21 21.1446 24.0558 21.1446ZM22.3736 37.1956H14.5233V12.5233H34.149V23.738C34.149 23.8922 34.2752 24.0183 34.4294 24.0183H36.3919C36.5461 24.0183 36.6723 23.8922 36.6723 23.738V11.1215C36.6723 10.5012 36.1711 10 35.5508 10H13.1215C12.5012 10 12 10.5012 12 11.1215V38.5974C12 39.2177 12.5012 39.7189 13.1215 39.7189H22.3736C22.5278 39.7189 22.6539 39.5927 22.6539 39.4385V37.476C22.6539 37.3218 22.5278 37.1956 22.3736 37.1956Z" fill="#EB9411"/>
<path d="M26.06 36V29.5L26.63 30.09H24.58V29H27.36V36H26.06ZM31.7186 36.1C31.1653 36.1 30.6653 35.96 30.2186 35.68C29.7786 35.4 29.4319 34.9933 29.1786 34.46C28.9253 33.92 28.7986 33.2667 28.7986 32.5C28.7986 31.7333 28.9253 31.0833 29.1786 30.55C29.4319 30.01 29.7786 29.6 30.2186 29.32C30.6653 29.04 31.1653 28.9 31.7186 28.9C32.2786 28.9 32.7786 29.04 33.2186 29.32C33.6586 29.6 34.0053 30.01 34.2586 30.55C34.5186 31.0833 34.6486 31.7333 34.6486 32.5C34.6486 33.2667 34.5186 33.92 34.2586 34.46C34.0053 34.9933 33.6586 35.4 33.2186 35.68C32.7786 35.96 32.2786 36.1 31.7186 36.1ZM31.7186 34.97C32.0453 34.97 32.3286 34.8833 32.5686 34.71C32.8086 34.53 32.9953 34.2567 33.1286 33.89C33.2686 33.5233 33.3386 33.06 33.3386 32.5C33.3386 31.9333 33.2686 31.47 33.1286 31.11C32.9953 30.7433 32.8086 30.4733 32.5686 30.3C32.3286 30.12 32.0453 30.03 31.7186 30.03C31.4053 30.03 31.1253 30.12 30.8786 30.3C30.6386 30.4733 30.4486 30.7433 30.3086 31.11C30.1753 31.47 30.1086 31.9333 30.1086 32.5C30.1086 33.06 30.1753 33.5233 30.3086 33.89C30.4486 34.2567 30.6386 34.53 30.8786 34.71C31.1253 34.8833 31.4053 34.97 31.7186 34.97Z" fill="#EB9411"/>
<circle cx="29.5" cy="32.5" r="7" stroke="#EB9411"/>
</svg>
