<svg width="57" height="53" viewBox="0 0 57 53" fill="none" xmlns="http://www.w3.org/2000/svg">
<path d="M28.2406 52.9558C20.6289 52.9558 13.0171 52.9337 5.40539 52.9558C3.90389 52.9558 2.56923 52.5802 1.50567 51.4092C-0.0583809 49.7299 -0.30863 47.2994 0.900907 45.0678C3.11144 40.9802 5.36368 36.8926 7.57421 32.805C12.9963 22.84 18.4392 12.8751 23.8612 2.91016C24.758 1.23093 26.0301 0.148262 27.8652 0.0156903C29.9506 -0.138976 31.473 0.855308 32.4948 2.7555C34.3926 6.22445 36.2694 9.69339 38.1671 13.1402C43.9229 23.7018 49.6786 34.2633 55.4343 44.8248C56.1851 46.1947 56.5604 47.6088 56.1434 49.1775C55.6012 51.3208 53.8494 52.7791 51.7431 52.8895C51.4095 52.9116 51.0758 52.9116 50.7213 52.9116C43.2555 52.9558 35.7481 52.9558 28.2406 52.9558ZM31.2019 25.5578C31.2019 23.2157 31.2227 20.8736 31.181 18.5094C31.181 18.0675 31.0559 17.5814 30.8474 17.1837C30.2217 15.9021 29.0956 15.7254 27.8652 15.7696C26.3637 15.8359 25.2585 16.9406 25.2585 18.5094C25.2585 23.1494 25.2585 27.7894 25.2585 32.4294C25.2585 32.7166 25.3002 33.0259 25.3836 33.3132C25.8007 34.6168 26.6765 35.1029 28.1572 35.2134C30.0966 35.368 31.327 33.8214 31.2436 32.0096C31.1185 29.8663 31.2019 27.701 31.2019 25.5578ZM31.2019 42.9246C31.2019 41.157 29.8881 39.7208 28.2406 39.6987C26.5723 39.6766 25.2585 41.1349 25.2585 42.9688C25.2585 44.7364 26.5931 46.1063 28.2615 46.1284C29.7421 46.1726 31.3896 44.5817 31.2019 42.9246Z" fill="#F6830F"/>
</svg>
