<svg width="41" height="40" viewBox="0 0 41 40" fill="none" xmlns="http://www.w3.org/2000/svg">
<path d="M20.1825 0C9.09971 0 0.10498 8.96 0.10498 20C0.10498 31.04 9.09971 40 20.1825 40C31.2653 40 40.26 31.04 40.26 20C40.26 8.96 31.2653 0 20.1825 0ZM22.1903 28C22.1903 29.1046 21.2871 30 20.1825 30C19.0779 30 18.1747 29.1046 18.1747 28V20C18.1747 18.8954 19.0779 18 20.1825 18C21.2871 18 22.1903 18.8954 22.1903 20V28ZM22.1903 12C22.1903 13.1046 21.2871 14 20.1825 14C19.0779 14 18.1747 13.1046 18.1747 12C18.1747 10.8954 19.0779 10 20.1825 10C21.2871 10 22.1903 10.8954 22.1903 12Z" fill="#0E918C"/>
</svg>
