<svg width="36" height="37" viewBox="0 0 36 37" fill="none" xmlns="http://www.w3.org/2000/svg">
<path d="M29.9711 27.5179C29.8212 28.7056 29.0715 29.3269 27.8158 29.3269C25.1545 29.3269 22.4744 29.3269 19.7944 29.3269H14.9965C13.7596 29.3269 12.5226 29.3269 11.2669 29.3269C8.3807 29.3086 5.38203 29.3086 2.43959 29.3451C1.53999 29.3634 0.846547 29.0711 0.43423 28.5412C0.303038 28.3584 0.190592 28.1574 0.115625 27.9382C-0.05305 27.4266 -0.034311 26.8236 0.153106 26.2571C0.378006 25.5811 0.790323 25.0329 1.42754 24.5761C1.78363 24.3203 2.15846 24.0462 2.51456 23.7904C3.82647 22.8585 4.50117 21.5795 4.53866 20.0263C4.5574 18.7838 4.5574 17.5048 4.57614 16.2805C4.57614 15.0746 4.57614 13.8138 4.61362 12.5713C4.63237 11.8952 4.66985 11.0181 4.89475 10.1776C5.49448 7.83877 7.05004 6.06637 9.65513 4.76904C10.1799 4.49496 10.7796 4.29397 11.3419 4.0747L11.6792 3.94679C12.4476 3.67271 12.71 3.32554 12.7662 2.55811C12.7662 2.41193 12.785 2.28402 12.785 2.13784C12.785 2.06476 12.785 1.99167 12.785 1.91858C12.8037 1.00497 13.291 0.383716 14.1531 0.146177C14.4717 0.0548164 14.7716 0 15.0527 0C15.5775 0 16.0648 0.146178 16.4958 0.456805C16.9269 0.74916 17.1518 1.15115 17.1893 1.68104L17.208 1.99167C17.2268 2.24748 17.2455 2.50329 17.2642 2.7591C17.3205 3.34381 17.6578 3.72753 18.2388 3.91025C19.963 4.44014 21.3687 5.17103 22.5119 6.15773C22.868 6.45008 23.1866 6.77898 23.4865 7.12616C24.7422 8.56966 25.3794 10.2507 25.3981 12.1145C25.3981 13.3022 25.3981 14.4898 25.3981 15.6775C25.3981 16.8104 25.3981 17.9433 25.3981 19.0579C25.3981 19.6243 25.4356 20.1725 25.5106 20.6841C25.698 21.9084 26.3352 22.9499 27.4035 23.7173C27.5534 23.8269 27.6846 23.9183 27.8346 24.0279C28.0969 24.2107 28.3593 24.4116 28.6217 24.6126C29.69 25.4166 30.121 26.3668 29.9711 27.5179Z" fill="#F6830F"/>
<path d="M20.3384 32.1016C20.3196 33.874 19.4763 35.1713 17.9957 36.0849C16.1215 37.2543 14.1724 37.3091 12.242 36.2128C10.6677 35.3175 9.7306 33.9836 9.69312 32.1016C13.2353 32.1016 16.7587 32.1016 20.3384 32.1016Z" fill="#F6830F"/>
<path fill-rule="evenodd" clip-rule="evenodd" d="M34.6135 24.896C35.0653 25.124 35.4138 25.484 35.6591 25.844C36.1367 26.588 36.098 27.5 35.6333 28.304L34.7297 29.744C34.252 30.512 33.3613 30.992 32.4448 30.992C31.993 30.992 31.4895 30.872 31.0764 30.632C30.7408 30.428 30.3535 30.356 29.9405 30.356C28.6625 30.356 27.591 31.352 27.5523 32.54C27.5523 33.92 26.3647 35 24.8802 35H23.1245C21.6271 35 20.4395 33.92 20.4395 32.54C20.4137 31.352 19.3422 30.356 18.0642 30.356C17.6382 30.356 17.251 30.428 16.9282 30.632C16.5152 30.872 15.9988 30.992 15.5599 30.992C14.6305 30.992 13.7397 30.512 13.2621 29.744L12.3714 28.304C11.8938 27.524 11.8679 26.588 12.3456 25.844C12.5521 25.484 12.9394 25.124 13.3783 24.896C13.7397 24.728 13.9721 24.452 14.1916 24.128C14.837 23.096 14.4497 21.74 13.3525 21.128C12.0745 20.444 11.6614 18.92 12.3972 17.732L13.2621 16.316C14.0108 15.128 15.6115 14.708 16.9024 15.404C18.0255 15.98 19.4842 15.596 20.1426 14.576C20.3491 14.24 20.4653 13.88 20.4395 13.52C20.4137 13.052 20.5557 12.608 20.8009 12.248C21.2786 11.504 22.1435 11.024 23.0858 11H24.906C25.8612 11 26.7261 11.504 27.2038 12.248C27.4361 12.608 27.591 13.052 27.5523 13.52C27.5265 13.88 27.6427 14.24 27.8492 14.576C28.5076 15.596 29.9663 15.98 31.1023 15.404C32.3802 14.708 33.9939 15.128 34.7297 16.316L35.5946 17.732C36.3433 18.92 35.9302 20.444 34.6393 21.128C33.542 21.74 33.1548 23.096 33.8131 24.128C34.0197 24.452 34.252 24.728 34.6135 24.896ZM20.3477 23.012C20.3477 24.896 21.9871 26.396 24.0138 26.396C26.0405 26.396 27.6412 24.896 27.6412 23.012C27.6412 21.128 26.0405 19.616 24.0138 19.616C21.9871 19.616 20.3477 21.128 20.3477 23.012Z" fill="#898989"/>
<circle cx="24" cy="23" r="4" fill="#E9E9E9"/>
</svg>
