<svg width="57" height="53" viewBox="0 0 57 53" fill="none" xmlns="http://www.w3.org/2000/svg">
<path d="M28.1871 52.9558C20.5753 52.9558 12.9636 52.9337 5.35186 52.9558C3.85037 52.9558 2.51571 52.5802 1.45215 51.4092C-0.111909 49.7299 -0.362158 47.2994 0.847379 45.0678C3.05791 40.9802 5.31015 36.8926 7.52068 32.805C12.9427 22.84 18.3857 12.8751 23.8077 2.91016C24.7044 1.23093 25.9765 0.148262 27.8117 0.0156903C29.8971 -0.138976 31.4195 0.855308 32.4413 2.7555C34.339 6.22445 36.2159 9.69339 38.1136 13.1402C43.8693 23.7018 49.6251 34.2633 55.3808 44.8248C56.1315 46.1947 56.5069 47.6088 56.0898 49.1775C55.5476 51.3208 53.7959 52.7791 51.6896 52.8895C51.356 52.9116 51.0223 52.9116 50.6678 52.9116C43.202 52.9558 35.6945 52.9558 28.1871 52.9558ZM31.1484 25.5578C31.1484 23.2157 31.1692 20.8736 31.1275 18.5094C31.1275 18.0675 31.0024 17.5814 30.7938 17.1837C30.1682 15.9021 29.0421 15.7254 27.8117 15.7696C26.3102 15.8359 25.2049 16.9406 25.2049 18.5094C25.2049 23.1494 25.2049 27.7894 25.2049 32.4294C25.2049 32.7166 25.2467 33.0259 25.3301 33.3132C25.7471 34.6168 26.623 35.1029 28.1037 35.2134C30.0431 35.368 31.2735 33.8214 31.1901 32.0096C31.0649 29.8663 31.1484 27.701 31.1484 25.5578ZM31.1484 42.9246C31.1484 41.157 29.8345 39.7208 28.1871 39.6987C26.5187 39.6766 25.2049 41.1349 25.2049 42.9688C25.2049 44.7364 26.5396 46.1063 28.2079 46.1284C29.6886 46.1726 31.336 44.5817 31.1484 42.9246Z" fill="#F6830F"/>
</svg>
