<svg width="33" height="33" viewBox="0 0 33 33" fill="none" xmlns="http://www.w3.org/2000/svg">
<circle cx="16.5" cy="16.5" r="16.5" fill="#F6830F"/>
<path d="M23.556 18.0052H18.0927V23.4211C18.0927 24.2931 17.3796 25 16.5 25C15.6204 25 14.9073 24.2931 14.9073 23.4211V18.0052H9.44403C8.62352 17.921 8 17.2356 8 16.4178C8 15.6001 8.62352 14.9146 9.44403 14.8304H14.8901V9.43151C14.9751 8.61812 15.6665 8 16.4914 8C17.3163 8 18.0078 8.61812 18.0927 9.43151V14.8304H23.556C24.3765 14.9146 25 15.6001 25 16.4178C25 17.2356 24.3765 17.921 23.556 18.0052Z" fill="#E9E9E9"/>
</svg>
