<svg width="33" height="33" viewBox="0 0 33 33" fill="none" xmlns="http://www.w3.org/2000/svg">
<circle cx="16.5" cy="16.5" r="16.5" fill="#F6830F"/>
<path d="M14.0381 13.4657C14.5817 12.9953 15.2432 12.6816 15.9515 12.5585C16.6599 12.4354 17.3884 12.5074 18.0589 12.7668" stroke="white" stroke-width="0.41" stroke-linecap="round" stroke-linejoin="round"/>
<path d="M19.4129 13.4981L17.0833 13.2911L17.9461 12.7388L17.8943 11.7207L19.4129 13.4981Z" fill="white"/>
<path d="M20 21C19.4592 21.4872 18.8011 21.8119 18.0965 21.9394C17.3918 22.0669 16.6671 21.9923 16 21.7237" stroke="white" stroke-width="0.41" stroke-linecap="round" stroke-linejoin="round"/>
<path d="M15 21L17.3296 21.1985L16.4668 21.7507L16.5186 22.7774L15 21Z" fill="white"/>
<path d="M7.41606 16.5482C6.92262 16.4062 6.46855 16.1524 6.08916 15.8064C5.70978 15.4605 5.41528 15.0317 5.22858 14.5534C5.04188 14.0751 4.96799 13.5601 5.01266 13.0486C5.05734 12.5371 5.21937 12.0428 5.48616 11.6041C5.75296 11.1654 6.11733 10.7941 6.55095 10.5192C6.98457 10.2442 7.47576 10.0729 7.98634 10.0187C8.49692 9.96444 9.01313 10.0287 9.49485 10.2064C9.97657 10.3841 10.4108 10.6705 10.7638 11.0433" stroke="white" stroke-width="0.41" stroke-miterlimit="10" stroke-linecap="round"/>
<path d="M11.5235 12.3552L9.65112 11.0178L10.6606 10.9747L11.1266 10.0859L11.5235 12.3552Z" fill="white"/>
<path d="M26.2336 17.7988C26.7389 17.8868 27.2172 18.09 27.6312 18.3927C28.0453 18.6953 28.3841 19.0893 28.6214 19.544C28.8586 19.9988 28.9879 20.502 28.9992 21.0148C29.0105 21.5276 28.9036 22.0361 28.6866 22.5008C28.4697 22.9656 28.1486 23.3741 27.7483 23.6948C27.348 24.0154 26.8792 24.2395 26.3782 24.3497C25.8773 24.4599 25.3578 24.4532 24.8598 24.3301C24.3619 24.2071 23.899 23.971 23.5071 23.6402" stroke="white" stroke-width="0.41" stroke-miterlimit="10" stroke-linecap="round"/>
<path d="M22.6021 22.4141L24.6124 23.5444L23.6202 23.6911L23.2578 24.6315L22.6021 22.4141Z" fill="white"/>
<path d="M11.6088 13.7344C10.9466 13.7344 10.2994 13.9307 9.74884 14.2986C9.1983 14.6664 8.76921 15.1893 8.51582 15.801C8.26244 16.4127 8.19614 17.0859 8.32531 17.7353C8.45449 18.3847 8.77334 18.9812 9.24153 19.4494C9.70973 19.9176 10.3062 20.2364 10.9557 20.3656C11.6051 20.4948 12.2782 20.4285 12.8899 20.1751C13.5016 19.9217 14.0245 19.4926 14.3924 18.9421C14.7602 18.3916 14.9566 17.7443 14.9566 17.0822C14.9566 16.6425 14.87 16.2072 14.7017 15.801C14.5335 15.3948 14.2869 15.0258 13.976 14.7149C13.6651 14.404 13.2961 14.1575 12.8899 13.9892C12.4837 13.821 12.0484 13.7344 11.6088 13.7344ZM12.0316 18.5403H11.3327V16.3056H10.9616V15.6757H12.0316V18.5403Z" fill="white"/>
<path d="M21.9205 13.7695C21.2584 13.7695 20.6112 13.9659 20.0606 14.3337C19.5101 14.7016 19.081 15.2244 18.8276 15.8362C18.5742 16.4479 18.5079 17.121 18.6371 17.7704C18.7663 18.4198 19.0851 19.0164 19.5533 19.4846C20.0215 19.9528 20.618 20.2716 21.2674 20.4008C21.9168 20.53 22.59 20.4637 23.2017 20.2103C23.8134 19.9569 24.3363 19.5278 24.7041 18.9772C25.072 18.4267 25.2683 17.7794 25.2683 17.1173C25.2683 16.2294 24.9156 15.3779 24.2878 14.7501C23.66 14.1222 22.8084 13.7695 21.9205 13.7695ZM22.9905 18.5065H21.0146V18.006L21.1354 17.9111C21.3942 17.6954 21.5927 17.5228 21.7393 17.3848C21.882 17.2592 22.0094 17.1173 22.119 16.962C22.2132 16.834 22.2673 16.6808 22.2743 16.522C22.2789 16.432 22.2514 16.3433 22.1966 16.2717C22.169 16.2398 22.1344 16.2147 22.0955 16.1982C22.0566 16.1818 22.0145 16.1744 21.9723 16.1768C21.9276 16.1771 21.8835 16.1873 21.8432 16.2067C21.8029 16.2261 21.7675 16.2542 21.7393 16.289C21.6752 16.3826 21.6448 16.4951 21.6531 16.6082H21.0059C21.0048 16.4117 21.0554 16.2183 21.1526 16.0474C21.2346 15.9048 21.3579 15.7904 21.5064 15.7195C21.6606 15.6488 21.8286 15.6134 21.9982 15.616C22.1264 15.6058 22.2553 15.6219 22.377 15.6635C22.4987 15.705 22.6106 15.7711 22.7057 15.8576C22.7852 15.9399 22.8474 16.0373 22.8889 16.1439C22.9304 16.2506 22.9502 16.3644 22.9473 16.4788C22.9443 16.7642 22.8404 17.0393 22.6539 17.2554C22.4407 17.5186 22.1974 17.756 21.9292 17.9629H22.9905V18.5065Z" fill="white"/>
</svg>
