<svg width="22" height="22" viewBox="0 0 22 22" fill="none" xmlns="http://www.w3.org/2000/svg">
<path d="M20.625 22H1.375C1.0026 22 0.680339 21.8675 0.408203 21.6025C0.136068 21.3376 0 21.0117 0 20.625V6.875C0 6.5026 0.136068 6.18034 0.408203 5.9082C0.680339 5.63607 1.0026 5.5 1.375 5.5H5.5C5.5 5.1276 5.63607 4.80534 5.9082 4.5332C6.18034 4.26107 6.5026 4.125 6.875 4.125H8.25V1.375C8.25 1.0026 8.38607 0.680339 8.6582 0.408203C8.93034 0.136068 9.2526 0 9.625 0H12.375C12.7617 0 13.0876 0.136068 13.3525 0.408203C13.6175 0.680339 13.75 1.0026 13.75 1.375V4.125H15.125C15.5117 4.125 15.8376 4.26107 16.1025 4.5332C16.3675 4.80534 16.5 5.1276 16.5 5.5H20.625C21.0117 5.5 21.3376 5.63607 21.6025 5.9082C21.8675 6.18034 22 6.5026 22 6.875V20.625C22 21.0117 21.8675 21.3376 21.6025 21.6025C21.3376 21.8675 21.0117 22 20.625 22ZM6.1875 8.25C5.17057 8.25 4.34342 8.48275 3.70605 8.94824C3.06869 9.41374 2.75 10.0977 2.75 11C2.75 13.4062 3.4375 14.9173 4.8125 15.5332V15.9414C3.82422 16.1133 3.00781 16.4355 2.36328 16.9082C1.71875 17.3809 1.38932 17.918 1.375 18.5195C1.375 18.6914 1.52897 18.8311 1.83691 18.9385C2.14486 19.0459 2.59603 19.1211 3.19043 19.1641C3.78483 19.207 4.27539 19.2321 4.66211 19.2393C5.04883 19.2464 5.55729 19.25 6.1875 19.25C6.81771 19.25 7.32617 19.2464 7.71289 19.2393C8.09961 19.2321 8.59017 19.207 9.18457 19.1641C9.77897 19.1211 10.2301 19.0459 10.5381 18.9385C10.846 18.8311 11 18.6914 11 18.5195C10.9857 17.918 10.6598 17.3809 10.0225 16.9082C9.38509 16.4355 8.5651 16.1133 7.5625 15.9414V15.5547C8.9375 14.9961 9.625 13.4779 9.625 11V10.9355L6.29492 8.25H6.1875ZM14.9531 5.5H12.375V2.0625C12.375 1.8763 12.307 1.71517 12.1709 1.5791C12.0348 1.44303 11.8737 1.375 11.6875 1.375H10.3125C10.1263 1.375 9.96517 1.44303 9.8291 1.5791C9.69303 1.71517 9.625 1.8763 9.625 2.0625V5.5H7.02539C6.91081 5.64323 6.85352 5.80794 6.85352 5.99414C6.85352 6.18034 6.91081 6.34505 7.02539 6.48828L11 9.625L14.9531 6.48828C15.0677 6.34505 15.125 6.18034 15.125 5.99414C15.125 5.80794 15.0677 5.64323 14.9531 5.5ZM19.9375 9.625H14.4375C14.2513 9.625 14.0902 9.69303 13.9541 9.8291C13.818 9.96517 13.75 10.1263 13.75 10.3125C13.75 10.4987 13.818 10.6598 13.9541 10.7959C14.0902 10.932 14.2513 11 14.4375 11H19.9375C20.1237 11 20.2848 10.932 20.4209 10.7959C20.557 10.6598 20.625 10.4987 20.625 10.3125C20.625 10.1263 20.557 9.96517 20.4209 9.8291C20.2848 9.69303 20.1237 9.625 19.9375 9.625ZM13.75 14.4375C13.75 14.6237 13.818 14.7848 13.9541 14.9209C14.0902 15.057 14.2513 15.125 14.4375 15.125H17.1875C17.3737 15.125 17.5348 15.057 17.6709 14.9209C17.807 14.7848 17.875 14.6237 17.875 14.4375C17.875 14.2513 17.807 14.0902 17.6709 13.9541C17.5348 13.818 17.3737 13.75 17.1875 13.75H14.4375C14.2513 13.75 14.0902 13.818 13.9541 13.9541C13.818 14.0902 13.75 14.2513 13.75 14.4375ZM19.9375 17.875H14.4375C14.2513 17.875 14.0902 17.943 13.9541 18.0791C13.818 18.2152 13.75 18.3763 13.75 18.5625C13.75 18.7487 13.818 18.9098 13.9541 19.0459C14.0902 19.182 14.2513 19.25 14.4375 19.25H19.9375C20.1237 19.25 20.2848 19.182 20.4209 19.0459C20.557 18.9098 20.625 18.7487 20.625 18.5625C20.625 18.3763 20.557 18.2152 20.4209 18.0791C20.2848 17.943 20.1237 17.875 19.9375 17.875Z" fill="#0E918C"/>
</svg>
