<svg width="34" height="33" viewBox="0 0 34 33" fill="none" xmlns="http://www.w3.org/2000/svg">
<ellipse cx="17.4375" cy="16.5" rx="16.5625" ry="16.5" fill="#F6830F"/>
<path d="M24.5211 18.0052H19.0372V23.4211C19.0372 24.2931 18.3214 25 17.4384 25C16.5555 25 15.8397 24.2931 15.8397 23.4211V18.0052H10.3558C9.53214 17.921 8.90625 17.2356 8.90625 16.4178C8.90625 15.6001 9.53214 14.9146 10.3558 14.8304H15.8225V9.43151C15.9078 8.61812 16.6018 8 17.4299 8C18.2579 8 18.9519 8.61812 19.0372 9.43151V14.8304H24.5211C25.3448 14.9146 25.9706 15.6001 25.9706 16.4178C25.9706 17.2356 25.3448 17.921 24.5211 18.0052Z" fill="#E9E9E9"/>
</svg>
