<svg width="19" height="22" viewBox="0 0 19 22" fill="none" xmlns="http://www.w3.org/2000/svg">
<path d="M9.22815 0.396259C9.1346 0.28348 9.01947 0.19062 8.88956 0.123151C8.75965 0.055682 8.61758 0.0149702 8.47172 0.00341519C8.32587 -0.00813982 8.17918 0.00969582 8.04031 0.0558708C7.90144 0.102046 7.7732 0.175626 7.66314 0.272273C7.55308 0.36892 7.46343 0.48668 7.39948 0.618609C7.33553 0.750539 7.29857 0.893969 7.29078 1.04044C7.28298 1.18692 7.30452 1.33348 7.35411 1.47148C7.40371 1.60948 7.48036 1.73613 7.57954 1.84396L8.58362 2.99568C6.75236 3.17361 5.01204 3.88082 3.57403 5.03143C2.13602 6.18204 1.06221 7.72653 0.483018 9.4773C-0.0961734 11.2281 -0.155821 13.1098 0.31132 14.8939C0.778461 16.678 1.75229 18.2877 3.11452 19.5276C4.47676 20.7674 6.16878 21.584 7.98507 21.8781C9.80136 22.1723 11.6638 21.9313 13.3461 21.1845C15.0284 20.4378 16.4582 19.2173 17.4619 17.6714C18.4656 16.1255 18.9999 14.3206 19 12.4761V12.1098C19 11.8183 18.8845 11.5388 18.6789 11.3327C18.4734 11.1266 18.1946 11.0108 17.9038 11.0108C17.6131 11.0108 17.3343 11.1266 17.1287 11.3327C16.9232 11.5388 16.8077 11.8183 16.8077 12.1098V12.4761C16.8075 13.8816 16.4041 15.2574 15.6456 16.4394C14.8871 17.6214 13.8054 18.5597 12.5296 19.1424C11.2539 19.7251 9.83783 19.9276 8.45044 19.7258C7.06305 19.5239 5.76286 18.9262 4.70494 18.004C3.64703 17.0817 2.87604 15.8738 2.48395 14.5244C2.09185 13.175 2.09519 11.7409 2.49357 10.3934C2.89195 9.04579 3.66855 7.84154 4.73075 6.92425C5.79295 6.00696 7.09592 5.41535 8.48423 5.21998L7.57808 6.25741C7.48326 6.36613 7.41074 6.4925 7.36464 6.62933C7.31854 6.76615 7.29977 6.91073 7.30941 7.05482C7.31904 7.19892 7.35689 7.33969 7.4208 7.46912C7.4847 7.59855 7.57341 7.71409 7.68185 7.80915C7.79029 7.9042 7.91634 7.97692 8.05281 8.02313C8.18928 8.06935 8.3335 8.08816 8.47722 8.0785C8.62095 8.06884 8.76136 8.0309 8.89046 7.96683C9.01956 7.90276 9.1348 7.81383 9.22962 7.70511L11.7873 4.77454C11.9622 4.57418 12.0587 4.31696 12.0587 4.05068C12.0587 3.78441 11.9622 3.52719 11.7873 3.32683L9.22962 0.396259H9.22815ZM14.3304 9.17333C14.5258 9.38888 14.6279 9.67339 14.6142 9.96436C14.6005 10.2553 14.4721 10.5289 14.2573 10.7251L10.2381 14.3883C10.0296 14.5783 9.75609 14.6804 9.47442 14.6736C9.19275 14.6668 8.92451 14.5515 8.72538 14.3517L6.89846 12.52C6.70484 12.3117 6.59943 12.0362 6.60444 11.7515C6.60945 11.4668 6.72449 11.1951 6.92532 10.9938C7.12616 10.7924 7.3971 10.6771 7.68108 10.6721C7.96506 10.667 8.2399 10.7727 8.44769 10.9668L9.53654 12.057L12.7812 9.0986C12.8876 9.00136 13.0122 8.92611 13.1477 8.87717C13.2832 8.82822 13.427 8.80653 13.5709 8.81333C13.7148 8.82013 13.8559 8.8553 13.9862 8.91682C14.1166 8.97834 14.2335 9.06501 14.3304 9.17186V9.17333Z" fill="#0E918C"/>
</svg>
