<svg width="24" height="24" viewBox="0 0 24 24" fill="none" xmlns="http://www.w3.org/2000/svg">
<path d="M11.95 0L11.29 0.03L15.1 3.84L16.45 2.5C19.7 4.07 22.04 7.24 22.4 11H23.9C23.39 4.84 18.24 0 11.95 0ZM11.95 4C10.02 4 8.45 5.57 8.45 7.5C8.45 9.43 10.02 11 11.95 11C13.88 11 15.45 9.43 15.45 7.5C15.45 5.57 13.88 4 11.95 4ZM0 13C0.51 19.16 5.66 24 11.95 24L12.61 23.97L8.8 20.16L7.45 21.5C4.2 19.94 1.86 16.76 1.5 13H0ZM11.95 13C8.08 13 4.95 14.57 4.95 16.5V18H18.95V16.5C18.95 14.57 15.82 13 11.95 13Z" fill="#0E918C"/>
</svg>
