<svg width="20" height="14" viewBox="0 0 20 14" fill="none" xmlns="http://www.w3.org/2000/svg">
<path d="M19 0C18.798 0 14.15 0.0290004 10 2.008C5.85 0.0290004 1.202 0 1 0C0.734784 0 0.48043 0.105357 0.292893 0.292893C0.105357 0.48043 0 0.734784 0 1V10.883C1.30632e-06 11.0172 0.0270056 11.15 0.0794044 11.2735C0.131803 11.397 0.208525 11.5087 0.305 11.602C0.5 11.79 0.785 11.907 1.034 11.882L1.161 11.881C1.844 11.881 5.457 11.979 9.577 13.906C9.593 13.914 9.611 13.911 9.627 13.917C9.746 13.966 9.871 14 10 14C10.129 14 10.254 13.966 10.374 13.917C10.39 13.911 10.408 13.914 10.424 13.906C14.544 11.978 18.157 11.881 18.84 11.881L18.967 11.882C19.205 11.907 19.5 11.79 19.696 11.602C19.89 11.413 20 11.153 20 10.883V1C20 0.734784 19.8946 0.48043 19.7071 0.292893C19.5196 0.105357 19.2652 0 19 0ZM2 2.049C3.485 2.16 6.381 2.529 9 3.741V11.483C6 10.308 3.41 9.989 2 9.907V2.049ZM18 9.907C16.59 9.989 14 10.308 11 11.483V3.741C13.619 2.529 16.515 2.16 18 2.049V9.907Z" fill="#0E918C"/>
</svg>
