<svg width="20" height="16" viewBox="0 0 20 16" fill="none" xmlns="http://www.w3.org/2000/svg">
<path d="M2.22222 7.95789V5.59158C3.85556 6.29053 6.23333 6.73684 8.88889 6.73684C11.5444 6.73684 13.9222 6.29053 15.5556 5.59158V6.77895C15.7444 6.76211 15.9222 6.73684 16.1111 6.73684C16.7 6.73684 17.2556 6.82105 17.7778 6.95579V3.36842C17.7778 1.50737 13.8 0 8.88889 0C3.97778 0 0 1.50737 0 3.36842V11.7895C0 13.6505 3.98889 15.1579 8.88889 15.1579C9.26667 15.1579 9.63333 15.1579 10 15.1326V13.4316C9.64444 13.4737 9.27778 13.4737 8.88889 13.4737C4.58889 13.4737 2.22222 12.2105 2.22222 11.7895V9.91158C4.01111 10.5684 6.35556 10.9474 8.88889 10.9474C9.34445 10.9474 9.78889 10.9221 10.2333 10.8968C10.4444 10.4926 10.7556 10.1305 11.1889 9.85263C11.2556 9.59158 11.3667 9.33895 11.4889 9.09474C10.6667 9.20421 9.78889 9.26316 8.88889 9.26316C6.2 9.26316 3.66667 8.75789 2.22222 7.95789ZM8.88889 1.68421C13.1889 1.68421 15.5556 2.94737 15.5556 3.36842C15.5556 3.78947 13.1889 5.05263 8.88889 5.05263C4.58889 5.05263 2.22222 3.78947 2.22222 3.36842C2.22222 2.94737 4.58889 1.68421 8.88889 1.68421ZM18.8889 10.9474V10.5263C18.8889 9.96797 18.5962 9.43248 18.0753 9.03767C17.5544 8.64286 16.8478 8.42105 16.1111 8.42105C15.3744 8.42105 14.6679 8.64286 14.1469 9.03767C13.626 9.43248 13.3333 9.96797 13.3333 10.5263V10.9474C12.7222 10.9474 12.2222 11.3263 12.2222 11.7895V15.1579C12.2222 15.6211 12.7222 16 13.3333 16H18.8889C19.5 16 20 15.6211 20 15.1579V11.7895C20 11.3263 19.5 10.9474 18.8889 10.9474ZM17.7778 10.9474H14.4444V10.5263C14.4444 9.82737 15.1889 9.26316 16.1111 9.26316C17.0333 9.26316 17.7778 9.82737 17.7778 10.5263V10.9474Z" fill="#0E918C"/>
</svg>
