<svg width="34" height="32" viewBox="0 0 34 32" fill="none" xmlns="http://www.w3.org/2000/svg">
<path d="M28.8928 0.16975L4.54561 0.0256072C2.16072 0.011488 0.20732 1.82331 0.191395 4.06462L0.0288951 26.9341C0.0129626 29.1764 1.94097 31.0107 4.32534 31.0248L28.6725 31.169C31.058 31.1831 33.0124 29.3718 33.0283 27.1295L33.1908 4.25998C33.2067 2.01868 31.2782 0.183872 28.8928 0.16975V0.16975ZM23.6537 19.9692L23.598 27.806L13.1105 27.7439L13.1306 24.9172L11.5901 24.9081C11.081 24.905 10.5777 24.8077 10.1088 24.6218C9.63983 24.4359 9.2145 24.165 8.85706 23.8247C8.49962 23.4844 8.21707 23.0812 8.02553 22.6382C7.834 22.1952 7.73724 21.7211 7.74077 21.2429L7.75911 18.6625L6.44131 18.6547C6.23096 18.6533 6.0298 18.5737 5.88186 18.4333C5.73392 18.2928 5.65126 18.103 5.65198 17.9054C5.65272 17.8018 5.67309 17.7041 5.71309 17.6163L7.80097 12.7711C7.80097 12.7711 8.02765 10.7603 8.22634 9.99112C9.10567 6.53057 13.2415 3.40999 17.701 3.43639C23.1265 3.46851 27.4976 7.62877 27.4614 12.7299C27.4404 15.6758 25.9527 18.2928 23.6537 19.9692V19.9692Z" fill="#0E918C"/>
<path d="M24.1066 6.93107L22.8948 7.73538C22.7121 7.63337 22.5204 7.54657 22.3217 7.47596C22.2649 7.45631 22.2086 7.44206 22.1517 7.42584L21.8874 6H20.4305L20.1843 7.37278C19.9184 7.43714 19.6634 7.53148 19.4209 7.65038L18.1674 6.81561L17.1339 7.78746L17.9927 8.92441C17.883 9.09788 17.7903 9.28043 17.7158 9.46978C17.6939 9.52334 17.6798 9.57689 17.6616 9.62996L16.4106 9.83189V9.17744L15.4554 9.02316C15.4112 8.86695 15.3484 8.71596 15.2682 8.5731L15.8537 7.79385L15.1769 7.15758L14.3801 7.68674C14.2633 7.62055 14.1407 7.564 14.0136 7.51772C13.9802 7.50593 13.9452 7.50298 13.9108 7.49316L13.7377 6.55422H12.7866L12.6203 7.45532C12.4537 7.498 12.2927 7.55781 12.14 7.63368L11.3109 7.08437L10.6377 7.72064L11.2009 8.4714C11.1331 8.57998 11.07 8.69299 11.0226 8.81631C11.01 8.84874 11.0017 8.88068 10.9913 8.91409L10 9.07426V9.97536L10.9615 10.1306C11.0053 10.2854 11.0664 10.4357 11.1435 10.5782L10.5585 11.3585L11.2327 11.9952L12.0321 11.4646C12.1484 11.529 12.2688 11.5884 12.3997 11.6346C12.4331 11.6464 12.468 11.6488 12.5014 11.6601L12.6745 12.5991L13.6251 12.5981L13.7919 11.698C13.9588 11.6562 14.1173 11.5953 14.2706 11.5206L15.0961 12.0689L15.7724 11.4331L15.2103 10.6824C15.2781 10.5738 15.3401 10.4618 15.3876 10.3394C15.4011 10.307 15.4037 10.2731 15.4157 10.2402L16.1494 10.1213V11.2484L17.6058 11.4842C17.6741 11.7348 17.7747 11.9751 17.9014 12.2036L17.0176 13.3823L18.0448 14.3531L19.2562 13.5488C19.4371 13.6481 19.6264 13.7365 19.8297 13.8068C19.8866 13.8274 19.9434 13.8407 20.0003 13.8579L20.2641 15.2847H21.5281L21.4233 15.8561C21.2408 15.8954 21.0682 15.9632 20.906 16.0487L20.3011 15.6463L19.8271 16.0929L20.2365 16.6388C20.1645 16.7452 20.1047 16.8585 20.0581 16.9768C20.0394 17.0255 20.0321 17.0736 20.0175 17.1218L19.2838 17.2397V17.8701L19.9857 17.9846C20.0263 18.1575 20.0983 18.3196 20.1901 18.4734L19.763 19.0424L20.2349 19.491L20.8142 19.1038C20.9263 19.1711 21.0458 19.2286 21.1746 19.2738C21.2262 19.2915 21.2783 19.2984 21.3305 19.3121L21.4509 20H22.122L22.2446 19.3411C22.4281 19.3028 22.6002 19.235 22.7634 19.1485L23.3646 19.5509L23.8407 19.1033L23.4319 18.5609C23.5038 18.4548 23.5664 18.3418 23.6139 18.2199C23.6321 18.1722 23.6389 18.1241 23.6535 18.0755L24.3809 17.9575V17.3252L23.6827 17.2122C23.6405 17.0408 23.5716 16.8762 23.4783 16.7238L23.9043 16.1539L23.4298 15.7072L22.8515 16.09C22.7385 16.022 22.6183 15.9654 22.4928 15.921C22.4432 15.9038 22.3926 15.8974 22.3421 15.8846L22.2143 15.1967H21.7351L21.9666 13.9104C22.2315 13.8466 22.4855 13.7522 22.7269 13.6338L23.982 14.4686L25.0108 13.4987L24.1557 12.3573C24.2615 12.1868 24.3569 12.0075 24.4325 11.8159C24.4534 11.7628 24.468 11.7093 24.4862 11.6557L26 11.4105V10.0373L24.5415 9.80045C24.4724 9.55254 24.3739 9.31274 24.2479 9.08556L25.1318 7.90293L24.1066 6.93255V6.93107ZM13.1673 10.479C12.8901 10.479 12.6243 10.3752 12.4283 10.1906C12.2324 10.0059 12.1223 9.75549 12.1223 9.49435C12.1223 9.23321 12.2324 8.98277 12.4283 8.79811C12.6243 8.61346 12.8901 8.50972 13.1673 8.50972C13.4444 8.50972 13.7102 8.61346 13.9062 8.79811C14.1021 8.98277 14.2122 9.23321 14.2122 9.49435C14.2122 9.75549 14.1021 10.0059 13.9062 10.1906C13.7102 10.3752 13.4444 10.479 13.1673 10.479V10.479ZM21.8378 16.6565C22.4119 16.6565 22.8776 17.0962 22.8776 17.6396C22.8779 17.7686 22.8513 17.8964 22.7992 18.0156C22.7472 18.1349 22.6707 18.2433 22.5741 18.3347C22.4775 18.4261 22.3628 18.4987 22.2365 18.5483C22.1102 18.5979 21.9747 18.6235 21.8378 18.6238C21.5606 18.6239 21.2947 18.5203 21.0986 18.3358C20.9024 18.1512 20.7921 17.9008 20.7918 17.6396C20.7918 17.0962 21.2611 16.6565 21.8378 16.6565ZM21.0369 11.5447C20.4633 11.5447 19.9956 11.1059 19.9956 10.5615C19.9956 10.3013 20.1053 10.0517 20.3006 9.86772C20.4959 9.68371 20.7607 9.58033 21.0369 9.58033C21.3131 9.58033 21.5779 9.68371 21.7732 9.86772C21.9685 10.0517 22.0782 10.3013 22.0782 10.5615C22.0786 10.6906 22.0519 10.8184 21.9997 10.9377C21.9475 11.057 21.8708 11.1654 21.7741 11.2567C21.6774 11.3481 21.5625 11.4205 21.436 11.4699C21.3094 11.5193 21.1738 11.5447 21.0369 11.5447V11.5447Z" fill="#0E918C"/>
<path d="M9.99812 12.0005C9.7334 12.0005 9.47952 12.1058 9.29234 12.2933C9.10516 12.4808 9 12.7351 9 13.0002C9 13.2654 9.10516 13.5197 9.29234 13.7072C9.47952 13.8947 9.7334 14 9.99812 14C10.2636 14.0001 10.5183 13.8946 10.7062 13.7067C10.8941 13.5188 10.9998 13.2638 11 12.9979C10.999 12.7325 10.8929 12.4785 10.7051 12.2914C10.5173 12.1043 10.263 11.9995 9.99812 12V12.0005Z" fill="#0E918C"/>
</svg>
