<svg width="16" height="12" viewBox="0 0 16 12" fill="none" xmlns="http://www.w3.org/2000/svg">
<path d="M14.5 1C14.6326 1 14.7598 1.05268 14.8536 1.14645C14.9473 1.24021 15 1.36739 15 1.5V10.5C15 10.6326 14.9473 10.7598 14.8536 10.8536C14.7598 10.9473 14.6326 11 14.5 11H1.5C1.36739 11 1.24021 10.9473 1.14645 10.8536C1.05268 10.7598 1 10.6326 1 10.5V1.5C1 1.36739 1.05268 1.24021 1.14645 1.14645C1.24021 1.05268 1.36739 1 1.5 1H14.5ZM1.5 0C1.10218 0 0.720644 0.158035 0.43934 0.43934C0.158035 0.720644 0 1.10218 0 1.5L0 10.5C0 10.8978 0.158035 11.2794 0.43934 11.5607C0.720644 11.842 1.10218 12 1.5 12H14.5C14.8978 12 15.2794 11.842 15.5607 11.5607C15.842 11.2794 16 10.8978 16 10.5V1.5C16 1.10218 15.842 0.720644 15.5607 0.43934C15.2794 0.158035 14.8978 0 14.5 0H1.5Z" fill="#0E918C"/>
<path d="M7.00005 3.49999C7.00005 3.36739 7.05272 3.24021 7.14649 3.14644C7.24026 3.05267 7.36744 2.99999 7.50005 2.99999H12.5C12.6327 2.99999 12.7598 3.05267 12.8536 3.14644C12.9474 3.24021 13 3.36739 13 3.49999C13 3.6326 12.9474 3.75978 12.8536 3.85355C12.7598 3.94731 12.6327 3.99999 12.5 3.99999H7.50005C7.36744 3.99999 7.24026 3.94731 7.14649 3.85355C7.05272 3.75978 7.00005 3.6326 7.00005 3.49999ZM5.50405 2.64599C5.55061 2.69244 5.58755 2.74761 5.61276 2.80836C5.63796 2.8691 5.65094 2.93423 5.65094 2.99999C5.65094 3.06576 5.63796 3.13088 5.61276 3.19163C5.58755 3.25237 5.55061 3.30755 5.50405 3.35399L4.00405 4.85399C3.9576 4.90056 3.90242 4.9375 3.84168 4.96271C3.78093 4.98791 3.71581 5.00089 3.65005 5.00089C3.58428 5.00089 3.51916 4.98791 3.45841 4.96271C3.39767 4.9375 3.34249 4.90056 3.29605 4.85399L2.79605 4.35399C2.74956 4.30751 2.71268 4.25232 2.68752 4.19158C2.66236 4.13084 2.64941 4.06574 2.64941 3.99999C2.64941 3.86722 2.70216 3.73988 2.79605 3.64599C2.88993 3.55211 3.01727 3.49936 3.15005 3.49936C3.28282 3.49936 3.41016 3.55211 3.50405 3.64599L3.65005 3.79299L4.79605 2.64599C4.84249 2.59943 4.89767 2.56249 4.95841 2.53728C5.01916 2.51207 5.08428 2.4991 5.15005 2.4991C5.21581 2.4991 5.28093 2.51207 5.34168 2.53728C5.40242 2.56249 5.4576 2.59943 5.50405 2.64599ZM7.00005 7.49999C7.00005 7.36739 7.05272 7.24021 7.14649 7.14644C7.24026 7.05267 7.36744 6.99999 7.50005 6.99999H12.5C12.6327 6.99999 12.7598 7.05267 12.8536 7.14644C12.9474 7.24021 13 7.36739 13 7.49999C13 7.6326 12.9474 7.75978 12.8536 7.85355C12.7598 7.94732 12.6327 7.99999 12.5 7.99999H7.50005C7.36744 7.99999 7.24026 7.94732 7.14649 7.85355C7.05272 7.75978 7.00005 7.6326 7.00005 7.49999ZM5.50405 6.64599C5.55061 6.69244 5.58755 6.74761 5.61276 6.80836C5.63796 6.86911 5.65094 6.93423 5.65094 6.99999C5.65094 7.06576 5.63796 7.13088 5.61276 7.19163C5.58755 7.25237 5.55061 7.30755 5.50405 7.35399L4.00405 8.85399C3.9576 8.90056 3.90242 8.9375 3.84168 8.96271C3.78093 8.98791 3.71581 9.00089 3.65005 9.00089C3.58428 9.00089 3.51916 8.98791 3.45841 8.96271C3.39767 8.9375 3.34249 8.90056 3.29605 8.85399L2.79605 8.35399C2.74956 8.30751 2.71268 8.25232 2.68752 8.19158C2.66236 8.13084 2.64941 8.06574 2.64941 7.99999C2.64941 7.93425 2.66236 7.86915 2.68752 7.80841C2.71268 7.74767 2.74956 7.69248 2.79605 7.64599C2.84253 7.59951 2.89772 7.56263 2.95846 7.53747C3.0192 7.51231 3.0843 7.49936 3.15005 7.49936C3.21579 7.49936 3.28089 7.51231 3.34163 7.53747C3.40237 7.56263 3.45756 7.59951 3.50405 7.64599L3.65005 7.79299L4.79605 6.64599C4.84249 6.59943 4.89767 6.56249 4.95841 6.53728C5.01916 6.51207 5.08428 6.4991 5.15005 6.4991C5.21581 6.4991 5.28093 6.51207 5.34168 6.53728C5.40242 6.56249 5.4576 6.59943 5.50405 6.64599Z" fill="#0E918C"/>
</svg>
