<svg width="29" height="27" viewBox="0 0 29 27" fill="none" xmlns="http://www.w3.org/2000/svg">
<path d="M23.2 6.94286V1.20536C23.1996 0.885789 23.0722 0.579415 22.8457 0.353446C22.6192 0.127477 22.312 0.000366871 21.9917 0H7.00833C6.68798 0.000366871 6.38085 0.127477 6.15432 0.353446C5.92779 0.579415 5.80037 0.885789 5.8 1.20536V6.94286L0 11.0752V27H29V11.0752L23.2 6.94286ZM26.4431 11.6237L23.2 13.7387V9.31259L26.4431 11.6237ZM7.73333 1.92857H21.2667V14.9996L17.8129 17.2523L14.9988 15.7967L11.9318 17.2737L7.73333 14.731V1.92857ZM14.9679 17.9532L27.0667 24.2112V25.0714H1.93333V24.2303L14.9679 17.9532ZM1.93333 13.4744L9.85662 18.2732L1.93333 22.0887V13.4744ZM19.7832 18.2717L27.0667 13.5209V22.0388L19.7832 18.2717ZM5.8 9.31259V13.5603L2.57774 11.6085L5.8 9.31259Z" fill="#0E918C"/>
</svg>
