<svg width="28" height="23" viewBox="0 0 28 23" fill="none" xmlns="http://www.w3.org/2000/svg">
<path d="M17.818 23H5.09134V20.7008H17.818V23ZM26.7267 2.2992L20.7006 9.14505L20.4206 9.45544L13.2555 17.721C13.019 17.9347 12.7383 18.1041 12.4293 18.2197C12.1203 18.3353 11.7891 18.3948 11.4547 18.3948C11.1202 18.3948 10.7891 18.3353 10.4801 18.2197C10.1711 18.1041 9.89034 17.9347 9.65386 17.721C9.41737 17.5074 9.22978 17.2538 9.10179 16.9747C8.9738 16.6956 8.90793 16.3965 8.90793 16.0944C8.90793 15.7923 8.9738 15.4931 9.10179 15.214C9.22978 14.9349 9.41737 14.6813 9.65386 14.4677L26.7267 2.2992ZM2.0942 6.01699C0.255869 8.67663 -0.405312 11.8644 0.242463 14.9448H1.27333V13.7952C1.25946 11.5316 2.00973 9.31798 3.42414 7.44939L2.0942 6.01699ZM14 3.09534e-07C12.0537 -0.000389406 10.1289 0.367226 8.34928 1.0792C6.56971 1.79117 4.97482 2.83173 3.66722 4.13395L5.12315 5.702C6.85083 4.267 9.1077 3.46385 11.4547 3.44879C13.8143 3.46365 16.0826 4.27469 17.8142 5.7227L22.3322 2.50152C19.9264 0.877437 17.0035 -8.89837e-05 14 3.09534e-07V3.09534e-07ZM22.6924 10.5763L22.3958 10.9062L21.4693 11.9754C21.5776 12.5771 21.6333 13.1856 21.636 13.7952V14.9448H27.7576C28.3615 12.0678 27.8287 9.09058 26.252 6.53201L22.6924 10.5763Z" fill="#0E918C"/>
</svg>
