<svg width="22" height="19" viewBox="0 0 22 19" fill="none" xmlns="http://www.w3.org/2000/svg">
<path d="M20.9555 1.67956L17.0779 1.71816L17.0634 0.257549C17.0622 0.142786 16.9741 0.0497582 16.8674 0.0508198L15.5103 0.0643314C15.4036 0.0653931 15.3173 0.160158 15.3185 0.274921L15.333 1.73554L11.7463 1.77125L11.7317 0.31063C11.7306 0.195868 11.6424 0.10284 11.5358 0.103901L10.1786 0.117413C10.072 0.118474 9.98567 0.21324 9.98682 0.328002L10.0014 1.78862L6.41461 1.82433L6.40007 0.363712C6.39892 0.248949 6.31074 0.155921 6.20411 0.156983L4.84696 0.170494C4.74033 0.171556 4.65402 0.266321 4.65516 0.381084L4.6697 1.8417L0.792133 1.8803C0.363177 1.88457 0.0203324 2.261 0.0249287 2.72266L0.174501 17.7461C0.179097 18.2078 0.529368 18.5773 0.958324 18.573L21.1217 18.3723C21.5506 18.368 21.8935 17.9916 21.8889 17.5299L21.7393 2.50648C21.7347 2.04482 21.3844 1.67529 20.9555 1.67956ZM14.6177 15.0982L13.5538 15.1088C13.4521 15.1098 13.3688 15.0245 13.3604 14.9151C13.2552 13.5962 12.2221 12.5657 10.9813 12.578C9.74049 12.5904 8.72817 13.6439 8.64919 14.962C8.64301 15.0716 8.56147 15.1585 8.45969 15.1595L7.39578 15.1701C7.36948 15.1704 7.34339 15.1649 7.31911 15.154C7.29482 15.1431 7.27284 15.127 7.2545 15.1067C7.23616 15.0864 7.22184 15.0623 7.21243 15.0359C7.20301 15.0094 7.19868 14.9812 7.19972 14.9529C7.25374 13.562 7.94934 12.3448 8.97489 11.6459C8.51425 11.1118 8.25569 10.4119 8.25005 9.68372C8.23398 8.06922 9.43028 6.75045 10.9207 6.73561C12.4112 6.72077 13.6335 8.01546 13.6496 9.62996C13.6571 10.389 13.3974 11.0802 12.9639 11.6062C14.0056 12.2871 14.7229 13.4877 14.8046 14.8772C14.8155 14.9971 14.7292 15.0971 14.6177 15.0982ZM10.9387 8.30053C10.248 8.30741 9.69184 8.92073 9.69929 9.66929C9.70675 10.4179 10.275 11.02 10.9657 11.0131C11.6564 11.0062 12.2126 10.3929 12.2052 9.64434C12.1977 8.89578 11.6294 8.29366 10.9387 8.30053Z" fill="#0E918C"/>
</svg>
