<svg width="28" height="28" viewBox="0 0 28 28" fill="none" xmlns="http://www.w3.org/2000/svg">
<path d="M18.59 20L13 14.41V5H15V13.58L20 18.59L18.59 20Z" fill="#F6830F"/>
<path d="M14 0C12.135 0.000264229 10.2889 0.374778 8.57123 1.10136C6.85354 1.82795 5.29911 2.89183 4 4.23V0H2V8H10V6H5.08C6.95603 3.91529 9.50298 2.55353 12.2785 2.1512C15.0541 1.74888 17.8828 2.33142 20.2736 3.79764C22.6643 5.26386 24.466 7.52115 25.3657 10.1775C26.2654 12.8338 26.2063 15.7213 25.1987 18.3386C24.191 20.9559 22.2985 23.1375 19.8497 24.5047C17.401 25.8719 14.5507 26.3381 11.794 25.8226C9.03724 25.307 6.54814 23.8422 4.759 21.6824C2.96985 19.5227 1.99367 16.8045 2 14H0C0 16.7689 0.821086 19.4757 2.35943 21.778C3.89777 24.0803 6.08427 25.8747 8.64243 26.9343C11.2006 27.9939 14.0155 28.2712 16.7313 27.731C19.447 27.1908 21.9416 25.8574 23.8995 23.8995C25.8574 21.9416 27.1908 19.447 27.731 16.7313C28.2712 14.0155 27.9939 11.2006 26.9343 8.64243C25.8747 6.08427 24.0803 3.89777 21.778 2.35943C19.4757 0.821086 16.7689 0 14 0V0Z" fill="#F6830F"/>
</svg>
