<svg width="22" height="22" viewBox="0 0 22 22" fill="none" xmlns="http://www.w3.org/2000/svg">
<path d="M3.66667 17.1111C3.66667 14.6667 8.55556 13.3222 11 13.3222C13.4444 13.3222 18.3333 14.6667 18.3333 17.1111V18.3333H3.66667V17.1111ZM14.6667 7.33333C14.6667 8.30579 14.2804 9.23843 13.5927 9.92606C12.9051 10.6137 11.9725 11 11 11C10.0275 11 9.09491 10.6137 8.40727 9.92606C7.71964 9.23843 7.33333 8.30579 7.33333 7.33333C7.33333 6.36087 7.71964 5.42824 8.40727 4.74061C9.09491 4.05298 10.0275 3.66667 11 3.66667C11.9725 3.66667 12.9051 4.05298 13.5927 4.74061C14.2804 5.42824 14.6667 6.36087 14.6667 7.33333ZM0 2.44444V19.5556C0 20.2039 0.257539 20.8256 0.715961 21.284C1.17438 21.7425 1.79614 22 2.44444 22H19.5556C20.2039 22 20.8256 21.7425 21.284 21.284C21.7425 20.8256 22 20.2039 22 19.5556V2.44444C22 1.79614 21.7425 1.17438 21.284 0.715961C20.8256 0.257539 20.2039 0 19.5556 0H2.44444C1.79614 0 1.17438 0.257539 0.715961 0.715961C0.257539 1.17438 0 1.79614 0 2.44444Z" fill="#0E918C"/>
</svg>
