<svg width="26" height="28" viewBox="0 0 26 28" fill="none" xmlns="http://www.w3.org/2000/svg">
<path d="M26 21.382L24 20.382V18C23.9976 16.5834 23.4944 15.2133 22.5794 14.1318C21.6645 13.0503 20.3966 12.3271 19 12.09V10H17V12.09C15.6034 12.3271 14.3355 13.0503 13.4206 14.1318C12.5056 15.2133 12.0024 16.5834 12 18V20.382L10 21.382V26H16V28H20V26H26V21.382ZM24 24H12V22.618L14 21.618V18C14 16.9391 14.4214 15.9217 15.1716 15.1716C15.9217 14.4214 16.9391 14 18 14C19.0609 14 20.0783 14.4214 20.8284 15.1716C21.5786 15.9217 22 16.9391 22 18V21.618L24 22.618V24Z" fill="#DC3545"/>
<path d="M24 4C24 3.46957 23.7893 2.96086 23.4142 2.58579C23.0391 2.21071 22.5304 2 22 2H18V0H16V2H8V0H6V2H2C1.46957 2 0.960859 2.21071 0.585786 2.58579C0.210714 2.96086 0 3.46957 0 4V24C0 24.5304 0.210714 25.0391 0.585786 25.4142C0.960859 25.7893 1.46957 26 2 26H6V24H2V4H6V6H8V4H16V6H18V4H22V10H24V4Z" fill="#DC3545"/>
</svg>
