<svg width="22" height="19" viewBox="0 0 22 19" fill="none" xmlns="http://www.w3.org/2000/svg">
<path d="M18.2004 17.9944C19.7469 17.9944 21.0005 16.9288 21.0005 15.6144C21.0005 14.2999 19.7469 13.2344 18.2004 13.2344C16.654 13.2344 15.4004 14.2999 15.4004 15.6144C15.4004 16.9288 16.654 17.9944 18.2004 17.9944Z" stroke="#0E918C" stroke-width="1.5" stroke-linecap="round" stroke-linejoin="round"/>
<path d="M3.80005 17.9944C5.34647 17.9944 6.60009 16.9288 6.60009 15.6144C6.60009 14.2999 5.34647 13.2344 3.80005 13.2344C2.25362 13.2344 1 14.2999 1 15.6144C1 16.9288 2.25362 17.9944 3.80005 17.9944Z" stroke="#0E918C" stroke-width="1.5" stroke-linecap="round" stroke-linejoin="round"/>
<path d="M3.80005 5.76C5.34647 5.76 6.60009 4.69444 6.60009 3.38C6.60009 2.06556 5.34647 1 3.80005 1C2.25362 1 1 2.06556 1 3.38C1 4.69444 2.25362 5.76 3.80005 5.76Z" stroke="#0E918C" stroke-width="1.5" stroke-linecap="round" stroke-linejoin="round"/>
<path d="M4.19922 6.43938V12.5594M10.5993 2.35938H11.3993H10.5993ZM15.3994 2.35938H16.1994H15.3994ZM18.5995 5.75938V5.07938V5.75938ZM18.5995 9.15938V9.83938V9.15938Z" stroke="#0E918C" stroke-width="1.5" stroke-linecap="round" stroke-linejoin="round"/>
</svg>
