<svg width="21" height="19" viewBox="0 0 21 19" fill="none" xmlns="http://www.w3.org/2000/svg">
<path d="M3.90625 3.9375H11.7188V5.25H3.90625V3.9375Z" fill="#0E918C"/>
<path d="M20.3125 10.5001C20.3141 9.84301 20.1198 9.19599 19.7475 8.61807C19.3751 8.04014 18.8365 7.54968 18.1807 7.1914C17.5249 6.83312 16.7728 6.61841 15.9929 6.56683C15.213 6.51526 14.4301 6.62847 13.7157 6.89613C13.0012 7.1638 12.3778 7.57742 11.9024 8.09928C11.427 8.62115 11.1146 9.23466 10.9938 9.88391C10.8729 10.5332 10.9474 11.1975 11.2105 11.8164C11.4736 12.4352 11.9169 12.9889 12.5 13.427V18.3751L15.625 17.1329L18.75 18.3751V13.427C19.2411 13.0591 19.6342 12.6082 19.9035 12.1038C20.1728 11.5994 20.3121 11.0529 20.3125 10.5001ZM17.1875 16.3014L15.625 15.6799L14.0625 16.3014V14.208C15.0722 14.5143 16.1777 14.5143 17.1875 14.208V16.3014ZM15.625 13.1251C15.0069 13.1251 14.4027 12.9712 13.8888 12.6828C13.3749 12.3943 12.9744 11.9843 12.7379 11.5047C12.5013 11.025 12.4395 10.4972 12.56 9.98803C12.6806 9.47883 12.9782 9.0111 13.4153 8.64399C13.8523 8.27688 14.4091 8.02687 15.0153 7.92558C15.6215 7.8243 16.2499 7.87628 16.8209 8.07496C17.3919 8.27364 17.88 8.61009 18.2233 9.04177C18.5667 9.47345 18.75 9.98097 18.75 10.5001C18.749 11.1961 18.4194 11.8632 17.8336 12.3553C17.2477 12.8474 16.4535 13.1243 15.625 13.1251Z" fill="#0E918C"/>
<path d="M3.90625 7.875H9.375V9.1875H3.90625V7.875Z" fill="#0E918C"/>
<path d="M1.5625 18.375C1.14823 18.3747 0.751039 18.2363 0.458103 17.9902C0.165167 17.7441 0.000413654 17.4105 0 17.0625V1.3125C0.000413654 0.96451 0.165167 0.630872 0.458103 0.384806C0.751039 0.13874 1.14823 0.000347469 1.5625 0H14.0625C14.4768 0.000347469 14.874 0.13874 15.1669 0.384806C15.4598 0.630872 15.6246 0.96451 15.625 1.3125V3.9375H14.0625V1.3125H1.5625V17.0625H9.375V18.375H1.5625Z" fill="#0E918C"/>
</svg>
