<svg width="22" height="22" viewBox="0 0 22 22" fill="none" xmlns="http://www.w3.org/2000/svg">
<path d="M11 0C4.917 0 0 4.95 0 11C0 13.9174 1.15893 16.7153 3.22183 18.7782C4.24327 19.7996 5.4559 20.6099 6.79048 21.1627C8.12506 21.7155 9.55546 22 11 22C13.9174 22 16.7153 20.8411 18.7782 18.7782C20.8411 16.7153 22 13.9174 22 11C22 9.55546 21.7155 8.12506 21.1627 6.79048C20.6099 5.4559 19.7996 4.24327 18.7782 3.22183C17.7567 2.20038 16.5441 1.39013 15.2095 0.837325C13.8749 0.284523 12.4445 0 11 0ZM14.96 6.974C16.137 6.974 17.083 7.92 17.083 9.097C17.083 10.274 16.137 11.22 14.96 11.22C14.3969 11.22 13.857 10.9963 13.4588 10.5982C13.0607 10.2 12.837 9.66006 12.837 9.097C12.826 7.92 13.783 6.974 14.96 6.974ZM8.36 5.236C9.79 5.236 10.956 6.402 10.956 7.832C10.956 9.262 9.79 10.45 8.36 10.45C6.93 10.45 5.764 9.262 5.764 7.832C5.764 6.391 6.919 5.236 8.36 5.236ZM8.36 15.279V19.404C5.72 18.579 3.63 16.544 2.706 13.948C3.85 12.716 6.743 12.1 8.36 12.1C8.943 12.1 9.68 12.177 10.45 12.331C8.646 13.288 8.36 14.553 8.36 15.279ZM11 19.8C10.692 19.8 10.406 19.8 10.12 19.756V15.279C10.12 13.717 13.354 12.936 14.96 12.936C16.137 12.936 18.15 13.365 19.184 14.201C17.897 17.468 14.718 19.8 11 19.8Z" fill="#0E918C"/>
</svg>
