<svg width="22" height="22" viewBox="0 0 22 22" fill="none" xmlns="http://www.w3.org/2000/svg">
<path d="M19.569 14.751C20.614 12.364 20.614 9.625 19.569 7.249L16.555 8.613C17.215 10.131 17.215 11.858 16.566 13.387L19.569 14.751ZM14.762 2.431C13.5771 1.91405 12.2983 1.64722 11.0055 1.64722C9.71274 1.64722 8.4339 1.91405 7.249 2.431L8.613 5.434C10.142 4.785 11.869 4.785 13.398 5.445L14.762 2.431ZM2.431 7.238C1.91403 8.42483 1.64723 9.70547 1.64723 11C1.64723 12.2945 1.91403 13.5752 2.431 14.762L5.445 13.387C4.785 11.869 4.785 10.131 5.445 8.602L2.431 7.238ZM7.249 19.569C8.43397 20.0868 9.71348 20.3532 11.0067 20.3513C12.2998 20.3494 13.5785 20.0793 14.762 19.558L13.398 16.555C12.6446 16.8806 11.8329 17.0494 11.0121 17.0513C10.1914 17.0532 9.37889 16.8881 8.624 16.566L7.249 19.569ZM11 0C12.4445 0 13.8749 0.284523 15.2095 0.837325C16.5441 1.39013 17.7567 2.20038 18.7782 3.22183C19.7996 4.24327 20.6099 5.4559 21.1627 6.79048C21.7155 8.12506 22 9.55546 22 11C22 13.9174 20.8411 16.7153 18.7782 18.7782C16.7153 20.8411 13.9174 22 11 22C9.55546 22 8.12506 21.7155 6.79048 21.1627C5.4559 20.6099 4.24327 19.7996 3.22183 18.7782C1.15893 16.7153 0 13.9174 0 11C0 8.08262 1.15893 5.28473 3.22183 3.22183C5.28473 1.15893 8.08262 0 11 0ZM11 6.6C9.83305 6.6 8.71389 7.06357 7.88873 7.88873C7.06357 8.71389 6.6 9.83305 6.6 11C6.6 12.167 7.06357 13.2861 7.88873 14.1113C8.71389 14.9364 9.83305 15.4 11 15.4C12.167 15.4 13.2861 14.9364 14.1113 14.1113C14.9364 13.2861 15.4 12.167 15.4 11C15.4 9.83305 14.9364 8.71389 14.1113 7.88873C13.2861 7.06357 12.167 6.6 11 6.6Z" fill="#0E918C"/>
</svg>
