<svg width="22" height="22" viewBox="0 0 22 22" fill="none" xmlns="http://www.w3.org/2000/svg">
<path fill-rule="evenodd" clip-rule="evenodd" d="M22 0H0V22H22V0ZM3.20833 2.75H2.75V15.125H13.469V14.2083H3.66667V3.66667H16.0417V5.04167H16.9583V2.75H3.20833ZM17.875 7.33333C17.875 7.69801 17.7301 8.04774 17.4723 8.30561C17.2144 8.56347 16.8647 8.70833 16.5 8.70833C16.1353 8.70833 15.7856 8.56347 15.5277 8.30561C15.2699 8.04774 15.125 7.69801 15.125 7.33333C15.125 6.96866 15.2699 6.61892 15.5277 6.36106C15.7856 6.1032 16.1353 5.95833 16.5 5.95833C16.8647 5.95833 17.2144 6.1032 17.4723 6.36106C17.7301 6.61892 17.875 6.96866 17.875 7.33333ZM18.8054 10.3107C18.4974 9.89725 18.0262 9.63004 17.4309 9.63004H14.6809C14.5299 9.63174 14.3826 9.67676 14.2565 9.75975C14.1854 9.80558 14.1263 9.85692 14.0841 9.89633C13.9953 9.98285 13.9122 10.075 13.8353 10.1723C13.678 10.3661 13.5011 10.6141 13.3403 10.8483C13.1863 11.0729 13.04 11.2965 12.9287 11.4689H11.0142C10.8319 11.4689 10.657 11.5413 10.5281 11.6702C10.3991 11.7992 10.3267 11.974 10.3267 12.1564C10.3267 12.3387 10.3991 12.5136 10.5281 12.6425C10.657 12.7714 10.8319 12.8439 11.0142 12.8439H13.3059C13.5433 12.8439 13.7642 12.7215 13.8898 12.5198V12.5189L13.8925 12.5157L13.9017 12.501L13.937 12.4447C14.0262 12.3033 14.1166 12.1627 14.2083 12.023V18.5625C14.2086 18.7337 14.2727 18.8986 14.3881 19.025C14.5034 19.1515 14.6619 19.2303 14.8323 19.2461C15.0027 19.2619 15.173 19.2136 15.3097 19.1106C15.4463 19.0075 15.5397 18.8572 15.5714 18.689L16.2397 15.125H16.3758L16.9675 18.6757C16.9956 18.8461 17.0868 18.9997 17.2231 19.106C17.3593 19.2122 17.5305 19.2632 17.7026 19.249C17.8748 19.2347 18.0352 19.1562 18.1521 19.029C18.269 18.9018 18.3337 18.7352 18.3333 18.5625V14.0516C18.6917 13.7688 18.9237 13.3563 19.0621 12.9571C19.2069 12.5382 19.2715 12.0679 19.2436 11.6188C19.2161 11.1769 19.0942 10.6975 18.8054 10.3107Z" fill="#0E918C"/>
</svg>
