<svg width="24" height="24" viewBox="0 0 24 24" fill="none" xmlns="http://www.w3.org/2000/svg">
<circle cx="12" cy="12" r="12" fill="#1A202E"/>
<path d="M16.6095 11.8072C16.6095 11.4813 16.4733 11.2251 16.1677 11.0815C16.0925 11.0459 16.0754 10.9952 16.0754 10.9194C16.0754 10.4093 16.0726 9.89917 16.0754 9.38857C16.0837 8.51464 15.8718 7.70258 15.393 6.96807C14.8026 6.06229 13.9873 5.45243 12.943 5.16481C12.66 5.08679 12.3645 5.05355 12.0746 5H11.5317C11.5108 5.00839 11.4892 5.01458 11.4671 5.01847C10.6297 5.07643 9.83011 5.38893 9.17536 5.91409C8.16709 6.71923 7.6094 7.76998 7.54477 9.06263C7.51476 9.67157 7.53646 10.2833 7.52861 10.8936C7.52861 10.9453 7.49814 11.0242 7.45844 11.0441C7.13527 11.2075 6.99908 11.4771 7 11.8229C7.00231 12.7065 7 13.5902 7.01986 14.4738C7.03868 15.1876 7.23716 15.8851 7.59693 16.5019C8.36099 17.8407 9.50499 18.6629 11.0308 18.9307C11.8063 19.0669 12.6039 19.0016 13.3469 18.7409C14.3267 18.4119 15.1726 17.7727 15.7568 16.9201C16.2328 16.2387 16.5361 15.4784 16.5786 14.6501C16.6271 13.7037 16.6072 12.7559 16.6095 11.8072ZM12.4883 14.965C12.5612 15.3306 12.6268 15.6972 12.6988 16.0628C12.7408 16.283 12.7103 16.3204 12.4864 16.3204H11.8036C11.5626 16.3204 11.3212 16.3204 11.0802 16.3204C10.9329 16.3204 10.8955 16.271 10.9209 16.1261C10.9925 15.742 11.0631 15.3574 11.1393 14.9719C11.1497 14.9332 11.1498 14.8925 11.1397 14.8537C11.1296 14.8149 11.1096 14.7795 11.0816 14.7508C10.9644 14.6134 10.8887 14.4455 10.8635 14.2667C10.8382 14.0879 10.8643 13.9056 10.9388 13.7412C11.0133 13.5767 11.1331 13.4368 11.2842 13.3379C11.4353 13.239 11.6114 13.1852 11.7919 13.1827C11.9725 13.1801 12.15 13.2291 12.3038 13.3238C12.4575 13.4184 12.5811 13.5549 12.6602 13.7173C12.7392 13.8796 12.7704 14.0611 12.7501 14.2405C12.7298 14.42 12.6588 14.5899 12.5455 14.7305C12.5165 14.7613 12.496 14.7991 12.486 14.8402C12.476 14.8813 12.4768 14.9243 12.4883 14.965ZM14.6054 10.835C14.6054 10.8659 14.6004 10.8973 14.5967 10.9425H9.01978C9.01278 10.9153 9.008 10.8875 9.00547 10.8594C9.00547 10.2856 8.98377 9.70989 9.0184 9.13789C9.08857 7.97588 9.67719 7.13981 10.7446 6.69107C12.3715 6.00966 14.1766 6.981 14.5431 8.70577C14.5823 8.90219 14.6024 9.10195 14.6031 9.30224C14.6119 9.81422 14.6059 10.3244 14.6054 10.835Z" fill="white"/>
</svg>
