<svg width="63" height="60" viewBox="0 0 63 60" fill="none" xmlns="http://www.w3.org/2000/svg">
<ellipse cx="31.2245" cy="30" rx="31.2245" ry="30" fill="#23AB70"/>
<path d="M44.5767 32.7367H34.2381V42.5837C34.2381 44.1692 32.8886 45.4545 31.224 45.4545C29.5594 45.4545 28.2099 44.1692 28.2099 42.5837V32.7367H17.8714C16.3186 32.5836 15.1387 31.3373 15.1387 29.8505C15.1387 28.3637 16.3186 27.1175 17.8714 26.9643H28.1775V17.1482C28.3383 15.6693 29.6468 14.5454 31.2078 14.5454C32.7688 14.5454 34.0773 15.6693 34.2381 17.1482V26.9643H44.5767C46.1294 27.1175 47.3094 28.3637 47.3094 29.8505C47.3094 31.3373 46.1294 32.5836 44.5767 32.7367Z" fill="white"/>
</svg>
