<svg width="52" height="52" viewBox="0 0 52 52" fill="none" xmlns="http://www.w3.org/2000/svg">
<circle cx="26" cy="26" r="26" fill="#1A202E"/>
<path d="M37.1179 28.3718H28.5092V36.9058C28.5092 38.2799 27.3855 39.3938 25.9994 39.3938C24.6133 39.3938 23.4897 38.2799 23.4897 36.9058V28.3718H14.8809C13.588 28.239 12.6055 27.1589 12.6055 25.8704C12.6055 24.5818 13.588 23.5017 14.8809 23.369H23.4627V14.8617C23.5966 13.58 24.6861 12.606 25.9859 12.606C27.2858 12.606 28.3753 13.58 28.5092 14.8617V23.369H37.1179C38.4108 23.5017 39.3933 24.5818 39.3933 25.8704C39.3933 27.1589 38.4108 28.239 37.1179 28.3718Z" fill="white"/>
</svg>
