<svg width="60" height="60" viewBox="0 0 60 60" fill="none" xmlns="http://www.w3.org/2000/svg">
<circle cx="30" cy="30" r="30" fill="#28B369"/>
<path d="M49.9182 16.5828C49.3468 15.7264 48.6937 14.9108 48.0202 14.1359C43.6121 9.14019 37.1835 6 30.0203 6C22.8367 6 16.4081 9.14019 12 14.1359C11.3061 14.9108 10.6734 15.7264 10.102 16.5828C7.5102 20.3959 6 25.0246 6 30C6 34.8938 7.46938 39.441 9.97957 43.2336C10.551 44.0901 11.1837 44.9261 11.8571 45.7009C16.2653 50.7783 22.755 54 29.9999 54C37.2448 54 43.7549 50.7783 48.1427 45.7009C48.8161 44.9261 49.4488 44.0901 50.0202 43.2336C52.5304 39.441 53.9998 34.8938 53.9998 30C54.0202 25.0246 52.51 20.3959 49.9182 16.5828ZM21.755 10.5064C20.2244 12.3823 18.9183 14.7477 17.9387 17.48C16.6938 16.9703 15.5102 16.3789 14.3877 15.706C16.4285 13.4834 18.9387 11.7094 21.755 10.5064ZM12.4898 18.1122C13.9183 18.9482 15.4489 19.6822 17.0612 20.3144C16.3877 22.904 15.9795 25.7179 15.8775 28.695H8.89795C9.12244 24.78 10.4081 21.1708 12.4898 18.1122ZM12.3673 41.6636C10.3673 38.6661 9.12244 35.1181 8.89795 31.2846H15.8979C15.9795 34.1597 16.3877 36.8921 17.0204 39.4002C15.3673 40.0731 13.8163 40.8071 12.3673 41.6636ZM14.2245 44.0901C15.3673 43.3968 16.5714 42.785 17.8571 42.2549C18.8571 45.0892 20.1836 47.5565 21.755 49.4732C18.8571 48.2498 16.2857 46.3942 14.2245 44.0901ZM28.6938 51.0229C24.9183 50.3297 22.0407 46.6185 20.4081 41.3169C22.9999 40.5013 25.7958 40.0119 28.6938 39.8895V51.0229ZM28.6938 37.0552C25.5305 37.1572 22.5101 37.667 19.6734 38.503C19.204 36.2804 18.9183 33.8539 18.8571 31.305H28.6938V37.0552ZM28.6938 28.6746H18.8571C18.9387 26.0238 19.2244 23.5157 19.7346 21.2116C22.551 22.0476 25.5713 22.537 28.6938 22.6593V28.6746ZM28.6938 19.8046C25.8162 19.6822 23.0407 19.2133 20.4693 18.3976C22.1224 13.2184 24.9591 9.62957 28.6938 8.95667V19.8046ZM47.5304 18.1122C49.6121 21.1504 50.8978 24.7799 51.1223 28.6746H44.1223C44.0202 25.6975 43.6121 22.8836 42.9386 20.294C44.5713 19.6822 46.1019 18.9482 47.5304 18.1122ZM45.6529 15.7264C44.5304 16.3993 43.3468 16.9907 42.1019 17.5004C41.1223 14.7681 39.8162 12.3823 38.2856 10.5268C41.0815 11.7094 43.6121 13.4834 45.6529 15.7264ZM31.3264 8.95667C35.0407 9.62957 37.8978 13.2387 39.5509 18.3976C36.9795 19.1929 34.2244 19.6822 31.3264 19.8046V8.95667ZM31.3264 22.6593C34.4693 22.5574 37.4693 22.0476 40.2856 21.2116C40.7958 23.5157 41.0815 26.0238 41.1631 28.6746H31.3264V22.6593ZM31.3264 31.305H41.1631C41.1019 33.8539 40.8162 36.2804 40.3468 38.503C37.5101 37.667 34.4897 37.1572 31.3264 37.0552V31.305ZM31.3264 51.0229V39.8895C34.2448 40.0119 37.0203 40.5013 39.6121 41.3169C37.9795 46.6389 35.1019 50.3297 31.3264 51.0229ZM38.2652 49.4732C39.8366 47.5565 41.1835 45.0892 42.1631 42.2549C43.4284 42.785 44.6529 43.3968 45.7957 44.0901C43.7345 46.3942 41.1631 48.2498 38.2652 49.4732ZM47.6733 41.6636C46.2243 40.8071 44.6733 40.0527 43.0202 39.4206C43.6529 36.9125 44.0407 34.1597 44.1427 31.305H51.1427C50.8978 35.1181 49.6733 38.6661 47.6733 41.6636Z" fill="white"/>
</svg>
