<svg width="60" height="60" viewBox="0 0 60 60" fill="none" xmlns="http://www.w3.org/2000/svg">
<circle cx="30" cy="30" r="30" fill="#FA3839"/>
<path d="M42.0606 35.458L37.8187 34.9736C36.8 34.8567 35.798 35.2074 35.0799 35.9256L32.007 38.9984C27.2808 36.5936 23.4064 32.7358 21.0015 27.9929L24.0911 24.9033C24.8092 24.1852 25.1599 23.1832 25.043 22.1645L24.5587 17.956C24.3583 16.2692 22.9388 15 21.2353 15H18.3462C16.4591 15 14.8892 16.5698 15.0061 18.457C15.8912 32.7191 27.2975 44.1087 41.5429 44.9939C43.43 45.1108 44.9998 43.5409 44.9998 41.6538V38.7646C45.0165 37.0779 43.7473 35.6584 42.0606 35.458Z" fill="white"/>
</svg>
