<svg width="102" height="102" viewBox="0 0 102 102" fill="none" xmlns="http://www.w3.org/2000/svg">
<g filter="url(#filter0_d_1_25858)">
<circle cx="50" cy="50" r="44" fill="white"/>
<circle cx="50" cy="50" r="45" stroke="#BE170D" stroke-width="2"/>
</g>
<path d="M35.5554 53.9836L39.3673 53.4816L43.195 58.9407L38.4888 59.7721L35.5554 53.9836Z" fill="#F6862F"/>
<path d="M35.555 53.4821L34.8648 52.5409L33.2961 53.1527L33.7667 54.7214C33.7667 54.7214 34.7236 55.1293 35.0844 54.894C35.4452 54.6587 35.555 53.4821 35.555 53.4821Z" fill="#F8A37D"/>
<path d="M36.0727 47.4267C36.355 47.6149 36.4335 47.96 36.1511 48.0698C35.9786 48.1301 35.795 48.1516 35.6133 48.1326C35.4316 48.1136 35.2563 48.0547 35.1001 47.96C34.6451 47.7247 33.798 47.0972 33.8922 46.9717C33.9863 46.8462 34.4726 47.2227 34.8961 47.3169C35.3197 47.411 35.7589 47.207 36.0727 47.4267Z" fill="#FBBC95"/>
<path d="M35.43 47.3961C35.1162 47.2863 34.8809 47.1294 34.9123 47.0667C34.9437 47.0039 35.2103 47.0667 35.5241 47.1451C35.8378 47.2235 36.0731 47.4118 36.0418 47.4902C36.0104 47.5687 35.7437 47.5687 35.43 47.3961Z" fill="#FBBC95"/>
<path d="M29.6566 51.3335C29.6566 51.6786 29.4527 51.961 29.186 51.7884C29.0302 51.692 28.8984 51.5613 28.8006 51.4064C28.7027 51.2515 28.6414 51.0764 28.6213 50.8942C28.5271 50.3923 28.4958 49.3255 28.6213 49.3255C28.7468 49.3255 28.7781 49.9216 28.9507 50.3138C29.1232 50.706 29.6409 50.957 29.6566 51.3335Z" fill="#F8A37D"/>
<path d="M29.2808 50.8153C29.1709 50.5015 29.1553 50.2192 29.2808 50.2035C29.4062 50.1878 29.4847 50.4231 29.5945 50.7368C29.7043 51.0506 29.72 51.3173 29.5945 51.3486C29.469 51.38 29.3749 51.129 29.2808 50.8153Z" fill="#F8A37D"/>
<path d="M35.869 72.4321L34.5984 72.087C34.1739 72.2611 33.7601 72.4602 33.3591 72.6831C33.237 72.7462 33.1335 72.8402 33.0592 72.9559C32.9849 73.0715 32.9422 73.2047 32.9355 73.342C33.4268 73.5642 33.9671 73.656 34.5043 73.6086C34.8796 73.4864 35.262 73.3868 35.6494 73.3106L35.869 72.4321Z" fill="#010101"/>
<path d="M47.8539 66.3928L47.3205 67.6007C47.3205 67.6007 47.5244 68.4321 47.7127 68.9184C47.7583 69.0476 47.8376 69.1623 47.9424 69.2505C48.0472 69.3388 48.1737 69.3974 48.3088 69.4204C48.6128 68.9515 48.7861 68.4099 48.8108 67.8517C48.7468 67.4411 48.7049 67.0274 48.6853 66.6124L47.8539 66.3928Z" fill="#010101"/>
<path d="M40.3552 60.2739L38.4257 61.8426L38.7551 62.423C38.7551 62.423 41.7043 64.9016 42.818 65.6389C43.9318 66.3762 47.2261 68.039 47.2261 68.039L48.0261 66.3918L44.1514 63.7407L40.3552 60.2739Z" fill="#B03D25"/>
<path d="M36.2923 62.4081L39.0062 61.6237L39.367 62.2199L36.9826 67.428L36.0413 72.6204L34.2844 72.1968L34.8648 67.0201L36.2923 62.4081Z" fill="#B03D25"/>
<path d="M33.233 55.4116L36.9822 53.5762L40.8883 60.808C40.253 61.2576 39.5931 61.6713 38.9117 62.0473C38.0778 62.3409 37.2296 62.5922 36.3704 62.8002L33.233 55.4116Z" fill="#E84F24"/>
<path d="M35.539 53.3407C36.3077 53.7957 37.2803 53.2309 37.8921 53.3407C38.5039 53.4506 42.3472 51.772 43.1316 52.5878C43.9159 53.4035 43.2885 59.1763 43.2885 59.1763L41.9237 60.1176C41.417 58.8055 40.7307 57.5701 39.8844 56.4468C38.282 55.5833 36.6011 54.8742 34.8645 54.329L35.539 53.3407Z" fill="#F89D56"/>
<path d="M33.6727 54.3289C33.6727 55.223 31.853 55.8976 32.2923 56.227C33.5136 57.4058 34.5314 58.7787 35.3042 60.29C35.5393 61.1477 35.8382 61.9867 36.1983 62.7999L39.0063 62.2195L34.8649 54.3759L33.6727 54.3289Z" fill="#F6862F"/>
<path d="M33.0918 55.2705C31.763 55.1341 30.4254 55.1026 29.0916 55.1764C28.7622 55.1764 28.8249 56.4157 29.0916 56.5569C30.6275 56.9899 32.2051 57.2581 33.7977 57.3569L33.0918 55.2705Z" fill="#F6862F"/>
<path d="M30.2212 55.8657C30.2212 54.7362 29.9545 51.5204 29.9545 51.5204L28.7152 51.5988C28.6082 53.1697 28.6713 54.7476 28.9034 56.3049C29.0133 56.6657 30.2212 56.2265 30.2212 55.8657Z" fill="#F6862F"/>
<path d="M36.6847 54.0785C37.1775 52.8328 37.7649 51.6266 38.4416 50.4705C38.6456 50.2038 39.6496 50.7842 39.6496 51.1293C39.3313 52.6705 38.8528 54.1741 38.222 55.6158L36.6847 54.0785Z" fill="#F89D56"/>
<path d="M38.3162 51.6628C37.5161 50.847 35.4768 48.3528 35.4768 48.3528L36.4023 47.5685C37.5723 48.6227 38.6243 49.8009 39.5398 51.0824C39.7437 51.3804 38.5672 51.8981 38.3162 51.6628Z" fill="#F89D56"/>
<path d="M32.5108 48.8707C33.0171 48.7137 33.5638 48.7523 34.0431 48.9788C34.5223 49.2053 34.8991 49.6034 35.0992 50.0942C35.4443 51.0668 35.0992 53.1062 34.1423 53.4199C33.1853 53.7336 31.5853 52.5571 31.3343 51.7728C31.0833 50.9884 30.9421 49.357 32.5108 48.8707Z" fill="#FBBC95"/>
<path d="M35.1472 51.8663C35.309 51.175 35.309 50.4556 35.1472 49.7642C34.8648 49.3011 34.4407 48.9411 33.9378 48.7377C33.4349 48.5343 32.8799 48.4982 32.3549 48.6348C32.062 48.6859 31.7838 48.8005 31.5398 48.9704C31.2958 49.1404 31.0919 49.3617 30.9425 49.6187C30.793 49.8758 30.7016 50.1624 30.6746 50.4585C30.6476 50.7547 30.6857 51.0531 30.7862 51.3329C31.1533 52.0727 31.7621 52.6649 32.5117 53.0115C32.5117 53.0115 30.1901 50.627 32.6686 49.874C35.1472 49.1211 35.1472 51.8663 35.1472 51.8663Z" fill="#371310"/>
<path opacity="0.1" d="M31.7229 48.3571L28 50.2762L31.1841 56.4532L34.907 54.5341L31.7229 48.3571Z" fill="#F04A23"/>
<path d="M70.6623 67.1293C71.0866 67.4382 71.4575 67.8145 71.7604 68.2431C71.8776 68.5782 71.9566 68.9255 71.9957 69.2784L70.427 70.2667L70.2387 70.1255C69.6453 70.6328 69.0104 71.0893 68.3406 71.4903C67.3916 71.7842 66.4214 72.0045 65.4385 72.1492C65.4385 72.1492 65.2659 71.757 65.3287 71.6472C65.5797 71.0511 67.0543 70.6118 67.4621 70.2197C67.801 69.7228 68.0358 69.1625 68.1524 68.5725L70.6623 67.1293Z" fill="#010101"/>
<path d="M56.2623 47.6466C56.2623 47.6466 60.3723 44.5092 61.0783 44.9955C61.5824 45.3611 62.0027 45.8301 62.3111 46.3711C62.6195 46.9122 62.8089 47.5128 62.8666 48.1329C63.0235 49.1996 63.4 55.0038 64.5922 56.6666C66.1609 58.7687 71.0709 67.224 71.0709 67.224L68.0119 68.7927L60.5292 57.953L56.2623 47.6466Z" fill="#1D5484"/>
<path d="M36.7625 35.7409C36.7244 35.5733 36.6362 35.4212 36.5096 35.3049C36.383 35.1886 36.2241 35.1136 36.0539 35.0898C35.8837 35.0659 35.7102 35.0944 35.5566 35.1715C35.403 35.2486 35.2764 35.3706 35.1937 35.5213C35.0886 35.651 35.01 35.8002 34.9625 35.9603C34.9151 36.1204 34.8997 36.2884 34.9171 36.4544C34.9346 36.6205 34.9847 36.7816 35.0644 36.9283C35.1442 37.075 35.2521 37.2046 35.382 37.3096C35.9154 37.7488 36.8252 37.9371 37.1389 37.3096C37.4527 36.6821 36.9978 36.588 36.7625 35.7409Z" fill="#F8A37D"/>
<path d="M42.7558 51.7728C42.6543 51.8907 42.5873 52.0343 42.562 52.1878C42.5368 52.3413 42.5543 52.4988 42.6126 52.643C42.6709 52.7872 42.7679 52.9126 42.8927 53.0054C43.0176 53.0981 43.1656 53.1547 43.3206 53.1689C43.4854 53.1958 43.6539 53.1899 43.8164 53.1517C43.979 53.1134 44.1324 53.0434 44.2679 52.9458C44.4034 52.8482 44.5183 52.7248 44.6061 52.5828C44.6939 52.4407 44.7528 52.2827 44.7795 52.1179C44.8893 51.4277 44.5912 50.5492 43.8853 50.5492C43.4931 50.6119 43.3206 51.161 42.7558 51.7728Z" fill="#FBBC95"/>
<path d="M50.4584 37.0425C50.6718 37.2393 50.8345 37.4846 50.9328 37.7577C51.0312 38.0308 51.0621 38.3236 51.0231 38.6113C50.5682 40.18 43.6816 43.3174 42.9286 43.3174C42.1756 43.3174 41.3599 42.4075 42.1442 41.7487C44.3561 40.0388 48.874 36.117 50.4584 37.0425Z" fill="#F8A37D"/>
<path d="M43.4929 42.1874C43.4929 42.1874 43.4929 43.16 42.7713 43.2384C41.5948 43.3953 36.4965 38.297 36.1827 37.6381C35.869 36.9793 36.4337 36.3988 37.2181 36.9008C39.3045 38.2656 43.289 40.7755 43.4929 42.1874Z" fill="#F8A37D"/>
<path d="M57.6105 70.7539C57.8428 71.2212 57.9914 71.7256 58.0498 72.2442C57.9994 72.5947 57.9046 72.9374 57.7674 73.2638L56.0418 73.405L55.9634 73.2011C55.9634 73.2011 54.2535 73.4678 53.6417 73.4991C53.0299 73.5305 50.7866 73.656 50.5043 73.3109C50.2219 72.9658 50.5043 72.8873 50.6455 72.8089C51.5408 72.4062 52.4847 72.1215 53.4534 71.9618C53.9914 71.6851 54.4666 71.3006 54.8496 70.8323L57.6105 70.7539Z" fill="#371310"/>
<path d="M56.4344 46.2973C56.4344 46.2973 61.3287 44.5246 61.7994 45.2776C62.1451 45.8043 62.3816 46.395 62.4947 47.0148C62.6079 47.6346 62.5955 48.2707 62.4582 48.8856C62.27 49.968 58.8188 56.3213 59.0227 58.3763C59.2267 60.4313 58.4423 71.0985 58.4423 71.0985H54.2696L54.7088 57.592L56.4344 46.2973Z" fill="#296FAF"/>
<path d="M46.7245 38.3444C47.1603 38.0401 47.5556 37.6817 47.901 37.2777C48.2274 36.8046 48.4567 36.2714 48.5756 35.709C47.6412 35.3332 46.816 34.7291 46.1754 33.952C45.8303 33.5128 44.3087 36.1796 44.4812 36.3522C44.6538 36.5247 46.3794 37.6071 46.7245 38.3444Z" fill="#F8A37D"/>
<path d="M46.6303 38.3435C47.4233 37.6376 48.0044 36.7251 48.3088 35.708C48.3088 35.3786 50.254 35.3002 51.6658 35.8649C53.9109 37.2597 56.0127 38.8729 57.9407 40.6808C58.6936 41.4024 61.7526 45.2772 61.7526 45.2772L56.1523 48.4146C56.1523 48.4146 53.815 45.6223 52.309 44.1947C50.803 42.7672 48.9206 42.4535 48.0107 41.0573C47.4755 40.1929 47.0137 39.2851 46.6303 38.3435V38.3435Z" fill="#24B2C4"/>
<path d="M43.9634 31.4108C43.5985 31.3801 43.2314 31.4291 42.8873 31.5544C42.5433 31.6798 42.2306 31.8784 41.971 32.1365C41.7114 32.3947 41.5109 32.7062 41.3837 33.0495C41.2564 33.3928 41.2052 33.7596 41.2338 34.1247C41.2789 34.4162 41.3881 34.694 41.5535 34.9382C41.719 35.1823 41.9367 35.3867 42.1907 35.5365C42.7868 36.3365 43.1319 36.9013 43.1319 36.9013L43.4927 36.666C43.4927 36.666 44.0261 37.1366 44.434 37.5288C44.8418 37.9209 45.2183 37.168 45.7987 36.713C46.2777 36.2596 46.6015 35.6668 46.7243 35.0188C46.6959 34.3037 46.4617 33.6119 46.0497 33.0266C45.8306 32.6291 45.5325 32.2808 45.1737 32.0029C44.8149 31.725 44.403 31.5235 43.9634 31.4108V31.4108Z" fill="#FBBC95"/>
<path d="M49.5796 36.1323C49.8647 36.0894 50.1559 36.1154 50.4288 36.2082C50.7017 36.301 50.9485 36.4579 51.1483 36.6656C52.0895 37.9677 50.3169 45.3092 49.8463 45.8896C49.3757 46.4701 48.1207 46.5956 48.1364 45.5759C48.1991 42.862 47.8697 36.8068 49.5796 36.1323Z" fill="#FBBC95"/>
<path d="M48.8425 45.0419C48.8425 45.0419 49.8151 45.1518 49.8779 45.7792C49.972 46.9715 44.7168 51.8815 44.0423 52.1953C43.3677 52.509 42.8187 51.9599 43.3521 51.207C44.7796 49.1363 47.415 45.2459 48.8425 45.0419Z" fill="#FBBC95"/>
<path d="M50.2857 35.8823C51.4151 36.0391 52.1995 37.1058 51.572 39.1609C51.3053 40.0236 48.1052 39.2393 48.1208 38.753C48.1365 38.2667 48.717 35.6626 50.2857 35.8823Z" fill="#57CAEF"/>
<path d="M41.3276 34.3601C41.1576 34.2255 41.014 34.0606 40.904 33.8738C40.88 33.3586 40.9767 32.8449 41.1865 32.3737C41.3962 31.9026 41.7131 31.4869 42.1119 31.1599C43.21 30.0461 45.2494 31.1599 45.8298 31.756C46.4102 32.3521 46.6141 33.7797 47.1004 34.5326C47.3828 34.9405 46.2847 34.7679 46.2847 34.7679L45.2023 34.0934C45.2023 34.0934 44.3709 32.9169 43.9787 33.6542C43.5865 34.3915 44.465 34.6895 44.465 34.6895L44.2454 34.8621C43.8765 34.5485 43.4644 34.2897 43.0218 34.0934C42.4491 34.121 41.8811 34.2104 41.3276 34.3601V34.3601Z" fill="#371310"/>
<path d="M57.2812 48.1489L56.8263 48.3685C57.0186 48.9741 57.4334 49.4843 57.9871 49.796C58.2718 49.9331 58.5881 49.9909 58.9028 49.9632C59.2176 49.9356 59.519 49.8237 59.7755 49.6392L59.6186 49.1842C59.4224 49.3283 59.1934 49.4209 58.9523 49.4538C58.7112 49.4867 58.4657 49.4587 58.2381 49.3725C57.7725 49.1042 57.4293 48.6655 57.2812 48.1489V48.1489Z" fill="#12599C"/>
<path d="M38.2221 27.7707C38.7078 27.7676 39.1905 27.8472 39.6496 28.006C40.5751 28.7276 39.0221 29.7002 37.924 31.316C37.0187 32.7639 36.3662 34.3553 35.9945 36.0221L35.6494 36.0378C35.8335 34.3363 36.3676 32.6913 37.2181 31.2062C38.3162 29.308 39.8065 28.3668 38.2221 27.7707Z" fill="#371310"/>
<path d="M39.6494 28.0066C39.2112 27.7771 38.7107 27.6946 38.2219 27.7713C36.8101 27.7713 35.8845 28.4615 35.0845 31.144C34.9017 32.823 35.0946 34.5216 35.6492 36.1168H35.8688C35.6784 34.5505 35.7207 32.9647 35.9943 31.4107C36.5748 28.9949 37.4846 28.0066 39.6494 28.0066Z" fill="#8E3C27"/>
<path d="M36.606 40.2575L37.2806 40.0222L36.2923 37.5436L35.4922 37.1985L36.606 40.2575Z" fill="#010101"/>
<path d="M37.3037 39.8879L36.5276 40.186L36.5951 40.3617L37.3712 40.0636L37.3037 39.8879Z" fill="#F6862F"/>
<path d="M36.7153 40.29L36.8094 40.5253C36.8147 40.5673 36.8295 40.6076 36.8525 40.6431C36.8755 40.6787 36.9063 40.7086 36.9425 40.7307C36.9786 40.7528 37.0193 40.7664 37.0615 40.7706C37.1036 40.7748 37.1462 40.7695 37.186 40.755C37.2258 40.7405 37.2619 40.7173 37.2915 40.687C37.3211 40.6567 37.3435 40.6201 37.3571 40.5799C37.3706 40.5398 37.3749 40.4971 37.3698 40.4551C37.3646 40.413 37.35 40.3727 37.3271 40.337L37.2173 40.1017L37.3271 40.3841C37.3639 40.4635 37.3732 40.553 37.3533 40.6383C37.3334 40.7236 37.2855 40.7998 37.2173 40.8547C37.1668 40.8715 37.1135 40.8779 37.0605 40.8735C37.0075 40.8691 36.956 40.854 36.9091 40.829C36.8621 40.8041 36.8207 40.7699 36.7874 40.7284C36.7541 40.687 36.7296 40.6392 36.7153 40.588L36.6055 40.3213L36.7153 40.29Z" fill="#F6862F"/>
<path d="M37.1701 40.8064L37.2485 40.775L36.9504 40.0064L36.872 40.0377L37.1701 40.8064Z" fill="#F6862F"/>
<path d="M37.0398 39.0393L36.1771 39.2745L36.2266 39.4562L37.0893 39.221L37.0398 39.0393Z" fill="#F6862F"/>
<path d="M30.1121 40.6821C30.2632 40.686 30.412 40.7203 30.5496 40.7828C30.6872 40.8453 30.8109 40.9348 30.9133 41.0459C31.0157 41.1571 31.0948 41.2877 31.1458 41.43C31.1968 41.5723 31.2187 41.7234 31.2102 41.8743C31.2102 42.1697 31.0929 42.453 30.884 42.6618C30.6751 42.8707 30.3918 42.9881 30.0965 42.9881C29.8011 42.9881 29.5178 42.8707 29.3089 42.6618C29.1 42.453 28.9827 42.1697 28.9827 41.8743C28.9741 41.7208 28.997 41.5671 29.0499 41.4227C29.1029 41.2784 29.1847 41.1464 29.2905 41.0347C29.3962 40.9231 29.5236 40.8343 29.6649 40.7736C29.8062 40.713 29.9584 40.6818 30.1121 40.6821V40.6821ZM29.3748 32.0698V30.3129H30.9436V32.0542L30.6298 39.1133H29.5631L29.3748 32.0698Z" fill="#DB3726"/>
<path d="M46.6301 43.3799C44.4955 43.3799 42.4088 44.0128 40.634 45.1988C38.8591 46.3847 37.4758 48.0703 36.6589 50.0424C35.842 52.0145 35.6283 54.1845 36.0448 56.2781C36.4612 58.3717 37.4891 60.2948 38.9985 61.8042C40.5079 63.3136 42.431 64.3415 44.5245 64.7579C46.6181 65.1743 48.7882 64.9606 50.7603 64.1437C52.7324 63.3269 54.418 61.9435 55.6039 60.1687C56.7898 58.3938 57.4228 56.3072 57.4228 54.1726C57.4228 51.3102 56.2857 48.565 54.2617 46.541C52.2377 44.517 49.4925 43.3799 46.6301 43.3799ZM37.5002 54.1726C37.5008 52.4032 38.0155 50.6721 38.9817 49.1898C39.948 47.7075 41.3241 46.5379 42.9428 45.8233C44.5615 45.1087 46.3529 44.8799 48.0993 45.1646C49.8456 45.4493 51.4716 46.2354 52.7794 47.4271L39.9003 60.3219C38.3574 58.6457 37.5007 56.4508 37.5002 54.1726V54.1726ZM46.6301 63.2554C44.6928 63.2736 42.801 62.6686 41.2337 61.5298L53.9873 48.7762C54.9708 50.1364 55.5602 51.7413 55.6909 53.4147C55.8216 55.0881 55.4885 56.7651 54.7281 58.2614C53.9678 59.7578 52.8097 61.0156 51.381 61.8966C49.9524 62.7777 48.3085 63.2478 46.6301 63.2554V63.2554Z" fill="#DB3726"/>
<defs>
<filter id="filter0_d_1_25858" x="0" y="0" width="102" height="102" filterUnits="userSpaceOnUse" color-interpolation-filters="sRGB">
<feFlood flood-opacity="0" result="BackgroundImageFix"/>
<feColorMatrix in="SourceAlpha" type="matrix" values="0 0 0 0 0 0 0 0 0 0 0 0 0 0 0 0 0 0 127 0" result="hardAlpha"/>
<feMorphology radius="1" operator="dilate" in="SourceAlpha" result="effect1_dropShadow_1_25858"/>
<feOffset dx="1" dy="1"/>
<feGaussianBlur stdDeviation="2"/>
<feComposite in2="hardAlpha" operator="out"/>
<feColorMatrix type="matrix" values="0 0 0 0 0 0 0 0 0 0 0 0 0 0 0 0 0 0 0.25 0"/>
<feBlend mode="normal" in2="BackgroundImageFix" result="effect1_dropShadow_1_25858"/>
<feBlend mode="normal" in="SourceGraphic" in2="effect1_dropShadow_1_25858" result="shape"/>
</filter>
</defs>
</svg>
