<svg width="79" height="79" viewBox="0 0 79 79" fill="none" xmlns="http://www.w3.org/2000/svg">
<g filter="url(#filter0_d_2_14282)">
<circle cx="38.5" cy="38.5" r="32.5" fill="white"/>
<circle cx="38.5" cy="38.5" r="33.5" stroke="url(#paint0_linear_2_14282)" stroke-width="2"/>
</g>
<path d="M27.9062 39.855L30.9359 39.4561L33.978 43.7948L30.2377 44.4556L27.9062 39.855Z" fill="#F6862F"/>
<path d="M27.9067 39.4566L27.3581 38.7085L26.1113 39.1947L26.4854 40.4415C26.4854 40.4415 27.2459 40.7657 27.5326 40.5787C27.8194 40.3916 27.9067 39.4566 27.9067 39.4566Z" fill="#F8A37D"/>
<path d="M28.3188 34.6434C28.5433 34.793 28.6056 35.0673 28.3812 35.1546C28.2441 35.2025 28.0982 35.2196 27.9537 35.2045C27.8093 35.1894 27.67 35.1425 27.5458 35.0673C27.1843 34.8803 26.511 34.3816 26.5858 34.2819C26.6606 34.1821 27.0471 34.4813 27.3838 34.5562C27.7204 34.631 28.0695 34.4689 28.3188 34.6434Z" fill="#FBBC95"/>
<path d="M27.8062 34.6196C27.5569 34.5323 27.3699 34.4076 27.3948 34.3578C27.4197 34.3079 27.6317 34.3578 27.8811 34.4201C28.1304 34.4824 28.3174 34.632 28.2925 34.6944C28.2675 34.7567 28.0556 34.7567 27.8062 34.6196Z" fill="#FBBC95"/>
<path d="M23.2187 37.7487C23.2187 38.023 23.0567 38.2474 22.8447 38.1103C22.7209 38.0336 22.6161 37.9298 22.5384 37.8067C22.4606 37.6835 22.4119 37.5443 22.3959 37.3996C22.3211 37.0006 22.2961 36.1528 22.3959 36.1528C22.4956 36.1528 22.5205 36.6266 22.6577 36.9383C22.7948 37.25 23.2063 37.4495 23.2187 37.7487Z" fill="#F8A37D"/>
<path d="M22.9198 37.3374C22.8325 37.0881 22.8201 36.8636 22.9198 36.8512C23.0196 36.8387 23.0819 37.0257 23.1692 37.2751C23.2564 37.5244 23.2689 37.7364 23.1692 37.7613C23.0694 37.7863 22.9946 37.5868 22.9198 37.3374Z" fill="#F8A37D"/>
<path d="M28.1557 54.5175L27.1458 54.2432C26.8084 54.3816 26.4796 54.5398 26.1608 54.7169C26.0638 54.7671 25.9816 54.8418 25.9225 54.9337C25.8634 55.0256 25.8295 55.1315 25.8242 55.2406C26.2147 55.4172 26.6441 55.4902 27.071 55.4525C27.3693 55.3553 27.6733 55.2762 27.9811 55.2156L28.1557 54.5175Z" fill="#010101"/>
<path d="M37.6817 49.7173L37.2578 50.6773C37.2578 50.6773 37.4199 51.3381 37.5695 51.7246C37.6057 51.8273 37.6688 51.9184 37.7521 51.9886C37.8354 52.0587 37.9359 52.1053 38.0433 52.1236C38.2849 51.7509 38.4227 51.3205 38.4422 50.8768C38.3914 50.5505 38.3581 50.2217 38.3425 49.8918L37.6817 49.7173Z" fill="#010101"/>
<path d="M31.721 44.8545L30.1875 46.1013L30.4493 46.5626C30.4493 46.5626 32.7933 48.5325 33.6785 49.1184C34.5637 49.7044 37.1819 51.026 37.1819 51.026L37.8177 49.7169L34.7382 47.6099L31.721 44.8545Z" fill="#B03D25"/>
<path d="M28.4924 46.5506L30.6493 45.9272L30.936 46.401L29.0409 50.5403L28.2929 54.6671L26.8965 54.3305L27.3578 50.2161L28.4924 46.5506Z" fill="#B03D25"/>
<path d="M26.0605 40.99L29.0403 39.5312L32.1448 45.2789C31.6399 45.6362 31.1154 45.965 30.5739 46.2638C29.9111 46.4972 29.237 46.6969 28.5541 46.8623L26.0605 40.99Z" fill="#E84F24"/>
<path d="M27.8935 39.3437C28.5045 39.7053 29.2774 39.2564 29.7637 39.3437C30.2499 39.431 33.3045 38.097 33.9279 38.7453C34.5513 39.3936 34.0526 43.9817 34.0526 43.9817L32.9679 44.7298C32.5652 43.687 32.0197 42.7051 31.3471 41.8123C30.0736 41.1261 28.7377 40.5625 27.3574 40.1292L27.8935 39.3437Z" fill="#F89D56"/>
<path d="M26.4113 40.1294C26.4113 40.8401 24.965 41.3762 25.3141 41.638C26.2849 42.5748 27.0937 43.666 27.7079 44.8671C27.8948 45.5488 28.1323 46.2156 28.4186 46.862L30.6503 46.4007L27.3588 40.1668L26.4113 40.1294Z" fill="#F6862F"/>
<path d="M25.9492 40.8781C24.8931 40.7697 23.83 40.7447 22.77 40.8033C22.5081 40.8033 22.558 41.7883 22.77 41.9005C23.9906 42.2447 25.2444 42.4578 26.5103 42.5363L25.9492 40.8781Z" fill="#F6862F"/>
<path d="M23.6687 41.351C23.6687 40.4533 23.4567 37.8975 23.4567 37.8975L22.4718 37.9598C22.3867 39.2083 22.4369 40.4624 22.6214 41.7001C22.7087 41.9869 23.6687 41.6378 23.6687 41.351Z" fill="#F6862F"/>
<path d="M28.8047 39.9304C29.1964 38.9403 29.6632 37.9817 30.2011 37.0628C30.3632 36.8509 31.1611 37.3122 31.1611 37.5865C30.9081 38.8113 30.5279 40.0064 30.0265 41.1522L28.8047 39.9304Z" fill="#F89D56"/>
<path d="M30.1004 38.0104C29.4646 37.3621 27.8438 35.3797 27.8438 35.3797L28.5793 34.7563C29.5092 35.5942 30.3453 36.5306 31.0729 37.5491C31.235 37.786 30.2999 38.1974 30.1004 38.0104Z" fill="#F89D56"/>
<path d="M25.4881 35.7913C25.8904 35.6666 26.325 35.6972 26.7059 35.8773C27.0867 36.0573 27.3863 36.3737 27.5452 36.7638C27.8195 37.5368 27.5452 39.1576 26.7847 39.407C26.0242 39.6563 24.7525 38.7212 24.553 38.0979C24.3535 37.4745 24.2413 36.1778 25.4881 35.7913Z" fill="#FBBC95"/>
<path d="M27.5829 38.1721C27.7115 37.6226 27.7115 37.0509 27.5829 36.5014C27.3584 36.1333 27.0214 35.8472 26.6217 35.6855C26.222 35.5239 25.7809 35.4952 25.3636 35.6037C25.1308 35.6444 24.9097 35.7354 24.7158 35.8705C24.5219 36.0056 24.3599 36.1814 24.2411 36.3857C24.1223 36.5901 24.0496 36.8179 24.0282 37.0532C24.0067 37.2886 24.037 37.5258 24.1169 37.7482C24.4086 38.3361 24.8925 38.8068 25.4883 39.0822C25.4883 39.0822 23.6431 37.1871 25.613 36.5887C27.5829 35.9902 27.5829 38.1721 27.5829 38.1721Z" fill="#371310"/>
<path opacity="0.1" d="M24.8612 35.3835L21.9023 36.9087L24.433 41.818L27.3919 40.2928L24.8612 35.3835Z" fill="#F04A23"/>
<path d="M55.8085 50.3032C56.1457 50.5488 56.4405 50.8478 56.6813 51.1884C56.7745 51.4548 56.8372 51.7308 56.8683 52.0113L55.6215 52.7968L55.4719 52.6846C55.0003 53.0877 54.4956 53.4505 53.9633 53.7692C53.2091 54.0028 52.4379 54.1779 51.6568 54.2929C51.6568 54.2929 51.5196 53.9812 51.5695 53.8939C51.769 53.4202 52.941 53.0711 53.2651 52.7594C53.5345 52.3645 53.7211 51.9192 53.8137 51.4503L55.8085 50.3032Z" fill="#010101"/>
<path d="M44.3652 34.8186C44.3652 34.8186 47.6318 32.3251 48.1928 32.7116C48.5935 33.0022 48.9275 33.3749 49.1727 33.8049C49.4178 34.2349 49.5683 34.7123 49.6141 35.2051C49.7388 36.0529 50.038 40.666 50.9856 41.9876C52.2324 43.6582 56.1348 50.3783 56.1348 50.3783L53.7035 51.6251L47.7565 43.0099L44.3652 34.8186Z" fill="#1D5484"/>
<path d="M28.8667 25.356C28.8364 25.2228 28.7663 25.102 28.6657 25.0095C28.5651 24.9171 28.4388 24.8575 28.3035 24.8385C28.1683 24.8196 28.0304 24.8423 27.9083 24.9035C27.7862 24.9648 27.6856 25.0617 27.6199 25.1815C27.5363 25.2846 27.4739 25.4032 27.4362 25.5304C27.3984 25.6577 27.3862 25.7911 27.4001 25.9231C27.414 26.0552 27.4538 26.1831 27.5172 26.2997C27.5805 26.4164 27.6663 26.5193 27.7695 26.6028C28.1934 26.9519 28.9166 27.1015 29.1659 26.6028C29.4153 26.1041 29.0537 26.0293 28.8667 25.356Z" fill="#F8A37D"/>
<path d="M33.6298 38.098C33.5491 38.1917 33.4958 38.3058 33.4757 38.4278C33.4557 38.5498 33.4696 38.675 33.5159 38.7896C33.5623 38.9042 33.6393 39.0039 33.7386 39.0776C33.8378 39.1513 33.9555 39.1963 34.0786 39.2076C34.2096 39.229 34.3435 39.2243 34.4727 39.1939C34.6019 39.1635 34.7238 39.1079 34.8315 39.0303C34.9392 38.9527 35.0305 38.8546 35.1003 38.7417C35.1701 38.6288 35.2169 38.5033 35.2381 38.3723C35.3254 37.8237 35.0885 37.1255 34.5274 37.1255C34.2157 37.1754 34.0786 37.6117 33.6298 38.098Z" fill="#FBBC95"/>
<path d="M39.7503 26.3906C39.9199 26.547 40.0492 26.742 40.1274 26.959C40.2055 27.1761 40.2301 27.4088 40.1991 27.6374C39.8376 28.8841 34.3642 31.3777 33.7658 31.3777C33.1673 31.3777 32.519 30.6546 33.1424 30.1309C34.9004 28.7719 38.4911 25.655 39.7503 26.3906Z" fill="#F8A37D"/>
<path d="M34.216 30.4799C34.216 30.4799 34.216 31.2528 33.6425 31.3152C32.7074 31.4399 28.6554 27.3879 28.4061 26.8642C28.1567 26.3406 28.6055 25.8793 29.2289 26.2782C30.8871 27.3629 34.0539 29.3578 34.216 30.4799Z" fill="#F8A37D"/>
<path d="M45.4373 53.1841C45.6219 53.5555 45.74 53.9564 45.7864 54.3685C45.7464 54.6471 45.6709 54.9194 45.5619 55.1789L44.1905 55.2911L44.1281 55.129C44.1281 55.129 42.7692 55.341 42.2829 55.3659C41.7967 55.3909 40.0138 55.4906 39.7894 55.2163C39.565 54.942 39.7894 54.8797 39.9016 54.8174C40.6132 54.4973 41.3634 54.271 42.1333 54.1441C42.5609 53.9242 42.9386 53.6186 43.2429 53.2464L45.4373 53.1841Z" fill="#371310"/>
<path d="M44.5018 33.7461C44.5018 33.7461 48.3917 32.3372 48.7657 32.9357C49.0405 33.3543 49.2285 33.8238 49.3184 34.3163C49.4084 34.8089 49.3985 35.3146 49.2894 35.8032C49.1398 36.6635 46.3969 41.7129 46.559 43.3462C46.721 44.9795 46.0977 53.4575 46.0977 53.4575H42.7812L43.1303 42.7228L44.5018 33.7461Z" fill="#296FAF"/>
<path d="M36.7839 27.4257C37.1303 27.1839 37.4445 26.899 37.719 26.5779C37.9784 26.2019 38.1606 25.7781 38.2551 25.3312C37.5125 25.0325 36.8567 24.5524 36.3475 23.9348C36.0733 23.5857 34.8639 25.7052 35.001 25.8423C35.1382 25.9795 36.5096 26.8397 36.7839 27.4257Z" fill="#F8A37D"/>
<path d="M36.709 27.4247C37.3393 26.8637 37.8011 26.1385 38.043 25.3302C38.043 25.0683 39.589 25.006 40.7111 25.4548C42.4954 26.5634 44.1659 27.8455 45.6982 29.2824C46.2967 29.8559 48.7279 32.9355 48.7279 32.9355L44.2769 35.429C44.2769 35.429 42.4192 33.2098 41.2223 32.0752C40.0254 30.9406 38.5293 30.6913 37.8061 29.5817C37.3807 28.8947 37.0137 28.1731 36.709 27.4247V27.4247Z" fill="#24B2C4"/>
<path d="M34.5896 21.9148C34.2996 21.8904 34.0078 21.9293 33.7344 22.0289C33.4609 22.1285 33.2124 22.2864 33.0061 22.4916C32.7997 22.6967 32.6404 22.9443 32.5393 23.2172C32.4381 23.49 32.3975 23.7816 32.4202 24.0717C32.456 24.3034 32.5428 24.5242 32.6743 24.7182C32.8058 24.9123 32.9788 25.0747 33.1807 25.1938C33.6545 25.8296 33.9288 26.2785 33.9288 26.2785L34.2155 26.0915C34.2155 26.0915 34.6394 26.4655 34.9636 26.7772C35.2878 27.0889 35.587 26.4904 36.0483 26.1289C36.4289 25.7685 36.6863 25.2973 36.7839 24.7823C36.7613 24.2139 36.5752 23.6641 36.2478 23.1989C36.0736 22.8831 35.8367 22.6062 35.5515 22.3854C35.2663 22.1645 34.939 22.0044 34.5896 21.9148V21.9148Z" fill="#FBBC95"/>
<path d="M39.0534 25.6673C39.28 25.6332 39.5114 25.6539 39.7283 25.7277C39.9452 25.8014 40.1413 25.9261 40.3002 26.0912C41.0482 27.1261 39.6394 32.9609 39.2653 33.4222C38.8913 33.8836 37.8939 33.9833 37.9064 33.1729C37.9562 31.016 37.6944 26.2034 39.0534 25.6673Z" fill="#FBBC95"/>
<path d="M38.4677 32.7485C38.4677 32.7485 39.2407 32.8358 39.2906 33.3345C39.3654 34.2821 35.1887 38.1845 34.6526 38.4338C34.1165 38.6832 33.6801 38.2468 34.104 37.6483C35.2386 36.0026 37.3332 32.9106 38.4677 32.7485Z" fill="#FBBC95"/>
<path d="M39.6151 25.4684C40.5128 25.5931 41.1362 26.4409 40.6375 28.0742C40.4255 28.7599 37.8821 28.1365 37.8946 27.75C37.907 27.3635 38.3683 25.2939 39.6151 25.4684Z" fill="#57CAEF"/>
<path d="M32.4957 24.2591C32.3606 24.1522 32.2465 24.0211 32.1591 23.8726C32.14 23.4632 32.2169 23.0549 32.3836 22.6804C32.5502 22.306 32.8021 21.9756 33.1191 21.7157C33.9919 20.8305 35.6127 21.7157 36.074 22.1895C36.5353 22.6633 36.6973 23.7978 37.0838 24.3963C37.3083 24.7204 36.4355 24.5833 36.4355 24.5833L35.5753 24.0472C35.5753 24.0472 34.9145 23.1121 34.6028 23.6981C34.2911 24.2841 34.9893 24.521 34.9893 24.521L34.8147 24.6581C34.5215 24.4089 34.194 24.2032 33.8422 24.0472C33.3871 24.0691 32.9356 24.1402 32.4957 24.2591V24.2591Z" fill="#371310"/>
<path d="M45.1741 35.2178L44.8125 35.3923C44.9653 35.8737 45.295 36.2791 45.7351 36.5269C45.9613 36.6358 46.2128 36.6817 46.4629 36.6598C46.713 36.6378 46.9526 36.5489 47.1564 36.4022L47.0318 36.0406C46.8759 36.1551 46.6938 36.2288 46.5022 36.2549C46.3106 36.281 46.1154 36.2588 45.9346 36.1903C45.5645 35.9771 45.2918 35.6283 45.1741 35.2178V35.2178Z" fill="#12599C"/>
<path d="M30.0271 19.022C30.4132 19.0196 30.7968 19.0828 31.1617 19.2091C31.8973 19.7826 30.663 20.5556 29.7902 21.8397C29.0707 22.9905 28.5521 24.2554 28.2567 25.5801L27.9824 25.5925C28.1287 24.2402 28.5532 22.9328 29.2292 21.7525C30.1019 20.2439 31.2864 19.4958 30.0271 19.022Z" fill="#371310"/>
<path d="M31.1598 19.2092C30.8115 19.0268 30.4137 18.9612 30.0252 19.0222C28.9031 19.0222 28.1675 19.5708 27.5317 21.7027C27.3864 23.0371 27.5397 24.3872 27.9805 25.655H28.1551C28.0037 24.4101 28.0373 23.1497 28.2548 21.9147C28.7161 19.9947 29.4393 19.2092 31.1598 19.2092Z" fill="#8E3C27"/>
<path d="M28.7426 28.9459L29.2787 28.7588L28.4933 26.7889L27.8574 26.5146L28.7426 28.9459Z" fill="#010101"/>
<path d="M29.2965 28.6518L28.6797 28.8887L28.7333 29.0283L29.3502 28.7914L29.2965 28.6518Z" fill="#F6862F"/>
<path d="M28.8295 28.9714L28.9043 29.1584C28.9085 29.1918 28.9202 29.2238 28.9385 29.2521C28.9568 29.2804 28.9813 29.3041 29.01 29.3217C29.0388 29.3392 29.0711 29.3501 29.1046 29.3534C29.1381 29.3568 29.1719 29.3525 29.2036 29.341C29.2352 29.3295 29.2639 29.311 29.2874 29.2869C29.311 29.2628 29.3288 29.2338 29.3395 29.2019C29.3503 29.17 29.3537 29.136 29.3496 29.1026C29.3455 29.0692 29.3339 29.0371 29.3157 29.0088L29.2284 28.8218L29.3157 29.0462C29.345 29.1093 29.3523 29.1805 29.3365 29.2483C29.3207 29.316 29.2827 29.3766 29.2284 29.4202C29.1883 29.4336 29.146 29.4387 29.1039 29.4352C29.0617 29.4317 29.0208 29.4197 28.9835 29.3998C28.9462 29.38 28.9133 29.3528 28.8868 29.3199C28.8603 29.287 28.8408 29.249 28.8295 29.2083L28.7422 28.9963L28.8295 28.9714Z" fill="#F6862F"/>
<path d="M29.19 29.3824L29.2523 29.3575L29.0155 28.7466L28.9531 28.7715L29.19 29.3824Z" fill="#F6862F"/>
<path d="M29.086 27.9776L28.4004 28.1646L28.4397 28.3089L29.1254 28.122L29.086 27.9776Z" fill="#F6862F"/>
<path d="M23.5807 29.2831C23.7008 29.2863 23.819 29.3135 23.9284 29.3632C24.0378 29.4129 24.1361 29.484 24.2175 29.5724C24.2988 29.6607 24.3617 29.7645 24.4022 29.8776C24.4427 29.9907 24.4602 30.1108 24.4534 30.2307C24.4534 30.4655 24.3602 30.6906 24.1942 30.8566C24.0282 31.0226 23.803 31.1159 23.5682 31.1159C23.3335 31.1159 23.1083 31.0226 22.9423 30.8566C22.7763 30.6906 22.683 30.4655 22.683 30.2307C22.6762 30.1087 22.6944 29.9866 22.7365 29.8718C22.7786 29.7571 22.8436 29.6522 22.9276 29.5634C23.0117 29.4747 23.113 29.4041 23.2253 29.3559C23.3375 29.3077 23.4585 29.283 23.5807 29.2831V29.2831ZM22.9947 22.4384V21.042H24.2415V22.4259L23.9921 28.0364H23.1443L22.9947 22.4384Z" fill="#DB3726"/>
<path d="M36.7086 31.4277C35.0121 31.4277 33.3537 31.9308 31.9431 32.8734C30.5325 33.8159 29.433 35.1556 28.7838 36.7229C28.1346 38.2903 27.9647 40.015 28.2957 41.679C28.6267 43.3429 29.4436 44.8713 30.6432 46.0709C31.8429 47.2705 33.3713 48.0875 35.0352 48.4185C36.6991 48.7495 38.4238 48.5796 39.9912 47.9304C41.5586 47.2811 42.8983 46.1817 43.8408 44.7711C44.7834 43.3605 45.2864 41.702 45.2864 40.0055C45.2864 37.7305 44.3827 35.5488 42.7741 33.9401C41.1654 32.3315 38.9836 31.4277 36.7086 31.4277ZM29.4524 40.0055C29.4529 38.5992 29.862 37.2234 30.6299 36.0453C31.3979 34.8672 32.4916 33.9377 33.7781 33.3697C35.0646 32.8018 36.4884 32.6199 37.8763 32.8462C39.2643 33.0725 40.5565 33.6972 41.596 34.6444L31.36 44.8929C30.1337 43.5606 29.4528 41.8162 29.4524 40.0055V40.0055ZM36.7086 47.2243C35.169 47.2388 33.6654 46.758 32.4198 45.8529L42.556 35.7166C43.3376 36.7977 43.8061 38.0732 43.91 39.4032C44.0138 40.7331 43.7491 42.066 43.1448 43.2552C42.5405 44.4445 41.62 45.4442 40.4846 46.1444C39.3491 46.8446 38.0426 47.2183 36.7086 47.2243V47.2243Z" fill="#DB3726"/>
<defs>
<filter id="filter0_d_2_14282" x="0" y="0" width="79" height="79" filterUnits="userSpaceOnUse" color-interpolation-filters="sRGB">
<feFlood flood-opacity="0" result="BackgroundImageFix"/>
<feColorMatrix in="SourceAlpha" type="matrix" values="0 0 0 0 0 0 0 0 0 0 0 0 0 0 0 0 0 0 127 0" result="hardAlpha"/>
<feMorphology radius="1" operator="dilate" in="SourceAlpha" result="effect1_dropShadow_2_14282"/>
<feOffset dx="1" dy="1"/>
<feGaussianBlur stdDeviation="2"/>
<feComposite in2="hardAlpha" operator="out"/>
<feColorMatrix type="matrix" values="0 0 0 0 0 0 0 0 0 0 0 0 0 0 0 0 0 0 0.25 0"/>
<feBlend mode="normal" in2="BackgroundImageFix" result="effect1_dropShadow_2_14282"/>
<feBlend mode="normal" in="SourceGraphic" in2="effect1_dropShadow_2_14282" result="shape"/>
</filter>
<linearGradient id="paint0_linear_2_14282" x1="6" y1="6" x2="83.4075" y2="28.7116" gradientUnits="userSpaceOnUse">
<stop stop-color="#F6460F"/>
<stop offset="1" stop-color="#FE2B5E"/>
</linearGradient>
</defs>
</svg>
