<svg width="54" height="65" viewBox="0 0 54 65" fill="none" xmlns="http://www.w3.org/2000/svg">
<path d="M15.8573 50.4698C16.4873 50.1367 17.1758 49.8117 17.9228 49.5029C17.2918 50.3523 16.616 51.1738 15.8978 51.9648C14.6378 53.3338 13.6568 54.061 13.0403 54.2885C12.9891 54.3081 12.9365 54.3244 12.8828 54.3373C12.8379 54.281 12.7987 54.2212 12.7658 54.1585C12.5138 53.7117 12.5228 53.281 12.9458 52.696C13.4228 52.0257 14.3813 51.2579 15.8573 50.4698ZM26.9048 43.7788C26.3693 43.8804 25.8383 43.982 25.3028 44.0957C26.096 42.6927 26.8463 41.2703 27.5528 39.8301C28.2641 41.0201 29.0298 42.183 29.8478 43.3157C28.8713 43.4457 27.8858 43.6001 26.9048 43.7788ZM38.2673 47.5935C37.5683 47.0846 36.9139 46.5277 36.3098 45.9279C37.3358 45.9482 38.2628 46.0173 39.0638 46.1473C40.4903 46.3788 41.1608 46.7445 41.3948 46.9963C41.4686 47.0667 41.5103 47.1595 41.5118 47.2563C41.496 47.5429 41.4034 47.8218 41.2418 48.0688C41.1511 48.2668 41.0054 48.4403 40.8188 48.5726C40.7259 48.624 40.6165 48.6455 40.5083 48.6335C40.1033 48.6213 39.3473 48.3654 38.2673 47.5935ZM28.2548 28.3129C28.0748 29.3042 27.7688 30.4417 27.3548 31.6807C27.2023 31.2168 27.0687 30.7479 26.9543 30.2751C26.6123 28.841 26.5628 27.7157 26.7473 26.9357C26.9183 26.2167 27.2423 25.9282 27.6293 25.786C27.8369 25.7034 28.0567 25.6487 28.2818 25.6235C28.3403 25.7454 28.4078 25.9973 28.4258 26.4279C28.4483 26.9235 28.3943 27.5532 28.2548 28.317V28.3129Z" fill="#1A202E"/>
<path fill-rule="evenodd" clip-rule="evenodd" d="M9 0H32.8185C34.0119 0.000230089 35.1563 0.428393 36 1.19031L52.6815 16.25C53.5255 17.0117 53.9997 18.0448 54 19.1222V56.875C54 59.0299 53.0518 61.0965 51.364 62.6202C49.6761 64.144 47.3869 65 45 65H9C6.61305 65 4.32387 64.144 2.63604 62.6202C0.948211 61.0965 0 59.0299 0 56.875V8.125C0 5.97012 0.948211 3.90349 2.63604 2.37976C4.32387 0.856024 6.61305 0 9 0V0ZM33.75 6.09375V14.2188C33.75 15.2962 34.2241 16.3295 35.068 17.0914C35.9119 17.8532 37.0565 18.2812 38.25 18.2812H47.25L33.75 6.09375ZM9.7425 55.5263C10.1475 56.2575 10.7775 56.9197 11.7135 57.2284C12.645 57.5331 13.5675 57.3909 14.3235 57.1066C15.7545 56.5784 17.181 55.3353 18.4905 53.9134C19.989 52.2844 21.564 50.1475 23.085 47.7791C26.0214 46.9934 29.0284 46.4415 32.0715 46.1297C33.4215 47.6856 34.8165 49.0263 36.1665 49.9891C37.4265 50.8828 38.88 51.6263 40.3695 51.6831C41.1808 51.7194 41.9841 51.5232 42.6645 51.1225C43.362 50.7122 43.8795 50.1191 44.2575 49.4325C44.6625 48.6972 44.91 47.9294 44.8785 47.1453C44.85 46.3723 44.5328 45.6307 43.9785 45.0409C42.9615 43.9441 41.2965 43.4159 39.6585 43.1519C37.6715 42.874 35.6554 42.8059 33.651 42.9487C31.9584 40.7885 30.4825 38.4963 29.241 36.0994C30.366 33.4181 31.2075 30.8831 31.581 28.8113C31.743 27.9256 31.8285 27.0806 31.797 26.3169C31.7914 25.5588 31.596 24.8116 31.2255 24.1313C31.012 23.7558 30.7086 23.4279 30.3374 23.1714C29.9661 22.915 29.5362 22.7363 29.079 22.6484C28.17 22.4737 27.234 22.6484 26.3745 22.9613C24.678 23.5706 23.7825 24.8706 23.445 26.3047C23.1165 27.6859 23.265 29.2947 23.652 30.9197C24.048 32.5691 24.723 34.3647 25.587 36.1806C24.205 39.2836 22.6089 42.3052 20.808 45.2278C18.4889 45.8865 16.2535 46.7649 14.139 47.8481C12.474 48.7419 10.9935 49.7981 10.1025 51.0453C9.1575 52.3697 8.865 53.9459 9.7425 55.5263Z" fill="#1A202E"/>
</svg>
