<svg width="24" height="24" viewBox="0 0 24 24" fill="none" xmlns="http://www.w3.org/2000/svg">
<g clip-path="url(#clip0_850_22225)">
<circle cx="12" cy="12" r="12" fill="#F6830F"/>
<path d="M16.2812 6.75H13.875V6.3125C13.875 5.58762 13.2874 5 12.5625 5H10.8125C10.0876 5 9.5 5.58762 9.5 6.3125V6.75H7.09375C6.4897 6.75 6 7.2397 6 7.84375V8.71875C6 8.96039 6.19586 9.15625 6.4375 9.15625H16.9375C17.1791 9.15625 17.375 8.96039 17.375 8.71875V7.84375C17.375 7.2397 16.8853 6.75 16.2812 6.75ZM10.375 6.3125C10.375 6.07133 10.5713 5.875 10.8125 5.875H12.5625C12.8037 5.875 13 6.07133 13 6.3125V6.75H10.375V6.3125Z" fill="white"/>
<path d="M6.83007 10.0312C6.75201 10.0312 6.6898 10.0965 6.69352 10.1745L7.05446 17.7498C7.08781 18.4509 7.66367 19 8.36531 19H15.0093C15.7109 19 16.2868 18.4509 16.3202 17.7498L16.6811 10.1745C16.6848 10.0965 16.6226 10.0312 16.5445 10.0312H6.83007ZM13.4373 11.125C13.4373 10.8833 13.6331 10.6875 13.8748 10.6875C14.1165 10.6875 14.3123 10.8833 14.3123 11.125V16.8125C14.3123 17.0542 14.1165 17.25 13.8748 17.25C13.6331 17.25 13.4373 17.0542 13.4373 16.8125V11.125ZM11.2498 11.125C11.2498 10.8833 11.4456 10.6875 11.6873 10.6875C11.929 10.6875 12.1248 10.8833 12.1248 11.125V16.8125C12.1248 17.0542 11.929 17.25 11.6873 17.25C11.4456 17.25 11.2498 17.0542 11.2498 16.8125V11.125ZM9.06231 11.125C9.06231 10.8833 9.25809 10.6875 9.49981 10.6875C9.74153 10.6875 9.93731 10.8833 9.93731 11.125V16.8125C9.93731 17.0542 9.74153 17.25 9.49981 17.25C9.25809 17.25 9.06231 17.0542 9.06231 16.8125V11.125Z" fill="white"/>
</g>
<defs>
<clipPath id="clip0_850_22225">
<rect width="24" height="24" fill="white"/>
</clipPath>
</defs>
</svg>
