<svg width="24" height="24" viewBox="0 0 24 24" fill="none" xmlns="http://www.w3.org/2000/svg">
<path d="M1.87456 0C5.46801 0 9.06204 0 12.6555 0C12.6555 1.5933 12.6555 3.1872 12.6567 4.7805C12.6572 5.36052 12.9208 5.62412 13.5009 5.6247C15.0085 5.62529 16.5161 5.6247 18.0236 5.6247C18.1058 5.6247 18.188 5.6247 18.2814 5.6247C18.2814 6.85344 18.2837 8.04754 18.2761 9.24222C18.2755 9.32206 18.2121 9.41306 18.1551 9.47999C16.4033 11.5582 14.6498 13.6347 12.8944 15.7094C12.5257 16.145 12.2428 16.627 12.1054 17.1817C11.8723 18.1205 11.641 19.0598 11.4391 20.005C11.3786 20.2879 11.3657 20.6032 11.4221 20.885C11.6956 22.2523 13.0752 22.9403 14.3914 22.3826C15.2098 22.0356 16.0317 21.6951 16.8354 21.3153C17.2047 21.1409 17.5387 20.8873 17.8775 20.6537C18.0195 20.5556 18.1317 20.4141 18.2814 20.2691C18.2814 20.7975 18.2837 21.2953 18.2808 21.7932C18.2737 23.0853 17.3749 23.9958 16.0857 23.997C11.4538 24.0011 6.8212 24.0029 2.18923 23.9894C1.85695 23.9882 1.49825 23.9095 1.19825 23.7681C0.355224 23.3706 0.000634034 22.6497 0.000634034 21.7374C0.000634034 16.4332 0.000634034 11.1296 0.000634034 5.82548C0.000634034 4.62258 -0.00112717 3.41967 0.0012211 2.21677C0.00239524 1.47883 0.251899 0.840682 0.876541 0.423277C1.17184 0.226021 1.53934 0.137961 1.87456 0ZM9.11664 9.89035C10.9366 9.89035 12.7571 9.89035 14.577 9.89035C15.1417 9.89035 15.4658 9.63497 15.467 9.1888C15.4681 8.74263 15.1435 8.48373 14.5805 8.48373C10.9559 8.48373 7.33077 8.48373 3.70621 8.48373C3.62813 8.48373 3.54946 8.47962 3.47197 8.48784C3.17374 8.51954 2.96063 8.67159 2.8579 8.95632C2.6853 9.43537 3.03578 9.888 3.58528 9.88859C5.42926 9.89211 7.27265 9.89035 9.11664 9.89035ZM7.71002 14.109C8.90529 14.109 10.1006 14.109 11.2958 14.109C11.5301 14.109 11.7655 14.1184 11.9986 14.1037C12.3743 14.0803 12.6537 13.775 12.6543 13.4081C12.6555 13.0406 12.3772 12.74 12.0021 12.7071C11.917 12.6995 11.8301 12.703 11.7444 12.703C9.14305 12.703 6.54175 12.703 3.94045 12.703C3.79192 12.703 3.6434 12.6971 3.49545 12.7059C3.19487 12.7241 2.97766 12.8738 2.86553 13.1533C2.67591 13.6259 3.02286 14.1055 3.56238 14.1073C4.94493 14.112 6.32747 14.109 7.71002 14.109ZM7.05368 4.21868C6.74899 4.21868 6.4443 4.21868 6.13961 4.21868C5.27251 4.21868 4.40541 4.21457 3.53831 4.22102C3.11973 4.22396 2.81328 4.53158 2.81445 4.92375C2.81563 5.31591 3.12267 5.61179 3.54183 5.6247C3.5888 5.62588 3.63576 5.62529 3.68273 5.62529C5.91711 5.62529 8.15091 5.62529 10.3853 5.62529C10.4634 5.62529 10.542 5.62823 10.6195 5.61942C11.0651 5.56776 11.3475 5.13509 11.2136 4.71416C11.1115 4.39421 10.8585 4.22044 10.4757 4.21985C9.33503 4.2175 8.19435 4.21868 7.05368 4.21868ZM6.31045 18.3277C7.23978 18.3277 8.16969 18.3318 9.09902 18.3259C9.59803 18.323 9.93795 17.9074 9.82229 17.4582C9.73658 17.126 9.46888 16.924 9.09022 16.9228C8.09044 16.9199 7.09066 16.9217 6.0903 16.9217C5.25431 16.9217 4.41833 16.9234 3.58293 16.9211C3.25358 16.9199 3.00408 17.052 2.8714 17.3561C2.66827 17.8222 3.0123 18.3212 3.54477 18.3253C4.46647 18.333 5.38816 18.3271 6.31045 18.3277Z" fill="#0E918C"/>
<path d="M23.9979 10.7807C23.8564 11.4077 23.4994 11.909 23.0486 12.3869C21.9807 11.4916 20.9128 10.5963 19.8379 9.69519C20.361 8.96488 20.9604 8.38486 21.9302 8.40071C22.9323 8.41715 23.7724 9.12985 23.9532 10.1155C23.9597 10.1513 23.982 10.1842 23.9973 10.2183C23.9979 10.4055 23.9979 10.5934 23.9979 10.7807Z" fill="#0E918C"/>
<path d="M18.2656 18.07C17.1784 17.1577 16.1152 16.2654 15.0332 15.3572C16.3283 13.8249 17.6157 12.3021 18.9196 10.7593C19.9963 11.6628 21.0636 12.5581 22.1508 13.4698C20.8552 15.005 19.5683 16.5278 18.2656 18.07Z" fill="#0E918C"/>
<path d="M17.3508 19.1354C17.0426 19.5669 16.6727 19.8721 16.2042 20.0688C15.4281 20.3935 14.6585 20.7334 13.8888 21.0733C13.5888 21.206 13.2988 21.2377 13.0335 21.0146C12.7681 20.7909 12.7517 20.5003 12.8303 20.1815C13.0411 19.3268 13.2436 18.4702 13.445 17.6131C13.5519 17.1581 13.7937 16.7853 14.1342 16.439C15.2039 17.3354 16.2712 18.2301 17.3508 19.1354Z" fill="#0E918C"/>
<path d="M14.4206 0.235701C14.6648 0.34196 14.8756 0.492837 15.0628 0.687744C15.8295 1.48498 16.6321 2.24582 17.4675 2.97085C17.7639 3.22799 17.9952 3.52211 18.1309 3.87788C18.1919 4.03814 18.0698 4.20957 17.8984 4.20957H14.0801V0.464658C14.0795 0.289124 14.2591 0.16584 14.4206 0.235701Z" fill="#0E918C"/>
</svg>
