<svg width="24" height="24" viewBox="0 0 24 24" fill="none" xmlns="http://www.w3.org/2000/svg">
<circle opacity="0.51" cx="12" cy="12" r="12" fill="#1A202E"/>
<path d="M12.6805 8L6.72846 13.9523C6.69851 13.9824 6.67689 14.0203 6.66659 14.061L6.00687 16.709C5.98714 16.7887 6.01056 16.8734 6.06873 16.9316C6.11275 16.9756 6.17272 17 6.23407 17C6.25286 17 6.27208 16.9977 6.29079 16.993L8.93877 16.3332C8.98004 16.3229 9.01754 16.3013 9.04748 16.2714L15 10.3195L12.6805 8Z" fill="white"/>
<path d="M16.605 7.14872L15.8422 6.38343C15.3323 5.87194 14.4437 5.87244 13.9345 6.38343L13 7.32087L15.6706 10L16.605 9.06256C16.8597 8.80716 17 8.46723 17 8.10569C17 7.74415 16.8597 7.40422 16.605 7.14872Z" fill="white"/>
</svg>
