<svg width="24" height="24" viewBox="0 0 24 24" fill="none" xmlns="http://www.w3.org/2000/svg">
<circle opacity="0.51" cx="12" cy="12" r="12" fill="#1A202E"/>
<path d="M19 14.6265C19 16.4866 17.432 17.9933 15.479 18H8.535C6.589 18 5 16.4999 5 14.6398V14.6332C5 14.6332 5.0042 11.6823 5.0098 10.1983C5.0105 9.91959 5.3465 9.76358 5.5754 9.93692C7.2386 11.1937 10.2129 13.4851 10.25 13.5151C10.747 13.8945 11.377 14.1085 12.021 14.1085C12.665 14.1085 13.295 13.8945 13.792 13.5078C13.8291 13.4844 16.7369 11.2617 18.4253 9.98426C18.6549 9.81025 18.9923 9.96626 18.993 10.2443C19 11.717 19 14.6265 19 14.6265Z" fill="white"/>
<path d="M18.6331 7.78276C18.0269 6.6947 16.8341 6 15.5209 6H8.53492C7.22172 6 6.02892 6.6947 5.42272 7.78276C5.28692 8.0261 5.35132 8.32945 5.57742 8.50146L10.7749 12.461C11.1389 12.741 11.5799 12.8804 12.0209 12.8804C12.0237 12.8804 12.0258 12.8804 12.0279 12.8804C12.03 12.8804 12.0328 12.8804 12.0349 12.8804C12.4759 12.8804 12.9169 12.741 13.2809 12.461L18.4784 8.50146C18.7045 8.32945 18.7689 8.0261 18.6331 7.78276Z" fill="white"/>
</svg>
