<svg width="27" height="27" viewBox="0 0 27 27" fill="none" xmlns="http://www.w3.org/2000/svg">
<path d="M0.00919345 24.0631C0.128683 23.4105 0.312515 22.7763 0.643408 22.1973C1.5166 20.6807 2.74826 19.6512 4.51302 19.3295C4.58656 19.3111 4.66928 19.3111 4.74281 19.3019C4.80715 19.2927 4.88068 19.2836 4.95421 19.256C4.22808 19.0722 3.63064 18.7137 3.25379 18.0519C2.88613 17.3993 2.82179 16.7007 3.03319 15.9838C3.42843 14.6878 4.60494 14.1823 5.62519 14.265C6.86604 14.3661 7.77601 15.2944 7.91388 16.5537C8.05175 17.7762 7.27966 18.8056 5.85498 19.2652C6.11234 19.3019 6.29617 19.3295 6.48 19.3663C8.74111 19.7707 10.7816 22.1421 10.8184 24.394C10.8368 25.6165 10.1934 26.5356 8.92494 26.7011C8.88817 26.7011 8.8606 26.7287 8.83303 26.7379C6.55354 26.7379 4.27405 26.7379 1.98537 26.7379C1.9486 26.7195 1.90264 26.7011 1.86587 26.6919C0.799658 26.5081 0.275746 26.0117 0.0367668 24.9455C0.0275753 24.9087 0.00919149 24.8812 0 24.8536C0.00919149 24.587 0.00919345 24.3297 0.00919345 24.0631Z" fill="url(#paint0_linear_1446_99314)"/>
<path d="M17.9324 26.7287C17.7577 26.6828 17.5739 26.6552 17.3993 26.6C16.5169 26.3335 15.9746 25.6165 15.947 24.6514C15.9103 23.2727 16.4709 22.1146 17.3533 21.1035C18.2541 20.0741 19.3846 19.4215 20.7725 19.302C20.8001 19.302 20.8369 19.2836 20.938 19.256C20.1843 19.0906 19.6144 18.7597 19.2468 18.1531C18.8791 17.5556 18.7688 16.903 18.9159 16.2228C19.164 15.0371 20.1475 14.2559 21.3792 14.2559C22.5281 14.2559 23.5576 15.0831 23.8057 16.2412C23.9528 16.9306 23.8333 17.574 23.4381 18.1622C23.0612 18.7321 22.5189 19.0814 21.8572 19.2744C22.1237 19.3204 22.3994 19.3571 22.666 19.4215C24.8076 19.9178 26.7195 22.2341 26.7562 24.3849C26.7838 25.6809 26.1496 26.453 24.872 26.6919C24.8352 26.7011 24.8076 26.7195 24.78 26.7287C22.4914 26.7287 20.2119 26.7287 17.9324 26.7287Z" fill="url(#paint1_linear_1446_99314)"/>
<path d="M13.2263 5.04619C11.7465 4.84398 10.809 3.78695 10.8825 2.38985C10.956 1.01112 12.0039 0.0184435 13.3918 6.05403e-05C14.651 -0.00913095 15.7816 1.02951 15.8827 2.28874C15.993 3.69504 15.0462 4.8164 13.5388 5.0278C13.9249 5.09215 14.265 5.12891 14.6051 5.19325C16.8662 5.6804 18.4563 7.44517 18.7137 9.75223C18.7504 10.1199 18.778 10.5059 18.7137 10.8644C18.539 11.7835 17.7394 12.4453 16.8018 12.4545C14.5315 12.4729 12.2612 12.4729 9.99092 12.4545C8.87875 12.4453 7.97799 11.5262 8.01476 10.414C8.0791 8.46542 8.84199 6.87529 10.5424 5.82746C11.2318 5.40466 11.9947 5.16568 12.8035 5.09215C12.9414 5.08295 13.0885 5.06457 13.2263 5.04619Z" fill="url(#paint2_linear_1446_99314)"/>
<path d="M12.3712 16.7562C13.0513 16.7562 13.7131 16.7562 14.3933 16.7562C14.3657 16.6827 14.3473 16.6184 14.329 16.554C14.2003 16.1956 14.3381 15.8279 14.6598 15.6257C14.9907 15.4235 15.3952 15.451 15.625 15.7636C15.9742 16.2323 16.3051 16.7287 16.6084 17.2342C16.7647 17.4916 16.6912 17.7765 16.5165 18.0247C16.2592 18.4107 16.011 18.7967 15.7444 19.1736C15.4687 19.5688 15.0551 19.6975 14.6782 19.4861C14.3014 19.2839 14.1819 18.8887 14.3565 18.4291C14.3657 18.4015 14.3657 18.3831 14.3749 18.3372C13.7039 18.3372 13.0421 18.3372 12.3987 18.3372C12.4171 18.5302 12.4815 18.7416 12.4539 18.9346C12.4171 19.2563 12.2057 19.4769 11.8932 19.5596C11.5715 19.6424 11.2774 19.5413 11.0752 19.2747C10.7535 18.8335 10.4501 18.3739 10.1652 17.9052C9.99057 17.6294 10.0457 17.3353 10.2204 17.0687C10.4777 16.6827 10.7351 16.2875 11.0016 15.9014C11.2774 15.5062 11.6634 15.3959 12.0403 15.5981C12.4263 15.8003 12.555 16.1864 12.3804 16.6459C12.3896 16.6735 12.3895 16.7011 12.3712 16.7562Z" fill="url(#paint3_linear_1446_99314)"/>
<path d="M3.4285 12.8223C2.95055 12.8315 2.57369 12.3995 2.63803 11.9216C2.94135 9.76157 3.80536 7.85894 5.23923 6.21366C5.82748 5.53349 6.49846 4.94523 7.24297 4.43051C7.67497 4.12719 8.16211 4.19153 8.41948 4.56838C8.67684 4.94523 8.57574 5.414 8.14374 5.71732C6.23191 7.05928 4.97267 8.86081 4.39361 11.1311C4.31088 11.462 4.26493 11.7929 4.20058 12.1238C4.10867 12.5282 3.80535 12.8131 3.4285 12.8223Z" fill="url(#paint4_linear_1446_99314)"/>
<path d="M19.0809 4.22819C19.1544 4.25576 19.3199 4.29253 19.4394 4.37525C22.0865 6.21355 23.6491 8.73202 24.127 11.9215C24.1914 12.3535 23.8972 12.7303 23.4652 12.8038C23.0516 12.8774 22.6748 12.5833 22.5829 12.1421C22.4634 11.5906 22.3714 11.0299 22.206 10.4968C21.5626 8.51142 20.3677 6.92129 18.6581 5.7264C18.4191 5.56095 18.2445 5.35874 18.2261 5.05542C18.1985 4.60504 18.557 4.219 19.0809 4.22819Z" fill="url(#paint5_linear_1446_99314)"/>
<defs>
<linearGradient id="paint0_linear_1446_99314" x1="0" y1="14.2563" x2="13.143" y2="17.5988" gradientUnits="userSpaceOnUse">
<stop stop-color="#1A202E"/>
<stop offset="1" stop-color="#424E68"/>
</linearGradient>
<linearGradient id="paint1_linear_1446_99314" x1="15.9453" y1="14.2559" x2="29.0797" y2="17.5963" gradientUnits="userSpaceOnUse">
<stop stop-color="#1A202E"/>
<stop offset="1" stop-color="#424E68"/>
</linearGradient>
<linearGradient id="paint2_linear_1446_99314" x1="8.01367" y1="0" x2="21.0693" y2="3.29914" gradientUnits="userSpaceOnUse">
<stop stop-color="#1A202E"/>
<stop offset="1" stop-color="#424E68"/>
</linearGradient>
<linearGradient id="paint3_linear_1446_99314" x1="10.0586" y1="15.4966" x2="17.0563" y2="18.8266" gradientUnits="userSpaceOnUse">
<stop stop-color="#1A202E"/>
<stop offset="1" stop-color="#424E68"/>
</linearGradient>
<linearGradient id="paint4_linear_1446_99314" x1="2.63086" y1="4.23877" x2="9.99634" y2="5.73134" gradientUnits="userSpaceOnUse">
<stop stop-color="#1A202E"/>
<stop offset="1" stop-color="#424E68"/>
</linearGradient>
<linearGradient id="paint5_linear_1446_99314" x1="18.2246" y1="4.22803" x2="25.5706" y2="5.71173" gradientUnits="userSpaceOnUse">
<stop stop-color="#1A202E"/>
<stop offset="1" stop-color="#424E68"/>
</linearGradient>
</defs>
</svg>
