<svg width="24" height="24" viewBox="0 0 24 24" fill="none" xmlns="http://www.w3.org/2000/svg">
<path d="M12 0C5.376 0 0 5.376 0 12C0 18.624 5.376 24 12 24C18.624 24 24 18.624 24 12C24 5.376 18.624 0 12 0ZM13.2 16.8C13.2 17.4627 12.6627 18 12 18C11.3373 18 10.8 17.4627 10.8 16.8V12C10.8 11.3373 11.3373 10.8 12 10.8C12.6627 10.8 13.2 11.3373 13.2 12V16.8ZM13.2 7.2C13.2 7.86274 12.6627 8.4 12 8.4C11.3373 8.4 10.8 7.86274 10.8 7.2C10.8 6.53726 11.3373 6 12 6C12.6627 6 13.2 6.53726 13.2 7.2Z" fill="black"/>
</svg>
