<svg width="60" height="60" viewBox="0 0 60 60" fill="none" xmlns="http://www.w3.org/2000/svg">
<path d="M30 60C46.5685 60 60 46.5685 60 30C60 13.4315 46.5685 0 30 0C13.4315 0 0 13.4315 0 30C0 46.5685 13.4315 60 30 60Z" fill="#4467AD"/>
<path d="M32.3108 25.911C32.7997 25.3777 33.1997 24.7999 33.733 24.311C35.2886 22.8443 37.1108 22.0888 39.2886 22.1332C40.4886 22.1332 41.6442 22.2221 42.7553 22.5776C45.3775 23.3332 46.8886 25.111 47.5997 27.6888C48.133 29.5999 48.2219 31.5554 48.2664 33.511C48.2664 37.6443 48.2664 41.7776 48.2664 45.9554C48.2664 46.3554 48.1775 46.4443 47.7775 46.4443C45.6441 46.4443 43.5108 46.4443 41.3775 46.4443C41.0219 46.4443 40.933 46.311 40.933 45.9554C40.933 41.9999 40.933 38.0888 40.933 34.1332C40.933 33.1554 40.8886 32.1777 40.5775 31.1999C40.0886 29.4221 38.7997 28.5332 36.933 28.6221C34.3997 28.7554 33.0664 29.9999 32.7553 32.5777C32.6664 33.1999 32.6219 33.8221 32.6219 34.4443C32.6219 38.2665 32.6219 42.1332 32.6219 45.9554C32.6219 46.3554 32.533 46.4443 32.133 46.4443C29.9997 46.4443 27.8219 46.4443 25.6886 46.4443C25.333 46.4443 25.2441 46.3554 25.2441 45.9999C25.2441 38.3999 25.2441 30.7999 25.2441 23.1999C25.2441 22.8443 25.3775 22.7554 25.733 22.7554C27.7775 22.7554 29.8219 22.7554 31.8664 22.7554C32.2219 22.7554 32.3553 22.8888 32.3108 23.2443C32.3108 24.0888 32.3108 25.0221 32.3108 25.911Z" fill="#FEFEFE"/>
<path d="M20.6219 34.5776C20.6219 38.3554 20.6219 42.0887 20.6219 45.8665C20.6219 46.2665 20.533 46.3998 20.0886 46.3998C17.9553 46.3554 15.8219 46.3998 13.6886 46.3998C13.333 46.3998 13.2441 46.3109 13.2441 45.9554C13.2441 38.3554 13.2441 30.7554 13.2441 23.1554C13.2441 22.8443 13.333 22.7109 13.6442 22.7109C15.8219 22.7109 17.9553 22.7109 20.133 22.7109C20.533 22.7109 20.6219 22.8887 20.6219 23.2443C20.6219 27.022 20.6219 30.7998 20.6219 34.5776Z" fill="#FEFEFE"/>
<path d="M21.1994 15.1553C21.1994 17.5109 19.2882 19.422 16.9327 19.422C14.6216 19.422 12.666 17.5109 12.666 15.1998C12.666 12.8442 14.5771 10.9331 16.9327 10.9331C19.2882 10.9331 21.1994 12.8442 21.1994 15.1553Z" fill="#FEFEFE"/>
</svg>
