<svg width="60" height="60" viewBox="0 0 60 60" fill="none" xmlns="http://www.w3.org/2000/svg">
<circle cx="30" cy="30" r="30" fill="#FA3839"/>
<path d="M30.7961 14C31.4384 14.106 32.0882 14.1811 32.7223 14.3229C37.3284 15.3533 41.0671 19.3942 41.8232 24.1451C42.3771 27.6294 41.6309 30.7991 39.5664 33.631C36.6206 37.6718 33.6552 41.6985 30.7061 45.7368C30.5645 45.9304 30.4132 45.9587 30.2004 45.9871C29.6783 46.0555 29.3649 45.8494 29.0499 45.4156C26.2285 41.5266 23.3891 37.651 20.5366 33.7853C18.7978 31.4299 17.8666 28.795 18.0155 25.8505C18.2618 20.9653 20.5963 17.4109 24.862 15.1898C26.154 14.5173 27.5484 14.1635 28.9975 14.0492C29.0671 14.0434 29.135 14.0167 29.2037 14C29.7348 14 30.2659 14 30.7961 14ZM30.0089 22.1818C27.8225 22.1785 26.0272 23.9949 26.019 26.2168C26.0108 28.4621 27.7963 30.2977 29.9909 30.301C32.1774 30.3044 33.9718 28.4896 33.9808 26.266C33.9898 24.0199 32.2052 22.1851 30.0089 22.1818Z" fill="white"/>
</svg>
