<svg width="60" height="60" viewBox="0 0 60 60" fill="none" xmlns="http://www.w3.org/2000/svg">
<circle cx="30" cy="30" r="30" fill="#FA3839"/>
<path d="M45 36.1704C45 40.3036 41.64 43.6517 37.455 43.6665H37.44H22.575C18.405 43.6665 15 40.3332 15 36.2001V36.1852C15 36.1852 15.009 29.6284 15.021 26.3308C15.0225 25.7115 15.7425 25.3649 16.233 25.75C19.797 28.5425 26.1705 33.6342 26.25 33.7009C27.315 34.5438 28.665 35.0194 30.045 35.0194C31.425 35.0194 32.775 34.5438 33.84 33.6846C33.9195 33.6327 40.1505 28.6936 43.7685 25.8552C44.2605 25.4686 44.9835 25.8152 44.985 26.433C45 29.7055 45 36.1704 45 36.1704Z" fill="white"/>
<path d="M44.2133 20.9613C42.9143 18.5437 40.3583 17 37.5443 17H22.5743C19.7603 17 17.2043 18.5437 15.9053 20.9613C15.6143 21.5021 15.7523 22.1761 16.2368 22.5583L27.3743 31.3566C28.1543 31.9788 29.0993 32.2884 30.0443 32.2884C30.0503 32.2884 30.0548 32.2884 30.0593 32.2884C30.0638 32.2884 30.0698 32.2884 30.0743 32.2884C31.0193 32.2884 31.9643 31.9788 32.7443 31.3566L43.8818 22.5583C44.3663 22.1761 44.5043 21.5021 44.2133 20.9613Z" fill="white"/>
</svg>
