<svg width="65" height="47" viewBox="0 0 65 47" fill="none" xmlns="http://www.w3.org/2000/svg">
<path d="M64.9855 7.40145C64.9855 2.94508 62.0404 0 57.584 0C49.2138 0 40.863 0 32.4927 0C24.1225 0 15.7717 0 7.40145 0C2.94508 0 0 2.94508 0 7.40145C0 17.9417 0 28.482 0 39.0223C0 43.4786 2.94508 46.4237 7.40145 46.4237C24.1225 46.4237 40.863 46.4237 57.584 46.4237C62.0404 46.4237 64.9855 43.4786 64.9855 39.0223C65.0048 28.482 65.0048 17.9417 64.9855 7.40145ZM30.032 37.1235C23.9481 37.1235 17.8448 37.1235 11.7609 37.1235C10.2496 37.1235 9.30025 36.1353 9.30025 34.6047C9.31962 29.0439 13.6597 24.0838 19.1818 23.3281C19.3949 23.3087 19.5886 23.2506 19.8987 23.1731C15.7135 22.0106 13.4079 18.8911 13.9891 15.3067C14.5898 11.6253 17.593 9.12587 21.2549 9.28087C24.7038 9.43587 27.6101 12.2647 27.8426 15.7329C28.0751 19.3174 25.6338 22.4175 22.0106 23.1925C22.2043 23.2312 22.4175 23.2894 22.6112 23.3281C28.1332 24.0838 32.4734 29.0439 32.4927 34.6047C32.4927 36.1353 31.5433 37.1235 30.032 37.1235ZM48.5357 30.1677C44.8156 30.1677 41.0955 30.1677 37.3754 30.1677C35.9028 30.1677 34.8372 29.1989 34.8372 27.862C34.8178 26.4863 35.8834 25.5369 37.4141 25.5175C39.2742 25.5175 41.1342 25.5175 42.9943 25.5175C44.8349 25.5175 46.6756 25.5175 48.4969 25.5175C50.0276 25.5175 51.0739 26.4863 51.0739 27.862C51.0545 29.1989 50.0082 30.1677 48.5357 30.1677ZM54.2127 20.693C53.8445 20.8481 53.4183 20.8868 53.0114 20.8868C50.3957 20.9062 47.7994 20.8868 45.1837 20.8868C43.8662 20.8868 42.5486 20.8868 41.2311 20.8868C39.9136 20.8868 38.596 20.8868 37.2785 20.8868C35.8641 20.8868 34.8178 19.8987 34.8178 18.5811C34.7984 17.2636 35.8253 16.2367 37.2397 16.2367C42.5486 16.2367 47.8769 16.2367 53.1858 16.2367C54.3871 16.2367 55.3558 16.9923 55.569 18.058C55.7821 19.1818 55.259 20.2668 54.2127 20.693Z" fill="#1A202E"/>
</svg>
