<svg width="66" height="65" viewBox="0 0 66 65" fill="none" xmlns="http://www.w3.org/2000/svg">
<path d="M48.9109 23.0786C44.5339 23.0446 40.1568 23.0786 35.7798 23.0786C25.906 23.0786 16.0152 23.0786 6.14143 23.0786C2.3921 23.0786 0 25.4707 0 29.22C0 39.0429 0 48.8658 0 58.6887C0 62.1157 1.50991 64.0667 4.85207 64.9319C4.886 64.9489 4.91993 64.9658 4.95386 64.9998C19.8494 64.9998 34.7619 64.9998 49.6574 64.9998C50.0476 64.881 50.4378 64.7962 50.811 64.6605C53.0844 63.8461 54.6112 61.7594 54.6112 59.3334C54.6282 49.1372 54.6282 38.9411 54.6112 28.728C54.5943 25.5725 52.0664 23.0955 48.9109 23.0786ZM5.7173 30.9165C5.7173 29.5593 6.48074 28.7959 7.83796 28.7789C11.9436 28.7789 16.0492 28.7789 20.1378 28.7789C21.4441 28.7789 22.2245 29.5593 22.2245 30.8826C22.2245 33.2917 22.2245 35.7007 22.2245 38.1098C22.2245 39.4331 21.4441 40.1965 20.1378 40.2135C19.1029 40.2135 18.068 40.2135 17.0331 40.2135C15.9983 40.2135 14.9634 40.2135 13.9285 40.2135C12.9106 40.2135 11.8927 40.2135 10.8917 40.2135C9.87379 40.2135 8.85588 40.2135 7.85493 40.2135C6.4977 40.2135 5.73427 39.4331 5.73427 38.0759C5.7173 35.7007 5.7173 33.3086 5.7173 30.9165ZM7.61741 47.8479C8.24513 47.8309 8.88981 47.8479 9.51752 47.8479C10.1452 47.8479 10.7899 47.8309 11.4176 47.8479C12.5034 47.8818 13.3177 48.6961 13.3347 49.731C13.3517 50.7659 12.5373 51.6311 11.4516 51.6481C10.1622 51.682 8.87284 51.682 7.58348 51.6481C6.51467 51.6311 5.70033 50.7659 5.70033 49.731C5.7173 48.6961 6.5486 47.8818 7.61741 47.8479ZM22.0549 58.1119C21.6986 58.9092 21.0539 59.2655 20.1717 59.2655C18.102 59.2655 16.0322 59.2655 13.9624 59.2655C11.9266 59.2655 9.90773 59.2655 7.87189 59.2655C6.58253 59.2655 5.7173 58.5021 5.70033 57.3824C5.68337 56.2457 6.56556 55.4653 7.83796 55.4653C11.9605 55.4653 16.0831 55.4653 20.2057 55.4653C21.6816 55.4653 22.6317 56.8395 22.0549 58.1119ZM22.8692 51.6481C21.5968 51.6651 20.3414 51.6651 19.069 51.6481C17.9832 51.6311 17.1689 50.7998 17.1519 49.7649C17.1349 48.7131 17.9662 47.8648 19.0859 47.8309C19.2386 47.8309 19.4083 47.8309 19.561 47.8309C20.036 47.8309 20.511 47.8309 20.9861 47.8309C21.4611 47.8309 21.9361 47.8139 22.4111 47.8309C22.5638 47.8309 22.7335 47.8309 22.8862 47.8479C23.955 47.8818 24.7693 48.7131 24.7693 49.748C24.7523 50.7998 23.938 51.6311 22.8692 51.6481ZM34.3377 51.6481C33.6761 51.682 33.0314 51.6481 32.3698 51.6481C31.742 51.6481 31.0974 51.6651 30.4696 51.6481C29.4008 51.6142 28.5695 50.7998 28.5695 49.7649C28.5695 48.7301 29.3839 47.8818 30.4527 47.8479C31.742 47.8309 33.0314 47.8139 34.3208 47.8479C35.3896 47.8648 36.2039 48.7301 36.1869 49.7649C36.1869 50.7829 35.3726 51.5972 34.3377 51.6481ZM46.7902 40.2135C46.2983 40.2135 45.7893 40.2135 45.2973 40.2135C44.8053 40.2135 44.2964 40.2135 43.8044 40.2135C43.2954 40.2135 42.7864 40.2135 42.2775 40.2135C41.7685 40.2135 41.2596 40.2135 40.7506 40.2135C39.563 40.1965 38.7148 39.4161 38.7148 38.3303C38.6978 37.2276 39.563 36.4133 40.7845 36.4133C42.7864 36.4133 44.7883 36.4133 46.8072 36.4133C48.0287 36.4133 48.8939 37.2106 48.877 38.3303C48.877 39.4331 48.0287 40.2135 46.7902 40.2135ZM46.909 32.5961C45.8741 32.613 44.8392 32.5961 43.8044 32.5961C42.7864 32.5961 41.7855 32.5961 40.7676 32.5961C39.597 32.5791 38.7487 31.7817 38.7317 30.696C38.7317 29.6102 39.58 28.7959 40.7336 28.7789C42.7864 28.7619 44.8223 28.7619 46.8751 28.7789C48.0457 28.7789 48.8939 29.6102 48.877 30.696C48.877 31.7817 48.0457 32.5791 46.909 32.5961Z" fill="#1A202E"/>
<path d="M64.9427 34.1573C63.9587 30.4419 62.9748 26.7265 61.9738 23.0111C61.6684 21.8574 61.3461 20.7038 61.0407 19.5332C58.9031 20.11 56.8673 20.6529 54.8145 21.2128C54.8314 21.2976 54.8314 21.3146 54.8484 21.3315C54.8993 21.3994 54.9502 21.4672 55.018 21.5181C57.3423 23.554 58.445 26.1157 58.4281 29.2034C58.4111 32.9867 58.4281 36.7869 58.4281 40.5702C58.4281 40.7907 58.4281 41.0112 58.4281 41.3166C59.4969 40.9943 60.4978 40.7907 61.4309 40.4175C63.1783 39.7389 64.2811 38.4325 64.807 36.6342C64.8749 36.3967 64.9597 36.1592 65.0275 35.9047C65.0275 35.3618 65.0275 34.802 65.0275 34.2591C64.9936 34.2251 64.9427 34.1912 64.9427 34.1573Z" fill="#1A202E"/>
<path d="M10.875 40.2305C11.8929 40.2305 12.9108 40.2305 13.9118 40.2305C14.9467 40.2305 15.9816 40.2305 17.0164 40.2305C15.9816 40.2305 14.9467 40.2305 13.9118 40.2305C12.9108 40.2135 11.8929 40.2135 10.875 40.2305Z" fill="white"/>
<path d="M7.88867 59.2656C9.92451 59.2656 11.9434 59.2656 13.9792 59.2656C16.049 59.2656 18.1187 59.2656 20.1885 59.2656C18.1187 59.2656 16.049 59.2656 13.9792 59.2656C11.9434 59.2656 9.90754 59.2826 7.88867 59.2656Z" fill="white"/>
<path d="M43.8044 32.5962C42.7864 32.5962 41.7855 32.5962 40.7676 32.5962C41.7855 32.6132 42.8034 32.5962 43.8044 32.5962C44.8392 32.5962 45.8741 32.6132 46.909 32.5962C45.8741 32.6132 44.8392 32.5962 43.8044 32.5962Z" fill="white"/>
<path d="M32.3864 51.6484C31.7587 51.6484 31.114 51.6654 30.4863 51.6484C31.114 51.6654 31.7418 51.6484 32.3864 51.6484C33.0481 51.6484 33.6928 51.6654 34.3544 51.6484C33.6928 51.6654 33.0311 51.6484 32.3864 51.6484Z" fill="white"/>
<path d="M17.2203 19.2616C17.6784 19.2616 18.1534 19.1937 18.5945 19.075C29.2827 16.2248 39.9708 13.3577 50.6589 10.4906C53.1019 9.82891 55.5449 9.16726 58.0897 8.48865C57.7165 7.13142 57.3772 5.84206 57.0379 4.56967C56.0878 1.00696 53.1019 -0.68957 49.5392 0.260486C39.5127 2.95797 29.4693 5.65545 19.4258 8.33596C15.6765 9.33691 11.9272 10.3379 8.17784 11.3558C4.80175 12.2719 3.05433 16.0552 4.54727 19.2616C8.75466 19.2616 12.996 19.2616 17.2203 19.2616Z" fill="#1A202E"/>
<path d="M33.3034 19.2614C37.8671 19.2614 42.4477 19.2614 47.0114 19.2614C47.215 19.2614 47.4355 19.2275 47.6391 19.1766C51.575 18.1247 55.511 17.0729 59.4469 16.0041C59.6335 15.9532 59.8371 15.8853 60.0237 15.8175C59.7014 14.596 59.3791 13.4254 59.0398 12.1699C50.3196 14.5111 41.6503 16.8354 32.998 19.1427C33.1507 19.2444 33.2356 19.2614 33.3034 19.2614Z" fill="#1A202E"/>
<path d="M18.4073 32.647C15.4553 32.647 12.5203 32.647 9.56836 32.647C9.56836 33.9024 9.56836 35.1409 9.56836 36.3624C12.5373 36.3624 15.4553 36.3624 18.4073 36.3624C18.4073 35.1069 18.4073 33.9024 18.4073 32.647Z" fill="#1A202E"/>
</svg>
