<svg width="20" height="24" viewBox="0 0 20 24" fill="none" xmlns="http://www.w3.org/2000/svg">
<path d="M5.87329 18.6349C6.10662 18.5119 6.36162 18.3919 6.63829 18.2779C6.40457 18.5915 6.15428 18.8949 5.88829 19.1869C5.42162 19.6924 5.05829 19.9609 4.82996 20.0449C4.811 20.0521 4.79151 20.0582 4.77162 20.0629C4.75499 20.0422 4.74048 20.0201 4.72829 19.9969C4.63496 19.8319 4.63829 19.6729 4.79496 19.4569C4.97162 19.2094 5.32662 18.9259 5.87329 18.6349ZM9.96496 16.1644C9.76662 16.2019 9.56996 16.2394 9.37162 16.2814C9.66539 15.7634 9.94327 15.2382 10.205 14.7064C10.4684 15.1458 10.752 15.5752 11.055 15.9934C10.6933 16.0414 10.3283 16.0984 9.96496 16.1644ZM14.1733 17.5729C13.9144 17.385 13.672 17.1794 13.4483 16.9579C13.8283 16.9654 14.1716 16.9909 14.4683 17.0389C14.9966 17.1244 15.245 17.2594 15.3316 17.3524C15.3589 17.3784 15.3744 17.4127 15.375 17.4484C15.3691 17.5543 15.3348 17.6572 15.275 17.7484C15.2413 17.8215 15.1874 17.8856 15.1183 17.9344C15.0839 17.9534 15.0433 17.9614 15.0033 17.9569C14.8533 17.9524 14.5733 17.8579 14.1733 17.5729ZM10.465 10.4539C10.3983 10.8199 10.285 11.2399 10.1316 11.6974C10.0751 11.5261 10.0256 11.353 9.98329 11.1784C9.85662 10.6489 9.83829 10.2334 9.90662 9.94544C9.96996 9.67994 10.09 9.57344 10.2333 9.52094C10.3102 9.49044 10.3916 9.47023 10.475 9.46094C10.4966 9.50594 10.5216 9.59894 10.5283 9.75794C10.5366 9.94094 10.5166 10.1734 10.465 10.4554V10.4539Z" fill="#0E918C"/>
<path fill-rule="evenodd" clip-rule="evenodd" d="M3.33333 0H12.155C12.597 8.49561e-05 13.0208 0.158176 13.3333 0.4395L19.5117 6C19.8242 6.28124 19.9999 6.66271 20 7.0605V21C20 21.7956 19.6488 22.5587 19.0237 23.1213C18.3986 23.6839 17.5507 24 16.6667 24H3.33333C2.44928 24 1.60143 23.6839 0.976311 23.1213C0.351189 22.5587 0 21.7956 0 21V3C0 2.20435 0.351189 1.44129 0.976311 0.87868C1.60143 0.316071 2.44928 0 3.33333 0V0ZM12.5 2.25V5.25C12.5 5.64782 12.6756 6.02936 12.9882 6.31066C13.3007 6.59196 13.7246 6.75 14.1667 6.75H17.5L12.5 2.25ZM3.60833 20.502C3.75833 20.772 3.99167 21.0165 4.33833 21.1305C4.68333 21.243 5.025 21.1905 5.305 21.0855C5.835 20.8905 6.36333 20.4315 6.84833 19.9065C7.40333 19.305 7.98667 18.516 8.55 17.6415C9.63755 17.3514 10.7513 17.1476 11.8783 17.0325C12.3783 17.607 12.895 18.102 13.395 18.4575C13.8617 18.7875 14.4 19.062 14.9517 19.083C15.2522 19.0964 15.5497 19.0239 15.8017 18.876C16.06 18.7245 16.2517 18.5055 16.3917 18.252C16.5417 17.9805 16.6333 17.697 16.6217 17.4075C16.6111 17.1221 16.4936 16.8482 16.2883 16.6305C15.9117 16.2255 15.295 16.0305 14.6883 15.933C13.9524 15.8304 13.2057 15.8052 12.4633 15.858C11.8364 15.0604 11.2898 14.214 10.83 13.329C11.2467 12.339 11.5583 11.403 11.6967 10.638C11.7567 10.311 11.7883 9.999 11.7767 9.717C11.7746 9.43708 11.7022 9.1612 11.565 8.91C11.4859 8.77137 11.3736 8.65031 11.2361 8.55561C11.0986 8.46091 10.9394 8.39495 10.77 8.3625C10.4333 8.298 10.0867 8.3625 9.76833 8.478C9.14 8.703 8.80833 9.183 8.68333 9.7125C8.56167 10.2225 8.61667 10.8165 8.76 11.4165C8.90667 12.0255 9.15667 12.6885 9.47667 13.359C8.96481 14.5047 8.37365 15.6204 7.70667 16.6995C6.84774 16.9427 6.0198 17.267 5.23667 17.667C4.62 17.997 4.07167 18.387 3.74167 18.8475C3.39167 19.3365 3.28333 19.9185 3.60833 20.502Z" fill="#0E918C"/>
</svg>
