<svg width="21" height="25" viewBox="0 0 21 25" fill="none" xmlns="http://www.w3.org/2000/svg">
<path d="M6.16607 19.4114C6.41107 19.2833 6.67882 19.1583 6.96932 19.0395C6.72392 19.3662 6.46112 19.6822 6.18183 19.9864C5.69183 20.513 5.31033 20.7926 5.07058 20.8801C5.05067 20.8877 5.0302 20.8939 5.00933 20.8989C4.99186 20.8773 4.97663 20.8542 4.96383 20.8301C4.86583 20.6583 4.86933 20.4926 5.03383 20.2676C5.21933 20.0098 5.59207 19.7145 6.16607 19.4114ZM10.4623 16.838C10.2541 16.877 10.0476 16.9161 9.83932 16.9598C10.1478 16.4202 10.4396 15.8731 10.7143 15.3192C10.991 15.7769 11.2887 16.2242 11.6068 16.6598C11.2271 16.7098 10.8438 16.7692 10.4623 16.838ZM14.8811 18.3051C14.6093 18.1094 14.3548 17.8952 14.1198 17.6645C14.5188 17.6723 14.8793 17.6989 15.1908 17.7489C15.7456 17.838 16.0063 17.9786 16.0973 18.0755C16.126 18.1025 16.1422 18.1382 16.1428 18.1755C16.1367 18.2857 16.1007 18.3929 16.0378 18.488C16.0025 18.5641 15.9459 18.6308 15.8733 18.6817C15.8372 18.7015 15.7946 18.7098 15.7526 18.7051C15.5951 18.7005 15.3011 18.602 14.8811 18.3051ZM10.9873 10.8895C10.9173 11.2708 10.7983 11.7083 10.6373 12.1848C10.578 12.0064 10.5261 11.8261 10.4816 11.6442C10.3486 11.0926 10.3293 10.6598 10.4011 10.3598C10.4676 10.0833 10.5936 9.97233 10.7441 9.91764C10.8248 9.88588 10.9103 9.86482 10.9978 9.85514C11.0206 9.90202 11.0468 9.99889 11.0538 10.1645C11.0626 10.3551 11.0416 10.5973 10.9873 10.8911V10.8895Z" fill="#0E918C"/>
<path fill-rule="evenodd" clip-rule="evenodd" d="M3.5 0H12.7628C13.2268 8.84959e-05 13.6719 0.164767 14 0.457813L20.4872 6.25C20.8155 6.54296 20.9999 6.94032 21 7.35469V21.875C21 22.7038 20.6313 23.4987 19.9749 24.0847C19.3185 24.6708 18.4283 25 17.5 25H3.5C2.57174 25 1.6815 24.6708 1.02513 24.0847C0.368749 23.4987 0 22.7038 0 21.875V3.125C0 2.2962 0.368749 1.50134 1.02513 0.915291C1.6815 0.32924 2.57174 0 3.5 0V0ZM13.125 2.34375V5.46875C13.125 5.88315 13.3094 6.28058 13.6376 6.5736C13.9658 6.86663 14.4109 7.03125 14.875 7.03125H18.375L13.125 2.34375ZM3.78875 21.3563C3.94625 21.6375 4.19125 21.8922 4.55525 22.0109C4.9175 22.1281 5.27625 22.0734 5.57025 21.9641C6.12675 21.7609 6.6815 21.2828 7.19075 20.7359C7.7735 20.1094 8.386 19.2875 8.9775 18.3766C10.1194 18.0744 11.2888 17.8621 12.4722 17.7422C12.9972 18.3406 13.5397 18.8563 14.0647 19.2266C14.5547 19.5703 15.12 19.8563 15.6992 19.8781C16.0148 19.8921 16.3272 19.8166 16.5917 19.6625C16.863 19.5047 17.0643 19.2766 17.2113 19.0125C17.3687 18.7297 17.465 18.4344 17.4527 18.1328C17.4417 17.8355 17.3183 17.5503 17.1027 17.3234C16.7072 16.9016 16.0597 16.6984 15.4227 16.5969C14.65 16.49 13.866 16.4638 13.0865 16.5187C12.4283 15.6879 11.8543 14.8063 11.3715 13.8844C11.809 12.8531 12.1362 11.8781 12.2815 11.0813C12.3445 10.7406 12.3778 10.4156 12.3655 10.1219C12.3633 9.83029 12.2873 9.54292 12.1433 9.28125C12.0602 9.13684 11.9422 9.01074 11.7979 8.91209C11.6535 8.81345 11.4863 8.74474 11.3085 8.71094C10.955 8.64375 10.591 8.71094 10.2568 8.83125C9.597 9.06563 9.24875 9.56563 9.1175 10.1172C8.98975 10.6484 9.0475 11.2672 9.198 11.8922C9.352 12.5266 9.6145 13.2172 9.9505 13.9156C9.41305 15.1091 8.79233 16.2712 8.092 17.3953C7.19012 17.6487 6.32079 17.9865 5.4985 18.4031C4.851 18.7469 4.27525 19.1531 3.92875 19.6328C3.56125 20.1422 3.4475 20.7484 3.78875 21.3563Z" fill="#0E918C"/>
</svg>
