<svg width="24" height="24" viewBox="0 0 24 24" fill="none" xmlns="http://www.w3.org/2000/svg">
<circle opacity="0.51" cx="12" cy="12" r="12" fill="#1A202E"/>
<path d="M17.6283 14.547L15.6487 14.321C15.1733 14.2665 14.7057 14.4301 14.3706 14.7653L12.9366 16.1993C10.7311 15.077 8.92298 13.2767 7.80072 11.0633L9.24251 9.62155C9.57763 9.28643 9.74129 8.81882 9.68673 8.34341L9.46072 6.37945C9.3672 5.59231 8.70476 5 7.90983 5H6.56156C5.68089 5 4.94831 5.73259 5.00286 6.61326C5.41592 13.2689 10.7389 18.5841 17.3867 18.9971C18.2673 19.0517 18.9999 18.3191 18.9999 17.4384V16.0902C19.0077 15.303 18.4154 14.6406 17.6283 14.547Z" fill="white"/>
</svg>
