<svg width="30" height="30" viewBox="0 0 30 30" fill="none" xmlns="http://www.w3.org/2000/svg">
<path d="M6.86914 0C12.2991 0 17.7291 0 23.1691 0C23.1591 0.12 23.1491 0.24 23.1491 0.37C23.1491 4.95 23.1491 9.53 23.1491 14.11C23.1491 14.23 23.1491 14.35 23.1491 14.45C18.6791 14.54 15.8491 16.7 14.5891 20.96C12.0391 20.96 9.46914 20.96 6.86914 20.96C6.86914 20.85 6.86914 20.74 6.86914 20.64C6.86914 19.15 6.86914 17.65 6.86914 16.16C6.86914 10.77 6.86914 5.39 6.86914 0ZM19.6291 10.39C19.6291 9.82 19.6291 9.27 19.6291 8.72C16.4491 8.72 13.2891 8.72 10.1291 8.72C10.1291 9.29 10.1291 9.83 10.1291 10.39C13.2991 10.39 16.4491 10.39 19.6291 10.39ZM17.7091 5.03C15.8091 5.03 13.9291 5.03 12.0491 5.03C12.0491 5.59 12.0491 6.14 12.0491 6.7C13.9391 6.7 15.8191 6.7 17.7091 6.7C17.7091 6.13 17.7091 5.59 17.7091 5.03Z" fill="url(#paint0_linear_2_14259)"/>
<path d="M5.16078 0C5.16078 0.1 5.17078 0.21 5.17078 0.31C5.17078 7.06 5.17078 13.82 5.17078 20.57C5.17078 20.69 5.17078 20.81 5.17078 20.96C4.65078 20.96 4.16078 20.98 3.67078 20.96C2.36078 20.91 1.16078 21.23 0.130783 22.08C0.120783 22.09 0.100781 22.09 0.0507812 22.09C0.0507812 21.99 0.0507812 21.89 0.0507812 21.79C0.0507812 15.83 0.0507812 9.87 0.0507812 3.91C0.0507812 1.87 1.24078 0.43 3.24078 0.04C3.28078 0.03 3.31078 0.01 3.34078 0C3.95078 0 4.56078 0 5.16078 0Z" fill="url(#paint1_linear_2_14259)"/>
<path d="M0 25.4399C0.13 25.0599 0.209996 24.6499 0.409996 24.2999C1.01 23.2099 1.97 22.6199 3.21 22.6199C6.91 22.5999 10.61 22.6099 14.31 22.6099C14.36 22.6099 14.4 22.6199 14.42 22.6199C14.54 23.4099 14.66 24.1799 14.78 24.9799C11.35 24.9799 7.88 24.9799 4.39 24.9799C4.39 25.5599 4.39 26.1099 4.39 26.6899C4.5 26.6899 4.60999 26.6899 4.71999 26.6899C8.24999 26.6899 11.78 26.6899 15.31 26.6899C15.52 26.6899 15.63 26.7499 15.74 26.9299C16.24 27.7399 16.88 28.4299 17.67 29.0599C17.56 29.0699 17.49 29.0899 17.42 29.0899C12.69 29.0899 7.95999 29.0899 3.21999 29.0899C1.63999 29.0899 0.329995 27.9699 0.0499954 26.4099C0.0399954 26.3599 0.02 26.2999 0 26.2499C0 25.9699 0 25.7099 0 25.4399Z" fill="url(#paint2_linear_2_14259)"/>
<path d="M16.1191 22.5999C16.1191 19.0299 19.0291 16.1299 22.6091 16.1299C26.1691 16.1399 29.0691 19.0399 29.0591 22.6099C29.0591 26.1799 26.1391 29.0899 22.5691 29.0799C19.0191 29.0699 16.1191 26.1599 16.1191 22.5999ZM21.7591 25.8999C22.3291 25.8999 22.8791 25.8999 23.4291 25.8999C23.4291 24.4399 23.4291 23.0099 23.4291 21.5899C22.8591 21.5899 22.3191 21.5899 21.7591 21.5899C21.7591 23.0299 21.7591 24.4499 21.7591 25.8999ZM22.6291 18.7299C22.1691 18.7199 21.7591 19.0799 21.7391 19.5099C21.7191 19.9899 22.0891 20.4099 22.5491 20.4299C22.9991 20.4499 23.4291 20.0499 23.4391 19.6199C23.4491 19.1499 23.0791 18.7499 22.6291 18.7299Z" fill="url(#paint3_linear_2_14259)"/>
<defs>
<linearGradient id="paint0_linear_2_14259" x1="8.62224" y1="0" x2="28.6619" y2="0" gradientUnits="userSpaceOnUse">
<stop stop-color="#2CB764"/>
<stop offset="1" stop-color="#0E918C"/>
</linearGradient>
<linearGradient id="paint1_linear_2_14259" x1="0.601448" y1="0" x2="6.89612" y2="0" gradientUnits="userSpaceOnUse">
<stop stop-color="#2CB764"/>
<stop offset="1" stop-color="#0E918C"/>
</linearGradient>
<linearGradient id="paint2_linear_2_14259" x1="1.90045" y1="22.6074" x2="23.6244" y2="22.6074" gradientUnits="userSpaceOnUse">
<stop stop-color="#2CB764"/>
<stop offset="1" stop-color="#0E918C"/>
</linearGradient>
<linearGradient id="paint3_linear_2_14259" x1="17.5109" y1="16.1299" x2="33.4197" y2="16.1299" gradientUnits="userSpaceOnUse">
<stop stop-color="#2CB764"/>
<stop offset="1" stop-color="#0E918C"/>
</linearGradient>
</defs>
</svg>
