<svg width="29" height="30" viewBox="0 0 29 30" fill="none" xmlns="http://www.w3.org/2000/svg">
<path d="M4.57151 29.7203C4.52151 29.5803 4.42151 29.4503 4.42151 29.3103C4.40151 28.5403 4.4115 27.7603 4.4015 26.9903C4.4015 26.8203 4.35151 26.6403 4.28151 26.5003C3.31151 24.6403 2.37151 22.7703 1.35151 20.9403C0.811506 19.9603 0.571506 18.9503 0.511506 17.8503C0.371506 15.1303 0.171506 12.4103 0.0115057 9.68028C-0.00849429 9.39028 -0.00849124 9.09028 0.0615088 8.82028C0.221509 8.18028 0.831505 7.75028 1.49151 7.78028C2.13151 7.80028 2.69151 8.27028 2.79151 8.94028C2.93151 9.91028 3.02151 10.8803 3.13151 11.8503C3.36151 13.9403 3.58151 16.0403 3.83151 18.1303C3.88151 18.5103 4.01151 18.9303 4.24151 19.2303C5.06151 20.3203 5.93151 21.3703 6.83151 22.4003C6.63151 21.7003 6.44151 21.0003 6.24151 20.3003C5.95151 19.2803 5.65151 18.2603 5.38151 17.2303C5.03151 15.9003 6.21151 14.7203 7.52151 15.1003C7.66151 15.1403 7.83151 15.2803 7.88151 15.4203C9.03151 18.3603 10.1915 21.3003 11.3115 24.2503C11.4815 24.6903 11.4915 25.2003 11.5515 25.6703C11.7215 26.8803 11.8815 28.0803 12.0415 29.2903C12.0615 29.4303 11.9915 29.5803 11.9715 29.7203C9.49151 29.7203 7.03151 29.7203 4.57151 29.7203Z" fill="url(#paint0_linear_2_14247)"/>
<path d="M16.9408 29.72C16.9108 29.6 16.8308 29.48 16.8508 29.37C17.0508 27.81 17.2608 26.25 17.4908 24.69C17.5408 24.35 17.6808 24.02 17.8108 23.7C18.8708 20.95 19.9408 18.21 20.9908 15.46C21.0808 15.24 21.2008 15.12 21.4308 15.06C22.7308 14.75 23.8708 15.91 23.5208 17.22C23.0808 18.86 22.6008 20.49 22.1408 22.13C22.1108 22.22 22.0908 22.31 22.1008 22.42C22.2308 22.26 22.3608 22.1 22.5008 21.93C23.1308 21.15 23.7608 20.36 24.4008 19.59C24.8308 19.07 25.0508 18.49 25.1208 17.82C25.4308 14.91 25.7508 12 26.0608 9.07998C26.1508 8.25998 26.7808 7.70999 27.5708 7.75999C28.3108 7.79999 28.9308 8.46999 28.8908 9.25999C28.8308 10.64 28.7308 12.02 28.6408 13.4C28.5308 15.1 28.4108 16.8 28.3208 18.5C28.2808 19.15 28.1308 19.75 27.8308 20.33C26.7508 22.38 25.6708 24.43 24.6008 26.49C24.5308 26.63 24.4908 26.8 24.4808 26.95C24.4608 27.73 24.4708 28.52 24.4508 29.3C24.4508 29.44 24.3508 29.57 24.3008 29.71C21.8508 29.72 19.4008 29.72 16.9408 29.72Z" fill="url(#paint1_linear_2_14247)"/>
<path d="M11.4323 10.1999C11.4523 9.87988 11.4823 9.57988 11.5023 9.26988C11.0923 9.29988 10.7623 9.46988 10.5423 9.73988C10.2023 10.1699 9.91227 10.6399 9.63227 11.0999C9.48227 11.3399 9.39227 11.6099 9.25227 11.8499C8.98227 12.3099 8.42227 12.4899 7.94227 12.2799C7.47227 12.0799 7.16227 11.5299 7.33227 11.0399C8.20227 8.58988 9.73227 6.82988 12.3623 6.21988C12.4923 6.18988 12.6323 6.15988 12.7623 6.15988C13.8623 6.15988 14.9723 6.10988 16.0723 6.17988C17.5923 6.27988 18.8123 7.04988 19.8523 8.12988C20.6023 8.91988 21.1223 9.84988 21.4923 10.8699C21.7023 11.4599 21.4623 12.0599 20.9323 12.2799C20.3923 12.5099 19.8223 12.2699 19.5323 11.6999C19.3123 11.2599 19.0923 10.8199 18.8523 10.3899C18.5823 9.91988 18.2323 9.51988 17.7123 9.31988C17.6123 9.27988 17.5123 9.26988 17.3723 9.22988C17.3923 9.56988 17.4123 9.86988 17.4323 10.1899C15.4323 10.1999 13.4523 10.1999 11.4323 10.1999Z" fill="url(#paint2_linear_2_14247)"/>
<path d="M14.3416 14.2002C14.0416 14.7002 13.7616 15.1502 13.4916 15.6102C13.3816 15.8102 13.2416 15.8702 13.0116 15.8302C12.0116 15.6502 11.0116 15.4802 10.0116 15.3202C9.76162 15.2802 9.65162 15.1702 9.69162 14.9102C9.85162 13.8402 10.1616 12.8402 10.8516 11.9802C10.9116 11.9102 10.9316 11.8102 10.9516 11.7202C10.9916 11.4702 11.0116 11.2202 11.0416 10.9702C11.0616 10.7802 11.1616 10.6802 11.3716 10.6802C13.3716 10.6802 15.3716 10.6802 17.3816 10.6802C17.5816 10.6802 17.7016 10.7602 17.7116 10.9602C17.7416 11.5602 17.9816 12.0502 18.3116 12.5502C18.7816 13.2602 18.9816 14.0802 19.0916 14.9202C19.1216 15.1402 19.0316 15.2702 18.8116 15.3102C17.7816 15.4802 16.7516 15.6602 15.7216 15.8302C15.5216 15.8602 15.4216 15.7802 15.3216 15.6302C15.0016 15.1602 14.6816 14.7002 14.3416 14.2002Z" fill="url(#paint3_linear_2_14247)"/>
<path d="M11.5821 2.79006C11.5721 1.26006 12.8021 0.0100605 14.3221 6.0545e-05C15.8621 -0.00993945 17.1121 1.22006 17.1221 2.76006C17.1321 4.30006 15.8821 5.56006 14.3521 5.56006C12.8321 5.56006 11.5921 4.32006 11.5821 2.79006Z" fill="url(#paint4_linear_2_14247)"/>
<path d="M18.7925 15.7803C18.7125 16.2403 18.6725 16.6503 18.5525 17.0403C18.3825 17.5703 18.1725 18.0903 17.9225 18.5903C17.6325 19.1803 17.0025 19.3703 16.4525 19.0803C15.9125 18.8003 15.7525 18.2203 15.9725 17.6203C16.1325 17.1703 16.2025 16.6903 16.3225 16.1903C17.0825 16.0703 17.8925 15.9303 18.7925 15.7803Z" fill="url(#paint5_linear_2_14247)"/>
<path d="M10.1523 15.8101C10.7823 15.9201 11.3623 16.0101 11.9323 16.1101C12.1723 16.1501 12.4923 16.1401 12.6423 16.2901C12.7723 16.4301 12.7123 16.7501 12.7623 16.9801C12.8123 17.2201 12.8723 17.4701 12.9623 17.7001C13.1723 18.2501 12.9823 18.8101 12.4923 19.0701C12.0023 19.3301 11.3823 19.2001 11.0823 18.7301C10.5223 17.8701 10.2523 16.9001 10.1523 15.8101Z" fill="url(#paint6_linear_2_14247)"/>
<defs>
<linearGradient id="paint0_linear_2_14247" x1="0" y1="7.77881" x2="15.1852" y2="10.2246" gradientUnits="userSpaceOnUse">
<stop stop-color="#F6460F"/>
<stop offset="1" stop-color="#FE2B5E"/>
</linearGradient>
<linearGradient id="paint1_linear_2_14247" x1="16.8477" y1="7.75684" x2="32.0335" y2="10.2004" gradientUnits="userSpaceOnUse">
<stop stop-color="#F6460F"/>
<stop offset="1" stop-color="#FE2B5E"/>
</linearGradient>
<linearGradient id="paint2_linear_2_14247" x1="7.28516" y1="6.14258" x2="19.9967" y2="14.7007" gradientUnits="userSpaceOnUse">
<stop stop-color="#F6460F"/>
<stop offset="1" stop-color="#FE2B5E"/>
</linearGradient>
<linearGradient id="paint3_linear_2_14247" x1="9.68359" y1="10.6802" x2="19.149" y2="15.7451" gradientUnits="userSpaceOnUse">
<stop stop-color="#F6460F"/>
<stop offset="1" stop-color="#FE2B5E"/>
</linearGradient>
<linearGradient id="paint4_linear_2_14247" x1="11.582" y1="0" x2="18.1834" y2="1.92992" gradientUnits="userSpaceOnUse">
<stop stop-color="#F6460F"/>
<stop offset="1" stop-color="#FE2B5E"/>
</linearGradient>
<linearGradient id="paint5_linear_2_14247" x1="15.877" y1="15.7803" x2="19.4275" y2="16.6648" gradientUnits="userSpaceOnUse">
<stop stop-color="#F6460F"/>
<stop offset="1" stop-color="#FE2B5E"/>
</linearGradient>
<linearGradient id="paint6_linear_2_14247" x1="10.1523" y1="15.8101" x2="13.6754" y2="16.6922" gradientUnits="userSpaceOnUse">
<stop stop-color="#F6460F"/>
<stop offset="1" stop-color="#FE2B5E"/>
</linearGradient>
</defs>
</svg>
