<svg width="79" height="79" viewBox="0 0 79 79" fill="none" xmlns="http://www.w3.org/2000/svg">
<g filter="url(#filter0_d_1_18415)">
<circle cx="38.5" cy="38.5" r="32.5" fill="white"/>
<circle cx="38.5" cy="38.5" r="33.5" stroke="url(#paint0_linear_1_18415)" stroke-width="2"/>
</g>
<path d="M32.4065 52.286V44.4998H39.4211V50.6305L32.4065 52.286Z" fill="#5C381A"/>
<path d="M22.3752 22.0811H56.5784V39.7718H22.3752V22.0811Z" fill="#62AF89"/>
<path d="M50.0826 24.4239C49.275 24.4352 48.4883 24.6825 47.8196 25.1353C47.1508 25.5882 46.6292 26.2268 46.319 26.9725C46.0088 27.7182 45.9235 28.5384 46.0738 29.332C46.224 30.1256 46.6032 30.8578 47.1645 31.4385L50.0826 28.6327V24.4239Z" fill="#ED9E21"/>
<path d="M22.3752 39.7716H56.5784V42.1285H22.3752V39.7716Z" fill="#A4622D"/>
<path d="M22.3752 38.5932H56.5784V39.7717H22.3752V38.5932Z" fill="#5BA07D"/>
<path d="M34.1741 28.6328V33.2905H36.531V32.112H36.6853C36.9582 32.1083 37.2187 31.9973 37.4103 31.803C37.602 31.6088 37.7094 31.3468 37.7094 31.0739V28.6328H34.1741Z" fill="#FCCAA7"/>
<path d="M33.5706 27.4265C33.7533 27.0625 34.0339 26.7568 34.3809 26.5437C34.7279 26.3305 35.1274 26.2184 35.5347 26.2199H37.7092C38.0217 26.2199 38.3215 26.3441 38.5425 26.5651C38.7635 26.7861 38.8876 27.0859 38.8876 27.3984C38.8876 27.7109 38.7635 28.0107 38.5425 28.2317C38.3215 28.4527 38.0217 28.5768 37.7092 28.5768H35.3523L34.1738 30.3445L33.7109 29.629C33.4931 29.3078 33.3652 28.9342 33.3405 28.5469C33.3158 28.1596 33.3953 27.7727 33.5706 27.4265V27.4265Z" fill="#7B4A22"/>
<path d="M46.5618 29.7555C46.4441 29.7572 46.3285 29.7235 46.23 29.6589C46.1315 29.5943 46.0547 29.5016 46.0094 29.3929C45.9641 29.2842 45.9524 29.1644 45.9759 29.049C45.9993 28.9335 46.0568 28.8278 46.141 28.7454L47.9086 26.9777C48.0229 26.8712 48.1733 26.812 48.3295 26.812C48.4857 26.812 48.6361 26.8712 48.7504 26.9777C48.8592 27.0879 48.9202 27.2366 48.9202 27.3915C48.9202 27.5465 48.8592 27.6951 48.7504 27.8054L46.9827 29.5731C46.8719 29.6869 46.7207 29.7525 46.5618 29.7555V29.7555Z" fill="#7B4A22"/>
<path d="M26.5139 49.2134L23.8062 50.3638C23.3922 50.546 23.0382 50.8416 22.7851 51.2165C22.5319 51.5913 22.3898 52.0301 22.3752 52.4822V55.0495H32.9953V52.4822C32.9973 52.0228 32.8658 51.5727 32.6167 51.1866C32.3676 50.8006 32.0118 50.4952 31.5924 50.3076L28.8988 49.1572L26.5139 49.2134Z" fill="#91A667"/>
<path d="M27.6362 44.5C27.9516 44.4925 28.2653 44.5483 28.5587 44.6643C28.8521 44.7803 29.1192 44.9539 29.3443 45.175C29.5693 45.3962 29.7476 45.6602 29.8687 45.9515C29.9898 46.2428 30.0512 46.5555 30.0493 46.8709V47.4601C30.0475 47.7733 29.9833 48.0829 29.8606 48.3709C29.7378 48.659 29.5589 48.9196 29.3342 49.1378C29.1096 49.3559 28.8437 49.527 28.5522 49.6413C28.2606 49.7555 27.9493 49.8105 27.6362 49.803V49.803C27.0112 49.803 26.4117 49.5547 25.9697 49.1127C25.5277 48.6707 25.2793 48.0712 25.2793 47.4461V46.8709C25.2775 46.5602 25.3371 46.2522 25.4547 45.9647C25.5723 45.6771 25.7456 45.4156 25.9647 45.1953C26.1837 44.9749 26.4442 44.8001 26.731 44.6807C27.0179 44.5614 27.3255 44.5 27.6362 44.5V44.5Z" fill="#7B4A22"/>
<path d="M47.7403 49.2134L45.0467 50.3638C44.6273 50.5513 44.2714 50.8567 44.0224 51.2428C43.7733 51.6288 43.6418 52.0789 43.6438 52.5383V55.1056H54.2919V52.4822C54.2939 52.0228 54.1623 51.5727 53.9133 51.1866C53.6642 50.8006 53.3084 50.4952 52.889 50.3077L50.0832 49.2134H47.7403Z" fill="#EA2D2F"/>
<path d="M48.9182 44.4998C49.2289 44.4998 49.5365 44.5612 49.8234 44.6805C50.1102 44.7999 50.3707 44.9747 50.5897 45.1951C50.8088 45.4154 50.9821 45.6769 51.0997 45.9645C51.2173 46.252 51.2769 46.56 51.2751 46.8707V47.46C51.2751 48.085 51.0267 48.6845 50.5847 49.1265C50.1427 49.5685 49.5433 49.8169 48.9182 49.8169V49.8169C48.2931 49.8169 47.6936 49.5685 47.2516 49.1265C46.8096 48.6845 46.5613 48.085 46.5613 47.46V46.8707C46.5594 46.56 46.619 46.252 46.7366 45.9645C46.8542 45.6769 47.0276 45.4154 47.2466 45.1951C47.4656 44.9747 47.7261 44.7999 48.013 44.6805C48.2998 44.5612 48.6075 44.4998 48.9182 44.4998V44.4998Z" fill="#7B4A22"/>
<path d="M50.0829 24.4241V28.6329L47.1789 31.4387C47.6564 31.9249 48.247 32.2852 48.8978 32.4874C49.5486 32.6896 50.2394 32.7274 50.9084 32.5973C51.5773 32.4673 52.2037 32.1736 52.7314 31.7424C53.2591 31.3111 53.6717 30.7559 53.9324 30.1262C54.1931 29.4966 54.2937 28.8121 54.2252 28.1341C54.1567 27.456 53.9213 26.8055 53.54 26.2407C53.1587 25.6759 52.6434 25.2143 52.0401 24.8973C51.4368 24.5803 50.7644 24.4177 50.0829 24.4241V24.4241Z" fill="#A77029"/>
<path d="M48.3294 35.6474H47.7402C47.5839 35.6474 47.434 35.5853 47.3235 35.4748C47.213 35.3643 47.1509 35.2144 47.1509 35.0581C47.1509 34.9019 47.213 34.752 47.3235 34.6415C47.434 34.531 47.5839 34.4689 47.7402 34.4689H48.3294C48.4857 34.4689 48.6355 34.531 48.746 34.6415C48.8565 34.752 48.9186 34.9019 48.9186 35.0581C48.9186 35.2144 48.8565 35.3643 48.746 35.4748C48.6355 35.5853 48.4857 35.6474 48.3294 35.6474Z" fill="#DDDCD6"/>
<path d="M53.6317 35.6474H50.6856C50.5293 35.6474 50.3795 35.5853 50.269 35.4748C50.1585 35.3643 50.0964 35.2144 50.0964 35.0581C50.0964 34.9019 50.1585 34.752 50.269 34.6415C50.3795 34.531 50.5293 34.4689 50.6856 34.4689H53.6317C53.788 34.4689 53.9379 34.531 54.0484 34.6415C54.1589 34.752 54.221 34.9019 54.221 35.0581C54.221 35.2144 54.1589 35.3643 54.0484 35.4748C53.9379 35.5853 53.788 35.6474 53.6317 35.6474Z" fill="#DDDCD6"/>
<path d="M52.454 38.0037H47.7402C47.5839 38.0037 47.434 37.9417 47.3235 37.8312C47.213 37.7207 47.1509 37.5708 47.1509 37.4145C47.1509 37.2582 47.213 37.1084 47.3235 36.9979C47.434 36.8874 47.5839 36.8253 47.7402 36.8253H52.454C52.6102 36.8253 52.7601 36.8874 52.8706 36.9979C52.9811 37.1084 53.0432 37.2582 53.0432 37.4145C53.0432 37.5708 52.9811 37.7207 52.8706 37.8312C52.7601 37.9417 52.6102 38.0037 52.454 38.0037V38.0037Z" fill="#DDDCD6"/>
<path d="M40.6548 32.4347L45.9719 28.6328L47.7396 30.4005L42.7312 34.6934L40.6548 32.4347Z" fill="#FCCAA7"/>
<path d="M40.6552 32.4343L39.4767 33.2901H31.9571C31.2935 33.2938 30.6584 33.56 30.1905 34.0305C29.7225 34.5011 29.4599 35.1377 29.4599 35.8013V37.2042H32.406V44.5415H39.4206V37.5269L42.6754 34.721L40.6552 32.4343Z" fill="#95CFF1"/>
<path d="M34.7634 35.647H40.6556V40.3608H34.7634V35.647Z" fill="#2D70B8"/>
<path d="M29.4599 37.1623V40.2207C29.4599 40.7267 29.6609 41.212 30.0187 41.5698C30.3765 41.9276 30.8618 42.1286 31.3679 42.1286H35.9414V39.1825H32.406V37.1623H29.4599Z" fill="#FCCAA7"/>
<path d="M37.1198 49.2134L34.4262 50.3638C34.0068 50.5513 33.651 50.8567 33.4019 51.2427C33.1528 51.6288 33.0213 52.0789 33.0233 52.5383V55.1056H43.6434V52.4822C43.6453 52.0228 43.5138 51.5727 43.2647 51.1866C43.0157 50.8006 42.6598 50.4952 42.2404 50.3076L39.5328 49.1572L37.1198 49.2134Z" fill="#CBCBCB"/>
<path d="M38.2981 44.4998C38.6088 44.4998 38.9164 44.5612 39.2033 44.6805C39.4902 44.7999 39.7506 44.9747 39.9697 45.1951C40.1887 45.4154 40.362 45.6769 40.4796 45.9645C40.5973 46.252 40.6569 46.56 40.655 46.8707V47.46C40.655 48.085 40.4067 48.6845 39.9647 49.1265C39.5227 49.5685 38.9232 49.8169 38.2981 49.8169V49.8169C37.673 49.8169 37.0735 49.5685 36.6315 49.1265C36.1895 48.6845 35.9412 48.085 35.9412 47.46V46.8707C35.9394 46.56 35.999 46.252 36.1166 45.9645C36.2342 45.6769 36.4075 45.4154 36.6265 45.1951C36.8456 44.9747 37.106 44.7999 37.3929 44.6805C37.6798 44.5612 37.9874 44.4998 38.2981 44.4998V44.4998Z" fill="#ED9E21"/>
<path d="M25.3354 52.749C25.3354 52.5927 25.2733 52.4428 25.1628 52.3323C25.0523 52.2218 24.9024 52.1597 24.7461 52.1597C24.5899 52.1597 24.44 52.2218 24.3295 52.3323C24.219 52.4428 24.1569 52.5927 24.1569 52.749V55.1059H25.3354V52.749Z" fill="#778754"/>
<path d="M31.2278 52.749C31.2278 52.5927 31.1657 52.4428 31.0552 52.3323C30.9447 52.2218 30.7949 52.1597 30.6386 52.1597C30.4823 52.1597 30.3325 52.2218 30.222 52.3323C30.1115 52.4428 30.0494 52.5927 30.0494 52.749V55.1059H31.2278V52.749Z" fill="#778754"/>
<path d="M46.5613 52.749C46.5613 52.5927 46.4992 52.4428 46.3887 52.3323C46.2782 52.2218 46.1284 52.1597 45.9721 52.1597C45.8158 52.1597 45.666 52.2218 45.5555 52.3323C45.445 52.4428 45.3829 52.5927 45.3829 52.749V55.1059H46.5613V52.749Z" fill="#CB2628"/>
<path d="M52.4541 52.749C52.4541 52.5927 52.392 52.4428 52.2815 52.3323C52.171 52.2218 52.0211 52.1597 51.8649 52.1597C51.7086 52.1597 51.5587 52.2218 51.4482 52.3323C51.3377 52.4428 51.2756 52.5927 51.2756 52.749V55.1059H52.4541V52.749Z" fill="#CB2628"/>
<path d="M35.9418 52.749C35.9418 52.5927 35.8797 52.4428 35.7692 52.3323C35.6587 52.2218 35.5089 52.1597 35.3526 52.1597C35.1963 52.1597 35.0464 52.2218 34.9359 52.3323C34.8254 52.4428 34.7634 52.5927 34.7634 52.749V55.1059H35.9418V52.749Z" fill="#BABABA"/>
<path d="M41.8473 52.749C41.8254 52.6066 41.7532 52.4767 41.6439 52.3829C41.5345 52.2891 41.3952 52.2375 41.2511 52.2375C41.107 52.2375 40.9677 52.2891 40.8583 52.3829C40.7489 52.4767 40.6768 52.6066 40.6548 52.749V55.1059H41.8473V52.749Z" fill="#BABABA"/>
<path d="M32.4065 37.1623H32.9957V39.1825H32.4065V37.1623Z" fill="#69BCE9"/>
<path d="M32.4065 42.1289H35.9418V42.7321H32.4065V42.1289Z" fill="#69BCE9"/>
<path d="M35.9412 40.3607H39.4765V40.9499H35.9412V40.3607Z" fill="#69BCE9"/>
<path d="M37.1194 35.647H38.2979V40.3608H37.1194V35.647Z" fill="#6897D0"/>
<defs>
<filter id="filter0_d_1_18415" x="0" y="0" width="79" height="79" filterUnits="userSpaceOnUse" color-interpolation-filters="sRGB">
<feFlood flood-opacity="0" result="BackgroundImageFix"/>
<feColorMatrix in="SourceAlpha" type="matrix" values="0 0 0 0 0 0 0 0 0 0 0 0 0 0 0 0 0 0 127 0" result="hardAlpha"/>
<feMorphology radius="1" operator="dilate" in="SourceAlpha" result="effect1_dropShadow_1_18415"/>
<feOffset dx="1" dy="1"/>
<feGaussianBlur stdDeviation="2"/>
<feComposite in2="hardAlpha" operator="out"/>
<feColorMatrix type="matrix" values="0 0 0 0 0 0 0 0 0 0 0 0 0 0 0 0 0 0 0.25 0"/>
<feBlend mode="normal" in2="BackgroundImageFix" result="effect1_dropShadow_1_18415"/>
<feBlend mode="normal" in="SourceGraphic" in2="effect1_dropShadow_1_18415" result="shape"/>
</filter>
<linearGradient id="paint0_linear_1_18415" x1="6" y1="6" x2="83.4075" y2="28.7116" gradientUnits="userSpaceOnUse">
<stop stop-color="#F6830F"/>
<stop offset="1" stop-color="#F6C30F"/>
</linearGradient>
</defs>
</svg>
