<svg width="30" height="29" viewBox="0 0 30 29" fill="none" xmlns="http://www.w3.org/2000/svg">
<path d="M13.8518 0.208984C14.4327 0.208984 15.0136 0.208984 15.5844 0.208984C15.7447 0.228745 15.9149 0.268267 16.0752 0.268267C16.7462 0.297908 17.0967 0.63384 17.0567 1.29583C17.0567 1.36499 17.0567 1.44403 17.0667 1.51319C17.1669 3.14345 18.5289 4.41802 20.1915 4.39826C21.1129 4.38838 21.894 4.06233 22.5551 3.4201C22.9156 3.07429 23.3262 3.04465 23.6868 3.33118C24.518 3.99317 25.2692 4.73419 25.9302 5.56414C26.1505 5.84079 26.1706 6.16685 25.9903 6.46326C25.9001 6.62134 25.7499 6.74979 25.6297 6.87823C24.1675 8.45909 24.7884 11.0873 26.8215 11.8382C27.1921 11.9765 27.5927 12.0259 27.9933 12.0753C28.6243 12.1445 28.9147 12.4211 28.9748 13.0337C28.9848 13.2017 29.0149 13.3598 29.0349 13.5178C29.0349 14.0909 29.0349 14.664 29.0349 15.2271C28.9948 15.4939 28.9648 15.7508 28.9247 16.0176C28.8647 16.393 28.5542 16.6598 28.1736 16.6796C27.9733 16.6894 27.783 16.6993 27.5827 16.7092C25.6498 16.8772 24.3177 18.8137 24.8686 20.6515C25.0388 21.2245 25.3593 21.6988 25.78 22.1138C26.1004 22.4398 26.1405 22.8548 25.8801 23.1907C25.1991 24.0404 24.4279 24.7913 23.5566 25.4632C23.2461 25.7003 22.8355 25.6806 22.525 25.4237C22.4148 25.3348 22.3147 25.236 22.2145 25.147C21.3031 24.3467 19.8009 24.1392 18.7292 24.6827C17.6376 25.236 17.0467 26.1351 16.9766 27.3504C16.9265 28.1803 16.7162 28.4174 15.8749 28.4372C15.0336 28.457 14.2023 28.4471 13.3611 28.4372C12.6199 28.4273 12.2894 28.0815 12.3195 27.38C12.3195 27.3207 12.3195 27.2516 12.3095 27.1824C12.2193 25.7497 11.1477 24.5542 9.7055 24.3368C8.61384 24.1689 7.66239 24.4851 6.86117 25.2458C6.43051 25.6509 6.00987 25.6806 5.57922 25.2755C4.86814 24.6036 4.17708 23.9021 3.50606 23.1907C3.16554 22.835 3.20561 22.4201 3.53611 22.0545C3.5962 21.9952 3.64628 21.9359 3.70637 21.8668C4.53763 20.9281 4.78801 19.861 4.36737 18.6853C3.96676 17.5688 3.1355 16.8969 1.94368 16.6697C1.68329 16.6203 1.40286 16.6302 1.14247 16.5709C0.801947 16.4918 0.50149 16.314 0.451414 15.9385C0.3112 14.8517 0.301185 13.7747 0.461429 12.6879C0.521521 12.263 0.781917 12.0654 1.22259 12.0259C1.52304 11.9963 1.8235 11.9765 2.11394 11.9172C3.58618 11.6208 4.61775 10.3858 4.62777 8.91359C4.63778 8.0046 4.27724 7.25369 3.63626 6.62134C3.2657 6.25577 3.23565 5.85068 3.53611 5.4851C4.19711 4.64527 4.96829 3.90424 5.81958 3.25214C6.14007 2.99525 6.5507 3.02489 6.86117 3.29166C6.96132 3.38058 7.05146 3.46951 7.15161 3.54855C8.36345 4.61563 10.3064 4.57611 11.4582 3.45963C12.1092 2.82728 12.3996 2.04673 12.4196 1.14762C12.4397 0.594319 12.7101 0.337429 13.2609 0.278147C13.4612 0.258386 13.6515 0.228745 13.8518 0.208984ZM19.1198 21.2245C19.0397 21.1356 18.9796 21.0763 18.9095 21.0072C17.8379 19.9401 16.7562 18.8829 15.6846 17.8158C15.5344 17.6676 15.4142 17.638 15.2039 17.7071C14.1022 18.1023 12.9905 18.1221 11.8888 17.7466C9.39502 16.8969 8.02294 14.4664 8.56376 11.9073C8.62385 11.6406 8.69396 11.4034 8.9844 11.3046C9.29487 11.2058 9.49518 11.3837 9.69548 11.5813C10.3865 12.263 11.0876 12.9448 11.7787 13.6265C11.9589 13.8044 12.1492 13.8834 12.4096 13.8439C12.8903 13.7649 13.3711 13.6957 13.8518 13.6265C14.0221 13.6068 14.1122 13.5178 14.1422 13.34C14.2124 12.846 14.2925 12.3618 14.3726 11.8678C14.4127 11.6406 14.3325 11.4726 14.1623 11.3046C13.4312 10.5933 12.7101 9.87199 11.989 9.15072C11.6184 8.78515 11.7486 8.27137 12.2394 8.17256C12.68 8.08364 13.1207 8.0046 13.5714 8.0046C17.0767 8.04412 19.4704 11.4627 18.2785 14.7134C18.2084 14.8912 18.2285 14.9999 18.3687 15.1382C19.4603 16.2053 20.542 17.2724 21.6236 18.3395C21.6837 18.3987 21.7438 18.4481 21.8039 18.4975C23.7268 15.4445 23.3663 10.8798 19.9911 8.06388C16.7763 5.39618 11.9089 5.60367 8.87423 8.56778C5.86966 11.5022 5.62929 16.314 8.32339 19.5251C11.1076 22.8647 15.8148 23.3488 19.1198 21.2245Z" fill="url(#paint0_linear_1446_99301)"/>
<defs>
<linearGradient id="paint0_linear_1446_99301" x1="0.34375" y1="0.208984" x2="34.4246" y2="10.3683" gradientUnits="userSpaceOnUse">
<stop stop-color="#F6830F"/>
<stop offset="1" stop-color="#F6C30F"/>
</linearGradient>
</defs>
</svg>
