<svg width="24" height="24" viewBox="0 0 24 24" fill="none" xmlns="http://www.w3.org/2000/svg">
<g clip-path="url(#clip0_850_22226)">
<circle cx="12" cy="12" r="12" fill="#0E918C"/>
<path d="M15.8333 14.8956C15.2844 14.8956 14.7933 15.1064 14.4178 15.4367L9.26833 12.5201C9.30444 12.3584 9.33333 12.1968 9.33333 12.0281C9.33333 11.8594 9.30444 11.6978 9.26833 11.5361L14.36 8.64759C14.75 8.999 15.2628 9.21687 15.8333 9.21687C17.0322 9.21687 18 8.2751 18 7.10843C18 5.94177 17.0322 5 15.8333 5C14.6344 5 13.6667 5.94177 13.6667 7.10843C13.6667 7.27711 13.6956 7.43875 13.7317 7.6004L8.64 10.489C8.25 10.1376 7.73722 9.91968 7.16667 9.91968C5.96778 9.91968 5 10.8614 5 12.0281C5 13.1948 5.96778 14.1365 7.16667 14.1365C7.73722 14.1365 8.25 13.9187 8.64 13.5673L13.7822 16.491C13.7461 16.6386 13.7244 16.7932 13.7244 16.9478C13.7244 18.0793 14.6706 19 15.8333 19C16.9961 19 17.9422 18.0793 17.9422 16.9478C17.9422 15.8163 16.9961 14.8956 15.8333 14.8956Z" fill="#E9E9E9"/>
</g>
<defs>
<clipPath id="clip0_850_22226">
<rect width="24" height="24" fill="white"/>
</clipPath>
</defs>
</svg>
