<svg width="21" height="21" viewBox="0 0 21 21" fill="none" xmlns="http://www.w3.org/2000/svg">
<path d="M9.04545 20.1012C7.13233 20.1012 5.21921 20.1062 3.30609 20.0993C1.6267 20.0931 0.321754 18.9835 0.0365139 17.328C0.00635633 17.1514 0.00258664 16.9686 0.00258664 16.7883C0.000701797 12.9633 -0.00243961 9.13832 0.00321492 5.31334C0.00509977 3.68044 1.07255 2.38492 2.66148 2.06638C2.86001 2.0268 3.06609 2.0067 3.2684 2.00607C5.32288 2.00167 7.37673 2.00041 9.43121 2.00481C10.1883 2.0067 10.6796 2.65634 10.4522 3.33488C10.3114 3.75395 9.93572 4.01594 9.45697 4.01657C8.10051 4.01908 6.74405 4.0172 5.38759 4.0172C4.69774 4.0172 4.00788 4.01531 3.3174 4.01783C2.54776 4.02034 2.00429 4.5437 2.00304 5.3146C1.99738 9.13958 1.99801 12.9646 2.00304 16.7902C2.00429 17.5611 2.53896 18.0939 3.31238 18.0951C7.1229 18.1001 10.9334 18.1001 14.744 18.0951C15.5293 18.0939 16.0546 17.5548 16.0552 16.7701C16.0571 14.4058 16.0539 12.0416 16.0571 9.67739C16.0583 8.91277 16.7765 8.41769 17.4519 8.71423C17.891 8.90712 18.0676 9.26838 18.0676 9.73456C18.0663 11.054 18.0676 12.374 18.0676 13.6934C18.0676 14.7225 18.072 15.751 18.0663 16.7801C18.0569 18.4658 16.9348 19.7883 15.278 20.0654C15.0707 20.1 14.8564 20.0981 14.6453 20.0987C12.7774 20.1018 10.9114 20.1012 9.04545 20.1012Z" fill="white"/>
<path d="M17.9794 3.44488C17.9254 3.52216 17.882 3.61012 17.8167 3.67546C15.1515 6.34817 12.4838 9.01837 9.81928 11.6917C9.52838 11.9832 9.20356 12.1472 8.7845 12.0429C8.05129 11.8607 7.77045 11.0012 8.25423 10.4201C8.31454 10.3478 8.38365 10.2831 8.45025 10.2165C11.0997 7.56201 13.7498 4.90689 16.4012 2.25429C16.4665 2.18895 16.5557 2.14685 16.6336 2.09408C16.616 2.06392 16.5991 2.03439 16.5815 2.00423C16.5004 2.00423 16.42 2.00423 16.339 2.00423C15.2338 2.0036 14.128 2.00737 13.0229 2.00046C12.5963 1.99795 12.2878 1.78056 12.1244 1.39228C11.9655 1.01469 12.0252 0.650912 12.296 0.336771C12.5033 0.0967673 12.7747 -0.00124465 13.0914 1.19186e-05C14.0401 0.00378161 14.9888 0.00126848 15.9375 0.00126848C16.949 0.00126848 17.9599 -0.000616363 18.9715 0.00189676C19.6682 0.00378161 20.064 0.398971 20.0647 1.09762C20.0666 3.06917 20.0672 5.04009 20.0634 7.01164C20.0622 7.50798 19.7694 7.88809 19.3208 8.00746C18.8923 8.12181 18.4179 7.94338 18.2125 7.54505C18.1201 7.36536 18.0749 7.14295 18.0724 6.93876C18.0592 5.87885 18.0661 4.81831 18.0661 3.75777C18.0661 3.67358 18.0661 3.58876 18.0661 3.50457C18.0378 3.48446 18.0083 3.46436 17.9794 3.44488Z" fill="white"/>
</svg>
