<svg width="31" height="31" viewBox="0 0 31 31" fill="none" xmlns="http://www.w3.org/2000/svg">
<path d="M3.07759 30.3501C2.46642 30.2404 1.88911 29.9902 1.3912 29.6191C0.841129 29.2085 0.425529 28.6436 0.197188 27.9963C-0.0311538 27.3489 -0.0619319 26.6483 0.108763 25.9834C0.261153 25.297 0.616679 24.6724 1.12905 24.191C1.64142 23.7095 2.28689 23.3934 2.98141 23.2839C3.80886 23.1558 4.65505 23.3214 5.37315 23.752L7.60458 21.5142L8.85495 22.7581L6.62352 24.9896C6.92783 25.4974 7.09965 26.0736 7.12318 26.6652C7.14671 27.2567 7.0212 27.8448 6.75818 28.3752C6.51892 28.8891 6.15689 29.3364 5.70402 29.6774C5.25114 30.0185 4.72132 30.2429 4.16125 30.3309C4.11704 30.3441 4.07412 30.3612 4.03301 30.3822L3.07759 30.3501Z" fill="#1BA17B"/>
<path d="M26.3484 30.3503C25.815 30.1895 25.2993 29.9746 24.8095 29.7091C24.0914 29.2309 23.5751 28.5044 23.3597 27.6689C23.1443 26.8335 23.245 25.9479 23.6425 25.1821L23.7515 24.9641L21.5137 22.7327L22.7512 21.4951L24.9249 23.6817C25.4123 23.5342 25.8226 23.3675 26.2523 23.2841C27.1716 23.1293 28.115 23.3435 28.8773 23.8802C29.6397 24.4168 30.1596 25.2326 30.324 26.1503C30.3403 26.2069 30.3596 26.2625 30.3817 26.3171V27.2661C30.359 27.3086 30.3418 27.3539 30.3304 27.4007C30.1748 28.316 29.6659 29.1335 28.9133 29.677C28.4263 30.003 27.8755 30.2216 27.2974 30.3183L26.3484 30.3503Z" fill="#1BA17B"/>
<path d="M30.3811 3.99659C30.3298 4.19536 30.285 4.39414 30.2208 4.58651C30.0668 5.07775 29.8081 5.52981 29.4627 5.91158C29.1173 6.29335 28.6933 6.59578 28.2199 6.79807C27.7464 7.00036 27.2348 7.09771 26.7202 7.08343C26.2055 7.06915 25.7001 6.94358 25.2386 6.71534L24.9885 6.5871L22.7635 8.81853L21.5195 7.5874L23.7638 5.36879C23.4182 4.76425 23.2431 4.07724 23.2572 3.38102C23.318 2.51959 23.6895 1.70951 24.3025 1.10126C24.9155 0.493017 25.7285 0.127955 26.5903 0.0738919C27.4522 0.0198284 28.3044 0.280439 28.9887 0.807311C29.6729 1.33418 30.1426 2.0915 30.3106 2.93858C30.3228 2.97599 30.3378 3.01243 30.3555 3.04759L30.3811 3.99659Z" fill="#1BA17B"/>
<path d="M12.305 16.3591C11.4441 16.7156 10.7155 17.3313 10.2202 18.1207C9.72503 18.91 9.48776 19.8339 9.54137 20.7642C8.57067 19.8237 7.86022 18.6477 7.47926 17.3509C7.09831 16.0541 7.05985 14.6807 7.36764 13.3646C7.75137 11.6657 8.67807 10.1379 10.0075 9.01263C11.3369 7.88733 12.9968 7.22571 14.7358 7.12789C16.4748 7.03007 18.1983 7.50138 19.6456 8.47049C21.0928 9.4396 22.185 10.8538 22.7568 12.499C23.259 13.9196 23.3447 15.4542 23.0039 16.9219C22.6631 18.3897 21.9099 19.7294 20.8332 20.7835C20.8852 19.851 20.6475 18.9253 20.1527 18.1332C19.6579 17.3411 18.9303 16.7214 18.0695 16.3591C18.3963 15.9002 18.6097 15.3704 18.6922 14.8131C18.7746 14.2558 18.7239 13.6869 18.544 13.153C18.3019 12.4137 17.8187 11.7769 17.1718 11.3448C16.5333 10.9103 15.77 10.697 14.9988 10.7375C14.2275 10.7781 13.4908 11.0702 12.9013 11.5692C12.2086 12.1418 11.7631 12.9594 11.6574 13.8519C11.5582 14.7388 11.7888 15.6312 12.305 16.3591Z" fill="#1BA17B"/>
<path d="M6.62491 5.35579L8.86275 7.58081L7.63162 8.81835L5.41301 6.59333C4.6151 7.05872 3.66955 7.20174 2.7697 6.99316C1.86984 6.78459 1.08364 6.24017 0.571829 5.47121C0.12949 4.772 -0.0558895 3.94072 0.0474624 3.11982C0.150814 2.29893 0.536462 1.53954 1.13831 0.971797C1.74016 0.404058 2.52074 0.063322 3.34626 0.00798626C4.17178 -0.0473495 4.99085 0.186161 5.66309 0.668496C6.37029 1.19591 6.85902 1.96482 7.03635 2.82903C7.21369 3.69324 7.06726 4.59248 6.62491 5.35579Z" fill="#1BA17B"/>
<path d="M15.2085 17.8014C15.7889 17.7991 16.369 17.8291 16.9462 17.8912C17.5348 18.0004 18.0667 18.3122 18.4497 18.7724C18.8326 19.2327 19.0425 19.8124 19.0429 20.4111C19.0429 20.9241 19.0429 21.4371 19.0429 21.9501C19.0519 22.0215 19.0365 22.0939 18.9993 22.1556C18.962 22.2172 18.9051 22.2645 18.8377 22.2899C17.7084 22.8793 16.4535 23.1871 15.1796 23.1871C13.9058 23.1871 12.6508 22.8793 11.5215 22.2899C11.4445 22.2514 11.3355 22.1488 11.3355 22.0783C11.3022 21.3595 11.3236 20.6393 11.3996 19.9238C11.5076 19.3416 11.8138 18.8146 12.2661 18.4324C12.7184 18.0503 13.289 17.8363 13.8811 17.827H15.1636L15.2085 17.8014Z" fill="#1BA17B"/>
<path d="M16.9655 14.2813C16.963 14.6338 16.8559 14.9777 16.658 15.2694C16.46 15.5612 16.1799 15.7876 15.8532 15.9202C15.5266 16.0528 15.1679 16.0855 14.8226 16.0142C14.4774 15.9429 14.161 15.7709 13.9135 15.5198C13.666 15.2687 13.4985 14.9499 13.4322 14.6036C13.3659 14.2573 13.4038 13.8992 13.541 13.5744C13.6783 13.2497 13.9087 12.973 14.2033 12.7792C14.4978 12.5854 14.8432 12.4834 15.1957 12.4859C15.4306 12.485 15.6632 12.531 15.88 12.6212C16.0968 12.7115 16.2934 12.8441 16.4583 13.0113C16.6231 13.1786 16.7529 13.3771 16.84 13.5951C16.9271 13.8132 16.9698 14.0465 16.9655 14.2813Z" fill="#1BA17B"/>
</svg>
