<svg width="30" height="30" viewBox="0 0 30 30" fill="none" xmlns="http://www.w3.org/2000/svg">
<path d="M0.0100021 26.1802C0.140002 25.4702 0.340005 24.7802 0.700005 24.1502C1.65 22.5002 2.99 21.3802 4.91 21.0302C4.99 21.0102 5.08 21.0102 5.16 21.0002C5.23 20.9902 5.31 20.9802 5.39 20.9502C4.6 20.7502 3.95 20.3602 3.54 19.6402C3.14 18.9302 3.07 18.1702 3.3 17.3902C3.73 15.9802 5.01 15.4302 6.12 15.5202C7.47 15.6302 8.46001 16.6402 8.61001 18.0102C8.76001 19.3402 7.92 20.4602 6.37 20.9602C6.65 21.0002 6.85 21.0302 7.05 21.0702C9.51 21.5102 11.73 24.0902 11.77 26.5402C11.79 27.8702 11.09 28.8702 9.71 29.0502C9.67 29.0502 9.64001 29.0802 9.61001 29.0902C7.13001 29.0902 4.65 29.0902 2.16 29.0902C2.12 29.0702 2.07 29.0502 2.03 29.0402C0.869999 28.8402 0.300001 28.3002 0.0400009 27.1402C0.0300009 27.1002 0.01 27.0702 0 27.0402C0.01 26.7502 0.0100021 26.4702 0.0100021 26.1802Z" fill="url(#paint0_linear_2_14274)"/>
<path d="M19.5095 29.08C19.3195 29.03 19.1195 29 18.9295 28.94C17.9695 28.65 17.3795 27.87 17.3495 26.82C17.3095 25.32 17.9195 24.06 18.8795 22.96C19.8595 21.84 21.0895 21.13 22.5995 21C22.6295 21 22.6695 20.98 22.7795 20.95C21.9595 20.77 21.3395 20.41 20.9395 19.75C20.5395 19.1 20.4195 18.39 20.5795 17.65C20.8495 16.36 21.9195 15.51 23.2595 15.51C24.5095 15.51 25.6295 16.41 25.8995 17.67C26.0595 18.42 25.9295 19.12 25.4995 19.76C25.0895 20.38 24.4995 20.76 23.7795 20.97C24.0695 21.02 24.3695 21.06 24.6595 21.13C26.9895 21.67 29.0695 24.19 29.1095 26.53C29.1395 27.94 28.4495 28.78 27.0595 29.04C27.0195 29.05 26.9895 29.07 26.9595 29.08C24.4695 29.08 21.9895 29.08 19.5095 29.08Z" fill="url(#paint1_linear_2_14274)"/>
<path d="M14.3899 5.49007C12.7799 5.27007 11.7599 4.12007 11.8399 2.60007C11.9199 1.10007 13.0599 0.0200659 14.5699 6.58656e-05C15.9399 -0.00993413 17.1699 1.12007 17.2799 2.49007C17.3999 4.02007 16.3699 5.24007 14.7299 5.47007C15.1499 5.54007 15.5199 5.58007 15.8899 5.65007C18.3499 6.18007 20.0799 8.10007 20.3599 10.6101C20.3999 11.0101 20.4299 11.4301 20.3599 11.8201C20.1699 12.8201 19.2999 13.5401 18.2799 13.5501C15.8099 13.5701 13.3399 13.5701 10.8699 13.5501C9.65993 13.5401 8.67993 12.5401 8.71993 11.3301C8.78993 9.21007 9.61993 7.48007 11.4699 6.34007C12.2199 5.88007 13.0499 5.62007 13.9299 5.54007C14.0799 5.53007 14.2399 5.51007 14.3899 5.49007Z" fill="url(#paint2_linear_2_14274)"/>
<path d="M13.4593 18.2301C14.1993 18.2301 14.9193 18.2301 15.6593 18.2301C15.6293 18.1501 15.6094 18.0801 15.5894 18.0101C15.4494 17.6201 15.5994 17.2201 15.9494 17.0001C16.3094 16.7801 16.7494 16.8101 16.9994 17.1501C17.3794 17.6601 17.7394 18.2001 18.0694 18.7501C18.2394 19.0301 18.1594 19.3401 17.9694 19.6101C17.6894 20.0301 17.4193 20.4501 17.1293 20.8601C16.8293 21.2901 16.3794 21.4301 15.9694 21.2001C15.5594 20.9801 15.4294 20.5501 15.6194 20.0501C15.6294 20.0201 15.6294 20.0001 15.6394 19.9501C14.9094 19.9501 14.1893 19.9501 13.4893 19.9501C13.5093 20.1601 13.5793 20.3901 13.5493 20.6001C13.5093 20.9501 13.2793 21.1901 12.9393 21.2801C12.5893 21.3701 12.2693 21.2601 12.0493 20.9701C11.6993 20.4901 11.3694 19.9901 11.0594 19.4801C10.8694 19.1801 10.9294 18.8601 11.1194 18.5701C11.3994 18.1501 11.6794 17.7201 11.9694 17.3001C12.2694 16.8701 12.6893 16.7501 13.0993 16.9701C13.5193 17.1901 13.6594 17.6101 13.4694 18.1101C13.4794 18.1401 13.4793 18.1701 13.4593 18.2301Z" fill="url(#paint3_linear_2_14274)"/>
<path d="M3.72913 13.9502C3.20913 13.9602 2.79913 13.4902 2.86913 12.9702C3.19913 10.6202 4.13914 8.55018 5.69914 6.76018C6.33914 6.02018 7.06914 5.38018 7.87914 4.82018C8.34914 4.49018 8.87913 4.56018 9.15913 4.97018C9.43913 5.38018 9.32914 5.89018 8.85914 6.22018C6.77914 7.68018 5.40913 9.64018 4.77913 12.1102C4.68913 12.4702 4.63913 12.8302 4.56913 13.1902C4.46913 13.6302 4.13913 13.9402 3.72913 13.9502Z" fill="url(#paint4_linear_2_14274)"/>
<path d="M20.7597 4.60003C20.8397 4.63003 21.0197 4.67003 21.1497 4.76003C24.0297 6.76003 25.7297 9.50003 26.2497 12.97C26.3197 13.44 25.9997 13.85 25.5297 13.93C25.0797 14.01 24.6697 13.69 24.5697 13.21C24.4397 12.61 24.3397 12 24.1597 11.42C23.4597 9.26003 22.1597 7.53003 20.2997 6.23003C20.0397 6.05003 19.8497 5.83003 19.8297 5.50003C19.7997 5.01003 20.1897 4.59003 20.7597 4.60003Z" fill="url(#paint5_linear_2_14274)"/>
<defs>
<linearGradient id="paint0_linear_2_14274" x1="0" y1="15.5107" x2="14.2991" y2="19.1472" gradientUnits="userSpaceOnUse">
<stop stop-color="#1A202E"/>
<stop offset="1" stop-color="#424E68"/>
</linearGradient>
<linearGradient id="paint1_linear_2_14274" x1="17.3477" y1="15.51" x2="31.6374" y2="19.1443" gradientUnits="userSpaceOnUse">
<stop stop-color="#1A202E"/>
<stop offset="1" stop-color="#424E68"/>
</linearGradient>
<linearGradient id="paint2_linear_2_14274" x1="8.71875" y1="0" x2="22.9228" y2="3.58934" gradientUnits="userSpaceOnUse">
<stop stop-color="#1A202E"/>
<stop offset="1" stop-color="#424E68"/>
</linearGradient>
<linearGradient id="paint3_linear_2_14274" x1="10.9434" y1="16.8596" x2="18.5566" y2="20.4825" gradientUnits="userSpaceOnUse">
<stop stop-color="#1A202E"/>
<stop offset="1" stop-color="#424E68"/>
</linearGradient>
<linearGradient id="paint4_linear_2_14274" x1="2.86133" y1="4.61157" x2="10.8747" y2="6.23543" gradientUnits="userSpaceOnUse">
<stop stop-color="#1A202E"/>
<stop offset="1" stop-color="#424E68"/>
</linearGradient>
<linearGradient id="paint5_linear_2_14274" x1="19.8281" y1="4.59985" x2="27.8203" y2="6.21406" gradientUnits="userSpaceOnUse">
<stop stop-color="#1A202E"/>
<stop offset="1" stop-color="#424E68"/>
</linearGradient>
</defs>
</svg>
