<svg width="29" height="29" viewBox="0 0 29 29" fill="none" xmlns="http://www.w3.org/2000/svg">
<path d="M13.4875 0C14.0675 0 14.6475 0 15.2175 0C15.3775 0.02 15.5475 0.0599999 15.7075 0.0599999C16.3775 0.0899999 16.7275 0.43 16.6875 1.1C16.6875 1.17 16.6875 1.25 16.6975 1.32C16.7975 2.97 18.1575 4.26 19.8175 4.24C20.7375 4.23 21.5175 3.9 22.1775 3.25C22.5375 2.9 22.9475 2.87 23.3075 3.16C24.1375 3.83 24.8875 4.58 25.5475 5.42C25.7675 5.7 25.7875 6.03 25.6075 6.33C25.5175 6.49 25.3675 6.62 25.2475 6.75C23.7875 8.35 24.4075 11.01 26.4375 11.77C26.8075 11.91 27.2075 11.96 27.6075 12.01C28.2375 12.08 28.5275 12.36 28.5875 12.98C28.5975 13.15 28.6275 13.31 28.6475 13.47C28.6475 14.05 28.6475 14.63 28.6475 15.2C28.6075 15.47 28.5775 15.73 28.5375 16C28.4775 16.38 28.1675 16.65 27.7875 16.67C27.5875 16.68 27.3975 16.69 27.1975 16.7C25.2675 16.87 23.9375 18.83 24.4875 20.69C24.6575 21.27 24.9775 21.75 25.3975 22.17C25.7175 22.5 25.7575 22.92 25.4975 23.26C24.8175 24.12 24.0475 24.88 23.1775 25.56C22.8675 25.8 22.4575 25.78 22.1475 25.52C22.0375 25.43 21.9375 25.33 21.8375 25.24C20.9275 24.43 19.4275 24.22 18.3575 24.77C17.2675 25.33 16.6775 26.24 16.6075 27.47C16.5575 28.31 16.3475 28.55 15.5075 28.57C14.6675 28.59 13.8375 28.58 12.9975 28.57C12.2575 28.56 11.9275 28.21 11.9575 27.5C11.9575 27.44 11.9575 27.37 11.9475 27.3C11.8575 25.85 10.7875 24.64 9.3475 24.42C8.2575 24.25 7.3075 24.57 6.5075 25.34C6.0775 25.75 5.6575 25.78 5.2275 25.37C4.5175 24.69 3.8275 23.98 3.1575 23.26C2.8175 22.9 2.8575 22.48 3.1875 22.11C3.2475 22.05 3.2975 21.99 3.3575 21.92C4.1875 20.97 4.4375 19.89 4.0175 18.7C3.6175 17.57 2.7875 16.89 1.5975 16.66C1.3375 16.61 1.0575 16.62 0.7975 16.56C0.4575 16.48 0.1575 16.3 0.1075 15.92C-0.0325 14.82 -0.0425 13.73 0.1175 12.63C0.1775 12.2 0.4375 12 0.8775 11.96C1.1775 11.93 1.4775 11.91 1.7675 11.85C3.2375 11.55 4.2675 10.3 4.2775 8.81C4.2875 7.89 3.9275 7.13 3.2875 6.49C2.9175 6.12 2.8875 5.71 3.1875 5.34C3.8475 4.49 4.6175 3.74 5.4675 3.08C5.7875 2.82 6.1975 2.85 6.5075 3.12C6.6075 3.21 6.6975 3.3 6.7975 3.38C8.0075 4.46 9.9475 4.42 11.0975 3.29C11.7475 2.65 12.0375 1.86 12.0575 0.95C12.0775 0.39 12.3475 0.13 12.8975 0.0699999C13.0975 0.0499999 13.2875 0.02 13.4875 0ZM18.7475 21.27C18.6675 21.18 18.6075 21.12 18.5375 21.05C17.4675 19.97 16.3875 18.9 15.3175 17.82C15.1675 17.67 15.0475 17.64 14.8375 17.71C13.7375 18.11 12.6275 18.13 11.5275 17.75C9.0375 16.89 7.6675 14.43 8.2075 11.84C8.2675 11.57 8.3375 11.33 8.6275 11.23C8.9375 11.13 9.1375 11.31 9.3375 11.51C10.0275 12.2 10.7275 12.89 11.4175 13.58C11.5975 13.76 11.7875 13.84 12.0475 13.8C12.5275 13.72 13.0075 13.65 13.4875 13.58C13.6575 13.56 13.7475 13.47 13.7775 13.29C13.8475 12.79 13.9275 12.3 14.0075 11.8C14.0475 11.57 13.9675 11.4 13.7975 11.23C13.0675 10.51 12.3475 9.78 11.6275 9.05C11.2575 8.68 11.3875 8.16 11.8775 8.06C12.3175 7.97 12.7575 7.89 13.2075 7.89C16.7075 7.93 19.0975 11.39 17.9075 14.68C17.8375 14.86 17.8575 14.97 17.9975 15.11C19.0875 16.19 20.1675 17.27 21.2475 18.35C21.3075 18.41 21.3675 18.46 21.4275 18.51C23.3475 15.42 22.9875 10.8 19.6175 7.95C16.4075 5.25 11.5475 5.46 8.5175 8.46C5.5175 11.43 5.2775 16.3 7.9675 19.55C10.7475 22.93 15.4475 23.42 18.7475 21.27Z" fill="url(#paint0_linear_2_14268)"/>
<defs>
<linearGradient id="paint0_linear_2_14268" x1="0" y1="0" x2="34.1034" y2="10.0291" gradientUnits="userSpaceOnUse">
<stop stop-color="#F6830F"/>
<stop offset="1" stop-color="#F6C30F"/>
</linearGradient>
</defs>
</svg>
