<svg width="60" height="60" viewBox="0 0 60 60" fill="none" xmlns="http://www.w3.org/2000/svg">
<path d="M30 60C46.5685 60 60 46.5685 60 30C60 13.4315 46.5685 0 30 0C13.4315 0 0 13.4315 0 30C0 46.5685 13.4315 60 30 60Z" fill="#5A99EC"/>
<path d="M23.9117 47.289C38.5783 47.289 46.5783 35.1556 46.5783 24.6223C46.5783 24.2667 46.5784 23.9556 46.5339 23.6001C48.0895 22.489 49.4228 21.0667 50.4894 19.4667C49.0672 20.089 47.5117 20.5334 45.9117 20.7112C47.5561 19.7334 48.8006 18.1778 49.4228 16.3112C47.8672 17.2445 46.1783 17.8667 44.3561 18.2667C42.8895 16.7112 40.845 15.7334 38.5339 15.7334C34.1339 15.7334 30.5783 19.289 30.5783 23.689C30.5783 24.3112 30.6672 24.9334 30.8006 25.5112C24.2228 25.1556 18.3561 22.0001 14.4006 17.1556C13.7339 18.3112 13.3339 19.689 13.3339 21.1556C13.3339 23.9112 14.7561 26.3556 16.8895 27.7778C15.6006 27.7334 14.3561 27.3778 13.2894 26.8001C13.2894 26.8445 13.2894 26.8445 13.2894 26.889C13.2894 30.7556 16.045 33.9556 19.6895 34.7112C19.0228 34.889 18.3117 34.9778 17.6006 34.9778C17.0672 34.9778 16.5784 34.9334 16.0895 34.8445C17.1117 38.0001 20.045 40.3112 23.5117 40.3556C20.8006 42.489 17.3339 43.7778 13.6006 43.7778C12.9783 43.7778 12.3117 43.7334 11.6895 43.689C15.245 45.9556 19.4228 47.289 23.9117 47.289Z" fill="white"/>
</svg>
