<svg width="29" height="19" viewBox="0 0 29 19" fill="none" xmlns="http://www.w3.org/2000/svg">
<path d="M27.5171 18.3448H0.482779C0.216179 18.3448 0 18.1286 0 17.862V0.482779C0 0.216179 0.216179 0 0.482779 0H27.5172C27.7838 0 27.9999 0.216179 27.9999 0.482779V17.862C27.9999 18.1286 27.7837 18.3448 27.5171 18.3448Z" fill="#41479B"/>
<path d="M27.9999 0.482779C27.9999 0.216179 27.7837 0 27.5171 0H25.3572L16.4137 5.85958V0H11.5861V5.85958L2.6426 0H0.482779C0.216179 0 0 0.216179 0 0.482779V1.73134L7.67312 6.75858H0V11.5862H7.67312L0 16.6135V17.862C0 18.1286 0.216179 18.3448 0.482779 18.3448H2.64265L11.5862 12.4852V18.3448H16.4138V12.4852L25.3573 18.3448H27.5172C27.7838 18.3448 28 18.1286 28 17.862V16.6135L20.3269 11.5862H27.9999V6.75864H20.3268L27.9999 1.73134V0.482779Z" fill="#F5F5F5"/>
<path d="M27.9999 7.72414H15.4482V0H12.5517V7.72414H0V10.6207H12.5517V18.3448H15.4482V10.6207H27.9999V7.72414Z" fill="#FF4B55"/>
<path d="M9.78813 11.5859L0.015625 17.9295C0.0498046 18.1626 0.24203 18.3446 0.484678 18.3446H1.14962L11.5615 11.586H9.78813V11.5859Z" fill="#FF4B55"/>
<path d="M18.9453 11.5859H17.1719L27.5686 18.3346C27.811 18.3088 28.0022 18.1109 28.0022 17.8617V17.4648L18.9453 11.5859Z" fill="#FF4B55"/>
<path d="M0 1.0155L8.84725 6.75843H10.6207L0.281257 0.046875C0.116101 0.123601 0 0.288483 0 0.482568V1.0155Z" fill="#FF4B55"/>
<path d="M18.1875 6.75858L27.9834 0.399709C27.9427 0.174288 27.7546 0 27.5174 0H26.8258L16.4141 6.75858H18.1875Z" fill="#FF4B55"/>
</svg>
