<svg width="18" height="31" viewBox="0 0 18 31" fill="none" xmlns="http://www.w3.org/2000/svg">
<path d="M15.286 0H2.25401C1.0068 0 0 1.01132 0 2.25627V28.7198C0 29.9636 1.0068 30.9738 2.25401 30.9738H15.286C16.5309 30.9738 17.54 29.9636 17.54 28.7198V2.25627C17.54 1.01132 16.5309 0 15.286 0ZM5.55433 1.37024H11.9879C12.1505 1.37024 12.2825 1.61291 12.2825 1.91315C12.2825 2.21338 12.1505 2.45718 11.9879 2.45718H5.55433C5.39067 2.45718 5.26087 2.21338 5.26087 1.91315C5.26087 1.61291 5.39067 1.37024 5.55433 1.37024ZM8.77113 28.7469C7.97765 28.7469 7.33204 28.1012 7.33204 27.3066C7.33204 26.512 7.97765 25.8687 8.77113 25.8687C9.56235 25.8687 10.208 26.512 10.208 27.3066C10.208 28.1012 9.56235 28.7469 8.77113 28.7469ZM15.8515 23.8156H1.68966V3.80711H15.8515V23.8156Z" fill="#4E4B66"/>
</svg>
