<svg width="60" height="60" viewBox="0 0 60 60" fill="none" xmlns="http://www.w3.org/2000/svg">
<path d="M30 60C46.5685 60 60 46.5685 60 30C60 13.4315 46.5685 0 30 0C13.4315 0 0 13.4315 0 30C0 46.5685 13.4315 60 30 60Z" fill="url(#paint0_linear_1446_99373)"/>
<path fill-rule="evenodd" clip-rule="evenodd" d="M44.444 15.911C40.844 12.311 36.0885 10.3555 30.9774 10.311C20.4885 10.311 11.9551 18.8444 11.9551 29.3333C11.9551 32.6666 12.844 35.9555 14.4884 38.8444L11.7773 48.711L21.8662 46.0444C24.6662 47.5555 27.7773 48.3555 30.9774 48.3555C41.4662 48.3555 49.9996 39.8221 49.9996 29.3333C49.9996 24.311 47.9996 19.511 44.444 15.911ZM30.9774 45.1999C28.1329 45.1999 25.3329 44.4444 22.9329 42.9777L22.3551 42.6222L16.3551 44.1777L17.9551 38.3555L17.5996 37.7777C15.9996 35.2444 15.1996 32.3555 15.1996 29.3777C15.1996 20.6666 22.3107 13.5555 31.0218 13.5555C35.244 13.5555 39.1996 15.1999 42.2218 18.1777C45.1996 21.1555 46.844 25.1555 46.844 29.3777C46.7996 38.0888 39.6885 45.1999 30.9774 45.1999ZM39.644 33.3777C39.1551 33.1555 36.844 31.9999 36.3996 31.8221C35.9551 31.6444 35.644 31.5999 35.3329 32.0444C35.0218 32.5333 34.0884 33.5999 33.8218 33.911C33.5551 34.2221 33.2885 34.2666 32.7996 34.0444C32.3107 33.8221 30.7996 33.2888 28.9774 31.6888C27.5551 30.4444 26.6218 28.8888 26.3107 28.3999C26.044 27.911 26.2662 27.6888 26.5329 27.4221C26.7551 27.1999 27.0218 26.8888 27.244 26.5777C27.4662 26.311 27.5551 26.0888 27.7329 25.7777C27.9107 25.4666 27.8218 25.1999 27.6884 24.9333C27.5551 24.711 26.6218 22.3555 26.2218 21.4221C25.8218 20.4888 25.4218 20.6221 25.1551 20.6221C24.8884 20.6221 24.5773 20.6221 24.2218 20.6221C23.9107 20.6221 23.3773 20.7555 22.9329 21.1999C22.4884 21.6888 21.2885 22.8444 21.2885 25.1555C21.2885 27.511 22.9773 29.7777 23.244 30.0888C23.4662 30.3999 26.5773 35.1999 31.3773 37.2888C32.5329 37.7777 33.3773 38.0888 34.0885 38.311C35.244 38.6666 36.2662 38.6221 37.0662 38.4888C37.9996 38.3555 39.8662 37.3333 40.2662 36.2221C40.6662 35.111 40.6662 34.1777 40.5329 33.9555C40.444 33.7333 40.1329 33.5999 39.644 33.3777Z" fill="white"/>
<defs>
<linearGradient id="paint0_linear_1446_99373" x1="29.9978" y1="55.6348" x2="29.9978" y2="-4.36529" gradientUnits="userSpaceOnUse">
<stop stop-color="#78CD51"/>
<stop offset="1" stop-color="#A0FC84"/>
</linearGradient>
</defs>
</svg>
