<svg width="60" height="60" viewBox="0 0 60 60" fill="none" xmlns="http://www.w3.org/2000/svg">
<path d="M30 60C46.5685 60 60 46.5685 60 30C60 13.4315 46.5685 0 30 0C13.4315 0 0 13.4315 0 30C0 46.5685 13.4315 60 30 60Z" fill="#DA0000"/>
<path d="M49.1546 20.3556C48.7102 18.6222 47.3324 17.2889 45.5991 16.8C42.4879 15.9556 29.9546 15.9556 29.9546 15.9556C29.9546 15.9556 17.4657 15.9556 14.3102 16.8C12.5768 17.2445 11.2435 18.6222 10.7546 20.3556C9.91015 23.4667 9.91016 30 9.91016 30C9.91016 30 9.91015 36.4889 10.7546 39.6445C11.199 41.3778 12.5768 42.7111 14.3102 43.2C17.4213 44.0445 29.9546 44.0445 29.9546 44.0445C29.9546 44.0445 42.4435 44.0445 45.5991 43.2C47.3324 42.7556 48.6657 41.3778 49.1546 39.6445C49.9991 36.5333 49.999 30 49.999 30C49.999 30 49.9991 23.5111 49.1546 20.3556ZM25.999 36V24L36.399 30L25.999 36Z" fill="white"/>
</svg>
