<svg width="25" height="25" viewBox="0 0 25 25" fill="none" xmlns="http://www.w3.org/2000/svg">
<circle cx="12.5" cy="12.5" r="12.5" fill="#F6830F"/>
<path d="M17.8454 13.6403H13.7066V17.7432C13.7066 18.4038 13.1663 18.9393 12.4999 18.9393C11.8335 18.9393 11.2933 18.4038 11.2933 17.7432V13.6403H7.15451C6.53291 13.5764 6.06055 13.0572 6.06055 12.4377C6.06055 11.8182 6.53291 11.2989 7.15451 11.2351H11.2804V7.14503C11.3447 6.52882 11.8685 6.06055 12.4935 6.06055C13.1184 6.06055 13.6422 6.52882 13.7066 7.14503V11.2351H17.8454C18.467 11.2989 18.9393 11.8182 18.9393 12.4377C18.9393 13.0572 18.467 13.5764 17.8454 13.6403Z" fill="#E9E9E9"/>
</svg>
