<svg width="50" height="49" viewBox="0 0 50 49" fill="none" xmlns="http://www.w3.org/2000/svg">
<path d="M0.403625 14.6452H43.1828V24.4372C37.9299 22.4329 32.9732 22.9301 28.5845 26.4927C24.2126 30.0418 22.6794 34.7665 23.5363 40.3638H23.0927C17.0662 40.3638 11.0396 40.3634 5.01292 40.3626C2.80693 40.3612 1.17313 39.1759 0.563521 37.151C0.505253 36.958 0.457026 36.7623 0.403778 36.5677L0.403625 14.6452ZM10.466 17.5872C9.56439 17.5872 8.66283 17.5824 7.76127 17.5886C6.83689 17.595 6.19776 18.1819 6.19745 19.0102C6.19715 19.8384 6.83643 20.4294 7.7602 20.4323C9.56333 20.4381 11.3664 20.4381 13.1694 20.4323C14.0943 20.4294 14.7332 19.8401 14.7332 19.0112C14.7332 18.1824 14.0943 17.5951 13.1706 17.5886C12.2686 17.5824 11.3675 17.5872 10.466 17.5872ZM21.8201 20.4342C22.7216 20.4342 23.6232 20.4377 24.5248 20.4332C25.4843 20.4285 26.131 19.8448 26.124 18.9994C26.117 18.1711 25.4785 17.5915 24.5494 17.5887C22.7463 17.5836 20.9432 17.5836 19.14 17.5887C18.2201 17.5919 17.5812 18.1917 17.5882 19.0216C17.5952 19.8515 18.2336 20.4266 19.1629 20.4325C20.0486 20.4386 20.9343 20.4342 21.8201 20.4342ZM33.2728 17.5874C32.3554 17.5874 31.4379 17.5813 30.5206 17.589C29.6057 17.5967 28.966 18.2023 28.9789 19.0322C28.9915 19.8431 29.6223 20.4284 30.5155 20.4319C32.3343 20.439 34.1532 20.439 35.9722 20.4319C36.887 20.4282 37.5268 19.8189 37.5139 18.989C37.5013 18.1781 36.8705 17.5967 35.9773 17.5894C35.0759 17.5813 34.1744 17.5874 33.2728 17.5874ZM10.4381 26.1282C11.3555 26.1282 12.273 26.1341 13.1903 26.1265C14.1075 26.1189 14.7454 25.5148 14.7332 24.6847C14.7214 23.8735 14.0906 23.2872 13.1967 23.2837C11.3777 23.2766 9.55877 23.2766 7.73982 23.2837C6.82426 23.2872 6.18467 23.8953 6.19685 24.7252C6.20871 25.5364 6.83947 26.1188 7.73343 26.1265C8.63499 26.1344 9.53655 26.1282 10.4381 26.1282ZM21.8539 26.1282C22.7554 26.1282 23.6571 26.1329 24.5585 26.1268C25.4838 26.1204 26.1227 25.5358 26.124 24.7069C26.1254 23.8781 25.4861 23.286 24.563 23.2831C22.7598 23.2772 20.9567 23.2772 19.1536 23.2831C18.2281 23.286 17.5895 23.8737 17.5882 24.7027C17.587 25.5317 18.226 26.1203 19.1493 26.1268C20.0507 26.1332 20.9524 26.1283 21.8533 26.1283L21.8539 26.1282ZM10.5008 28.9756C9.59924 28.9756 8.69767 28.9721 7.79611 28.9765C6.83765 28.9812 6.19 29.5654 6.19745 30.411C6.20476 31.2392 6.84328 31.8183 7.77268 31.821C9.55998 31.8262 11.3473 31.8262 13.1346 31.821C14.094 31.8187 14.7407 31.2324 14.7332 30.3868C14.7258 29.5412 14.0823 28.9798 13.1106 28.976C12.2406 28.9728 11.371 28.9756 10.5008 28.9756Z" fill="#F63D31"/>
<path d="M36.5691 49C35.5157 48.7379 34.4286 48.5687 33.415 48.1979C28.5062 46.402 25.3822 40.917 26.2798 35.7644C27.1156 30.9602 30.3875 27.4159 35.1616 26.4031C39.214 25.5434 42.8163 26.64 45.7089 29.5968C48.7436 32.6988 49.7614 36.4734 48.5173 40.6487C47.1687 45.1757 44.0404 47.8891 39.3948 48.8243C39.0865 48.8864 38.7771 48.9416 38.4681 49H36.5691ZM38.9409 36.0941C38.9409 34.636 38.9516 33.2467 38.937 31.8575C38.9415 31.6694 38.9086 31.4823 38.8401 31.3071C38.7717 31.1318 38.669 30.972 38.5381 30.8368C38.4073 30.7016 38.2508 30.5938 38.0779 30.5197C37.905 30.4456 37.719 30.4066 37.5309 30.4051C37.3428 30.4035 37.1562 30.4394 36.9821 30.5106C36.8079 30.5819 36.6497 30.6871 36.5166 30.8201C36.3836 30.9531 36.2783 31.1112 36.2069 31.2853C36.1356 31.4594 36.0996 31.646 36.101 31.8341C36.086 33.7307 36.0863 35.6274 36.1019 37.524C36.0976 37.7073 36.13 37.8895 36.1973 38.0601C36.2645 38.2306 36.3652 38.386 36.4934 38.517C36.6216 38.648 36.7748 38.7521 36.9438 38.823C37.1128 38.8939 37.2944 38.9302 37.4777 38.9299C39.4062 38.9502 41.3348 38.9502 43.2635 38.9299C43.8706 38.924 44.3094 38.59 44.5339 38.0229C44.9065 37.0825 44.2227 36.1117 43.1647 36.0988C41.7766 36.0813 40.3882 36.0941 38.9409 36.0941Z" fill="#F63D31"/>
<path d="M0.403625 7.05297C0.611597 6.17058 0.926368 5.34904 1.56169 4.66351C1.97312 4.23011 2.46868 3.88527 3.01804 3.65009C3.5674 3.41491 4.15899 3.29435 4.75657 3.2958C4.82974 5.07002 5.51588 6.56522 6.91021 7.69408C7.95064 8.54173 9.26128 8.9868 10.6027 8.94799C12.9799 8.91954 15.9579 7.12919 16.2014 3.2812H27.515C27.7478 7.08158 30.6737 8.89976 33.0668 8.94525C33.8277 8.9736 34.5863 8.84635 35.2963 8.57128C36.0063 8.29621 36.6526 7.87911 37.1958 7.34553C38.3467 6.24193 38.8906 4.86296 38.9572 3.29245C41.1898 3.25929 43.0216 4.94588 43.1777 7.28164C43.2764 8.75934 43.1961 10.2483 43.1961 11.7981H0.403625V7.05297Z" fill="#F63D31"/>
<path d="M10.4973 0.410674C10.9551 0.410674 11.4132 0.399872 11.8705 0.413717C12.0606 0.410889 12.2494 0.44634 12.4255 0.517961C12.6017 0.589582 12.7616 0.695909 12.8959 0.830614C13.0301 0.965319 13.1358 1.12565 13.2068 1.30206C13.2778 1.47848 13.3126 1.66737 13.3091 1.8575C13.3226 2.33049 13.3257 2.8047 13.3079 3.27754C13.2478 4.88685 12.0107 6.10561 10.4571 6.09968C8.90046 6.09436 7.67713 4.87437 7.62206 3.26141C7.60684 2.805 7.60989 2.34616 7.62038 1.88868C7.64077 0.999444 8.22376 0.42817 9.1241 0.411587C9.58173 0.403067 10.0397 0.410065 10.4973 0.410674Z" fill="#F63D31"/>
<path d="M33.2626 0.410981C33.7204 0.410981 34.1783 0.400788 34.6358 0.413111C35.4793 0.43578 36.0635 1.00736 36.0898 1.84183C36.105 2.33049 36.1087 2.82083 36.0872 3.30919C36.0177 4.89537 34.7933 6.09466 33.2546 6.10014C31.7191 6.10577 30.4823 4.908 30.4076 3.32471C30.3837 2.82083 30.3863 2.31437 30.4057 1.81018C30.4088 1.44228 30.5561 1.09028 30.8158 0.829716C31.0755 0.56915 31.4271 0.420784 31.795 0.416458C32.2835 0.396528 32.7734 0.412655 33.2626 0.412655V0.410981Z" fill="#F63D31"/>
</svg>
