<svg width="45" height="49" viewBox="0 0 45 49" fill="none" xmlns="http://www.w3.org/2000/svg">
<path d="M7.92483 30.8309C7.65895 30.0148 7.38658 29.2798 7.18353 28.5263C6.98557 27.7921 6.85851 27.0391 6.69039 26.2477C5.51544 26.2477 4.32487 26.2639 3.13483 26.2435C1.74596 26.2195 0.907961 24.811 1.58046 23.6448C1.73442 23.3619 1.96569 23.1279 2.24767 22.9697C2.52965 22.8114 2.8509 22.7354 3.1745 22.7502H6.60984C7.03103 21.1918 7.43783 19.6913 7.8599 18.1325L3.29998 15.5176C3.19862 15.6602 3.08719 15.7955 2.96653 15.9225C2.66931 16.1994 2.28378 16.3643 1.87686 16.3886C1.46993 16.4128 1.06729 16.295 0.738782 16.0554C0.0841808 15.5852 -0.212408 14.6776 0.168594 13.9623C0.784938 12.8047 1.44393 11.666 2.1517 10.5615C2.60536 9.85329 3.55567 9.67929 4.31329 10.0499C4.67932 10.2264 4.97149 10.5246 5.13904 10.8927C5.30658 11.2607 5.33892 11.6754 5.23043 12.0647C5.19323 12.203 5.15058 12.3397 5.10144 12.5081L9.4083 14.9733L12.84 11.6148C12.5767 11.2114 12.1413 10.5463 11.7059 9.88133C11.3061 9.27069 10.8986 8.66459 10.5073 8.04891C9.92672 7.13574 10.1198 6.09823 10.9597 5.55082C11.8033 5.0008 12.8508 5.23453 13.4489 6.12958C14.2094 7.26759 14.9512 8.41779 15.702 9.56208C15.8113 9.72858 15.9266 9.89125 16.0512 10.0733C16.8207 9.81776 17.5699 9.53125 18.3405 9.32329C19.1141 9.11429 19.9091 8.98419 20.7161 8.81507V3.55764C20.549 3.51236 20.3759 3.47369 20.2083 3.41831C19.8193 3.29765 19.4845 3.04666 19.2612 2.70821C19.0379 2.36977 18.94 1.96488 18.9841 1.56272C19.0279 1.15024 19.2201 0.767252 19.5253 0.483985C19.8306 0.200717 20.2286 0.0361531 20.6462 0.0204656C21.8757 -0.00757544 23.1065 -0.00565959 24.336 0.0192464C24.7533 0.0339082 25.1516 0.196012 25.4592 0.476346C25.7667 0.75668 25.9632 1.13681 26.0134 1.54822C26.0635 1.95964 25.9639 2.37529 25.7325 2.72028C25.5011 3.06526 25.1532 3.31688 24.7514 3.4298C24.611 3.47247 24.4673 3.49947 24.2934 3.54127V8.73617L28.9967 10.0064C29.0414 9.94002 29.1513 9.77996 29.2576 9.61851C30.0193 8.45959 30.7736 7.2958 31.5436 6.14247C32.1445 5.24254 33.1812 5.00132 34.0278 5.54368C34.8684 6.0822 35.0787 7.13505 34.4973 8.03985C33.6786 9.31371 32.839 10.5742 31.9984 11.8553C32.5756 12.3718 33.1656 12.8573 33.7042 13.3938C34.2463 13.9337 34.737 14.5248 35.2956 15.1435L39.7707 12.5856C39.7707 12.0499 39.7021 11.595 39.786 11.1695C39.9311 10.4319 40.4657 10.0102 41.1942 9.88969C41.5129 9.81971 41.8457 9.84981 42.1465 9.97581C42.4472 10.1018 42.701 10.3175 42.8728 10.593C43.5622 11.6881 44.2185 12.8068 44.8254 13.9488C45.2181 14.6882 44.9121 15.6085 44.2261 16.078C43.892 16.3101 43.4866 16.4189 43.0802 16.3857C42.6738 16.3524 42.2919 16.1791 42.0006 15.8959C41.8953 15.7959 41.8047 15.6808 41.674 15.5357L37.1372 18.1339C37.556 19.6821 37.9621 21.1829 38.3862 22.7506C39.5017 22.7506 40.7105 22.7375 41.919 22.7551C42.3082 22.7595 42.6848 22.8928 42.9891 23.1337C43.2934 23.3746 43.508 23.7094 43.5988 24.0851C43.6936 24.4407 43.668 24.8174 43.5258 25.1571C43.3836 25.4969 43.1327 25.7807 42.8119 25.965C42.4898 26.1328 42.1333 26.2252 41.7696 26.2352C40.6165 26.2681 39.4617 26.2475 38.3859 26.2475C37.9647 27.803 37.5598 29.3037 37.1385 30.863L41.6103 33.4283C41.8848 33.1895 42.1793 32.9743 42.4906 32.7849C42.8124 32.6222 43.1786 32.5669 43.5346 32.6271C43.8907 32.6872 44.2177 32.8597 44.4672 33.119C44.9711 33.6185 45.1709 34.404 44.8317 35.0348C44.2103 36.1899 43.5565 37.3312 42.8486 38.4353C42.3923 39.1464 41.4511 39.318 40.6884 38.948C40.3132 38.7682 40.0155 38.4608 39.8493 38.0816C39.6832 37.7024 39.6597 37.2766 39.783 36.8817C39.8181 36.762 39.8557 36.6434 39.9025 36.491L35.5953 34.0255L32.1647 37.3925L33.6487 39.6632C33.9481 40.1214 34.2619 40.5711 34.5438 41.0391C35.0648 41.9026 34.8433 42.9246 34.0408 43.4449C33.2051 43.9867 32.1682 43.7788 31.5838 42.9135C30.8067 41.7648 30.0593 40.597 29.2982 39.4371C29.1888 39.2706 29.0739 39.1076 28.9932 38.9895L24.2839 40.2647V45.4405C24.4497 45.4852 24.6222 45.5243 24.79 45.5781C25.1787 45.6994 25.513 45.9505 25.7363 46.2887C25.9596 46.6269 26.058 47.0314 26.0148 47.4335C25.9727 47.837 25.7882 48.2128 25.4938 48.4942C25.1994 48.7757 24.8141 48.9447 24.4062 48.9714C23.1405 49.009 21.874 49.0095 20.6065 48.973C20.1995 48.9459 19.8148 48.7787 19.5188 48.5002C19.2228 48.2217 19.034 47.8493 18.9851 47.4474C18.9362 47.0455 19.0303 46.6393 19.251 46.2988C19.4717 45.9584 19.8053 45.7052 20.1941 45.5828C20.3501 45.5317 20.513 45.5011 20.7057 45.4527V40.2593L16.0164 38.9945C15.9569 39.078 15.8283 39.2476 15.7116 39.4247C14.9594 40.5683 14.2174 41.7182 13.4572 42.8558C12.8524 43.7615 11.8284 43.9977 10.972 43.452C10.131 42.9161 9.9225 41.8599 10.5037 40.9579C11.324 39.6851 12.1618 38.4234 13.0035 37.1395C12.4272 36.6243 11.8368 36.1392 11.298 35.603C10.7558 35.063 10.2647 34.4726 9.70682 33.8552L5.24289 36.4074C5.24289 36.9299 5.30379 37.3654 5.22973 37.7762C5.09653 38.515 4.58601 38.9508 3.8577 39.0948C3.14308 39.2363 2.50936 39.0017 2.12784 38.4006C1.43451 37.308 0.783182 36.1897 0.173859 35.0458C-0.218375 34.3082 0.0896214 33.3855 0.776163 32.9176C1.11121 32.6876 1.51638 32.5801 1.92241 32.6137C2.32843 32.6473 2.7101 32.8198 3.00216 33.1017C3.10746 33.2019 3.19766 33.3172 3.32823 33.4624L7.92483 30.8309ZM18.9727 27.993C18.9718 27.3021 18.7647 26.6269 18.3775 26.0527C17.9903 25.4785 17.4403 25.0311 16.797 24.7668C16.1538 24.5026 15.446 24.4334 14.7632 24.568C14.0803 24.7026 13.453 25.035 12.9603 25.5232C12.4676 26.0113 12.1318 26.6334 11.9951 27.3109C11.8584 27.9884 11.927 28.6909 12.1923 29.3297C12.4576 29.9685 12.9076 30.515 13.4856 30.9001C14.0636 31.2853 14.7436 31.4919 15.4398 31.4938C15.9035 31.4945 16.3627 31.4045 16.7913 31.2289C17.2199 31.0533 17.6094 30.7955 17.9376 30.4704C18.2657 30.1452 18.526 29.7591 18.7036 29.334C18.8813 28.9089 18.9727 28.4532 18.9727 27.993ZM26.0225 16.616C26.0201 16.0987 25.8635 15.5937 25.5724 15.1645C25.2814 14.7353 24.8689 14.4011 24.3869 14.2041C23.9049 14.0071 23.3749 13.956 22.8637 14.0573C22.3525 14.1585 21.8829 14.4076 21.5141 14.7732C21.1452 15.1388 20.8936 15.6045 20.7909 16.1117C20.6881 16.6189 20.7389 17.1449 20.9368 17.6235C21.1347 18.1021 21.4708 18.512 21.9029 18.8014C22.335 19.0908 22.8437 19.2469 23.365 19.25C23.7139 19.2508 24.0596 19.1832 24.3821 19.0512C24.7047 18.9192 24.9978 18.7252 25.2447 18.4805C25.4916 18.2358 25.6874 17.9452 25.8209 17.6252C25.9544 17.3053 26.0229 16.9623 26.0225 16.616ZM31.3101 30.6284C31.3114 30.111 31.1584 29.6048 30.8705 29.1736C30.5825 28.7423 30.1725 28.4052 29.6919 28.2047C29.2113 28.0043 28.6817 27.9494 28.1698 28.047C27.6578 28.1446 27.1864 28.3903 26.8149 28.7532C26.4434 29.1161 26.1883 29.58 26.0819 30.0865C25.9754 30.5929 26.0224 31.1193 26.2167 31.5993C26.4111 32.0794 26.7442 32.4917 27.1741 32.7842C27.6041 33.0768 28.1116 33.2366 28.6329 33.2435C28.9818 33.2468 29.328 33.1818 29.6516 33.052C29.9752 32.9223 30.2698 32.7305 30.5185 32.4875C30.7672 32.2446 30.9652 31.9553 31.101 31.6363C31.2368 31.3172 31.3079 30.9747 31.3101 30.6284Z" fill="#FF9900"/>
</svg>
