<svg width="64" height="54" viewBox="0 0 64 54" fill="none" xmlns="http://www.w3.org/2000/svg">
<path d="M48.9225 44.9869C48.9225 42.328 48.9253 39.849 48.9209 37.3702C48.9193 36.4562 48.9788 35.5332 48.8747 34.6299C48.6011 32.2582 46.938 30.5388 44.5791 30.081C44.4306 30.0522 44.2829 30.0187 44.0696 29.9737C43.6084 26.125 41.8035 23.0526 38.5253 20.9127C36.3594 19.4861 33.7772 18.8284 31.1928 19.0451C25.2918 19.4742 20.5557 24.1925 20.0554 29.9729C19.7313 30.0405 19.3896 30.0938 19.0579 30.1839C17.956 30.4824 16.9829 31.1354 16.289 32.042C15.5951 32.9486 15.2188 34.0585 15.2184 35.2001C15.1986 38.1609 15.2126 41.1221 15.2122 44.0827V44.8362C13.8673 44.9929 12.5045 44.8658 11.2117 44.4632C4.72265 42.5796 0.288296 36.2569 0.725487 29.5066C0.947966 26.1881 2.29067 23.0436 4.53369 20.5879C6.77672 18.1323 9.78713 16.5111 13.0719 15.9898C14.2695 15.8042 14.2695 15.8042 14.5066 14.6217C16.0271 7.04907 21.694 1.53968 29.2995 0.239806C38.8889 -1.39911 48.3982 5.55628 49.7142 15.1864C49.7818 15.682 49.9434 15.8559 50.4676 15.9079C57.0778 16.5634 62.6126 22.0951 63.3178 28.7139C64.1195 36.2373 59.3905 42.9585 52.0469 44.6625C51.0664 44.8915 50.0308 44.8786 48.9225 44.9869Z" fill="#465987"/>
<path d="M41.0415 33.1264C41.9094 33.1264 42.758 33.1161 43.606 33.129C44.8995 33.1488 45.7796 34.0169 45.7818 35.313C45.7907 40.6249 45.7907 45.9369 45.7818 51.2489C45.7792 52.6156 44.8882 53.4124 43.4002 53.4132C36.2147 53.4168 29.0292 53.4173 21.8438 53.4146C21.343 53.4146 20.8414 53.4279 20.3417 53.4027C19.8115 53.3936 19.3062 53.176 18.9352 52.7972C18.5641 52.4183 18.3571 51.9086 18.359 51.3784C18.3423 45.9794 18.3423 40.5804 18.359 35.1813C18.3626 34.0149 19.2794 33.1558 20.4654 33.1314C21.3351 33.1137 22.2053 33.128 23.1818 33.128C23.1818 32.419 23.1732 31.7328 23.1831 31.0461C23.2246 28.1948 24.3248 25.8209 26.577 24.0816C29.425 21.882 32.5933 21.4819 35.8446 23.0244C39.0893 24.5638 40.7651 27.2566 40.9469 30.8518C40.9822 31.5458 40.9598 32.2445 40.9668 32.9408C40.9838 33.0056 41.0089 33.0679 41.0415 33.1264ZM27.3175 33.0802H36.7676C36.7676 32.3204 36.7852 31.6051 36.7644 30.8907C36.7257 29.7495 36.2752 28.6609 35.496 27.8262C34.7168 26.9915 33.6618 26.4672 32.5259 26.3503C31.3666 26.2304 30.2047 26.5511 29.2709 27.2484C28.3371 27.9458 27.6997 28.9689 27.4855 30.1145C27.3165 31.0656 27.3687 32.0557 27.3175 33.0802Z" fill="#465987"/>
</svg>
