<svg width="48" height="49" viewBox="0 0 48 49" fill="none" xmlns="http://www.w3.org/2000/svg">
<path d="M38.0653 24.3423C33.1757 22.8887 29.004 23.9009 26.0322 28.1284C24.822 29.7059 24.1451 31.6275 24.0995 33.6152C24.0539 35.6029 24.6419 37.5535 25.7785 39.1848C28.6857 43.7193 32.9652 44.8532 38.0564 43.3705C38.0564 44.6046 38.1046 45.8438 38.0412 47.0767C37.9967 47.5958 37.7601 48.0797 37.3778 48.4337C36.9954 48.7876 36.4948 48.9862 35.9737 48.9907C35.8875 48.9907 35.8 48.9907 35.7125 48.9907C24.6471 48.9907 13.5818 48.9907 2.51651 48.9907C2.08792 49.0314 1.65723 48.9383 1.28378 48.7241C0.910331 48.5099 0.612494 48.1851 0.431304 47.7946C0.263612 47.3774 0.184149 46.93 0.197923 46.4805C0.186085 35.2343 0.183126 23.9901 0.189045 12.7481C0.189045 9.3133 0.189045 5.87896 0.189045 2.44504C0.144758 2.11736 0.176425 1.78389 0.281597 1.4704C0.38677 1.15692 0.562629 0.871822 0.795579 0.637156C1.02853 0.402489 1.31233 0.224541 1.62503 0.117071C1.93773 0.00959984 2.27097 -0.0245146 2.59896 0.0173654C13.6288 0.0173654 24.659 0.0173654 35.6896 0.0173654C36.0086 -0.0160617 36.3309 0.0218147 36.6334 0.128255C36.9359 0.234695 37.211 0.407038 37.4387 0.632817C37.6664 0.858595 37.8411 1.13216 37.9501 1.43374C38.0592 1.73531 38.0998 2.05734 38.0691 2.37655C38.0691 9.54203 38.0691 16.7071 38.0691 23.8717L38.0653 24.3423ZM19.079 4.94374H8.00478C7.15243 4.94374 6.933 5.16571 6.93173 6.03454C6.93173 7.86354 6.93173 9.69296 6.93173 11.5228C6.93173 12.3549 7.16512 12.5921 7.97814 12.5921H30.2851C31.0461 12.5921 31.2871 12.3599 31.2896 11.6027C31.2896 9.72044 31.2896 7.8386 31.2896 5.95717C31.2896 5.16317 31.0626 4.94247 30.2597 4.94247L19.079 4.94374ZM12.68 20.1858C12.68 19.3855 12.68 18.5839 12.68 17.7822C12.68 17.0986 12.453 16.8766 11.7719 16.8754C10.1864 16.8754 8.60176 16.8754 7.01798 16.8754C6.34194 16.8754 6.11363 17.1024 6.11109 17.7911C6.10348 19.3766 6.10348 20.9621 6.11109 22.5475C6.11109 23.2248 6.35209 23.4582 7.02686 23.4595C8.61064 23.4646 10.1953 23.4646 11.7807 23.4595C12.4504 23.4595 12.6749 23.2236 12.68 22.5387C12.6851 21.7548 12.6813 20.9709 12.68 20.1858ZM12.68 41.2409C12.68 40.4393 12.68 39.6376 12.68 38.831C12.68 38.1803 12.4441 37.9279 11.8137 37.9241C10.1936 37.9148 8.5747 37.9148 6.9571 37.9241C6.37111 37.9241 6.1187 38.1777 6.11363 38.7523C6.10264 40.4063 6.10264 42.0607 6.11363 43.7155C6.11363 44.2748 6.36731 44.4993 6.93173 44.5019C8.56794 44.5095 10.2041 44.5095 11.8404 44.5019C12.453 44.5019 12.6724 44.2698 12.6787 43.6356C12.6864 42.8378 12.68 42.0361 12.68 41.2358V41.2409ZM9.39999 27.4156C8.58189 27.4156 7.76379 27.4092 6.94568 27.4156C6.34955 27.4219 6.11236 27.6401 6.10856 28.2337C6.09756 29.8699 6.09756 31.5061 6.10856 33.1423C6.10856 33.7359 6.34955 33.9756 6.93554 33.9807C8.5709 33.9908 10.2067 33.9908 11.8429 33.9807C12.4365 33.9807 12.6699 33.7397 12.6737 33.1537C12.6813 31.5158 12.6813 29.8792 12.6737 28.2438C12.6737 27.6464 12.4454 27.4232 11.853 27.4168C11.0387 27.408 10.2206 27.4156 9.39999 27.4156ZM24.6002 19.0785H31.5471C31.7386 19.0785 31.9276 19.0785 32.1217 19.0785C32.1965 19.0837 32.2715 19.0731 32.342 19.0476C32.4125 19.0221 32.4769 18.9822 32.5311 18.9304C32.5853 18.8786 32.6281 18.816 32.6568 18.7468C32.6854 18.6775 32.6993 18.603 32.6975 18.5281C32.7027 18.4532 32.6925 18.3781 32.6676 18.3074C32.6427 18.2366 32.6035 18.1717 32.5525 18.1167C32.5015 18.0617 32.4398 18.0177 32.3712 17.9874C32.3025 17.9572 32.2284 17.9413 32.1534 17.9408C32.0146 17.9289 31.8752 17.926 31.7361 17.9319H17.5303C17.3911 17.9249 17.2516 17.9287 17.113 17.9433C16.7743 17.9953 16.5257 18.2122 16.6145 18.542C16.6716 18.7513 16.9354 18.9225 17.1396 19.0671C17.2348 19.1331 17.4111 19.0823 17.5493 19.0823L24.6002 19.0785ZM24.6205 21.2601H21.7502C20.2535 21.2601 18.7555 21.2601 17.2589 21.2601C16.8707 21.2601 16.5993 21.4047 16.5968 21.8208C16.5942 22.2368 16.8657 22.3941 17.2474 22.4055C17.2994 22.4055 17.3527 22.4055 17.4047 22.4055C22.2245 22.4055 27.0444 22.4055 31.8642 22.4055C32.2891 22.4055 32.6798 22.3243 32.6861 21.8284C32.6925 21.3324 32.3056 21.2525 31.8756 21.2538C29.4619 21.2639 27.0418 21.2601 24.6205 21.2601ZM19.6612 40.126C20.4425 40.126 21.2238 40.126 22.0051 40.126C22.4047 40.126 22.7065 39.9991 22.6989 39.5489C22.6926 39.1265 22.3996 38.987 22.0292 38.9857C20.4319 38.9857 18.8342 38.9857 17.236 38.9857C16.8555 38.9857 16.5866 39.1595 16.5942 39.5742C16.6018 39.989 16.8834 40.126 17.2639 40.1247C18.0655 40.1222 18.8646 40.126 19.6637 40.126H19.6612ZM19.6383 43.4555C20.4209 43.4555 21.2022 43.4555 21.9836 43.4555C22.3793 43.4555 22.6926 43.3388 22.6977 42.8898C22.7027 42.4408 22.397 42.3038 22 42.3038C20.4366 42.3038 18.8722 42.3038 17.3071 42.3038C16.9113 42.3038 16.5993 42.4306 16.593 42.8758C16.5866 43.321 16.8885 43.4593 17.2918 43.4567C18.077 43.4516 18.8595 43.4555 19.6409 43.4555H19.6383ZM19.6079 28.4645C18.8253 28.4645 18.044 28.4645 17.2627 28.4645C16.8821 28.4645 16.6044 28.6053 16.5968 29.0213C16.5892 29.4374 16.8657 29.6099 17.2411 29.6111C18.7872 29.6187 20.3334 29.6111 21.8783 29.6111C22.2588 29.6111 22.5492 29.4386 22.5518 29.0416C22.5518 28.6142 22.2563 28.4569 21.8478 28.4607C21.1008 28.4747 20.355 28.4645 19.6079 28.4645ZM19.5533 32.9229C20.303 32.9229 21.0526 32.9229 21.8022 32.9229C22.2169 32.9229 22.5632 32.796 22.5505 32.328C22.5378 31.8929 22.1979 31.7724 21.8085 31.7724H17.3121C16.9316 31.7724 16.6006 31.8904 16.598 32.3457C16.5955 32.8011 16.9139 32.9203 17.3058 32.9203L19.5533 32.9229Z" fill="#465987"/>
<path d="M42.1443 38.4136C43.6144 39.3636 45.0616 40.2502 46.4568 41.2218C46.8739 41.5147 47.2129 41.9053 47.4442 42.3594C47.6755 42.8136 47.792 43.3175 47.7835 43.8271C47.8002 44.5114 47.6087 45.1846 47.2343 45.7576C46.8599 46.3307 46.3203 46.7765 45.6869 47.036C45.0569 47.3054 44.359 47.3731 43.689 47.2298C43.019 47.0865 42.4098 46.7392 41.9452 46.2357C40.8724 44.9956 39.9819 43.6088 39.3006 42.1173C39.2169 41.9461 39.1358 41.7736 39.0305 41.5541C37.8181 42.2873 36.4499 42.7241 35.0369 42.8291C33.624 42.934 32.2063 42.704 30.8989 42.1579C29.0012 41.4 27.4321 39.9962 26.4685 38.1942C25.7121 36.8135 25.331 35.2585 25.363 33.6845C25.395 32.1105 25.8391 30.5724 26.651 29.2236C27.4629 27.8748 28.6142 26.7623 29.9901 25.9973C31.3661 25.2322 32.9185 24.8411 34.4927 24.8632C36.0669 24.8852 37.6078 25.3196 38.9617 26.1229C40.3157 26.9262 41.4354 28.0704 42.2092 29.4414C42.983 30.8125 43.3839 32.3624 43.3718 33.9367C43.3598 35.511 42.9352 37.0546 42.1405 38.4136H42.1443ZM34.3489 39.5044C35.4691 39.5047 36.5641 39.1725 37.4953 38.55C38.4266 37.9275 39.1522 37.0426 39.5802 36.0075C40.0082 34.9723 40.1194 33.8335 39.8997 32.7351C39.6801 31.6367 39.1394 30.6281 38.3462 29.8372C37.5529 29.0463 36.5429 28.5086 35.4438 28.2921C34.3448 28.0757 33.2062 28.1902 32.1723 28.6212C31.1384 29.0523 30.2557 29.7804 29.6359 30.7135C29.0161 31.6466 28.6872 32.7425 28.6907 33.8627C28.697 35.3594 29.2959 36.7927 30.3563 37.849C31.4166 38.9053 32.8522 39.4987 34.3489 39.4994V39.5044Z" fill="#465987"/>
<path d="M33.8631 33.7308C34.3641 33.3909 34.8246 33.0789 35.2824 32.7656C35.342 32.7064 35.414 32.6614 35.4932 32.6338C35.5725 32.6062 35.6569 32.5967 35.7403 32.6061C35.8237 32.6155 35.9039 32.6435 35.975 32.688C36.0462 32.7325 36.1064 32.7924 36.1513 32.8633C36.391 33.2032 36.2413 33.4974 35.9306 33.708C35.3311 34.1249 34.7282 34.5384 34.1219 34.9485C34.0557 35.0066 33.9774 35.0492 33.8927 35.0734C33.808 35.0975 33.7189 35.1026 33.6321 35.0881C33.5452 35.0737 33.4626 35.0401 33.3902 34.9899C33.3179 34.9396 33.2576 34.8739 33.2137 34.7975C32.9956 34.5033 32.7723 34.2141 32.5656 33.9097C32.5182 33.8499 32.4833 33.7811 32.463 33.7075C32.4428 33.634 32.4375 33.557 32.4476 33.4814C32.4577 33.4057 32.483 33.3329 32.5219 33.2672C32.5607 33.2016 32.6124 33.1444 32.6739 33.0991C32.7353 33.0539 32.8053 33.0214 32.8795 33.0038C32.9538 32.9862 33.0308 32.9837 33.1061 32.9965C33.1813 33.0093 33.2532 33.0371 33.3175 33.0783C33.3817 33.1194 33.437 33.1731 33.4801 33.2362C33.6018 33.3846 33.7147 33.538 33.8631 33.7308Z" fill="#465987"/>
</svg>
