<svg width="65" height="51" viewBox="0 0 65 51" fill="none" xmlns="http://www.w3.org/2000/svg">
<path d="M0 20.1421C0.499895 19.0603 1.35686 18.6488 2.52119 18.759C2.9757 18.802 3.44077 18.732 3.89546 18.7754C4.36816 18.8206 4.57086 18.6557 4.73678 18.1979C5.20811 16.8903 5.75593 15.6103 6.31824 14.2085C5.8117 13.7223 5.21652 13.1696 4.64247 12.5959C3.71253 11.6663 3.70333 10.603 4.6184 9.68261C6.2932 7.99725 7.97302 6.31658 9.65786 4.64061C10.607 3.6958 11.6549 3.70422 12.6171 4.66272C13.1777 5.22131 13.7212 5.79752 14.2131 6.30308C15.7028 5.71867 17.1132 5.17592 18.51 4.6009C18.5838 4.54354 18.6439 4.47047 18.686 4.38697C18.728 4.30348 18.7509 4.21167 18.753 4.11822C18.7794 3.36867 18.7493 2.61717 18.7694 1.8682C18.7959 0.880543 19.5039 0.0501892 20.4634 0.0259282C22.375 -0.0223983 24.2888 0.0116458 26.2352 0.0116458V11.367C21.8162 10.8869 18.007 12.1412 14.9188 15.3257C13.7387 16.5127 12.8079 17.9237 12.1812 19.4757C11.5544 21.0278 11.2444 22.6895 11.2693 24.3631C11.2763 28.3319 12.7909 31.668 15.7795 34.2804C18.7681 36.8927 22.284 37.8693 26.2393 37.4191V48.7427C26.086 48.7652 25.9317 48.78 25.777 48.7869C24.1302 48.7903 22.4833 48.7934 20.8365 48.7869C19.5374 48.7824 18.7745 48.0239 18.7649 46.7341C18.7597 46.0464 18.7892 45.3567 18.7468 44.6716C18.7298 44.5639 18.6887 44.4615 18.6264 44.3721C18.5642 44.2827 18.4824 44.2086 18.3873 44.1554C17.0479 43.5923 15.6928 43.0666 14.1923 42.4697C13.7327 42.9541 13.1876 43.5524 12.6167 44.1251C11.657 45.0875 10.6066 45.0938 9.65786 44.1495C7.97393 42.4729 6.29398 40.7925 4.61801 39.1081C3.70333 38.1886 3.71194 37.1234 4.6411 36.1951C5.21534 35.6214 5.81072 35.0691 6.3065 34.5934C5.71407 33.0845 5.1766 31.6899 4.60804 30.3086C4.5562 30.2318 4.48778 30.1676 4.40783 30.1208C4.32788 30.074 4.23844 30.0457 4.1461 30.038C3.60569 29.9954 3.06282 29.9938 2.52217 30.0333C1.35745 30.138 0.501852 29.7287 0.000586918 28.6491L0 20.1421Z" fill="#23183D"/>
<path d="M64.0492 15.0138V46.5375C64.0492 48.0851 63.3448 48.7895 61.7991 48.7895H30.0485V0.036499H49.0386V12.5605C49.0386 14.3781 49.6647 15.014 51.4608 15.014L64.0492 15.0138Z" fill="#23183D"/>
<path d="M26.2404 15.2368V19.0325C23.4984 18.351 21.2182 19.0129 19.6635 21.3946C18.4039 23.324 18.4309 25.3768 19.6279 27.3562C20.9279 29.5055 22.7357 30.1511 26.2445 29.7886V33.5226C23.9859 34.2291 19.734 33.64 17.0154 30.184C15.809 28.6498 15.1123 26.7769 15.0228 24.8273C14.9332 22.8777 15.4551 20.9489 16.5157 19.3105C18.6225 16.0597 22.6927 14.3409 26.2404 15.2368Z" fill="#23183D"/>
<path d="M52.8102 11.2124V1.38512L62.6389 11.2124H52.8102Z" fill="#23183D"/>
<path d="M24.3966 26.2693C24.0252 26.27 23.6619 26.1604 23.3529 25.9543C23.0439 25.7481 22.8031 25.4549 22.6611 25.1117C22.519 24.7685 22.4821 24.3909 22.5551 24.0267C22.628 23.6625 22.8075 23.3282 23.0707 23.0661C23.334 22.8041 23.6691 22.6262 24.0337 22.555C24.3982 22.4838 24.7757 22.5225 25.1182 22.6661C25.4607 22.8098 25.7528 23.052 25.9575 23.3619C26.1621 23.6719 26.2701 24.0357 26.2676 24.4071C26.258 24.8995 26.0575 25.3689 25.7084 25.7163C25.3594 26.0637 24.889 26.262 24.3966 26.2693Z" fill="#23183D"/>
<path d="M56.4684 24.2514V25.0916C56.4557 25.1358 56.4458 25.1807 56.4386 25.2262C56.3073 26.6599 55.6672 27.9994 54.6339 29.0022C51.8825 31.7551 49.1303 34.5073 46.3773 37.2588C45.5791 38.0812 44.5623 38.658 43.4468 38.9211C43.124 38.9958 42.7934 39.037 42.4664 39.0935H41.6264C41.596 39.0812 41.5644 39.0719 41.5322 39.066C40.5508 38.994 39.6042 38.6726 38.7819 38.1322C37.1794 37.0774 36.2369 35.5923 36.0302 33.685C35.8217 31.7525 36.4444 30.0847 37.8138 28.7095C40.565 25.9469 43.3216 23.1896 46.0836 20.4377C47.0995 19.3881 48.465 18.7472 49.9216 18.6363C51.3216 18.5211 52.7179 18.8978 53.8699 19.7014C55.0219 20.505 55.8576 21.6853 56.2328 23.0388C56.3422 23.4355 56.3918 23.8471 56.4684 24.2514ZM49.5429 31.4545C49.5622 31.4403 49.5806 31.4249 49.5979 31.4083C50.852 30.1547 52.1171 28.9117 53.3565 27.6438C54.8911 26.0741 55.0422 23.8063 53.7095 22.0925C52.7615 20.8739 51.4744 20.3587 49.9431 20.5046C48.9519 20.6103 48.032 21.0698 47.3522 21.7989C46.1553 23.0061 44.9535 24.2082 43.7467 25.4053C43.7005 25.4455 43.6507 25.4814 43.5981 25.5127L49.5429 31.4545ZM37.8647 32.8284C37.8586 32.9279 37.8595 33.0277 37.8672 33.127C37.8841 33.2206 37.93 33.3065 37.9984 33.3725C38.0668 33.4385 38.1543 33.4814 38.2484 33.495C38.3425 33.5086 38.4385 33.4923 38.5228 33.4484C38.6072 33.4044 38.6755 33.3351 38.7183 33.2501C38.7587 33.1448 38.7804 33.0333 38.7825 32.9206C38.795 32.1584 39.0929 31.4286 39.6175 30.8754C40.5334 29.9252 41.4755 29.0001 42.4057 28.0639C42.4733 27.9998 42.5337 27.9285 42.5859 27.8513C42.6185 27.8008 42.6404 27.7443 42.6505 27.685C42.6605 27.6258 42.6584 27.5651 42.6442 27.5067C42.63 27.4484 42.6041 27.3935 42.5681 27.3454C42.532 27.2974 42.4865 27.2572 42.4344 27.2272C42.2339 27.1023 42.0089 27.1468 41.7916 27.3637C40.8945 28.2582 39.9987 29.1539 39.1041 30.0508C38.3512 30.7841 37.9078 31.7779 37.8651 32.828L37.8647 32.8284Z" fill="white"/>
<path d="M53.4511 43.9921L53.0801 44.3631C53.055 44.377 53.0308 44.3925 53.0076 44.4094C52.3166 44.9844 51.4426 45.2932 50.5437 45.2798C48.1135 45.2806 45.6833 45.2808 43.2531 45.2803C42.5376 45.291 41.834 45.0968 41.2254 44.7205C41.0499 44.611 40.8858 44.4832 40.7165 44.3638L40.3456 43.9929C40.3377 43.9741 40.3278 43.9561 40.3162 43.9392C39.9147 43.4742 39.6387 42.9144 39.5143 42.3128C39.2726 41.1396 39.5122 40.0678 40.2631 39.1344C41.0243 38.1891 42.0356 37.7276 43.2473 37.725C45.6816 37.7198 48.116 37.7194 50.5504 37.7237C51.4623 37.7088 52.3481 38.0286 53.0401 38.6227C53.709 39.1899 54.1591 39.9726 54.3129 40.836C54.4666 41.6994 54.3144 42.5894 53.8825 43.3527C53.7556 43.5761 53.5958 43.7798 53.4511 43.9921ZM47.2134 44.1151C47.2282 44.1173 47.2431 44.1186 47.258 44.119C48.3652 44.119 49.4725 44.1287 50.5794 44.1161C51.95 44.1006 53.018 43.1659 53.1863 41.821C53.3058 40.8644 52.9652 40.0687 52.2247 39.4571C51.7404 39.0662 51.1314 38.8629 50.5094 38.8847C49.448 38.8894 48.3867 38.8896 47.3253 38.8853C47.2872 38.8827 47.2494 38.8766 47.2124 38.8671L47.2134 44.1151ZM41.4511 39.5661C41.4046 39.6073 41.3609 39.6517 41.3204 39.699C41.2866 39.7478 41.2689 39.806 41.27 39.8653C41.271 39.9247 41.2907 39.9822 41.3262 40.0298C41.3618 40.0774 41.4113 40.1125 41.468 40.1304C41.5246 40.1482 41.5854 40.1478 41.6418 40.1291C41.7061 40.1005 41.7649 40.0608 41.8157 40.012C42.1577 39.6809 42.6114 39.4902 43.0873 39.4776C43.9112 39.4624 44.7355 39.4699 45.5595 39.4671C45.6176 39.4687 45.6758 39.4639 45.7329 39.4528C45.7696 39.4449 45.8043 39.4297 45.8349 39.4079C45.8654 39.3862 45.8913 39.3585 45.9108 39.3264C45.9303 39.2944 45.9431 39.2587 45.9484 39.2216C45.9537 39.1845 45.9514 39.1466 45.9416 39.1104C45.9082 38.9667 45.7893 38.8871 45.5975 38.8869C44.8066 38.8858 44.0157 38.8858 43.2247 38.8869C42.5685 38.8782 41.9336 39.1213 41.4511 39.5661Z" fill="white"/>
</svg>
