<svg width="50" height="50" viewBox="0 0 50 50" fill="none" xmlns="http://www.w3.org/2000/svg">
<circle cx="25" cy="25" r="25" fill="#544179"/>
<path d="M24.9558 33.5259C24.1178 33.5259 23.4049 33.7899 22.8138 34.3193C22.2224 34.8487 21.9269 35.4917 21.9269 36.2453C21.9269 37.0986 22.2259 37.767 22.823 38.254C23.4223 38.7405 24.1178 38.984 24.9156 38.984C25.7269 38.984 26.4338 38.744 27.0388 38.2627C27.6438 37.7828 27.9446 37.1109 27.9446 36.2458C27.9446 35.4917 27.656 34.8491 27.0786 34.3197C26.4998 33.7899 25.793 33.5259 24.9558 33.5259Z" fill="white"/>
<path d="M33.4971 14.7883C32.7295 13.6211 31.6301 12.6852 30.2273 12.0102C28.8346 11.3383 27.2119 11 25.4013 11C23.4534 11 21.7201 11.407 20.2513 12.2109C18.7795 13.0143 17.6451 14.046 16.8748 15.2796C16.0994 16.5172 15.7086 17.7613 15.7086 18.9783C15.7086 19.6296 15.9778 20.2359 16.509 20.781C17.0427 21.3292 17.7072 21.6072 18.4827 21.6072C19.8028 21.6072 20.7077 20.8291 21.1671 19.3074C21.5855 18.0454 22.1009 17.085 22.6971 16.4481C23.2584 15.8483 24.1685 15.545 25.4017 15.545C26.4653 15.545 27.3042 15.8431 27.9699 16.4568C28.6256 17.0636 28.9443 17.7875 28.9443 18.6679C28.9483 19.0942 28.8408 19.5142 28.6326 19.8862C28.4114 20.2834 28.1359 20.648 27.8143 20.9694C27.4733 21.3104 26.9112 21.8249 26.1427 22.4964C25.2474 23.281 24.5248 23.9704 23.9972 24.5391C23.4393 25.1481 22.9911 25.8491 22.6726 26.6112C22.34 27.3998 22.1717 28.3387 22.1717 29.4032C22.1717 30.3129 22.4252 31.0171 22.9266 31.4971C23.4228 31.9736 24.0405 32.2153 24.7639 32.2153C26.147 32.2153 27.0156 31.4595 27.2736 30.0458C27.4073 29.4578 27.5048 29.0469 27.5708 28.8122C27.6307 28.5997 27.7172 28.382 27.8287 28.1643C27.9367 27.9536 28.1081 27.7136 28.3376 27.4496C28.5775 27.1738 28.9041 26.8481 29.3023 26.4848C30.7925 25.1533 31.8434 24.1885 32.4266 23.6176C33.0281 23.0279 33.5526 22.3219 33.9876 21.5167C34.4317 20.6905 34.6577 19.7205 34.6577 18.6325C34.6569 17.2537 34.2661 15.9615 33.4945 14.7896" fill="white"/>
</svg>
