<svg width="49" height="51" viewBox="0 0 49 51" fill="none" xmlns="http://www.w3.org/2000/svg">
<path d="M41.3364 40.1612C40.2092 40.1612 39.1605 40.1612 38.1134 40.1612C37.7831 40.1932 37.4498 40.1518 37.1374 40.0401C36.8249 39.9284 36.5409 39.7491 36.3057 39.5149C36.0706 39.2808 35.89 38.9977 35.7769 38.6857C35.6637 38.3737 35.6209 38.0406 35.6514 37.7102C35.6451 33.4558 35.6451 29.2014 35.6514 24.947C35.6248 24.621 35.6694 24.293 35.7821 23.9859C35.8948 23.6788 36.0729 23.3998 36.3041 23.1683C36.5353 22.9369 36.814 22.7584 37.121 22.6453C37.428 22.5322 37.7559 22.4871 38.082 22.5133C39.1464 22.5133 40.2123 22.5133 41.2908 22.5133C41.7185 18.4719 40.7648 14.4048 38.5851 10.9749C38.4577 11.0849 38.3382 11.1793 38.2298 11.2893C37.9085 11.6688 37.5083 11.9738 37.0572 12.1829C36.6061 12.3921 36.1148 12.5004 35.6175 12.5004C35.1203 12.5004 34.629 12.3921 34.1779 12.1829C33.7268 11.9738 33.3266 11.6688 33.0053 11.2893C31.1555 9.42975 28.7503 8.22329 26.1537 7.85249C24.2396 7.53326 22.2771 7.67495 20.4287 8.26582C18.5804 8.85669 16.8995 9.8797 15.5256 11.25C15.1001 11.7447 14.5433 12.1089 13.9196 12.3006C13.2958 12.4922 12.6306 12.5036 12.0007 12.3333C11.4576 12.1254 10.9488 11.8371 10.4914 11.478C10.2956 11.2842 10.1307 11.0615 10.0025 10.8177C7.76031 14.279 6.77102 18.4037 7.19922 22.5054H9.4003C9.81065 22.5054 10.2194 22.496 10.6282 22.5054C11.2061 22.5086 11.7598 22.7377 12.1711 23.1437C12.5824 23.5496 12.8186 24.1004 12.8293 24.6782C12.8513 29.1108 12.8513 33.5428 12.8293 37.9743C12.8289 38.2616 12.7714 38.546 12.6603 38.8109C12.5491 39.0759 12.3864 39.3161 12.1816 39.5177C11.9768 39.7192 11.7341 39.8781 11.4674 39.9851C11.2007 40.092 10.9155 40.145 10.6282 40.1408C8.99153 40.166 7.35172 40.1801 5.71663 40.1314C4.31296 40.0759 2.98114 39.496 1.98419 38.5063C0.987233 37.5166 0.397638 36.1891 0.331841 34.7859C0.267381 32.4747 0.270526 30.1573 0.331841 27.8462C0.390372 26.6728 0.816667 25.5475 1.55033 24.6299C2.28399 23.7122 3.28781 23.0487 4.41957 22.7334C4.49179 22.7263 4.56172 22.7041 4.62483 22.6682C4.68794 22.6324 4.74282 22.5837 4.78594 22.5253C4.82906 22.4669 4.85945 22.4001 4.87515 22.3293C4.89085 22.2584 4.8915 22.1851 4.87708 22.1139C4.7184 19.6784 4.97086 17.2335 5.62387 14.8818C6.57614 11.3734 8.52177 8.21477 11.2267 5.78595C13.9317 3.35712 17.2807 1.76152 20.8711 1.19107C25.8435 0.286126 30.9725 1.36909 35.1547 4.20699C39.3369 7.04489 42.238 11.411 43.2341 16.366C43.5625 18.2246 43.6854 20.1137 43.6004 21.9992C43.6004 22.4237 43.6743 22.628 44.1444 22.7743C45.305 23.1198 46.3234 23.8302 47.0484 24.8002C47.7734 25.7702 48.1665 26.9481 48.1692 28.159C48.1881 30.1872 48.1692 32.2169 48.1692 34.2466C48.2187 35.5396 47.8263 36.8109 47.0567 37.8512C46.2871 38.8914 45.1862 39.6385 43.9353 39.9694C43.8347 39.9993 43.7372 40.037 43.602 40.0826C43.602 40.798 43.602 41.5086 43.602 42.2177C43.6358 43.0081 43.5043 43.797 43.2158 44.5337C42.9273 45.2704 42.4882 45.9388 41.9266 46.4961C41.365 47.0534 40.6933 47.4873 39.9544 47.7702C39.2155 48.053 38.4257 48.1785 37.6355 48.1386C34.8417 48.1386 32.0479 48.1386 29.2226 48.1386C29.1519 48.3052 29.0906 48.4672 29.0151 48.6228C28.7554 49.2532 28.3282 49.8004 27.7798 50.2053C27.2313 50.6102 26.5825 50.8573 25.9037 50.9198C24.7884 51.0267 23.6655 51.0267 22.5502 50.9198C21.5576 50.7997 20.6488 50.3038 20.0107 49.5341C19.3726 48.7644 19.0537 47.7794 19.1196 46.7818C19.1733 45.7936 19.5936 44.8611 20.2984 44.1664C21.0032 43.4718 21.9419 43.065 22.9307 43.0258C23.9792 42.9718 25.0304 42.9976 26.0751 43.1028C26.7339 43.1871 27.3573 43.4495 27.8781 43.8617C28.3989 44.274 28.7974 44.8204 29.0308 45.4423C29.0704 45.5829 29.1596 45.7044 29.2818 45.7845C29.404 45.8645 29.5511 45.8977 29.6959 45.8778C32.3686 45.8636 35.0413 45.8778 37.7141 45.8668C38.1959 45.8931 38.6778 45.8176 39.1285 45.6452C39.5791 45.4728 39.9884 45.2074 40.3296 44.8662C40.6707 44.525 40.9362 44.1157 41.1086 43.6651C41.281 43.2144 41.3565 42.7325 41.3301 42.2507C41.3396 41.5762 41.3364 40.9017 41.3364 40.1612Z" fill="#F63D31"/>
<path d="M25.6396 36.6552H23.7388C23.7195 36.645 23.6996 36.6361 23.6791 36.6285C23.4659 36.5842 23.2723 36.4732 23.1264 36.3115C22.9806 36.1498 22.89 35.9458 22.8678 35.7292C22.8081 35.3456 22.7641 34.9604 22.7232 34.5752C22.7236 34.5279 22.7084 34.4818 22.68 34.444C22.6515 34.4062 22.6115 34.3789 22.566 34.3661C22.3317 34.2812 22.0943 34.1837 21.871 34.0784C21.8353 34.0559 21.793 34.0459 21.751 34.0498C21.7089 34.0538 21.6693 34.0716 21.6384 34.1004C21.3412 34.3394 21.0378 34.572 20.7343 34.8047C20.5292 34.9831 20.2622 35.0738 19.9908 35.0573C19.7194 35.0409 19.4653 34.9185 19.2832 34.7167C18.9342 34.3708 18.5867 34.0228 18.2408 33.6727C18.0388 33.4914 17.9163 33.2378 17.8998 32.9668C17.8834 32.6958 17.9742 32.4293 18.1528 32.2248C18.3886 31.9103 18.6244 31.6132 18.8619 31.3019C18.8788 31.275 18.8897 31.2448 18.8938 31.2133C18.8978 31.1818 18.895 31.1498 18.8854 31.1195C18.7895 30.8648 18.6858 30.6117 18.571 30.3648C18.5551 30.3342 18.5328 30.3072 18.5057 30.2858C18.4786 30.2644 18.4473 30.249 18.4138 30.2406C18.0412 30.184 17.667 30.1416 17.2928 30.0976C17.1502 30.0905 17.0108 30.053 16.8839 29.9877C16.757 29.9223 16.6456 29.8306 16.557 29.7187C16.4575 29.5582 16.3723 29.3893 16.3023 29.214V27.2802C16.3152 27.2639 16.3258 27.2459 16.3338 27.2267C16.3859 27.0158 16.5028 26.8266 16.6681 26.6856C16.8333 26.5446 17.0386 26.4589 17.2551 26.4406C17.6277 26.3872 18.0019 26.34 18.376 26.3023C18.4267 26.3025 18.4759 26.2855 18.5156 26.2541C18.5553 26.2227 18.5832 26.1787 18.5946 26.1293C18.6795 25.8935 18.7785 25.6577 18.8823 25.4344C18.9036 25.4009 18.9131 25.3612 18.9094 25.3217C18.9057 25.2821 18.889 25.2449 18.8619 25.2159C18.6197 24.914 18.3902 24.6074 18.1465 24.2993C17.9721 24.0963 17.8834 23.8335 17.8989 23.5663C17.9145 23.2992 18.0331 23.0484 18.2298 22.867C18.5757 22.518 18.9232 22.1705 19.2722 21.8246C19.4518 21.6208 19.7045 21.496 19.9755 21.4771C20.2466 21.4583 20.5141 21.547 20.7202 21.724C21.0346 21.9578 21.3407 22.1962 21.6384 22.4394C21.6674 22.4665 21.7046 22.4833 21.7441 22.487C21.7837 22.4907 21.8234 22.4811 21.8569 22.4598C22.0896 22.355 22.3265 22.2575 22.5675 22.1674C22.612 22.1565 22.6517 22.1312 22.6801 22.0953C22.7086 22.0594 22.7243 22.0151 22.7248 21.9693C22.7656 21.5951 22.8128 21.2209 22.8615 20.8483C22.8829 20.5754 23.0098 20.3216 23.2153 20.1407C23.4208 19.9599 23.6887 19.8663 23.9621 19.8798C24.4636 19.8798 24.9667 19.8798 25.4698 19.8798C25.7154 19.8762 25.9541 19.9608 26.1425 20.1184C26.331 20.2759 26.4566 20.4959 26.4965 20.7382C26.5641 21.147 26.6081 21.5605 26.6537 21.9709C26.6535 22.0136 26.6674 22.0553 26.6933 22.0894C26.7192 22.1235 26.7555 22.1481 26.7968 22.1595C27.0436 22.2476 27.2841 22.3498 27.5215 22.4598C27.5556 22.4802 27.5953 22.4889 27.6348 22.4846C27.6742 22.4804 27.7112 22.4634 27.7401 22.4362C28.0388 22.1972 28.3422 21.9646 28.6441 21.7303C28.8486 21.5518 29.1149 21.4606 29.3859 21.4762C29.6569 21.4918 29.9109 21.6129 30.0937 21.8136C30.4458 22.1579 30.7917 22.507 31.1376 22.856C31.3419 23.0391 31.4655 23.2957 31.4814 23.5696C31.4973 23.8435 31.4042 24.1126 31.2225 24.3181C30.993 24.6169 30.7618 24.9156 30.5276 25.2096C30.4978 25.2398 30.479 25.2792 30.4742 25.3213C30.4693 25.3635 30.4787 25.4061 30.5009 25.4423C30.6079 25.6689 30.7034 25.9009 30.787 26.1372C30.7998 26.1863 30.8288 26.2297 30.8693 26.2602C30.9098 26.2908 30.9595 26.3067 31.0103 26.3054C31.4112 26.3494 31.8136 26.395 32.2114 26.4626C32.4541 26.5007 32.6751 26.6246 32.8341 26.8119C32.9931 26.9992 33.0795 27.2373 33.0777 27.483C33.0777 28.0081 33.0777 28.5317 33.0777 29.0552C33.0803 29.301 32.9944 29.5395 32.8356 29.7271C32.6768 29.9148 32.4558 30.039 32.213 30.0771C31.8152 30.1447 31.4143 30.1919 31.0118 30.2343C30.9588 30.2345 30.9074 30.2525 30.866 30.2857C30.8245 30.3188 30.7956 30.365 30.7839 30.4167C30.7021 30.6478 30.6062 30.8742 30.5024 31.0959C30.4799 31.1318 30.47 31.1742 30.4742 31.2163C30.4785 31.2585 30.4967 31.298 30.526 31.3286C30.7618 31.6226 30.9977 31.9213 31.2209 32.22C31.3119 32.3227 31.3817 32.4423 31.4264 32.572C31.471 32.7017 31.4895 32.839 31.4809 32.9759C31.4723 33.1128 31.4367 33.2467 31.3761 33.3698C31.3156 33.4929 31.2313 33.6028 31.1282 33.6932C30.7854 34.0391 30.4427 34.3834 30.0952 34.7246C29.9134 34.926 29.6598 35.0479 29.3889 35.0641C29.1181 35.0803 28.8517 34.9894 28.6472 34.811C28.3433 34.5783 28.0414 34.3436 27.7416 34.1067C27.7136 34.0783 27.6768 34.0601 27.6372 34.055C27.5977 34.0498 27.5575 34.0581 27.5231 34.0784C27.2857 34.1884 27.0515 34.2891 26.7999 34.3802C26.7607 34.3889 26.7254 34.4102 26.6995 34.4409C26.6737 34.4716 26.6587 34.5099 26.6568 34.55C26.6254 34.8425 26.5897 35.1349 26.5499 35.4273C26.5423 35.7043 26.4644 35.9748 26.3235 36.2134C26.1536 36.4354 25.9119 36.5916 25.6396 36.6552ZM24.7938 24.7678C24.1022 24.7472 23.4201 24.9323 22.8338 25.2995C22.2475 25.6667 21.7833 26.1996 21.4999 26.8308C21.2166 27.4619 21.1268 28.1629 21.242 28.8451C21.3572 29.5273 21.6722 30.1599 22.1471 30.663C22.6221 31.1661 23.2355 31.517 23.9099 31.6713C24.5843 31.8256 25.2894 31.7764 25.9358 31.5299C26.5822 31.2833 27.141 30.8506 27.5413 30.2864C27.9417 29.7221 28.1657 29.0518 28.185 28.3603C28.2083 27.4351 27.8649 26.5383 27.2296 25.8653C26.5943 25.1923 25.7187 24.7978 24.7938 24.7678Z" fill="#F63D31"/>
</svg>
