<?xml version="1.0" standalone="no"?>
<!DOCTYPE svg PUBLIC "-//W3C//DTD SVG 20010904//EN"
 "http://www.w3.org/TR/2001/REC-SVG-20010904/DTD/svg10.dtd">
<svg version="1.0" xmlns="http://www.w3.org/2000/svg"
 width="458.000000pt" height="443.000000pt" viewBox="0 0 458.000000 443.000000"
 preserveAspectRatio="xMidYMid meet">

<g transform="translate(0.000000,443.000000) scale(0.100000,-0.100000)"
fill="#000000" stroke="none">
<path d="M1300 4260 l-25 -20 33 11 c17 6 32 15 32 20 0 14 -13 10 -40 -11z"/>
<path d="M2495 4251 c-33 -15 -87 -49 -119 -75 -33 -25 -69 -46 -80 -46 -54
-1 -193 -97 -182 -126 2 -7 -5 -20 -16 -31 -32 -29 -59 -90 -64 -146 l-4 -52
18 62 c28 93 69 144 145 184 20 11 37 21 37 24 0 6 -48 -15 -78 -33 -35 -23
-41 -3 -7 25 35 29 116 67 161 76 18 3 60 26 95 51 59 41 150 87 209 106 22 7
20 8 -15 9 -25 1 -63 -10 -100 -28z"/>
<path d="M2937 4255 c93 -24 208 -86 208 -113 0 -12 52 -52 68 -52 16 0 -46
76 -87 107 -50 38 -179 83 -238 83 -38 -1 -32 -4 49 -25z"/>
<path d="M3241 4248 c5 -18 9 -51 9 -73 l-1 -40 -14 30 c-16 36 -18 31 -6 -13
6 -20 6 -32 0 -32 -12 0 -11 -11 1 -30 9 -13 12 -13 24 3 31 40 23 173 -11
184 -9 3 -10 -4 -2 -29z"/>
<path d="M1350 4255 c0 -7 61 -37 66 -33 2 3 -12 12 -31 21 -19 9 -35 15 -35
12z"/>
<path d="M1218 4214 c-27 -13 -48 -27 -48 -29 0 -3 23 6 50 20 28 14 50 28 50
30 0 7 1 7 -52 -21z"/>
<path d="M1606 4169 c-8 -12 -18 -19 -23 -16 -4 2 -17 1 -28 -4 -13 -5 5 -8
53 -8 65 -1 72 -3 72 -21 0 -18 -7 -20 -62 -21 -35 -1 -53 -4 -40 -6 21 -4 22
-9 24 -101 l2 -97 5 95 6 95 30 0 c57 1 68 20 35 62 -11 14 -20 21 -20 14 0
-6 -12 -11 -26 -11 -32 0 -27 22 7 31 23 7 23 7 2 8 -12 1 -29 -8 -37 -20z"/>
<path d="M993 4173 c-7 -2 -13 -13 -13 -24 0 -12 -7 -19 -19 -19 -24 0 -39
-39 -20 -51 8 -5 20 -9 27 -9 10 0 12 -65 10 -315 -2 -205 0 -315 7 -315 7 0
9 110 7 315 -2 308 -2 315 17 315 18 0 21 -8 24 -67 l3 -68 2 68 2 67 59 0
c32 0 72 3 89 6 27 5 33 3 43 -20 10 -21 9 -33 -3 -64 l-15 -37 106 -1 c58 -1
97 1 87 3 -15 4 -16 7 -5 14 8 4 14 16 14 25 0 10 6 19 14 22 9 3 11 -1 7 -14
-3 -11 -1 -26 4 -34 7 -11 10 3 10 45 0 64 -5 64 -39 0 -12 -22 -21 -34 -21
-28 0 7 -6 10 -14 7 -8 -3 -14 -11 -12 -17 1 -7 1 -9 -1 -4 -3 4 -12 7 -22 7
-9 0 -23 6 -29 12 -10 10 -15 10 -23 -2 -9 -13 -10 -13 -7 0 2 8 -8 30 -20 48
-18 24 -20 33 -10 37 7 3 76 6 153 8 77 2 7 4 -155 3 -273 -1 -295 0 -298 17
-3 14 5 17 51 17 41 0 66 7 98 26 24 14 37 23 29 20 -83 -28 -123 -37 -132
-28 -15 15 1 35 23 29 11 -3 19 -1 19 4 0 10 -26 11 -47 2z"/>
<path d="M3287 4143 c-2 -10 -8 -27 -13 -37 -6 -15 -4 -17 6 -11 10 6 12 4 7
-11 -7 -18 -7 -18 8 0 8 11 15 25 15 30 0 6 -5 4 -11 -4 -8 -11 -9 -7 -4 18 7
34 1 45 -8 15z"/>
<path d="M2734 4141 c-35 -9 -127 -51 -121 -57 1 -2 23 7 48 19 24 12 78 27
119 33 60 10 66 12 30 12 -25 0 -59 -3 -76 -7z"/>
<path d="M1283 4133 c43 -2 110 -2 150 0 40 1 5 3 -78 3 -82 0 -115 -2 -72 -3z"/>
<path d="M2803 4113 c9 -2 23 -2 30 0 6 3 -1 5 -18 5 -16 0 -22 -2 -12 -5z"/>
<path d="M2720 4095 c-19 -7 -28 -13 -20 -13 8 0 31 6 50 13 19 7 28 13 20 13
-8 0 -31 -6 -50 -13z"/>
<path d="M3128 4103 c7 -3 16 -2 19 1 4 3 -2 6 -13 5 -11 0 -14 -3 -6 -6z"/>
<path d="M3118 4063 c12 -2 30 -2 40 0 9 3 -1 5 -23 4 -22 0 -30 -2 -17 -4z"/>
<path d="M3333 4063 c15 -2 37 -2 50 0 12 2 0 4 -28 4 -27 0 -38 -2 -22 -4z"/>
<path d="M3280 4051 c0 -11 34 -24 67 -25 12 -1 19 2 16 7 -3 5 -13 7 -22 4
-9 -2 -22 2 -29 10 -15 15 -32 17 -32 4z"/>
<path d="M1664 3790 c0 -146 2 -205 3 -132 2 72 2 192 0 265 -1 72 -3 13 -3
-133z"/>
<path d="M3130 4030 c0 -5 14 -7 33 -3 45 8 47 13 4 13 -20 0 -37 -4 -37 -10z"/>
<path d="M3308 3993 c7 -12 16 -25 22 -28 5 -3 19 -36 30 -72 37 -120 9 -279
-73 -414 -21 -34 -39 -52 -48 -49 -32 10 -90 3 -107 -13 -16 -17 -15 -17 22
-2 31 13 45 14 64 5 22 -10 24 -15 20 -60 -7 -65 -41 -109 -122 -154 -65 -36
-89 -38 -101 -8 -5 13 -10 9 -25 -16 -39 -64 -162 -129 -252 -133 -23 -1 -92
1 -153 4 -60 4 -99 3 -85 -2 27 -8 28 -26 3 -54 -24 -25 -30 -11 -7 16 10 13
4 7 -14 -12 -38 -41 -62 -78 -42 -66 8 5 11 3 8 -6 -3 -8 -10 -13 -16 -12 -7
2 -9 -4 -5 -14 5 -12 3 -14 -7 -8 -9 6 -11 4 -5 -5 8 -13 23 0 47 44 8 14 7
17 -2 11 -8 -5 -11 -3 -9 4 3 7 8 12 13 11 4 -1 20 10 35 24 27 25 28 26 47 8
27 -26 116 -46 166 -38 22 4 57 15 79 26 49 26 111 79 103 91 -3 5 0 9 6 9 6
0 26 11 44 25 40 30 48 31 70 6 17 -19 17 -20 -4 -31 -18 -10 -25 -8 -42 7
-21 18 -21 18 -7 -7 8 -14 14 -26 15 -28 0 -1 18 5 39 14 75 31 157 -5 205
-90 27 -47 38 -86 24 -86 -3 0 -22 12 -42 26 l-37 26 35 -31 c19 -17 40 -29
46 -27 12 5 29 -128 19 -145 -11 -17 -21 -9 -30 23 -8 24 -24 39 -70 65 -33
18 -64 33 -70 33 -5 0 16 -15 49 -32 69 -38 86 -61 79 -107 l-6 -34 -58 6
c-41 3 -89 19 -157 51 -54 25 -105 46 -113 46 -8 0 37 -23 100 -51 108 -48
208 -74 256 -64 67 13 81 19 107 47 31 33 32 33 42 2 9 -30 -32 -76 -92 -106
-38 -19 -63 -23 -132 -22 -80 0 -91 3 -186 47 -144 67 -217 64 -317 -15 -27
-21 -42 -28 -45 -20 -2 7 -11 19 -19 27 -21 21 -12 37 47 84 53 42 126 70 189
73 l36 1 -32 4 c-18 2 -33 8 -33 13 0 14 22 60 29 60 3 0 6 15 7 33 l1 32 -16
-36 c-9 -19 -22 -52 -30 -72 -8 -21 -22 -37 -30 -37 -34 0 -125 -52 -167 -94
-41 -42 -44 -43 -91 -38 -26 3 -68 10 -93 16 -43 11 -45 13 -42 44 1 18 13 59
26 92 20 49 22 60 9 64 -17 7 -28 -18 -73 -164 -28 -89 -34 -101 -42 -81 -5
13 -16 29 -24 36 -14 10 -10 24 29 120 64 157 96 222 127 255 25 27 26 30 9
30 -35 0 -78 29 -95 65 -9 19 -39 51 -68 71 -92 66 -126 121 -126 204 0 32 6
55 20 73 24 30 26 45 4 26 -46 -38 -58 -133 -25 -197 21 -42 49 -68 103 -101
41 -25 81 -69 73 -81 -9 -15 -93 -58 -146 -75 -37 -13 -67 -16 -110 -11 -50 6
-65 3 -109 -19 -28 -14 -55 -36 -61 -49 -10 -22 -17 -23 -155 -29 -79 -4 -150
-4 -156 -1 -7 2 -23 20 -35 38 -12 19 -40 42 -63 52 -33 15 -40 22 -35 39 17
60 17 76 0 95 -21 23 -73 36 -87 22 -8 -8 -5 -9 8 -6 32 8 74 -13 74 -37 0
-39 -23 -99 -38 -99 -11 0 -13 11 -8 53 l6 52 -16 -52 c-14 -45 -20 -53 -40
-53 -19 0 -24 -5 -24 -24 0 -13 6 -29 14 -35 14 -11 19 -35 32 -134 6 -42 3
-51 -17 -74 l-24 -26 40 6 c57 9 89 48 80 96 -4 20 -8 43 -9 51 -4 27 -21 47
-53 64 -33 17 -57 48 -46 60 10 10 89 7 120 -5 15 -5 47 -29 71 -52 38 -37 42
-45 36 -77 -4 -26 -3 -31 5 -20 6 8 11 22 11 31 0 35 320 32 342 -3 6 -11 8
-11 8 0 0 7 -7 15 -15 18 -18 7 -20 45 -3 62 7 7 23 12 38 12 14 0 34 7 44 15
23 18 59 19 88 4 11 -6 18 -7 14 -1 -3 6 18 11 52 14 49 3 68 11 116 45 l57
40 29 -28 c16 -16 38 -29 49 -29 19 0 18 -4 -14 -49 -19 -26 -35 -55 -35 -63
0 -9 -9 -27 -20 -41 -11 -14 -20 -30 -20 -36 0 -6 -9 -30 -19 -54 -11 -23 -27
-62 -36 -87 -18 -51 -70 -114 -86 -104 -6 3 -28 -6 -50 -21 -40 -26 -79 -30
-86 -9 -2 7 9 16 25 22 89 31 56 300 -42 346 -42 20 -80 21 -95 2 -10 -12 -6
-13 28 -9 36 5 44 2 75 -29 23 -23 41 -56 55 -102 24 -78 26 -103 10 -157 -13
-43 -7 -41 -185 -59 -152 -16 -247 4 -366 76 -55 34 -58 37 -41 51 17 14 17
14 -2 8 -71 -24 -128 -29 -195 -17 -39 7 -81 12 -95 12 -37 0 -79 41 -71 68 9
26 30 18 23 -9 -3 -10 0 -23 7 -28 12 -10 146 -19 146 -10 0 11 -76 19 -109
13 -29 -6 -31 -4 -33 22 -2 53 8 209 16 230 2 6 -4 18 -15 27 -22 19 -27 95
-7 115 7 7 39 12 75 12 38 0 63 4 63 11 0 5 4 8 9 5 11 -7 27 14 27 33 -1 23
-30 34 -69 27 -30 -6 -37 -11 -37 -30 0 -18 -7 -25 -30 -29 -61 -13 -81 -54
-60 -126 8 -28 6 -38 -6 -52 -9 -11 -13 -26 -9 -37 3 -11 1 -23 -5 -27 -13 -8
-13 -45 1 -45 7 0 9 -10 5 -24 -3 -14 -1 -28 5 -31 7 -5 5 -13 -6 -25 -9 -10
-15 -27 -13 -36 5 -25 65 -64 100 -64 15 0 55 -7 88 -16 48 -14 69 -15 114 -6
l55 11 65 -43 c115 -78 251 -108 395 -88 68 10 76 9 102 -10 l28 -21 51 22
c56 24 80 22 80 -7 0 -10 5 -23 11 -29 7 -7 7 -28 -2 -72 -7 -36 -10 -99 -7
-151 5 -88 5 -89 -21 -99 -14 -5 -120 -13 -236 -16 l-210 -7 24 26 c30 32 38
32 62 4 10 -13 18 -18 19 -11 0 6 9 10 20 8 11 -2 18 0 15 6 -4 5 3 9 14 9 18
0 21 6 21 40 0 40 -16 75 -54 118 -11 12 -14 22 -8 22 21 0 13 18 -10 25 -13
4 -34 19 -47 34 -17 18 -22 20 -18 8 4 -10 7 -22 7 -27 0 -4 14 -13 30 -20 17
-7 28 -15 26 -18 -3 -2 3 -17 14 -32 11 -16 20 -31 20 -34 0 -11 -56 -6 -68 6
-9 9 -18 9 -36 0 -26 -12 -31 -8 -74 54 -10 16 -11 15 -1 -6 21 -46 50 -70 70
-59 13 6 25 6 38 -1 11 -5 33 -10 48 -10 25 0 30 -5 39 -38 10 -37 10 -38 -14
-34 -21 4 -23 2 -17 -17 7 -22 6 -22 -24 -7 -44 23 -63 20 -101 -19 -44 -45
-67 -45 -86 0 -8 19 -16 35 -18 35 -4 0 5 -143 10 -149 1 -1 13 5 26 14 16 12
18 16 5 11 -15 -5 -18 -1 -15 16 4 30 33 35 283 41 198 6 208 5 178 -10 -34
-17 -42 -40 -21 -61 10 -10 4 -21 -29 -51 -23 -21 -44 -50 -48 -67 -3 -16 -14
-47 -25 -68 -15 -29 -17 -42 -9 -52 9 -11 4 -12 -21 -9 -41 5 -44 9 -30 34 14
26 10 26 -36 -1 -26 -15 -39 -18 -42 -10 -2 7 -10 12 -18 12 -16 0 -19 21 -4
36 5 5 7 19 4 31 l-6 21 -34 -20 c-30 -18 -38 -19 -65 -8 -23 10 -29 18 -25
32 19 58 19 63 5 51 -21 -21 -28 -15 -24 19 2 18 15 41 31 55 l27 23 -29 -1
c-16 0 -23 -3 -16 -6 9 -3 1 -17 -23 -44 -37 -41 -46 -65 -20 -55 18 7 20 -5
3 -22 -17 -17 13 -16 32 1 8 7 6 1 -3 -13 -10 -14 -22 -36 -28 -50 -6 -13 -16
-28 -22 -33 -8 -5 -6 -7 5 -5 9 2 16 -1 15 -7 -1 -5 -11 -9 -22 -8 -11 1 -15
0 -9 -3 6 -2 -7 -23 -28 -46 -35 -38 -41 -41 -86 -39 -38 1 -56 -4 -83 -23
-74 -54 -86 -58 -119 -41 -33 17 -78 19 -100 5 -9 -5 -19 -5 -27 2 -10 8 -20
8 -38 0 -21 -10 -25 -9 -25 3 0 19 -10 19 -38 -1 -25 -17 -27 -13 -11 19 10
21 10 21 -6 2 -20 -24 -14 -41 14 -38 11 2 21 -2 21 -7 0 -7 6 -7 18 -1 16 9
131 7 235 -3 20 -2 37 0 37 5 0 17 75 59 107 59 44 0 81 16 116 50 17 16 39
32 49 36 13 4 18 15 18 39 0 42 12 50 44 30 14 -9 33 -14 43 -11 10 3 23 6 28
7 6 0 17 6 25 12 8 7 5 -2 -7 -19 l-22 -30 34 -18 c19 -10 43 -16 54 -13 14 3
21 0 21 -9 0 -10 12 -13 39 -12 30 1 49 -6 78 -28 53 -40 100 -64 137 -70 69
-11 130 -12 158 -2 16 6 32 8 35 4 9 -8 -17 -36 -34 -36 -8 0 -28 -13 -43 -30
-15 -16 -25 -30 -21 -30 4 0 18 11 31 25 13 14 29 25 35 25 6 0 22 12 36 26
21 22 30 25 67 20 23 -3 62 -15 86 -25 23 -11 52 -18 63 -15 26 7 154 -122
184 -186 40 -84 58 -150 53 -188 -4 -31 -1 -41 18 -57 16 -15 19 -15 9 -3 -9
12 -10 25 -4 44 13 39 -51 229 -96 285 -31 37 -33 45 -28 90 3 27 4 49 1 49
-3 0 -12 -16 -20 -36 l-15 -35 -32 18 c-18 11 -38 30 -44 44 -10 20 -13 21
-13 5 0 -15 -3 -16 -14 -7 -9 7 -17 8 -20 3 -3 -6 -22 -2 -43 9 -21 10 -49 19
-63 20 -14 0 -33 4 -44 8 -15 6 -10 10 24 21 24 8 48 20 55 26 9 10 23 7 63
-13 49 -24 92 -35 259 -68 82 -16 106 -26 127 -57 19 -27 32 -18 17 11 -17 32
-68 53 -141 59 -63 6 -64 6 -25 13 22 4 64 8 93 8 33 1 51 5 47 11 -8 14 -57
12 -134 -4 -61 -13 -69 -12 -145 11 -135 42 -157 61 -122 108 13 18 11 21 -15
37 -24 14 -28 22 -20 36 21 39 50 54 128 64 102 13 217 67 301 140 67 59 105
70 123 37 14 -27 47 -24 117 12 69 34 135 101 163 167 13 30 24 42 40 42 88 0
189 -133 189 -249 0 -115 -100 -341 -194 -440 -33 -35 -52 -59 -41 -53 11 5
29 19 39 31 10 11 24 18 30 14 6 -3 8 -3 4 2 -4 4 8 26 26 49 19 22 43 60 55
84 12 23 25 42 29 42 19 0 73 -42 85 -67 41 -80 45 -187 13 -324 -8 -35 -17
-76 -20 -91 -5 -20 -14 -28 -38 -33 -18 -4 -53 -25 -78 -46 -40 -34 -120 -77
-120 -64 0 2 29 34 65 71 36 37 65 70 65 75 0 4 -35 -27 -77 -69 -121 -120
-262 -183 -408 -181 -92 1 -137 18 -157 59 l-17 35 6 -70 c6 -69 15 -95 36
-95 7 0 7 4 -1 12 -7 7 -12 23 -12 36 0 19 4 23 18 17 9 -3 38 -11 64 -17 90
-21 254 18 350 82 23 16 53 30 66 30 35 0 91 27 139 66 53 44 93 56 134 42 21
-7 43 -7 77 2 66 16 88 33 117 91 26 49 26 52 22 257 -4 225 -13 272 -63 311
-14 11 -20 22 -15 26 20 12 49 -15 64 -57 14 -39 15 -40 16 -14 1 19 -9 38
-32 61 l-33 33 -63 -16 c-59 -14 -64 -14 -73 2 -6 10 -20 26 -32 37 -17 15
-21 27 -18 59 l4 40 87 2 c47 1 103 2 124 1 20 -1 37 2 37 8 0 5 -53 9 -124 9
l-124 0 -12 34 c-31 95 -111 168 -197 182 -45 7 -47 10 -57 85 -6 44 -5 46 30
70 21 13 47 36 58 52 19 26 19 30 5 85 -9 36 -19 56 -28 54 -7 -1 -9 2 -6 8
10 16 -25 39 -57 40 -22 0 -29 6 -34 28 -26 120 -103 202 -188 202 -15 0 -30
8 -36 19 -5 11 -19 23 -30 26 -30 9 -24 26 8 23 16 -1 52 12 87 32 101 56 145
108 145 169 0 17 14 50 32 77 17 26 42 72 54 103 13 31 27 54 31 51 13 -8 23
219 13 279 -11 63 -35 107 -69 130 -23 15 -24 15 -13 -6z m-438 -944 c-73 -58
-112 -74 -185 -73 -74 1 -145 24 -145 46 0 10 29 13 123 14 85 1 134 6 162 17
57 22 75 21 45 -4z m-1694 -65 c-5 -13 -10 -14 -18 -6 -6 6 -8 18 -4 28 5 13
10 14 18 6 6 -6 8 -18 4 -28z m1 -40 c1 -5 -2 -16 -7 -24 -12 -20 -33 0 -24
24 7 17 25 17 31 0z m236 -2 c26 -28 33 -106 13 -137 -24 -37 -47 -34 -36 5 5
17 5 44 -1 62 -11 41 -12 88 -1 88 5 0 16 -8 25 -18z m-243 -67 c0 -8 -4 -15
-10 -15 -5 0 -10 7 -10 15 0 8 5 15 10 15 6 0 10 -7 10 -15z m1204 -120 c-18
-55 -33 -95 -33 -89 -1 14 27 109 46 157 28 69 21 33 -13 -68z m977 54 c6 -13
6 -25 -1 -39 -6 -10 -9 -23 -8 -27 2 -4 -1 -10 -7 -11 -5 -2 -15 -8 -21 -13
-10 -9 -24 49 -24 101 0 23 47 15 61 -11z m-83 -101 c-6 -18 -28 -21 -28 -4 0
9 7 16 16 16 9 0 14 -5 12 -12z m-811 -58 c21 0 48 -3 60 -6 l22 -6 -20 -31
c-23 -39 -24 -61 -3 -81 29 -30 59 -19 109 39 30 36 54 55 68 55 21 -1 20 -2
-5 -21 -19 -14 -28 -30 -28 -48 0 -22 -13 -36 -65 -75 -58 -43 -94 -79 -193
-196 -28 -32 -34 -34 -99 -38 -83 -5 -83 -6 -83 129 0 106 8 149 29 156 43 15
80 55 96 103 l17 50 28 -15 c16 -8 46 -15 67 -15z m520 -20 c60 -30 101 -44
144 -47 56 -5 60 -8 55 -27 -3 -12 -6 -25 -6 -29 0 -4 -12 5 -26 20 l-25 28
23 -33 23 -33 -27 -52 c-15 -29 -29 -60 -32 -69 -3 -10 -12 -18 -21 -18 -9 0
-25 -23 -40 -55 -14 -33 -30 -55 -39 -55 -18 0 -21 16 -6 25 21 13 10 78 -21
127 -53 83 -157 138 -259 138 -54 0 -66 15 -25 30 14 5 34 24 44 42 35 58 39
61 99 55 36 -4 85 -20 139 -47z m-707 14 c17 -20 2 -83 -23 -98 -32 -20 -48
33 -27 88 11 29 31 33 50 10z m59 -33 c-6 -18 -13 -30 -15 -28 -2 2 1 18 7 36
6 18 13 30 15 28 2 -2 -1 -18 -7 -36z m396 29 c-3 -5 -11 -10 -16 -10 -6 0 -7
5 -4 10 3 6 11 10 16 10 6 0 7 -4 4 -10z m-131 -43 c-1 -34 -26 -77 -45 -77
-13 0 -39 30 -39 45 0 22 51 76 69 73 12 -3 16 -14 15 -41z m680 -23 c8 -21
-8 -40 -41 -49 -14 -3 -23 -8 -20 -12 3 -3 19 2 36 10 27 13 30 13 34 -3 3
-10 0 -23 -6 -29 -8 -8 -8 -11 1 -11 16 0 15 -43 0 -59 -11 -10 -10 -11 5 -6
9 4 17 3 17 -2 0 -16 -55 -87 -91 -117 -70 -59 -169 -87 -169 -47 0 12 11 23
28 29 15 6 20 11 10 11 -26 1 -11 41 30 79 20 17 33 32 29 32 -3 0 5 23 19 50
14 28 30 50 37 50 7 0 6 4 -3 10 -13 8 -13 13 0 37 13 23 36 37 71 42 4 1 10
-6 13 -15z m-441 -62 c134 -59 201 -206 118 -255 -16 -10 -49 -35 -73 -57 -62
-58 -187 -116 -281 -131 -75 -11 -79 -13 -137 -70 -32 -33 -63 -59 -69 -59 -5
0 -12 24 -16 53 -9 64 -24 93 -66 132 l-33 30 35 -41 c45 -51 67 -147 50 -210
-6 -21 -7 -41 -3 -44 17 -11 23 -43 10 -52 -23 -14 -30 -8 -26 22 3 20 0 30
-10 32 -11 2 -15 21 -16 78 -1 64 -5 81 -28 117 -27 42 -89 83 -125 83 -15 0
-14 4 6 19 14 10 31 17 38 14 7 -3 13 0 13 6 0 23 -46 6 -88 -32 -17 -16 -25
-18 -34 -9 -14 14 -16 11 47 47 68 38 232 62 252 36 7 -9 12 -11 13 -4 0 6 -5
15 -10 18 -17 10 109 153 205 232 89 74 91 74 137 69 27 -3 67 -14 91 -24z
m-640 -396 c63 -27 107 -93 107 -161 0 -33 -2 -34 -55 -46 -38 -8 -62 -9 -77
-2 -22 10 -21 11 15 28 39 18 66 45 31 30 -64 -26 -98 -35 -106 -27 -6 6 7 20
34 36 48 29 38 35 -17 9 -55 -26 -63 -6 -18 48 l37 44 -37 -34 c-32 -30 -37
-32 -37 -15 0 26 57 104 76 104 8 0 29 -6 47 -14z m1397 -6 c6 -11 9 -20 7
-20 -2 0 -12 9 -22 20 -10 11 -13 20 -7 20 6 0 16 -9 22 -20z m-10 -25 c12
-22 11 -26 -12 -45 -14 -11 -36 -39 -48 -62 -14 -27 -20 -34 -17 -18 8 38 51
150 58 150 3 0 12 -11 19 -25z m154 -26 c49 -38 57 -69 63 -233 2 -83 4 -173
4 -200 -1 -61 -39 -148 -76 -172 -32 -21 -129 -31 -139 -15 -4 6 -2 36 4 66 9
43 18 59 38 71 15 8 18 13 7 9 -35 -11 -4 10 33 22 l37 13 -43 -4 -43 -4 3 51
3 52 43 6 c48 6 67 20 59 43 -7 18 -62 22 -72 6 -14 -22 -33 -8 -40 28 -8 44
-39 101 -66 120 -10 7 -19 21 -19 30 0 28 60 93 104 113 53 24 67 24 100 -2z
m-1672 -54 c0 -21 6 -39 13 -41 7 -3 15 -14 18 -25 3 -10 12 -19 21 -19 9 0
28 -7 41 -16 17 -11 41 -15 80 -12 39 2 55 -1 55 -9 0 -9 -20 -13 -67 -13 -79
0 -138 23 -171 65 -24 30 -29 84 -10 103 16 16 20 9 20 -33z m379 -62 c-11
-22 -71 -58 -71 -44 0 6 17 22 38 35 45 30 45 30 33 9z m-398 -65 c-4 -21 -2
-28 11 -28 9 0 16 7 16 15 0 8 5 15 11 15 7 0 9 -11 6 -30 -5 -23 -3 -30 9
-30 9 0 18 9 21 20 8 29 24 24 21 -6 -2 -21 2 -27 20 -30 17 -3 25 1 29 16 8
30 33 25 34 -7 0 -16 3 -22 6 -16 3 10 8 10 19 -1 23 -24 17 -27 -41 -22 -58
5 -122 32 -166 70 -39 34 -48 54 -35 82 l11 24 17 -23 c11 -14 15 -32 11 -49z
m449 60 c15 -12 14 -17 -5 -57 -16 -32 -30 -47 -50 -52 -24 -7 -29 -4 -38 18
-7 18 -6 30 1 37 7 7 10 6 10 -2 0 -18 37 -35 46 -20 4 6 3 8 -3 5 -13 -8 -14
42 -2 66 11 20 20 21 41 5z m-175 -135 c-3 -10 -5 -2 -5 17 0 19 2 27 5 18 2
-10 2 -26 0 -35z m-23 3 c-3 -14 -10 -26 -15 -26 -6 0 -5 9 1 20 6 11 8 20 5
20 -4 0 -3 5 0 11 11 17 16 3 9 -25z m1513 -3 c-3 -10 -5 -4 -5 12 0 17 2 24
5 18 2 -7 2 -21 0 -30z m0 -45 c-3 -8 -6 -5 -6 6 -1 11 2 17 5 13 3 -3 4 -12
1 -19z m-112 -8 c-3 -5 -15 -10 -26 -10 -10 0 -19 5 -19 10 0 6 12 10 26 10
14 0 23 -4 19 -10z m75 -283 c0 -2 -10 -12 -22 -23 l-23 -19 19 23 c18 21 26
27 26 19z m-117 -48 c44 -1 47 -3 22 -9 -35 -8 -86 -2 -100 13 -7 7 -4 8 8 3
10 -3 42 -7 70 -7z"/>
<path d="M2761 2596 c2 -2 22 -6 44 -9 28 -5 34 -4 20 3 -19 8 -73 14 -64 6z"/>
<path d="M2971 2597 c2 -1 13 -9 24 -17 19 -14 19 -14 6 3 -7 9 -18 17 -24 17
-6 0 -8 -1 -6 -3z"/>
<path d="M2851 2577 c16 -13 118 -63 113 -56 -6 10 -98 59 -110 59 -4 0 -5 -2
-3 -3z"/>
<path d="M3040 2545 c13 -14 26 -25 28 -25 3 0 -5 11 -18 25 -13 14 -26 25
-28 25 -3 0 5 -11 18 -25z"/>
<path d="M2986 2497 c3 -10 9 -15 12 -12 3 3 0 11 -7 18 -10 9 -11 8 -5 -6z"/>
<path d="M3082 2483 c17 -41 30 -53 17 -15 -6 18 -15 35 -20 38 -5 3 -4 -7 3
-23z"/>
<path d="M3040 2401 c0 -6 4 -13 10 -16 6 -3 7 1 4 9 -7 18 -14 21 -14 7z"/>
<path d="M2555 2600 c-3 -5 1 -10 9 -10 9 0 16 5 16 10 0 6 -4 10 -9 10 -6 0
-13 -4 -16 -10z"/>
<path d="M2540 2560 c0 -5 5 -10 11 -10 5 0 7 5 4 10 -3 6 -8 10 -11 10 -2 0
-4 -4 -4 -10z"/>
<path d="M3210 2439 c-24 -16 -41 -29 -36 -29 9 0 96 50 96 56 0 9 -17 1 -60
-27z"/>
<path d="M3191 2350 c-13 -11 -19 -20 -14 -20 6 0 18 9 28 20 23 25 17 25 -14
0z"/>
<path d="M2912 2320 c0 -14 2 -19 5 -12 2 6 2 18 0 25 -3 6 -5 1 -5 -13z"/>
<path d="M2330 1884 c0 -8 5 -12 10 -9 6 4 8 11 5 16 -9 14 -15 11 -15 -7z"/>
<path d="M3625 2028 c-26 -18 -57 -49 -68 -68 -18 -29 -12 -25 34 22 33 33 70
61 90 66 23 7 27 10 13 11 -12 1 -43 -14 -69 -31z"/>
<path d="M2213 3951 c-23 -11 -56 -30 -73 -42 -36 -27 -85 -101 -96 -144 -6
-26 -8 -27 -15 -10 -7 19 -8 19 -8 -1 -1 -32 11 -84 19 -84 4 0 10 23 12 50 6
64 55 138 122 185 27 19 51 33 53 31 2 -1 -4 -22 -12 -46 -16 -46 -18 -103 -8
-252 3 -56 10 -95 15 -92 6 4 7 54 3 125 -5 81 -3 143 5 198 13 80 14 80 49
89 36 10 36 10 6 11 -16 0 -49 -8 -72 -18z"/>
<path d="M2472 3936 c-33 -38 -53 -92 -51 -141 1 -31 4 -25 14 37 3 21 22 58
41 84 42 55 39 69 -4 20z"/>
<path d="M3285 3960 c-3 -5 -2 -17 3 -26 8 -15 10 -15 15 0 5 12 3 15 -5 10
-8 -5 -9 -2 -5 9 7 19 2 23 -8 7z"/>
<path d="M2340 3950 c-8 -5 -10 -10 -5 -10 6 0 17 5 25 10 8 5 11 10 5 10 -5
0 -17 -5 -25 -10z"/>
<path d="M1280 3941 c-14 -5 -40 -16 -59 -25 -32 -17 -35 -17 -67 0 -18 10
-36 15 -40 11 -4 -4 -1 -7 8 -7 8 0 23 -9 33 -20 22 -25 30 -25 64 -1 15 11
39 23 54 26 15 4 30 11 33 16 3 5 4 9 2 8 -2 0 -14 -4 -28 -8z"/>
<path d="M1503 3943 c-12 -2 -27 -11 -33 -18 -10 -12 -17 -12 -34 -3 -11 6
-32 13 -46 14 -21 2 -22 1 -8 -7 10 -5 21 -10 25 -10 5 0 19 -7 31 -15 22 -14
26 -14 45 4 12 10 31 24 42 30 20 12 17 12 -22 5z"/>
<path d="M1556 3942 c-2 -4 -1 -14 5 -22 7 -12 9 -10 9 8 0 23 -5 28 -14 14z"/>
<path d="M2608 3921 c-76 -48 -129 -134 -127 -208 l0 -38 13 45 c20 73 99 180
161 217 11 6 15 12 9 12 -5 1 -31 -12 -56 -28z"/>
<path d="M1033 3870 c0 -30 2 -43 4 -27 2 15 2 39 0 55 -2 15 -4 2 -4 -28z"/>
<path d="M2682 3893 c-24 -24 -24 -25 -2 -8 42 33 44 35 37 35 -4 0 -19 -12
-35 -27z"/>
<path d="M1101 3889 c0 -15 -10 -38 -21 -52 -25 -32 -25 -34 6 -41 20 -5 25
-12 21 -26 -3 -11 -1 -20 4 -20 14 0 49 38 49 53 0 6 -7 3 -16 -8 -15 -20 -15
-20 -34 5 -14 18 -16 29 -9 43 6 10 8 30 6 45 l-4 27 -2 -26z"/>
<path d="M2744 3885 c-53 -26 -79 -50 -110 -100 -12 -21 -6 -17 23 15 48 54
109 86 184 99 l54 9 -51 1 c-35 1 -65 -6 -100 -24z"/>
<path d="M2940 3900 c-8 -5 -10 -10 -5 -10 6 0 17 5 25 10 8 5 11 10 5 10 -5
0 -17 -5 -25 -10z"/>
<path d="M3261 3894 c0 -11 3 -14 6 -6 3 7 2 16 -1 19 -3 4 -6 -2 -5 -13z"/>
<path d="M1570 3883 c0 -12 -3 -30 -6 -40 -5 -13 -2 -12 10 4 13 17 14 27 7
40 -9 16 -10 16 -11 -4z"/>
<path d="M1607 3689 c5 -273 10 -291 11 -39 0 113 -3 214 -7 224 -4 10 -6 -73
-4 -185z"/>
<path d="M1266 3864 c-8 -20 0 -32 14 -18 5 5 5 15 1 22 -6 11 -10 10 -15 -4z"/>
<path d="M2925 3870 c-3 -6 1 -7 9 -4 18 7 21 14 7 14 -6 0 -13 -4 -16 -10z"/>
<path d="M1312 3849 c-17 -27 -12 -31 12 -13 13 9 16 18 10 24 -6 6 -14 2 -22
-11z"/>
<path d="M2950 3850 c-8 -5 -10 -10 -5 -10 6 0 17 5 25 10 8 5 11 10 5 10 -5
0 -17 -5 -25 -10z"/>
<path d="M1188 3826 c-12 -9 -18 -29 -19 -69 -2 -41 -7 -61 -21 -73 -22 -21
-24 -36 -3 -28 8 4 15 12 15 20 0 8 5 14 10 14 6 0 10 7 10 15 0 8 4 15 9 15
6 0 6 12 0 32 -12 43 -12 44 7 63 20 20 15 28 -8 11z"/>
<path d="M1468 3793 c-3 -16 -8 -35 -12 -43 -3 -9 1 -24 9 -35 15 -19 15 -19
14 10 -4 67 -1 75 24 64 16 -7 31 -6 57 5 19 8 33 16 30 16 -29 7 -40 7 -40
-1 0 -12 -47 -12 -55 1 -11 18 -23 11 -27 -17z"/>
<path d="M1031 3784 c0 -11 3 -14 6 -6 3 7 2 16 -1 19 -3 4 -6 -2 -5 -13z"/>
<path d="M2462 3780 c0 -14 2 -19 5 -12 2 6 2 18 0 25 -3 6 -5 1 -5 -13z"/>
<path d="M3267 3771 c-4 -17 -3 -21 5 -13 5 5 8 16 6 23 -3 8 -7 3 -11 -10z"/>
<path d="M3292 3760 c0 -14 2 -19 5 -12 2 6 2 18 0 25 -3 6 -5 1 -5 -13z"/>
<path d="M3311 3744 c0 -11 3 -14 6 -6 3 7 2 16 -1 19 -3 4 -6 -2 -5 -13z"/>
<path d="M3080 3728 c-12 -22 -12 -22 6 -6 10 10 15 20 12 24 -4 3 -12 -5 -18
-18z"/>
<path d="M1032 3710 c0 -19 2 -27 5 -17 2 9 2 25 0 35 -3 9 -5 1 -5 -18z"/>
<path d="M1236 3731 c-8 -12 36 -26 56 -18 7 3 4 6 -7 6 -12 1 -26 6 -32 12
-7 7 -13 8 -17 0z"/>
<path d="M1395 3731 c-3 -6 4 -9 15 -8 11 1 20 5 20 9 0 11 -28 10 -35 -1z"/>
<path d="M2303 3718 c-12 -6 -24 -17 -27 -24 -3 -9 7 -5 24 8 40 29 41 34 3
16z"/>
<path d="M2431 3714 c0 -11 3 -14 6 -6 3 7 2 16 -1 19 -3 4 -6 -2 -5 -13z"/>
<path d="M1317 3706 c-7 -18 23 -30 37 -16 8 8 7 14 -4 20 -21 13 -27 12 -33
-4z"/>
<path d="M3100 3695 c-9 -10 -9 -15 -1 -15 6 0 11 5 11 11 0 5 5 7 12 3 7 -4
8 -3 4 4 -9 15 -11 15 -26 -3z"/>
<path d="M1500 3683 c-8 -3 -27 -17 -41 -32 -14 -14 -35 -33 -47 -41 -12 -8
-22 -18 -22 -22 0 -14 28 -8 34 7 3 8 17 20 31 27 14 6 25 17 25 23 0 7 10 20
23 28 23 17 22 19 -3 10z"/>
<path d="M1170 3645 c-7 -9 -8 -15 -2 -15 5 0 12 7 16 15 3 8 4 15 2 15 -2 0
-9 -7 -16 -15z"/>
<path d="M1298 3653 c7 -3 16 -2 19 1 4 3 -2 6 -13 5 -11 0 -14 -3 -6 -6z"/>
<path d="M3176 3614 c-15 -24 -44 -58 -64 -74 -27 -22 -32 -30 -19 -30 23 0
57 34 92 93 35 61 28 70 -9 11z"/>
<path d="M2470 3643 c0 -4 5 -15 10 -23 8 -13 10 -13 10 2 0 9 -4 20 -10 23
-5 3 -10 3 -10 -2z"/>
<path d="M1203 3625 c0 -8 6 -16 13 -19 7 -3 10 -14 7 -25 -5 -21 11 -29 22
-11 3 6 11 10 16 10 6 0 7 -4 4 -10 -3 -6 1 -7 9 -4 9 3 16 12 16 20 0 17 -5
17 -31 4 -16 -9 -19 -7 -19 10 0 11 -5 20 -11 20 -5 0 -7 5 -4 10 3 6 0 10 -8
10 -7 0 -14 -7 -14 -15z"/>
<path d="M2750 3621 c0 -6 11 -11 24 -11 14 0 32 -10 40 -22 9 -12 16 -18 16
-12 0 6 -6 18 -12 27 -16 20 -68 34 -68 18z"/>
<path d="M1305 3580 c3 -5 14 -10 23 -10 15 0 15 2 2 10 -20 13 -33 13 -25 0z"/>
<path d="M3145 3522 c-22 -20 -51 -45 -65 -55 -14 -10 -5 -7 20 6 25 14 56 39
69 56 31 41 25 39 -24 -7z"/>
<path d="M3250 3520 c-12 -23 -19 -44 -16 -47 2 -3 14 14 26 37 12 23 19 44
16 47 -2 3 -14 -14 -26 -37z"/>
<path d="M3276 3515 c-9 -26 -7 -32 5 -12 6 10 9 21 6 23 -2 3 -7 -2 -11 -11z"/>
<path d="M2235 3510 c-11 -18 42 -61 74 -58 30 2 34 28 4 28 -8 0 -28 9 -43
20 -18 13 -31 16 -35 10z"/>
<path d="M3108 3452 c-21 -14 -36 -28 -33 -30 5 -5 85 45 85 53 0 9 -15 3 -52
-23z"/>
<path d="M1660 3456 c0 -2 7 -7 16 -10 8 -3 12 -2 9 4 -6 10 -25 14 -25 6z"/>
<path d="M1038 3443 c7 -3 16 -2 19 1 4 3 -2 6 -13 5 -11 0 -14 -3 -6 -6z"/>
<path d="M1088 3443 c7 -3 16 -2 19 1 4 3 -2 6 -13 5 -11 0 -14 -3 -6 -6z"/>
<path d="M1243 3443 c48 -2 125 -2 170 0 45 1 6 3 -88 3 -93 0 -130 -2 -82 -3z"/>
<path d="M947 3433 c-14 -13 -6 -35 22 -64 29 -29 55 -37 65 -20 3 4 -6 6 -19
3 -18 -3 -25 0 -25 12 0 12 9 16 33 14 17 0 156 3 309 7 l276 8 4 -24 c2 -18
9 -24 27 -24 13 0 25 6 27 13 1 7 0 8 -3 2 -9 -20 -43 -11 -43 11 0 17 5 20
26 16 25 -4 54 14 54 36 0 6 -6 4 -12 -5 -11 -13 -61 -16 -363 -21 -193 -4
-356 -2 -364 2 -8 5 -11 16 -8 25 7 17 5 20 -6 9z"/>
<path d="M1005 3410 c3 -5 8 -10 11 -10 2 0 4 5 4 10 0 6 -5 10 -11 10 -5 0
-7 -4 -4 -10z"/>
<path d="M3128 3350 c-32 -32 -39 -45 -36 -70 2 -19 -3 -35 -12 -41 -12 -8
-11 -9 5 -7 13 2 20 12 21 28 1 14 2 30 3 37 2 18 52 74 75 83 19 8 19 9 2 9
-10 1 -36 -17 -58 -39z"/>
<path d="M2603 3358 c-9 -16 35 -48 67 -48 15 0 35 9 46 21 l19 21 -32 -7
c-22 -4 -43 -1 -63 8 -21 11 -32 12 -37 5z"/>
<path d="M2405 3350 c-3 -6 5 -10 19 -10 14 0 28 -4 31 -10 3 -5 12 -10 18
-10 16 1 -32 40 -49 40 -7 0 -16 -4 -19 -10z"/>
<path d="M2848 3343 c7 -3 16 -2 19 1 4 3 -2 6 -13 5 -11 0 -14 -3 -6 -6z"/>
<path d="M2768 3333 c12 -2 32 -2 45 0 12 2 2 4 -23 4 -25 0 -35 -2 -22 -4z"/>
<path d="M2295 3309 c-11 -17 1 -21 15 -4 8 9 8 15 2 15 -6 0 -14 -5 -17 -11z"/>
<path d="M2310 3286 c0 -20 46 -69 83 -88 35 -18 53 -20 124 -15 82 5 84 4 98
-22 l15 -26 -2 24 c-2 16 -15 31 -35 42 -22 12 -32 14 -30 6 3 -17 -118 -22
-155 -6 -16 6 -44 30 -63 52 -19 22 -35 37 -35 33z"/>
<path d="M2410 3160 c8 -5 20 -10 25 -10 6 0 3 5 -5 10 -8 5 -19 10 -25 10 -5
0 -3 -5 5 -10z"/>
<path d="M1271 3114 c0 -11 3 -14 6 -6 3 7 2 16 -1 19 -3 4 -6 -2 -5 -13z"/>
<path d="M1316 3123 c-11 -11 -6 -23 9 -23 8 0 15 4 15 9 0 13 -16 22 -24 14z"/>
<path d="M1192 3100 c0 -14 2 -19 5 -12 2 6 2 18 0 25 -3 6 -5 1 -5 -13z"/>
<path d="M1230 3100 c0 -5 5 -10 11 -10 5 0 7 5 4 10 -3 6 -8 10 -11 10 -2 0
-4 -4 -4 -10z"/>
<path d="M1207 3025 c-4 -8 -2 -17 3 -20 6 -4 10 -4 10 -1 0 2 3 11 6 20 3 9
2 16 -4 16 -5 0 -12 -7 -15 -15z"/>
<path d="M1296 3024 c-3 -8 -10 -12 -16 -9 -5 3 -10 1 -10 -4 0 -15 12 -14 35
2 11 9 14 16 8 20 -6 4 -14 0 -17 -9z"/>
<path d="M1235 3020 c-3 -5 1 -10 9 -10 9 0 16 5 16 10 0 6 -4 10 -9 10 -6 0
-13 -4 -16 -10z"/>
<path d="M3078 3023 c12 -2 32 -2 45 0 12 2 2 4 -23 4 -25 0 -35 -2 -22 -4z"/>
<path d="M2898 3013 c6 -2 18 -2 25 0 6 3 1 5 -13 5 -14 0 -19 -2 -12 -5z"/>
<path d="M2241 2965 c1 -19 18 -51 18 -35 0 8 -4 22 -9 30 -5 8 -9 11 -9 5z"/>
<path d="M2973 2963 c15 -2 37 -2 50 0 12 2 0 4 -28 4 -27 0 -38 -2 -22 -4z"/>
<path d="M3090 2956 c0 -2 15 -6 34 -8 19 -2 32 0 30 4 -5 8 -64 12 -64 4z"/>
<path d="M2128 2915 c5 -11 12 -27 15 -35 5 -13 6 -13 6 1 1 8 -6 24 -15 35
-15 19 -15 19 -6 -1z"/>
<path d="M2903 2883 c9 -2 23 -2 30 0 6 3 -1 5 -18 5 -16 0 -22 -2 -12 -5z"/>
<path d="M2723 2823 c9 -2 25 -2 35 0 9 3 1 5 -18 5 -19 0 -27 -2 -17 -5z"/>
<path d="M2918 2813 c6 -2 18 -2 25 0 6 3 1 5 -13 5 -14 0 -19 -2 -12 -5z"/>
<path d="M2978 2803 c7 -3 16 -2 19 1 4 3 -2 6 -13 5 -11 0 -14 -3 -6 -6z"/>
<path d="M2222 2770 c0 -14 2 -19 5 -12 2 6 2 18 0 25 -3 6 -5 1 -5 -13z"/>
<path d="M2528 2773 c6 -2 18 -2 25 0 6 3 1 5 -13 5 -14 0 -19 -2 -12 -5z"/>
<path d="M2583 2763 c9 -2 25 -2 35 0 9 3 1 5 -18 5 -19 0 -27 -2 -17 -5z"/>
<path d="M3090 2766 c0 -2 7 -7 16 -10 8 -3 12 -2 9 4 -6 10 -25 14 -25 6z"/>
<path d="M2156 2738 c-8 -26 -15 -90 -9 -84 7 7 22 96 16 96 -2 0 -5 -6 -7
-12z"/>
<path d="M3130 2747 c0 -2 15 -14 33 -27 20 -15 27 -17 18 -6 -13 16 -51 41
-51 33z"/>
<path d="M2483 2713 c9 -2 25 -2 35 0 9 3 1 5 -18 5 -19 0 -27 -2 -17 -5z"/>
<path d="M1163 2641 c-6 -18 -18 -31 -28 -31 -14 0 -15 -3 -5 -15 9 -10 9 -15
1 -15 -6 0 -11 -7 -11 -16 0 -10 -6 -13 -18 -9 -11 3 -34 -1 -52 -8 l-32 -14
25 -7 c16 -4 45 1 74 13 46 18 48 21 53 62 4 32 7 39 13 26 4 -10 7 -26 7 -36
0 -22 35 -22 49 1 6 10 8 17 4 16 -20 -5 -50 15 -59 38 l-9 27 -12 -32z"/>
<path d="M1254 2628 c-5 -7 -3 -8 6 -3 10 6 12 3 8 -12 -3 -12 -2 -27 3 -34
15 -24 29 10 16 38 -11 25 -22 29 -33 11z"/>
<path d="M1347 2620 c-9 -12 -20 -18 -30 -14 -12 4 -14 1 -10 -15 7 -28 23
-37 34 -20 7 11 9 10 9 -3 0 -10 3 -18 8 -18 4 0 7 20 8 45 0 25 0 45 -2 45
-2 0 -9 -9 -17 -20z"/>
<path d="M1398 2571 c-23 -23 -10 -36 14 -14 10 9 18 11 18 6 0 -13 53 -14 61
-1 3 5 14 -9 23 -31 15 -39 29 -51 39 -33 3 4 -13 27 -34 52 -32 37 -41 42
-49 30 -8 -12 -13 -13 -30 -2 -24 15 -21 15 -42 -7z"/>
<path d="M990 2538 c0 -6 7 -20 17 -30 15 -17 15 -19 -1 -37 -13 -15 -24 -18
-39 -12 -12 5 -37 6 -54 4 -26 -4 -33 -10 -33 -27 0 -12 -7 -32 -16 -44 -25
-37 2 -25 31 14 23 30 31 34 54 29 20 -4 39 1 69 21 l41 27 -24 19 c-14 11
-25 26 -25 34 0 8 -4 14 -10 14 -5 0 -10 -5 -10 -12z"/>
<path d="M1570 2527 c0 -9 8 -33 19 -52 l19 -35 29 30 c35 36 93 57 93 34 0
-8 8 -14 18 -13 10 0 12 3 4 6 -6 2 -10 8 -7 13 3 5 -4 11 -15 15 -24 8 -84
-10 -101 -31 -10 -12 -15 -9 -35 18 -17 22 -24 27 -24 15z"/>
<path d="M1015 2430 c-3 -5 -2 -10 4 -10 5 0 13 5 16 10 3 6 2 10 -4 10 -5 0
-13 -4 -16 -10z"/>
<path d="M1040 2415 c-7 -9 -9 -19 -5 -23 4 -4 10 -2 12 5 2 7 10 11 16 9 7
-1 9 -1 4 1 -4 3 -5 9 -1 14 9 15 -13 10 -26 -6z"/>
<path d="M1215 2404 c-4 -10 -17 -48 -31 -83 -28 -71 -25 -90 5 -40 22 35 47
127 37 136 -3 3 -8 -3 -11 -13z"/>
<path d="M1061 2361 c-22 -31 -27 -46 -12 -36 10 6 42 65 36 65 -2 0 -13 -13
-24 -29z"/>
<path d="M1125 2380 c-4 -6 -10 -8 -15 -5 -11 7 -52 -83 -48 -103 2 -8 20 15
40 52 20 36 35 66 33 66 -2 0 -7 -5 -10 -10z"/>
<path d="M1142 2358 c-23 -39 -52 -121 -51 -146 0 -10 4 -6 9 10 4 14 21 46
37 70 42 62 49 78 17 43 l-27 -30 22 39 c27 48 21 60 -7 14z"/>
<path d="M1280 2339 c-12 -29 -23 -77 -26 -108 -3 -53 -3 -54 6 -15 21 98 32
128 40 113 7 -10 11 -8 18 11 10 26 6 50 -8 50 -4 0 -17 -23 -30 -51z"/>
<path d="M836 2345 c-3 -9 -6 -22 -5 -28 0 -7 5 -1 10 12 5 13 8 26 5 28 -2 2
-6 -3 -10 -12z"/>
<path d="M1665 2339 c-5 -5 -19 -16 -29 -23 -14 -9 -17 -19 -11 -32 6 -15 8
-16 13 -5 3 8 19 27 36 43 18 17 25 28 16 28 -8 -1 -19 -5 -25 -11z"/>
<path d="M1532 2327 c-6 -7 -7 -19 -3 -26 6 -9 10 -6 14 10 8 28 3 34 -11 16z"/>
<path d="M953 2303 c-9 -36 -10 -102 -1 -133 5 -17 1 -32 -11 -49 -15 -20 -21
-22 -40 -11 -15 7 -26 8 -34 2 -9 -8 -11 0 -9 33 2 24 -1 52 -7 62 -8 14 -10
0 -11 -59 0 -69 2 -78 18 -78 10 0 22 4 28 9 5 4 23 11 41 14 28 6 33 3 45
-23 7 -17 16 -30 20 -30 13 0 9 13 -12 48 -27 44 -25 50 5 22 l26 -24 -27 58
c-23 50 -26 68 -21 122 5 68 2 81 -10 37z"/>
<path d="M1430 2304 c0 -8 5 -12 10 -9 6 4 8 11 5 16 -9 14 -15 11 -15 -7z"/>
<path d="M1461 2298 c-1 -19 30 -78 42 -78 4 0 7 8 7 18 0 9 3 28 5 42 6 25 6
25 -5 2 -8 -20 -12 -21 -23 -10 -8 7 -16 20 -20 28 -4 12 -6 12 -6 -2z"/>
<path d="M1018 2195 c-3 -14 -2 -25 2 -25 11 0 20 39 10 45 -4 3 -10 -6 -12
-20z"/>
<path d="M1370 2110 c-25 -36 -25 -35 16 -44 37 -8 67 15 62 48 -5 36 -51 33
-78 -4z"/>
<path d="M1067 2099 c-26 -15 -22 -57 8 -71 33 -15 70 14 54 43 -14 27 -41 39
-62 28z"/>
<path d="M3305 2079 c-4 -6 -5 -12 -2 -15 2 -3 7 2 10 11 7 17 1 20 -8 4z"/>
<path d="M964 2040 c4 -18 -3 -35 -24 -62 -35 -43 -38 -53 -10 -38 19 10 30
-2 13 -13 -11 -7 -3 -107 8 -107 5 0 9 7 9 15 0 8 4 15 9 15 5 0 11 9 14 20 6
22 -8 28 -16 8 -2 -7 -7 -10 -11 -6 -4 3 -3 15 3 26 15 27 14 72 -1 72 -6 0
-2 10 10 23 19 20 19 24 6 47 l-15 25 5 -25z"/>
<path d="M3277 2033 c-4 -3 -7 -11 -7 -17 0 -6 5 -5 12 2 6 6 9 14 7 17 -3 3
-9 2 -12 -2z"/>
<path d="M3305 2020 c-3 -5 -1 -10 4 -10 6 0 11 5 11 10 0 6 -2 10 -4 10 -3 0
-8 -4 -11 -10z"/>
<path d="M1219 1961 c-24 -21 -24 -21 -5 -36 27 -21 60 -19 81 5 21 23 14 35
-26 45 -18 4 -32 0 -50 -14z m46 -1 c3 -5 -1 -10 -10 -10 -9 0 -13 5 -10 10 3
6 8 10 10 10 2 0 7 -4 10 -10z"/>
<path d="M1365 1849 c-56 -43 -56 -45 2 -15 52 26 75 47 51 45 -7 0 -31 -14
-53 -30z"/>
<path d="M1766 1841 c-10 -11 -16 -25 -15 -30 2 -6 12 3 21 19 20 35 18 38 -6
11z"/>
<path d="M1000 1829 c0 -5 -5 -7 -10 -4 -6 4 -9 -8 -8 -29 3 -38 18 -51 18
-15 0 11 5 29 10 40 7 13 7 19 0 19 -5 0 -10 -5 -10 -11z"/>
<path d="M1030 1815 c-13 -14 -21 -27 -18 -30 2 -3 15 6 28 20 13 14 21 27 18
30 -2 3 -15 -6 -28 -20z"/>
<path d="M1245 1825 c17 -8 37 -14 45 -14 8 0 2 7 -15 14 -16 8 -37 14 -45 14
-8 0 -1 -7 15 -14z"/>
<path d="M1740 1771 c0 -10 19 -25 25 -20 1 2 -3 10 -11 17 -8 7 -14 8 -14 3z"/>
<path d="M3120 1749 c0 -5 5 -7 10 -4 6 3 10 8 10 11 0 2 -4 4 -10 4 -5 0 -10
-5 -10 -11z"/>
<path d="M1783 1723 c-1 -19 1 -22 8 -12 11 17 12 39 2 39 -5 0 -9 -12 -10
-27z"/>
<path d="M3335 1692 c-16 -26 -52 -71 -79 -99 -27 -29 -43 -53 -36 -53 20 0
84 72 120 135 39 69 36 82 -5 17z"/>
<path d="M1300 1708 c0 -4 4 -9 8 -12 5 -3 7 -19 4 -36 -4 -29 11 -43 21 -17
3 6 6 -5 6 -25 1 -20 6 -40 11 -43 6 -3 10 -1 10 4 0 6 5 11 10 11 6 0 10 -7
10 -16 0 -8 4 -13 9 -10 10 6 21 -26 21 -63 0 -24 0 -24 15 -5 16 21 20 38 6
30 -5 -4 -12 12 -16 34 -4 22 -11 38 -16 34 -5 -3 -9 6 -9 20 0 28 -9 33 -28
14 -9 -9 -12 -5 -12 21 0 22 -4 30 -11 25 -8 -5 -10 0 -6 17 5 20 2 25 -13 25
-11 0 -20 -4 -20 -8z"/>
<path d="M3100 1709 c0 -5 5 -7 10 -4 6 3 10 8 10 11 0 2 -4 4 -10 4 -5 0 -10
-5 -10 -11z"/>
<path d="M1780 1676 c0 -2 8 -10 18 -17 15 -13 16 -12 3 4 -13 16 -21 21 -21
13z"/>
<path d="M2140 1664 c-15 -9 -17 -12 -5 -8 11 5 37 8 57 8 22 0 33 3 25 8 -19
12 -50 9 -77 -8z"/>
<path d="M1507 1625 c-7 -48 -1 -78 14 -69 6 3 6 12 0 21 -5 9 -6 34 -4 55 3
21 3 38 1 38 -3 0 -8 -20 -11 -45z"/>
<path d="M2074 1638 l-19 -23 25 20 c14 11 27 21 29 22 2 2 0 3 -6 3 -5 0 -18
-10 -29 -22z"/>
<path d="M1860 1630 c25 -10 54 -19 65 -19 11 0 -5 9 -35 19 -69 25 -90 25
-30 0z"/>
<path d="M2480 1627 c-46 -73 -53 -99 -46 -182 7 -78 25 -125 48 -125 7 0 4 6
-6 13 -14 10 -21 37 -29 101 l-11 88 32 61 c32 61 39 85 12 44z"/>
<path d="M3097 1633 c-4 -3 -7 -13 -7 -22 1 -13 3 -13 11 2 11 19 8 33 -4 20z"/>
<path d="M3510 1629 c0 -5 5 -7 10 -4 6 3 10 8 10 11 0 2 -4 4 -10 4 -5 0 -10
-5 -10 -11z"/>
<path d="M1973 1613 c15 -2 39 -2 55 0 15 2 2 4 -28 4 -30 0 -43 -2 -27 -4z"/>
<path d="M3475 1610 c-3 -5 -1 -10 4 -10 6 0 11 5 11 10 0 6 -2 10 -4 10 -3 0
-8 -4 -11 -10z"/>
<path d="M3435 1590 c-3 -5 -2 -10 4 -10 5 0 13 5 16 10 3 6 2 10 -4 10 -5 0
-13 -4 -16 -10z"/>
<path d="M3047 1573 c-4 -3 -7 -11 -7 -17 0 -6 5 -5 12 2 6 6 9 14 7 17 -3 3
-9 2 -12 -2z"/>
<path d="M3081 1564 c0 -11 3 -14 6 -6 3 7 2 16 -1 19 -3 4 -6 -2 -5 -13z"/>
<path d="M1470 1536 c0 -9 5 -16 10 -16 6 0 10 4 10 9 0 6 -4 13 -10 16 -5 3
-10 -1 -10 -9z"/>
<path d="M3071 1514 c0 -11 3 -14 6 -6 3 7 2 16 -1 19 -3 4 -6 -2 -5 -13z"/>
<path d="M3030 1505 c0 -8 5 -15 10 -15 6 0 10 7 10 15 0 8 -4 15 -10 15 -5 0
-10 -7 -10 -15z"/>
<path d="M1452 1501 c-17 -10 -11 -47 6 -43 7 1 12 -7 12 -18 0 -11 6 -20 14
-20 16 0 26 -30 26 -77 0 -18 5 -33 11 -33 7 0 10 21 7 59 -1 33 0 63 5 67 4
4 7 14 7 23 -1 11 -5 9 -14 -7 -10 -19 -15 -21 -23 -10 -6 7 -14 25 -18 41 -8
29 -12 32 -33 18z"/>
<path d="M1565 1499 c-4 -6 -5 -12 -2 -15 2 -3 7 2 10 11 7 17 1 20 -8 4z"/>
<path d="M3070 1460 c0 -5 5 -10 11 -10 5 0 7 5 4 10 -3 6 -8 10 -11 10 -2 0
-4 -4 -4 -10z"/>
<path d="M3295 1450 c-3 -5 -1 -10 4 -10 6 0 11 5 11 10 0 6 -2 10 -4 10 -3 0
-8 -4 -11 -10z"/>
<path d="M2084 1400 c-53 -27 -89 -65 -109 -115 -18 -45 -16 -44 48 39 50 65
141 95 222 73 24 -7 28 -6 17 4 -6 7 -40 15 -75 17 -48 2 -71 -2 -103 -18z"/>
<path d="M3226 1406 c-16 -7 -25 -16 -20 -19 5 -3 21 3 34 14 29 21 26 22 -14
5z"/>
<path d="M3115 1393 c-18 -14 -18 -15 -2 -9 10 3 25 6 33 6 9 0 12 5 9 10 -8
14 -16 12 -40 -7z"/>
<path d="M1582 1350 c0 -14 2 -19 5 -12 2 6 2 18 0 25 -3 6 -5 1 -5 -13z"/>
<path d="M1840 1359 c0 -6 8 -23 18 -37 27 -38 43 -90 30 -94 -6 -2 -12 -23
-14 -48 -2 -24 -9 -49 -16 -57 -7 -9 -9 -36 -5 -76 3 -35 2 -79 -2 -99 -6 -25
-5 -38 3 -41 14 -5 -30 -45 -89 -80 -47 -28 -58 -51 -13 -26 12 7 28 12 34 11
6 -1 30 16 53 38 33 33 41 45 35 63 -14 44 -2 192 19 232 10 18 10 18 20 -5 5
-15 11 -20 14 -12 10 26 29 10 41 -33 8 -31 16 -43 26 -39 7 3 23 -6 34 -20
11 -14 24 -26 28 -26 5 0 18 -12 28 -27 l19 -26 -51 5 c-29 3 -52 4 -52 2 0
-2 14 -11 31 -20 25 -12 37 -13 58 -4 21 8 36 7 69 -4 29 -10 50 -12 65 -6 21
8 21 9 -5 9 -47 1 -104 31 -142 72 -20 23 -36 45 -36 50 0 6 -4 8 -9 5 -4 -3
-13 6 -20 20 -6 14 -16 22 -21 19 -11 -7 -14 19 -11 88 2 29 -1 47 -8 47 -10
0 -16 -25 -13 -61 1 -9 -7 -19 -17 -22 -16 -4 -19 3 -24 54 -4 44 -14 73 -37
109 -33 51 -40 58 -40 39z"/>
<path d="M1540 1327 c0 -7 12 -38 27 -68 20 -41 26 -68 25 -113 -1 -32 3 -67
8 -77 15 -27 1 -48 -46 -70 -69 -33 -105 -116 -71 -164 10 -13 16 -15 21 -6 5
8 16 2 34 -19 29 -33 60 -37 137 -20 36 8 34 9 -21 6 -69 -4 -91 5 -105 42 -7
19 -12 23 -18 13 -10 -16 -23 -13 -39 11 -11 15 -11 26 -2 54 10 29 22 41 64
60 28 13 56 24 62 24 11 0 11 33 1 155 -2 22 -16 66 -30 98 -15 32 -27 64 -27
72 0 8 -4 15 -10 15 -5 0 -10 -6 -10 -13z"/>
<path d="M1621 1303 l-22 -38 30 35 29 35 26 -28 c28 -30 32 -59 16 -101 -5
-14 -6 -26 -1 -26 11 0 21 35 21 73 0 34 -37 87 -61 87 -9 0 -27 -17 -38 -37z"/>
<path d="M2516 1305 c13 -57 23 -74 52 -89 16 -8 34 -22 41 -30 8 -9 21 -16
30 -15 11 0 9 3 -6 9 -13 5 -23 14 -23 20 0 6 -13 16 -30 21 -23 9 -32 20 -42
52 -14 50 -33 77 -22 32z"/>
<path d="M1510 1271 c0 -5 5 -13 10 -16 6 -3 10 -2 10 4 0 5 -4 13 -10 16 -5
3 -10 2 -10 -4z"/>
<path d="M2747 1235 c-17 -36 -32 -44 -40 -22 -3 8 -12 4 -28 -13 -16 -16 -17
-19 -3 -7 15 12 23 14 31 6 6 -6 16 -8 22 -4 13 8 44 65 39 71 -3 2 -12 -12
-21 -31z"/>
<path d="M1540 1222 c10 -21 7 -178 -4 -189 -2 -3 -19 -12 -38 -21 -65 -33
-102 -131 -54 -140 18 -4 18 -3 3 12 -30 31 5 89 75 124 29 15 33 22 35 62 1
25 5 63 9 85 5 33 2 45 -16 65 -20 24 -21 24 -10 2z"/>
<path d="M2010 1175 c0 -8 2 -15 4 -15 2 0 6 7 10 15 3 8 1 15 -4 15 -6 0 -10
-7 -10 -15z"/>
<path d="M2736 1147 c-9 -24 -32 -60 -51 -80 -19 -20 -35 -41 -35 -47 0 -18
-62 -80 -80 -80 -10 0 -28 -9 -41 -19 -26 -21 -21 -33 23 -55 26 -13 35 -48
16 -63 -26 -20 -145 -46 -184 -39 -112 18 -133 18 -184 1 -42 -14 -57 -15 -77
-6 -25 11 -43 8 -30 -5 9 -10 92 -9 155 1 35 5 71 4 105 -4 46 -11 62 -10 141
11 50 13 93 30 99 39 15 25 0 64 -29 78 -24 10 -25 14 -13 26 8 8 32 21 54 28
31 11 41 20 43 39 2 14 15 36 29 49 l25 24 -8 -25 c-5 -14 -8 -41 -9 -60 0
-31 3 -35 28 -38 15 -2 27 -7 27 -12 0 -20 62 -79 88 -84 15 -3 41 -9 57 -13
47 -11 136 -8 184 6 42 12 43 13 22 27 -11 8 -21 21 -21 28 0 7 -12 30 -26 51
-18 26 -22 40 -14 45 8 5 6 9 -5 14 -22 8 -22 8 -22 -11 0 -10 5 -25 12 -33 7
-8 22 -34 33 -57 16 -34 17 -43 6 -43 -8 0 -14 -4 -14 -10 0 -12 -107 -13
-114 -1 -8 12 -53 20 -63 10 -5 -5 -27 3 -51 17 -35 21 -42 30 -43 57 0 27 -2
29 -9 12 -7 -17 -9 -16 -10 10 -1 17 -4 25 -6 18 -4 -8 -12 -5 -26 9 -18 18
-19 24 -9 65 7 25 18 55 26 66 14 22 31 97 22 97 -2 0 -12 -19 -21 -43z"/>
<path d="M2052 1153 c-8 -21 -11 -23 -11 -8 -1 15 -4 16 -13 7 -9 -9 -9 -15 0
-24 7 -7 12 -20 12 -29 0 -9 6 -19 13 -22 9 -3 13 10 13 49 1 30 0 54 -2 54
-1 0 -7 -12 -12 -27z"/>
<path d="M1701 1154 c0 -11 3 -14 6 -6 3 7 2 16 -1 19 -3 4 -6 -2 -5 -13z"/>
<path d="M2091 1124 c0 -11 3 -14 6 -6 3 7 2 16 -1 19 -3 4 -6 -2 -5 -13z"/>
<path d="M2870 1090 c0 -13 11 -25 28 -32 15 -7 34 -21 43 -30 9 -10 22 -18
28 -18 18 0 -15 44 -44 60 -14 7 -25 19 -25 27 0 7 -7 13 -15 13 -8 0 -15 -9
-15 -20z"/>
<path d="M1701 1088 c-1 -9 -11 -34 -23 -54 -12 -21 -17 -34 -10 -30 17 10 45
73 39 88 -4 8 -6 7 -6 -4z"/>
<path d="M2100 1052 c0 -10 43 -42 56 -42 10 0 -17 30 -38 41 -10 6 -18 6 -18
1z"/>
<path d="M2723 986 c2 -5 15 -10 29 -10 14 -1 24 3 22 9 -5 12 -55 14 -51 1z"/>
<path d="M1945 928 c-44 -52 -19 -119 50 -132 18 -4 38 -13 45 -21 7 -8 19
-15 28 -15 12 0 9 7 -11 28 -15 15 -27 35 -28 43 0 7 -5 3 -10 -11 -10 -24
-11 -24 -25 -6 -16 23 -18 52 -4 61 6 3 10 12 10 18 -1 18 -40 -32 -41 -52 0
-10 -4 -8 -10 8 -11 29 -4 58 24 89 11 12 16 22 10 22 -6 0 -23 -14 -38 -32z"/>
<path d="M2811 929 c-1 -21 41 -49 74 -49 l25 0 -20 20 c-25 25 -41 26 -35 3
3 -10 -1 -4 -9 12 -12 24 -15 26 -16 10 l-1 -20 -9 20 c-7 15 -9 16 -9 4z"/>
<path d="M2781 919 c-1 -9 9 -24 22 -35 22 -19 22 -19 6 1 -9 11 -19 27 -22
35 -5 13 -6 13 -6 -1z"/>
<path d="M2465 911 c-6 -6 -25 -13 -44 -16 -59 -10 -68 -23 -16 -21 37 1 51 6
63 24 15 23 13 29 -3 13z"/>
<path d="M1333 709 c-103 -10 -276 -44 -351 -70 -96 -33 -142 -75 -142 -130 0
-21 23 -46 80 -89 100 -76 152 -125 199 -189 29 -39 59 -71 67 -71 13 0 -5 25
-108 154 -17 21 -59 57 -92 79 -34 22 -52 37 -41 33 70 -26 242 -55 357 -61
153 -8 416 8 545 34 l85 18 11 -25 c10 -21 8 -27 -14 -46 -14 -12 -39 -42 -57
-68 -17 -25 -51 -62 -74 -82 -24 -21 -35 -36 -26 -36 16 0 108 93 147 147 12
18 26 33 29 33 4 0 6 -19 5 -42 -2 -33 -1 -38 6 -23 5 11 10 44 10 73 1 46 -3
58 -28 83 -33 32 -62 36 -112 15 -34 -15 -34 -15 22 -9 81 8 85 -12 6 -26 -35
-6 -82 -11 -105 -11 -39 0 -41 1 -33 23 4 12 22 28 39 36 20 9 32 22 32 33 0
12 13 24 34 33 19 8 37 19 40 24 3 5 27 12 53 16 27 4 62 13 78 20 56 25 92
27 145 8 77 -27 99 -56 106 -139 7 -80 23 -111 62 -120 15 -4 42 -15 61 -25
24 -13 46 -16 81 -12 42 5 50 2 81 -25 33 -30 34 -30 15 -51 -15 -17 -31 -21
-77 -21 -51 0 -60 3 -79 28 -28 35 -58 51 -95 51 -31 -1 -28 -3 17 -13 14 -3
41 -18 58 -32 39 -33 26 -45 -39 -37 -38 4 -49 2 -65 -16 -23 -25 -3 -29 28
-6 20 15 94 12 132 -7 12 -5 32 -8 45 -5 19 3 17 5 -8 6 -55 2 -37 21 20 21
41 0 58 5 72 20 17 19 65 28 65 13 0 -4 -12 -20 -27 -35 -15 -15 -22 -28 -17
-28 6 0 23 13 37 30 15 16 33 30 40 30 6 1 -10 10 -37 20 -27 11 -67 33 -88
50 -35 28 -43 31 -84 24 -36 -5 -54 -2 -89 16 -63 33 -75 49 -87 126 -16 98
-30 114 -141 156 -212 82 -539 122 -794 97z m412 -20 c81 -11 268 -45 294 -55
20 -7 -27 -31 -77 -40 -20 -4 -53 -13 -73 -19 -26 -9 -50 -10 -85 -4 -83 16
-456 12 -574 -6 -128 -19 -217 -41 -249 -62 -18 -12 -22 -21 -17 -43 5 -28 5
-29 -27 -18 -112 38 -98 130 27 176 205 77 520 105 781 71z m22 -128 l71 -6
-56 -49 c-32 -27 -65 -62 -75 -78 -9 -16 -29 -33 -44 -39 -45 -17 -425 -13
-531 5 -107 19 -133 28 -151 50 -32 38 13 64 171 95 57 11 123 22 148 24 76 6
391 5 467 -2z"/>
<path d="M1373 503 c9 -2 23 -2 30 0 6 3 -1 5 -18 5 -16 0 -22 -2 -12 -5z"/>
<path d="M1318 493 c6 -2 18 -2 25 0 6 3 1 5 -13 5 -14 0 -19 -2 -12 -5z"/>
<path d="M1275 480 c-3 -6 1 -7 9 -4 18 7 21 14 7 14 -6 0 -13 -4 -16 -10z"/>
<path d="M1070 455 c0 -8 2 -15 4 -15 2 0 6 7 10 15 3 8 1 15 -4 15 -6 0 -10
-7 -10 -15z"/>
<path d="M3028 537 c-79 -19 -88 -24 -88 -44 0 -13 5 -23 11 -23 6 0 8 9 4 20
-5 16 -2 20 14 20 17 0 21 -6 21 -31 0 -26 -3 -31 -20 -26 -11 3 -20 1 -20 -4
0 -5 -6 -9 -14 -9 -17 0 -28 52 -13 63 7 5 -3 6 -22 3 -18 -3 -37 -6 -41 -6
-4 0 -5 -11 -2 -25 2 -14 8 -25 12 -25 5 0 6 8 3 19 -3 11 2 21 11 24 9 4 16
3 17 -1 0 -4 2 -17 5 -29 3 -18 -2 -22 -34 -27 -69 -12 -157 -17 -184 -11 -24
6 -26 9 -16 31 13 28 35 32 41 7 4 -17 5 -17 6 0 0 9 8 17 17 17 10 0 14 -6
10 -15 -3 -8 -1 -15 4 -15 6 0 10 7 10 15 0 23 18 18 23 -7 4 -23 4 -23 6 -1
1 16 9 23 29 26 15 2 -5 5 -43 6 -67 1 -160 26 -190 51 -15 13 -102 -21 -111
-44 -6 -15 52 -106 66 -106 4 0 5 11 2 25 -4 23 -2 24 25 19 22 -4 35 0 56 20
15 14 23 28 17 31 -5 3 -14 -4 -20 -15 -6 -11 -16 -18 -21 -14 -6 3 -21 7 -35
9 -26 3 -59 25 -37 25 7 0 15 -4 18 -10 10 -16 25 -12 19 5 -4 8 -1 15 6 15 6
0 8 5 5 10 -5 8 -11 8 -19 1 -7 -6 -16 -8 -19 -4 -4 3 2 12 13 20 16 12 23 11
52 -7 18 -11 41 -20 52 -20 14 0 17 -5 12 -22 -3 -13 -6 -26 -6 -30 0 -3 -8
-8 -17 -10 -29 -7 57 -28 113 -28 72 0 206 25 293 55 41 14 77 25 81 25 4 0
12 -11 18 -25 14 -31 48 -40 100 -26 38 11 42 10 72 -20 29 -30 35 -31 85 -26
66 7 149 42 139 58 -5 8 -1 10 13 7 12 -3 27 -1 34 4 9 5 -16 6 -66 2 -44 -5
-96 -7 -117 -6 -32 2 -36 0 -31 -18 3 -11 10 -23 15 -26 6 -4 8 2 3 15 -5 15
-2 21 9 21 9 0 16 -7 16 -15 0 -9 9 -15 23 -16 21 0 21 -1 2 -9 -11 -5 -35 -9
-54 -9 -30 -1 -33 1 -27 22 8 32 -37 97 -67 97 -12 0 -40 -7 -62 -14 -37 -13
-40 -13 -54 8 -18 26 -43 46 -56 45 -5 0 -49 -10 -97 -22z m132 -19 c0 -5 -8
-8 -18 -8 -10 0 -22 -4 -27 -9 -6 -5 -26 -14 -45 -19 -19 -5 -42 -13 -51 -16
-12 -6 -16 0 -17 24 0 21 4 30 15 30 9 0 13 -6 9 -15 -6 -17 19 -21 29 -5 3 6
1 10 -4 10 -6 0 -11 5 -11 10 0 16 22 12 37 -7 13 -17 14 -16 8 5 -4 13 -2 22
5 22 6 0 9 -4 6 -9 -3 -5 1 -11 9 -15 10 -4 15 1 15 14 0 18 3 19 20 8 11 -7
20 -16 20 -20z m120 -24 c0 -8 -4 -13 -9 -9 -5 3 -13 1 -16 -5 -8 -12 32 -9
53 3 6 5 17 5 22 2 22 -14 7 -23 -51 -29 -47 -6 -64 -4 -70 6 -12 18 -11 28 1
28 6 0 10 -7 10 -15 0 -8 5 -15 10 -15 6 0 10 8 8 17 -2 10 2 18 9 18 6 0 15
3 19 8 11 11 14 9 14 -9z m30 6 c0 -5 -4 -10 -10 -10 -5 0 -10 5 -10 10 0 6 5
10 10 10 6 0 10 -4 10 -10z m-791 -27 c8 -18 9 -29 1 -37 -7 -7 -10 -5 -10 7
0 9 -4 17 -10 17 -5 0 -10 9 -10 20 0 28 15 25 29 -7z m677 -31 c-10 -10 -29
15 -21 28 6 9 10 8 17 -4 6 -10 7 -20 4 -24z m310 -7 c-29 -15 -43 -14 -33 2
3 5 18 10 34 11 l28 2 -29 -15z m-49 -1 c-3 -3 -12 -4 -19 -1 -8 3 -5 6 6 6
11 1 17 -2 13 -5z"/>
<path d="M1940 530 c0 -5 5 -10 11 -10 5 0 7 5 4 10 -3 6 -8 10 -11 10 -2 0
-4 -4 -4 -10z"/>
<path d="M2010 497 c20 -23 24 -39 26 -108 2 -86 13 -122 15 -48 2 122 2 120
-32 153 -28 26 -29 26 -9 3z"/>
<path d="M2590 489 c0 -5 5 -7 10 -4 6 3 10 8 10 11 0 2 -4 4 -10 4 -5 0 -10
-5 -10 -11z"/>
<path d="M2825 460 c-3 -5 -1 -10 4 -10 6 0 11 5 11 10 0 6 -2 10 -4 10 -3 0
-8 -4 -11 -10z"/>
<path d="M3633 463 c9 -2 25 -2 35 0 9 3 1 5 -18 5 -19 0 -27 -2 -17 -5z"/>
<path d="M2170 446 c0 -8 4 -17 9 -20 5 -4 7 3 4 14 -6 23 -13 26 -13 6z"/>
<path d="M3690 452 c0 -7 -8 -9 -17 -5 -17 6 -17 5 0 -14 21 -24 22 -66 2 -83
-13 -11 -13 -15 -3 -22 24 -16 -46 5 -77 23 -45 27 -108 35 -124 15 -38 -45
26 -97 117 -97 65 1 135 -9 149 -21 7 -6 28 -13 46 -18 32 -7 34 -6 34 21 0
23 -6 29 -29 34 -15 4 -28 10 -28 14 0 4 -11 13 -25 19 -14 6 -25 17 -25 24 0
9 3 9 9 -1 15 -24 37 33 25 66 -10 27 -54 64 -54 45z m30 -22 c0 -5 -2 -10 -4
-10 -3 0 -8 5 -11 10 -3 6 -1 10 4 10 6 0 11 -4 11 -10z m20 -28 c0 -5 -7 -9
-15 -9 -8 0 -12 4 -9 9 3 4 9 8 15 8 5 0 9 -4 9 -8z m0 -32 c0 -5 -4 -10 -10
-10 -5 0 -10 5 -10 10 0 6 5 10 10 10 6 0 10 -4 10 -10z m-192 -28 c12 -8 22
-18 22 -23 0 -15 -44 -10 -70 8 -36 24 -36 23 -21 33 15 9 34 4 69 -18z m57
-52 c3 -5 1 -10 -4 -10 -6 0 -11 5 -11 10 0 6 2 10 4 10 3 0 8 -4 11 -10z
m162 -25 c0 -8 -4 -15 -9 -15 -10 0 -11 14 -1 23 9 10 10 9 10 -8z m33 -15 c0
-5 -4 -10 -10 -10 -5 0 -10 5 -10 10 0 6 5 10 10 10 6 0 10 -4 10 -10z"/>
<path d="M2074 433 c2 -10 11 -43 20 -74 15 -54 39 -89 53 -75 3 3 1 6 -5 6
-5 0 -22 36 -37 80 -15 44 -29 80 -31 80 -3 0 -3 -8 0 -17z"/>
<path d="M2190 371 c0 -5 5 -13 10 -16 6 -3 10 -2 10 4 0 5 -4 13 -10 16 -5 3
-10 2 -10 -4z"/>
<path d="M1767 316 c-23 -23 -21 -59 3 -81 17 -15 20 -16 20 -3 0 9 -7 21 -15
28 -14 12 -14 15 1 31 22 24 14 47 -9 25z"/>
<path d="M1250 296 c0 -15 18 -31 26 -23 7 7 -7 37 -17 37 -5 0 -9 -6 -9 -14z"/>
<path d="M1550 298 c0 -5 5 -8 10 -8 6 0 10 -16 10 -35 0 -19 5 -35 10 -35 6
0 10 16 10 35 0 19 5 35 10 35 6 0 10 3 10 8 0 4 -13 7 -30 7 -16 0 -30 -3
-30 -7z"/>
<path d="M1653 303 c-15 -6 -17 -33 -3 -33 6 0 10 7 10 16 0 10 6 14 15 10 8
-3 15 -1 15 4 0 11 -16 12 -37 3z"/>
<path d="M1324 289 c-4 -7 3 -19 15 -28 15 -12 20 -23 16 -36 -6 -19 -6 -19
10 0 15 19 15 21 -4 34 -26 17 -27 28 -3 34 13 4 12 5 -5 6 -12 0 -25 -4 -29
-10z"/>
<path d="M1400 261 c0 -23 5 -41 11 -41 7 0 10 14 7 35 -3 24 0 35 9 35 7 0
13 -7 13 -15 0 -8 5 -15 11 -15 24 0 2 35 -24 38 -25 3 -27 1 -27 -37z"/>
<path d="M1508 289 c6 -7 12 -23 12 -36 0 -13 5 -23 10 -23 20 0 10 49 -12 61
-19 9 -21 9 -10 -2z"/>
<path d="M1477 283 c-12 -11 -8 -40 8 -53 13 -11 14 -8 9 21 -8 40 -9 41 -17
32z"/>
<path d="M1790 280 c-12 -8 -12 -10 2 -15 20 -8 41 2 33 16 -8 11 -16 11 -35
-1z"/>
<path d="M1197 274 c-11 -11 3 -24 24 -24 12 0 19 5 17 13 -5 14 -31 21 -41
11z"/>
<path d="M1680 251 c0 -12 5 -21 10 -21 6 0 10 6 10 14 0 8 -4 18 -10 21 -5 3
-10 -3 -10 -14z"/>
<path d="M2098 253 c16 -29 30 -32 80 -15 54 18 48 28 -7 11 -37 -11 -43 -10
-62 7 -22 19 -22 19 -11 -3z"/>
<path d="M1251 246 c-8 -9 -11 -19 -7 -23 9 -9 29 13 24 27 -2 8 -8 7 -17 -4z"/>
<path d="M1640 240 c0 -5 5 -10 11 -10 5 0 7 5 4 10 -3 6 -8 10 -11 10 -2 0
-4 -4 -4 -10z"/>
<path d="M1944 212 c4 -43 11 -60 21 -50 3 2 -2 24 -10 49 l-15 44 4 -43z"/>
<path d="M1320 230 c0 -5 5 -10 11 -10 5 0 7 5 4 10 -3 6 -8 10 -11 10 -2 0
-4 -4 -4 -10z"/>
<path d="M1488 193 c-10 -2 -18 -11 -18 -19 0 -17 65 -20 75 -3 11 17 -3 23
-20 9 -9 -7 -18 -10 -22 -6 -3 3 -1 6 5 6 7 0 12 5 12 10 0 10 -3 11 -32 3z"/>
<path d="M1582 183 c-12 -22 -11 -23 30 -23 29 0 38 3 29 9 -8 5 -20 7 -27 4
-7 -2 -14 4 -16 14 -3 16 -5 16 -16 -4z"/>
<path d="M1416 176 c3 -9 11 -16 16 -16 13 0 5 23 -10 28 -7 2 -10 -2 -6 -12z"/>
<path d="M2100 170 c-9 -6 -10 -10 -3 -10 6 0 15 5 18 10 8 12 4 12 -15 0z"/>
<path d="M1388 163 c7 -3 16 -2 19 1 4 3 -2 6 -13 5 -11 0 -14 -3 -6 -6z"/>
<path d="M2163 163 c9 -2 23 -2 30 0 6 3 -1 5 -18 5 -16 0 -22 -2 -12 -5z"/>
</g>
</svg>
