<svg width="79" height="79" viewBox="0 0 79 79" fill="none" xmlns="http://www.w3.org/2000/svg">
<g filter="url(#filter0_d_2_28)">
<circle cx="38.5" cy="38.5" r="32.5" fill="white"/>
<circle cx="38.5" cy="38.5" r="33.5" stroke="url(#paint0_linear_2_28)" stroke-width="2"/>
</g>
<circle cx="39.375" cy="38.375" r="24.375" fill="url(#paint1_linear_2_28)"/>
<path d="M48.9804 39.7804H40.9097V47.7811C40.9097 49.0693 39.8563 50.1136 38.5568 50.1136C37.2573 50.1136 36.2039 49.0693 36.2039 47.7811V39.7804H28.1332C26.9211 39.656 26 38.6434 26 37.4354C26 36.2274 26.9211 35.2148 28.1332 35.0904H36.1786V27.1147C36.3041 25.9131 37.3256 25 38.5442 25C39.7628 25 40.7842 25.9131 40.9097 27.1147V35.0904H48.9804C50.1925 35.2148 51.1136 36.2274 51.1136 37.4354C51.1136 38.6434 50.1925 39.656 48.9804 39.7804V39.7804Z" fill="#E9E9E9"/>
<defs>
<filter id="filter0_d_2_28" x="0" y="0" width="79" height="79" filterUnits="userSpaceOnUse" color-interpolation-filters="sRGB">
<feFlood flood-opacity="0" result="BackgroundImageFix"/>
<feColorMatrix in="SourceAlpha" type="matrix" values="0 0 0 0 0 0 0 0 0 0 0 0 0 0 0 0 0 0 127 0" result="hardAlpha"/>
<feMorphology radius="1" operator="dilate" in="SourceAlpha" result="effect1_dropShadow_2_28"/>
<feOffset dx="1" dy="1"/>
<feGaussianBlur stdDeviation="2"/>
<feComposite in2="hardAlpha" operator="out"/>
<feColorMatrix type="matrix" values="0 0 0 0 0 0 0 0 0 0 0 0 0 0 0 0 0 0 0.25 0"/>
<feBlend mode="normal" in2="BackgroundImageFix" result="effect1_dropShadow_2_28"/>
<feBlend mode="normal" in="SourceGraphic" in2="effect1_dropShadow_2_28" result="shape"/>
</filter>
<linearGradient id="paint0_linear_2_28" x1="6" y1="6" x2="83.4075" y2="28.7116" gradientUnits="userSpaceOnUse">
<stop stop-color="#1A202E"/>
<stop offset="1" stop-color="#424E68"/>
</linearGradient>
<linearGradient id="paint1_linear_2_28" x1="15" y1="14" x2="73.0557" y2="31.0337" gradientUnits="userSpaceOnUse">
<stop stop-color="#1A202E"/>
<stop offset="1" stop-color="#424E68"/>
</linearGradient>
</defs>
</svg>
