<svg width="66" height="66" viewBox="0 0 66 66" fill="none" xmlns="http://www.w3.org/2000/svg">
<circle cx="33" cy="33" r="33" fill="#F6830F"/>
<path d="M47.1119 36.0104H36.1855V46.8422C36.1855 48.5862 34.7593 50 33 50C31.2407 50 29.8145 48.5862 29.8145 46.8422V36.0104H18.8881C17.247 35.842 16 34.4711 16 32.8356C16 31.2001 17.247 29.8293 18.8881 29.6608H29.7803V18.863C29.9502 17.2362 31.3331 16 32.9829 16C34.6327 16 36.0155 17.2362 36.1855 18.863V29.6608H47.1119C48.753 29.8293 50 31.2001 50 32.8356C50 34.4711 48.753 35.842 47.1119 36.0104V36.0104Z" fill="#E9E9E9"/>
</svg>
