<svg width="30" height="30" viewBox="0 0 30 30" fill="none" xmlns="http://www.w3.org/2000/svg">
<path d="M6.87 0C12.3 0 17.73 0 23.17 0C23.16 0.12 23.15 0.24 23.15 0.37C23.15 4.95 23.15 9.53 23.15 14.11C23.15 14.23 23.15 14.35 23.15 14.45C18.68 14.54 15.85 16.7 14.59 20.96C12.04 20.96 9.47 20.96 6.87 20.96C6.87 20.85 6.87 20.74 6.87 20.64C6.87 19.15 6.87 17.65 6.87 16.16C6.87 10.77 6.87 5.39 6.87 0ZM19.63 10.39C19.63 9.82 19.63 9.27 19.63 8.72C16.45 8.72 13.29 8.72 10.13 8.72C10.13 9.29 10.13 9.83 10.13 10.39C13.3 10.39 16.45 10.39 19.63 10.39ZM17.71 5.03C15.81 5.03 13.93 5.03 12.05 5.03C12.05 5.59 12.05 6.14 12.05 6.7C13.94 6.7 15.82 6.7 17.71 6.7C17.71 6.13 17.71 5.59 17.71 5.03Z" fill="url(#paint0_linear_795_53248)"/>
<path d="M5.16005 0C5.16005 0.1 5.17005 0.21 5.17005 0.31C5.17005 7.06 5.17005 13.82 5.17005 20.57C5.17005 20.69 5.17005 20.81 5.17005 20.96C4.65005 20.96 4.16005 20.98 3.67005 20.96C2.36005 20.91 1.16005 21.23 0.130051 22.08C0.120051 22.09 0.100049 22.09 0.0500488 22.09C0.0500488 21.99 0.0500488 21.89 0.0500488 21.79C0.0500488 15.83 0.0500488 9.87 0.0500488 3.91C0.0500488 1.87 1.24005 0.43 3.24005 0.04C3.28005 0.03 3.31005 0.01 3.34005 0C3.95005 0 4.56005 0 5.16005 0Z" fill="url(#paint1_linear_795_53248)"/>
<path d="M0 25.4399C0.13 25.0599 0.209996 24.6499 0.409996 24.2999C1.01 23.2099 1.97 22.6199 3.21 22.6199C6.91 22.5999 10.61 22.6099 14.31 22.6099C14.36 22.6099 14.4 22.6199 14.42 22.6199C14.54 23.4099 14.66 24.1799 14.78 24.9799C11.35 24.9799 7.88 24.9799 4.39 24.9799C4.39 25.5599 4.39 26.1099 4.39 26.6899C4.5 26.6899 4.60999 26.6899 4.71999 26.6899C8.24999 26.6899 11.78 26.6899 15.31 26.6899C15.52 26.6899 15.63 26.7499 15.74 26.9299C16.24 27.7399 16.88 28.4299 17.67 29.0599C17.56 29.0699 17.49 29.0899 17.42 29.0899C12.69 29.0899 7.95999 29.0899 3.21999 29.0899C1.63999 29.0899 0.329995 27.9699 0.0499954 26.4099C0.0399954 26.3599 0.02 26.2999 0 26.2499C0 25.9699 0 25.7099 0 25.4399Z" fill="url(#paint2_linear_795_53248)"/>
<path d="M16.12 22.5999C16.12 19.0299 19.03 16.1299 22.61 16.1299C26.17 16.1399 29.07 19.0399 29.06 22.6099C29.06 26.1799 26.14 29.0899 22.57 29.0799C19.02 29.0699 16.12 26.1599 16.12 22.5999ZM21.76 25.8999C22.33 25.8999 22.88 25.8999 23.43 25.8999C23.43 24.4399 23.43 23.0099 23.43 21.5899C22.86 21.5899 22.32 21.5899 21.76 21.5899C21.76 23.0299 21.76 24.4499 21.76 25.8999ZM22.63 18.7299C22.17 18.7199 21.76 19.0799 21.74 19.5099C21.72 19.9899 22.09 20.4099 22.55 20.4299C23 20.4499 23.43 20.0499 23.44 19.6199C23.45 19.1499 23.08 18.7499 22.63 18.7299Z" fill="url(#paint3_linear_795_53248)"/>
<defs>
<linearGradient id="paint0_linear_795_53248" x1="6.87" y1="0" x2="26.9092" y2="4.57236" gradientUnits="userSpaceOnUse">
<stop stop-color="#1A202E"/>
<stop offset="1" stop-color="#424E68"/>
</linearGradient>
<linearGradient id="paint1_linear_795_53248" x1="0.0500488" y1="0" x2="6.64179" y2="0.448269" gradientUnits="userSpaceOnUse">
<stop stop-color="#1A202E"/>
<stop offset="1" stop-color="#424E68"/>
</linearGradient>
<linearGradient id="paint2_linear_795_53248" x1="0" y1="22.6074" x2="13.9389" y2="33.7552" gradientUnits="userSpaceOnUse">
<stop stop-color="#1A202E"/>
<stop offset="1" stop-color="#424E68"/>
</linearGradient>
<linearGradient id="paint3_linear_795_53248" x1="16.12" y1="16.1299" x2="31.532" y2="20.6483" gradientUnits="userSpaceOnUse">
<stop stop-color="#1A202E"/>
<stop offset="1" stop-color="#424E68"/>
</linearGradient>
</defs>
</svg>
