<svg width="27" height="34" viewBox="0 0 27 34" fill="none" xmlns="http://www.w3.org/2000/svg">
<path d="M4.6517 33.5621C4.19569 33.3797 4.05889 33.0149 4.10449 32.5133C4.15009 32.1029 4.10449 31.6925 4.10449 31.2821C4.10449 30.826 4.4237 30.5068 4.87971 30.5068C7.29656 30.5068 9.75902 30.5068 12.1759 30.5068C12.2215 30.5068 12.2215 30.5068 12.2671 30.5068C12.2671 31.5101 12.2671 32.5589 12.2671 33.5621C9.71342 33.5621 7.15976 33.5621 4.6517 33.5621Z" fill="url(#paint0_linear_795_53237)"/>
<path d="M13.7717 33.5621C13.7717 32.5589 13.7717 31.5557 13.7717 30.5068C13.8629 30.5068 13.9541 30.5068 14.0453 30.5068C16.371 30.5068 18.6966 30.5068 21.0679 30.5068C21.6607 30.5068 21.9799 30.7804 21.9799 31.4189C21.9799 31.7837 21.9799 32.1941 21.9799 32.5589C22.0255 33.0149 21.8431 33.3797 21.4327 33.6077C18.8334 33.5621 16.3254 33.5621 13.7717 33.5621Z" fill="url(#paint1_linear_795_53237)"/>
<path d="M20.9305 28.9567C18.5593 28.9567 16.188 28.9567 13.8168 28.9567C13.8168 28.8655 13.8168 28.7743 13.8168 28.6831C13.8168 26.9502 13.8168 25.1718 13.8168 23.4389C13.8168 22.0253 14.3184 20.8397 15.276 19.8365C16.416 18.6964 17.5561 17.5564 18.6961 16.4164C19.7449 15.3676 21.4777 15.778 21.8882 17.1916C22.1162 17.9668 21.9338 18.6052 21.3865 19.1524C20.4745 20.0645 19.5625 20.9765 18.6961 21.8429C18.5137 22.0253 18.2857 22.2077 18.1033 22.4357C17.7841 22.7549 17.7841 23.2109 18.1033 23.5301C18.4225 23.8493 18.8785 23.8493 19.1977 23.5301C20.3377 22.3901 21.4777 21.2501 22.6178 20.1101C23.9402 18.742 23.849 16.5532 22.4354 15.2308C22.2986 15.094 22.253 15.0027 22.253 14.8203C22.253 13.3611 22.253 11.8563 22.253 10.397C22.253 9.43942 22.9826 8.66421 23.9402 8.5274C24.8522 8.3906 25.7186 8.98341 25.9922 9.89543C26.0378 10.0778 26.0834 10.3058 26.0834 10.4882C26.0834 13.4067 26.0834 16.2796 26.0834 19.198C26.0834 20.5661 25.6274 21.8429 24.761 22.8917C23.5754 24.3054 22.3898 25.7646 21.2041 27.1782C20.9761 27.3606 20.8849 27.543 20.9305 27.8166C20.9305 28.1814 20.9305 28.5463 20.9305 28.9567Z" fill="url(#paint2_linear_795_53237)"/>
<path d="M12.2211 28.9566C9.84982 28.9566 7.47857 28.9566 5.10731 28.9566C5.10731 28.5462 5.10731 28.1814 5.10731 27.771C5.10731 27.543 5.01611 27.3606 4.87931 27.1326C3.73928 25.7645 2.59926 24.3965 1.45923 23.0285C0.45601 21.8884 0 20.566 0 19.0612C0 16.1883 0 13.3155 0 10.4882C0 9.39376 0.866419 8.52734 1.96084 8.52734C2.96407 8.52734 3.83049 9.34816 3.83049 10.3514C3.83049 11.8562 3.83049 13.3611 3.83049 14.9115C3.83049 15.0027 3.78488 15.0939 3.69368 15.1851C2.18885 16.5987 2.14325 18.7876 3.64808 20.2924C4.74251 21.3868 5.79133 22.4357 6.88575 23.5301C7.11376 23.7581 7.38737 23.8493 7.70657 23.7581C8.02578 23.6669 8.20818 23.4389 8.25379 23.1197C8.29939 22.8461 8.16258 22.6181 7.98018 22.3901C6.88575 21.2956 5.83693 20.2468 4.74251 19.1524C4.19529 18.6052 4.01289 17.9212 4.19529 17.1915C4.6057 15.8691 6.29294 15.3675 7.29616 16.3251C8.57299 17.5563 9.84982 18.8332 11.0354 20.11C11.8563 20.9764 12.2667 22.0708 12.2667 23.2565C12.3123 25.1261 12.2667 26.9502 12.2667 28.8198C12.2667 28.8654 12.2211 28.911 12.2211 28.9566Z" fill="url(#paint3_linear_795_53237)"/>
<path d="M19.7453 9.89593C19.5629 10.2607 19.4261 10.3063 19.0613 10.2607C17.8757 9.98713 16.6901 9.89593 15.5045 9.98713C15.0484 10.0327 14.5924 10.1239 14.0908 10.1695C14.1364 10.1239 14.2276 10.0327 14.2732 9.98713C14.866 9.53112 15.5045 9.25751 16.2341 9.12071C16.6901 9.02951 17.1917 8.98391 17.6477 8.98391C18.1493 8.93831 18.5141 8.7559 18.7877 8.29989C18.8789 8.11749 18.9245 7.88948 18.9245 7.66148C18.9245 5.74623 18.9245 3.83099 18.9245 1.91575C18.9245 1.87015 18.9245 1.82454 18.9245 1.73334C19.3805 1.68774 19.6085 1.73334 19.7453 2.09815C19.7453 4.65181 19.7453 7.29667 19.7453 9.89593Z" fill="url(#paint4_linear_795_53237)"/>
<path d="M12.6313 9.75862C12.5401 9.66742 12.4489 9.57621 12.3577 9.48501C11.5825 8.801 10.6705 8.43619 9.62163 8.29939C9.21122 8.25379 8.80081 8.20818 8.39041 8.20818C8.0712 8.20818 7.88879 7.98018 7.88879 7.66097C7.88879 5.28972 7.88879 2.91847 7.88879 0.547212C7.88879 0.182404 8.1168 0 8.43601 0C9.12002 0 9.75844 0.091202 10.4425 0.319207C11.3089 0.638414 12.0385 1.14003 12.5401 1.91524C12.5857 2.00644 12.6313 2.14325 12.6769 2.28005C12.6769 4.74251 12.6769 7.25056 12.6769 9.71302C12.6313 9.71302 12.6313 9.71302 12.6313 9.75862Z" fill="url(#paint5_linear_795_53237)"/>
<path d="M13.3608 9.75884C13.3608 9.66764 13.3608 9.62204 13.3608 9.57644C13.3608 7.20518 13.3608 4.83393 13.3608 2.50828C13.3608 2.14347 13.4976 1.86986 13.68 1.64186C14.3641 0.821038 15.2305 0.365028 16.2337 0.182624C16.6897 0.091422 17.1457 0.0458209 17.6017 0.0458209C17.9209 0.000219915 18.1033 0.228225 18.1033 0.593033C18.1033 2.00666 18.1033 3.4203 18.1033 4.83393C18.1033 5.79155 18.1033 6.70357 18.1033 7.66119C18.1033 8.0716 17.9209 8.25401 17.5105 8.25401C16.6897 8.25401 15.8689 8.39081 15.0937 8.71002C14.4553 8.93802 13.9081 9.30283 13.452 9.75884C13.452 9.71324 13.452 9.71324 13.3608 9.75884Z" fill="url(#paint6_linear_795_53237)"/>
<path d="M11.9474 10.1693C11.0354 9.94129 10.1233 9.89568 9.21131 9.94129C8.4361 9.98689 7.70648 10.0781 6.97686 10.2605C6.56645 10.3517 6.29285 10.1693 6.29285 9.71328C6.29285 7.20522 6.29285 4.74277 6.29285 2.23471C6.29285 1.8699 6.47525 1.6875 6.84006 1.6875C6.93126 1.6875 7.02246 1.6875 7.11367 1.6875C7.11367 1.7331 7.11367 1.8243 7.11367 1.8699C7.11367 3.78515 7.11367 5.70039 7.11367 7.66123C7.11367 8.11724 7.25047 8.43645 7.61528 8.71006C7.84328 8.89246 8.11689 8.93806 8.39049 8.98366C8.93771 8.98366 9.48492 9.02927 10.0321 9.21167C10.7161 9.39407 11.309 9.66768 11.8562 10.1237C11.8562 10.0781 11.9018 10.1237 11.9474 10.1693C11.9018 10.1693 11.9018 10.1237 11.9474 10.1693Z" fill="url(#paint7_linear_795_53237)"/>
<defs>
<linearGradient id="paint0_linear_795_53237" x1="4.09619" y1="30.5068" x2="10.6372" y2="35.6393" gradientUnits="userSpaceOnUse">
<stop stop-color="#F6830F"/>
<stop offset="1" stop-color="#F6C30F"/>
</linearGradient>
<linearGradient id="paint1_linear_795_53237" x1="13.7717" y1="30.5068" x2="20.3952" y2="35.6553" gradientUnits="userSpaceOnUse">
<stop stop-color="#F6830F"/>
<stop offset="1" stop-color="#F6C30F"/>
</linearGradient>
<linearGradient id="paint2_linear_795_53237" x1="13.8168" y1="8.50781" x2="29.2058" y2="11.2163" gradientUnits="userSpaceOnUse">
<stop stop-color="#F6830F"/>
<stop offset="1" stop-color="#F6C30F"/>
</linearGradient>
<linearGradient id="paint3_linear_795_53237" x1="0" y1="8.52734" x2="15.412" y2="11.247" gradientUnits="userSpaceOnUse">
<stop stop-color="#F6830F"/>
<stop offset="1" stop-color="#F6C30F"/>
</linearGradient>
<linearGradient id="paint4_linear_795_53237" x1="14.0908" y1="1.71875" x2="21.1394" y2="3.08542" gradientUnits="userSpaceOnUse">
<stop stop-color="#F6830F"/>
<stop offset="1" stop-color="#F6C30F"/>
</linearGradient>
<linearGradient id="paint5_linear_795_53237" x1="7.88879" y1="0" x2="13.956" y2="0.873432" gradientUnits="userSpaceOnUse">
<stop stop-color="#F6830F"/>
<stop offset="1" stop-color="#F6C30F"/>
</linearGradient>
<linearGradient id="paint6_linear_795_53237" x1="13.3608" y1="0.0400391" x2="19.3716" y2="0.900615" gradientUnits="userSpaceOnUse">
<stop stop-color="#F6830F"/>
<stop offset="1" stop-color="#F6C30F"/>
</linearGradient>
<linearGradient id="paint7_linear_795_53237" x1="6.29285" y1="1.6875" x2="13.3438" y2="3.04838" gradientUnits="userSpaceOnUse">
<stop stop-color="#F6830F"/>
<stop offset="1" stop-color="#F6C30F"/>
</linearGradient>
</defs>
</svg>
