<svg width="79" height="79" viewBox="0 0 79 79" fill="none" xmlns="http://www.w3.org/2000/svg">
<g filter="url(#filter0_d_1_74)">
<circle cx="38.5" cy="38.5" r="32.5" fill="white"/>
<circle cx="38.5" cy="38.5" r="33.5" stroke="url(#paint0_linear_1_74)" stroke-width="2"/>
</g>
<path d="M31.0312 51.2049V43.4187H38.0458V49.5495L31.0312 51.2049Z" fill="#5C381A"/>
<path d="M21 21H55.2031V38.6908H21V21Z" fill="#62AF89"/>
<path d="M48.7073 23.3429C47.8998 23.3541 47.1131 23.6014 46.4444 24.0543C45.7756 24.5071 45.254 25.1458 44.9438 25.8915C44.6336 26.6372 44.5483 27.4574 44.6985 28.2509C44.8488 29.0445 45.2279 29.7768 45.7893 30.3575L48.7073 27.5516V23.3429Z" fill="#ED9E21"/>
<path d="M21 38.6906H55.2031V41.0475H21V38.6906Z" fill="#A4622D"/>
<path d="M21 37.5122H55.2031V38.6906H21V37.5122Z" fill="#5BA07D"/>
<path d="M32.7988 27.5517V32.2094H35.1557V31.031H35.31C35.5829 31.0273 35.8434 30.9163 36.0351 30.722C36.2268 30.5277 36.3342 30.2657 36.3342 29.9928V27.5517H32.7988Z" fill="#FCCAA7"/>
<path d="M32.1954 26.3454C32.3781 25.9815 32.6587 25.6758 33.0057 25.4626C33.3527 25.2495 33.7522 25.1374 34.1594 25.1389H36.334C36.6465 25.1389 36.9462 25.2631 37.1672 25.4841C37.3883 25.7051 37.5124 26.0048 37.5124 26.3173C37.5124 26.6299 37.3883 26.9296 37.1672 27.1506C36.9462 27.3716 36.6465 27.4958 36.334 27.4958H33.9771L32.7986 29.2635L32.3356 28.548C32.1178 28.2268 31.99 27.8531 31.9653 27.4658C31.9406 27.0785 32.0201 26.6917 32.1954 26.3454V26.3454Z" fill="#7B4A22"/>
<path d="M45.1866 28.6744C45.0688 28.6761 44.9532 28.6425 44.8548 28.5779C44.7563 28.5132 44.6794 28.4206 44.6341 28.3119C44.5888 28.2031 44.5772 28.0833 44.6006 27.9679C44.6241 27.8525 44.6816 27.7467 44.7657 27.6643L46.5334 25.8966C46.6477 25.7901 46.7981 25.7309 46.9543 25.7309C47.1105 25.7309 47.2609 25.7901 47.3751 25.8966C47.484 26.0069 47.545 26.1556 47.545 26.3105C47.545 26.4654 47.484 26.6141 47.3751 26.7243L45.6075 28.492C45.4967 28.6059 45.3454 28.6714 45.1866 28.6744V28.6744Z" fill="#7B4A22"/>
<path d="M25.1386 48.1323L22.431 49.2827C22.017 49.465 21.663 49.7606 21.4098 50.1354C21.1566 50.5102 21.0145 50.949 21 51.4011V53.9684H31.6201V51.4011C31.6221 50.9417 31.4905 50.4916 31.2415 50.1056C30.9924 49.7195 30.6365 49.4142 30.2172 49.2266L27.5236 48.0762L25.1386 48.1323Z" fill="#91A667"/>
<path d="M26.261 43.4189C26.5764 43.4114 26.8901 43.4673 27.1835 43.5832C27.4769 43.6992 27.744 43.8729 27.969 44.094C28.1941 44.3151 28.3724 44.5791 28.4935 44.8704C28.6146 45.1617 28.676 45.4744 28.674 45.7899V46.3791C28.6723 46.6922 28.6081 47.0018 28.4854 47.2899C28.3626 47.5779 28.1836 47.8386 27.959 48.0567C27.7344 48.2748 27.4685 48.446 27.177 48.5602C26.8854 48.6744 26.5741 48.7294 26.261 48.722V48.722C25.6359 48.722 25.0365 48.4736 24.5944 48.0316C24.1524 47.5896 23.9041 46.9902 23.9041 46.3651V45.7899C23.9023 45.4792 23.9619 45.1712 24.0795 44.8836C24.1971 44.596 24.3704 44.3346 24.5895 44.1142C24.8085 43.8939 25.069 43.719 25.3558 43.5997C25.6427 43.4804 25.9503 43.4189 26.261 43.4189V43.4189Z" fill="#7B4A22"/>
<path d="M46.365 48.1323L43.6714 49.2827C43.2521 49.4703 42.8962 49.7757 42.6471 50.1617C42.3981 50.5477 42.2665 50.9978 42.2685 51.4572V54.0246H52.9167V51.4011C52.9186 50.9417 52.7871 50.4916 52.538 50.1056C52.289 49.7195 51.9331 49.4142 51.5137 49.2266L48.7079 48.1323H46.365Z" fill="#EA2D2F"/>
<path d="M47.5429 43.4187C47.8536 43.4187 48.1612 43.4802 48.4481 43.5995C48.735 43.7188 48.9954 43.8937 49.2145 44.114C49.4335 44.3344 49.6068 44.5958 49.7244 44.8834C49.8421 45.171 49.9017 45.479 49.8998 45.7897V46.3789C49.8998 47.004 49.6515 47.6035 49.2095 48.0455C48.7675 48.4875 48.168 48.7358 47.5429 48.7358V48.7358C46.9178 48.7358 46.3183 48.4875 45.8763 48.0455C45.4343 47.6035 45.186 47.004 45.186 46.3789V45.7897C45.1842 45.479 45.2438 45.171 45.3614 44.8834C45.479 44.5958 45.6523 44.3344 45.8713 44.114C46.0904 43.8937 46.3508 43.7188 46.6377 43.5995C46.9246 43.4802 47.2322 43.4187 47.5429 43.4187V43.4187Z" fill="#7B4A22"/>
<path d="M48.7077 23.3431V27.5518L45.8037 30.3576C46.2812 30.8438 46.8718 31.2041 47.5226 31.4063C48.1734 31.6085 48.8641 31.6463 49.5331 31.5163C50.2021 31.3863 50.8284 31.0925 51.3561 30.6613C51.8838 30.2301 52.2965 29.6748 52.5572 29.0452C52.8178 28.4155 52.9184 27.7311 52.85 27.053C52.7815 26.375 52.5461 25.7245 52.1648 25.1596C51.7835 24.5948 51.2681 24.1333 50.6649 23.8163C50.0616 23.4993 49.3892 23.3367 48.7077 23.3431V23.3431Z" fill="#A77029"/>
<path d="M46.9542 34.5663H46.3649C46.2087 34.5663 46.0588 34.5042 45.9483 34.3937C45.8378 34.2832 45.7757 34.1334 45.7757 33.9771C45.7757 33.8208 45.8378 33.6709 45.9483 33.5604C46.0588 33.4499 46.2087 33.3879 46.3649 33.3879H46.9542C47.1104 33.3879 47.2603 33.4499 47.3708 33.5604C47.4813 33.6709 47.5434 33.8208 47.5434 33.9771C47.5434 34.1334 47.4813 34.2832 47.3708 34.3937C47.2603 34.5042 47.1104 34.5663 46.9542 34.5663Z" fill="#DDDCD6"/>
<path d="M52.2565 34.5663H49.3103C49.1541 34.5663 49.0042 34.5042 48.8937 34.3937C48.7832 34.2832 48.7211 34.1334 48.7211 33.9771C48.7211 33.8208 48.7832 33.6709 48.8937 33.5604C49.0042 33.4499 49.1541 33.3879 49.3103 33.3879H52.2565C52.4127 33.3879 52.5626 33.4499 52.6731 33.5604C52.7836 33.6709 52.8457 33.8208 52.8457 33.9771C52.8457 34.1334 52.7836 34.2832 52.6731 34.3937C52.5626 34.5042 52.4127 34.5663 52.2565 34.5663Z" fill="#DDDCD6"/>
<path d="M51.0787 36.9227H46.3649C46.2087 36.9227 46.0588 36.8606 45.9483 36.7501C45.8378 36.6396 45.7757 36.4897 45.7757 36.3335C45.7757 36.1772 45.8378 36.0273 45.9483 35.9168C46.0588 35.8063 46.2087 35.7442 46.3649 35.7442H51.0787C51.235 35.7442 51.3849 35.8063 51.4954 35.9168C51.6059 36.0273 51.668 36.1772 51.668 36.3335C51.668 36.4897 51.6059 36.6396 51.4954 36.7501C51.3849 36.8606 51.235 36.9227 51.0787 36.9227V36.9227Z" fill="#DDDCD6"/>
<path d="M39.2796 31.3536L44.5967 27.5517L46.3644 29.3194L41.3559 33.6123L39.2796 31.3536Z" fill="#FCCAA7"/>
<path d="M39.2799 31.3532L38.1015 32.209H30.5818C29.9183 32.2127 29.2831 32.4789 28.8152 32.9495C28.3473 33.42 28.0846 34.0566 28.0846 34.7202V36.1231H31.0308V43.4604H38.0454V36.4458L41.3001 33.64L39.2799 31.3532Z" fill="#95CFF1"/>
<path d="M33.3881 34.5659H39.2803V39.2797H33.3881V34.5659Z" fill="#2D70B8"/>
<path d="M28.0846 36.0813V39.1396C28.0846 39.6456 28.2857 40.1309 28.6435 40.4888C29.0013 40.8466 29.4866 41.0476 29.9926 41.0476H34.5661V38.1015H31.0308V36.0813H28.0846Z" fill="#FCCAA7"/>
<path d="M35.7445 48.1323L33.0509 49.2827C32.6315 49.4703 32.2757 49.7756 32.0266 50.1617C31.7776 50.5477 31.646 50.9978 31.648 51.4572V54.0246H42.2681V51.4011C42.2701 50.9417 42.1385 50.4916 41.8895 50.1056C41.6404 49.7195 41.2846 49.4142 40.8652 49.2266L38.1575 48.0762L35.7445 48.1323Z" fill="#CBCBCB"/>
<path d="M36.9229 43.4187C37.2336 43.4187 37.5412 43.4802 37.8281 43.5995C38.1149 43.7188 38.3754 43.8937 38.5944 44.114C38.8135 44.3344 38.9868 44.5958 39.1044 44.8834C39.222 45.171 39.2816 45.479 39.2798 45.7897V46.3789C39.2798 47.004 39.0315 47.6035 38.5894 48.0455C38.1474 48.4875 37.548 48.7358 36.9229 48.7358V48.7358C36.2978 48.7358 35.6983 48.4875 35.2563 48.0455C34.8143 47.6035 34.566 47.004 34.566 46.3789V45.7897C34.5641 45.479 34.6237 45.171 34.7413 44.8834C34.859 44.5958 35.0323 44.3344 35.2513 44.114C35.4704 43.8937 35.7308 43.7188 36.0177 43.5995C36.3045 43.4802 36.6122 43.4187 36.9229 43.4187V43.4187Z" fill="#ED9E21"/>
<path d="M23.9601 51.6679C23.9601 51.5116 23.898 51.3618 23.7875 51.2513C23.677 51.1408 23.5272 51.0787 23.3709 51.0787C23.2146 51.0787 23.0648 51.1408 22.9542 51.2513C22.8437 51.3618 22.7817 51.5116 22.7817 51.6679V54.0248H23.9601V51.6679Z" fill="#778754"/>
<path d="M29.8526 51.6679C29.8526 51.5116 29.7905 51.3618 29.68 51.2513C29.5695 51.1408 29.4197 51.0787 29.2634 51.0787C29.1071 51.0787 28.9572 51.1408 28.8467 51.2513C28.7362 51.3618 28.6742 51.5116 28.6742 51.6679V54.0248H29.8526V51.6679Z" fill="#778754"/>
<path d="M45.1861 51.6679C45.1861 51.5116 45.124 51.3618 45.0135 51.2513C44.903 51.1408 44.7532 51.0787 44.5969 51.0787C44.4406 51.0787 44.2907 51.1408 44.1802 51.2513C44.0697 51.3618 44.0077 51.5116 44.0077 51.6679V54.0248H45.1861V51.6679Z" fill="#CB2628"/>
<path d="M51.0788 51.6679C51.0788 51.5116 51.0168 51.3618 50.9063 51.2513C50.7957 51.1408 50.6459 51.0787 50.4896 51.0787C50.3333 51.0787 50.1835 51.1408 50.073 51.2513C49.9625 51.3618 49.9004 51.5116 49.9004 51.6679V54.0248H51.0788V51.6679Z" fill="#CB2628"/>
<path d="M34.5665 51.6679C34.5665 51.5116 34.5045 51.3618 34.394 51.2513C34.2835 51.1408 34.1336 51.0787 33.9773 51.0787C33.821 51.0787 33.6712 51.1408 33.5607 51.2513C33.4502 51.3618 33.3881 51.5116 33.3881 51.6679V54.0248H34.5665V51.6679Z" fill="#BABABA"/>
<path d="M40.4721 51.668C40.4502 51.5255 40.378 51.3957 40.2687 51.3018C40.1593 51.208 40.02 51.1564 39.8759 51.1564C39.7318 51.1564 39.5924 51.208 39.4831 51.3018C39.3737 51.3957 39.3015 51.5255 39.2796 51.668V54.0249H40.4721V51.668Z" fill="#BABABA"/>
<path d="M31.0312 36.0813H31.6205V38.1015H31.0312V36.0813Z" fill="#69BCE9"/>
<path d="M31.0312 41.0478H34.5666V41.6511H31.0312V41.0478Z" fill="#69BCE9"/>
<path d="M34.5659 39.2796H38.1013V39.8688H34.5659V39.2796Z" fill="#69BCE9"/>
<path d="M35.7442 34.5659H36.9227V39.2797H35.7442V34.5659Z" fill="#6897D0"/>
<defs>
<filter id="filter0_d_1_74" x="0" y="0" width="79" height="79" filterUnits="userSpaceOnUse" color-interpolation-filters="sRGB">
<feFlood flood-opacity="0" result="BackgroundImageFix"/>
<feColorMatrix in="SourceAlpha" type="matrix" values="0 0 0 0 0 0 0 0 0 0 0 0 0 0 0 0 0 0 127 0" result="hardAlpha"/>
<feMorphology radius="1" operator="dilate" in="SourceAlpha" result="effect1_dropShadow_1_74"/>
<feOffset dx="1" dy="1"/>
<feGaussianBlur stdDeviation="2"/>
<feComposite in2="hardAlpha" operator="out"/>
<feColorMatrix type="matrix" values="0 0 0 0 0 0 0 0 0 0 0 0 0 0 0 0 0 0 0.25 0"/>
<feBlend mode="normal" in2="BackgroundImageFix" result="effect1_dropShadow_1_74"/>
<feBlend mode="normal" in="SourceGraphic" in2="effect1_dropShadow_1_74" result="shape"/>
</filter>
<linearGradient id="paint0_linear_1_74" x1="6" y1="6" x2="83.4075" y2="28.7116" gradientUnits="userSpaceOnUse">
<stop stop-color="#F6830F"/>
<stop offset="1" stop-color="#F6C30F"/>
</linearGradient>
</defs>
</svg>
