<svg width="161" height="166" viewBox="0 0 161 166" fill="none" xmlns="http://www.w3.org/2000/svg">
<g filter="url(#filter0_d_4060_35532)">
<ellipse cx="42.4034" cy="43.4048" rx="32.0902" ry="32.4048" fill="white"/>
<path d="M42.4034 77.6973C61.1862 77.6973 76.3813 62.3266 76.3813 43.4048C76.3813 24.483 61.1862 9.11234 42.4034 9.11234C23.6207 9.11234 8.42557 24.483 8.42557 43.4048C8.42557 62.3266 23.6207 77.6973 42.4034 77.6973Z" stroke="#F6460F" stroke-width="3.77532"/>
</g>
<g filter="url(#filter1_d_4060_35532)">
<circle cx="60.0216" cy="123.631" r="32.0902" fill="white"/>
<circle cx="60.0216" cy="123.631" r="33.9779" stroke="#0E918C" stroke-width="3.77532"/>
</g>
<g filter="url(#filter2_d_4060_35532)">
<circle cx="107.213" cy="72.6639" r="42.7869" fill="white"/>
<circle cx="107.213" cy="72.6639" r="44.6746" stroke="#2CB764" stroke-width="3.77532"/>
</g>
<ellipse cx="42.4034" cy="43.4048" rx="32.0902" ry="32.4048" fill="white"/>
<path d="M28.8113 58.9588C28.2777 58.9588 27.797 58.8431 27.3691 58.6115C26.9413 58.3749 26.604 58.0502 26.3573 57.6375C26.1157 57.2247 25.9949 56.7641 25.9949 56.2557C25.9949 55.7473 26.1157 55.2867 26.3573 54.8739C26.604 54.4612 26.9413 54.139 27.3691 53.9075C27.797 53.6709 28.2777 53.5526 28.8113 53.5526C29.3398 53.5526 29.818 53.6709 30.2459 53.9075C30.6738 54.139 31.0085 54.4612 31.2501 54.8739C31.4918 55.2817 31.6126 55.7423 31.6126 56.2557C31.6126 56.7692 31.4918 57.2323 31.2501 57.645C31.0085 58.0528 30.6738 58.3749 30.2459 58.6115C29.818 58.8431 29.3398 58.9588 28.8113 58.9588ZM28.8113 58.2868C29.1989 58.2868 29.5462 58.1987 29.8533 58.0226C30.1654 57.8464 30.4095 57.6048 30.5857 57.2977C30.7669 56.9856 30.8575 56.6383 30.8575 56.2557C30.8575 55.8731 30.7669 55.5283 30.5857 55.2213C30.4095 54.9092 30.1654 54.665 29.8533 54.4889C29.5462 54.3127 29.1989 54.2246 28.8113 54.2246C28.4237 54.2246 28.0713 54.3127 27.7542 54.4889C27.4421 54.665 27.1955 54.9092 27.0142 55.2213C26.8381 55.5283 26.75 55.8731 26.75 56.2557C26.75 56.6383 26.8381 56.9856 27.0142 57.2977C27.1955 57.6048 27.4421 57.8464 27.7542 58.0226C28.0713 58.1987 28.4237 58.2868 28.8113 58.2868ZM34.8204 54.8588C35.208 54.8588 35.5553 54.9444 35.8624 55.1156C36.1695 55.2867 36.4086 55.5258 36.5797 55.8329C36.7559 56.1399 36.844 56.4948 36.844 56.8975C36.844 57.3002 36.7559 57.6576 36.5797 57.9697C36.4086 58.2768 36.1695 58.5159 35.8624 58.687C35.5553 58.8582 35.208 58.9437 34.8204 58.9437C34.5335 58.9437 34.2692 58.8884 34.0276 58.7776C33.791 58.6669 33.5897 58.5058 33.4236 58.2944V60.3633H32.6987V54.8966H33.3933V55.5309C33.5544 55.3094 33.7583 55.1433 34.0049 55.0325C34.2516 54.9167 34.5234 54.8588 34.8204 54.8588ZM34.76 58.3095C35.0167 58.3095 35.2458 58.2516 35.4471 58.1358C35.6535 58.015 35.8146 57.8489 35.9304 57.6375C36.0512 57.421 36.1116 57.1744 36.1116 56.8975C36.1116 56.6207 36.0512 56.3765 35.9304 56.1651C35.8146 55.9487 35.6535 55.7825 35.4471 55.6668C35.2458 55.551 35.0167 55.4931 34.76 55.4931C34.5083 55.4931 34.2793 55.5535 34.0729 55.6743C33.8716 55.7901 33.7105 55.9537 33.5897 56.1651C33.4739 56.3765 33.416 56.6207 33.416 56.8975C33.416 57.1744 33.4739 57.421 33.5897 57.6375C33.7054 57.8489 33.8665 58.015 34.0729 58.1358C34.2793 58.2516 34.5083 58.3095 34.76 58.3095ZM40.1334 58.6644C40.0276 58.755 39.8968 58.8254 39.7407 58.8758C39.5847 58.9211 39.4236 58.9437 39.2575 58.9437C38.8548 58.9437 38.5427 58.8355 38.3212 58.6191C38.0997 58.4026 37.989 58.093 37.989 57.6903V55.4931H37.3094V54.8966H37.989V54.0207H38.7138V54.8966H39.8615V55.4931H38.7138V57.6601C38.7138 57.8766 38.7667 58.0427 38.8724 58.1585C38.9831 58.2743 39.1392 58.3321 39.3405 58.3321C39.562 58.3321 39.7508 58.2692 39.9068 58.1434L40.1334 58.6644ZM41.0474 54.8966H41.7723V58.8984H41.0474V54.8966ZM41.4099 54.1264C41.2689 54.1264 41.1506 54.0811 41.055 53.9905C40.9644 53.8999 40.9191 53.7892 40.9191 53.6583C40.9191 53.5274 40.9644 53.4167 41.055 53.3261C41.1506 53.2304 41.2689 53.1826 41.4099 53.1826C41.5508 53.1826 41.6666 53.2279 41.7572 53.3185C41.8529 53.4041 41.9007 53.5123 41.9007 53.6432C41.9007 53.7791 41.8529 53.8949 41.7572 53.9905C41.6666 54.0811 41.5508 54.1264 41.4099 54.1264ZM44.9081 58.9437C44.5104 58.9437 44.153 58.8557 43.8359 58.6795C43.5187 58.5033 43.2696 58.2617 43.0884 57.9546C42.9122 57.6425 42.8241 57.2902 42.8241 56.8975C42.8241 56.5049 42.9122 56.155 43.0884 55.848C43.2696 55.5359 43.5187 55.2943 43.8359 55.1231C44.153 54.9469 44.5104 54.8588 44.9081 54.8588C45.3057 54.8588 45.6606 54.9469 45.9727 55.1231C46.2898 55.2943 46.5365 55.5359 46.7127 55.848C46.8939 56.155 46.9845 56.5049 46.9845 56.8975C46.9845 57.2902 46.8939 57.6425 46.7127 57.9546C46.5365 58.2617 46.2898 58.5033 45.9727 58.6795C45.6606 58.8557 45.3057 58.9437 44.9081 58.9437ZM44.9081 58.3095C45.1648 58.3095 45.3938 58.2516 45.5952 58.1358C45.8016 58.015 45.9626 57.8489 46.0784 57.6375C46.1942 57.421 46.2521 57.1744 46.2521 56.8975C46.2521 56.6207 46.1942 56.3765 46.0784 56.1651C45.9626 55.9487 45.8016 55.7825 45.5952 55.6668C45.3938 55.551 45.1648 55.4931 44.9081 55.4931C44.6513 55.4931 44.4198 55.551 44.2134 55.6668C44.0121 55.7825 43.851 55.9487 43.7302 56.1651C43.6144 56.3765 43.5565 56.6207 43.5565 56.8975C43.5565 57.1744 43.6144 57.421 43.7302 57.6375C43.851 57.8489 44.0121 58.015 44.2134 58.1358C44.4198 58.2516 44.6513 58.3095 44.9081 58.3095ZM50.1615 54.8588C50.6699 54.8588 51.0726 55.0073 51.3696 55.3043C51.6717 55.5963 51.8227 56.0267 51.8227 56.5955V58.8984H51.0978V56.6786C51.0978 56.291 51.0047 55.999 50.8184 55.8027C50.6322 55.6064 50.3654 55.5082 50.0181 55.5082C49.6254 55.5082 49.3159 55.624 49.0893 55.8555C48.8628 56.0821 48.7496 56.4092 48.7496 56.8371V58.8984H48.0247V54.8966H48.7194V55.5007C48.8653 55.2943 49.0617 55.1357 49.3083 55.025C49.56 54.9142 49.8444 54.8588 50.1615 54.8588ZM54.6592 54.8588C55.2129 54.8588 55.6357 54.9948 55.9277 55.2666C56.2247 55.5384 56.3732 55.9436 56.3732 56.4822V58.8984H55.6861V58.3699C55.5653 58.5561 55.3916 58.6996 55.1651 58.8003C54.9436 58.8959 54.6793 58.9437 54.3723 58.9437C53.9242 58.9437 53.5643 58.8355 53.2925 58.6191C53.0257 58.4026 52.8923 58.1182 52.8923 57.7658C52.8923 57.4135 53.0207 57.1316 53.2774 56.9202C53.5341 56.7037 53.9419 56.5955 54.5006 56.5955H55.6483V56.452C55.6483 56.1399 55.5577 55.9008 55.3765 55.7347C55.1953 55.5686 54.9285 55.4856 54.5761 55.4856C54.3395 55.4856 54.108 55.5258 53.8815 55.6064C53.6549 55.6819 53.4637 55.7851 53.3076 55.9159L53.0056 55.3723C53.212 55.2062 53.4586 55.0803 53.7456 54.9948C54.0325 54.9042 54.337 54.8588 54.6592 54.8588ZM54.4931 58.385C54.7699 58.385 55.009 58.3246 55.2104 58.2038C55.4117 58.0779 55.5577 57.9018 55.6483 57.6752V57.1165H54.5308C53.9167 57.1165 53.6096 57.3229 53.6096 57.7356C53.6096 57.937 53.6877 58.0956 53.8437 58.2113C53.9998 58.3271 54.2162 58.385 54.4931 58.385ZM57.7523 53.2959H58.4772V58.8984H57.7523V53.2959Z" fill="#F6460F"/>
<path d="M35.5016 48.957C34.2331 48.957 33.1005 48.6399 32.1038 48.0056C31.1072 47.3563 30.3219 46.42 29.748 45.1968C29.1742 43.9585 28.8873 42.4936 28.8873 40.8023C28.8873 39.111 29.1742 37.6537 29.748 36.4305C30.3219 35.1922 31.1072 34.2559 32.1038 33.6216C33.1005 32.9723 34.2331 32.6476 35.5016 32.6476C36.7701 32.6476 37.9027 32.9723 38.8994 33.6216C39.9112 34.2559 40.704 35.1922 41.2779 36.4305C41.8517 37.6537 42.1386 39.111 42.1386 40.8023C42.1386 42.4936 41.8517 43.9585 41.2779 45.1968C40.704 46.42 39.9112 47.3563 38.8994 48.0056C37.9027 48.6399 36.7701 48.957 35.5016 48.957ZM35.5016 46.3973C36.6342 46.3973 37.5252 45.9292 38.1746 44.9929C38.839 44.0566 39.1712 42.6598 39.1712 40.8023C39.1712 38.9448 38.839 37.548 38.1746 36.6117C37.5252 35.6754 36.6342 35.2073 35.5016 35.2073C34.3841 35.2073 33.4932 35.6754 32.8287 36.6117C32.1794 37.548 31.8547 38.9448 31.8547 40.8023C31.8547 42.6598 32.1794 44.0566 32.8287 44.9929C33.4932 45.9292 34.3841 46.3973 35.5016 46.3973ZM56.0915 32.8741V34.8449L49.9302 48.7305H46.7816L52.739 35.3658H46.5097V38.0614H43.7689V32.8741H56.0915Z" fill="#F6460F"/>
<circle cx="60.0216" cy="123.631" r="32.0902" fill="white"/>
<path d="M39.9722 133.777L39.9647 129.927L38.0544 133.136H37.707L35.7967 129.949V133.777H35.0719V128.492H35.691L37.8958 132.207L40.0704 128.492H40.6895L40.6971 133.777H39.9722ZM43.9294 133.823C43.5317 133.823 43.1743 133.735 42.8572 133.558C42.54 133.382 42.2909 133.141 42.1097 132.834C41.9335 132.521 41.8454 132.169 41.8454 131.776C41.8454 131.384 41.9335 131.034 42.1097 130.727C42.2909 130.415 42.54 130.173 42.8572 130.002C43.1743 129.826 43.5317 129.738 43.9294 129.738C44.327 129.738 44.6819 129.826 44.994 130.002C45.3111 130.173 45.5578 130.415 45.734 130.727C45.9152 131.034 46.0058 131.384 46.0058 131.776C46.0058 132.169 45.9152 132.521 45.734 132.834C45.5578 133.141 45.3111 133.382 44.994 133.558C44.6819 133.735 44.327 133.823 43.9294 133.823ZM43.9294 133.188C44.1861 133.188 44.4151 133.131 44.6165 133.015C44.8228 132.894 44.9839 132.728 45.0997 132.516C45.2155 132.3 45.2734 132.053 45.2734 131.776C45.2734 131.5 45.2155 131.255 45.0997 131.044C44.9839 130.828 44.8228 130.661 44.6165 130.546C44.4151 130.43 44.1861 130.372 43.9294 130.372C43.6726 130.372 43.4411 130.43 43.2347 130.546C43.0333 130.661 42.8723 130.828 42.7515 131.044C42.6357 131.255 42.5778 131.5 42.5778 131.776C42.5778 132.053 42.6357 132.3 42.7515 132.516C42.8723 132.728 43.0333 132.894 43.2347 133.015C43.4411 133.131 43.6726 133.188 43.9294 133.188ZM48.1937 133.823C47.8665 133.823 47.5519 133.78 47.2499 133.694C46.9478 133.604 46.7113 133.49 46.5401 133.355L46.8421 132.781C47.0183 132.907 47.2322 133.007 47.4839 133.083C47.7356 133.158 47.9898 133.196 48.2465 133.196C48.8808 133.196 49.1979 133.015 49.1979 132.652C49.1979 132.531 49.1551 132.436 49.0696 132.365C48.984 132.295 48.8758 132.245 48.7449 132.214C48.619 132.179 48.4378 132.141 48.2012 132.101C47.8791 132.051 47.6148 131.993 47.4084 131.927C47.2071 131.862 47.0334 131.751 46.8874 131.595C46.7415 131.439 46.6685 131.22 46.6685 130.938C46.6685 130.576 46.8195 130.286 47.1215 130.07C47.4235 129.848 47.8287 129.738 48.3372 129.738C48.6039 129.738 48.8707 129.77 49.1375 129.836C49.4043 129.901 49.6233 129.989 49.7944 130.1L49.4849 130.674C49.1577 130.463 48.7726 130.357 48.3296 130.357C48.0225 130.357 47.7885 130.407 47.6274 130.508C47.4663 130.609 47.3858 130.742 47.3858 130.908C47.3858 131.039 47.4311 131.142 47.5217 131.218C47.6123 131.293 47.723 131.349 47.8539 131.384C47.9898 131.419 48.1786 131.459 48.4202 131.505C48.7424 131.56 49.0016 131.62 49.1979 131.686C49.3993 131.746 49.5704 131.852 49.7114 132.003C49.8523 132.154 49.9228 132.365 49.9228 132.637C49.9228 133 49.7667 133.289 49.4547 133.506C49.1476 133.717 48.7273 133.823 48.1937 133.823ZM53.1165 133.543C53.0108 133.634 52.8799 133.704 52.7239 133.755C52.5679 133.8 52.4068 133.823 52.2407 133.823C51.838 133.823 51.5259 133.714 51.3044 133.498C51.0829 133.282 50.9722 132.972 50.9722 132.569V130.372H50.2926V129.776H50.9722V128.9H51.697V129.776H52.8447V130.372H51.697V132.539C51.697 132.755 51.7499 132.922 51.8556 133.037C51.9663 133.153 52.1224 133.211 52.3237 133.211C52.5452 133.211 52.734 133.148 52.89 133.022L53.1165 133.543ZM58.2632 128.492C58.9478 128.492 59.4864 128.655 59.879 128.983C60.2716 129.31 60.468 129.76 60.468 130.334C60.468 130.908 60.2716 131.359 59.879 131.686C59.4864 132.013 58.9478 132.177 58.2632 132.177H56.9569V133.777H56.2018V128.492H58.2632ZM58.2405 131.52C58.7187 131.52 59.0837 131.419 59.3354 131.218C59.5871 131.011 59.7129 130.717 59.7129 130.334C59.7129 129.952 59.5871 129.66 59.3354 129.458C59.0837 129.252 58.7187 129.149 58.2405 129.149H56.9569V131.52H58.2405ZM63.2085 133.823C62.8109 133.823 62.4535 133.735 62.1364 133.558C61.8192 133.382 61.5701 133.141 61.3888 132.834C61.2127 132.521 61.1246 132.169 61.1246 131.776C61.1246 131.384 61.2127 131.034 61.3888 130.727C61.5701 130.415 61.8192 130.173 62.1364 130.002C62.4535 129.826 62.8109 129.738 63.2085 129.738C63.6062 129.738 63.9611 129.826 64.2732 130.002C64.5903 130.173 64.837 130.415 65.0131 130.727C65.1944 131.034 65.285 131.384 65.285 131.776C65.285 132.169 65.1944 132.521 65.0131 132.834C64.837 133.141 64.5903 133.382 64.2732 133.558C63.9611 133.735 63.6062 133.823 63.2085 133.823ZM63.2085 133.188C63.4653 133.188 63.6943 133.131 63.8957 133.015C64.102 132.894 64.2631 132.728 64.3789 132.516C64.4947 132.3 64.5526 132.053 64.5526 131.776C64.5526 131.5 64.4947 131.255 64.3789 131.044C64.2631 130.828 64.102 130.661 63.8957 130.546C63.6943 130.43 63.4653 130.372 63.2085 130.372C62.9518 130.372 62.7203 130.43 62.5139 130.546C62.3125 130.661 62.1515 130.828 62.0306 131.044C61.9149 131.255 61.857 131.5 61.857 131.776C61.857 132.053 61.9149 132.3 62.0306 132.516C62.1515 132.728 62.3125 132.894 62.5139 133.015C62.7203 133.131 62.9518 133.188 63.2085 133.188ZM68.4469 129.738C68.8345 129.738 69.1818 129.823 69.4889 129.994C69.796 130.166 70.0351 130.405 70.2062 130.712C70.3824 131.019 70.4705 131.374 70.4705 131.776C70.4705 132.179 70.3824 132.537 70.2062 132.849C70.0351 133.156 69.796 133.395 69.4889 133.566C69.1818 133.737 68.8345 133.823 68.4469 133.823C68.16 133.823 67.8957 133.767 67.6541 133.657C67.4175 133.546 67.2162 133.385 67.05 133.173V135.242H66.3252V129.776H67.0198V130.41C67.1809 130.188 67.3848 130.022 67.6314 129.911C67.8781 129.796 68.1499 129.738 68.4469 129.738ZM68.3865 133.188C68.6432 133.188 68.8723 133.131 69.0736 133.015C69.28 132.894 69.4411 132.728 69.5569 132.516C69.6777 132.3 69.7381 132.053 69.7381 131.776C69.7381 131.5 69.6777 131.255 69.5569 131.044C69.4411 130.828 69.28 130.661 69.0736 130.546C68.8723 130.43 68.6432 130.372 68.3865 130.372C68.1348 130.372 67.9058 130.432 67.6994 130.553C67.498 130.669 67.337 130.833 67.2162 131.044C67.1004 131.255 67.0425 131.5 67.0425 131.776C67.0425 132.053 67.1004 132.3 67.2162 132.516C67.3319 132.728 67.493 132.894 67.6994 133.015C67.9058 133.131 68.1348 133.188 68.3865 133.188ZM75.2398 129.776V133.777H74.5527V133.173C74.4067 133.38 74.2129 133.541 73.9713 133.657C73.7347 133.767 73.4754 133.823 73.1936 133.823C72.66 133.823 72.2397 133.677 71.9326 133.385C71.6255 133.088 71.472 132.652 71.472 132.078V129.776H72.1969V131.995C72.1969 132.383 72.29 132.677 72.4762 132.879C72.6625 133.075 72.9293 133.173 73.2766 133.173C73.6592 133.173 73.9612 133.058 74.1827 132.826C74.4042 132.594 74.5149 132.267 74.5149 131.844V129.776H75.2398ZM76.6575 128.175H77.3823V133.777H76.6575V128.175ZM80.2614 129.738C80.8151 129.738 81.2379 129.874 81.5299 130.145C81.8269 130.417 81.9753 130.823 81.9753 131.361V133.777H81.2882V133.249C81.1674 133.435 80.9938 133.579 80.7672 133.679C80.5458 133.775 80.2815 133.823 79.9744 133.823C79.5264 133.823 79.1665 133.714 78.8947 133.498C78.6279 133.282 78.4945 132.997 78.4945 132.645C78.4945 132.292 78.6229 132.01 78.8796 131.799C79.1363 131.583 79.544 131.474 80.1028 131.474H81.2505V131.331C81.2505 131.019 81.1599 130.78 80.9787 130.614C80.7974 130.448 80.5307 130.364 80.1783 130.364C79.9417 130.364 79.7102 130.405 79.4836 130.485C79.2571 130.561 79.0658 130.664 78.9098 130.795L78.6078 130.251C78.8141 130.085 79.0608 129.959 79.3477 129.874C79.6347 129.783 79.9392 129.738 80.2614 129.738ZM80.0952 133.264C80.3721 133.264 80.6112 133.203 80.8126 133.083C81.0139 132.957 81.1599 132.781 81.2505 132.554V131.995H80.133C79.5189 131.995 79.2118 132.202 79.2118 132.615C79.2118 132.816 79.2898 132.974 79.4459 133.09C79.6019 133.206 79.8184 133.264 80.0952 133.264ZM84.0492 130.448C84.175 130.216 84.3613 130.04 84.6079 129.919C84.8546 129.798 85.1541 129.738 85.5065 129.738V130.44C85.4662 130.435 85.4108 130.432 85.3403 130.432C84.9477 130.432 84.6381 130.551 84.4116 130.787C84.1901 131.019 84.0794 131.351 84.0794 131.784V133.777H83.3545V129.776H84.0492V130.448Z" fill="#0E918C"/>
<path d="M52.567 123.205C51.2985 123.205 50.1659 122.888 49.1692 122.254C48.1725 121.604 47.3873 120.668 46.8134 119.445C46.2396 118.207 45.9527 116.742 45.9527 115.05C45.9527 113.359 46.2396 111.902 46.8134 110.679C47.3873 109.44 48.1725 108.504 49.1692 107.87C50.1659 107.22 51.2985 106.896 52.567 106.896C53.8355 106.896 54.9681 107.22 55.9648 107.87C56.9766 108.504 57.7694 109.44 58.3433 110.679C58.9171 111.902 59.204 113.359 59.204 115.05C59.204 116.742 58.9171 118.207 58.3433 119.445C57.7694 120.668 56.9766 121.604 55.9648 122.254C54.9681 122.888 53.8355 123.205 52.567 123.205ZM52.567 120.645C53.6996 120.645 54.5906 120.177 55.2399 119.241C55.9044 118.305 56.2366 116.908 56.2366 115.05C56.2366 113.193 55.9044 111.796 55.2399 110.86C54.5906 109.923 53.6996 109.455 52.567 109.455C51.4495 109.455 50.5585 109.923 49.8941 110.86C49.2447 111.796 48.9201 113.193 48.9201 115.05C48.9201 116.908 49.2447 118.305 49.8941 119.241C50.5585 120.177 51.4495 120.645 52.567 120.645ZM71.5913 114.643C72.4218 115.02 73.0561 115.534 73.494 116.183C73.9471 116.817 74.1736 117.565 74.1736 118.425C74.1736 119.392 73.9017 120.238 73.3581 120.962C72.8296 121.687 72.0745 122.246 71.0929 122.639C70.1113 123.016 68.9712 123.205 67.6725 123.205C66.3738 123.205 65.2336 123.016 64.252 122.639C63.2856 122.246 62.538 121.687 62.0095 120.962C61.481 120.238 61.2167 119.392 61.2167 118.425C61.2167 117.565 61.4356 116.817 61.8736 116.183C62.3115 115.534 62.9382 115.02 63.7537 114.643C63.1194 114.295 62.6286 113.842 62.2813 113.284C61.9491 112.71 61.783 112.053 61.783 111.313C61.783 110.422 62.0246 109.644 62.5078 108.98C63.0062 108.315 63.7008 107.802 64.5918 107.439C65.4828 107.077 66.5097 106.896 67.6725 106.896C68.8504 106.896 69.8848 107.077 70.7758 107.439C71.6668 107.802 72.3614 108.315 72.8598 108.98C73.3581 109.644 73.6073 110.422 73.6073 111.313C73.6073 112.053 73.4336 112.702 73.0863 113.261C72.7389 113.82 72.2406 114.28 71.5913 114.643ZM67.6725 109.206C66.7513 109.206 66.0189 109.402 65.4752 109.795C64.9467 110.188 64.6824 110.739 64.6824 111.449C64.6824 112.128 64.9467 112.672 65.4752 113.08C66.0189 113.472 66.7513 113.669 67.6725 113.669C68.6088 113.669 69.3487 113.472 69.8924 113.08C70.436 112.672 70.7078 112.128 70.7078 111.449C70.7078 110.739 70.4285 110.188 69.8697 109.795C69.3261 109.402 68.5937 109.206 67.6725 109.206ZM67.6725 120.895C68.7598 120.895 69.6205 120.668 70.2548 120.215C70.889 119.762 71.2062 119.135 71.2062 118.335C71.2062 117.55 70.889 116.93 70.2548 116.477C69.6205 116.024 68.7598 115.798 67.6725 115.798C66.5852 115.798 65.732 116.024 65.1128 116.477C64.4937 116.93 64.1841 117.55 64.1841 118.335C64.1841 119.135 64.4937 119.762 65.1128 120.215C65.732 120.668 66.5852 120.895 67.6725 120.895Z" fill="#0E918C"/>
<circle cx="107.213" cy="72.6639" r="42.7869" fill="white"/>
<path d="M91.8768 88.4727L91.8693 84.6218L89.9589 87.8309H89.6116L87.7013 84.6445V88.4727H86.9764V83.1872H87.5956L89.8004 86.9021L91.975 83.1872H92.5941L92.6017 88.4727H91.8768ZM95.5772 84.4331C96.1309 84.4331 96.5538 84.569 96.8457 84.8408C97.1427 85.1126 97.2912 85.5178 97.2912 86.0565V88.4727H96.6041V87.9441C96.4833 88.1304 96.3096 88.2738 96.0831 88.3745C95.8616 88.4701 95.5973 88.518 95.2903 88.518C94.8423 88.518 94.4824 88.4097 94.2105 88.1933C93.9438 87.9768 93.8104 87.6924 93.8104 87.3401C93.8104 86.9877 93.9387 86.7058 94.1954 86.4944C94.4522 86.2779 94.8599 86.1697 95.4186 86.1697H96.5663V86.0263C96.5663 85.7142 96.4757 85.4751 96.2945 85.3089C96.1133 85.1428 95.8465 85.0598 95.4941 85.0598C95.2576 85.0598 95.026 85.1 94.7995 85.1806C94.573 85.2561 94.3817 85.3593 94.2256 85.4902L93.9236 84.9465C94.13 84.7804 94.3767 84.6546 94.6636 84.569C94.9505 84.4784 95.255 84.4331 95.5772 84.4331ZM95.4111 87.9592C95.6879 87.9592 95.9271 87.8988 96.1284 87.778C96.3298 87.6522 96.4757 87.476 96.5663 87.2495V86.6907H95.4488C94.8347 86.6907 94.5277 86.8971 94.5277 87.3099C94.5277 87.5112 94.6057 87.6698 94.7617 87.7855C94.9178 87.9013 95.1342 87.9592 95.4111 87.9592ZM100.807 84.4331C101.316 84.4331 101.718 84.5816 102.015 84.8786C102.317 85.1705 102.468 85.6009 102.468 86.1697V88.4727H101.743V86.2528C101.743 85.8652 101.65 85.5732 101.464 85.3769C101.278 85.1806 101.011 85.0824 100.664 85.0824C100.271 85.0824 99.9615 85.1982 99.735 85.4298C99.5085 85.6563 99.3952 85.9835 99.3952 86.4113V88.4727H98.6704V84.4708H99.365V85.0749C99.511 84.8685 99.7073 84.7099 99.954 84.5992C100.206 84.4884 100.49 84.4331 100.807 84.4331ZM107.645 82.8701V88.4727H106.95V87.8384C106.789 88.0599 106.585 88.2285 106.339 88.3443C106.092 88.4601 105.82 88.518 105.523 88.518C105.136 88.518 104.788 88.4324 104.481 88.2612C104.174 88.0901 103.933 87.851 103.756 87.5439C103.585 87.2318 103.5 86.8744 103.5 86.4717C103.5 86.069 103.585 85.7142 103.756 85.4071C103.933 85.1 104.174 84.8609 104.481 84.6898C104.788 84.5186 105.136 84.4331 105.523 84.4331C105.81 84.4331 106.074 84.4884 106.316 84.5992C106.558 84.7049 106.759 84.8635 106.92 85.0749V82.8701H107.645ZM105.584 87.8837C105.835 87.8837 106.064 87.8258 106.271 87.71C106.477 87.5892 106.638 87.4231 106.754 87.2117C106.87 86.9952 106.928 86.7486 106.928 86.4717C106.928 86.1949 106.87 85.9507 106.754 85.7393C106.638 85.5229 106.477 85.3568 106.271 85.241C106.064 85.1252 105.835 85.0673 105.584 85.0673C105.327 85.0673 105.095 85.1252 104.889 85.241C104.688 85.3568 104.527 85.5229 104.406 85.7393C104.29 85.9507 104.232 86.1949 104.232 86.4717C104.232 86.7486 104.29 86.9952 104.406 87.2117C104.527 87.4231 104.688 87.5892 104.889 87.71C105.095 87.8258 105.327 87.8837 105.584 87.8837ZM110.512 84.4331C111.065 84.4331 111.488 84.569 111.78 84.8408C112.077 85.1126 112.226 85.5178 112.226 86.0565V88.4727H111.538V87.9441C111.418 88.1304 111.244 88.2738 111.017 88.3745C110.796 88.4701 110.532 88.518 110.225 88.518C109.777 88.518 109.417 88.4097 109.145 88.1933C108.878 87.9768 108.745 87.6924 108.745 87.3401C108.745 86.9877 108.873 86.7058 109.13 86.4944C109.386 86.2779 109.794 86.1697 110.353 86.1697H111.501V86.0263C111.501 85.7142 111.41 85.4751 111.229 85.3089C111.048 85.1428 110.781 85.0598 110.428 85.0598C110.192 85.0598 109.96 85.1 109.734 85.1806C109.507 85.2561 109.316 85.3593 109.16 85.4902L108.858 84.9465C109.064 84.7804 109.311 84.6546 109.598 84.569C109.885 84.4784 110.189 84.4331 110.512 84.4331ZM110.345 87.9592C110.622 87.9592 110.861 87.8988 111.063 87.778C111.264 87.6522 111.41 87.476 111.501 87.2495V86.6907H110.383C109.769 86.6907 109.462 86.8971 109.462 87.3099C109.462 87.5112 109.54 87.6698 109.696 87.7855C109.852 87.9013 110.069 87.9592 110.345 87.9592ZM115.855 88.2386C115.749 88.3292 115.618 88.3997 115.462 88.45C115.306 88.4953 115.145 88.518 114.979 88.518C114.576 88.518 114.264 88.4097 114.043 88.1933C113.821 87.9768 113.71 87.6673 113.71 87.2646V85.0673H113.031V84.4708H113.71V83.5949H114.435V84.4708H115.583V85.0673H114.435V87.2344C114.435 87.4508 114.488 87.6169 114.594 87.7327C114.705 87.8485 114.861 87.9064 115.062 87.9064C115.283 87.9064 115.472 87.8434 115.628 87.7176L115.855 88.2386ZM118.35 88.518C117.952 88.518 117.595 88.4299 117.278 88.2537C116.961 88.0775 116.712 87.8359 116.53 87.5288C116.354 87.2167 116.266 86.8644 116.266 86.4717C116.266 86.0791 116.354 85.7293 116.53 85.4222C116.712 85.1101 116.961 84.8685 117.278 84.6973C117.595 84.5212 117.952 84.4331 118.35 84.4331C118.748 84.4331 119.103 84.5212 119.415 84.6973C119.732 84.8685 119.979 85.1101 120.155 85.4222C120.336 85.7293 120.427 86.0791 120.427 86.4717C120.427 86.8644 120.336 87.2167 120.155 87.5288C119.979 87.8359 119.732 88.0775 119.415 88.2537C119.103 88.4299 118.748 88.518 118.35 88.518ZM118.35 87.8837C118.607 87.8837 118.836 87.8258 119.037 87.71C119.244 87.5892 119.405 87.4231 119.521 87.2117C119.636 86.9952 119.694 86.7486 119.694 86.4717C119.694 86.1949 119.636 85.9507 119.521 85.7393C119.405 85.5229 119.244 85.3568 119.037 85.241C118.836 85.1252 118.607 85.0673 118.35 85.0673C118.093 85.0673 117.862 85.1252 117.655 85.241C117.454 85.3568 117.293 85.5229 117.172 85.7393C117.056 85.9507 116.999 86.1949 116.999 86.4717C116.999 86.7486 117.056 86.9952 117.172 87.2117C117.293 87.4231 117.454 87.5892 117.655 87.71C117.862 87.8258 118.093 87.8837 118.35 87.8837ZM122.161 85.1428C122.287 84.9113 122.474 84.7351 122.72 84.6143C122.967 84.4935 123.266 84.4331 123.619 84.4331V85.1353C123.578 85.1302 123.523 85.1277 123.453 85.1277C123.06 85.1277 122.75 85.246 122.524 85.4826C122.302 85.7142 122.192 86.0464 122.192 86.4793V88.4727H121.467V84.4708H122.161V85.1428ZM128.253 84.4708L126.313 88.8728C126.142 89.2806 125.94 89.5675 125.709 89.7336C125.482 89.8997 125.208 89.9828 124.886 89.9828C124.689 89.9828 124.498 89.9501 124.312 89.8846C124.131 89.8242 123.98 89.7336 123.859 89.6128L124.168 89.0692C124.375 89.2655 124.614 89.3636 124.886 89.3636C125.062 89.3636 125.208 89.3158 125.324 89.2202C125.445 89.1296 125.553 88.971 125.648 88.7445L125.777 88.4651L124.01 84.4708H124.765L126.162 87.6723L127.544 84.4708H128.253Z" fill="#2CB764"/>
<path d="M100.046 77.9003C98.7773 77.9003 97.6447 77.5832 96.648 76.949C95.6514 76.2996 94.8661 75.3633 94.2922 74.1401C93.7184 72.9018 93.4315 71.437 93.4315 69.7457C93.4315 68.0543 93.7184 66.597 94.2922 65.3738C94.8661 64.1355 95.6514 63.1993 96.648 62.565C97.6447 61.9157 98.7773 61.591 100.046 61.591C101.314 61.591 102.447 61.9157 103.444 62.565C104.455 63.1993 105.248 64.1355 105.822 65.3738C106.396 66.597 106.683 68.0543 106.683 69.7457C106.683 71.437 106.396 72.9018 105.822 74.1401C105.248 75.3633 104.455 76.2996 103.444 76.949C102.447 77.5832 101.314 77.9003 100.046 77.9003ZM100.046 75.3407C101.178 75.3407 102.069 74.8725 102.719 73.9363C103.383 73 103.715 71.6031 103.715 69.7457C103.715 67.8882 103.383 66.4913 102.719 65.5551C102.069 64.6188 101.178 64.1506 100.046 64.1506C98.9283 64.1506 98.0374 64.6188 97.3729 65.5551C96.7235 66.4913 96.3989 67.8882 96.3989 69.7457C96.3989 71.6031 96.7235 73 97.3729 73.9363C98.0374 74.8725 98.9283 75.3407 100.046 75.3407ZM114.132 61.591C116.307 61.591 117.99 62.2705 119.183 63.6296C120.391 64.9888 120.995 66.9368 120.995 69.4738C120.995 71.2558 120.671 72.781 120.021 74.0495C119.372 75.3029 118.458 76.2619 117.281 76.9263C116.118 77.5757 114.766 77.9003 113.226 77.9003C112.41 77.9003 111.64 77.8173 110.915 77.6512C110.206 77.47 109.586 77.2132 109.058 76.881L110.145 74.6611C110.93 75.1746 111.935 75.4313 113.158 75.4313C114.683 75.4313 115.876 74.9632 116.737 74.0269C117.598 73.0906 118.028 71.739 118.028 69.9722V69.9495C117.56 70.4932 116.963 70.9085 116.239 71.1954C115.514 71.4672 114.698 71.6031 113.792 71.6031C112.75 71.6031 111.814 71.4068 110.983 71.0142C110.153 70.6064 109.503 70.0326 109.035 69.2926C108.567 68.5527 108.333 67.6994 108.333 66.733C108.333 65.7061 108.59 64.8075 109.103 64.0374C109.617 63.2521 110.311 62.6481 111.187 62.2252C112.063 61.8024 113.045 61.591 114.132 61.591ZM114.358 69.2926C115.31 69.2926 116.08 69.0359 116.669 68.5225C117.273 68.009 117.575 67.3597 117.575 66.5744C117.575 65.8042 117.281 65.17 116.692 64.6716C116.118 64.1582 115.317 63.9015 114.291 63.9015C113.369 63.9015 112.622 64.1506 112.048 64.649C111.474 65.1322 111.187 65.7816 111.187 66.597C111.187 67.4276 111.474 68.0845 112.048 68.5678C112.622 69.051 113.392 69.2926 114.358 69.2926Z" fill="#2CB764"/>
<defs>
<filter id="filter0_d_4060_35532" x="0.245647" y="0.932414" width="84.3156" height="84.9438" filterUnits="userSpaceOnUse" color-interpolation-filters="sRGB">
<feFlood flood-opacity="0" result="BackgroundImageFix"/>
<feColorMatrix in="SourceAlpha" type="matrix" values="0 0 0 0 0 0 0 0 0 0 0 0 0 0 0 0 0 0 127 0" result="hardAlpha"/>
<feMorphology radius="1.88766" operator="dilate" in="SourceAlpha" result="effect1_dropShadow_4060_35532"/>
<feOffset/>
<feGaussianBlur stdDeviation="2.20227"/>
<feComposite in2="hardAlpha" operator="out"/>
<feColorMatrix type="matrix" values="0 0 0 0 0.101961 0 0 0 0 0.12549 0 0 0 0 0.180392 0 0 0 0.2 0"/>
<feBlend mode="normal" in2="BackgroundImageFix" result="effect1_dropShadow_4060_35532"/>
<feBlend mode="normal" in="SourceGraphic" in2="effect1_dropShadow_4060_35532" result="shape"/>
</filter>
<filter id="filter1_d_4060_35532" x="17.8638" y="81.4734" width="84.3156" height="84.3149" filterUnits="userSpaceOnUse" color-interpolation-filters="sRGB">
<feFlood flood-opacity="0" result="BackgroundImageFix"/>
<feColorMatrix in="SourceAlpha" type="matrix" values="0 0 0 0 0 0 0 0 0 0 0 0 0 0 0 0 0 0 127 0" result="hardAlpha"/>
<feMorphology radius="1.88766" operator="dilate" in="SourceAlpha" result="effect1_dropShadow_4060_35532"/>
<feOffset/>
<feGaussianBlur stdDeviation="2.20227"/>
<feComposite in2="hardAlpha" operator="out"/>
<feColorMatrix type="matrix" values="0 0 0 0 0.101961 0 0 0 0 0.12549 0 0 0 0 0.180392 0 0 0 0.2 0"/>
<feBlend mode="normal" in2="BackgroundImageFix" result="effect1_dropShadow_4060_35532"/>
<feBlend mode="normal" in="SourceGraphic" in2="effect1_dropShadow_4060_35532" result="shape"/>
</filter>
<filter id="filter2_d_4060_35532" x="54.3584" y="19.8094" width="105.709" height="105.709" filterUnits="userSpaceOnUse" color-interpolation-filters="sRGB">
<feFlood flood-opacity="0" result="BackgroundImageFix"/>
<feColorMatrix in="SourceAlpha" type="matrix" values="0 0 0 0 0 0 0 0 0 0 0 0 0 0 0 0 0 0 127 0" result="hardAlpha"/>
<feMorphology radius="1.88766" operator="dilate" in="SourceAlpha" result="effect1_dropShadow_4060_35532"/>
<feOffset/>
<feGaussianBlur stdDeviation="2.20227"/>
<feComposite in2="hardAlpha" operator="out"/>
<feColorMatrix type="matrix" values="0 0 0 0 0.101961 0 0 0 0 0.12549 0 0 0 0 0.180392 0 0 0 0.2 0"/>
<feBlend mode="normal" in2="BackgroundImageFix" result="effect1_dropShadow_4060_35532"/>
<feBlend mode="normal" in="SourceGraphic" in2="effect1_dropShadow_4060_35532" result="shape"/>
</filter>
</defs>
</svg>
