<svg width="29" height="29" viewBox="0 0 29 29" fill="none" xmlns="http://www.w3.org/2000/svg">
<path d="M29 2.25556C29 7.75815 29 13.2607 29 18.7385C19.3509 18.7385 9.70183 18.7385 0.0527507 18.7385C0.0527507 18.6642 0.0527507 18.6146 0.0527507 18.565C0.0527507 13.2359 0.0527507 7.90687 0.0527507 2.553C0.0280095 1.73505 0.374387 0.991457 1.09188 0.520515C1.43826 0.272651 1.8836 0.173505 2.3042 0C10.4441 0 18.5839 0 26.7238 0C26.7485 0.0247864 26.798 0.0247864 26.8228 0.0495728C27.466 0.148718 28.0103 0.470942 28.4062 0.96667C28.7526 1.33847 28.8763 1.80941 29 2.25556ZM8.56373 8.50174C8.56373 9.81542 8.56373 11.1043 8.56373 12.418C8.56373 13.459 8.7864 13.6573 9.82554 13.6821C10.3204 13.6821 10.8152 13.6821 11.2853 13.7812C12.2254 13.93 13.0419 14.3513 13.7594 15.0206C14.3284 15.5411 14.6748 15.5411 15.2439 15.0206C15.2686 14.9958 15.2686 14.9958 15.2933 14.971C16.0603 14.3018 16.9263 13.8556 17.9407 13.7565C18.4355 13.7069 18.9551 13.7069 19.4746 13.6821C20.1921 13.6573 20.4395 13.3847 20.4395 12.6906C20.4395 9.93935 20.4395 7.16327 20.4395 4.41198C20.4395 3.74275 20.1921 3.4701 19.5241 3.44531C17.7675 3.32138 16.1098 3.69318 14.6748 4.75899C14.5511 4.85814 14.4521 4.85814 14.3284 4.75899C12.8934 3.66839 11.2605 3.32138 9.5039 3.42053C8.81115 3.4701 8.56373 3.71796 8.56373 4.43677C8.56373 5.77523 8.56373 7.13849 8.56373 8.50174Z" fill="url(#paint0_linear_795_53255)"/>
<path d="M28.9998 21.5892C28.8266 21.9857 28.7277 22.4319 28.4803 22.8037C27.9607 23.5721 27.1937 23.8695 26.2783 23.8695C23.433 23.8695 20.5878 23.8695 17.7426 23.8695C17.6436 23.8695 17.5199 23.8695 17.3714 23.8695C17.6683 24.7866 17.9652 25.6789 18.2374 26.5464C18.3116 26.7943 18.3363 27.1413 18.5095 27.2652C18.6827 27.3892 19.0044 27.3148 19.2765 27.3148C19.9198 27.3148 20.5383 27.3148 21.1816 27.3148C21.7259 27.3148 22.1218 27.6618 22.1218 28.1576C22.1218 28.6533 21.7506 29.0003 21.2063 29.0003C16.7282 29.0003 12.2747 29.0003 7.79658 29.0003C7.25227 29.0003 6.85641 28.6533 6.85641 28.1576C6.85641 27.6618 7.22753 27.3148 7.82132 27.29C8.63778 27.29 9.45424 27.29 10.2707 27.29C10.3697 27.29 10.4934 27.2157 10.5181 27.1413C10.8892 26.0507 11.2356 24.9601 11.6067 23.8199C11.483 23.8199 11.3593 23.8199 11.2604 23.8199C8.41511 23.8199 5.54513 23.8199 2.69989 23.8199C1.58653 23.8199 0.770071 23.349 0.250505 22.3328C-0.0463898 21.7379 0.00309266 21.0934 0.00309266 20.3994C9.65217 20.3994 19.3013 20.3994 28.9503 20.3994C28.9998 20.8456 28.9998 21.2174 28.9998 21.5892Z" fill="url(#paint1_linear_795_53255)"/>
<path d="M18.7321 5.1309C18.7321 7.41125 18.7321 9.66681 18.7321 11.9224C18.1383 12.0215 17.5692 12.0463 17.0002 12.195C16.4559 12.3437 15.9363 12.5668 15.3673 12.7899C15.3673 12.7403 15.3425 12.666 15.3425 12.5916C15.3425 10.6087 15.3425 8.601 15.3425 6.61808C15.3425 6.44458 15.392 6.32065 15.5405 6.2215C16.4311 5.47791 17.7177 5.03175 18.7321 5.1309Z" fill="url(#paint2_linear_795_53255)"/>
<path d="M10.2952 5.10547C11.5322 5.10547 12.6208 5.45248 13.561 6.22086C13.6105 6.27043 13.6847 6.36958 13.6847 6.44394C13.6847 8.52599 13.6847 10.6081 13.6847 12.6901C13.6847 12.7149 13.66 12.7149 13.66 12.7645C12.6208 12.1696 11.5075 11.9465 10.3199 11.9217C10.2952 9.66617 10.2952 7.41061 10.2952 5.10547Z" fill="url(#paint3_linear_795_53255)"/>
<defs>
<linearGradient id="paint0_linear_795_53255" x1="0.0515137" y1="0" x2="31.1121" y2="14.0788" gradientUnits="userSpaceOnUse">
<stop stop-color="#2CB764"/>
<stop offset="1" stop-color="#33E87C"/>
</linearGradient>
<linearGradient id="paint1_linear_795_53255" x1="0" y1="20.3994" x2="18.9565" y2="39.1525" gradientUnits="userSpaceOnUse">
<stop stop-color="#2CB764"/>
<stop offset="1" stop-color="#33E87C"/>
</linearGradient>
<linearGradient id="paint2_linear_795_53255" x1="15.3425" y1="5.11719" x2="19.6541" y2="5.67604" gradientUnits="userSpaceOnUse">
<stop stop-color="#2CB764"/>
<stop offset="1" stop-color="#33E87C"/>
</linearGradient>
<linearGradient id="paint3_linear_795_53255" x1="10.2952" y1="5.10547" x2="14.6065" y2="5.66529" gradientUnits="userSpaceOnUse">
<stop stop-color="#2CB764"/>
<stop offset="1" stop-color="#33E87C"/>
</linearGradient>
</defs>
</svg>
