<svg width="52" height="64" viewBox="0 0 52 64" fill="none" xmlns="http://www.w3.org/2000/svg">
<path d="M33.173 55.7721C33.173 57.4435 25.7472 58.7984 16.5863 58.7984C7.42549 58.7984 0 57.4431 0 55.7721C0 54.1007 7.42587 52.7461 16.5863 52.7461C25.7468 52.7461 33.173 54.1007 33.173 55.7721Z" fill="#E7CFC7"/>
<path d="M51.1059 60.4437C51.1059 61.9652 43.0775 63.1987 33.1733 63.1987C23.2695 63.1987 15.2407 61.9652 15.2407 60.4437C15.2407 58.9226 23.2695 57.6895 33.1733 57.6895C43.0771 57.6895 51.1059 58.9226 51.1059 60.4437Z" fill="#E7CFC7"/>
<path d="M11.565 3.61501C11.565 3.61501 9.88222 3.61652 10.1748 1.70215C10.1748 1.70215 11.1884 2.65934 12.2735 2.26306C12.2735 2.26344 12.3556 3.54802 11.565 3.61501Z" fill="#963222"/>
<path d="M8.51583 12.6406L7.98065 12.7572C7.98065 12.7572 6.51781 19.0522 7.06813 20.5464C7.61882 22.041 8.50334 20.5612 8.77963 20.4261C9.05555 20.2909 11.5017 13.3635 11.5017 13.3635L8.51583 12.6406Z" fill="#E59375"/>
<path d="M6.67227 19.7585L7.634 12.4477C8.20665 10.5243 10.3205 11.2347 10.3205 11.2347C11.906 11.8228 11.6535 13.0703 11.6535 13.0703L9.48252 20.5821C9.48252 20.5821 9.07111 21.7225 7.56474 21.5707C7.56512 21.5707 6.46827 21.3088 6.67227 19.7585Z" fill="#001940"/>
<path d="M9.26259 51.8765C9.26259 51.8765 8.97872 52.982 8.62938 53.2818C8.28042 53.5815 6.94891 54.0225 6.94891 54.0225L6.21124 54.1284C6.21124 54.1284 5.6984 54.4959 7.10598 54.8828C8.51319 55.2696 10.9832 54.1023 10.9832 54.1023L10.4264 51.8428L9.26259 51.8765Z" fill="#2C080D"/>
<path d="M16.6847 54.2833C16.933 53.8961 17.4538 51.7868 17.4538 51.7868L18.6036 51.752L19.3235 54.0743C19.3235 54.0743 19.4389 54.463 19.2039 54.6088C19.2039 54.6088 17.7702 55.1065 16.5454 54.5849C16.545 54.5849 16.5579 54.4812 16.6847 54.2833Z" fill="#2C080D"/>
<path d="M9.55582 22.2534L8.0873 13.2799C8.0873 13.2799 7.58165 11.931 8.59334 11.2569L12.4497 9.44434H15.1695L19.8056 12.1842L16.7667 22.2534H9.55582Z" fill="#F7A483"/>
<path d="M16.7666 22.2529C16.7666 22.2529 17.5992 24.1544 17.8002 28.5256C17.8002 28.5256 11.5325 30.4914 9.56664 28.5256L9.55566 22.2529H16.7666Z" fill="#00264E"/>
<path d="M12.6578 28.5071C12.6472 29.9741 13.7895 31.1716 15.2095 31.1822C16.6296 31.1924 17.7897 30.0119 17.8006 28.5449C17.8112 27.0783 16.669 25.8808 15.2489 25.8702C13.8284 25.8596 12.6684 27.0405 12.6578 28.5071Z" fill="#00264E"/>
<path d="M17.7979 28.8678L18.4796 41.3597C18.4796 41.3597 17.2726 42.9429 15.136 41.1568L12.8159 29.666C12.8159 29.6664 13.9423 25.8047 17.7979 28.8678Z" fill="#00264E"/>
<path d="M17.9479 39.9012C17.9479 39.9012 19.1223 42.1351 18.9312 45.7874L19.1223 52.6153L17.1845 52.6732L15.1475 41.1922C15.1475 41.1922 16.2265 37.3378 17.9479 39.9012Z" fill="#00264E"/>
<path d="M9.57867 28.5327C9.42993 29.9918 9.9511 31.2404 11.364 31.3846C12.7769 31.5288 14.0429 30.4626 14.1916 29.0035C14.3404 27.5441 13.3158 26.2444 11.9029 26.1006C10.4904 25.9556 9.7278 27.0733 9.57867 28.5327Z" fill="#00264E"/>
<path d="M13.5888 30.4539L12.1392 41.872C12.1392 41.872 9.57419 42.2134 9.07459 40.467C9.07459 40.467 9.04242 32.4072 9.57873 28.5327C9.57835 28.5327 13.0532 26.8401 13.5888 30.4539Z" fill="#00264E"/>
<path d="M11.9772 40.8607C11.9772 40.8607 12.4408 42.5711 12.0142 45.3269L10.9617 53.0392L8.88721 52.8928L9.07418 40.4679C9.07418 40.4679 10.2157 38.7408 11.9772 40.8607Z" fill="#00264E"/>
<path d="M19.4003 13.2871L19.9287 13.4283C19.9287 13.4283 20.7534 19.7558 20.1346 21.2232C19.5161 22.6906 18.9344 21.2349 18.6645 21.0873C18.3947 20.9393 16.3838 13.8719 16.3838 13.8719L19.4003 13.2871Z" fill="#F7A483"/>
<path d="M17.9804 21.0311L16.248 13.5788C16.6057 11.5634 18.5239 11.7053 18.5239 11.7053C20.2081 11.8582 20.2906 13.1284 20.2906 13.1284L20.4023 20.7075C20.4023 20.7075 20.5132 22.0031 19.5371 21.9342C19.5371 21.9342 18.1397 21.7158 17.9804 21.0311Z" fill="#001940"/>
<path d="M15.1829 7.46191V10.3687H12.1089C12.1089 10.3687 12.8651 9.21619 12.4866 7.46191H15.1829Z" fill="#F7A483"/>
<path d="M13.6237 9.93077C13.3462 10.109 12.7577 10.4883 12.4216 10.2665C12.3315 10.2067 12.2895 10.1283 12.2759 10.0409C12.4734 9.58067 12.7456 8.66209 12.4867 7.46191H15.183V7.72534C14.8465 8.57655 14.4147 9.42019 13.6237 9.93077Z" fill="#E1876F"/>
<path d="M15.2564 7.50199C15.2564 7.50199 15.7795 7.2749 16.3718 5.98011C16.3718 5.98011 17.6579 4.44876 16.7461 2.71038C16.7461 2.71038 16.2075 1.24034 13.5975 1.65176C13.5979 1.65214 13.3628 5.59178 15.2564 7.50199Z" fill="#F8A07D"/>
<path d="M12.0423 8.28888L11.8682 7.83318C11.8682 7.83318 11.3879 6.13719 11.3879 6.13681C11.3277 5.92373 11.3239 5.63797 11.3629 5.41883C11.4053 5.18038 11.4321 4.93134 11.3701 4.67965C11.0669 3.46017 11.6922 2.76754 11.6922 2.76754C12.381 1.61733 14.0762 1.5791 14.0762 1.5791C16.1753 1.6336 16.399 3.6585 16.399 3.6585C16.7707 5.00022 15.723 6.14892 15.7208 6.1512C15.6371 6.24279 15.6916 6.68599 15.6685 6.81279C15.5701 7.35364 15.0626 7.69693 14.6114 7.93575C14.1152 8.19804 13.5149 8.4785 12.9548 8.54284C12.7425 8.56782 12.1418 8.55041 12.0423 8.28888Z" fill="#F7A483"/>
<path d="M17.266 22.0096C17.2596 22.3083 17.7138 25.4364 17.523 25.4762C17.5215 25.4766 12.334 26.6722 9.56729 25.4762L9.55631 22.2534L8.08779 13.2799C8.08779 13.2799 7.58214 11.931 8.59383 11.2569L12.4502 9.44434L12.1898 10.2263L12.7477 11.8118L15.17 9.44434L19.8061 12.1842C19.5468 13.043 19.2894 13.9017 19.0302 14.7602C18.5521 16.343 18.0874 17.9303 17.5946 19.5086C17.5946 19.5086 17.1873 21.2201 17.266 22.0096Z" fill="white"/>
<path d="M13.0815 10.0088L13.1137 11.4535L13.6459 10.933L13.0815 10.0088Z" fill="#A5C6C7"/>
<path d="M12.4038 12.3377C12.4038 12.4517 12.4962 12.544 12.6101 12.544C12.7236 12.544 12.816 12.4517 12.816 12.3377C12.816 12.2242 12.7236 12.1318 12.6101 12.1318C12.4962 12.1318 12.4038 12.2242 12.4038 12.3377Z" fill="#CFEAE6"/>
<path d="M12.4038 16.0813C12.4038 16.1948 12.4962 16.2872 12.6101 16.2872C12.7236 16.2872 12.816 16.1948 12.816 16.0813C12.816 15.967 12.7236 15.875 12.6101 15.875C12.4962 15.8754 12.4038 15.9674 12.4038 16.0813Z" fill="#CFEAE6"/>
<path d="M12.4038 19.825C12.4038 19.9393 12.4962 20.0317 12.6101 20.0317C12.7236 20.0317 12.816 19.9393 12.816 19.825C12.816 19.7115 12.7236 19.6191 12.6101 19.6191C12.4962 19.6191 12.4038 19.7115 12.4038 19.825Z" fill="#CFEAE6"/>
<path d="M12.4038 23.5686C12.4038 23.6821 12.4962 23.7749 12.6101 23.7749C12.7236 23.7749 12.816 23.6821 12.816 23.5686C12.816 23.4547 12.7236 23.3623 12.6101 23.3623C12.4962 23.3623 12.4038 23.4547 12.4038 23.5686Z" fill="#CFEAE6"/>
<path d="M13.0815 11.6172V25.824" stroke="#CFEAE6" stroke-width="2.9481" stroke-miterlimit="10"/>
<path d="M9.59862 25.7726C9.59862 25.7726 12.2488 27.014 17.6717 25.7454C17.761 25.7242 17.7235 25.4929 17.7235 25.4929L17.6717 24.9706C17.6482 24.8033 17.5547 24.8113 17.5547 24.8113C17.5536 24.8116 12.3657 26.0073 9.59862 24.8113C9.59862 24.8113 9.48696 24.7916 9.48242 24.9592V25.6102C9.48242 25.6099 9.48242 25.7401 9.59862 25.7726Z" fill="#471F08"/>
<path d="M12.2905 26.1667C12.2905 26.2492 12.3564 26.3166 12.4374 26.3166H13.4926C13.5732 26.3166 13.6387 26.2492 13.6387 26.1667V25.4067C13.6387 25.3242 13.5732 25.2568 13.4926 25.2568H12.4374C12.3564 25.2568 12.2905 25.3238 12.2905 25.4067V26.1667Z" stroke="#BCBEC0" stroke-width="4.8231" stroke-miterlimit="10"/>
<path d="M13.6387 25.7393H13.0801" stroke="#BCBEC0" stroke-width="4.8231" stroke-miterlimit="10"/>
<path d="M13.0815 9.97587C13.0815 9.97587 14.7828 9.31503 15.1833 8.65723L15.6859 9.61555L13.8926 11.3354L13.0815 10.0088" fill="#BFE5E5"/>
<path d="M11.6247 2.85529C11.7011 2.30119 13.5061 2.59716 13.9788 2.68346C14.2631 2.73569 14.5965 2.82236 14.7513 3.10168C14.8085 3.20501 15.0367 3.9264 14.7559 4.28785C15.0038 5.0645 15.0625 5.66554 15.0625 5.66554L15.2059 5.67349C15.4882 6.40131 15.5435 7.27637 15.5435 7.27637C15.5435 7.27637 16.5964 6.82219 17.3277 4.89986C18.068 2.4522 16.2486 1.37352 16.2486 1.37352C14.5799 0.64948 12.9146 0.847427 12.9146 0.847427C12.9146 0.847427 11.236 1.00185 10.8567 0C10.8567 0 9.79357 2.29929 11.6247 2.85529Z" fill="#963222"/>
<path d="M15.4056 6.34776C15.4797 6.41059 15.5774 6.44958 15.7008 6.45336C16.0354 6.46396 16.3272 6.1642 16.3529 5.78344C16.3786 5.40382 16.1285 5.08703 15.7943 5.07643C15.6361 5.07151 15.4866 5.13623 15.3711 5.24637C15.2031 5.40685 15.1834 5.71645 15.211 5.93181C15.2345 6.10402 15.2943 6.25352 15.4056 6.34776Z" fill="#F7A483"/>
<path d="M15.6436 5.42605C15.6724 5.22734 16.0675 5.43702 16.0013 5.54641C15.9627 5.60999 15.8896 5.65352 15.8321 5.69629C15.753 5.75533 15.7132 5.81021 15.6977 5.90899C15.6954 5.92035 15.692 5.95479 15.703 5.96387C15.7537 6.00248 15.9343 5.81513 15.9736 5.77615C16.0512 5.69856 16.0679 5.56041 16.0368 5.4586C16.0039 5.35035 15.9365 5.29698 15.8219 5.29888C15.731 5.29963 15.6383 5.30153 15.6387 5.41469C15.6391 5.41696 15.6421 5.43589 15.6436 5.42605Z" fill="#E98B6F"/>
<path d="M15.7628 5.63877C15.7231 5.59448 15.6811 5.62741 15.6364 5.65693C15.5955 5.68381 15.5709 5.72468 15.5588 5.77161C15.5308 5.87418 15.5384 6.01347 15.5937 6.10695C15.6383 6.18265 15.717 6.23109 15.8052 6.23261C15.9271 6.2345 15.968 6.12852 15.9778 6.02596C15.9805 5.9987 15.9854 5.93323 15.9589 5.91506C15.9313 5.89576 15.9078 5.93928 15.8874 5.95821C15.859 5.98281 15.8189 5.99076 15.7825 5.99227C15.7129 5.9953 15.6466 5.95669 15.6054 5.90295C15.5982 5.89349 15.5921 5.88213 15.5884 5.87078C15.5857 5.93815 15.588 5.95367 15.5971 5.91657C15.6035 5.89954 15.6118 5.88402 15.6224 5.87002C15.6523 5.8246 15.7015 5.7947 15.7348 5.75193C15.7519 5.73225 15.7829 5.66148 15.7628 5.63877Z" fill="#E98B6F"/>
<path d="M15.9398 9.89941L13.8774 17.1432L14.1836 30.305C14.1836 30.305 17.7225 30.5688 19.1225 29.3017L17.8008 21.154L19.8056 12.1839L15.9398 9.89941Z" fill="#001940"/>
<path d="M11.3728 9.9502L9.0247 11.0539C9.0247 11.0539 7.6879 11.4066 7.96116 12.7915L8.73365 20.4626L7.45361 29.3017C7.45361 29.3017 8.55198 30.6204 10.7389 29.8456L11.7017 16.948L11.3728 9.9502Z" fill="#001940"/>
<path d="M11.645 10.0491C11.645 10.0491 11.8013 9.44395 12.5681 8.93262L12.4678 11.0184C12.4682 11.0184 12.0424 9.9515 11.645 10.0491Z" fill="#BFE5E5"/>
<path d="M11.5752 11.0189L11.6448 10.0496C11.8791 9.99208 12.0884 10.3198 12.2587 10.5889L11.5752 11.0189Z" fill="#A5C6C7"/>
<path d="M13.249 10.5304L13.3119 10.4131L13.7395 11.0694L13.3717 11.2007L13.249 10.5304Z" fill="#D83633"/>
<path d="M12.2588 10.5882L12.1389 10.4043C12.1389 10.4043 11.682 10.7881 12.1616 11.2006C12.1619 11.2006 12.1619 10.8607 12.2588 10.5882Z" fill="#D83633"/>
<path d="M13.2488 10.5303C13.2488 10.5303 12.8863 10.8527 12.2587 10.5882C12.1217 10.7627 12.1221 10.9848 12.1615 11.2006L12.4866 11.8705H12.9408L13.3715 11.2006C13.3715 11.2006 13.4161 11.0526 13.2488 10.5303Z" fill="#D83633"/>
<path d="M12.9409 11.8701L13.3073 21.4586L12.542 22.948L11.9175 21.4662L12.4867 11.8701H12.9409Z" fill="#A62724"/>
<path d="M15.4766 17.9475L16.4194 17.2026C16.4194 17.2026 17.8387 16.9945 18.5476 17.0838C18.5476 17.0838 18.7815 17.4097 16.9916 17.4596C16.9916 17.4596 18.2471 17.8604 18.6505 18.1591C18.6505 18.1591 18.7149 18.5307 17.5669 17.991L17.0446 17.9524L18.2592 18.5588C18.2592 18.5588 18.2119 18.79 17.1059 18.4895L15.9966 18.611L15.4766 17.9475Z" fill="#F7A483"/>
<path d="M9.43898 18.0861L15.5144 17.3594C15.8183 17.7303 16.1109 18.404 15.9807 19.1091L8.22064 21.5704C8.22064 21.5704 6.17039 21.9341 6.71087 19.4649C6.71087 19.4649 7.57722 18.206 9.43898 18.0861Z" fill="#00153B"/>
<path d="M9.43856 18.0859C9.43856 18.0859 10.5301 18.6745 10.9396 18.721L11.5747 17.6249L10.7069 17.0621L10.1119 16.9251C10.1119 16.9251 9.13313 16.6726 8.875 18.0155L9.43856 18.0859Z" fill="#F7A483"/>
<path d="M20.3008 20.2115C20.6676 22.4313 19.0533 21.8707 19.0533 21.8707L10.8213 18.9079C11.0533 17.6325 11.5752 17.4326 11.5752 17.4326L18.6162 18.7759C18.6158 18.7759 19.9405 19.1922 20.3008 20.2115Z" fill="#002952"/>
<path d="M24.5741 7.03833C24.5741 7.03833 25.5551 7.9429 25.4499 10.8815V19.7724C25.4499 19.7724 25.5082 20.6831 26.2625 21.2856C26.2625 21.2856 19.8161 23.1796 19.2662 20.2891V11.0673C19.2662 11.0673 18.9668 7.18707 20.4611 6.4899C20.4611 6.4899 23.1055 5.40024 24.5741 7.03833Z" fill="#370900"/>
<path d="M25.2925 14.6619C26.6274 15.3008 25.9136 16.8098 25.9136 16.8098L24.1779 23.1267C24.1779 23.1267 22.5561 23.7898 19.7102 23.4579C19.3147 22.8921 18.5025 20.5224 18.2304 18.7128C18.0063 17.2224 17.3103 15.7542 18.0684 14.9231C18.359 14.6044 20.5739 14.2865 20.5849 14.2342L23.1991 14.2236L25.2925 14.6619Z" fill="#F7A483"/>
<path d="M23.3681 30.7571C23.3681 30.7571 22.5241 37.745 19.8267 41.7055C19.8267 41.7055 18.5686 43.8197 17.0361 42.2115C17.0361 42.2115 16.7904 30.832 18.7094 27.3121C18.709 27.3117 24.1925 27.0411 23.3681 30.7571Z" fill="#E59375"/>
<path d="M19.4085 14.4263C18.4846 14.4006 17.2571 15.3127 17.2314 16.237C17.2057 17.1609 17.7091 19.5442 18.4127 18.945C19.796 17.7672 20.486 17.0587 20.5117 16.1348C20.5379 15.2105 20.3323 14.4517 19.4085 14.4263Z" fill="#E59375"/>
<path d="M17.7155 15.8427L19.4016 15.7686L20.2816 17.2621C20.2816 17.2621 18.5182 22.5215 17.6591 23.4889C16.7431 24.5195 16.6527 23.3621 16.563 22.9041C16.563 22.9041 17.0773 16.7114 17.7155 15.8427Z" fill="#E59375"/>
<path d="M17.7853 57.9317C16.922 58.079 16.0942 57.8008 16.0942 57.8008L16.9897 57.2736C16.9897 57.2736 17.9624 56.0912 18.1437 55.6733C18.2599 55.4057 18.2929 54.5371 18.2929 54.5371L19.3999 54.6026L19.4026 55.2229L19.8057 56.165C19.8057 56.165 19.8431 56.6093 19.0381 56.6986C19.0381 56.699 18.4719 57.3326 17.7853 57.9317Z" fill="#E59375"/>
<path d="M16.9895 57.2737C17.2878 57.4129 17.8128 57.4497 18.0849 57.1753C19.1817 56.0708 19.402 55.2227 19.402 55.2227C19.9576 55.8328 19.8108 56.3426 19.8108 56.3426L19.7695 56.553L19.4531 58.1752L19.3392 58.1684L19.0243 56.8278L18.2544 58.0708C16.4142 58.3122 15.9756 57.8134 15.9756 57.8134L16.9895 57.2737Z" fill="#09111C"/>
<path d="M17.0361 42.2116C17.0361 42.2116 18.1716 53.9867 18.2927 54.5362C18.2927 54.5362 19.4107 54.9158 19.3998 54.6017C19.3752 53.8432 20.4773 48.9914 20.5496 47.8018C20.6647 45.8924 20.3543 44.6211 19.3608 42.0542C19.3608 42.0546 17.5335 40.7874 17.0361 42.2116Z" fill="#E59375"/>
<path d="M20.7969 23.0447C20.5849 23.0061 19.7106 23.4577 19.7106 23.4577C19.7106 23.4577 18.6183 26.9666 18.5717 27.5002C18.5244 28.0335 22.1942 30.7957 26.2936 29.2231C26.2936 29.2231 24.3959 24.2816 24.2797 23.0648C24.1639 21.8476 20.7969 23.0447 20.7969 23.0447Z" fill="#E79675"/>
<path d="M19.711 23.4567C19.711 23.4567 18.6641 26.6212 18.5721 27.4993C18.2451 30.6082 22.452 31.9121 26.5513 30.3391C26.5513 30.3391 26.817 26.0649 24.2797 23.0635C24.2797 23.0635 23.606 23.6781 19.711 23.4567Z" fill="#101B26"/>
<path d="M23.5864 32.646L26.5507 31.0186C26.5507 31.0186 26.0697 40.3982 25.6942 43.0328C25.6942 43.0328 24.0357 43.4945 23.5221 43.1532C21.9847 39.5462 21.0938 31.715 21.0938 31.715L23.5864 32.646Z" fill="#F7A483"/>
<path d="M25.3821 28.2741C25.3821 28.2741 26.8048 28.6848 26.5104 31.3205C26.2231 33.895 21.4879 34.1395 21.0462 31.4999C20.5704 28.6598 22.8746 27.1545 25.3821 28.2741Z" fill="#F7A483"/>
<path d="M23.3831 14.4262H20.5297C20.6595 14.0106 20.9283 12.9353 20.5127 12.2033L23.3952 10.3105C23.3952 10.3105 22.8828 13.4868 23.3831 14.4262Z" fill="#F7A483"/>
<path d="M20.7349 13.1787C20.7428 12.8608 20.6902 12.5167 20.5127 12.2033L23.3952 10.3105C23.3952 10.3105 23.1863 11.605 23.1651 12.7855C22.1243 13.117 21.6958 13.2453 20.7349 13.1787Z" fill="#E1876F"/>
<path d="M20.0692 12.4626L19.8962 12.0417L19.4628 10.7995C19.4015 10.6019 19.3637 10.3294 19.4223 10.1303C19.4927 9.89114 19.5374 9.5047 19.4276 9.0808C19.1343 7.94535 19.6131 7.32047 19.6131 7.32047C20.2296 6.23119 21.8102 6.15625 21.8102 6.15625C23.7696 6.15852 24.0251 8.04262 24.0251 8.04262C24.4028 9.28556 23.4524 10.3817 23.4505 10.3835C23.3298 10.5221 23.3275 10.7374 23.2745 10.904C23.2182 11.0822 23.1273 11.2503 23.0123 11.3967C22.7538 11.7257 22.4105 12.0455 22.0517 12.2517C21.7114 12.4474 21.0441 12.6639 20.5631 12.6836C20.364 12.6919 20.1683 12.704 20.0692 12.4626Z" fill="#F7A483"/>
<path d="M23.2693 11.124C23.2341 10.2312 23.2141 10.2868 23.2141 10.2868C23.18 10.0272 22.6971 10.6153 22.6902 10.2751C22.66 8.71798 22.057 8.00643 21.8303 7.89818C21.2138 7.6041 20.5764 7.54279 20.0791 7.65747C19.2998 7.83687 19.383 8.88224 19.383 8.88224C18.5186 5.08453 22.8541 6.09168 22.8541 6.09168C24.963 6.53223 24.8484 8.50452 24.8484 8.50452C25.2106 10.5972 23.1985 11.9154 23.1985 11.9154L23.2693 11.124Z" fill="#370900"/>
<path d="M23.1163 10.8266C23.1889 10.8766 23.2798 10.9031 23.3922 10.8951C23.6946 10.8754 23.9311 10.5795 23.9205 10.2347C23.9103 9.89063 23.6571 9.6272 23.3551 9.6465C23.2116 9.65597 23.0833 9.7275 22.9891 9.8365C22.8513 9.99585 22.8612 10.2767 22.9051 10.4682C22.9399 10.6215 23.0076 10.7513 23.1163 10.8266Z" fill="#F8A07D"/>
<path d="M23.2502 9.97419C23.2586 9.79251 23.6336 9.94656 23.5833 10.0514C23.5542 10.1116 23.4921 10.1581 23.4444 10.2013C23.3782 10.2607 23.3467 10.3141 23.3418 10.4045C23.3411 10.4147 23.3403 10.4465 23.3517 10.4533C23.4005 10.4836 23.547 10.2993 23.5788 10.2603C23.642 10.1835 23.645 10.0582 23.6079 9.96889C23.5693 9.87427 23.5034 9.83226 23.4005 9.84361C23.3184 9.85231 23.2351 9.86253 23.2449 9.96435C23.2453 9.96662 23.2495 9.98327 23.2502 9.97419Z" fill="#E98B6F"/>
<path d="M23.3767 10.1563C23.3362 10.1203 23.3013 10.1536 23.2643 10.1835C23.2294 10.2119 23.2113 10.2505 23.2041 10.2933C23.1882 10.3887 23.2075 10.5136 23.2654 10.593C23.3119 10.6566 23.3873 10.6937 23.4667 10.6873C23.5773 10.6786 23.6045 10.5798 23.6041 10.4863C23.6041 10.4617 23.603 10.4023 23.578 10.3883C23.5504 10.3728 23.5341 10.4148 23.5175 10.4333C23.494 10.4579 23.458 10.4689 23.4259 10.4734C23.3634 10.4818 23.3002 10.453 23.2586 10.4087C23.2514 10.4008 23.2438 10.3913 23.2404 10.3811C23.2434 10.442 23.2472 10.4553 23.2521 10.4216C23.2559 10.4061 23.2627 10.3913 23.2711 10.3773C23.2942 10.3341 23.3358 10.3031 23.3623 10.2611C23.3744 10.2418 23.3963 10.1748 23.3767 10.1563Z" fill="#E98B6F"/>
<path d="M23.1057 10.8915C23.1106 10.9937 23.1981 11.0728 23.3006 11.0671C23.4028 11.0622 23.4816 10.9747 23.4759 10.8725C23.471 10.7703 23.3839 10.6912 23.2813 10.6965C23.1795 10.7018 23.1004 10.7889 23.1057 10.8915Z" fill="white"/>
<path d="M20.1169 14.3407L19.5621 14.4263C19.5621 14.4263 18.4853 16.5076 18.231 18.7126C18.5031 20.5221 19.0489 23.262 19.7108 23.4577C21.9541 24.1212 24.2958 23.078 24.2958 23.078L25.3684 18.7944C22.4866 17.6729 23.943 14.3793 23.943 14.3793L23.3382 14.2344C23.3382 14.234 21.1975 15.8036 20.1169 14.3407Z" fill="#00B9C5"/>
<path d="M18.9788 15.7617C18.9788 15.7617 17.8532 17.3211 17.6567 18.1246C17.5277 18.6526 18.4485 19.8418 19.1915 20.0515C19.5976 20.1658 19.6071 15.8666 18.9788 15.7617Z" fill="#00B9C5"/>
<path d="M24.1219 58.1441C23.2688 58.342 22.4263 58.1138 22.4263 58.1138L23.2892 57.5347C23.2892 57.5347 24.1896 56.2967 24.3463 55.869C24.4466 55.595 24.4273 54.7256 24.4273 54.7256H25.5367L25.576 55.3448L26.0344 56.2611C26.0344 56.2611 26.0979 56.7028 25.2997 56.8398C25.2997 56.8398 24.7717 57.5056 24.1219 58.1441Z" fill="#F7A483"/>
<path d="M23.2894 57.5346C23.5948 57.6561 24.1209 57.6614 24.3767 57.3719C25.4058 56.2043 25.5762 55.3447 25.5762 55.3447C26.1666 55.9208 26.05 56.4382 26.05 56.4382L26.0216 56.6509L25.8021 58.2893H25.6878L25.2942 56.9699L24.5993 58.2564C22.7769 58.6065 22.3091 58.1345 22.3091 58.1345L23.2894 57.5346Z" fill="#09111C"/>
<path d="M25.81 42.0537L23.3877 42.7709C23.3877 42.7709 24.3203 54.1728 24.4278 54.7254C24.4278 54.7254 25.5398 55.0395 25.5371 54.7254C25.5311 53.9665 26.5083 49.3047 26.5935 48.1163C26.7403 46.074 27.2955 44.7042 25.81 42.0537Z" fill="#F7A483"/>
<path d="M26.5069 29.1333L26.9853 40.408C26.9853 40.408 20.844 41.8292 16.5796 39.88C16.5796 39.88 16.9694 30.2351 18.7033 27.0365C18.7036 27.0365 26.159 26.3469 26.5069 29.1333Z" fill="#101B26"/>
<path d="M23.7042 15.3215C23.1831 16.0845 23.4764 16.8248 23.898 17.6302C24.3265 18.4493 26.9384 19.0155 26.8143 18.0999C26.5705 16.2995 26.3866 15.2742 25.5846 14.8151C24.9044 14.426 24.2247 14.5577 23.7042 15.3215Z" fill="#F7A483"/>
<path d="M23.6226 16.8342L24.9363 15.7744L26.5308 16.4546C26.5308 16.4546 28.231 21.7348 28.1129 23.0232C27.9869 24.3959 27.2272 23.5182 26.8836 23.2026C26.8843 23.2026 23.6245 17.9117 23.6226 16.8342Z" fill="#F7A483"/>
<path d="M28.0821 22.9183C28.0821 22.9183 28.2895 26.6346 27.7218 29.1183C27.7218 29.1183 27.0026 29.5456 26.9451 29.0233C26.8486 28.1369 26.1041 23.7703 26.2934 22.2219C26.3547 21.7215 28.0821 22.9183 28.0821 22.9183Z" fill="#F7A483"/>
<path d="M27.3867 32.1596C27.3867 32.1596 27.1929 32.2542 27.3239 31.8004L27.4771 31.0922C27.4771 31.0922 27.3231 32.272 26.92 32.4964C26.92 32.4964 26.8477 32.5623 26.7698 32.406C26.7698 32.406 27.1119 31.4007 27.1096 30.9919C27.1096 30.9919 27.0207 32.2213 26.5661 32.5748C26.5661 32.5748 26.3356 32.6728 26.339 32.4302C26.339 32.4302 26.688 31.5604 26.7202 30.8682C26.7202 30.8682 26.4484 32.0695 26.1971 32.4025C26.1971 32.4025 25.9409 32.4559 25.9958 32.1705C25.9958 32.1705 26.191 31.4507 26.3398 30.6214C26.3398 30.6214 25.8705 31.0184 25.5132 30.833L26.5741 29.2853L26.945 29.0234L27.7216 29.1184L27.8117 30.037C27.8117 30.037 27.867 30.9987 27.5812 31.9018C27.5812 31.9014 27.5067 32.1308 27.3867 32.1596Z" fill="#F7A483"/>
<path d="M18.7422 19.7348L21.0453 24.8035L16.357 24.3709L14.2432 19.3965L18.7422 19.7348Z" fill="#D2E7F2"/>
<path d="M14.9861 20.9658C15.0754 21.1301 15.1708 21.2788 15.3146 21.3924C15.4781 21.5218 15.7514 21.4828 15.857 21.5771C16.0402 21.7417 15.9104 22.1864 15.5232 22.6327C15.1875 23.0199 14.9399 22.5131 14.8268 22.2016C14.6599 21.7413 14.6708 21.5354 14.8612 21.1641L14.9861 20.9658Z" fill="#E59375"/>
<path d="M30.2556 12.1649C30.4468 12.3549 30.5179 12.641 30.6107 12.8942C31.3226 11.9548 31.8464 10.1105 30.8324 9.26493C29.3083 7.99436 29.2776 11.191 30.2556 12.1649Z" fill="#3C2415"/>
<path d="M26.987 37.4258L26.8693 38.2194L27.331 39.272C27.331 39.272 27.1357 39.4469 26.9196 39.1017L26.5078 38.2338L26.5657 37.3398L26.987 37.4258Z" fill="#CA8268"/>
<path d="M26.7754 37.693L26.6138 38.4791L27.0154 39.5563C27.0154 39.5563 26.811 39.7198 26.6145 39.3629L26.252 38.473L26.3598 37.584L26.7754 37.693Z" fill="#CA8268"/>
<path d="M25.8885 37.8699L26.0323 36.9472L26.1905 35.8023L26.907 35.7031L27.153 36.9105L27.2128 37.5445L27.2847 38.4104L27.3233 38.6901C27.3233 38.6901 27.0989 38.7624 26.9244 38.3173L26.7416 37.5005L26.4308 38.1425L26.6939 39.2692C26.6939 39.2692 26.6265 39.8574 26.4501 39.6356L25.8574 38.0539L25.8885 37.8699Z" fill="#E59375"/>
<path d="M28.6451 28.002C28.6451 28.002 27.0592 34.2512 26.9071 35.7023C26.9071 35.7023 26.2913 36.4335 26.1906 35.8015C25.9892 34.54 26.2754 27.9343 26.5982 27.4112C26.9203 26.8882 28.6451 28.002 28.6451 28.002Z" fill="#E59375"/>
<path d="M27.3581 20.4727L26.8377 20.6422C26.8377 20.6422 26.0134 27.0522 26.7109 28.4837C27.4085 29.9155 28.2108 28.4768 28.4724 28.3145C28.7335 28.1521 30.4015 20.8928 30.4015 20.8928L27.3581 20.4727Z" fill="#E59375"/>
<path d="M26.2378 27.74L26.5705 19.7101C26.9475 17.7389 28.9656 18.3259 28.9656 18.3259C30.6021 18.7517 30.5238 20.5859 30.5238 20.5859L29.1162 28.2774C29.1162 28.2774 28.8213 29.4534 27.3074 29.4534C27.3074 29.4534 26.1901 29.3027 26.2378 27.74Z" fill="#010C18"/>
<path d="M25.9334 35.859L25.9082 36.5898L27.1795 36.6336L27.2047 35.9028L25.9334 35.859Z" fill="white"/>
<path d="M28.9774 28.5475C28.9774 28.5475 28.2753 33.2676 27.2682 36.1592C27.2682 36.1592 26.4045 36.2402 25.9121 36.1123C25.9121 36.1123 25.8371 29.3442 26.3942 27.1543C26.3942 27.1539 29.1776 27.2118 28.9774 28.5475Z" fill="#010C18"/>
<path d="M27.9545 58.4077C27.9545 58.4077 27.6706 59.5133 27.3217 59.8126C26.9727 60.1128 25.6408 60.5537 25.6408 60.5537L24.9031 60.6597C24.9031 60.6597 24.3903 61.0276 25.7979 61.4144C27.2051 61.8012 29.6751 60.634 29.6751 60.634L29.1183 58.374L27.9545 58.4077Z" fill="#2C080D"/>
<path d="M35.4745 61.4473C35.7228 61.0605 36.2432 58.9508 36.2432 58.9508L37.3931 58.916L38.1125 61.2384C38.1125 61.2384 38.228 61.6271 37.9933 61.7728C37.9933 61.7728 36.5592 62.2705 35.3345 61.749C35.3345 61.7494 35.3477 61.6453 35.4745 61.4473Z" fill="#2C080D"/>
<path d="M28.3452 29.4178L26.877 20.4443C26.877 20.4443 26.371 19.0954 27.3827 18.421L31.2391 16.6084H33.9589L38.5949 19.3482L35.5561 29.4175H28.3452V29.4178Z" fill="#F7A483"/>
<path d="M35.556 29.418C35.556 29.418 36.3887 31.3195 36.5893 35.6906C36.5893 35.6906 30.3216 37.6564 28.3557 35.6906L28.3447 29.418H35.556Z" fill="#000210"/>
<path d="M31.4473 35.6721C31.4367 37.1388 32.579 38.3367 33.9987 38.3473C35.4188 38.3575 36.5788 37.177 36.5898 35.71C36.6008 34.2433 35.4581 33.0458 34.0384 33.0352C32.618 33.0246 31.4579 34.2059 31.4473 35.6721Z" fill="#000210"/>
<path d="M36.5872 36.0339L37.2692 47.2042C37.2692 47.2042 36.0622 50.109 33.9257 48.3233L31.606 36.8329C31.606 36.8325 32.7319 32.9705 36.5872 36.0339Z" fill="#000210"/>
<path d="M37.2693 47.2031C37.2693 47.2031 37.912 49.3003 37.7212 52.9527L37.9123 59.7806L35.5464 59.8275L33.9375 48.3575C33.9371 48.3575 35.5476 44.64 37.2693 47.2031Z" fill="#000210"/>
<path d="M28.3682 35.698C28.2195 37.157 28.741 38.4057 30.1535 38.5499C31.5664 38.6941 32.8324 37.6279 32.9812 36.1684C33.1299 34.709 32.1054 33.4093 30.6929 33.2655C29.28 33.1213 28.517 34.2386 28.3682 35.698Z" fill="#000210"/>
<path d="M32.3781 37.6188L31.0802 47.9102C31.0802 47.9102 28.2662 49.1581 27.7666 47.4121C27.7666 47.4121 27.8321 39.5726 28.368 35.698C28.368 35.6977 31.8429 34.0051 32.3781 37.6188Z" fill="#000210"/>
<path d="M31.0802 47.4904C31.0802 47.4904 31.4753 48.9998 31.0488 51.7559L30.0723 59.5561L27.5796 59.424L27.7666 46.9991C27.7662 46.9987 29.318 45.3705 31.0802 47.4904Z" fill="#000210"/>
<path d="M37.9971 28.618C38.5269 33.9323 38.3097 34.2843 38.2544 36.4159C38.2544 36.4159 38.5375 37.166 39.019 36.7448C39.5008 36.3239 40.2695 29.2462 40.0273 28.6819C39.6673 27.8436 37.9971 28.618 37.9971 28.618Z" fill="#F7A483"/>
<path d="M38.3332 36.2051L37.5857 36.9522L36.9502 37.8829C37.2647 38.0945 37.594 37.5737 37.594 37.5737C37.3885 38.3942 36.9899 39.1179 36.9899 39.1179C36.8934 39.412 37.1712 39.39 37.1712 39.39C37.4812 39.0717 37.8782 38.1327 37.8782 38.1327C37.7291 38.6921 37.3499 39.5838 37.3499 39.5838C37.3143 39.8397 37.5709 39.767 37.5709 39.767C38.0981 39.4547 38.2734 38.3159 38.2734 38.3159C38.2208 38.7481 37.8801 39.6357 37.8801 39.6357C37.9414 39.8113 38.027 39.7515 38.027 39.7515C38.4827 39.5683 38.6477 38.4714 38.6477 38.4714L38.575 38.8802C38.4263 39.4313 38.7677 39.289 38.7677 39.289L38.8907 39.0127C39.251 38.1645 39.1424 37.4011 39.1424 37.4011L39.1401 36.4095L38.3332 36.2051Z" fill="#F7A483"/>
<path d="M36.8208 19.5129C38.6106 19.1052 39.2219 20.7596 39.2219 20.7596C39.2219 20.7596 40.1208 26.2662 40.1098 28.626C40.1022 30.2183 38.1595 28.936 38.0319 28.6559C37.7507 28.0382 35.7084 21.4053 35.7084 21.4053C35.7084 21.4053 35.602 19.8471 36.8208 19.5129Z" fill="#F7A483"/>
<path d="M37.7294 28.749L35.4082 21.2232C35.4604 19.3523 37.2912 19.0734 37.2912 19.0734C39.0125 18.9084 39.3899 20.3897 39.3899 20.3897L40.2225 27.9239C40.2225 27.9239 40.5049 29.6176 39.5265 29.6418C39.5261 29.6418 37.8846 29.8197 37.7294 28.749Z" fill="#091420"/>
<path d="M39.3876 35.9711L39.2442 36.6876L37.9971 36.4385L38.1401 35.7217L39.3876 35.9711Z" fill="white"/>
<path d="M37.5889 28.2922C37.5889 28.2922 37.8894 34.6144 37.9976 35.9074L39.409 36.2041C39.409 36.2041 40.6849 29.8679 40.2224 27.9236C40.2224 27.9236 38.3784 26.9172 37.5889 28.2922Z" fill="#091420"/>
<path d="M33.9725 14.627V17.5337H30.8984C30.8984 17.5337 31.6546 16.3812 31.2762 14.627H33.9725Z" fill="#F7A483"/>
<path d="M32.4132 17.0954C32.1362 17.2737 31.5472 17.6529 31.2115 17.4311C31.1211 17.371 31.0791 17.2926 31.0654 17.2056C31.263 16.7453 31.5351 15.8267 31.2762 14.627H33.9726V14.8904C33.6365 15.7412 33.205 16.5852 32.4132 17.0954Z" fill="#E1876F"/>
<path d="M34.0455 14.667C34.0455 14.667 34.5686 14.4396 35.1613 13.1448C35.1613 13.1448 36.4474 11.6138 35.536 9.87542C35.536 9.87542 34.9974 8.40538 32.3874 8.8168C32.387 8.8168 32.1523 12.7564 34.0455 14.667Z" fill="#F8A07D"/>
<path d="M30.8317 15.4535L30.6576 14.9978C30.6576 14.9978 30.1773 13.3019 30.1773 13.3015C30.1171 13.0884 30.1137 12.803 30.1523 12.5839C30.1943 12.3454 30.2212 12.096 30.1591 11.8447C29.856 10.6248 30.4812 9.93258 30.4812 9.93258C31.1701 8.78237 32.8657 8.74414 32.8657 8.74414C34.9648 8.79864 35.1881 10.8235 35.1881 10.8235C35.5597 12.1653 34.5121 13.314 34.5102 13.3166C34.4265 13.4078 34.481 13.851 34.458 13.9782C34.3599 14.5194 33.8524 14.8623 33.4009 15.1012C32.905 15.3635 32.3044 15.6439 31.7442 15.7083C31.5319 15.7329 30.9312 15.7151 30.8317 15.4535Z" fill="#F7A483"/>
<path d="M36.0553 29.1741C36.0489 29.4731 36.5027 32.6009 36.3123 32.641C36.3112 32.641 31.1233 33.8366 28.3562 32.641L28.3452 29.4178L26.877 20.4443C26.877 20.4443 26.371 19.0954 27.3827 18.421L31.2391 16.6084L30.9787 17.39L31.5362 18.9758L33.9585 16.6084L38.5945 19.3482C38.3357 20.2067 38.0779 21.0658 37.8187 21.9242C37.341 23.507 36.8758 25.0944 36.3831 26.6727C36.3834 26.6731 35.9762 28.3849 36.0553 29.1741Z" fill="white"/>
<path d="M31.8711 17.1729L31.9033 18.6175L32.4354 18.0975L31.8711 17.1729Z" fill="#D1D3D4"/>
<path d="M31.1934 19.5031C31.1934 19.6167 31.2857 19.709 31.3996 19.709C31.5132 19.709 31.6059 19.6167 31.6059 19.5031C31.6059 19.3892 31.5132 19.2969 31.3996 19.2969C31.2857 19.2969 31.1934 19.3892 31.1934 19.5031Z" fill="#E6E7E8"/>
<path d="M31.1934 23.2473C31.1934 23.3608 31.2857 23.4532 31.3996 23.4532C31.5132 23.4532 31.6059 23.3608 31.6059 23.2473C31.6059 23.133 31.5132 23.041 31.3996 23.041C31.2857 23.041 31.1934 23.133 31.1934 23.2473Z" fill="#E6E7E8"/>
<path d="M31.1934 26.9905C31.1934 27.1044 31.2857 27.1967 31.3996 27.1967C31.5132 27.1967 31.6059 27.1044 31.6059 26.9905C31.6059 26.8765 31.5132 26.7842 31.3996 26.7842C31.2857 26.7846 31.1934 26.8769 31.1934 26.9905Z" fill="#E6E7E8"/>
<path d="M31.4798 30.9233C31.5851 30.8797 31.635 30.759 31.5914 30.6538C31.5478 30.5485 31.4272 30.4986 31.3219 30.5422C31.2167 30.5858 31.1667 30.7064 31.2103 30.8117C31.2539 30.9169 31.3746 30.9669 31.4798 30.9233Z" fill="#E6E7E8"/>
<path d="M31.8711 18.7822V32.989" stroke="#E6E7E8" stroke-width="2.9481" stroke-miterlimit="10"/>
<path d="M28.3882 32.9363C28.3882 32.9363 31.0376 34.1777 36.4612 32.909C36.5506 32.8878 36.5127 32.6566 36.5127 32.6566L36.4612 32.1347C36.4374 31.9674 36.3443 31.9753 36.3443 31.9753C36.3428 31.9753 31.1549 33.171 28.3885 31.9753C28.3885 31.9753 28.2769 31.9556 28.272 32.1233V32.7743C28.272 32.7739 28.272 32.9037 28.3882 32.9363Z" fill="#471F08"/>
<path d="M31.0801 33.3312C31.0801 33.4137 31.1456 33.481 31.2262 33.481H32.2814C32.362 33.481 32.4275 33.414 32.4275 33.3312V32.5708C32.4275 32.4883 32.362 32.4209 32.2814 32.4209H31.2262C31.1452 32.4209 31.0801 32.4883 31.0801 32.5708V33.3312Z" stroke="#BCBEC0" stroke-width="4.8231" stroke-miterlimit="10"/>
<path d="M32.4282 32.9033H31.8691" stroke="#BCBEC0" stroke-width="4.8231" stroke-miterlimit="10"/>
<path d="M31.8711 17.1409C31.8711 17.1409 33.572 16.4801 33.9724 15.8223L34.4751 16.7806L32.6818 18.5004L31.8711 17.1738" fill="#E6E7E8"/>
<path d="M33.5405 10.2677C33.5977 10.371 33.8263 11.0924 33.5451 11.4538C34.1378 11.9092 33.8516 12.8315 33.8516 12.8315L33.9955 12.8395C34.8266 12.6241 34.5477 14.1967 34.5477 14.1975C34.5541 14.1611 34.6923 14.0733 34.7199 14.0468C34.8823 13.8913 35.2252 13.3315 35.333 13.1343C35.9182 12.0617 35.8629 12.0068 36.02 11.3736C36.1271 10.941 36.0809 9.76959 35.4515 9.18066C35.4511 9.18066 34.7172 9.18029 33.5405 10.2677Z" fill="#3C2415"/>
<path d="M34.1952 13.5148C34.2697 13.5776 34.367 13.6166 34.4908 13.6204C34.8253 13.631 35.1171 13.3312 35.1429 12.9504C35.1686 12.5708 34.9184 12.254 34.5846 12.2434C34.426 12.2385 34.2765 12.3032 34.1615 12.413C33.9934 12.5735 33.9737 12.8827 34.0017 13.0984C34.0237 13.2706 34.0839 13.4201 34.1952 13.5148Z" fill="#F7A483"/>
<path d="M34.4331 12.5901C34.4623 12.391 34.857 12.6011 34.7912 12.7105C34.7526 12.7737 34.6795 12.8176 34.6216 12.8603C34.5425 12.9198 34.5028 12.9747 34.4873 13.0731C34.4854 13.0844 34.4816 13.1192 34.4926 13.1279C34.5433 13.1665 34.7234 12.9792 34.7632 12.9402C34.8408 12.863 34.8574 12.7249 34.8268 12.623C34.7935 12.5148 34.7261 12.461 34.6118 12.4629C34.521 12.4637 34.4278 12.4656 34.4282 12.5788C34.4282 12.5814 34.4316 12.6003 34.4331 12.5901Z" fill="#E98B6F"/>
<path d="M34.5526 12.8038C34.5129 12.7595 34.4713 12.7925 34.4262 12.822C34.385 12.8492 34.3608 12.8893 34.3483 12.9363C34.3203 13.0388 34.3282 13.1785 34.3835 13.2716C34.4277 13.3473 34.5065 13.3954 34.5947 13.3973C34.7165 13.3992 34.7574 13.2932 34.7672 13.1906C34.7699 13.1634 34.7748 13.0979 34.7487 13.0797C34.7207 13.0604 34.698 13.1043 34.6775 13.1229C34.6492 13.1475 34.6087 13.1554 34.5727 13.1566C34.5031 13.1596 34.4365 13.121 34.3948 13.0672C34.388 13.0578 34.3816 13.0464 34.3778 13.0354C34.3751 13.1028 34.3774 13.1183 34.3865 13.0812C34.3929 13.0642 34.4013 13.0491 34.4119 13.0347C34.4421 12.9893 34.491 12.9597 34.5246 12.9166C34.5409 12.8973 34.5727 12.8261 34.5526 12.8038Z" fill="#E98B6F"/>
<path d="M34.7295 17.0645L32.6675 24.3083L32.9733 37.4701C32.9733 37.4701 36.1775 37.274 37.5779 36.0069L36.5905 28.3191L38.5953 19.349L34.7295 17.0645Z" fill="#091420"/>
<path d="M34.7295 17.0645L32.6675 24.3083L32.6762 24.6523L35.2733 21.9942C35.2733 21.9942 35.5462 21.5328 35.1765 21.26L34.5629 20.6729L35.0005 20.3588C35.0005 20.3588 35.6144 20.0613 35.5398 19.5034L35.3642 17.4055L34.7295 17.0645Z" fill="#1F3038"/>
<path d="M30.1615 17.1152L27.8134 18.2189C27.8134 18.2189 26.477 18.5716 26.7502 19.9565L27.5223 27.6276L27.1355 35.7556C27.1355 35.7556 26.8047 37.2661 29.5272 37.0103L30.4904 24.1127L30.1615 17.1152Z" fill="#091420"/>
<path d="M30.4346 17.2142C30.4346 17.2142 30.5909 16.609 31.3577 16.0977L31.2574 18.1835C31.2574 18.1835 30.832 17.1165 30.4346 17.2142Z" fill="#E6E7E8"/>
<path d="M30.3647 18.183L30.4348 17.2137C30.6687 17.1561 30.8783 17.4839 31.049 17.7526L30.3647 18.183Z" fill="#D1D3D4"/>
<path d="M30.162 17.1152L29.5564 17.3999L29.1193 19.4194C29.1193 19.4194 28.9001 19.9421 29.2173 20.0791L29.7881 20.4118L28.9838 20.9209C28.9838 20.9209 28.5606 21.1862 28.821 21.5764L30.4345 24.7262L30.4852 24.1876L30.162 17.1152Z" fill="#1F3038"/>
<path d="M34.2199 13.8189L33.9955 12.839L33.8516 12.8311C33.8516 12.8311 33.7067 13.4805 32.9297 13.5952C32.9297 13.5952 32.5936 13.6459 32.4505 13.6649C32.4316 13.6675 32.2249 13.4627 32.1984 13.4457C31.9687 13.2962 31.6924 13.2557 31.424 13.2345C31.1504 13.2137 30.8571 13.1868 30.5948 13.2867C30.5596 13.3 30.2242 13.4699 30.2129 13.4222C30.2129 13.4222 30.5683 14.9926 30.8177 15.4418C30.8177 15.4418 30.9271 15.7874 31.7344 15.7026C31.7344 15.7026 33.1204 15.5796 34.1964 14.5766C34.3751 14.4423 34.2199 13.8189 34.2199 13.8189ZM30.6027 13.7519C30.6345 13.5888 30.6413 13.4858 30.7806 13.4601C31.0573 13.4094 31.3593 13.4563 31.6345 13.4915C31.8574 13.5199 32.1329 13.5487 32.2238 13.7916C32.304 14.0055 32.245 14.3177 32.1326 14.5127C31.9422 14.8423 31.3264 15.0123 31.0145 14.7988C30.7492 14.6167 30.5429 14.06 30.6027 13.7519Z" fill="#B1775F"/>
<path d="M32.0381 17.6955L32.1009 17.5781L32.5286 18.2344L32.1607 18.3654L32.0381 17.6955Z" fill="#0088CE"/>
<path d="M31.0482 17.7529L30.9278 17.5693C30.9278 17.5693 30.471 17.9531 30.9509 18.3653C30.9513 18.3653 30.9509 18.0258 31.0482 17.7529Z" fill="#0088CE"/>
<path d="M32.038 17.6953C32.038 17.6953 31.6754 18.0174 31.0483 17.7528C30.9109 17.9273 30.9116 18.1495 30.9514 18.3652L31.2761 19.0351H31.7299L32.1606 18.3652C32.1606 18.3652 32.2053 18.2172 32.038 17.6953Z" fill="#0088CE"/>
<path d="M31.73 19.0352L32.0967 28.6237L31.3314 30.1134L30.7065 28.6313L31.2762 19.0352H31.73Z" fill="#0071AC"/>
<path d="M33.4205 10.1353L34.1207 9.7871L35.4514 9.17963C35.4514 9.17963 35.451 8.26711 33.7724 7.91511C33.7724 7.91511 31.7142 7.59038 30.0765 8.45635C30.0765 8.45635 29.6299 8.70009 29.2783 8.48322C29.2779 8.4836 29.8464 10.8662 33.4205 10.1353Z" fill="#3C2415"/>
</svg>
