<svg width="25" height="25" viewBox="0 0 25 25" fill="none" xmlns="http://www.w3.org/2000/svg">
<path d="M23.0906 0.132812C23.1972 0.204121 23.2846 0.300577 23.3451 0.413666C23.4056 0.526754 23.4373 0.652997 23.4375 0.78125V12.5C23.4375 12.656 23.3907 12.8085 23.3033 12.9377C23.2158 13.0669 23.0917 13.167 22.9469 13.225L22.6562 12.5L22.9469 13.225L22.9422 13.2266L22.9328 13.2313L22.8969 13.2453C22.6915 13.327 22.4847 13.4051 22.2766 13.4797C21.8641 13.6281 21.2906 13.8281 20.6406 14.0266C19.3656 14.4203 17.7047 14.8438 16.4062 14.8438C15.0828 14.8438 13.9875 14.4063 13.0344 14.0234L12.9906 14.0078C12 13.6094 11.1562 13.2812 10.1562 13.2812C9.0625 13.2812 7.59688 13.6406 6.34844 14.0266C5.78946 14.2008 5.23559 14.391 4.6875 14.5969V24.2188C4.6875 24.426 4.60519 24.6247 4.45868 24.7712C4.31216 24.9177 4.11345 25 3.90625 25C3.69905 25 3.50034 24.9177 3.35382 24.7712C3.20731 24.6247 3.125 24.426 3.125 24.2188V0.78125C3.125 0.57405 3.20731 0.375336 3.35382 0.228823C3.50034 0.08231 3.69905 0 3.90625 0C4.11345 0 4.31216 0.08231 4.45868 0.228823C4.60519 0.375336 4.6875 0.57405 4.6875 0.78125V1.22187C5.04062 1.09844 5.4625 0.95625 5.92188 0.815625C7.19688 0.425 8.85938 0 10.1562 0C11.4688 0 12.5375 0.432812 13.4703 0.810937L13.5375 0.839063C14.5094 1.23125 15.3562 1.5625 16.4062 1.5625C17.5 1.5625 18.9656 1.20312 20.2141 0.817187C20.9255 0.595019 21.6286 0.346937 22.3219 0.0734375L22.3516 0.0625L22.3578 0.059375H22.3594" fill="#F6830F"/>
</svg>
