<svg width="58" height="60" viewBox="0 0 58 60" fill="none" xmlns="http://www.w3.org/2000/svg">
<path fill-rule="evenodd" clip-rule="evenodd" d="M30.8268 9.87988C37.1593 9.87988 39.8274 15.2227 44.3984 19.376C50.4494 24.8729 56.4993 21.2945 57.4682 39.8675C58.3304 56.3979 47.5712 41.6569 32.4009 47.5784C17.2311 53.4999 1.78059 55.8845 6.36516 36.7261C10.9497 17.5672 16.1134 9.87988 30.8268 9.87988Z" fill="#E9EFF8"/>
<path fill-rule="evenodd" clip-rule="evenodd" d="M12.2223 24.3025C13.6703 21.406 15.1183 19.958 18.0148 19.958C21.2122 19.958 23.8069 22.5531 23.8069 25.7505C23.8069 31.5426 18.0148 35.8702 12.2223 41.6627C6.43023 35.8707 0.637695 31.5431 0.637695 25.751C0.637695 22.5536 3.23233 19.9585 6.43023 19.9585C9.32625 19.9585 10.7743 21.4065 12.2223 24.3025Z" fill="#D0D9EE"/>
<path fill-rule="evenodd" clip-rule="evenodd" d="M49.5356 20.4605C50.5895 18.3527 51.6434 17.2988 53.7512 17.2988C56.0782 17.2988 57.9667 19.1873 57.9667 21.5144C57.9667 25.73 53.7512 28.8795 49.5356 33.0946C45.3201 28.8791 41.1045 25.7295 41.1045 21.5144C41.1045 19.1873 42.993 17.2988 45.3201 17.2988C47.4278 17.2983 48.4817 18.3527 49.5356 20.4605Z" fill="#D0D9EE"/>
<path fill-rule="evenodd" clip-rule="evenodd" d="M12.3964 26.8989C12.4447 26.995 12.4056 27.1123 12.309 27.1606C12.2129 27.2089 12.0955 27.1693 12.0477 27.0732L10.974 24.9263C10.6977 24.3738 10.3703 23.7623 9.97662 23.2093C9.59022 22.6664 9.13959 22.18 8.61072 21.8651C8.51798 21.8101 8.48804 21.6903 8.54358 21.5975C8.59864 21.5048 8.71842 21.4749 8.81116 21.5299C9.3922 21.8762 9.8805 22.4003 10.2949 22.9828C10.7021 23.5546 11.0387 24.184 11.3227 24.752L12.3964 26.8989ZM6.89078 20.9754C6.76906 20.9677 6.65121 20.9634 6.53819 20.9634C5.28096 20.9634 4.10439 21.4145 3.22052 22.1945C2.33422 22.9765 1.74159 24.0878 1.65417 25.4074C1.64644 25.5238 1.64258 25.6378 1.64258 25.7503C1.64258 26.0275 1.65803 26.3062 1.68895 26.5854C1.71937 26.8622 1.76526 27.1399 1.8266 27.4166C2.09949 28.6512 2.66942 29.8176 3.37845 30.9009C4.08266 31.9771 4.925 32.9735 5.74995 33.8733C7.16415 35.415 8.69282 36.8712 10.2196 38.3255C10.8479 38.9244 11.4768 39.5228 12.0868 40.1179C12.1636 40.1923 12.2853 40.1913 12.3607 40.116C12.9683 39.5238 13.5942 38.9273 14.2202 38.3313L14.8457 37.7353C14.9239 37.6609 14.9268 37.5368 14.8524 37.459C14.7781 37.3813 14.6544 37.3779 14.5766 37.4523L13.9512 38.0483C13.3754 38.5965 12.7992 39.1451 12.223 39.7049C11.6444 39.1432 11.0667 38.5926 10.4886 38.042C8.96765 36.5935 7.44429 35.1421 6.03781 33.6081C5.2259 32.7228 4.39709 31.7433 3.70592 30.6865C3.01959 29.6374 2.46946 28.513 2.20768 27.3321C2.1502 27.0732 2.10673 26.8095 2.07727 26.5429C2.04878 26.2826 2.03429 26.0184 2.03429 25.7508C2.03429 25.6402 2.03767 25.5344 2.04395 25.4335C2.12509 24.2226 2.66749 23.203 3.47892 22.4872C4.29179 21.7695 5.37611 21.3551 6.53819 21.3551C6.64976 21.3551 6.7594 21.3585 6.86518 21.3657C6.97289 21.3729 7.0661 21.2913 7.07335 21.1836C7.07963 21.0759 6.99849 20.9827 6.89078 20.9754ZM16.5357 36.0994C16.4589 36.1747 16.3352 36.1738 16.2594 36.097C16.1836 36.0202 16.185 35.8965 16.2613 35.8207C16.6284 35.4594 16.9916 35.0943 17.3505 34.7258C17.7064 34.3601 18.059 33.9877 18.4073 33.6081C19.2192 32.7228 20.048 31.7433 20.7391 30.6865C21.4255 29.6374 21.9761 28.513 22.2369 27.3321C22.2944 27.0732 22.3379 26.8095 22.3673 26.5429C22.3958 26.2826 22.4103 26.0184 22.4103 25.7508C22.4103 24.5375 21.9177 23.4382 21.1222 22.6427C20.3262 21.8472 19.2274 21.3546 18.0141 21.3546C17.6263 21.3546 17.2432 21.3845 16.8752 21.4637C16.511 21.5425 16.1599 21.67 15.8324 21.8656C15.7397 21.9207 15.6199 21.8907 15.5644 21.798C15.5093 21.7052 15.5392 21.5855 15.632 21.5299C16.0005 21.3106 16.3903 21.1677 16.7926 21.0807C17.1916 20.9943 17.6011 20.9619 18.0136 20.9619C19.3351 20.9619 20.5324 21.4985 21.3984 22.3645C22.2654 23.231 22.8015 24.4284 22.8015 25.7498C22.8015 26.0271 22.7861 26.3057 22.7552 26.5849C22.7247 26.8617 22.6784 27.1394 22.617 27.4161C22.3441 28.6507 21.7742 29.8171 21.0652 30.9005C20.361 31.9766 19.5186 32.973 18.6937 33.8728C18.3478 34.25 17.9919 34.6248 17.6292 34.9977C17.2708 35.3681 16.9052 35.7352 16.5357 36.0994ZM14.495 22.5466C14.5636 22.4631 14.6868 22.4515 14.7698 22.5196C14.8529 22.5882 14.865 22.7113 14.7964 22.7944C14.6559 22.9654 14.5192 23.1489 14.3868 23.3407C14.255 23.5314 14.1265 23.7319 14.0009 23.9362C13.9449 24.0284 13.8241 24.0574 13.7324 24.0014C13.6401 23.9454 13.6111 23.8246 13.6672 23.7328C13.7952 23.5247 13.9275 23.3189 14.0656 23.119C14.2028 22.9195 14.3458 22.7277 14.495 22.5466Z" fill="white"/>
<path fill-rule="evenodd" clip-rule="evenodd" d="M49.6628 22.3497C49.6976 22.4197 49.6691 22.5052 49.5991 22.54C49.529 22.5752 49.4436 22.5467 49.4088 22.4767L48.6273 20.9142C48.4264 20.5119 48.1883 20.067 47.9014 19.6647C47.6203 19.2701 47.2923 18.9161 46.9074 18.6866C46.8397 18.6461 46.818 18.5591 46.8586 18.4915C46.8991 18.4244 46.9861 18.4022 47.0537 18.4427C47.4763 18.6949 47.8318 19.0759 48.1332 19.5C48.4293 19.9164 48.6746 20.3737 48.8813 20.7877L49.6628 22.3497ZM45.6554 18.0385C45.5671 18.0327 45.4811 18.0298 45.3985 18.0298C44.4837 18.0298 43.6274 18.3577 42.984 18.9257C42.3392 19.4947 41.9079 20.3037 41.8441 21.2639C41.8383 21.3484 41.8354 21.432 41.8354 21.5136C41.8354 21.7155 41.847 21.9184 41.8693 22.1212C41.8915 22.3221 41.9253 22.5245 41.9697 22.7259C42.1687 23.6243 42.5826 24.4734 43.099 25.2621C43.6114 26.045 44.2248 26.77 44.8252 27.425C45.8544 28.5469 46.9668 29.6071 48.0777 30.6649C48.535 31.1005 48.9924 31.5367 49.4368 31.9694C49.4928 32.0235 49.5817 32.0226 49.6363 31.968C50.0787 31.5372 50.5342 31.1034 50.9896 30.6692L51.4446 30.2355C51.5016 30.1814 51.5035 30.0916 51.4494 30.0346C51.3953 29.9776 51.3055 29.9752 51.2485 30.0297L50.7935 30.4635C50.3748 30.8624 49.9555 31.2619 49.5358 31.6695C49.1146 31.2609 48.6944 30.8605 48.2737 30.4596C47.1667 29.4052 46.0583 28.3494 45.0343 27.2332C44.4431 26.5889 43.8399 25.876 43.3376 25.1066C42.8377 24.343 42.4373 23.5248 42.2474 22.6655C42.2054 22.4772 42.174 22.2849 42.1528 22.0913C42.132 21.9019 42.1214 21.7097 42.1214 21.5146C42.1214 21.4339 42.1238 21.3571 42.1286 21.2837C42.1871 20.4022 42.5822 19.6604 43.1729 19.1392C43.7645 18.6171 44.5537 18.3152 45.3995 18.3152C45.4806 18.3152 45.5603 18.3176 45.6376 18.323C45.7158 18.3283 45.7839 18.2689 45.7887 18.1906C45.7931 18.1119 45.7342 18.0438 45.6554 18.0385ZM52.6748 29.0454C52.6187 29.1005 52.5289 29.0995 52.4738 29.044C52.4188 28.9879 52.4198 28.8976 52.4753 28.843C52.7424 28.5798 53.0071 28.3146 53.2679 28.0461C53.5268 27.78 53.7837 27.509 54.0368 27.2327C54.628 26.5884 55.2308 25.8755 55.734 25.1061C56.2335 24.3425 56.6339 23.5243 56.8247 22.6651C56.8662 22.4767 56.8981 22.2845 56.9193 22.0908C56.9401 21.9015 56.9507 21.7092 56.9507 21.5141C56.9507 20.6307 56.5923 19.8309 56.0132 19.2518C55.4341 18.6726 54.6343 18.3143 53.7514 18.3143C53.4688 18.3143 53.1901 18.336 52.9226 18.394C52.6574 18.4514 52.4019 18.5442 52.1638 18.6866C52.0966 18.7267 52.0092 18.705 51.9686 18.6379C51.9286 18.5702 51.9503 18.4828 52.0174 18.4427C52.2855 18.2829 52.5695 18.179 52.8622 18.1158C53.1525 18.053 53.4509 18.0293 53.7509 18.0293C54.7125 18.0293 55.5838 18.4196 56.2146 19.0503C56.8454 19.6811 57.2357 20.5525 57.2357 21.5141C57.2357 21.716 57.2241 21.9188 57.2019 22.1217C57.1796 22.3226 57.1463 22.525 57.1014 22.7264C56.9029 23.6248 56.4885 24.4739 55.9722 25.2626C55.4602 26.0455 54.8468 26.7705 54.2464 27.4254C53.9943 27.6998 53.7359 27.9727 53.4717 28.2446C53.2099 28.5136 52.9438 28.7807 52.6748 29.0454ZM51.1896 19.1822C51.2398 19.1218 51.3292 19.1131 51.3895 19.1624C51.4504 19.2126 51.4591 19.302 51.4093 19.3624C51.3069 19.487 51.2079 19.6203 51.1113 19.7599C51.0152 19.899 50.9215 20.0448 50.8302 20.1931C50.7897 20.2602 50.7018 20.2815 50.6346 20.2404C50.568 20.1994 50.5467 20.112 50.5873 20.0448C50.6805 19.8936 50.7766 19.7434 50.8771 19.5981C50.9771 19.4536 51.0814 19.3141 51.1896 19.1822Z" fill="white"/>
<path fill-rule="evenodd" clip-rule="evenodd" d="M30.2839 55.1143C41.4531 55.1143 50.5078 56.2078 50.5078 57.5567C50.5078 58.9057 41.4531 59.9997 30.2839 59.9997C19.1147 59.9997 10.0601 58.9057 10.0601 57.5567C10.0605 56.2078 19.1152 55.1143 30.2839 55.1143Z" fill="#D0D9EE"/>
<path fill-rule="evenodd" clip-rule="evenodd" d="M26.8863 13.5372C28.4517 13.9979 32.6909 15.2967 32.9034 15.247L36.7669 12.3379L39.1432 14.3133C39.1432 14.3133 33.8409 18.0275 33.5395 18.1647C33.3164 18.2642 28.6478 15.9903 26.4458 14.9736C26.4777 14.2926 26.5352 14.1308 26.8863 13.5372Z" fill="#EF8F7D"/>
<path fill-rule="evenodd" clip-rule="evenodd" d="M33.9546 13.9689L36.3753 16.9359C36.3753 16.9359 38.927 15.0807 39.8679 14.0809C41.0097 12.8691 42.2577 10.2672 42.0737 10.1716C41.5569 9.90595 40.4412 9.6944 39.6713 9.8562C37.0086 10.4165 33.9546 13.9689 33.9546 13.9689Z" fill="#ED7A15"/>
<path fill-rule="evenodd" clip-rule="evenodd" d="M35.5334 53.6846L35.6464 55.5687C35.6875 55.8049 35.8507 56.399 35.8507 56.6144C35.8507 57.4278 32.0163 55.9213 32.8755 55.5605C32.9533 55.5272 33.3609 55.2828 33.3865 55.0041C33.4261 54.5771 33.5261 53.7092 33.5261 53.7092L35.5334 53.6846Z" fill="#F4AE7C"/>
<path fill-rule="evenodd" clip-rule="evenodd" d="M32.8855 55.5521C32.8855 55.5521 33.7858 55.8009 34.2466 55.8632C34.7073 55.9255 35.3154 55.4024 35.6414 55.5439C36.0003 55.697 35.9308 57.5397 35.9308 57.5397C35.9308 57.5397 30.9096 57.9091 29.5524 57.4981C29.0143 57.3324 31.0448 56.1332 32.8855 55.5521Z" fill="#142D4D"/>
<path fill-rule="evenodd" clip-rule="evenodd" d="M43.9815 53.8623L44.094 55.7503C44.1356 55.9865 44.2984 56.5762 44.2984 56.7917C44.2984 57.6094 40.4639 56.1024 41.3226 55.7416C41.4004 55.7083 41.9288 55.2765 41.9549 54.9988C41.994 54.567 41.9732 53.8908 41.9732 53.8908L43.9815 53.8623Z" fill="#F4AE7C"/>
<path fill-rule="evenodd" clip-rule="evenodd" d="M41.3332 55.7307C41.3332 55.7307 42.2335 55.9838 42.6943 56.0461C43.1551 56.1084 43.7632 55.5809 44.0892 55.7225C44.4476 55.8799 44.5403 57.6023 44.5403 57.6023C44.5403 57.6023 39.2114 58.1456 38.004 57.8182C37.4611 57.6684 39.493 56.3156 41.3332 55.7307Z" fill="#142D4D"/>
<path fill-rule="evenodd" clip-rule="evenodd" d="M37.9049 26.7139L36.2835 27.378L32.873 42.7869L33.0112 54.3362L35.7449 54.3985C35.7449 54.3985 37.0166 44.2934 37.0166 43.509C37.0166 42.7289 42.9058 29.806 42.9058 29.806L37.9049 26.7139Z" fill="#142D4D"/>
<path fill-rule="evenodd" clip-rule="evenodd" d="M39.1562 27.5648C39.1562 27.5648 39.6088 39.2508 39.6088 41.2552C39.6088 43.2558 40.2546 54.5062 40.2546 54.5062L44.0591 54.6226C44.0591 54.6226 44.2567 51.2117 44.5498 46.1856C44.5967 45.4013 44.4914 43.8117 44.5498 42.9984C44.9763 37.1426 45.8196 31.6277 45.4173 29.4408C45.3521 29.092 45.2304 28.171 44.9937 27.9386C43.1984 26.1825 39.1562 27.5648 39.1562 27.5648Z" fill="#0F3970"/>
<path fill-rule="evenodd" clip-rule="evenodd" d="M43.6696 9.80727C43.6696 9.80727 45.5605 10.056 46.0585 10.4009C46.6187 10.7911 47.2408 11.6624 47.2408 11.6624C47.2408 11.6624 44.9196 22.0497 44.9147 23.7972C44.9118 25.1457 45.4175 28.4658 45.4175 28.4658C45.4175 28.4658 38.4025 28.8845 35.7456 27.8929C35.7456 27.8929 36.5846 23.9464 36.5846 22.9089C36.5846 21.8715 37.5877 12.4468 37.8167 11.7871C38.0234 11.1896 38.4025 10.1188 39.6849 9.85315C40.9658 9.58702 43.6696 9.80727 43.6696 9.80727Z" fill="#F1923F"/>
<path fill-rule="evenodd" clip-rule="evenodd" d="M43.1532 7.01364L43.6052 9.815C43.6052 9.815 42.1838 12.2135 41.1632 11.9151C40.3069 11.662 40.5619 9.75704 40.5619 9.75704C40.5619 9.75704 41.0285 8.11777 40.8889 7.29619C40.7488 6.47414 43.1532 7.01364 43.1532 7.01364Z" fill="#F4AE7C"/>
<path fill-rule="evenodd" clip-rule="evenodd" d="M40.889 7.2958C40.7494 6.47423 43.1533 7.01373 43.1533 7.01373L43.1919 7.25426C43.1219 7.4122 43.0359 7.54889 42.9316 7.65708C42.394 8.20093 41.555 8.52453 40.8296 8.54917C40.9016 8.10916 40.9465 7.63196 40.889 7.2958Z" fill="#EC724C"/>
<path fill-rule="evenodd" clip-rule="evenodd" d="M43.547 2.90903C43.6151 2.88826 44.0918 6.21222 43.1867 7.12556C42.282 8.04276 40.5196 8.34173 39.8873 7.61966C39.188 6.82272 39.2232 3.24954 40.6302 2.3077C42.0366 1.36539 43.547 2.90903 43.547 2.90903Z" fill="#F4AE7C"/>
<path fill-rule="evenodd" clip-rule="evenodd" d="M41.1658 0.531617C42.2531 0.739304 42.9573 1.36188 43.2161 1.62704C43.7098 1.685 44.3802 1.93857 45.0737 3.01758C45.9257 4.34581 45.2964 5.81459 44.3048 6.5328C43.3132 7.25488 43.3297 8.09722 43.3297 8.09722L43.1703 7.65721C43.0543 7.32926 43.007 6.98488 43.0457 6.64051C43.0688 6.43717 43.1157 6.21306 43.206 6.03049C43.4446 5.54895 42.694 5.22969 42.483 4.83122C42.3212 4.52403 42.3134 3.81838 42.0574 3.30834L41.7527 2.91808C41.7527 2.91808 41.0485 2.4037 40.3602 2.54859C39.6719 2.69398 39.771 0.262107 41.1658 0.531617Z" fill="#0F3970"/>
<path fill-rule="evenodd" clip-rule="evenodd" d="M42.5295 5.41981C42.5218 5.82649 42.7184 6.15831 42.9676 6.16266C43.2168 6.167 43.4245 5.84292 43.4317 5.43624C43.439 5.02956 43.2424 4.69774 42.9932 4.69339C42.7444 4.68953 42.5363 5.017 42.5295 5.41981Z" fill="#F4AE7C"/>
<path fill-rule="evenodd" clip-rule="evenodd" d="M46.5346 11.1436C45.898 11.1267 45.3353 15.0984 45.7391 15.4886C46.1419 15.8827 46.2192 20.7716 46.2192 20.7716L40.2171 20.6306L40.2166 20.6349C40.0997 20.56 38.842 19.7592 38.6628 19.5849C38.4739 19.4023 37.5577 19.4936 37.3152 19.7467C37.0728 19.9998 37.8543 19.7926 38.0697 19.9292C38.2856 20.0664 37.9079 20.4108 37.9079 20.4108C37.9079 20.4108 36.3869 20.618 36.0904 20.3195C35.7938 20.0249 35.0017 19.5187 34.894 19.8177C34.8384 19.9708 35.2471 20.4359 35.477 20.631C35.1901 20.4277 34.8457 20.2118 34.7283 20.249C34.5124 20.32 34.6023 20.5769 34.7191 20.6557C34.836 20.7305 36.0435 21.6019 36.2319 21.6642C36.4164 21.7226 39.225 21.7888 39.7104 21.8926C39.7104 21.8926 47.6247 23.5981 48.0744 23.4904C48.469 23.3991 48.8641 21.0005 48.8641 19.1618C48.8641 17.3269 48.5226 11.2016 46.5346 11.1436Z" fill="#F4AE7C"/>
<path fill-rule="evenodd" clip-rule="evenodd" d="M45.709 10.2383C45.709 10.2383 46.8165 10.4788 47.9597 11.695C49.0001 12.803 49.655 18.9949 49.655 18.9949L46.0635 19.5427L45.7771 16.5505L44.8174 15.1812L45.709 10.2383Z" fill="#ED7A15"/>
<path fill-rule="evenodd" clip-rule="evenodd" d="M28.3925 12.604C28.3925 12.604 28.1423 12.3466 27.6748 12.3799C27.2068 12.4089 26.5943 12.9692 26.5088 13.1725C26.4649 13.272 26.7585 14.0897 26.8861 14.2679C26.9619 14.3757 27.1353 14.4298 27.1961 14.3718C27.2367 14.3346 27.1947 14.1477 27.1831 14.1105C27.1618 14.0318 27.0063 13.5295 27.0063 13.5295C27.0063 13.5295 27.3087 14.0356 27.4487 14.0651C27.5893 14.0984 27.6675 13.9902 27.6593 13.9487C27.6168 13.7328 27.3811 13.3179 27.3811 13.3179C27.3811 13.3179 27.7352 13.812 27.9095 13.7579C28.0834 13.7082 28.0114 13.5338 27.9853 13.4715C27.9597 13.4135 27.7173 13.073 27.7173 13.073C27.7173 13.073 28.1013 13.5792 28.1761 13.3966C28.2215 13.2884 27.9709 12.8112 27.9709 12.8112L28.3925 12.604Z" fill="#F3A992"/>
<path fill-rule="evenodd" clip-rule="evenodd" d="M29.513 8.77422C29.7544 7.73675 29.9901 6.69494 29.3545 5.55362C28.8397 4.63256 27.95 4.10126 26.9198 3.98486C24.002 3.65691 23.7451 6.12211 20.9732 7.20546C19.7889 7.66623 18.5741 7.53341 17.5159 8.13087C15.6052 9.20553 14.5909 12.2267 15.8578 15.0406C18.9605 21.9334 26.2764 17.4227 27.2173 16.0655C27.9167 15.0575 29.3579 9.4422 29.513 8.77422Z" fill="#0F3970"/>
<path fill-rule="evenodd" clip-rule="evenodd" d="M27.7282 13.9735L27.4297 12.5004C27.4297 12.5004 28.3111 12.6994 28.8724 13.5253C29.4331 14.3512 30.3721 17.1357 30.5324 17.2188C30.6933 17.3019 32.4678 14.7164 32.7783 14.3054C33.1614 13.8035 33.3048 13.222 33.5449 12.7825C33.7849 12.3425 34.6311 12.1932 34.9528 12.2512C35.2725 12.3053 34.5123 13.5915 34.5123 13.5915C34.5123 13.5915 32.589 16.7498 31.9476 18.4842C31.3067 20.2148 29.3032 21.0407 28.9835 20.7958C28.6633 20.5471 27.7282 13.9735 27.7282 13.9735Z" fill="#F3A992"/>
<path fill-rule="evenodd" clip-rule="evenodd" d="M28.0759 18.4022L30.5257 17.0826C30.5257 17.0826 29.4129 12.642 27.4297 12.501L28.0759 18.4022Z" fill="#406FB5"/>
<path fill-rule="evenodd" clip-rule="evenodd" d="M33.5668 13.0275C33.5668 13.0275 33.6465 12.6914 33.8624 12.6252C34.0783 12.559 34.4555 12.617 34.4782 12.6252C34.5029 12.6334 34.9182 12.4219 34.9182 12.4219L34.5753 13.0275C34.5753 13.0275 33.903 13.7747 33.6794 13.4965C33.4553 13.2145 33.5668 13.0275 33.5668 13.0275Z" fill="#F4AE7C"/>
<path fill-rule="evenodd" clip-rule="evenodd" d="M35.0376 12.4463C35.0376 12.4463 35.2806 13.6166 35.2187 13.8615C35.1579 14.1063 35.0024 13.9735 34.9743 13.9238C34.8541 13.704 34.7715 12.9525 34.7715 12.9525L35.0376 12.4463Z" fill="#F3A992"/>
<path fill-rule="evenodd" clip-rule="evenodd" d="M34.5151 13.4185C34.5151 13.4185 34.6315 14.1444 34.7504 14.2275C34.8272 14.2855 34.9257 14.2526 34.958 14.1072C34.9904 13.958 34.8025 13.0654 34.8025 13.0654L34.5151 13.4185Z" fill="#F3A992"/>
<path fill-rule="evenodd" clip-rule="evenodd" d="M17.8431 52.3066C17.8431 52.3066 17.6354 54.3029 17.1012 54.668C16.567 55.0375 15.8551 56.3899 16.211 57.125C16.3221 57.353 16.5448 57.4863 16.7984 57.5606C17.5489 57.7809 18.3473 57.4114 18.6666 56.7309C18.8453 56.3532 19.0018 55.847 19.0337 55.2075C19.1138 53.589 19.6475 52.7631 19.6475 52.7631L17.8431 52.3066Z" fill="#F4AE7C"/>
<path fill-rule="evenodd" clip-rule="evenodd" d="M26.0513 53.125C26.0513 53.125 26.2194 55.1376 26.0827 55.7935C26.0093 56.1423 25.6022 56.8643 25.7896 57.1961C25.976 57.5236 26.19 57.6067 26.19 57.6067L31.0349 57.6816C31.2995 57.6854 31.1252 57.5236 30.9117 57.3787C30.5635 57.1338 30.2828 56.9759 29.1695 56.4654C29.0971 56.4321 28.8329 56.2746 28.7373 56.2205C28.4953 56.0795 28.2528 55.8592 28.0442 55.6438C27.6964 55.2743 27.666 53.5022 27.666 53.5022L26.0513 53.125Z" fill="#F4AE7C"/>
<path fill-rule="evenodd" clip-rule="evenodd" d="M29.8389 26.3494C29.8389 26.3494 30.4489 29.6193 30.0485 31.7609C29.6477 33.9063 27.7249 53.7805 27.7249 53.7805L25.5886 53.8965C25.5886 53.8965 25.1404 45.5924 25.2205 44.439C25.3007 43.2851 25.9344 41.3512 25.9344 41.3512L25.7224 34.6492L28.4184 25.8428L29.8389 26.3494Z" fill="#142D4D"/>
<path fill-rule="evenodd" clip-rule="evenodd" d="M23.558 25.6603C23.558 25.6603 21.8753 28.0506 21.4749 30.0304C21.0745 32.0097 21.769 38.0935 20.9977 40.6872C20.5814 42.0898 18.9996 44.2604 18.7595 46.074C18.519 47.8876 17.5762 52.6393 17.5762 52.6393L19.712 53.0373L24.6762 41.1726L28.5701 30.441L29.5674 24.917L23.558 25.6603Z" fill="#0F3970"/>
<path fill-rule="evenodd" clip-rule="evenodd" d="M24.9201 12.0518C24.9201 12.0518 23.7662 12.23 22.9069 13.0269C21.0638 14.7329 23.9898 21.3146 24.1502 22.4723C24.311 23.6262 22.8374 26.3194 22.8374 26.3194C22.8374 26.3194 28.3425 27.282 29.8393 26.3483C29.8393 26.3483 30.0147 17.0816 29.8543 16.2557C29.6944 15.4342 27.9011 12.8859 27.5809 12.5579C27.2597 12.2261 24.9201 12.0518 24.9201 12.0518Z" fill="#6998D0"/>
<path fill-rule="evenodd" clip-rule="evenodd" d="M22.8368 13.8042C22.9788 13.3975 23.4656 13.1985 23.881 13.3685C24.4495 13.6052 25.2353 14.0447 25.6188 14.8001C26.2602 16.066 28.5032 20.411 29.1978 20.5767C29.8918 20.7385 32.7236 16.066 32.7236 16.066C32.7236 16.066 32.6439 15.2401 32.8845 14.7711C33.125 14.3065 33.8456 13.8124 33.9519 13.9742C34.0586 14.1403 33.551 14.5552 33.551 14.6383C33.551 14.717 33.7654 14.7711 34.0581 14.6093C34.3523 14.4432 34.5117 14.1113 34.5117 14.1113C34.5117 14.1113 34.9932 14.9368 34.4861 15.6801C33.9789 16.4229 33.765 16.7258 33.765 16.7258C33.765 16.7258 30.4796 23.6273 29.2775 23.706C28.1589 23.7847 21.7119 17.0204 22.8368 13.8042Z" fill="#F4AE7C"/>
<path fill-rule="evenodd" clip-rule="evenodd" d="M25.6622 9.23827C25.6622 9.23827 25.6502 9.30057 25.6294 9.40828C25.5304 9.91446 25.1474 11.5914 24.8899 12.0517C24.5774 12.6081 25.9588 14.3879 27.2885 14.1725C27.684 14.1064 26.9538 12.5376 26.989 12.3714C27.0557 12.0517 27.147 11.6204 27.2402 11.1722C27.2928 10.9229 27.3464 10.6699 27.3962 10.4293C27.5387 9.74879 27.6551 9.19238 27.6551 9.19238L25.6622 9.23827Z" fill="#F4AE7C"/>
<path fill-rule="evenodd" clip-rule="evenodd" d="M25.6292 9.40828C25.65 9.30057 25.6621 9.23827 25.6621 9.23827L27.6544 9.19238C27.6544 9.19238 27.538 9.74879 27.3955 10.4293C27.3458 10.666 27.2927 10.9191 27.241 11.1678C26.9328 11.1263 26.6112 10.9853 26.2895 10.7196C25.9383 10.4288 25.708 10.0806 25.5693 9.70725C25.5935 9.58699 25.6138 9.48749 25.6292 9.40828Z" fill="#EC724C"/>
<path fill-rule="evenodd" clip-rule="evenodd" d="M27.2401 4.83984C27.2401 4.83984 26.534 4.94368 26.0225 5.66575C25.992 6.44724 25.3376 8.65789 26.2302 9.81563C27.5009 11.0231 28.7572 9.65769 28.9436 8.20533C28.9673 6.96887 29.0914 4.78622 27.2401 4.83984Z" fill="#F4AE7C"/>
<path fill-rule="evenodd" clip-rule="evenodd" d="M27.9595 4.59069C27.9595 4.59069 26.7046 6.7033 25.8072 6.8028C24.9098 6.89843 24.792 8.02284 24.792 8.02284C24.792 8.02284 25.1132 5.43351 26.0009 4.93555C26.8896 4.4371 27.9595 4.59069 27.9595 4.59069Z" fill="#0F3970"/>
<path fill-rule="evenodd" clip-rule="evenodd" d="M26.0509 7.0143C26.1243 7.392 25.977 7.73637 25.7234 7.78225C25.4689 7.832 25.2042 7.5707 25.1308 7.193C25.0584 6.81917 25.2052 6.47479 25.4588 6.42504C25.7128 6.37481 25.978 6.64046 26.0509 7.0143Z" fill="#F4AE7C"/>
<path fill-rule="evenodd" clip-rule="evenodd" d="M18.8119 56.3742C17.6474 56.578 16.8726 55.9347 16.4703 55.4531C16.1742 55.9965 15.9931 56.6775 16.2105 57.1257C16.4022 57.5199 16.9243 57.628 17.3648 57.6445C17.8314 57.6609 18.267 57.4286 18.4989 57.047C18.6071 56.8678 18.7182 56.6437 18.8119 56.3742Z" fill="#0F3970"/>
<path fill-rule="evenodd" clip-rule="evenodd" d="M28.7371 56.2201C27.4557 56.5316 26.5086 56.3196 25.9782 56.1162C25.8415 56.4814 25.6609 56.9421 25.757 57.2034C25.8744 57.5314 26.042 57.6019 26.1898 57.6062C27.3606 57.6352 30.4778 57.6768 31.3694 57.685C31.495 57.6893 31.5636 57.5521 31.4829 57.4609C31.2617 57.2121 28.8327 56.2742 28.7371 56.2201Z" fill="#0F3970"/>
<path fill-rule="evenodd" clip-rule="evenodd" d="M24.635 19.8662L27.5199 18.0733C27.5199 18.0733 26.3177 14.8614 24.9953 13.724C23.6729 12.587 23.0479 12.8609 22.7711 13.0975C22.0051 13.7529 22.1408 15.3425 23.0121 17.3054C23.8835 19.2687 24.635 19.8662 24.635 19.8662Z" fill="#406FB5"/>
<path fill-rule="evenodd" clip-rule="evenodd" d="M23.7534 54.9087C23.7534 54.9087 23.6481 55.8143 23.6481 55.9689C23.6481 56.122 23.6481 56.122 23.6481 56.122L23.7234 56.2775L23.7534 56.3398L23.2119 57.101C23.2119 57.101 21.0346 57.1339 20.9858 57.1339C20.9366 57.1339 21.2776 56.6074 21.2776 56.6074C21.2776 56.6074 21.9972 56.0645 22.1271 55.6849C22.2571 55.3043 22.0185 54.5117 22.0185 54.5117L23.7534 54.9087Z" fill="#F4AE7C"/>
<path fill-rule="evenodd" clip-rule="evenodd" d="M34.2451 49.4855C34.2451 49.4855 35.0208 49.9661 35.1416 50.0622C35.2613 50.1583 35.2613 50.1583 35.2613 50.1583L35.3362 50.3139L35.3676 50.3762L36.2993 50.4245C36.2993 50.4245 37.6792 48.7393 37.7091 48.7016C37.7391 48.6644 37.3126 48.7586 37.3126 48.7586C37.3126 48.7586 36.4418 48.876 36.0641 48.7408C35.6844 48.6055 34.9189 47.8516 34.9189 47.8516L34.2451 49.4855Z" fill="#F4AE7C"/>
<path fill-rule="evenodd" clip-rule="evenodd" d="M27.2002 40.9824L35.5511 48.095L34.2649 49.9149C34.2649 49.9149 25.6831 44.5865 25.2329 44.5266C24.7852 44.4658 24.421 44.6725 24.3351 45C24.2505 45.3274 24.0351 55.1612 24.0351 55.1612H21.8037L20.6421 42.7806L27.2002 40.9824Z" fill="#0F3D86"/>
<path fill-rule="evenodd" clip-rule="evenodd" d="M15.1691 30.8375C14.5518 30.4323 13.1 28.8756 12.6078 28.3453C12.603 28.2835 12.5561 27.9222 12.161 27.4648C11.8823 27.1412 11.6698 26.4032 11.4868 26.6123C11.3032 26.8219 11.7582 27.4078 11.5505 27.4117C11.3428 27.4155 10.3097 26.2554 10.1431 26.4447C9.97837 26.6345 11.0269 27.6662 10.84 27.6686C10.6541 27.6725 9.80304 26.6278 9.56783 26.8953C9.33406 27.1629 10.6835 28.0323 10.558 28.1753C10.4333 28.3197 9.59536 27.7502 9.40651 27.9661C9.21814 28.182 10.5865 28.6897 10.4773 28.6911C10.3686 28.6935 9.57797 28.6718 9.57169 28.8239C9.56541 28.9964 11.5713 29.2639 11.8171 29.562C12.3407 30.3961 13.2738 31.919 14.2171 32.5879C15.3739 33.4066 18.0439 35.1415 18.0439 35.1415L19.3706 33.4273C19.3697 33.4269 15.9013 31.3176 15.1691 30.8375Z" fill="#F4AE7C"/>
<path fill-rule="evenodd" clip-rule="evenodd" d="M11.55 27.7803C11.4993 27.8817 11.4761 27.9918 11.4693 28.1024C11.4737 28.1203 11.4244 28.4792 11.7306 28.7511C11.6113 28.5299 11.4799 28.2831 11.55 27.7803Z" fill="#EF8F7D"/>
<path fill-rule="evenodd" clip-rule="evenodd" d="M27.4108 28.9631C27.902 28.4106 28.8955 26.5279 29.2312 25.8874C29.2191 25.8261 29.1713 25.4667 29.4326 24.9205C29.6176 24.5346 29.6287 23.768 29.8601 23.9216C30.0929 24.0762 29.8069 24.7611 30.0083 24.7104C30.2107 24.6596 30.9038 23.2691 31.1144 23.4082C31.3235 23.5473 30.5812 24.8181 30.7623 24.7732C30.9424 24.7273 31.4911 23.4956 31.7872 23.6927C32.0833 23.8902 31.0072 25.0818 31.1661 25.188C31.3259 25.2933 31.9847 24.5254 32.2238 24.6838C32.4615 24.8427 31.2728 25.6908 31.3791 25.6633C31.4858 25.6377 32.2422 25.4097 32.2871 25.5556C32.3397 25.7193 30.4735 26.5023 30.315 26.8539C30.0267 27.7957 29.5253 29.5108 28.7883 30.4034C27.8865 31.4945 25.7638 33.8669 25.7638 33.8669L24.0356 32.56C24.0352 32.5609 26.8298 29.6176 27.4108 28.9631Z" fill="#F4AE7C"/>
<path fill-rule="evenodd" clip-rule="evenodd" d="M30.106 25.0654C30.1813 25.15 30.2315 25.2499 30.2663 25.3552C30.2678 25.3736 30.4078 25.7059 30.1847 26.0493C30.2422 25.8034 30.3045 25.532 30.106 25.0654Z" fill="#EF8F7D"/>
<path fill-rule="evenodd" clip-rule="evenodd" d="M23.7211 32.8654C23.4689 32.4897 23.0367 32.2771 22.5856 32.3076C21.2588 32.3979 18.5704 32.6109 18.3159 32.8654C17.9759 33.2054 16.9553 35.4224 17.9271 38.53C18.8979 41.6366 19.4321 41.3134 20.2247 41.3134C21.0182 41.3134 24.7566 39.5505 24.7566 39.5505L23.7211 32.8654Z" fill="#284C88"/>
<path fill-rule="evenodd" clip-rule="evenodd" d="M26.0108 30.2285L27.5703 32.2619L25.635 35.1415C25.635 35.1415 25.8166 37.2817 26.0962 37.9477C26.3759 38.6157 27.9896 41.3586 27.9896 41.3586C27.9896 41.3586 24.0696 43.7629 20.2342 43.4104C20.2342 43.4104 19.1532 37.8516 18.8504 37.3179C18.5461 36.7842 15.6216 34.1369 15.6216 34.1369L17.0416 31.8427L19.4933 33.2033C19.4933 33.2033 23.9749 32.4778 24.1904 32.2624C24.4058 32.0465 26.0108 30.2285 26.0108 30.2285Z" fill="#6998D0"/>
<path fill-rule="evenodd" clip-rule="evenodd" d="M20.9534 26.069C20.9534 26.069 22.4671 25.2672 22.9844 26.5954C22.9844 26.5954 24.3435 26.4578 24.1093 27.8652C24.1093 27.8652 25.4766 28.5535 24.6106 30.3261C24.6106 30.3261 24.9917 31.9933 23.0414 32.0982C23.0414 32.0982 22.7501 32.6884 21.86 32.5507C20.9698 32.4145 20.7428 32.1793 20.7428 32.1793C20.7428 32.1793 19.1653 32.6401 18.6877 31.2162C18.6877 31.2162 17.6038 30.9564 18.3312 29.5649C18.3312 29.5649 17.3846 27.7614 19.0514 27.218C19.0509 27.2175 19.2465 25.3725 20.9534 26.069Z" fill="#152F54"/>
<path fill-rule="evenodd" clip-rule="evenodd" d="M20.3426 29.9785C20.4648 30.3205 20.3764 30.6663 20.1451 30.7494C19.9123 30.8324 19.6254 30.6223 19.5017 30.2789C19.3795 29.936 19.4679 29.5907 19.6993 29.5076C19.9326 29.424 20.2195 29.6341 20.3426 29.9785Z" fill="#F4AE7C"/>
<path fill-rule="evenodd" clip-rule="evenodd" d="M24.4239 29.1354C24.4413 29.4996 24.2554 29.8049 24.0095 29.8165C23.7632 29.8285 23.5497 29.5421 23.5328 29.1784C23.5159 28.8133 23.7019 28.5095 23.9477 28.4974C24.1931 28.4858 24.4075 28.7718 24.4239 29.1354Z" fill="#F4AE7C"/>
<path fill-rule="evenodd" clip-rule="evenodd" d="M22.6931 31.5474C22.6931 31.5706 22.8892 32.4168 22.9945 32.8635C23.0317 33.0302 22.9486 33.2002 22.7931 33.2717C22.3772 33.4615 21.5585 33.7266 20.9934 33.2132C20.9418 33.1673 20.9142 33.1002 20.9167 33.0302L20.9852 31.0137L22.6931 31.5474Z" fill="#F4AE7C"/>
<path fill-rule="evenodd" clip-rule="evenodd" d="M22.7982 32.0207C22.3578 32.2429 21.8042 32.2468 21.1831 31.8831C21.1039 31.8372 21.031 31.7879 20.9609 31.7357L20.9856 31.0137L22.693 31.5474C22.693 31.5595 22.7384 31.7633 22.7982 32.0207Z" fill="#EF8F7D"/>
<path fill-rule="evenodd" clip-rule="evenodd" d="M21.4821 26.892C21.4821 26.892 20.7373 27.0881 20.2997 27.8131C19.8621 28.5381 19.6206 30.6343 21.1836 31.5515C22.7466 32.4692 23.885 31.0487 23.855 29.705C23.8246 28.3627 23.2281 26.6452 21.4821 26.892Z" fill="#F4AE7C"/>
<path fill-rule="evenodd" clip-rule="evenodd" d="M24.0336 32.3308C24.7538 32.8751 25.5073 35.6649 25.7913 36.3937L26.0216 37.7311L23.0933 32.5568C23.0933 32.5568 23.8781 32.2144 24.0336 32.3308Z" fill="#4268B0"/>
<path fill-rule="evenodd" clip-rule="evenodd" d="M20.4764 33.037C20.4764 33.037 20.5648 36.475 20.3064 37.6564C20.0466 38.8373 19.3694 39.2507 19.3694 39.2507L19.0366 37.8761C19.0366 37.8761 19.3694 34.841 19.4926 33.2027C19.5104 32.953 20.4764 33.037 20.4764 33.037Z" fill="#4268B0"/>
<path fill-rule="evenodd" clip-rule="evenodd" d="M24.1499 57.6587C24.4827 57.6167 23.9079 56.4643 23.7234 56.2783L21.2771 56.6087C21.2771 56.6087 20.0995 57.1545 19.8204 57.4341C19.7537 57.5003 19.7445 57.6162 20.0329 57.6592C20.9564 57.7959 23.4119 57.7514 24.1499 57.6587Z" fill="#0F3D86"/>
<path fill-rule="evenodd" clip-rule="evenodd" d="M36.1759 51.524C35.889 51.6965 35.3669 50.574 35.3364 50.3141L37.3128 48.7589C37.3128 48.7589 38.8357 48.3213 39.1434 48.6295C39.4235 48.9086 36.8284 51.1318 36.1759 51.524Z" fill="#0F3D86"/>
</svg>
