<svg width="68" height="50" viewBox="0 0 68 50" fill="none" xmlns="http://www.w3.org/2000/svg">
<path d="M10.9263 12.5293C11.044 12.5216 11.9316 13.9549 12.4871 16.1533C13.0426 18.3516 14.2266 22.4106 14.2266 22.4106C14.2266 22.4106 16.1475 26.2881 16.6666 26.8073C17.1857 27.3264 17.6894 26.7897 18.2127 26.9523C18.3745 27.0027 18.8726 27.4357 18.8726 27.4357C18.8726 27.4357 19.7707 29.3804 19.6383 29.5135C19.5052 29.6466 18.116 30.0207 17.15 29.7068C16.1839 29.393 11.6899 24.1262 11.6899 24.1262C11.6899 24.1262 8.0267 12.7241 10.9263 12.5293Z" fill="#F48C7F"/>
<path d="M28.4799 14.2793L28.0448 13.8281C28.0448 13.8281 27.2476 15.2594 26.3299 17.2888C25.4122 19.3183 24.3123 21.8186 23.9382 22.1927C23.5634 22.5668 20.4109 26.9032 19.4568 27.3256C18.5026 27.7488 18.7976 27.5631 18.0312 27.4714C17.456 27.4027 17.5183 27.8188 17.8931 28.0122C17.994 28.064 18.1089 28.099 18.3387 28.2616C18.7947 28.5852 19.185 29.0448 19.4708 29.3124C19.5815 29.4161 19.3503 29.6052 19.2207 29.4756C19.0869 29.3418 18.6322 28.6399 18.4424 28.6399C18.2518 28.6399 18.3786 29.1197 18.4606 29.2739C18.5419 29.428 18.3611 29.3825 18.1979 29.0021C18.0347 28.6217 17.917 28.2413 17.6816 28.2952C17.4917 28.3393 17.608 28.8647 17.6599 29.0679C17.6052 28.8753 17.4546 28.3954 17.3096 28.3954C17.1281 28.3954 17.0469 28.4136 17.0469 28.7716C17.0469 29.1296 17.1737 29.5128 17.5905 29.8287C18.0073 30.144 19.1737 29.9338 19.6536 29.7425C19.9815 29.6122 20.3072 29.0798 20.6351 28.9033C22.1006 28.1124 23.6068 27.1687 25.4717 24.6818C27.7548 21.6379 28.6452 18.9197 28.6452 18.9197L28.4799 14.2793Z" fill="#F4C0B8"/>
<path d="M27.6344 48.8153C27.6344 48.8153 27.3927 47.8009 27.6344 46.5686C27.8761 45.3363 29.1805 39.0552 29.1805 37.7508C29.1805 36.4464 29.8089 34.5373 29.8089 34.5373L25.9677 33.5713L25.581 37.3157C25.581 37.3157 25.3758 46.0488 25.0255 46.3991C24.6752 46.7494 23.1943 47.2671 22.7305 47.2671C22.2114 47.2671 21.3896 47.3021 21.3896 47.5634C21.3896 47.8247 21.4618 47.9942 21.4618 47.9942L27.6344 48.8153Z" fill="#F4C0B8"/>
<path d="M32.2083 33.9864L32.684 37.2187C32.684 37.2187 33.8147 46.6923 33.5534 46.9529C33.292 47.2135 32.1081 47.9771 31.5645 48.0373C31.0209 48.0976 30.2559 48.4647 30.2559 48.7547C30.2559 49.3404 36.3682 48.8647 36.3682 48.8647C36.3682 48.8647 36.5615 48.4282 36.3682 47.7879C36.1748 47.1476 36.1748 46.2418 36.1748 46.0968C36.1748 45.9518 36.1867 46.073 36.1867 45.8432C36.1867 45.6134 36.1867 45.5413 36.1867 45.5413C36.1867 45.5413 36.9237 41.0234 36.1384 38.1729L35.8603 32.6406L32.2083 33.9864Z" fill="#F4C0B8"/>
<path d="M6.79155 2.37677C6.79155 2.37677 5.37854 2.35996 4.39987 2.91199C3.4247 3.46193 3.1627 4.77406 3.14448 5.80037C3.12066 7.12511 3.55571 8.45826 4.38166 9.49787C5.20901 10.5389 6.66475 11.0069 6.66475 11.0069L10.7616 8.39521C10.7616 8.39521 11.2492 7.17905 10.9045 5.54817C10.5605 3.91658 10.6509 2.12247 6.79155 2.37677Z" fill="#184655"/>
<path d="M13.6953 44.6082C13.6953 44.6082 15.0481 46.553 15.1448 46.8185C15.2414 47.084 15.9055 48.848 15.9055 48.848L21.0994 46.3232L17.1259 45.1154L16.3287 43.376L13.6953 44.6082Z" fill="#F48C7F"/>
<path d="M6.88232 30.8419L11.1221 39.6836L13.9124 45.2641C13.9124 45.2641 16.3888 44.31 17.0046 43.6935L14.9996 36.6635L12.7165 28.5224L7.91704 28.0859L6.88232 30.8419Z" fill="#355389"/>
<path d="M2.88427 45.5056C2.88427 45.5056 3.07762 46.8101 3.07762 46.8948C3.07762 46.9796 2.7876 48.2357 2.73926 48.574C2.69092 48.9124 2.73926 49.1779 2.73926 49.1779L7.66133 48.0003C7.66133 48.0003 6.93065 47.5232 6.27844 47.161C5.62623 46.7988 5.52955 45.0713 5.52955 45.0713L2.88427 45.5056Z" fill="#F48C7F"/>
<path d="M2.19531 28.5226C2.19531 28.5226 3.03878 33.8265 2.92038 35.601C2.75015 38.1489 2.07482 39.1283 2.5582 45.8101H5.9888C5.9888 45.8101 6.23049 42.2205 6.7622 39.4421C7.29392 36.6637 8.45333 32.0016 8.45333 32.0016L10.3616 27.7002L2.19531 28.5226Z" fill="#86B1F2"/>
<path d="M4.18097 8.58399C4.3463 9.1024 4.76453 9.43166 5.1148 9.31957C5.46508 9.20748 5.615 8.69678 5.44967 8.17837C5.28434 7.65997 4.86611 7.33071 4.51583 7.4428C4.16485 7.55488 4.01494 8.06558 4.18097 8.58399Z" fill="#F48C7F"/>
<path d="M10.0058 7.47636C10.0521 8.01858 10.3862 8.43261 10.7526 8.40178C11.119 8.37096 11.3789 7.90579 11.3327 7.36357C11.2864 6.82134 10.9523 6.40731 10.5859 6.43814C10.2195 6.46966 9.95958 6.93413 10.0058 7.47636Z" fill="#F48C7F"/>
<path d="M60.357 9.13564C61.1325 8.29638 62.7641 4.80413 63.3162 3.81145C63.3042 3.71197 63.2601 3.13402 63.6945 2.28705C64.0013 1.68878 64.0791 0.465619 64.4118 0.731128C64.7446 0.996637 64.264 2.06358 64.5694 1.99983C64.8742 1.93608 66.0189 -0.221622 66.3208 0.0186674C66.6221 0.258956 65.4136 2.2212 65.6868 2.16445C65.9593 2.10771 66.8757 0.191003 67.3016 0.53077C67.7275 0.870537 66.028 2.67866 66.2564 2.8615C66.4855 3.04365 67.5286 1.87443 67.8718 2.14834C68.2151 2.42226 66.3755 3.67344 66.5359 3.63982C66.6963 3.60619 67.8424 3.30916 67.8992 3.54454C67.9629 3.81075 65.1194 4.89941 64.8539 5.44584C64.3495 6.924 63.4647 9.61551 62.2948 10.9753C60.8635 12.6391 56.7464 17.2529 56.7464 17.2529L55.0356 14.0087C55.0349 14.0087 59.4372 10.1304 60.357 9.13564Z" fill="#966259"/>
<path d="M64.6846 2.57617C64.7911 2.71698 64.8576 2.88161 64.9031 3.05255C64.9031 3.08197 65.086 3.6249 64.7252 4.15241C64.8296 3.76641 64.9438 3.33767 64.6846 2.57617Z" fill="#6B4744"/>
<path d="M2.51896 13.4922C2.51896 13.4922 2.91757 23.7755 2.51896 25.6965C2.12034 27.6174 1.9375 28.8629 1.9375 28.8629C1.9375 28.8629 7.44733 29.9362 12.7379 28.5225C12.7379 28.5225 11.9407 24.935 11.5785 21.2024C11.2163 17.4699 10.9263 12.5296 10.9263 12.5296C10.9263 12.5296 8.92059 12.3804 7.37518 12.5219C3.86261 12.8434 2.51896 13.4922 2.51896 13.4922Z" fill="#FAE0B2"/>
<path d="M5.79496 9.91406L5.64014 12.7282C5.64014 12.7282 5.90424 14.2813 7.44406 14.3717C8.98387 14.462 8.53131 11.1463 8.53131 11.1463L8.44094 9.91406H5.79496Z" fill="#F48C7F"/>
<path d="M8.4817 12.0346C8.51883 12.0346 8.55596 12.0339 8.59239 12.0318C8.58398 11.5295 8.53144 11.1463 8.53144 11.1463L8.44107 9.91406H5.79509L5.77197 10.3365C6.10403 10.9018 7.0806 12.0346 8.4817 12.0346Z" fill="#F27A6A"/>
<path d="M2.83273 47.5384C2.83273 47.5384 3.01417 47.357 3.64817 47.4116C4.28217 47.4663 7.46197 47.8193 7.59787 47.8193C7.73378 47.8193 9.55311 49.2008 9.63508 49.4516C9.71634 49.7024 5.70499 49.5385 5.70499 49.5385H2.65058C2.64988 49.5378 2.36126 48.6257 2.83273 47.5384Z" fill="#3C8F7C"/>
<path d="M15.4342 47.4719C15.4342 47.4719 15.2485 47.5973 15.2485 47.7662C15.2485 47.8782 15.4377 48.6418 15.657 49.1848C15.7845 49.5014 16.1607 49.6352 16.4598 49.4706L21.9689 46.433C21.9689 46.433 22.3703 46.0855 19.772 45.9209L15.4342 47.4719Z" fill="#3C8F7C"/>
<path d="M2.51909 13.4922C2.51909 13.4922 1.73658 13.8348 1.27772 14.8975C0.818857 15.9602 -0.655102 20.7681 0.335477 23.6432C0.335477 23.6432 0.781728 25.8289 3.07673 27.3267C5.37174 28.8244 9.37398 29.1845 9.60026 28.9583C9.82654 28.732 9.83565 28.339 9.83565 28.0868C9.83565 27.8346 10.3611 27.7078 10.3611 27.3638C10.3611 27.0198 9.47346 26.9589 8.45276 26.9589C8.45276 26.9589 8.27132 26.9407 8.49479 26.7718C8.71827 26.603 9.00199 26.3914 8.95365 26.0713C8.90531 25.7511 8.69725 25.7665 8.5004 25.9627C8.30424 26.1589 7.65483 26.6878 7.13572 26.5364C6.61662 26.3851 3.5482 23.8666 3.041 23.0694C3.041 23.0687 3.24346 13.6631 2.51909 13.4922Z" fill="#F48C7F"/>
<path d="M28.0452 13.8276C28.0452 13.8276 29.6985 12.9099 31.4541 12.7039C33.2097 12.498 35.7275 13.1572 35.7275 13.1572L37.1797 34.1233C37.1797 34.1233 30.6576 37.2211 25.7656 34.1233C25.7656 34.1233 27.0792 25.3201 27.0792 24.0823C27.0792 22.8444 27.0792 22.8444 27.0792 22.8444L28.0452 13.8276Z" fill="#50BFA5"/>
<path d="M21.3919 47.7465C21.2182 47.7269 21.0536 47.8292 20.9947 47.9945C20.9268 48.1844 20.9569 48.3539 21.0991 48.4968C21.359 48.7567 25.8916 49.4986 27.4741 49.4643C27.6422 49.4608 27.8818 48.9613 27.6338 48.8163C27.2471 48.5893 22.5878 47.8817 21.3919 47.7465Z" fill="#13375B"/>
<path d="M22.73 47.2678L23.1048 48.0307L23.9384 48.2605C23.9384 48.2605 23.5517 46.8958 23.2134 46.956C22.875 47.0163 22.73 47.2678 22.73 47.2678Z" fill="#13375B"/>
<path d="M30.2547 48.8047C30.0956 48.804 29.9527 48.9049 29.9037 49.0562C29.8638 49.1781 29.8505 49.3175 29.9415 49.4086C30.1349 49.6019 36.6255 49.4688 36.6255 49.4688C36.6255 49.4688 36.7824 48.9861 36.5001 48.8888C36.313 48.8243 31.384 48.8075 30.2547 48.8047Z" fill="#13375B"/>
<path d="M32.2111 47.7641C32.1529 47.6583 31.7053 47.7704 31.5645 48.0373L32.1403 48.8639L32.817 48.8618L32.2111 47.7641Z" fill="#13375B"/>
<path d="M46.66 43.5728C46.66 43.5728 46.3987 45.844 45.9735 46.8339C45.5489 47.8245 44.1471 48.4501 42.9156 48.6924C41.6833 48.9355 42.0938 49.1296 42.2746 49.3096C42.4553 49.4904 47.7956 49.6123 48.7378 49.4413C48.7378 49.4413 48.3757 47.5821 48.3757 47.292C48.3757 47.002 49.8496 42.4365 49.8496 42.4365L46.66 43.5728Z" fill="#966259"/>
<path d="M48.7378 49.4422C48.7378 49.4422 48.6642 49.0639 48.583 48.6218C47.5525 48.7599 45.1958 48.5189 44.0147 48.3809C43.6532 48.5175 43.214 48.5588 42.8525 48.6296C41.6202 48.8726 41.7127 49.1956 42.0216 49.4205C42.2276 49.5711 47.7956 49.6131 48.7378 49.4422Z" fill="#F47458"/>
<path d="M57.1678 43.0415C57.1678 43.0415 57.0235 45.8325 57.3226 46.835C57.6308 47.8676 58.0715 48.0455 59.2813 48.3818C60.4695 48.7125 60.0183 49.2407 59.8376 49.4214C59.6568 49.6022 55.5005 49.6141 54.5582 49.4431C54.5582 49.4431 54.9204 47.5839 54.9204 47.2938C54.9204 47.0038 54.4805 42.3115 54.4805 42.3115L57.1678 43.0415Z" fill="#966259"/>
<path d="M54.5581 49.4422C54.5581 49.4422 54.6317 49.0639 54.7129 48.6218C55.7434 48.7599 58.1001 48.5189 59.2812 48.3809C59.6896 48.4796 60.0203 48.5616 60.3804 48.6933C61.5601 49.1241 61.455 49.2404 61.2743 49.4205C61.0935 49.6012 55.5003 49.6131 54.5581 49.4422Z" fill="#F47458"/>
<path d="M35.7273 13.1572C35.7273 13.1572 34.3143 14.8238 35.0386 17.6141C35.7637 20.4044 37.5151 24.8494 39.677 27.3238C40.0273 27.7245 40.8364 28.57 41.1993 28.8117C41.5615 29.0534 43.0957 29.2223 43.0957 29.2223C43.0957 29.2223 43.7724 27.1444 43.5791 26.9511C43.3857 26.7577 41.7611 26.7395 41.3205 26.2989C40.8791 25.8589 36.5974 13.1572 35.7273 13.1572Z" fill="#F4C0B8"/>
<path d="M49.3972 13.1221C49.3972 13.1221 48.9902 13.3757 48.7001 14.1246C48.4101 14.8734 46.906 21.0341 46.6888 21.928C46.5207 22.618 44.9956 24.6447 44.239 25.6213C44.0155 25.9092 43.8439 26.1495 43.736 26.1495C43.0719 26.1495 41.9692 26.518 41.9692 26.7933C41.9692 27.0686 42.2298 27.0981 42.6642 27.0014C43.0992 26.9047 42.77 27.3755 42.6123 27.5331C42.4554 27.69 41.7864 28.5853 42.0232 28.8228C42.26 29.0596 42.8295 29.2242 43.095 29.2242C43.2393 29.2242 43.5322 29.2081 44.0674 28.7717C44.5178 28.4039 45.1799 27.6522 45.666 27.2193C47.4132 25.6612 48.8507 22.3876 49.1163 21.6387C49.3832 20.8891 49.3972 13.1221 49.3972 13.1221Z" fill="#966259"/>
<path d="M43.7999 27.7072C43.7999 27.7072 43.9813 27.7254 43.9813 28.0785C43.9813 28.4316 43.6731 28.9752 43.465 29.184C43.2569 29.392 41.3486 28.8855 41.3486 28.8855C41.3486 28.8855 42.0429 28.9031 42.2797 28.6088C42.3855 28.4771 42.5865 27.8613 42.7855 27.8613C42.9844 27.8613 42.7672 28.695 42.7672 28.695C42.7672 28.695 43.1476 27.5986 43.3473 27.5986C43.5463 27.5986 43.5645 27.7976 43.4741 28.1332C43.383 28.468 43.6766 27.6105 43.7999 27.7072Z" fill="#F4C0B8"/>
<path d="M45.3325 43.7983C45.3325 43.7983 48.1592 44.5591 51.3657 44.5591C54.5728 44.5591 60.8777 42.9289 60.8777 42.9289C60.8777 42.9289 59.1383 38.7256 58.5407 35.5002C57.9424 32.2749 57.5081 26.7314 57.5081 26.7314H47.9393L47.3417 30.5698L45.3325 43.7983Z" fill="#466EB6"/>
<path d="M49.3971 13.1215C49.3971 13.1215 48.7729 13.8465 48.7729 16.0932C48.7729 18.3399 48.6643 21.7102 48.4829 22.8696C48.3014 24.029 47.7578 26.9104 47.7578 26.9104C47.7578 26.9104 49.3523 28.2331 53.4834 27.8709C57.6146 27.5087 57.8317 26.9531 57.8317 26.9531C57.8317 26.9531 57.2517 17.6162 57.2517 16.6375C57.2517 15.6589 56.3662 12.8272 56.3662 12.8272C56.3662 12.8272 53.9794 12.5813 52.8922 12.6647C51.8049 12.7481 49.3971 13.1215 49.3971 13.1215Z" fill="#FAE0B2"/>
<path d="M47.52 4.30293C47.52 4.30293 45.7812 4.79612 45.9255 6.58042C46.0586 8.22602 46.8677 8.14265 46.8677 8.14265C46.8677 8.14265 46.2758 10.4755 48.0636 11.1522C49.7491 11.7897 50.3831 11.1522 50.3831 11.1522C50.3831 11.1522 51.1145 13.0892 53.6147 12.3418C56.115 11.5936 55.8908 10.0776 55.8908 10.0776C55.8908 10.0776 56.9564 10.4965 58.1879 8.53986C59.4202 6.58322 58.7169 5.17372 57.0867 4.30363C57.0867 4.30363 57.6296 1.81247 55.1363 1.41386C52.6431 1.01454 52.0322 2.38272 52.0322 2.38272C52.0322 2.38272 51.5888 0.85552 48.9337 1.90635C47.1942 2.59499 47.52 4.30293 47.52 4.30293Z" fill="#13375B"/>
<path d="M54.408 8.03729C54.2245 8.54939 54.3562 9.065 54.7023 9.18899C55.0483 9.31299 55.4778 8.99844 55.6613 8.48634C55.8449 7.97424 55.7132 7.45863 55.3671 7.33464C55.021 7.21064 54.5916 7.52519 54.408 8.03729Z" fill="#966259"/>
<path d="M48.7392 8.5454C48.8232 9.08272 49.1854 9.47293 49.549 9.41618C49.9126 9.35944 50.1389 8.87746 50.0548 8.34013C49.9707 7.80281 49.6086 7.41261 49.245 7.46935C48.8821 7.52609 48.6551 8.00807 48.7392 8.5454Z" fill="#966259"/>
<path d="M51.7202 10.8984L51.8169 13.012C51.8169 13.012 51.8652 13.8337 52.7227 13.9423C53.5802 14.0509 54.3655 13.3875 54.3655 12.7219C54.3655 12.6372 53.9431 9.73828 53.9431 9.73828L51.7202 10.8984Z" fill="#966259"/>
<path d="M53.9431 9.73926L51.7202 10.8987L51.7545 11.6504C52.1567 11.6532 52.7528 11.6209 53.2299 11.3365C53.6313 11.0969 53.8548 10.7929 54.0348 10.374C53.9816 10.0034 53.9431 9.73926 53.9431 9.73926Z" fill="#6B4744"/>
<path d="M17.8936 27.4159C17.8936 27.4159 18.4351 27.7662 18.7566 27.6891C19.0782 27.6121 18.9199 27.4474 18.7685 27.2968C18.6172 27.1462 18.213 26.9521 18.213 26.9521L17.8936 27.4159Z" fill="#F48C7F"/>
<path d="M7.19249 3.85309C6.3147 3.98269 5.673 4.60408 5.20713 5.36277C4.2831 6.86686 5.03479 9.0806 5.28839 9.5878C5.54199 10.095 6.55639 11.3994 8.06047 11.3994C9.56456 11.3994 10.6154 10.0221 10.7422 8.68198C10.9117 6.88717 10.4311 4.64961 8.72319 4.02542C8.25663 3.85589 7.70529 3.77743 7.19249 3.85309Z" fill="#F48C7F"/>
<path d="M31.3975 3.89899C31.3975 3.89899 30.6549 3.86256 29.8212 4.26118C28.9876 4.65979 28.1182 6.4518 28.1182 8.04625C28.1182 9.01652 27.6888 9.41723 27.3525 9.58186C27.1718 9.67013 27.1234 9.90482 27.2565 10.0554C27.5851 10.4288 27.9269 10.8394 28.3585 11.0901C29.9936 12.0415 31.6399 12.0702 33.4774 11.7333C34.9556 11.4621 36.3504 10.7966 37.3991 9.70586C37.5966 9.5006 37.5427 9.16153 37.2919 9.02632C36.9451 8.83998 36.5353 8.43856 36.3805 7.57618C36.0905 5.96492 35.4922 3.11998 31.3975 3.89899Z" fill="#13375B"/>
<path d="M33.6124 8.29804C33.4947 8.82906 33.6895 9.32435 34.0489 9.40421C34.4076 9.48407 34.7943 9.11839 34.9127 8.58667C35.031 8.05565 34.8356 7.56036 34.4762 7.4805C34.1168 7.40134 33.7301 7.76702 33.6124 8.29804Z" fill="#F4C0B8"/>
<path d="M28.3008 7.59044C28.3008 8.13477 28.5992 8.57542 28.9663 8.57542C29.3341 8.57542 29.6318 8.13407 29.6318 7.59044C29.6318 7.04612 29.3341 6.60547 28.9663 6.60547C28.5992 6.60547 28.3008 7.04682 28.3008 7.59044Z" fill="#F4C0B8"/>
<path d="M30.5574 11.0925L30.376 13.5809C30.376 13.5809 30.4607 14.1483 31.1368 14.2695C31.8135 14.39 33.2503 13.3875 33.2503 12.8565L32.912 9.98145L30.5574 11.0925Z" fill="#F4C0B8"/>
<path d="M30.4688 12.3063C31.5371 12.3595 32.3967 11.8783 33.0328 11.0005L32.913 9.98047L30.5577 11.0915L30.4688 12.3063Z" fill="#F7A491"/>
<path d="M28.897 8.86381C29.0602 9.78784 29.332 11.4138 30.7815 11.5819C32.2309 11.7494 33.3182 10.9662 34.0068 9.55245C34.6955 8.13944 34.5322 6.27317 34.1518 5.34914C33.8492 4.61497 32.5448 4.65 31.9031 4.6612C29.7545 4.69623 28.5355 6.8175 28.897 8.86381Z" fill="#F4C0B8"/>
<path d="M31.0166 4.36426C31.0166 4.36426 30.9942 5.55239 31.9827 6.54157C32.9719 7.53075 34.96 8.04705 34.96 8.04705L35.1961 8.60539C35.1961 8.60539 35.51 6.8288 34.7611 5.64486C34.0122 4.46093 31.0166 4.36426 31.0166 4.36426Z" fill="#13375B"/>
<path d="M52.8625 4.04669C52.8625 4.04669 53.9147 4.34723 54.5445 5.40927C55.1743 6.4713 55.5547 9.5215 53.3725 10.8231C51.1903 12.1254 49.731 10.0343 49.5783 8.08957C49.3969 5.78966 50.4008 3.65509 52.8625 4.04669Z" fill="#966259"/>
</svg>
