<svg width="25" height="22" viewBox="0 0 25 22" fill="none" xmlns="http://www.w3.org/2000/svg">
<path d="M19.7749 9.52539C21.5379 9.52539 23.2159 9.52539 24.9788 9.52539C24.9788 13.705 24.9788 17.8199 24.9788 21.9995C23.2583 21.9995 21.5379 21.9995 19.7749 21.9995C19.7749 17.8199 19.7749 13.705 19.7749 9.52539Z" fill="#D30B0B"/>
<path d="M18.628 21.9993C16.8438 21.9993 15.1658 21.9993 13.4241 21.9993C13.4241 19.4721 13.4241 17.0421 13.4241 14.4824C15.1658 14.4824 16.865 14.4824 18.628 14.4824C18.628 16.9773 18.628 19.4073 18.628 21.9993Z" fill="#D30B0B"/>
<path d="M7.073 21.9992C7.073 20.1848 7.073 18.5 7.073 16.6855C8.79348 16.6855 10.4927 16.6855 12.2769 16.6855C12.2769 18.4352 12.2769 20.1524 12.2769 21.9992C10.5352 21.9992 8.81472 21.9992 7.073 21.9992Z" fill="#D30B0B"/>
<path d="M22.0264 5.02204C21.8989 4.27683 21.814 3.72603 21.6653 2.91602C22.791 3.27242 23.8106 3.56402 25.0001 3.95283C24.2142 5.31364 23.5345 6.51246 22.7486 7.87328C22.5574 7.12807 22.4087 6.54486 22.2176 5.83205C14.9958 9.5257 7.8165 13.1869 0.637209 16.8482C0.573488 16.589 0.531007 16.3298 0.467285 16.0706C7.62533 12.4093 14.7834 8.74809 22.0264 5.02204Z" fill="#D30B0B"/>
<path d="M0.722168 21.9676C0.722168 20.9956 0.722168 20.0884 0.722168 19.084C2.46389 19.084 4.18437 19.084 5.92609 19.084C5.92609 20.0884 5.92609 20.9632 5.92609 21.9676C4.20561 21.9676 2.52761 21.9676 0.722168 21.9676Z" fill="#D30B0B"/>
<path d="M3.8445 10.1085C3.7383 10.1085 3.6321 10.0761 3.54714 10.0761C3.05861 9.97888 2.59132 9.78448 2.14526 9.42808C2.10278 9.39568 2.08154 9.39568 2.08154 9.33088C2.0603 9.07167 2.03906 8.78007 2.03906 8.52087C2.03906 8.32646 2.0603 8.09966 2.14526 7.93766C2.20899 7.80806 2.27271 7.71086 2.37891 7.64605C2.67628 7.51645 2.9524 7.32205 3.22853 7.09525C3.24977 7.06285 3.29225 7.03045 3.31349 6.99805C3.46218 7.67846 3.58962 8.35886 3.7383 9.03927C3.7383 9.00687 3.75954 8.97447 3.75954 8.97447C3.80202 8.78007 3.8445 8.58567 3.90823 8.39126C3.90823 8.35886 3.90823 8.32646 3.90823 8.29406C3.86575 8.16446 3.80202 8.03486 3.78078 7.90526C3.7383 7.67846 3.80202 7.51645 3.95071 7.48405C4.03567 7.45165 4.09939 7.48405 4.16311 7.51645C4.24807 7.54885 4.29056 7.64605 4.29056 7.80806C4.29056 7.97006 4.24807 8.09966 4.18435 8.22926C4.14187 8.32646 4.14187 8.39126 4.16311 8.48847C4.20559 8.65047 4.24807 8.81247 4.29056 8.97447C4.29056 9.00687 4.3118 9.00687 4.3118 9.03927C4.46048 8.35886 4.58792 7.67846 4.73661 7.03045C4.75785 7.03045 4.75785 7.03045 4.77909 7.06285C5.03397 7.32205 5.3101 7.51645 5.60747 7.64605C5.90483 7.77566 5.9898 8.03486 6.03228 8.42366C6.05352 8.74767 6.03228 9.07167 5.9898 9.39568C5.9898 9.42808 5.96855 9.46048 5.94731 9.46048C5.69243 9.68728 5.4163 9.84928 5.11893 9.94648C4.84281 10.0437 4.58792 10.1085 4.3118 10.1409C4.29056 10.1409 4.26931 10.1409 4.24807 10.1409C4.09939 10.1085 3.97195 10.1085 3.8445 10.1085Z" fill="#D30B0B"/>
<path d="M3.10112 4.95775C3.07988 4.79575 3.05864 4.60135 3.05864 4.43935C3.05864 4.14774 3.12236 3.85614 3.2498 3.62934C3.37724 3.37013 3.54717 3.14333 3.75957 3.01373C4.07818 2.85173 4.37555 2.91653 4.63043 3.27293C4.69415 3.37013 4.75788 3.46733 4.84284 3.53213C4.94904 3.62934 4.99152 3.79134 5.01276 3.95334C5.05524 4.18014 5.034 4.40694 5.01276 4.63375C5.01276 4.73095 4.99152 4.86055 4.97028 4.92535C4.99152 4.95775 5.034 4.99015 5.05524 5.02255C5.07648 5.08735 5.07648 5.18455 5.07648 5.24936C5.05524 5.41136 5.034 5.57336 4.99152 5.73536C4.97028 5.83256 4.94904 5.92976 4.88532 5.96216C4.86408 5.96216 4.86408 5.99456 4.86408 6.02696C4.80036 6.41577 4.65167 6.73977 4.43927 6.96658C4.1419 7.29058 3.78081 7.22578 3.50469 6.83697C3.356 6.61017 3.2498 6.35097 3.20732 6.02696C3.20732 5.99456 3.18608 5.96216 3.16484 5.96216C3.1436 5.92976 3.12236 5.89736 3.12236 5.86496C3.0374 5.63816 2.99491 5.41136 2.99491 5.18455C2.97367 5.02255 3.01616 4.99015 3.10112 4.95775Z" fill="#D30B0B"/>
<path d="M5.22511 1.06921L5.39503 0L4.52417 1.29602L4.92774 3.04564L5.09766 1.97642C6.32961 2.65683 7.17923 4.47125 7.17923 6.48008H7.79521C7.79521 4.05005 6.75442 1.84682 5.22511 1.06921Z" fill="#D30B0B"/>
<path d="M2.5701 12.3445L2.40018 13.4137L3.27104 12.1177L2.86747 10.368L2.69754 11.4372C1.46559 10.7568 0.615974 8.94242 0.615974 6.93359H0C0 9.36362 1.04078 11.5668 2.5701 12.3445Z" fill="#D30B0B"/>
</svg>
