<svg width="47" height="46" viewBox="0 0 47 46" fill="none" xmlns="http://www.w3.org/2000/svg">
<path d="M27.7954 34.5038C31.4816 33.1622 34.1787 30.2498 35.3716 26.789L17.0327 33.4639C20.171 35.3481 24.0631 35.8623 27.7954 34.5038Z" fill="#F6830F"/>
<path d="M37.952 25.8501C36.7931 31.1249 32.8648 35.529 27.306 37.0304C22.6855 38.2425 17.9554 37.1463 14.4523 34.4033L13.2542 34.8394C12.8395 34.9903 12.4081 35.0952 12.0059 35.1372L12.3037 36.3855L13.9334 36.4186L14.5497 37.9684L16.1876 37.7375L17.0636 39.1407L18.6638 38.6627L19.7534 39.9359L21.2698 39.2274L22.5394 40.2786L23.9258 39.3565L25.3295 40.2024L26.5399 39.0835L28.0776 39.724L29.0659 38.425L30.6747 38.8309L31.4577 37.3979L33.1209 37.5231L33.6525 35.9729L35.2779 35.8509L35.5749 34.2295L37.2086 33.8436L37.2417 32.214L38.7916 31.5977L38.5607 29.9597L39.9638 29.0837L39.4858 27.4835L40.759 26.3939L40.0841 24.9697C39.7783 25.1332 39.4265 25.3135 39.1039 25.4309L37.952 25.8501Z" fill="#F6830F"/>
<path d="M8.67163 22.1055C8.9337 15.8004 13.2303 10.1142 19.6521 8.40306C25.1648 6.91841 30.8 8.781 34.4292 12.7305L34.4752 12.7137C35.2125 12.4454 36 12.3153 36.7751 12.2941L36.6741 10.8698L35.0527 10.5728L34.6668 8.93906L33.0372 8.90603L32.4209 7.35615L30.7829 7.58705L29.9069 6.18387L28.3067 6.66193L27.1711 5.40546L25.6547 6.11391L24.4311 5.04598L23.0447 5.96805L21.641 5.12222L20.4306 6.24113L18.9097 5.64669L17.9214 6.94568L16.3126 6.53979L15.5296 7.97277L13.8664 7.84758L13.3348 9.3978L11.7094 9.51977L11.4124 11.1411L9.73261 11.5438L9.69957 13.1735L8.1497 13.7898L8.39736 15.4738L6.99419 16.3498L7.47225 17.95L6.19901 19.0396L6.90745 20.5559L5.8563 21.8256L6.77837 23.212L6.71975 23.3377C7.24745 22.7804 7.8883 22.3906 8.67163 22.1055Z" fill="#F6830F"/>
<path d="M19.1752 10.8224C14.5214 12.5162 11.4853 16.6478 10.9588 21.2227L32.1546 13.5081C28.8106 10.3419 23.8291 9.12849 19.1752 10.8224ZM15.5785 17.141L15.5703 17.9788L15.0548 17.2794L14.2547 17.5184L14.7321 16.8228L14.2166 16.1233L15.0462 16.3954L15.5236 15.6998L15.5951 16.6131L16.4246 16.8852L15.5785 17.141ZM20.7763 13.214L19.9635 12.988L19.4861 13.6836L19.4775 12.7996L18.6647 12.5737L19.4941 12.2718L19.4854 11.3878L20.0009 12.0873L20.8303 11.7854L20.3529 12.481L20.7763 13.214ZM26.4528 13.183L26.5076 14.0502L25.9627 13.4136L25.1962 13.7448L25.6568 13.0031L25.112 12.3665L25.9248 12.5925L26.3854 11.8508L26.4401 12.718L27.2529 12.944L26.4528 13.183Z" fill="#F6830F"/>
<path d="M24.9406 27.6674L7.79962 33.9062L8.25244 35.1504L25.3934 28.9115L42.5344 22.6727L42.0816 21.4286L24.9406 27.6674Z" fill="#F6830F"/>
<path d="M21.7877 19.0044L4.64673 25.2432L5.09954 26.4873L22.2405 20.2485L39.3815 14.0097L38.9287 12.7656L21.7877 19.0044Z" fill="#F6830F"/>
<path d="M39.3814 14.0107L22.2405 20.2495L5.09949 26.4883L8.45182 29.3905L7.79961 33.9068L24.9406 27.668L42.0816 21.4292L38.725 18.372L39.3814 14.0107Z" fill="#F6830F"/>
<path d="M14.3154 24.8563L15.8416 29.0494L15.1965 29.2842L14.1567 26.4274L14.5975 29.5022L14.1367 29.67L12.4979 27.0312L13.5377 29.888L12.8926 30.1228L11.3665 25.9297L12.288 25.5943L13.8137 28.0655L13.3478 25.2085L14.3154 24.8563Z" fill="#FFF8F2"/>
<path d="M17.4414 27.4233L16.7502 27.6749L16.9474 28.6468L16.3023 28.8816L15.4674 24.4369L16.2968 24.135L18.5141 28.0766L17.869 28.3113L17.4414 27.4233ZM17.1312 26.8579L16.2175 25.2075L16.5783 27.0591L17.1312 26.8579Z" fill="#FFF8F2"/>
<path d="M17.5409 23.6815L18.2321 23.4299L20.0845 25.9388L19.0615 23.128L19.7065 22.8932L21.2327 27.0863L20.5415 27.3379L18.6933 24.984L19.6661 27.6565L19.021 27.8913L17.4948 23.6982L17.5409 23.6815Z" fill="#FFF8F2"/>
<path d="M20.3517 22.6592L21.3654 22.2902C21.9644 22.0722 22.5301 22.336 22.7481 22.935L23.5531 25.1467C23.7711 25.7457 23.5534 26.2946 22.9083 26.5294L21.8946 26.8983L20.3517 22.6592ZM22.6275 25.9011C22.8578 25.8172 22.9458 25.6287 22.8619 25.3983L22.0569 23.1865C21.973 22.9561 21.7845 22.8682 21.5541 22.9521L21.2316 23.0695L22.3217 26.0645L22.6442 25.9471L22.6275 25.9011Z" fill="#FFF8F2"/>
<path d="M25.413 24.521L24.7218 24.7726L24.919 25.7444L24.2739 25.9792L23.4389 21.5346L24.2683 21.2327L26.4856 25.1742L25.8405 25.409L25.413 24.521ZM25.1028 23.9555L24.189 22.3052L24.5959 24.14L25.1028 23.9555Z" fill="#FFF8F2"/>
<path d="M25.0517 20.9482L27.0791 20.2103L27.2971 20.8093L26.606 21.0609L27.9141 24.655L27.269 24.8898L25.9609 21.2957L25.2697 21.5473L25.0517 20.9482Z" fill="#FFF8F2"/>
<path d="M28.6846 23.3313L27.8461 21.0274C27.6281 20.4284 27.8918 19.8627 28.4908 19.6447C29.0898 19.4267 29.6555 19.6905 29.8735 20.2895L30.712 22.5934C30.9301 23.1924 30.6663 23.758 30.0673 23.976C29.4683 24.1941 28.9026 23.9303 28.6846 23.3313ZM30.113 22.8114L29.2745 20.5075C29.1739 20.231 28.9853 20.1431 28.7549 20.227C28.5245 20.3108 28.4366 20.4994 28.5372 20.7758L29.3758 23.0797C29.4764 23.3562 29.665 23.4441 29.8954 23.3602C30.1257 23.2764 30.1969 23.0418 30.113 22.8114Z" fill="#FFF8F2"/>
<path d="M33.1208 22.7601L32.0227 21.1769L31.7001 21.2942L32.3374 23.0452L31.6924 23.28L30.1662 19.0869L31.1799 18.718C31.7789 18.4999 32.3446 18.7637 32.5626 19.3627L32.7303 19.8235C32.8645 20.1921 32.7975 20.5817 32.6342 20.8499L33.8748 22.5378L33.1375 22.8062L33.1208 22.7601ZM31.4989 20.7413L31.8214 20.6239C32.0518 20.5401 32.1398 20.3515 32.0559 20.1211L31.8714 19.6143C31.7876 19.3839 31.599 19.296 31.3686 19.3798L31.0461 19.4972L31.4989 20.7413Z" fill="#FFF8F2"/>
<path d="M34.8201 17.3927L34.8335 20.1535L35.4708 21.9045L34.8257 22.1393L34.1884 20.3883L32.4702 18.248L33.1613 17.9965L34.2552 19.4247L34.175 17.6275L34.8201 17.3927Z" fill="#FFF8F2"/>
</svg>
