<svg width="22" height="29" viewBox="0 0 22 29" fill="none" xmlns="http://www.w3.org/2000/svg">
<path fill-rule="evenodd" clip-rule="evenodd" d="M3.66667 0.902344H13.3705C13.8567 0.902443 14.3229 1.08645 14.6667 1.4139L21.4628 7.886C21.8067 8.21335 21.9999 8.65736 22 9.12036V25.3451C22 26.2712 21.6137 27.1594 20.9261 27.8142C20.2384 28.4691 19.3058 28.837 18.3333 28.837H3.66667C2.69421 28.837 1.76157 28.4691 1.07394 27.8142C0.386308 27.1594 0 26.2712 0 25.3451V4.39417C0 3.46808 0.386308 2.57992 1.07394 1.92508C1.76157 1.27023 2.69421 0.902344 3.66667 0.902344V0.902344ZM13.75 3.52122V7.01304C13.75 7.47609 13.9432 7.92017 14.287 8.24759C14.6308 8.57501 15.0971 8.75896 15.5833 8.75896H19.25L13.75 3.52122ZM3.96917 24.7655C4.13417 25.0798 4.39083 25.3644 4.77217 25.497C5.15167 25.628 5.5275 25.5669 5.8355 25.4447C6.4185 25.2177 6.99967 24.6834 7.53317 24.0724C8.14367 23.3723 8.78533 22.4539 9.405 21.436C10.6013 21.0984 11.8264 20.8612 13.0662 20.7272C13.6162 21.3959 14.1845 21.972 14.7345 22.3858C15.2478 22.7699 15.84 23.0894 16.4468 23.1139C16.7774 23.1295 17.1046 23.0451 17.3818 22.8729C17.666 22.6966 17.8768 22.4417 18.0308 22.1466C18.1958 21.8306 18.2967 21.5006 18.2838 21.1637C18.2722 20.8315 18.143 20.5127 17.9172 20.2593C17.5028 19.7879 16.8245 19.5609 16.1572 19.4474C15.3476 19.328 14.5263 19.2987 13.7097 19.3602C13.0201 18.4318 12.4188 17.4467 11.913 16.4165C12.3713 15.2642 12.7142 14.1748 12.8663 13.2844C12.9323 12.9038 12.9672 12.5406 12.9543 12.2124C12.9521 11.8866 12.8725 11.5655 12.7215 11.2731C12.6345 11.1117 12.5109 10.9708 12.3597 10.8606C12.2084 10.7504 12.0333 10.6736 11.847 10.6358C11.4767 10.5607 11.0953 10.6358 10.7452 10.7703C10.054 11.0321 9.68917 11.5908 9.55167 12.2071C9.41783 12.8008 9.47833 13.4921 9.636 14.1905C9.79733 14.8993 10.0723 15.671 10.4243 16.4515C9.86129 17.785 9.21102 19.0836 8.47733 20.3396C7.53251 20.6227 6.62178 21.0002 5.76033 21.4657C5.082 21.8498 4.47883 22.3038 4.11583 22.8398C3.73083 23.4089 3.61167 24.0863 3.96917 24.7655Z" fill="#0E918C"/>
</svg>
