<svg width="79" height="79" viewBox="0 0 79 79" fill="none" xmlns="http://www.w3.org/2000/svg">
<g filter="url(#filter0_d_795_53094)">
<circle cx="38.5" cy="38.5" r="32.5" fill="white"/>
<circle cx="38.5" cy="38.5" r="33.5" stroke="url(#paint0_linear_795_53094)" stroke-width="2"/>
</g>
<path d="M27.9062 39.855L30.9359 39.4561L33.978 43.7948L30.2377 44.4556L27.9062 39.855Z" fill="#F6862F"/>
<path d="M27.9062 39.4561L27.3576 38.708L26.1108 39.1942L26.4849 40.441C26.4849 40.441 27.2454 40.7652 27.5322 40.5782C27.8189 40.3911 27.9062 39.4561 27.9062 39.4561Z" fill="#F8A37D"/>
<path d="M28.3179 34.6434C28.5423 34.793 28.6046 35.0673 28.3802 35.1546C28.2431 35.2025 28.0972 35.2196 27.9528 35.2045C27.8084 35.1894 27.6691 35.1425 27.5449 35.0673C27.1833 34.8803 26.51 34.3816 26.5849 34.2819C26.6597 34.1821 27.0462 34.4813 27.3828 34.5562C27.7194 34.631 28.0685 34.4689 28.3179 34.6434Z" fill="#FBBC95"/>
<path d="M27.8067 34.6191C27.5574 34.5318 27.3704 34.4071 27.3953 34.3573C27.4202 34.3074 27.6322 34.3573 27.8815 34.4196C28.1309 34.4819 28.3179 34.6316 28.293 34.6939C28.268 34.7562 28.0561 34.7562 27.8067 34.6191Z" fill="#FBBC95"/>
<path d="M23.2185 37.7482C23.2185 38.0225 23.0564 38.2469 22.8445 38.1098C22.7206 38.0331 22.6159 37.9293 22.5381 37.8062C22.4604 37.6831 22.4116 37.5439 22.3956 37.3991C22.3208 37.0001 22.2959 36.1523 22.3956 36.1523C22.4954 36.1523 22.5203 36.6261 22.6574 36.9378C22.7946 37.2495 23.206 37.449 23.2185 37.7482Z" fill="#F8A37D"/>
<path d="M22.9193 37.3374C22.8321 37.0881 22.8196 36.8636 22.9193 36.8512C23.0191 36.8387 23.0814 37.0257 23.1687 37.2751C23.256 37.5244 23.2684 37.7364 23.1687 37.7613C23.0689 37.7863 22.9941 37.5868 22.9193 37.3374Z" fill="#F8A37D"/>
<path d="M28.1557 54.5175L27.1458 54.2432C26.8084 54.3816 26.4796 54.5398 26.1608 54.7169C26.0638 54.7671 25.9816 54.8418 25.9225 54.9337C25.8634 55.0256 25.8295 55.1315 25.8242 55.2406C26.2147 55.4172 26.6441 55.4902 27.071 55.4525C27.3693 55.3553 27.6733 55.2762 27.9811 55.2156L28.1557 54.5175Z" fill="#010101"/>
<path d="M37.6807 49.7178L37.2568 50.6778C37.2568 50.6778 37.4189 51.3386 37.5685 51.7251C37.6048 51.8278 37.6678 51.9189 37.7511 51.9891C37.8344 52.0592 37.9349 52.1058 38.0423 52.124C38.284 51.7514 38.4217 51.321 38.4413 50.8773C38.3904 50.551 38.3571 50.2222 38.3415 49.8923L37.6807 49.7178Z" fill="#010101"/>
<path d="M31.7215 44.8545L30.188 46.1013L30.4498 46.5626C30.4498 46.5626 32.7937 48.5325 33.6789 49.1184C34.5642 49.7044 37.1824 51.026 37.1824 51.026L37.8182 49.7169L34.7387 47.6099L31.7215 44.8545Z" fill="#B03D25"/>
<path d="M28.4921 46.5501L30.649 45.9268L30.9358 46.4005L29.0407 50.5398L28.2926 54.6666L26.8962 54.33L27.3575 50.2156L28.4921 46.5501Z" fill="#B03D25"/>
<path d="M26.061 40.99L29.0408 39.5312L32.1453 45.2789C31.6404 45.6362 31.1159 45.965 30.5743 46.2638C29.9116 46.4972 29.2375 46.6969 28.5546 46.8623L26.061 40.99Z" fill="#E84F24"/>
<path d="M27.8938 39.3442C28.5047 39.7058 29.2777 39.2569 29.7639 39.3442C30.2502 39.4315 33.3048 38.0974 33.9281 38.7458C34.5515 39.3941 34.0528 43.9822 34.0528 43.9822L32.9681 44.7303C32.5654 43.6875 32.02 42.7056 31.3473 41.8128C30.0738 41.1266 28.7379 40.563 27.3577 40.1297L27.8938 39.3442Z" fill="#F89D56"/>
<path d="M26.4101 40.1289C26.4101 40.8396 24.9638 41.3757 25.3129 41.6375C26.2836 42.5743 27.0925 43.6655 27.7067 44.8666C27.8936 45.5484 28.1311 46.2152 28.4174 46.8615L30.6491 46.4002L27.3576 40.1663L26.4101 40.1289Z" fill="#F6862F"/>
<path d="M25.949 40.8781C24.8928 40.7697 23.8298 40.7447 22.7697 40.8033C22.5079 40.8033 22.5578 41.7883 22.7697 41.9005C23.9904 42.2447 25.2442 42.4578 26.51 42.5363L25.949 40.8781Z" fill="#F6862F"/>
<path d="M23.6672 41.351C23.6672 40.4533 23.4553 37.8975 23.4553 37.8975L22.4703 37.9598C22.3853 39.2083 22.4354 40.4624 22.6199 41.7001C22.7072 41.9869 23.6672 41.6378 23.6672 41.351Z" fill="#F6862F"/>
<path d="M28.8042 39.9304C29.1959 38.9403 29.6627 37.9817 30.2006 37.0628C30.3627 36.8509 31.1606 37.3122 31.1606 37.5865C30.9076 38.8113 30.5274 40.0064 30.026 41.1522L28.8042 39.9304Z" fill="#F89D56"/>
<path d="M30.1009 38.0099C29.465 37.3616 27.8442 35.3792 27.8442 35.3792L28.5798 34.7559C29.5097 35.5937 30.3458 36.5301 31.0734 37.5486C31.2355 37.7855 30.3004 38.1969 30.1009 38.0099Z" fill="#F89D56"/>
<path d="M25.4873 35.7913C25.8897 35.6666 26.3243 35.6972 26.7051 35.8773C27.086 36.0573 27.3855 36.3737 27.5445 36.7638C27.8188 37.5368 27.5445 39.1576 26.784 39.407C26.0234 39.6563 24.7517 38.7212 24.5522 38.0979C24.3528 37.4745 24.2406 36.1778 25.4873 35.7913Z" fill="#FBBC95"/>
<path d="M27.5824 38.1721C27.711 37.6226 27.711 37.0509 27.5824 36.5014C27.3579 36.1333 27.0209 35.8472 26.6212 35.6855C26.2215 35.5239 25.7804 35.4952 25.3631 35.6037C25.1303 35.6444 24.9092 35.7354 24.7153 35.8705C24.5214 36.0056 24.3594 36.1814 24.2406 36.3857C24.1218 36.5901 24.0492 36.8179 24.0277 37.0532C24.0062 37.2886 24.0365 37.5258 24.1164 37.7482C24.4081 38.3361 24.892 38.8068 25.4878 39.0822C25.4878 39.0822 23.6426 37.1871 25.6125 36.5887C27.5824 35.9902 27.5824 38.1721 27.5824 38.1721Z" fill="#371310"/>
<path opacity="0.1" d="M24.8608 35.3839L21.9019 36.9092L24.4325 41.8185L27.3914 40.2933L24.8608 35.3839Z" fill="#F04A23"/>
<path d="M55.8088 50.3027C56.146 50.5483 56.4408 50.8473 56.6815 51.1879C56.7747 51.4543 56.8374 51.7303 56.8685 52.0108L55.6218 52.7963L55.4721 52.6841C55.0005 53.0872 54.4959 53.4501 53.9636 53.7688C53.2093 54.0023 52.4382 54.1774 51.657 54.2924C51.657 54.2924 51.5199 53.9807 51.5698 53.8934C51.7692 53.4197 52.9412 53.0706 53.2654 52.7589C53.5347 52.364 53.7213 51.9187 53.8139 51.4498L55.8088 50.3027Z" fill="#010101"/>
<path d="M44.3638 34.8186C44.3638 34.8186 47.6303 32.3251 48.1914 32.7116C48.592 33.0022 48.9261 33.3749 49.1712 33.8049C49.4163 34.2349 49.5668 34.7123 49.6127 35.2051C49.7374 36.0529 50.0366 40.666 50.9841 41.9876C52.2309 43.6582 56.1333 50.3783 56.1333 50.3783L53.7021 51.6251L47.755 43.0099L44.3638 34.8186Z" fill="#1D5484"/>
<path d="M28.8665 25.356C28.8362 25.2228 28.7661 25.102 28.6655 25.0095C28.5649 24.9171 28.4386 24.8575 28.3033 24.8385C28.168 24.8196 28.0302 24.8423 27.9081 24.9035C27.786 24.9648 27.6854 25.0617 27.6197 25.1815C27.5361 25.2846 27.4737 25.4032 27.4359 25.5304C27.3982 25.6577 27.3859 25.7911 27.3998 25.9231C27.4137 26.0552 27.4535 26.1831 27.5169 26.2997C27.5803 26.4164 27.6661 26.5193 27.7693 26.6028C28.1932 26.9519 28.9163 27.1015 29.1657 26.6028C29.415 26.1041 29.0535 26.0293 28.8665 25.356Z" fill="#F8A37D"/>
<path d="M33.629 38.0985C33.5484 38.1922 33.4951 38.3063 33.475 38.4283C33.4549 38.5503 33.4688 38.6755 33.5152 38.7901C33.5616 38.9047 33.6386 39.0044 33.7378 39.0781C33.8371 39.1518 33.9547 39.1968 34.0779 39.2081C34.2089 39.2295 34.3428 39.2248 34.472 39.1944C34.6012 39.1639 34.7231 39.1083 34.8308 39.0308C34.9385 38.9532 35.0298 38.8551 35.0996 38.7422C35.1693 38.6293 35.2162 38.5038 35.2374 38.3727C35.3246 37.8242 35.0878 37.126 34.5267 37.126C34.215 37.1758 34.0779 37.6122 33.629 38.0985Z" fill="#FBBC95"/>
<path d="M39.7505 26.3901C39.9201 26.5465 40.0495 26.7415 40.1276 26.9585C40.2058 27.1756 40.2304 27.4083 40.1994 27.6369C39.8378 28.8837 34.3645 31.3772 33.766 31.3772C33.1676 31.3772 32.5193 30.6541 33.1426 30.1304C34.9006 28.7714 38.4913 25.6545 39.7505 26.3901Z" fill="#F8A37D"/>
<path d="M34.2148 30.4794C34.2148 30.4794 34.2148 31.2524 33.6413 31.3147C32.7062 31.4394 28.6542 27.3874 28.4048 26.8637C28.1555 26.3401 28.6043 25.8788 29.2277 26.2777C30.8859 27.3624 34.0527 29.3573 34.2148 30.4794Z" fill="#F8A37D"/>
<path d="M45.436 53.1836C45.6206 53.555 45.7388 53.9559 45.7851 54.368C45.7451 54.6466 45.6697 54.919 45.5607 55.1784L44.1893 55.2906L44.1269 55.1286C44.1269 55.1286 42.7679 55.3405 42.2817 55.3654C41.7955 55.3904 40.0126 55.4901 39.7882 55.2158C39.5637 54.9415 39.7882 54.8792 39.9004 54.8169C40.612 54.4968 41.3622 54.2705 42.1321 54.1436C42.5596 53.9237 42.9374 53.6181 43.2417 53.2459L45.436 53.1836Z" fill="#371310"/>
<path d="M44.5008 33.7466C44.5008 33.7466 48.3907 32.3377 48.7648 32.9362C49.0396 33.3548 49.2275 33.8243 49.3174 34.3168C49.4074 34.8094 49.3975 35.315 49.2884 35.8037C49.1388 36.664 46.3959 41.7134 46.558 43.3467C46.7201 44.98 46.0967 53.458 46.0967 53.458H42.7803L43.1294 42.7233L44.5008 33.7466Z" fill="#296FAF"/>
<path d="M36.7837 27.4252C37.13 27.1834 37.4442 26.8985 37.7188 26.5774C37.9782 26.2014 38.1604 25.7776 38.2549 25.3307C37.5123 25.032 36.8564 24.5519 36.3473 23.9343C36.073 23.5852 34.8636 25.7047 35.0008 25.8418C35.1379 25.979 36.5094 26.8393 36.7837 27.4252Z" fill="#F8A37D"/>
<path d="M36.7085 27.4242C37.3388 26.8632 37.8006 26.138 38.0425 25.3297C38.0425 25.0679 39.5885 25.0055 40.7106 25.4544C42.4949 26.5629 44.1654 27.845 45.6977 29.2819C46.2962 29.8555 48.7274 32.935 48.7274 32.935L44.2764 35.4285C44.2764 35.4285 42.4187 33.2093 41.2218 32.0747C40.0249 30.9401 38.5288 30.6908 37.8057 29.5812C37.3802 28.8942 37.0132 28.1727 36.7085 27.4242Z" fill="#24B2C4"/>
<path d="M34.5891 21.9143C34.2991 21.8899 34.0073 21.9289 33.7339 22.0285C33.4605 22.128 33.212 22.2859 33.0056 22.4911C32.7992 22.6962 32.64 22.9438 32.5388 23.2167C32.4376 23.4895 32.397 23.7811 32.4197 24.0712C32.4555 24.3029 32.5423 24.5237 32.6738 24.7177C32.8053 24.9118 32.9783 25.0742 33.1802 25.1933C33.654 25.8291 33.9283 26.278 33.9283 26.278L34.215 26.091C34.215 26.091 34.6389 26.465 34.9631 26.7767C35.2873 27.0884 35.5865 26.4899 36.0478 26.1284C36.4284 25.768 36.6858 25.2969 36.7834 24.7819C36.7608 24.2135 36.5747 23.6637 36.2473 23.1985C36.0731 22.8826 35.8362 22.6057 35.551 22.3849C35.2658 22.164 34.9385 22.0039 34.5891 21.9143Z" fill="#FBBC95"/>
<path d="M39.0524 25.6673C39.279 25.6332 39.5104 25.6539 39.7273 25.7277C39.9443 25.8014 40.1404 25.9261 40.2992 26.0912C41.0473 27.1261 39.6384 32.9609 39.2644 33.4222C38.8903 33.8836 37.8929 33.9833 37.9054 33.1729C37.9553 31.016 37.6934 26.2034 39.0524 25.6673Z" fill="#FBBC95"/>
<path d="M38.4665 32.748C38.4665 32.748 39.2395 32.8353 39.2894 33.334C39.3642 34.2816 35.1875 38.184 34.6514 38.4333C34.1153 38.6827 33.6789 38.2463 34.1028 37.6479C35.2374 36.0021 37.3319 32.9101 38.4665 32.748Z" fill="#FBBC95"/>
<path d="M39.6137 25.4684C40.5113 25.5931 41.1347 26.4409 40.636 28.0742C40.4241 28.7599 37.8806 28.1365 37.8931 27.75C37.9056 27.3635 38.3669 25.2939 39.6137 25.4684Z" fill="#57CAEF"/>
<path d="M32.4943 24.2591C32.3592 24.1522 32.245 24.0211 32.1576 23.8726C32.1386 23.4632 32.2154 23.0549 32.3821 22.6804C32.5488 22.306 32.8007 21.9756 33.1177 21.7157C33.9904 20.8305 35.6112 21.7157 36.0725 22.1895C36.5338 22.6633 36.6959 23.7978 37.0824 24.3963C37.3068 24.7204 36.4341 24.5833 36.4341 24.5833L35.5738 24.0472C35.5738 24.0472 34.913 23.1121 34.6013 23.6981C34.2896 24.2841 34.9878 24.521 34.9878 24.521L34.8133 24.6581C34.5201 24.4089 34.1925 24.2032 33.8408 24.0472C33.3856 24.0691 32.9342 24.1402 32.4943 24.2591Z" fill="#371310"/>
<path d="M45.1741 35.2178L44.8125 35.3923C44.9653 35.8737 45.295 36.2791 45.7351 36.5269C45.9613 36.6358 46.2128 36.6817 46.4629 36.6598C46.713 36.6378 46.9526 36.5489 47.1564 36.4022L47.0318 36.0406C46.8759 36.1551 46.6938 36.2288 46.5022 36.2549C46.3106 36.281 46.1154 36.2588 45.9346 36.1903C45.5645 35.9771 45.2918 35.6283 45.1741 35.2178Z" fill="#12599C"/>
<path d="M30.0259 19.0216C30.412 19.0191 30.7956 19.0823 31.1605 19.2086C31.8961 19.7821 30.6618 20.5551 29.789 21.8393C29.0695 22.9901 28.5509 24.2549 28.2555 25.5796L27.9812 25.592C28.1275 24.2397 28.552 22.9323 29.228 21.752C30.1007 20.2434 31.2851 19.4953 30.0259 19.0216Z" fill="#371310"/>
<path d="M31.16 19.2092C30.8117 19.0268 30.4139 18.9612 30.0255 19.0222C28.9034 19.0222 28.1678 19.5708 27.5319 21.7027C27.3867 23.0371 27.54 24.3872 27.9808 25.655H28.1553C28.004 24.4101 28.0376 23.1497 28.2551 21.9147C28.7164 19.9947 29.4395 19.2092 31.16 19.2092Z" fill="#8E3C27"/>
<path d="M28.7414 28.9459L29.2775 28.7588L28.4921 26.7889L27.8562 26.5146L28.7414 28.9459Z" fill="#010101"/>
<path d="M29.2963 28.6518L28.6794 28.8887L28.7331 29.0283L29.3499 28.7914L29.2963 28.6518Z" fill="#F6862F"/>
<path d="M28.8287 28.9719L28.9035 29.1589C28.9078 29.1923 28.9195 29.2243 28.9378 29.2526C28.9561 29.2809 28.9805 29.3046 29.0093 29.3222C29.038 29.3397 29.0704 29.3506 29.1039 29.3539C29.1374 29.3572 29.1712 29.353 29.2029 29.3415C29.2345 29.33 29.2632 29.3115 29.2867 29.2874C29.3102 29.2633 29.328 29.2343 29.3388 29.2023C29.3496 29.1704 29.353 29.1365 29.3489 29.1031C29.3448 29.0697 29.3332 29.0376 29.315 29.0093L29.2277 28.8223L29.315 29.0467C29.3443 29.1098 29.3516 29.181 29.3358 29.2487C29.32 29.3165 29.2819 29.3771 29.2277 29.4207C29.1876 29.4341 29.1452 29.4392 29.1031 29.4357C29.061 29.4322 29.0201 29.4202 28.9827 29.4003C28.9454 29.3805 28.9125 29.3533 28.8861 29.3204C28.8596 29.2874 28.8401 29.2495 28.8287 29.2088L28.7415 28.9968L28.8287 28.9719Z" fill="#F6862F"/>
<path d="M29.1903 29.3819L29.2526 29.357L29.0157 28.7461L28.9534 28.771L29.1903 29.3819Z" fill="#F6862F"/>
<path d="M29.0863 27.9771L28.4006 28.1641L28.44 28.3084L29.1256 28.1215L29.0863 27.9771Z" fill="#F6862F"/>
<path d="M23.5802 29.2831C23.7003 29.2863 23.8185 29.3135 23.9279 29.3632C24.0373 29.4129 24.1356 29.484 24.217 29.5724C24.2983 29.6607 24.3612 29.7645 24.4017 29.8776C24.4422 29.9907 24.4597 30.1108 24.453 30.2307C24.453 30.4655 24.3597 30.6906 24.1937 30.8566C24.0277 31.0226 23.8025 31.1159 23.5677 31.1159C23.333 31.1159 23.1078 31.0226 22.9418 30.8566C22.7758 30.6906 22.6825 30.4655 22.6825 30.2307C22.6757 30.1087 22.6939 29.9866 22.736 29.8718C22.7781 29.7571 22.8431 29.6522 22.9272 29.5634C23.0112 29.4747 23.1125 29.4041 23.2248 29.3559C23.3371 29.3077 23.458 29.283 23.5802 29.2831ZM22.9942 22.4384V21.042H24.241V22.4259L23.9916 28.0364H23.1438L22.9942 22.4384Z" fill="#DB3726"/>
<path d="M36.7086 31.4277C35.0121 31.4277 33.3537 31.9308 31.9431 32.8734C30.5325 33.8159 29.433 35.1556 28.7838 36.7229C28.1346 38.2903 27.9647 40.015 28.2957 41.679C28.6267 43.3429 29.4436 44.8713 30.6432 46.0709C31.8429 47.2705 33.3713 48.0875 35.0352 48.4185C36.6991 48.7495 38.4238 48.5796 39.9912 47.9304C41.5586 47.2811 42.8983 46.1817 43.8408 44.7711C44.7834 43.3605 45.2864 41.702 45.2864 40.0055C45.2864 37.7305 44.3827 35.5488 42.7741 33.9401C41.1654 32.3315 38.9836 31.4277 36.7086 31.4277ZM29.4524 40.0055C29.4529 38.5992 29.862 37.2234 30.6299 36.0453C31.3979 34.8672 32.4916 33.9377 33.7781 33.3697C35.0646 32.8018 36.4884 32.6199 37.8763 32.8462C39.2643 33.0725 40.5565 33.6972 41.596 34.6444L31.36 44.8929C30.1337 43.5606 29.4528 41.8162 29.4524 40.0055ZM36.7086 47.2243C35.169 47.2388 33.6654 46.758 32.4198 45.8529L42.556 35.7166C43.3376 36.7977 43.8061 38.0732 43.91 39.4032C44.0139 40.7331 43.7491 42.066 43.1448 43.2552C42.5405 44.4445 41.62 45.4442 40.4846 46.1444C39.3491 46.8446 38.0426 47.2183 36.7086 47.2243Z" fill="#DB3726"/>
<defs>
<filter id="filter0_d_795_53094" x="0" y="0" width="79" height="79" filterUnits="userSpaceOnUse" color-interpolation-filters="sRGB">
<feFlood flood-opacity="0" result="BackgroundImageFix"/>
<feColorMatrix in="SourceAlpha" type="matrix" values="0 0 0 0 0 0 0 0 0 0 0 0 0 0 0 0 0 0 127 0" result="hardAlpha"/>
<feMorphology radius="1" operator="dilate" in="SourceAlpha" result="effect1_dropShadow_795_53094"/>
<feOffset dx="1" dy="1"/>
<feGaussianBlur stdDeviation="2"/>
<feComposite in2="hardAlpha" operator="out"/>
<feColorMatrix type="matrix" values="0 0 0 0 0 0 0 0 0 0 0 0 0 0 0 0 0 0 0.25 0"/>
<feBlend mode="normal" in2="BackgroundImageFix" result="effect1_dropShadow_795_53094"/>
<feBlend mode="normal" in="SourceGraphic" in2="effect1_dropShadow_795_53094" result="shape"/>
</filter>
<linearGradient id="paint0_linear_795_53094" x1="6" y1="6" x2="83.4075" y2="28.7116" gradientUnits="userSpaceOnUse">
<stop stop-color="#F6460F"/>
<stop offset="1" stop-color="#FE2B5E"/>
</linearGradient>
</defs>
</svg>
