<svg width="58" height="65" viewBox="0 0 58 65" fill="none" xmlns="http://www.w3.org/2000/svg">
<path d="M18.1982 61.0162C18.1982 62.6836 14.1238 64.0344 9.0981 64.0344C4.07437 64.0344 0 62.6836 0 61.0162C0 59.3489 4.07437 57.998 9.10008 57.998C14.1258 57.998 18.1982 59.3489 18.1982 61.0162Z" fill="#9EABD3"/>
<path d="M57.9946 50.3473C57.9946 52.0146 53.9202 53.3655 48.8965 53.3655C43.8708 53.3655 39.7964 52.0146 39.7964 50.3473C39.7964 48.68 43.8708 47.3291 48.8965 47.3291C53.9222 47.3291 57.9946 48.68 57.9946 50.3473Z" fill="#9EABD3"/>
<path d="M48.3921 17.7853L46.5804 23.0721C46.5804 23.0721 46.8514 23.9878 45.9099 24.8165L42.1639 29.0333L41.3965 28.4874L44.5749 23.1967L46.0385 17.1781C46.0385 17.1781 46.2462 15.3426 47.6168 15.76C47.6188 15.76 48.9618 16.0151 48.3921 17.7853Z" fill="#F4B78E"/>
<path d="M40.9832 29.7739C40.8567 29.7264 40.6688 30.0567 40.293 29.851C40.4967 29.4535 40.6391 29.2339 40.7182 29.1528C40.8389 29.0322 40.918 29.0599 41.0881 29.0797C41.2245 29.0955 41.361 29.1548 41.5014 29.1647C41.6419 29.1726 41.9267 28.8878 42.0631 28.8008L42.2214 28.8977C42.2214 28.8977 41.9504 29.586 41.6517 30.0587L40.9832 29.7739Z" fill="#F8B78F"/>
<path d="M40.1328 29.2561C40.3108 29.0623 40.6767 28.6588 40.7361 28.6469L41.2879 28.4492L41.5905 28.2197C41.8298 28.5362 42.0632 28.8012 42.0632 28.8012C41.6973 29.1612 41.6182 29.2581 41.6182 29.2581C41.6182 29.2581 41.4204 29.444 40.9299 29.2502L40.6985 29.1968C40.6985 29.1948 40.3702 29.5271 40.1328 29.2561Z" fill="#F8B78F"/>
<path d="M41.7408 29.9307C41.8298 29.7863 41.6755 29.7428 41.6755 29.7428C41.541 29.6558 41.4757 29.7725 41.4757 29.7725L41.5133 29.7112C41.5173 29.6222 41.3867 29.5905 41.3867 29.5905C41.2582 29.5292 41.1968 29.6657 41.1968 29.6657L41.2582 29.549C41.272 29.4659 41.1415 29.4185 41.1415 29.4185C40.9773 29.3492 40.9279 29.4817 40.9279 29.4817L40.8982 29.5312C40.8982 29.5312 40.651 29.2523 40.4077 29.6617L40.293 29.8477C40.293 29.8477 40.3879 30.0177 40.6648 29.9347C40.6648 29.9347 40.7914 30.1522 40.9991 30.0494C40.9991 30.0494 41.1217 30.1958 41.2957 30.1265C41.2957 30.1265 41.448 30.2768 41.5568 30.1859L41.7408 29.9307Z" fill="#F8B78F"/>
<path d="M47.5934 7.0752L47.1483 12.3481C47.1483 12.3481 47.1701 13.4043 45.8667 13.8869C45.8667 13.8869 50.3604 14.7255 50.6907 12.4569C50.6887 12.4569 50.6729 7.26111 47.5934 7.0752Z" fill="#4B140D"/>
<path d="M47.1402 48.4993L47.2431 49.332L44.3238 50.3684C44.3238 50.3684 43.8056 50.5503 44.1339 50.7817C44.1339 50.7817 44.7668 51.2188 45.7023 50.7916L47.698 49.8937L48.1806 49.7157L48.1548 48.4775L47.1402 48.4993Z" fill="#FCC3A2"/>
<path d="M48.1927 49.6794L47.6785 49.9069L45.7125 50.7534C44.7789 51.1806 44.146 50.7435 44.146 50.7435C43.8157 50.5121 44.2944 50.3005 44.2944 50.3005L45.0024 50.0117L46.9644 49.1632L46.9229 48.7914C46.9229 48.7914 46.9012 48.6351 47.093 48.6055L47.6567 48.6411C47.6567 48.6411 47.8762 48.6984 47.8169 48.8705L47.7319 49.0861L48.1749 48.8923L48.1927 49.6794Z" fill="#29323D"/>
<path d="M45.5542 50.2372L47.6943 49.2918L47.7338 49.0861L47.8189 48.8705C47.8782 48.6964 47.6587 48.6411 47.6587 48.6411L47.095 48.6055C46.9031 48.6351 46.9249 48.7914 46.9249 48.7914L46.9664 49.1632L45.0044 50.0117L44.6148 50.1719C44.6128 50.1719 44.8917 50.5497 45.5542 50.2372Z" fill="#040D18"/>
<path d="M44.0292 50.5717C44.0292 50.5717 43.962 50.7517 44.1163 50.9554C44.1163 50.9554 44.8263 51.4617 45.6728 51.0404L48.2084 49.9328L48.1926 49.6816L45.4454 50.7793C45.4434 50.7793 44.5672 51.1057 44.0292 50.5717Z" fill="#EBEBEC"/>
<path d="M45.4964 50.3813C45.5004 50.4367 45.4569 50.4842 45.4015 50.4881C45.3461 50.4921 45.2986 50.4486 45.2947 50.3932C45.2907 50.3378 45.3342 50.2884 45.3896 50.2864C45.445 50.2824 45.4925 50.3259 45.4964 50.3813Z" fill="#939598"/>
<path d="M45.9359 50.1897C45.9398 50.2451 45.8963 50.2926 45.8409 50.2965C45.7856 50.3005 45.7381 50.257 45.7341 50.2016C45.7302 50.1462 45.7737 50.0988 45.8291 50.0948C45.8845 50.0928 45.9319 50.1344 45.9359 50.1897Z" fill="#939598"/>
<path d="M46.3099 50.0139C46.3139 50.0693 46.2703 50.1168 46.215 50.1208C46.1596 50.1247 46.1121 50.0832 46.1082 50.0258C46.1042 49.9704 46.1477 49.923 46.2031 49.919C46.2585 49.917 46.3059 49.9586 46.3099 50.0139Z" fill="#939598"/>
<path d="M46.6854 49.8335C46.6893 49.8888 46.6458 49.9363 46.5905 49.9403C46.5351 49.9442 46.4856 49.9007 46.4836 49.8453C46.4797 49.79 46.5232 49.7405 46.5786 49.7385C46.634 49.7346 46.6834 49.7781 46.6854 49.8335Z" fill="#939598"/>
<path d="M47.1287 49.646C47.1327 49.7014 47.0892 49.7508 47.0338 49.7528C46.9784 49.7567 46.929 49.7132 46.927 49.6578C46.9231 49.6025 46.9666 49.555 47.0219 49.551C47.0773 49.5471 47.1248 49.5886 47.1287 49.646Z" fill="#939598"/>
<path d="M47.4862 49.4681C47.4901 49.5234 47.4486 49.5729 47.3912 49.5749C47.3359 49.5788 47.2884 49.5353 47.2844 49.4799C47.2805 49.4245 47.324 49.3771 47.3794 49.3731C47.4347 49.3711 47.4822 49.4127 47.4862 49.4681Z" fill="#939598"/>
<path d="M45.3447 49.8496C45.3447 49.8496 45.6473 49.8595 45.8333 50.168" stroke="white" stroke-width="0.8439" stroke-miterlimit="10" stroke-linecap="round" stroke-linejoin="round"/>
<path d="M45.7183 49.6797C45.7183 49.6797 46.0209 49.6896 46.2068 49.9981" stroke="white" stroke-width="0.8439" stroke-miterlimit="10" stroke-linecap="round" stroke-linejoin="round"/>
<path d="M46.0806 49.4814C46.0806 49.4814 46.3832 49.4913 46.5691 49.7999" stroke="white" stroke-width="0.8439" stroke-miterlimit="10" stroke-linecap="round" stroke-linejoin="round"/>
<path d="M46.5386 49.3213C46.5386 49.3213 46.8412 49.3312 47.0271 49.6397" stroke="white" stroke-width="0.8439" stroke-miterlimit="10" stroke-linecap="round" stroke-linejoin="round"/>
<path d="M46.8809 49.1494C46.8809 49.1494 47.1835 49.1593 47.3694 49.4678" stroke="white" stroke-width="0.8439" stroke-miterlimit="10" stroke-linecap="round" stroke-linejoin="round"/>
<path d="M44.9053 50.0518C44.9053 50.0518 45.2079 50.0616 45.3938 50.3702" stroke="white" stroke-width="0.8439" stroke-miterlimit="10" stroke-linecap="round" stroke-linejoin="round"/>
<path d="M48.3187 48.8058C47.4801 49.1737 46.7661 48.8375 46.7661 48.8375L46.1747 36.5254L46.0679 26.7686L50.6861 26.2939C50.2154 28.7129 49.81 31.0269 49.4737 33.4696C49.2997 34.7354 48.9259 36.2485 48.8369 37.5993C48.8369 37.5993 49.2186 40.9992 48.6846 45.1092L48.38 48.7801" fill="#1D2B4F"/>
<path d="M51.4244 48.8792L51.5272 49.7118L48.6079 50.7482C48.6079 50.7482 48.0897 50.9302 48.4181 51.1616C48.4181 51.1616 49.051 51.5987 49.9865 51.1715L51.9821 50.2735L52.4647 50.0975L52.439 48.8594L51.4244 48.8792Z" fill="#FCC3A2"/>
<path d="M52.4769 50.0623L51.9627 50.2897L49.9967 51.1362C49.0612 51.5634 48.4282 51.1263 48.4282 51.1263C48.0979 50.8949 48.5766 50.6833 48.5766 50.6833L49.2846 50.3945L51.2467 49.546L51.2051 49.1742C51.2051 49.1742 51.1834 49.0179 51.3752 48.9883L51.9389 49.0239C51.9389 49.0239 52.1585 49.0812 52.0991 49.2533L52.018 49.4669L52.4611 49.2731L52.4769 50.0623Z" fill="#EC524F"/>
<path d="M49.8379 50.6181L51.978 49.6726L52.0175 49.4669L52.1045 49.2514C52.1639 49.0773 51.9443 49.0219 51.9443 49.0219L51.3807 48.9863C51.1888 49.016 51.2106 49.1722 51.2106 49.1722L51.2521 49.5441L49.2901 50.3926L48.9004 50.5528C48.8965 50.5528 49.1754 50.9306 49.8379 50.6181Z" fill="#939598"/>
<path d="M48.3134 50.9526C48.3134 50.9526 48.2462 51.1325 48.4004 51.3363C48.4004 51.3363 49.1105 51.8426 49.957 51.4213L52.4926 50.3117L52.4768 50.0605L49.7296 51.1583C49.7276 51.1602 48.8494 51.4866 48.3134 50.9526Z" fill="#EBEBEC"/>
<path d="M49.7806 50.7622C49.7846 50.8176 49.741 50.865 49.6857 50.869C49.6303 50.8729 49.5808 50.8294 49.5789 50.774C49.5749 50.7187 49.6184 50.6712 49.6738 50.6672C49.7292 50.6633 49.7766 50.7068 49.7806 50.7622Z" fill="#939598"/>
<path d="M50.2181 50.5706C50.2221 50.626 50.1805 50.6734 50.1232 50.6774C50.0678 50.6814 50.0203 50.6378 50.0164 50.5825C50.0124 50.5271 50.0559 50.4796 50.1113 50.4757C50.1687 50.4737 50.2161 50.5152 50.2181 50.5706Z" fill="#939598"/>
<path d="M50.5941 50.3948C50.598 50.4502 50.5545 50.4977 50.4991 50.5016C50.4438 50.5056 50.3963 50.4621 50.3923 50.4067C50.3884 50.3513 50.4319 50.3038 50.4873 50.2999C50.5407 50.2979 50.5901 50.3394 50.5941 50.3948Z" fill="#939598"/>
<path d="M50.9696 50.2143C50.9735 50.2697 50.93 50.3172 50.8746 50.3211C50.8193 50.3251 50.7718 50.2816 50.7678 50.2262C50.7639 50.1708 50.8074 50.1214 50.8628 50.1194C50.9181 50.1154 50.9676 50.1589 50.9696 50.2143Z" fill="#939598"/>
<path d="M51.4125 50.0268C51.4164 50.0822 51.3729 50.1317 51.3175 50.1336C51.2621 50.1376 51.2127 50.0941 51.2087 50.0387C51.2048 49.9833 51.2483 49.9358 51.3037 49.9319C51.361 49.9279 51.4085 49.9714 51.4125 50.0268Z" fill="#939598"/>
<path d="M51.7708 49.8489C51.7748 49.9043 51.7313 49.9518 51.6759 49.9557C51.6205 49.9597 51.5731 49.9162 51.5691 49.8608C51.5652 49.8054 51.6067 49.7579 51.664 49.754C51.7194 49.752 51.7669 49.7935 51.7708 49.8489Z" fill="#939598"/>
<path d="M49.6284 50.2305C49.6284 50.2305 49.931 50.2404 50.1169 50.5489" stroke="white" stroke-width="0.8439" stroke-miterlimit="10" stroke-linecap="round" stroke-linejoin="round"/>
<path d="M50.0024 50.0605C50.0024 50.0605 50.3051 50.0704 50.491 50.379" stroke="white" stroke-width="0.8439" stroke-miterlimit="10" stroke-linecap="round" stroke-linejoin="round"/>
<path d="M50.3643 49.8623C50.3643 49.8623 50.6669 49.8722 50.8528 50.1807" stroke="white" stroke-width="0.8439" stroke-miterlimit="10" stroke-linecap="round" stroke-linejoin="round"/>
<path d="M50.8228 49.7021C50.8228 49.7021 51.1254 49.712 51.3113 50.0206" stroke="white" stroke-width="0.8439" stroke-miterlimit="10" stroke-linecap="round" stroke-linejoin="round"/>
<path d="M51.165 49.5303C51.165 49.5303 51.4677 49.5402 51.6536 49.8487" stroke="white" stroke-width="0.8439" stroke-miterlimit="10" stroke-linecap="round" stroke-linejoin="round"/>
<path d="M49.1895 50.4326C49.1895 50.4326 49.4921 50.4425 49.678 50.7511" stroke="white" stroke-width="0.8439" stroke-miterlimit="10" stroke-linecap="round" stroke-linejoin="round"/>
<path d="M47.1402 48.4993L47.2431 49.332L44.3238 50.3684C44.3238 50.3684 43.8056 50.5503 44.1339 50.7817C44.1339 50.7817 44.7668 51.2188 45.7023 50.7916L47.698 49.8937L48.1806 49.7157L48.1548 48.4775L47.1402 48.4993Z" fill="#FCC3A2"/>
<path d="M48.1927 49.6794L47.6785 49.9069L45.7125 50.7534C44.7789 51.1806 44.146 50.7435 44.146 50.7435C43.8157 50.5121 44.2944 50.3005 44.2944 50.3005L45.0024 50.0117L46.9644 49.1632L46.9229 48.7914C46.9229 48.7914 46.9012 48.6351 47.093 48.6055L47.6567 48.6411C47.6567 48.6411 47.8762 48.6984 47.8169 48.8705L47.7319 49.0861L48.1749 48.8923L48.1927 49.6794Z" fill="#EC524F"/>
<path d="M45.5542 50.2372L47.6943 49.2918L47.7338 49.0861L47.8189 48.8705C47.8782 48.6964 47.6587 48.6411 47.6587 48.6411L47.095 48.6055C46.9031 48.6351 46.9249 48.7914 46.9249 48.7914L46.9664 49.1632L45.0044 50.0117L44.6148 50.1719C44.6128 50.1719 44.8917 50.5497 45.5542 50.2372Z" fill="#939598"/>
<path d="M44.0292 50.5717C44.0292 50.5717 43.962 50.7517 44.1163 50.9554C44.1163 50.9554 44.8263 51.4617 45.6728 51.0404L48.2084 49.9328L48.1926 49.6816L45.4454 50.7793C45.4434 50.7793 44.5672 51.1057 44.0292 50.5717Z" fill="#EBEBEC"/>
<path d="M45.4964 50.3813C45.5004 50.4367 45.4569 50.4842 45.4015 50.4881C45.3461 50.4921 45.2986 50.4486 45.2947 50.3932C45.2907 50.3378 45.3342 50.2884 45.3896 50.2864C45.445 50.2824 45.4925 50.3259 45.4964 50.3813Z" fill="#939598"/>
<path d="M45.9359 50.1897C45.9398 50.2451 45.8963 50.2926 45.8409 50.2965C45.7856 50.3005 45.7381 50.257 45.7341 50.2016C45.7302 50.1462 45.7737 50.0988 45.8291 50.0948C45.8845 50.0928 45.9319 50.1344 45.9359 50.1897Z" fill="#939598"/>
<path d="M46.3099 50.0139C46.3139 50.0693 46.2703 50.1168 46.215 50.1208C46.1596 50.1247 46.1121 50.0832 46.1082 50.0258C46.1042 49.9704 46.1477 49.923 46.2031 49.919C46.2585 49.917 46.3059 49.9586 46.3099 50.0139Z" fill="#939598"/>
<path d="M46.6854 49.8335C46.6893 49.8888 46.6458 49.9363 46.5905 49.9403C46.5351 49.9442 46.4856 49.9007 46.4836 49.8453C46.4797 49.79 46.5232 49.7405 46.5786 49.7385C46.634 49.7346 46.6834 49.7781 46.6854 49.8335Z" fill="#939598"/>
<path d="M47.1287 49.646C47.1327 49.7014 47.0892 49.7508 47.0338 49.7528C46.9784 49.7567 46.929 49.7132 46.927 49.6578C46.9231 49.6025 46.9666 49.555 47.0219 49.551C47.0773 49.5471 47.1248 49.5886 47.1287 49.646Z" fill="#939598"/>
<path d="M47.4862 49.4681C47.4901 49.5234 47.4486 49.5729 47.3912 49.5749C47.3359 49.5788 47.2884 49.5353 47.2844 49.4799C47.2805 49.4245 47.324 49.3771 47.3794 49.3731C47.4347 49.3711 47.4822 49.4127 47.4862 49.4681Z" fill="#939598"/>
<path d="M45.3447 49.8496C45.3447 49.8496 45.6473 49.8595 45.8333 50.168" stroke="white" stroke-width="0.8439" stroke-miterlimit="10" stroke-linecap="round" stroke-linejoin="round"/>
<path d="M45.7183 49.6797C45.7183 49.6797 46.0209 49.6896 46.2068 49.9981" stroke="white" stroke-width="0.8439" stroke-miterlimit="10" stroke-linecap="round" stroke-linejoin="round"/>
<path d="M46.0806 49.4814C46.0806 49.4814 46.3832 49.4913 46.5691 49.7999" stroke="white" stroke-width="0.8439" stroke-miterlimit="10" stroke-linecap="round" stroke-linejoin="round"/>
<path d="M46.5386 49.3213C46.5386 49.3213 46.8412 49.3312 47.0271 49.6397" stroke="white" stroke-width="0.8439" stroke-miterlimit="10" stroke-linecap="round" stroke-linejoin="round"/>
<path d="M46.8809 49.1494C46.8809 49.1494 47.1835 49.1593 47.3694 49.4678" stroke="white" stroke-width="0.8439" stroke-miterlimit="10" stroke-linecap="round" stroke-linejoin="round"/>
<path d="M44.9053 50.0518C44.9053 50.0518 45.2079 50.0616 45.3938 50.3702" stroke="white" stroke-width="0.8439" stroke-miterlimit="10" stroke-linecap="round" stroke-linejoin="round"/>
<path d="M46.7266 48.0461C46.7266 48.0461 46.6435 48.0421 46.6514 48.1489L46.7009 48.6968C46.7009 48.6968 46.687 48.8075 46.7641 48.8392C46.7641 48.8392 47.3872 49.2071 48.3801 48.7818C48.3801 48.7818 48.4869 48.7561 48.4849 48.6315L48.475 48.1133C48.475 48.1133 48.5086 47.961 48.3761 47.967C48.3761 47.965 47.7274 48.2755 46.7266 48.0461Z" fill="#3C698B"/>
<path d="M48.8213 32.664C48.5602 30.8444 48.6947 31.4971 48.5028 30.3519C48.0994 27.9449 47.0709 28.8903 46.0879 26.9026L50.633 26.4951L49.3415 34.274C48.9933 33.6628 48.8687 33.0062 48.8213 32.664Z" fill="#D1D3D4"/>
<path d="M46.7266 48.0461C46.7266 48.0461 46.6435 48.0421 46.6514 48.1489L46.7009 48.6968C46.7009 48.6968 46.687 48.8075 46.7641 48.8392C46.7641 48.8392 47.3872 49.2071 48.3801 48.7818C48.3801 48.7818 48.4869 48.7561 48.4849 48.6315L48.475 48.1133C48.475 48.1133 48.5086 47.961 48.3761 47.967C48.3761 47.965 47.7274 48.2755 46.7266 48.0461Z" fill="#3C698B"/>
<path d="M52.5754 49.5781C52.6762 48.3538 52.783 47.4005 52.8839 46.1782C53.4179 42.0682 52.2154 38.1441 52.2154 38.1441L52.2609 36.552L53.5129 29.0797C54.0152 26.6509 53.0402 24.8154 53.0402 24.8154L48.5781 24.9064L49.4227 36.0793L49.5631 37.6101L50.9595 49.6354C50.9595 49.6354 51.6754 49.9717 52.5121 49.6038" fill="#1D2B4F"/>
<path d="M50.9219 48.842C50.9219 48.842 50.8388 48.838 50.8467 48.9448L50.8962 49.4927C50.8962 49.4927 50.8823 49.6035 50.9595 49.6351C50.9595 49.6351 51.5825 50.003 52.5754 49.5777C52.5754 49.5777 52.6822 49.552 52.6802 49.4274L52.6703 48.9092C52.6703 48.9092 52.7039 48.7569 52.5714 48.7629C52.5694 48.7609 51.9207 49.0714 50.9219 48.842Z" fill="#3C698B"/>
<path d="M49.4167 13.7559C49.0864 13.6056 48.7245 13.4394 48.3546 13.3307C48.1192 13.2614 47.8799 13.214 47.6426 13.212C47.0809 13.2041 46.9029 13.7955 46.8099 14.2464C46.7565 14.5075 46.7308 14.7725 46.6833 15.0336C46.6319 15.3283 46.4104 15.6131 46.3748 15.89C46.3748 15.89 45.4175 17.589 46.1196 18.7618L47.0077 19.905L46.266 26.2005C50.198 27.7769 53.3961 26.8394 53.3961 26.8394C53.8056 25.3659 52.4942 22.1202 52.8305 23.0775C52.9749 23.4909 52.4903 22.1776 52.5575 21.5763C52.6762 20.534 53.5702 18.5878 53.6552 17.5178C53.7225 16.6792 53.8965 16.2816 53.41 15.9118C52.8147 15.4628 51.9879 14.9604 51.3926 14.7072L49.4167 13.7559Z" fill="#F4B78E"/>
<path d="M47.645 13.2125C47.645 13.2125 46.6956 13.0918 46.2289 15.0044L45.3072 18.5645C45.3072 18.5645 45.2637 19.4526 47.4255 19.6405C47.4255 19.6405 49.0928 13.7761 47.645 13.2125Z" fill="#552E49"/>
<path d="M51.3968 11.7822H49.417V15.7696H51.3968V11.7822Z" fill="#F4B78E"/>
<path opacity="0.5" d="M49.417 13.8965V11.7822H51.3968V12.9867C51.3968 12.9867 51.0487 13.2122 49.417 13.8965Z" fill="#F4B78E"/>
<path d="M52.3501 12.0803C53.7821 11.0835 54.3972 7.07438 51.7152 6.05578C49.771 5.31805 47.5914 6.86472 48.0206 8.983C48.1155 9.45175 47.8683 9.89874 47.8228 10.3596C47.7496 11.0914 47.8881 11.7836 48.3113 12.7824C48.6377 13.5499 49.8699 13.0653 50.5186 12.9011C51.1713 12.735 51.7983 12.464 52.3501 12.0803Z" fill="#F4B78E"/>
<path d="M53.4139 15.9117C53.9024 16.2816 53.7264 16.6772 53.6591 17.5177C53.5741 18.5897 52.6801 20.534 52.5614 21.5763C52.4942 22.1776 52.9788 23.4908 52.8344 23.0775C52.5001 22.1202 54.3118 26.2163 53.9044 27.6898C53.9044 27.6898 48.6196 29.5154 46.0682 26.7701L46.9226 19.9742L46.1235 18.7638C45.4214 17.5909 46.3787 15.892 46.3787 15.892C46.4143 15.6151 46.6358 15.3302 46.6872 15.0355C46.7327 14.7745 46.7604 14.5094 46.8138 14.2484C46.9048 13.7974 47.0848 13.206 47.6465 13.2139C47.8818 13.2179 48.1212 13.2634 48.3585 13.3326C48.3585 13.3326 48.9914 13.5205 49.3296 13.7163C49.3296 13.7163 48.8055 14.5233 49.8102 15.0098C49.8102 15.0098 50.9 15.6507 51.529 14.7646C51.5231 14.7626 52.9906 15.443 53.4139 15.9117Z" fill="#552E49"/>
<path d="M51.9166 10.0893C51.8296 10.0142 51.7267 9.95284 51.6733 9.85593C51.1571 8.94018 51.0503 7.59129 51.0503 7.59129L52.68 6.45996C52.68 6.45996 55.0119 8.03433 53.3347 11.0011L52.5574 12.0217C52.3715 12.1601 52.1599 12.2689 51.9384 12.348C51.7485 11.0743 51.8731 11.7824 52.0115 10.7202C52.0096 10.7222 52.1599 10.3207 51.9166 10.0893Z" fill="#4B140D"/>
<path d="M47.8895 9.85564C47.8895 9.85564 47.4188 7.80659 47.6621 6.90469C48.3939 5.20572 50.5695 5.35801 50.5695 5.35801C52.405 5.48064 52.6759 6.46165 52.6759 6.46165L51.0462 7.59298C50.9058 7.12423 50.3262 6.96798 49.9089 6.89876C48.8112 6.71679 48.9793 7.60485 48.0003 8.40785C47.9983 8.40983 48.0359 9.2702 48.0359 9.2702C48.0359 9.2702 47.9766 9.65588 47.8895 9.85564Z" fill="#4B140D"/>
<path d="M46.9302 19.9905L46.1332 18.782C45.431 17.6112 46.3863 15.9161 46.3863 15.9161C46.4219 15.6392 46.6435 15.3564 46.6949 15.0617C46.7404 14.8006 46.7681 14.5356 46.8195 14.2765C46.8551 14.0965 46.9065 13.8948 46.9896 13.7188C47.0509 14.3754 47.0192 15.0024 46.8175 15.6729C46.6257 16.3137 46.3349 16.9802 46.3646 17.6606C46.3863 18.1452 46.4694 18.697 46.9639 18.9165C47.4919 19.1519 48.0873 19.2805 48.6332 19.4763C49.723 19.8679 51.2162 20.4098 52.2922 19.6839C53.0636 19.1618 53.3701 18.2698 53.6648 17.4233C53.6609 17.4628 53.6569 17.5004 53.6549 17.5419C53.5699 18.61 52.6779 20.5522 52.5592 21.5926C52.5058 22.0593 52.7886 22.9573 52.846 23.1373C52.842 23.1254 52.8381 23.1096 52.8302 23.0898C52.4959 22.1345 54.3076 26.2227 53.8982 27.6922C53.8982 27.6922 48.6134 29.5119 46.0659 26.7725L46.9302 19.9905Z" fill="#D1D3D4"/>
<path d="M51.0446 7.45086L50.5996 12.7238C50.5996 12.7238 50.6906 14.0391 49.1143 14.9232C49.1143 14.9232 53.8097 15.1012 54.14 12.8326C54.14 12.8326 54.5514 9.85592 53.5763 7.53195C53.2618 6.78828 51.9564 7.50624 51.0446 7.45086Z" fill="#4B140D"/>
<path d="M10.6724 5.06537C10.0375 4.62233 9.73886 4.09622 9.75864 3.58594C9.53316 9.14171 9.30571 14.6975 9.07826 20.2552C9.0565 20.7655 9.35515 21.2916 9.99202 21.7347L12.0549 23.1745L12.7353 6.50524L10.6724 5.06537Z" fill="#4B7A3B"/>
<path d="M33.0576 6.30727C32.933 6.36067 32.8183 6.41803 32.7075 6.47539C32.7016 6.47934 32.6956 6.48132 32.6897 6.48528C32.6047 6.53275 32.5236 6.58219 32.4464 6.63362C32.4267 6.64746 32.4108 6.65933 32.393 6.67317C32.3475 6.70482 32.3001 6.73844 32.2585 6.77207C32.2467 6.77998 32.2388 6.78987 32.2289 6.79976C32.1715 6.84722 32.1221 6.89469 32.0726 6.94414C32.0528 6.96392 32.0291 6.98172 32.0113 7.0015C32.0074 7.00743 32.0034 7.01336 31.9975 7.01732C31.9658 7.05292 31.9381 7.0905 31.9104 7.1261C31.8887 7.15379 31.861 7.18346 31.8412 7.21115C31.8373 7.21708 31.8353 7.22301 31.8313 7.22895C31.8115 7.25862 31.7957 7.29026 31.7779 7.31993C31.7581 7.35157 31.7364 7.3852 31.7206 7.41684C31.7166 7.42476 31.7146 7.43464 31.7107 7.44256C31.6968 7.47222 31.6869 7.50189 31.6771 7.53156C31.6652 7.56123 31.6513 7.59089 31.6414 7.62254C31.6375 7.63441 31.6375 7.64627 31.6335 7.66012C31.6256 7.69176 31.6197 7.72539 31.6138 7.75703C31.6098 7.78472 31.5999 7.81044 31.5979 7.83615C31.594 7.86582 31.592 7.89548 31.592 7.92317C31.3665 13.4789 31.1391 19.0347 30.9116 24.5925C30.9136 24.5371 30.9235 24.4817 30.9354 24.4263C30.9413 24.3927 30.9472 24.3591 30.9551 24.3274C30.967 24.2839 30.9808 24.2424 30.9967 24.2009C31.0085 24.1712 31.0184 24.1415 31.0303 24.1119C31.0501 24.0703 31.0738 24.0288 31.0975 23.9853C31.1153 23.9556 31.1312 23.9259 31.149 23.8963C31.1727 23.8607 31.2024 23.827 31.2281 23.7914C31.2558 23.7558 31.2835 23.7183 31.3151 23.6827C31.3369 23.6589 31.3645 23.6352 31.3883 23.6115C31.4377 23.562 31.4892 23.5126 31.5465 23.4651C31.5979 23.4216 31.6513 23.3801 31.7107 23.3405C31.7285 23.3267 31.7463 23.3128 31.7661 23.3009C31.8471 23.2456 31.9342 23.1941 32.0252 23.1447C32.1339 23.0854 32.2506 23.028 32.3752 22.9746L34.8831 21.9105L35.5635 5.24121L33.0576 6.30727Z" fill="#60954A"/>
<path d="M11.1096 15.6222L10.4312 32.2915L2.92529 27.0502L3.60369 10.3809L11.1096 15.6222Z" fill="#4B7A3B"/>
<path d="M19.2682 15.0242C19.1732 14.9589 19.0723 14.8956 18.9675 14.8363C18.9339 14.8185 18.9003 14.8007 18.8647 14.7829C18.7915 14.7453 18.7183 14.7058 18.6412 14.6702C18.6293 14.6642 18.6174 14.6583 18.6036 14.6524C18.5818 14.6425 18.5561 14.6346 18.5344 14.6247C18.4295 14.5792 18.3247 14.5376 18.214 14.5001C18.1902 14.4922 18.1685 14.4803 18.1447 14.4724C18.1269 14.4664 18.1091 14.4625 18.0913 14.4565C18.0083 14.4289 17.9252 14.4051 17.8401 14.3814C17.8065 14.3715 17.7729 14.3596 17.7393 14.3517C17.7294 14.3497 17.7175 14.3478 17.7076 14.3438C17.6384 14.326 17.5652 14.3102 17.494 14.2944C17.4485 14.2845 17.405 14.2726 17.3595 14.2627C17.3516 14.2607 17.3437 14.2607 17.3378 14.2588C17.2705 14.2449 17.2033 14.235 17.136 14.2251C17.0846 14.2172 17.0352 14.2054 16.9818 14.1994C16.9758 14.1975 16.9679 14.1975 16.962 14.1975C16.8947 14.1876 16.8275 14.1816 16.7602 14.1737C16.7068 14.1678 16.6534 14.1599 16.6 14.1559C16.5941 14.1559 16.5862 14.1559 16.5803 14.1539C16.5011 14.148 16.422 14.144 16.3429 14.1401C16.2954 14.1381 16.248 14.1342 16.2005 14.1322C16.1966 14.1322 16.1926 14.1322 16.1886 14.1322C16.0522 14.1282 15.9157 14.1282 15.7792 14.1302C15.7753 14.1302 15.7733 14.1302 15.7713 14.1302C15.7555 14.1302 15.7417 14.1322 15.7258 14.1322C15.5953 14.1361 15.4648 14.1441 15.3362 14.1559C15.3184 14.1579 15.3026 14.1579 15.2848 14.1599C15.265 14.1619 15.2472 14.1658 15.2274 14.1678C15.0276 14.1895 14.8299 14.2153 14.638 14.2548C14.6341 14.2568 14.6301 14.2568 14.6261 14.2568C14.6103 14.2607 14.5945 14.2667 14.5787 14.2687C14.4422 14.2963 14.3077 14.3319 14.1752 14.3695C14.1356 14.3814 14.0961 14.3933 14.0545 14.4051C13.9062 14.4526 13.7598 14.502 13.6214 14.5614L11.1135 15.6255L10.4331 32.2948L12.941 31.2307C13.0795 31.1713 13.2258 31.1219 13.3761 31.0744C13.4137 31.0626 13.4533 31.0507 13.4928 31.0388C13.6273 31.0012 13.7638 30.9656 13.9042 30.936C13.922 30.932 13.9379 30.9281 13.9576 30.9241C14.1515 30.8846 14.3492 30.8569 14.549 30.8371C14.5846 30.8331 14.6222 30.8292 14.6578 30.8252C14.7883 30.8134 14.9169 30.8054 15.0474 30.8015C15.0652 30.8015 15.083 30.7995 15.1008 30.7975C15.2373 30.7936 15.3738 30.7956 15.5102 30.7995C15.5617 30.8015 15.6131 30.8054 15.6645 30.8074C15.7436 30.8114 15.8227 30.8153 15.9019 30.8213C15.9612 30.8272 16.0205 30.8351 16.0799 30.841C16.1471 30.849 16.2163 30.8549 16.2836 30.8648C16.3409 30.8727 16.3963 30.8826 16.4537 30.8925C16.5209 30.9043 16.5901 30.9142 16.6594 30.9261C16.7108 30.936 16.7583 30.9478 16.8097 30.9597C16.8848 30.9755 16.96 30.9914 17.0352 31.0111C17.0767 31.021 17.1163 31.0349 17.1578 31.0448C17.2448 31.0685 17.3318 31.0942 17.4169 31.1219C17.4584 31.1357 17.498 31.1496 17.5375 31.1654C17.6483 31.205 17.7551 31.2465 17.8579 31.292C17.8935 31.3078 17.9292 31.3217 17.9648 31.3375C18.0419 31.3731 18.117 31.4126 18.1902 31.4522C18.2238 31.47 18.2575 31.4858 18.2891 31.5036C18.3939 31.563 18.4948 31.6243 18.5898 31.6915C19.2246 32.1346 19.5213 32.6607 19.5015 33.1709L20.1819 16.5016C20.1997 15.9914 19.9011 15.4672 19.2682 15.0242Z" fill="#60954A"/>
<path d="M48.1705 14.0439L47.4901 30.7132L38.3604 34.5879L39.0407 17.9185L48.1705 14.0439Z" fill="#69A150"/>
<path d="M41.9544 20.7951C41.9524 20.8505 41.9405 20.9078 41.9307 20.9632C41.9247 20.9949 41.9188 21.0265 41.9109 21.0582C41.899 21.1017 41.8832 21.1452 41.8674 21.1867C41.8575 21.2164 41.8476 21.2461 41.8337 21.2737C41.814 21.3173 41.7902 21.3588 41.7645 21.4003C41.7467 21.43 41.7329 21.4597 41.7131 21.4893C41.6894 21.5249 41.6597 21.5586 41.634 21.5942C41.6063 21.6298 41.5806 21.6673 41.5489 21.701C41.5252 21.7247 41.4995 21.7484 41.4738 21.7722C41.4243 21.8216 41.3749 21.8691 41.3175 21.9165C41.2661 21.9601 41.2107 22.0016 41.1514 22.0431C41.1336 22.057 41.1158 22.0688 41.098 22.0827C41.0169 22.1361 40.9299 22.1895 40.8389 22.2389C40.7301 22.2983 40.6134 22.3556 40.4888 22.409C40.3504 22.4684 40.204 22.5178 40.0557 22.5653C40.0161 22.5771 39.9765 22.589 39.937 22.6009C39.8045 22.6385 39.668 22.6741 39.5295 22.7037C39.5098 22.7077 39.492 22.7136 39.4742 22.7176C39.2823 22.7552 39.0845 22.7828 38.8848 22.8046C38.8472 22.8086 38.8096 22.8125 38.774 22.8165C38.6474 22.8283 38.5189 22.8362 38.3903 22.8402C38.3705 22.8402 38.3507 22.8422 38.3329 22.8442C38.1985 22.8481 38.062 22.8461 37.9255 22.8422C37.8682 22.8402 37.8088 22.8362 37.7515 22.8323C37.6783 22.8283 37.6071 22.8244 37.5339 22.8184C37.4666 22.8125 37.3994 22.8046 37.3322 22.7967C37.2728 22.7888 37.2135 22.7848 37.1541 22.7749C37.0889 22.767 37.0236 22.7532 36.9603 22.7433C36.899 22.7334 36.8377 22.7235 36.7784 22.7116C36.723 22.6998 36.6716 22.6879 36.6162 22.676C36.545 22.6602 36.4738 22.6444 36.4045 22.6266C36.361 22.6147 36.3175 22.6029 36.274 22.589C36.187 22.5653 36.1019 22.5396 36.0189 22.5119C35.9793 22.498 35.9397 22.4842 35.9002 22.4703C35.7894 22.4308 35.6846 22.3893 35.5798 22.3438C35.5442 22.3279 35.5066 22.3141 35.473 22.2963C35.3978 22.2627 35.3246 22.2251 35.2534 22.1855C35.2178 22.1658 35.1803 22.1499 35.1466 22.1302C35.0438 22.0708 34.9429 22.0095 34.848 21.9442L32.8464 20.5459L32.166 37.2152L34.1676 38.6135C34.2625 38.6788 34.3634 38.7401 34.4663 38.7995C34.4999 38.8192 34.5375 38.837 34.5731 38.8548C34.6443 38.8924 34.7155 38.93 34.7906 38.9636C34.8045 38.9696 34.8163 38.9775 34.8302 38.9834C34.8539 38.9933 34.8796 39.0032 34.9034 39.0131C35.0062 39.0566 35.111 39.0981 35.2178 39.1377C35.2416 39.1456 35.2633 39.1575 35.2871 39.1654C35.3049 39.1713 35.3227 39.1753 35.3405 39.1812C35.4255 39.2089 35.5106 39.2346 35.5976 39.2583C35.6292 39.2682 35.6609 39.2781 35.6925 39.286C35.7024 39.288 35.7123 39.29 35.7222 39.2939C35.7954 39.3137 35.8705 39.3295 35.9457 39.3453C35.9892 39.3552 36.0288 39.3671 36.0723 39.375C36.0802 39.377 36.0881 39.377 36.096 39.379C36.1613 39.3928 36.2285 39.4007 36.2958 39.4126C36.3472 39.4205 36.3986 39.4324 36.452 39.4403C36.4599 39.4403 36.4659 39.4423 36.4738 39.4423C36.541 39.4522 36.6083 39.4581 36.6755 39.466C36.7289 39.4719 36.7803 39.4798 36.8337 39.4838C36.8397 39.4838 36.8476 39.4838 36.8535 39.4858C36.9346 39.4917 37.0157 39.4957 37.0968 39.4996C37.1423 39.5016 37.1878 39.5075 37.2333 39.5075C37.2372 39.5075 37.2412 39.5075 37.2451 39.5075C37.3816 39.5115 37.5181 39.5115 37.6565 39.5095C37.6585 39.5095 37.6605 39.5095 37.6605 39.5095C37.6743 39.5095 37.6862 39.5075 37.7 39.5075C37.8345 39.5036 37.967 39.4957 38.0996 39.4838C38.1174 39.4818 38.1332 39.4818 38.149 39.4798C38.1688 39.4779 38.1866 39.4739 38.2064 39.4719C38.4081 39.4502 38.6059 39.4225 38.7997 39.3849C38.8037 39.3849 38.8076 39.3829 38.8116 39.3829C38.8254 39.3809 38.8373 39.375 38.8531 39.373C38.9935 39.3434 39.132 39.3078 39.2665 39.2702C39.306 39.2583 39.3436 39.2465 39.3832 39.2346C39.5315 39.1871 39.6779 39.1377 39.8183 39.0783C39.9449 39.0249 40.0596 38.9676 40.1704 38.9082C40.1763 38.9043 40.1822 38.9023 40.1862 38.9003C40.2732 38.8529 40.3523 38.8034 40.4275 38.752C40.4473 38.7401 40.4611 38.7263 40.4809 38.7144C40.5284 38.6828 40.5758 38.6491 40.6174 38.6135C40.6292 38.6056 40.6371 38.5957 40.647 38.5859C40.7024 38.5384 40.7519 38.4909 40.8013 38.4434C40.8211 38.4237 40.8448 38.4059 40.8646 38.3861C40.8685 38.3802 40.8725 38.3742 40.8784 38.3683C40.9101 38.3347 40.9338 38.2991 40.9615 38.2635C40.9852 38.2338 41.0129 38.2041 41.0347 38.1745C41.0386 38.1685 41.0406 38.1626 41.0446 38.1567C41.0644 38.127 41.0782 38.0973 41.096 38.0677C41.1158 38.034 41.1375 38.0024 41.1534 37.9688C41.1573 37.9609 41.1593 37.951 41.1632 37.9431C41.1751 37.9134 41.187 37.8817 41.1969 37.8521C41.2087 37.8224 41.2226 37.7927 41.2305 37.7611C41.2344 37.7492 41.2344 37.7374 41.2384 37.7255C41.2463 37.6919 41.2522 37.6602 41.2582 37.6266C41.2641 37.6009 41.272 37.5752 41.274 37.5475C41.278 37.5198 41.2799 37.4901 41.2799 37.4605C41.5015 31.9086 41.7289 26.3509 41.9544 20.7951Z" fill="#5D9248"/>
<path d="M23.7141 24.4269L23.0338 41.0942L15.5278 35.8529L16.2082 19.1836L23.7141 24.4269Z" fill="#4B7A3B"/>
<path d="M32.8423 20.5498L32.1639 37.2191L23.0342 41.0937L23.7146 24.4264L32.8423 20.5498Z" fill="#69A150"/>
<path d="M11.2207 1.96994C12.9335 1.24407 15.4612 1.45174 16.8694 2.43473L18.9303 3.87461L28.0621 0L35.568 5.2413L33.0601 6.30538C31.3493 7.03125 31.102 8.41772 32.5083 9.40269C33.9165 10.3857 36.4442 10.5934 38.157 9.86749L40.6649 8.8034L48.1709 14.0447L39.0411 17.9193L41.0427 19.3176C42.4509 20.3006 42.2037 21.6851 40.4909 22.411C38.78 23.1369 36.2504 22.9312 34.8441 21.9482L32.8425 20.5498L23.7148 24.4264L16.2088 19.1832L18.7167 18.1191C20.4276 17.3932 20.6748 16.0067 19.2686 15.0237C17.8603 14.0407 15.3307 13.8331 13.6198 14.5589L11.1119 15.623L3.604 10.3817L12.7338 6.50712L10.6709 5.06725C9.26461 4.08228 9.50986 2.69779 11.2207 1.96994Z" fill="#73AE57"/>
<path d="M10.3801 60.891L10.2456 58.5156H11.8516L11.7191 60.891H10.3801Z" fill="#F8B78F"/>
<path d="M10.2024 61.5095C10.9955 61.8497 11.8519 61.4937 11.8519 61.4937L14.6565 60.3703C15.2637 59.9787 14.4765 59.7037 14.4765 59.7037C14.0058 59.4901 13.2601 59.7532 13.2601 59.7532L11.7629 60.0973C11.2586 60.6353 10.3448 60.2734 10.3448 60.2734C10.3448 60.2734 10.1094 60.6689 10.2024 61.5095Z" fill="#693634"/>
<path d="M10.2021 61.5095C10.2021 61.5095 11.0704 61.8062 11.8517 61.4937L14.6068 60.3901C14.6068 60.3901 15.0143 60.1923 14.7927 59.8877C14.7927 59.8877 15.0063 59.9549 14.8877 60.6314C14.8165 60.7382 14.5593 60.8766 14.055 61.112C13.1927 61.5135 12.3184 61.9466 11.373 62.1187C11.1139 62.1662 10.8271 62.1622 10.57 62.0969C10.5206 62.0851 10.2041 61.9941 10.2041 61.9288V61.5095H10.2021Z" fill="#EBEBEC"/>
<path d="M10.2021 61.5099L10.3446 61.5534L10.487 61.585C10.5839 61.6028 10.6808 61.6127 10.7777 61.6167C10.8746 61.6206 10.9715 61.6167 11.0684 61.6088C11.1654 61.5989 11.2603 61.587 11.3552 61.5672C11.4502 61.5494 11.5431 61.5237 11.6361 61.496C11.731 61.4664 11.8121 61.4367 11.9031 61.3932L12.445 61.1519L12.9889 60.9165C13.1709 60.8394 13.3509 60.7603 13.5348 60.6851C13.8987 60.5328 14.2646 60.3845 14.6325 60.2381L14.6226 60.2441C14.684 60.2124 14.7413 60.1729 14.7769 60.1274C14.8145 60.0819 14.8264 60.0344 14.7987 59.979C14.773 59.9236 14.7215 59.8702 14.6642 59.8248C14.6068 59.7812 14.5435 59.7397 14.4783 59.7041C14.5514 59.7199 14.6226 59.7456 14.6919 59.7812C14.7591 59.8168 14.8303 59.8584 14.8817 59.9296C14.9074 59.9652 14.9252 60.0126 14.9252 60.0641C14.9252 60.1155 14.9074 60.163 14.8837 60.2005C14.8343 60.2777 14.769 60.3291 14.7018 60.3746L14.6998 60.3766L14.6919 60.3805C14.3319 60.5427 13.9699 60.7009 13.606 60.8552C13.4241 60.9343 13.2421 61.0095 13.0601 61.0846L12.5123 61.3101L11.9624 61.5297C11.8734 61.5672 11.7686 61.6009 11.6737 61.6246C11.5748 61.6483 11.4759 61.6701 11.377 61.68C11.2761 61.6938 11.1752 61.6998 11.0764 61.7017C10.9755 61.7017 10.8746 61.6938 10.7757 61.6819C10.6768 61.6681 10.5779 61.6483 10.483 61.6206C10.4355 61.6048 10.3881 61.591 10.3426 61.5712L10.2021 61.5099Z" fill="#582526"/>
<path d="M4.66767 59.5844L4.53516 57.207H6.13919L6.00668 59.5844H4.66767Z" fill="#F8B78F"/>
<path d="M4.48985 60.2037C5.28297 60.5439 6.13938 60.1879 6.13938 60.1879L8.94594 59.0645C9.55314 58.6729 8.76596 58.398 8.76596 58.398C8.29523 58.1824 7.54958 58.4474 7.54958 58.4474L6.05235 58.7916C5.548 59.3295 4.63423 58.9676 4.63423 58.9676C4.63423 58.9676 4.39689 59.3632 4.48985 60.2037Z" fill="#693634"/>
<path d="M4.48975 60.2039C4.48975 60.2039 5.35802 60.5005 6.13927 60.188L8.89441 59.0844C8.89441 59.0844 9.30185 58.8866 9.08033 58.582C9.08033 58.582 9.29394 58.6493 9.17527 59.3257C9.10407 59.4325 8.84695 59.5729 8.34259 59.8063C7.48223 60.2078 6.60604 60.641 5.66063 60.813C5.40153 60.8605 5.11475 60.8566 4.85763 60.7913C4.80818 60.7774 4.49172 60.6884 4.49172 60.6232V60.2039H4.48975Z" fill="#EBEBEC"/>
<path d="M4.48975 60.2033L4.63215 60.2468L4.77456 60.2784C4.87147 60.2962 4.96839 60.3061 5.0653 60.3101C5.16221 60.314 5.25913 60.3101 5.35604 60.3002C5.45296 60.2903 5.54789 60.2784 5.64283 60.2586C5.73777 60.2408 5.83073 60.2151 5.92369 60.1874C6.01862 60.1578 6.09971 60.1281 6.1907 60.0846L6.73065 59.8433L7.27456 59.6079C7.45652 59.5288 7.6365 59.4517 7.82044 59.3765C8.18437 59.2242 8.55027 59.0759 8.91815 58.9295L8.90826 58.9355C8.96957 58.9038 9.02693 58.8643 9.06253 58.8188C9.10011 58.7733 9.11198 58.7278 9.08429 58.6704C9.05858 58.6151 9.00715 58.5616 8.94979 58.5162C8.89244 58.4726 8.82914 58.4311 8.76388 58.3955C8.83706 58.4113 8.91024 58.437 8.97748 58.4726C9.04473 58.5082 9.11593 58.5498 9.16736 58.621C9.19307 58.6566 9.21087 58.7041 9.21087 58.7555C9.21087 58.8069 9.19307 58.8544 9.16933 58.8919C9.11989 58.9691 9.05264 59.0205 8.98737 59.066L8.98539 59.068L8.97748 59.0719C8.61751 59.2341 8.25557 59.3923 7.89164 59.5466C7.70968 59.6257 7.52772 59.7009 7.34576 59.776L6.79789 60.0015L6.24805 60.2211C6.15905 60.2586 6.05422 60.2923 5.95929 60.316C5.86039 60.3397 5.7615 60.3615 5.66261 60.3714C5.56174 60.3852 5.46087 60.3912 5.36198 60.3931C5.26111 60.3931 5.16024 60.3852 5.06134 60.3734C4.96245 60.3595 4.86356 60.3397 4.76664 60.312C4.71918 60.2962 4.67171 60.2824 4.62622 60.2626L4.48975 60.2033Z" fill="#582526"/>
<path d="M5.03605 36.1377C4.86991 36.9526 5.09737 38.0958 5.32482 38.8829C5.82126 40.5938 8.33115 41.5886 9.85409 41.8735C9.85409 41.8735 12.6864 42.0396 12.5519 37.8841L5.03605 36.1377Z" fill="#142B4E"/>
<path d="M3.12709 28.9346C3.12709 28.9346 4.55905 29.5279 7.6346 31.1557L7.59505 31.8341C7.59505 31.8341 3.4831 31.6996 1.63184 30.4773L3.12709 28.9346Z" fill="#F4B78E"/>
<path d="M4.00927 28.754C4.00927 28.754 3.09946 30.542 2.14021 30.633C2.14021 30.633 1.60817 30.6666 1.50136 30.2651C1.50136 30.2651 1.12755 29.7845 2.14218 27.417L4.00927 28.754Z" fill="#F4B78E"/>
<path d="M5.94539 21.8571C5.94539 21.8571 4.81406 21.7068 4.2306 22.8519L1.8374 27.5968C1.8374 27.5968 2.08661 28.8606 4.43629 29.1059L6.60599 24.7606C6.60599 24.7606 7.29824 22.4544 5.94539 21.8571Z" fill="#CADE70"/>
<path d="M1.92838 27.4174C2.08859 28.0068 2.54152 28.3273 3.11905 28.5844C3.37617 28.6991 3.80141 28.8217 4.06248 28.6417C4.48376 28.353 4.37696 27.4214 4.40663 26.9863C4.4541 26.2624 4.49167 25.5365 4.49959 24.8106C4.50552 24.1441 4.46794 23.4499 4.71517 22.817C4.8912 22.364 5.24523 22.0654 5.66652 21.8577C5.83661 21.8439 5.94539 21.8577 5.94539 21.8577C7.30022 22.455 6.60599 24.7612 6.60599 24.7612L4.4363 29.1065C2.08661 28.8613 1.8374 27.5974 1.8374 27.5974L1.92838 27.4174Z" fill="#D1D3D4"/>
<path d="M12.5121 38.9776L12.5537 46.701L12.166 59.8063C12.166 59.8063 11.3472 60.6152 9.88161 60.1643L8.77006 47.0511L8.53271 38.2734L12.5121 38.9776Z" fill="#142B4E"/>
<path d="M8.53061 39.0052L4.99224 37.1045L5.09905 46.0048L4.47998 58.9597C5.30277 59.652 6.49739 58.9043 6.49739 58.9043L8.38623 46.9126L8.53061 39.0052Z" fill="#142B4E"/>
<path d="M10.9295 21.5546L10.3243 24.3433L8.36621 23.303L8.82112 20.9395L10.9295 21.5546Z" fill="#F4B78E"/>
<path d="M10.922 21.8477C10.4058 21.8002 9.8797 21.727 9.38128 21.6064C8.69497 21.4402 8.14513 20.3702 7.65857 19.8619C7.34805 19.5375 7.15818 19.0688 6.94457 18.6752C6.2721 17.4311 6.33737 16.1119 7.1562 14.8876C7.55968 14.2863 8.36862 13.7385 9.07274 13.6693C10.4829 13.5308 12.1878 14.2488 12.9276 15.5937C13.3765 16.4125 12.7535 17.4608 13.4616 18.1728C13.4616 18.1728 14.0984 18.5644 13.5526 18.964C13.5526 18.964 12.9829 19.2448 12.9197 19.6483C12.9197 19.6483 12.884 19.7492 12.8247 20.4928C12.7852 20.742 12.8445 21.2721 12.6764 21.4818C12.3322 21.909 11.7072 21.909 11.2088 21.8714C11.1139 21.8655 11.0189 21.8575 10.922 21.8477Z" fill="#F4B78E"/>
<path d="M10.1167 20.5345C10.1464 21.0428 10.3619 21.7114 10.9217 21.8478C11.0146 21.8716 11.1115 21.8637 11.2065 21.8716C11.7029 21.9072 12.3299 21.9091 12.674 21.4819C12.8422 21.2723 12.7828 20.7442 12.8224 20.493C12.8481 20.3229 12.8857 19.8522 12.8995 19.7434C12.7235 19.7038 12.5435 19.686 12.3635 19.694C12.1717 19.7019 11.9759 19.7355 11.7998 19.8186C11.6456 19.8917 11.4399 20.0104 11.2757 19.8957C11.159 19.8146 11.1036 19.6603 11.0661 19.5298C10.983 19.2351 10.8327 18.6971 10.7812 18.3965L10.5597 18.444C10.5597 18.444 10.3303 19.4744 10.3303 19.4764C10.2492 19.8502 10.0929 20.1291 10.1167 20.5345Z" fill="#554F49"/>
<path d="M12.9965 39.0053L12.9668 26.2086C13.0796 25.4293 12.862 24.9665 12.5001 24.6698C12.152 24.383 10.9158 23.6967 10.5203 23.4831C10.5203 23.4831 10.2038 23.6058 9.30387 23.1904C9.30387 23.1904 8.64723 22.9353 8.489 22.5456C8.0341 22.3993 7.03726 22.0017 6.29755 21.8791C5.25126 21.7031 5.19588 22.6861 5.08117 23.4594C5.08117 23.4594 4.61637 30.457 4.83196 36.6754C4.83196 36.6754 8.0341 39.6501 12.9965 39.0053Z" fill="#CADE70"/>
<path d="M12.9673 26.2085C13.0801 25.4292 12.8625 24.9664 12.5006 24.6697C12.368 24.5609 12.107 24.3928 11.8123 24.2168C11.9626 24.5491 11.9131 24.915 11.6619 25.3224C11.4859 25.6072 11.2782 25.8802 11.1299 26.1808C10.9341 26.5764 10.8906 26.9897 10.857 27.4268C10.7798 28.4197 10.768 29.4304 10.8332 30.4253C10.9242 31.8038 11.3297 33.1547 11.3158 34.5431C11.304 35.8446 10.8352 37.057 9.62279 37.682C8.96416 38.0222 8.25807 38.1943 7.53418 38.2912C8.92065 38.8588 10.7818 39.292 12.995 39.0052L12.9673 26.2085Z" fill="#D1D3D4"/>
<path d="M12.2708 59.9782C11.9563 60.2215 11.3135 60.7001 9.90331 60.4015C9.90331 60.4015 9.78266 60.3421 9.76684 60.1977L9.71146 59.2128C9.71146 59.2128 9.70552 58.9556 9.85782 59.0209C9.85782 59.0209 10.8309 59.46 12.1521 58.7381C12.1521 58.7381 12.2886 58.6155 12.338 58.8429L12.3519 59.7151C12.3499 59.7132 12.3736 59.8991 12.2708 59.9782Z" fill="#7C9EC2"/>
<path d="M6.63595 58.8293C6.32147 59.0726 5.64307 59.66 4.48999 59.1003C4.48999 59.1003 4.36934 59.0429 4.35352 58.8965L4.42867 58.05C4.42867 58.05 4.42274 57.7929 4.57503 57.8582C4.57503 57.8582 5.33255 58.4258 6.65375 57.7039C6.65375 57.7039 6.79023 57.5813 6.83967 57.8087L6.78034 58.5504C6.78034 58.5504 6.74078 58.7502 6.63595 58.8293Z" fill="#7C9EC2"/>
<path d="M14.8043 34.3232C14.8043 34.3232 16.2481 35.4249 19.5748 37.8834L19.1555 38.5974C19.1555 38.5974 14.7588 37.3968 13.4316 35.6207L14.8043 34.3232Z" fill="#F4B78E"/>
<path d="M14.1636 30.8584L15.1426 34.8062C15.1426 34.8062 15.2396 35.896 14.4128 36.1907C14.4128 36.1907 13.5999 36.3825 13.1549 35.0989L11.895 31.2757L14.1636 30.8584Z" fill="#F4B78E"/>
<path d="M21.6914 39.5141L20.6866 38.4085C20.5145 38.2463 20.6866 38.4085 20.6866 38.4085L21.2958 38.4342C21.6241 38.363 21.4105 38.1138 21.4105 38.1138L19.5138 37.8369L19.1558 38.5964C20.3662 39.5834 20.6688 39.7534 20.6688 39.7534C20.6688 39.7534 21.7448 40.1233 21.6914 39.5141Z" fill="#F4B78E"/>
<path d="M12.7395 24.9307C12.7395 24.9307 13.8945 25.3836 14.027 27.2962L14.5789 31.3152C14.5789 31.3152 13.1172 32.5849 11.6576 31.7681L11.3174 26.8907C11.3174 26.8907 11.3174 25.1383 12.7395 24.9307Z" fill="#CADE70"/>
<path d="M8.66144 21.7725L7.66064 22.259C7.66064 22.259 8.70099 23.6751 11.0447 23.782C11.0764 23.7839 10.7046 22.6032 10.7046 22.6032L8.66144 21.7725Z" fill="white"/>
<path d="M6.07028 16.272C6.07028 16.2759 5.51649 18.3645 7.435 20.2415L8.70082 21.4025L9.59283 21.1632L9.72337 19.2882C9.74315 19.128 9.5691 18.9223 9.51174 18.7838C9.44054 18.6118 9.4168 18.4496 9.4168 18.2637C9.41878 17.9076 9.5335 17.4962 9.98247 17.5872C10.3523 17.6624 10.4868 18.1212 10.564 18.4417L10.7855 18.3942C10.6272 17.3182 11.4263 16.9247 11.4263 16.9247C11.2226 15.7894 12.2708 15.8586 12.2708 15.8586C12.2708 15.8586 13.5822 15.8289 13.42 14.6205C13.42 14.6205 13.5011 13.9124 12.3856 13.2498C10.2257 12.9966 9.29022 13.1865 9.29022 13.1865C8.83927 13.2498 8.34283 13.3902 7.89188 13.6098C7.4706 13.8135 7.0869 14.0864 6.81593 14.4286C6.81593 14.4286 6.54101 14.84 6.88516 15.3622C6.8812 15.3622 6.17907 15.3622 6.07028 16.272Z" fill="#554F49"/>
<path d="M6.07028 16.272C6.07028 16.2759 5.51649 18.3645 7.435 20.2415L8.70082 21.4025L9.59283 21.1632L9.72337 19.2882C9.74315 19.128 9.5691 18.9223 9.51174 18.7838C9.44054 18.6118 9.4168 18.4496 9.4168 18.2637C9.41878 17.9076 9.5335 17.4962 9.98247 17.5872C10.3523 17.6624 10.4868 18.1212 10.564 18.4417L10.7855 18.3942C10.6272 17.3182 11.4263 16.9247 11.4263 16.9247C11.2226 15.7894 12.2708 15.8586 12.2708 15.8586C12.2708 15.8586 13.5822 15.8289 13.42 14.6205C13.42 14.6205 13.5011 13.9124 12.3856 13.2498C10.2257 12.9966 9.29022 13.1865 9.29022 13.1865C8.83927 13.2498 8.34283 13.3902 7.89188 13.6098C7.4706 13.8135 7.0869 14.0864 6.81593 14.4286C6.81593 14.4286 6.54101 14.84 6.88516 15.3622C6.8812 15.3622 6.17907 15.3622 6.07028 16.272Z" fill="#554F49"/>
<path d="M10.4036 19.2627C10.0496 19.4367 9.57493 19.1974 9.34352 18.7267C9.11013 18.2559 9.20705 17.7338 9.55911 17.5578C9.91314 17.3837 10.3878 17.623 10.6212 18.0938C10.8546 18.5645 10.7557 19.0866 10.4036 19.2627Z" fill="#F4B78E"/>
<path d="M10.3485 18.7506C10.2298 18.721 10.2437 18.6636 10.2318 18.5628C10.2239 18.4876 10.1903 18.4322 10.1428 18.3768C10.0914 18.3135 10.04 18.3135 9.98854 18.3294C9.94701 18.3254 9.89954 18.3313 9.85405 18.3393C9.71164 18.363 9.66022 18.3096 9.68 18.1533C9.70373 17.9753 9.89163 17.8923 10.0677 17.8665C10.1428 17.8567 10.1745 17.7993 10.0716 17.7637C9.75713 17.6529 9.51188 17.9219 9.50397 18.2265C9.50199 18.3353 9.54551 18.4579 9.65231 18.4995C9.65626 18.5014 9.66615 18.5034 9.68 18.5034C9.73933 18.5944 9.83229 18.6498 9.88965 18.7427C9.89954 18.7566 9.90943 18.7665 9.9213 18.7724C9.9391 18.812 9.95888 18.8515 9.98459 18.8832C10.0617 18.984 10.2002 18.8931 10.301 18.9168C10.4118 18.9385 10.4533 18.7783 10.3485 18.7506Z" fill="#DD957C"/>
<path d="M55.2919 25.2905C55.7607 24.1275 55.46 23.2533 55.46 23.2533L54.7025 17.7154C54.4157 15.8779 53.1025 16.2557 53.1025 16.2557C51.6903 16.499 52.3311 18.2316 52.3311 18.2316L53.7294 24.266C53.7255 24.266 53.7848 25.8799 55.2919 25.2905Z" fill="#F4B78E"/>
<path d="M47.2283 29.1316C47.1195 29.0505 46.8465 29.3116 46.5459 29.005C46.8544 28.6826 47.0542 28.5145 47.1551 28.4591C47.3034 28.378 47.3726 28.4275 47.5309 28.4947C47.6575 28.5481 47.7702 28.647 47.9007 28.6945C48.0332 28.7419 48.3873 28.5521 48.5435 28.5066L48.6681 28.645C48.6681 28.645 48.2112 29.2265 47.788 29.5924L47.2283 29.1316Z" fill="#F8B78F"/>
<path d="M46.564 28.388C46.7914 28.2535 47.2562 27.9727 47.3175 27.9786L47.903 27.9489L48.259 27.8164C48.3955 28.1882 48.5438 28.5087 48.5438 28.5087C48.0889 28.748 47.986 28.8172 47.986 28.8172C47.986 28.8172 47.7447 28.9378 47.3274 28.6115L47.1217 28.4928C47.1237 28.4948 46.7143 28.7183 46.564 28.388Z" fill="#F8B78F"/>
<path d="M47.9086 29.4978C48.0352 29.3851 47.9007 29.3001 47.9007 29.3001C47.7979 29.1774 47.7029 29.2724 47.7029 29.2724L47.7544 29.2249C47.7821 29.1398 47.6673 29.0746 47.6673 29.0746C47.5605 28.9796 47.4616 29.0924 47.4616 29.0924L47.5546 28.9974C47.5922 28.9223 47.4814 28.8392 47.4814 28.8392C47.345 28.7265 47.2599 28.8392 47.2599 28.8392L47.2164 28.8768C47.2164 28.8768 47.0601 28.5386 46.7081 28.861L46.5459 29.0073C46.5459 29.0073 46.5874 29.1972 46.8762 29.1992C46.8762 29.1992 46.9355 29.4425 47.163 29.4049C47.163 29.4049 47.2381 29.5789 47.426 29.5631C47.426 29.5631 47.5289 29.751 47.6594 29.6956L47.9086 29.4978Z" fill="#F8B78F"/>
<path d="M52.7528 15.4941C52.7528 15.4941 51.6689 16.0104 52.0981 17.6559C52.0981 17.6559 52.2919 19.6793 52.6835 20.9767C52.6835 20.9767 54.5388 21.0578 55.3754 19.8513C55.3754 19.8533 55.0965 16.0104 52.7528 15.4941Z" fill="#552E49"/>
<path d="M55.229 25.4215L48.4549 28.7898L47.9624 27.9868L53.8683 23.944C53.8683 23.944 54.5368 23.416 54.964 24.0093C54.966 24.0093 55.674 24.5928 55.229 25.4215Z" fill="#F4B78E"/>
</svg>
