<svg width="48" height="35" viewBox="0 0 48 35" fill="none" xmlns="http://www.w3.org/2000/svg">
<path d="M47.287 6.07109H39.7365C39.7173 2.70893 41.4272 0 43.5022 0C45.5963 0 47.287 2.70893 47.287 6.07109Z" fill="#890303"/>
<path d="M18.1227 34.1787L1.8883 19.635C1.19666 19.0202 0.812416 18.1556 0.812416 17.2334V6.07109C0.793204 2.70893 2.5031 0 4.59724 0H43.5214C41.4272 0 39.7365 2.70893 39.7365 6.07109V17.2334C39.7365 18.1556 39.3523 19.0202 38.6606 19.635L22.4263 34.1787C21.1967 35.2738 19.3523 35.2738 18.1227 34.1787ZM21.3696 32.1614L37.1237 17.9443C37.4887 17.6177 37.7 17.1374 37.7 16.6378V5.76369C37.7 5.39866 37.3926 5.09126 37.0276 5.09126C36.6626 5.09126 36.3552 5.39866 36.3552 5.76369V16.6378C36.3552 16.7531 36.2975 16.8684 36.2207 16.9452L20.4666 31.1623C20.3129 31.2968 20.0824 31.2968 19.9287 31.1623L4.61645 16.8492C4.5396 16.7723 4.48197 16.6571 4.48197 16.561V6.07109C4.48197 5.70605 4.17457 5.39866 3.80953 5.39866C3.4445 5.39866 3.1371 5.70605 3.1371 6.07109V16.561C3.1371 17.0413 3.34844 17.5216 3.69426 17.8482L18.9873 32.1422C19.6597 32.7762 20.6779 32.7762 21.3696 32.1614Z" fill="#D80303"/>
<path d="M13.879 15.049C13.7253 15.049 13.61 15.0106 13.5139 14.9337C13.4179 14.8569 13.3602 14.7992 13.341 14.7608L10.3823 10.342V14.7032C10.3823 14.7992 10.3439 14.8761 10.2863 14.9529C10.2094 15.0298 10.1326 15.049 10.0365 15.049H8.34582C8.24976 15.049 8.17291 15.0106 8.09606 14.9529C8.01921 14.8761 8 14.7992 8 14.7032V6.34582C8 6.24976 8.03842 6.17291 8.09606 6.09606C8.17291 6.01921 8.24976 6 8.34582 6H9.69068C9.84438 6 9.95965 6.03842 10.0557 6.11527C10.1518 6.19212 10.2094 6.24976 10.2286 6.28818L13.1873 10.707V6.34582C13.1873 6.24976 13.2257 6.17291 13.2834 6.09606C13.3602 6.01921 13.4371 6 13.5331 6H15.2238C15.3199 6 15.3967 6.03842 15.4736 6.09606C15.5504 6.17291 15.5696 6.24976 15.5696 6.34582V14.7032C15.5696 14.7992 15.5312 14.8761 15.4736 14.9529C15.3967 15.0298 15.3199 15.049 15.2238 15.049H13.879V15.049Z" fill="white"/>
<path d="M23.8502 12.9741C23.9462 12.9741 24.0231 13.0125 24.0999 13.0701C24.1768 13.147 24.196 13.2238 24.196 13.3199V14.684C24.196 14.78 24.1576 14.8569 24.0999 14.9337C24.0231 15.0106 23.9462 15.0298 23.8502 15.0298H17.7214C17.6254 15.0298 17.5485 14.9914 17.4717 14.9337C17.3948 14.8569 17.3756 14.78 17.3756 14.684V6.34582C17.3756 6.24976 17.414 6.17291 17.4717 6.09606C17.5485 6.01921 17.6254 6 17.7214 6H23.7541C23.8502 6 23.927 6.03842 24.0039 6.09606C24.0807 6.17291 24.0999 6.24976 24.0999 6.34582V7.70989C24.0999 7.80596 24.0615 7.88281 24.0039 7.95965C23.927 8.0365 23.8502 8.05572 23.7541 8.05572H19.7771V9.45821H23.4659C23.562 9.45821 23.6388 9.49664 23.7157 9.55427C23.7925 9.63112 23.8117 9.70797 23.8117 9.80403V11.1681C23.8117 11.2642 23.7733 11.341 23.7157 11.4179C23.6388 11.4947 23.562 11.5139 23.4659 11.5139H19.7771V12.9549H23.8502V12.9741Z" fill="white"/>
<path d="M31.9769 10.7266L32.803 6.36538C32.8222 6.2309 32.8799 6.15405 32.9567 6.09641C33.0336 6.03877 33.1104 6.01956 33.2065 6.01956H34.8972C34.974 6.01956 35.0509 6.03877 35.0893 6.09641C35.1469 6.15405 35.1661 6.21168 35.1661 6.28853C35.1661 6.30775 35.1661 6.34617 35.1469 6.3846L33.4755 14.5498C33.4563 14.6651 33.3986 14.7804 33.2641 14.8764C33.1489 14.9725 32.9952 15.0301 32.8222 15.0301H31.7464C31.5734 15.0301 31.439 14.9725 31.3237 14.8764C31.2084 14.7804 31.1316 14.6651 31.0931 14.5498L30.1325 11.6296L29.1719 14.5498C29.1335 14.6651 29.0566 14.7804 28.9414 14.8764C28.8261 14.9725 28.6916 15.0301 28.5187 15.0301H27.4428C27.2699 15.0301 27.1162 14.9725 27.0009 14.8764C26.8856 14.7804 26.8088 14.6651 26.7896 14.5498L25.1565 6.3846C25.1565 6.34617 25.1373 6.30775 25.1373 6.28853C25.1373 6.21168 25.1565 6.13484 25.2142 6.09641C25.2718 6.03877 25.3295 6.01956 25.4063 6.01956H27.097C27.1738 6.01956 27.2699 6.03877 27.3467 6.09641C27.4236 6.15405 27.4812 6.2309 27.5004 6.36538L28.3266 10.7266L29.0951 8.38267C29.1143 8.32504 29.1527 8.24819 29.2103 8.15213C29.268 8.05607 29.3832 8.01764 29.5369 8.01764H30.7473C30.901 8.01764 31.0163 8.05607 31.0739 8.15213C31.1316 8.24819 31.17 8.32504 31.1892 8.38267L31.9769 10.7266Z" fill="white"/>
</svg>
