<svg width="18" height="21" viewBox="0 0 18 21" fill="none" xmlns="http://www.w3.org/2000/svg">
<path fill-rule="evenodd" clip-rule="evenodd" d="M7.13369 15.6268L15.6043 10.8271C17.4296 9.79285 17.4296 7.20715 15.6043 6.17288L7.13369 1.37319C5.30838 0.338916 3.02674 1.63176 3.02674 3.70031L3.02674 13.2997C3.02674 15.3682 5.30838 16.6611 7.13369 15.6268ZM16.1176 11.6998C18.6275 10.2777 18.6275 6.72234 16.1176 5.30021L7.64706 0.500521C5.13726 -0.921609 2 0.856055 2 3.70031L2 13.2997C2 16.1439 5.13726 17.9216 7.64706 16.4995L16.1176 11.6998Z" fill="#0E918C"/>
<path fill-rule="evenodd" clip-rule="evenodd" d="M5.13369 19.6268L13.6043 14.8271C15.4296 13.7928 15.4296 11.2072 13.6043 10.1729L5.13369 5.37319C3.30838 4.33892 1.02674 5.63176 1.02674 7.70031L1.02674 17.2997C1.02674 19.3682 3.30838 20.6611 5.13369 19.6268ZM14.1176 15.6998C16.6275 14.2777 16.6274 10.7223 14.1176 9.30021L5.64706 4.50052C3.13726 3.07839 9.16255e-07 4.85606 7.91928e-07 7.70031L3.72326e-07 17.2997C2.48e-07 20.1439 3.13726 21.9216 5.64706 20.4995L14.1176 15.6998Z" fill="#F6830F"/>
</svg>
