<svg width="30" height="27" viewBox="0 0 30 27" fill="none" xmlns="http://www.w3.org/2000/svg">
<path d="M30.0002 13.917C29.8086 14.355 29.6991 14.8204 29.4527 15.2036C28.9326 15.9975 28.1113 16.2986 27.1806 16.2986C25.894 16.2986 24.6074 16.2986 23.3482 16.2986C23.2387 16.2986 23.1292 16.2986 22.9924 16.2986C23.0197 16.4081 23.0471 16.5176 23.0745 16.5997C24.1147 19.4192 25.1549 22.2388 26.1678 25.0583C26.2499 25.2773 26.2773 25.5511 26.2499 25.7701C26.1951 26.1259 25.894 26.3723 25.5382 26.3997C25.1823 26.4271 24.9086 26.2902 24.7169 25.9891C24.6348 25.8796 24.5801 25.7427 24.5527 25.6058C23.4577 22.5947 22.3354 19.6109 21.2404 16.5997C21.1583 16.3807 21.0488 16.2986 20.8298 16.2986C20.5834 16.2986 20.5013 16.3807 20.4192 16.5997C19.3242 19.6382 18.2292 22.6768 17.1069 25.688C17.0248 25.907 16.8605 26.1259 16.6963 26.2902C16.4499 26.5092 16.0393 26.4818 15.7655 26.2628C15.4644 26.0438 15.3275 25.688 15.437 25.3595C15.7382 24.4561 16.0667 23.5528 16.3951 22.6768C17.1343 20.6511 17.8734 18.6528 18.5851 16.6271C18.6125 16.5176 18.6398 16.4354 18.6946 16.2986C18.284 16.2986 17.9007 16.2986 17.5449 16.2986C17.5722 15.8058 17.5996 15.3405 17.627 14.8477C17.627 14.7656 17.6817 14.6561 17.7365 14.574C18.3113 13.4516 18.8588 12.3019 19.4337 11.1796C19.9264 10.1941 19.8717 9.236 19.2147 8.33265C18.2019 6.96394 15.9572 7.01868 15.0812 8.46952C14.6706 9.12651 14.3421 9.83824 13.9862 10.55C13.9315 10.6321 13.9041 10.7416 13.822 10.8511C13.7672 10.8237 13.6851 10.8237 13.6303 10.7963C13.0555 10.5226 12.4806 10.2215 11.9058 9.94774C11.7689 9.86561 11.6868 9.81086 11.6868 9.61924C11.6868 7.59354 11.6868 5.56785 11.6868 3.51477C11.7141 1.92706 12.8639 0.777344 14.4242 0.777344C18.6946 0.804718 22.965 0.804718 27.2354 0.804718C28.6588 0.804718 29.6991 1.70807 29.9454 3.13153C29.9454 3.15891 29.9728 3.18628 29.9728 3.21366C30.0002 6.77232 30.0002 10.3583 30.0002 13.917ZM20.8024 6.19746C21.1035 6.19746 21.4046 6.19746 21.6784 6.19746C22.9376 6.19746 24.1694 6.19746 25.4287 6.19746C25.894 6.19746 26.2499 5.84159 26.2773 5.4036C26.3046 4.96561 25.9762 4.58237 25.5108 4.50025C25.4013 4.47287 25.2918 4.47287 25.1549 4.47287C22.4449 4.47287 19.7348 4.47287 17.0521 4.47287C16.7784 4.47287 16.5046 4.47287 16.2309 4.47287C15.8477 4.47287 15.5465 4.66449 15.4097 5.02036C15.1907 5.59522 15.6013 6.17008 16.2583 6.17008C17.7912 6.19746 19.2968 6.19746 20.8024 6.19746ZM23.5125 10.9332C22.8829 10.9332 22.2806 10.9332 21.651 10.9332C21.1035 10.9332 20.7203 11.2617 20.7203 11.7544C20.6929 12.2472 21.0762 12.6304 21.651 12.6304C22.9102 12.6304 24.1421 12.6304 25.4013 12.6304C25.9214 12.6304 26.3046 12.2472 26.3046 11.7544C26.3046 11.2617 25.9214 10.9058 25.3739 10.9058C24.7717 10.9332 24.1421 10.9332 23.5125 10.9332ZM23.5125 9.40025C24.1968 9.40025 24.8812 9.42762 25.5382 9.40025C25.9762 9.37288 26.3046 8.98963 26.3046 8.55165C26.3046 8.11366 25.9762 7.78517 25.5382 7.73042C25.456 7.73042 25.3465 7.70304 25.2644 7.70304C24.0873 7.70304 22.9376 7.70304 21.7605 7.70304C21.5963 7.70304 21.432 7.70304 21.2951 7.75779C20.9393 7.86729 20.7203 8.25053 20.7477 8.63377C20.775 9.04438 21.0762 9.37288 21.4868 9.37288C22.1438 9.42762 22.8281 9.40025 23.5125 9.40025Z" fill="url(#paint0_linear_795_53234)"/>
<path d="M0.627472 14.9031C0.654846 14.7388 0.709595 14.6019 0.736969 14.4377C1.14758 12.193 3.03641 10.3863 5.2811 10.0852C5.41797 10.0578 5.55485 10.0304 5.74647 10.0031C4.67887 9.86618 3.83027 9.4282 3.20066 8.66172C2.54367 7.89524 2.26993 6.99188 2.35205 5.97903C2.48892 4.14495 3.99451 2.69412 5.80122 2.55725C7.63529 2.42037 9.27775 3.65222 9.74311 5.43155C10.1264 6.96451 9.3325 9.51032 6.64982 10.0304C7.82691 9.94831 8.83976 10.3863 9.87999 10.879C11.3582 11.6181 12.8638 12.3572 14.342 13.0964C14.3967 13.1237 14.4789 13.1511 14.561 13.2058C14.6431 13.069 14.6979 12.9595 14.7526 12.8226C15.3001 11.755 15.8202 10.6874 16.3677 9.61982C16.5593 9.23658 16.8878 9.07233 17.271 9.12708C17.5995 9.15445 17.928 9.40082 17.9554 9.75669C17.9828 10.0031 17.928 10.2768 17.8459 10.4958C17.2163 11.8098 16.5593 13.0964 15.9023 14.3829C15.8202 14.5198 15.8202 14.7114 15.8476 14.8757C15.9845 15.7243 15.7107 16.436 15.0811 16.9835C14.4241 17.5857 13.6303 17.7774 12.7817 17.4489C11.9878 17.1477 11.2213 16.7098 10.4275 16.3265C10.2085 16.217 9.98948 16.1075 9.71574 15.9707C9.71574 16.1349 9.68837 16.2444 9.68837 16.3539C9.68837 19.3651 9.68837 22.3762 9.68837 25.36C9.68837 25.5517 9.66099 25.798 9.57887 25.9623C9.442 26.2908 9.14088 26.455 8.78501 26.455C6.95094 26.455 5.14423 26.455 3.31015 26.455C2.76267 26.455 2.43418 26.0718 2.43418 25.4969C2.43418 24.0187 2.43418 22.5131 2.43418 21.0349C2.43418 20.8707 2.43418 20.7885 2.24256 20.7064C1.39395 20.3505 0.873841 19.6936 0.654846 18.8176C0.627472 18.7355 0.600098 18.6533 0.600098 18.5712C0.627472 17.3394 0.627472 16.1075 0.627472 14.9031Z" fill="url(#paint1_linear_795_53234)"/>
<defs>
<linearGradient id="paint0_linear_795_53234" x1="11.6868" y1="0.777344" x2="34.3787" y2="5.52828" gradientUnits="userSpaceOnUse">
<stop stop-color="#F6460F"/>
<stop offset="1" stop-color="#FE2B5E"/>
</linearGradient>
<linearGradient id="paint1_linear_795_53234" x1="0.600098" y1="2.54688" x2="22.0815" y2="7.12398" gradientUnits="userSpaceOnUse">
<stop stop-color="#F6460F"/>
<stop offset="1" stop-color="#FE2B5E"/>
</linearGradient>
</defs>
</svg>
