<svg width="25" height="25" viewBox="0 0 25 25" fill="none" xmlns="http://www.w3.org/2000/svg">
<path d="M12.5 0C5.6 0 0 5.6 0 12.5C0 19.4 5.6 25 12.5 25C19.4 25 25 19.4 25 12.5C25 5.6 19.4 0 12.5 0ZM13.75 17.5C13.75 18.1904 13.1904 18.75 12.5 18.75C11.8096 18.75 11.25 18.1904 11.25 17.5V12.5C11.25 11.8096 11.8096 11.25 12.5 11.25C13.1904 11.25 13.75 11.8096 13.75 12.5V17.5ZM13.75 7.5C13.75 8.19036 13.1904 8.75 12.5 8.75C11.8096 8.75 11.25 8.19036 11.25 7.5C11.25 6.80964 11.8096 6.25 12.5 6.25C13.1904 6.25 13.75 6.80964 13.75 7.5Z" fill="#0E918C"/>
</svg>
