<svg width="25" height="24" viewBox="0 0 25 24" fill="none" xmlns="http://www.w3.org/2000/svg">
<path d="M24.7175 20.4113L14.5716 1.26161C14.3696 0.879964 14.0709 0.561307 13.7071 0.339257C13.3433 0.117208 12.9278 0 12.5044 0C12.081 0 11.6655 0.117208 11.3017 0.339257C10.9378 0.561307 10.6392 0.879964 10.4372 1.26161L0.298546 20.4113C0.0980536 20.7795 -0.00482317 21.1952 0.000173726 21.6169C0.00517062 22.0386 0.117867 22.4516 0.327024 22.8147C0.536181 23.1778 0.834491 23.4783 1.19221 23.6863C1.54992 23.8943 1.95454 24.0024 2.36572 24H22.6503C23.0573 23.9995 23.4573 23.8908 23.811 23.6844C24.1648 23.4779 24.4602 23.1809 24.6686 22.8223C24.8769 22.4637 24.9909 22.0557 24.9995 21.6384C25.0081 21.221 24.9109 20.8085 24.7175 20.4412V20.4113ZM11.5694 6.01906C11.5694 5.74088 11.6771 5.47409 11.8689 5.27738C12.0607 5.08068 12.3208 4.97017 12.592 4.97017C12.8633 4.97017 13.1234 5.08068 13.3151 5.27738C13.5069 5.47409 13.6147 5.74088 13.6147 6.01906V15.0095C13.6147 15.2877 13.5069 15.5545 13.3151 15.7512C13.1234 15.9479 12.8633 16.0584 12.592 16.0584C12.3208 16.0584 12.0607 15.9479 11.8689 15.7512C11.6771 15.5545 11.5694 15.2877 11.5694 15.0095V6.01906ZM12.592 20.8908C12.332 20.8908 12.0778 20.8117 11.8616 20.6635C11.6453 20.5153 11.4768 20.3047 11.3773 20.0583C11.2778 19.8118 11.2518 19.5407 11.3025 19.2791C11.3532 19.0175 11.4784 18.7772 11.6623 18.5886C11.8462 18.4 12.0805 18.2716 12.3355 18.2195C12.5906 18.1675 12.8549 18.1942 13.0952 18.2963C13.3354 18.3983 13.5408 18.5712 13.6853 18.793C13.8297 19.0147 13.9068 19.2755 13.9068 19.5422C13.9068 19.7193 13.8728 19.8947 13.8068 20.0583C13.7407 20.2219 13.6438 20.3705 13.5217 20.4958C13.3997 20.621 13.2547 20.7203 13.0952 20.7881C12.9357 20.8559 12.7647 20.8908 12.592 20.8908Z" fill="#FAB504"/>
</svg>
