<svg width="124" height="124" viewBox="0 0 124 124" fill="none" xmlns="http://www.w3.org/2000/svg">
<circle cx="62" cy="62" r="60" stroke="#898989" stroke-width="4" stroke-dasharray="8 8"/>
<path d="M77.7722 65.3646H65.5602V77.4707C65.5602 79.4199 63.9663 81 62 81C60.0337 81 58.4398 79.4199 58.4398 77.4707V65.3646H46.2278C44.3938 65.1763 43 63.6442 43 61.8163C43 59.9884 44.3938 58.4562 46.2278 58.268H58.4015V46.1999C58.5914 44.3817 60.137 43 61.9809 43C63.8247 43 65.3703 44.3817 65.5602 46.1999V58.268H77.7722C79.6062 58.4562 81 59.9884 81 61.8163C81 63.6442 79.6062 65.1763 77.7722 65.3646V65.3646Z" fill="#898989"/>
</svg>
