<svg width="124" height="124" viewBox="0 0 124 124" fill="none" xmlns="http://www.w3.org/2000/svg">
<path d="M62 124C96.2417 124 124 96.2417 124 62C124 27.7583 96.2417 0 62 0C27.7583 0 0 27.7583 0 62C0 96.2417 27.7583 124 62 124Z" fill="#3C5A9A"/>
<path d="M81.161 19.0312H67.4265C59.276 19.0312 50.2103 22.4592 50.2103 34.2738C50.2501 38.3904 50.2103 42.3329 50.2103 46.77H40.7812V61.7744H50.5021V104.97H68.3646V61.4894H80.1545L81.2212 46.7279H68.0568C68.0568 46.7279 68.0863 40.1614 68.0568 38.2544C68.0568 33.5856 72.9149 33.8529 73.2071 33.8529C75.5189 33.8529 80.0139 33.8597 81.1678 33.8529V19.0312H81.161Z" fill="white"/>
</svg>
