<svg width="124" height="124" viewBox="0 0 124 124" fill="none" xmlns="http://www.w3.org/2000/svg">
<path d="M62 124C96.2417 124 124 96.2417 124 62C124 27.7583 96.2417 0 62 0C27.7583 0 0 27.7583 0 62C0 96.2417 27.7583 124 62 124Z" fill="url(#paint0_linear_2118_79398)"/>
<path d="M62.0034 33.5532C71.2713 33.5532 72.3815 33.5532 76.0396 33.7518C78.2368 33.7752 80.4222 34.1726 82.4909 34.9439C85.5061 36.1126 87.902 38.5085 89.0707 41.5237C89.842 43.5924 90.2511 45.7662 90.2628 47.975C90.4381 51.6331 90.4615 52.7433 90.4615 62.0112C90.4615 71.2791 90.4615 72.3893 90.2628 76.0474C90.2394 78.2446 89.842 80.4301 89.0707 82.4987C87.902 85.514 85.5061 87.9098 82.4909 89.0785C80.4222 89.8499 78.2485 90.2589 76.0396 90.2706C72.3815 90.4459 71.2829 90.4693 62.0034 90.4693C52.7239 90.4693 51.6253 90.4693 47.9672 90.2706C45.77 90.2472 43.5845 89.8499 41.5159 89.0785C38.524 87.8864 36.1632 85.4906 35.0062 82.487C34.2349 80.4184 33.8258 78.2446 33.8141 76.0357C33.6388 72.3777 33.6155 71.2674 33.6155 61.9995C33.6155 52.7317 33.6155 51.6214 33.8141 47.9633C33.8375 45.7662 34.2349 43.5807 35.0062 41.5121C36.1749 38.5319 38.5357 36.1827 41.5159 35.0024C43.5845 34.231 45.7583 33.822 47.9672 33.8103C51.6253 33.635 52.7355 33.6116 62.0034 33.6116V33.5532ZM62.0034 27.359C52.5836 27.359 51.3915 27.359 47.6867 27.5577C44.8 27.6161 41.9484 28.1654 39.2486 29.1822C34.5387 30.9703 30.8339 34.6868 29.0341 39.3967C28.0173 42.0964 27.4797 44.9481 27.4096 47.8348C27.246 51.5396 27.2109 52.72 27.2109 62.1515C27.2109 71.5712 27.2109 72.7633 27.4096 76.4681C27.5265 79.3081 28.1225 82.1247 29.1627 84.766C30.9508 89.4759 34.6673 93.1807 39.3772 94.9805C42.0769 95.9973 44.9286 96.5349 47.8153 96.605C51.5201 96.7686 52.7005 96.8037 62.132 96.8037C71.5517 96.8037 72.7438 96.8037 76.4486 96.605C79.3354 96.5465 82.187 95.9973 84.8867 94.9805C89.5966 93.1924 93.3014 89.4759 95.1012 84.766C96.118 82.0663 96.6556 79.2146 96.7257 76.3279C96.8894 72.6231 96.9244 71.4427 96.9244 62.0112C96.9244 52.5914 96.9244 51.3993 96.7257 47.6945C96.6673 44.8078 96.118 41.9562 95.1012 39.2565C93.3131 34.5466 89.5966 30.8417 84.8867 29.0419C82.187 28.0252 79.3354 27.4876 76.4486 27.4174C72.7438 27.2538 71.5634 27.2188 62.132 27.2188L62.0034 27.359Z" fill="white"/>
<path d="M62.0025 44.1797C52.162 44.1797 44.1797 52.162 44.1797 62.0025C44.1797 71.8547 52.162 79.8253 62.0025 79.8253C71.843 79.8253 79.8253 71.843 79.8253 62.0025C79.837 52.162 71.8547 44.1797 62.0025 44.1797ZM62.0025 73.5727C55.6097 73.5727 50.4323 68.3953 50.4323 62.0025C50.4323 55.6097 55.6097 50.4323 62.0025 50.4323C68.3953 50.4323 73.5727 55.6097 73.5727 62.0025C73.5727 68.3953 68.3953 73.5727 62.0025 73.5727Z" fill="white"/>
<path d="M80.5395 47.6493C82.8438 47.6493 84.7118 45.7813 84.7118 43.477C84.7118 41.1727 82.8438 39.3047 80.5395 39.3047C78.2352 39.3047 76.3672 41.1727 76.3672 43.477C76.3672 45.7813 78.2352 47.6493 80.5395 47.6493Z" fill="white"/>
<defs>
<linearGradient id="paint0_linear_2118_79398" x1="14.62" y1="14.6199" x2="112.173" y2="112.173" gradientUnits="userSpaceOnUse">
<stop offset="0.0390244" stop-color="#8549E4"/>
<stop offset="0.1591" stop-color="#A846BF"/>
<stop offset="0.311" stop-color="#CD4498"/>
<stop offset="0.4505" stop-color="#E9427B"/>
<stop offset="0.5717" stop-color="#F9416A"/>
<stop offset="0.661" stop-color="#FF4164"/>
<stop offset="0.7213" stop-color="#FF525D"/>
<stop offset="0.8406" stop-color="#FF7E4B"/>
<stop offset="1" stop-color="#FFC12F"/>
</linearGradient>
</defs>
</svg>
