<svg width="20" height="18" viewBox="0 0 20 18" fill="none" xmlns="http://www.w3.org/2000/svg">
<path d="M17.1532 13.621L17.1532 13.6211C17.5209 13.9439 17.5595 14.5212 17.1397 14.9527L15.493 16.3984L15.7998 16.7478L15.493 16.3984C15.1768 16.6761 14.6933 16.8401 14.0241 16.8411C13.3559 16.8422 12.5445 16.6796 11.6345 16.3517C9.81586 15.6964 7.68448 14.4102 5.66755 12.6394C3.6506 10.8686 2.21585 9.00468 1.48843 7.42632C1.12424 6.63608 0.949601 5.94397 0.947269 5.38602C0.944984 4.8394 1.10574 4.44693 1.39125 4.18066L3.04623 2.72764C3.45458 2.36912 4.22672 2.33975 4.75891 2.73928L7.19221 4.87564C7.48775 5.13511 7.55824 5.45897 7.48611 5.7353C7.41289 6.01581 7.18103 6.28702 6.78006 6.39534L6.78003 6.39524L6.77003 6.39816C5.81789 6.67678 5.00546 7.67094 5.38561 8.71933C5.64844 9.65817 6.42862 10.6303 7.31473 11.3984C8.21418 12.1781 9.3146 12.8273 10.2983 13.0433L10.2983 13.0434L10.3098 13.0456C11.2717 13.2333 12.4256 12.7854 12.7953 11.8118L12.7954 11.8118L12.7997 11.7997C12.9027 11.5058 13.1892 11.2738 13.5842 11.1943C13.9765 11.1154 14.4021 11.2057 14.7066 11.4731L17.1532 13.621Z" fill="white" stroke="white"/>
<path d="M17.8819 3.96388H15.6858V2.19479C15.6858 1.59082 15.1361 1.24097 14.6466 1.24097H14.2871C13.7976 1.24097 13.2479 1.59082 13.2479 2.19479V3.96388H11.0518C10.5622 3.96388 10.0126 4.31373 10.0126 4.9177V5.22023C10.0126 5.82419 10.5622 6.17405 11.0518 6.17405H13.2479V7.94314C13.2479 8.54711 13.7976 8.89696 14.2871 8.89696H14.6466C15.1361 8.89696 15.6858 8.54711 15.6858 7.94314V6.17405H17.8819C18.3714 6.17405 18.9211 5.82419 18.9211 5.22023V4.9177C18.9211 4.31373 18.3714 3.96388 17.8819 3.96388Z" fill="white" stroke="white"/>
<mask id="path-3-inside-1_6_7469" fill="white">
<path fill-rule="evenodd" clip-rule="evenodd" d="M14.9777 4.63904V2.19479C14.9777 2.04101 14.8293 1.91612 14.6466 1.91612H14.2871C14.1044 1.91612 13.956 2.04101 13.956 2.19479V4.63904H11.0518C10.8691 4.63904 10.7207 4.76393 10.7207 4.9177V5.22023C10.7207 5.374 10.8691 5.49889 11.0518 5.49889H13.956V7.94314C13.956 8.09692 14.1044 8.2218 14.2871 8.2218H14.6466C14.8293 8.2218 14.9777 8.09692 14.9777 7.94314V5.49889H17.8819C18.0646 5.49889 18.213 5.374 18.213 5.22023V4.9177C18.213 4.76393 18.0646 4.63904 17.8819 4.63904H14.9777ZM17.8819 4.46388C18.1795 4.46388 18.4211 4.66719 18.4211 4.9177V5.22023C18.4211 5.47074 18.1795 5.67405 17.8819 5.67405H15.1858V7.94314C15.1858 8.19365 14.9442 8.39696 14.6466 8.39696H14.2871C13.9894 8.39696 13.7479 8.19365 13.7479 7.94314V5.67405H11.0518C10.7541 5.67405 10.5126 5.47074 10.5126 5.22023V4.9177C10.5126 4.66719 10.7541 4.46388 11.0518 4.46388H13.7479V2.19479C13.7479 1.94428 13.9894 1.74097 14.2871 1.74097H14.6466C14.9442 1.74097 15.1858 1.94428 15.1858 2.19479V4.46388H17.8819Z"/>
</mask>
<path fill-rule="evenodd" clip-rule="evenodd" d="M14.9777 4.63904V2.19479C14.9777 2.04101 14.8293 1.91612 14.6466 1.91612H14.2871C14.1044 1.91612 13.956 2.04101 13.956 2.19479V4.63904H11.0518C10.8691 4.63904 10.7207 4.76393 10.7207 4.9177V5.22023C10.7207 5.374 10.8691 5.49889 11.0518 5.49889H13.956V7.94314C13.956 8.09692 14.1044 8.2218 14.2871 8.2218H14.6466C14.8293 8.2218 14.9777 8.09692 14.9777 7.94314V5.49889H17.8819C18.0646 5.49889 18.213 5.374 18.213 5.22023V4.9177C18.213 4.76393 18.0646 4.63904 17.8819 4.63904H14.9777ZM17.8819 4.46388C18.1795 4.46388 18.4211 4.66719 18.4211 4.9177V5.22023C18.4211 5.47074 18.1795 5.67405 17.8819 5.67405H15.1858V7.94314C15.1858 8.19365 14.9442 8.39696 14.6466 8.39696H14.2871C13.9894 8.39696 13.7479 8.19365 13.7479 7.94314V5.67405H11.0518C10.7541 5.67405 10.5126 5.47074 10.5126 5.22023V4.9177C10.5126 4.66719 10.7541 4.46388 11.0518 4.46388H13.7479V2.19479C13.7479 1.94428 13.9894 1.74097 14.2871 1.74097H14.6466C14.9442 1.74097 15.1858 1.94428 15.1858 2.19479V4.46388H17.8819Z" fill="white"/>
<path d="M14.9777 4.63904H8.97765V10.639H14.9777V4.63904ZM13.956 4.63904V10.639H19.956V4.63904H13.956ZM13.956 5.49889H19.956V-0.50111H13.956V5.49889ZM14.9777 5.49889V-0.50111H8.97765V5.49889H14.9777ZM15.1858 5.67405V-0.325952H9.18577V5.67405H15.1858ZM13.7479 5.67405H19.7479V-0.325952H13.7479V5.67405ZM13.7479 4.46388V10.4639H19.7479V4.46388H13.7479ZM15.1858 4.46388H9.18577V10.4639H15.1858V4.46388ZM14.6466 7.91612C12.5265 7.91612 8.97765 6.2825 8.97765 2.19479H20.9777C20.9777 -2.20047 17.132 -4.08388 14.6466 -4.08388V7.91612ZM14.2871 7.91612H14.6466V-4.08388H14.2871V7.91612ZM19.956 2.19479C19.956 6.28249 16.4071 7.91612 14.2871 7.91612V-4.08388C11.8017 -4.08388 7.95599 -2.20047 7.95599 2.19479H19.956ZM16.7207 4.9177C16.7207 9.00541 13.1718 10.639 11.0518 10.639V-1.36096C8.56635 -1.36096 4.72068 0.522445 4.72068 4.9177H16.7207ZM16.7207 5.22023V4.9177H4.72068V5.22023H16.7207ZM11.0518 -0.50111C13.1718 -0.50111 16.7207 1.13252 16.7207 5.22023H4.72068C4.72068 9.61548 8.56635 11.4989 11.0518 11.4989V-0.50111ZM14.2871 2.2218C16.4071 2.2218 19.956 3.85544 19.956 7.94314H7.95599C7.95599 12.3384 11.8017 14.2218 14.2871 14.2218V2.2218ZM14.6466 2.2218H14.2871V14.2218H14.6466V2.2218ZM8.97765 7.94314C8.97765 3.85543 12.5265 2.2218 14.6466 2.2218V14.2218C17.132 14.2218 20.9777 12.3384 20.9777 7.94314H8.97765ZM12.213 5.22023C12.213 1.13252 15.7618 -0.50111 17.8819 -0.50111V11.4989C20.3673 11.4989 24.213 9.61548 24.213 5.22023H12.213ZM12.213 4.9177V5.22023H24.213V4.9177H12.213ZM17.8819 10.639C15.7619 10.639 12.213 9.00541 12.213 4.9177H24.213C24.213 0.522443 20.3673 -1.36096 17.8819 -1.36096V10.639ZM24.4211 4.9177C24.4211 0.425708 20.4822 -1.53612 17.8819 -1.53612V10.4639C15.8768 10.4639 12.4211 8.90868 12.4211 4.9177H24.4211ZM24.4211 5.22023V4.9177H12.4211V5.22023H24.4211ZM17.8819 11.674C20.4822 11.674 24.4211 9.71222 24.4211 5.22023H12.4211C12.4211 1.22925 15.8768 -0.325952 17.8819 -0.325952V11.674ZM14.6466 14.397C17.2469 14.397 21.1858 12.4351 21.1858 7.94314H9.18577C9.18577 3.95217 12.6415 2.39696 14.6466 2.39696V14.397ZM14.2871 14.397H14.6466V2.39696H14.2871V14.397ZM7.74788 7.94314C7.74788 12.4351 11.6867 14.397 14.2871 14.397V2.39696C16.2922 2.39696 19.7479 3.95217 19.7479 7.94314H7.74788ZM4.51256 5.22023C4.51256 9.71222 8.45141 11.674 11.0518 11.674V-0.325952C13.0569 -0.325952 16.5126 1.22926 16.5126 5.22023H4.51256ZM4.51256 4.9177V5.22023H16.5126V4.9177H4.51256ZM11.0518 -1.53612C8.45141 -1.53612 4.51256 0.425709 4.51256 4.9177H16.5126C16.5126 8.90867 13.0569 10.4639 11.0518 10.4639V-1.53612ZM14.2871 -4.25903C11.6867 -4.25903 7.74788 -2.29721 7.74788 2.19479H19.7479C19.7479 6.18576 16.2922 7.74097 14.2871 7.74097V-4.25903ZM14.6466 -4.25903H14.2871V7.74097H14.6466V-4.25903ZM21.1858 2.19479C21.1858 -2.29721 17.2469 -4.25903 14.6466 -4.25903V7.74097C12.6415 7.74097 9.18577 6.18576 9.18577 2.19479H21.1858ZM8.97765 2.19479V4.63904H20.9777V2.19479H8.97765ZM19.956 4.63904V2.19479H7.95599V4.63904H19.956ZM11.0518 10.639H13.956V-1.36096H11.0518V10.639ZM13.956 -0.50111H11.0518V11.4989H13.956V-0.50111ZM19.956 7.94314V5.49889H7.95599V7.94314H19.956ZM8.97765 5.49889V7.94314H20.9777V5.49889H8.97765ZM17.8819 -0.50111H14.9777V11.4989H17.8819V-0.50111ZM14.9777 10.639H17.8819V-1.36096H14.9777V10.639ZM17.8819 -1.53612H15.1858V10.4639H17.8819V-1.53612ZM15.1858 11.674H17.8819V-0.325952H15.1858V11.674ZM21.1858 7.94314V5.67405H9.18577V7.94314H21.1858ZM7.74788 5.67405V7.94314H19.7479V5.67405H7.74788ZM11.0518 11.674H13.7479V-0.325952H11.0518V11.674ZM13.7479 -1.53612H11.0518V10.4639H13.7479V-1.53612ZM7.74788 2.19479V4.46388H19.7479V2.19479H7.74788ZM21.1858 4.46388V2.19479H9.18577V4.46388H21.1858Z" fill="white" mask="url(#path-3-inside-1_6_7469)"/>
</svg>
