<svg width="24" height="24" viewBox="0 0 24 24" fill="none" xmlns="http://www.w3.org/2000/svg">
<circle cx="12" cy="12" r="12" fill="#130F26"/>
<path d="M17.5684 14.3527C17.1205 14.0052 16.7041 13.6818 16.2772 13.3507C16.8907 12.1916 16.9758 11.0036 16.4426 9.79752C16.0585 8.92818 15.4244 8.28896 14.5728 7.86714C12.9062 7.04161 10.8549 7.53928 9.72532 9.04244C8.58969 10.5535 8.68808 12.6321 9.9567 14.0363C11.2497 15.4674 13.5197 15.8206 15.2562 14.52C15.7323 14.9834 16.2096 15.4477 16.6867 15.9121C16.952 16.1701 17.2183 16.4275 17.4808 16.6881C17.5192 16.7262 17.5636 16.7823 17.5639 16.83C17.5655 17.2156 17.5846 17.6041 17.5449 17.9862C17.4938 18.4778 17.0818 18.8238 16.5845 18.8244C13.7444 18.8276 10.9041 18.8279 8.06409 18.8241C7.51691 18.8235 7.10018 18.396 7.08558 17.8418C7.07955 17.6199 7.08304 17.3974 7.08304 17.1756C7.08304 13.4735 7.08272 9.77117 7.08304 6.06912C7.08304 5.55114 7.35568 5.16424 7.81304 5.04236C7.91905 5.01412 8.03204 5.00205 8.14185 5.00174C10.4531 5.00015 12.7643 5.0011 15.0756 5.0011C15.5463 5.0011 16.017 4.99952 16.4877 5.00015C17.1539 5.0011 17.5687 5.41625 17.5684 6.07864C17.5681 8.76536 17.5681 11.4521 17.5681 14.1388C17.5684 14.1962 17.5684 14.2537 17.5684 14.3527Z" fill="#F6830F"/>
<path d="M15.2794 14.0169C13.7019 15.4439 11.4034 15.1357 10.1897 13.7297C9.02264 12.3779 9.02963 10.3701 10.2164 9.04088C11.4031 7.71165 13.3874 7.46885 14.8576 8.4626C16.3972 9.50332 16.9612 11.7019 15.7831 13.4409C16.123 13.7059 16.4636 13.9725 16.8051 14.2375C17.9496 15.1256 19.0954 16.0124 20.2393 16.9017C20.5846 17.1702 20.6373 17.6241 20.3656 17.9355C20.0942 18.2462 19.6375 18.2551 19.3239 17.9504C18.027 16.69 16.7314 15.4281 15.4355 14.1668C15.3863 14.1185 15.3365 14.0715 15.2794 14.0169ZM15.7666 11.4089C15.7701 9.82611 14.4735 8.50703 12.911 8.50291C11.2742 8.49878 9.9653 9.78485 9.96498 11.3978C9.96434 12.9851 11.2637 14.2934 12.8447 14.2966C14.4557 14.3001 15.7631 13.0083 15.7666 11.4089Z" fill="#F6830F"/>
<path d="M6.43904 6.3125C6.43904 10.0561 6.43904 13.7769 6.43904 17.5005C6.1756 17.5005 5.91471 17.5316 5.66429 17.4932C5.27104 17.4329 5.03014 17.1016 5.03014 16.6823C5.02919 14.3555 5.02982 12.0287 5.0295 9.70192C5.0295 8.86115 5.02887 8.02038 5.02982 7.17961C5.03046 6.63433 5.35324 6.31282 5.89852 6.3125C6.07245 6.3125 6.24638 6.3125 6.43904 6.3125Z" fill="#F6830F"/>
<path d="M4.40541 7.6252C4.40541 10.4954 4.40541 13.3471 4.40541 16.2094C4.11119 16.2094 3.82522 16.2303 3.54369 16.204C3.20662 16.1722 3.00254 15.9202 3.00191 15.572C2.99937 14.2822 3.00127 12.9926 3.00159 11.7027C3.00159 10.5715 3.00222 9.44068 3 8.30949C2.99969 8.12319 3.02317 7.94005 3.16917 7.81627C3.26947 7.73121 3.40023 7.64488 3.52465 7.63345C3.81189 7.60711 4.10325 7.6252 4.40541 7.6252Z" fill="#F6830F"/>
<path d="M13.0065 13.489C12.9249 13.489 12.8434 13.489 12.7618 13.489C12.7513 13.4868 12.7408 13.483 12.7304 13.4824C12.4035 13.4592 12.0978 13.3659 11.8188 13.1948C11.2777 12.8631 10.9444 12.3852 10.8276 11.7596C10.813 11.6812 10.8057 11.6015 10.7949 11.5225C10.7949 11.4409 10.7949 11.3593 10.7949 11.2778C10.7975 11.2635 10.8003 11.2489 10.8025 11.2346C10.8156 11.1448 10.8232 11.0534 10.8422 10.9648C10.9514 10.4634 11.2088 10.052 11.6176 9.74256C12.1261 9.35756 12.6986 9.22965 13.3226 9.35978C13.8222 9.46389 14.2285 9.72573 14.5392 10.1298C14.8747 10.5659 15.0143 11.0626 14.962 11.6091C14.9194 12.0519 14.7474 12.4429 14.4522 12.7768C14.1288 13.1428 13.7257 13.3707 13.2439 13.4564C13.1655 13.4706 13.0859 13.4786 13.0065 13.489ZM12.5587 11.745C12.4812 11.6742 12.405 11.6044 12.3289 11.5349C12.2133 11.4298 12.1007 11.3206 11.9807 11.2206C11.869 11.1277 11.6957 11.1889 11.662 11.3282C11.6405 11.4174 11.6703 11.4904 11.7376 11.5511C11.9632 11.7558 12.188 11.9611 12.4133 12.1662C12.5199 12.2633 12.6304 12.2604 12.7335 12.1582C13.1662 11.7291 13.5984 11.3 14.0307 10.8709C14.0422 10.8595 14.0539 10.8477 14.0641 10.835C14.1482 10.7338 14.1212 10.5846 14.0072 10.5189C13.9177 10.4672 13.8209 10.484 13.7378 10.5675C13.356 10.949 12.9741 11.3308 12.5923 11.7123C12.5822 11.7228 12.5714 11.7329 12.5587 11.745Z" fill="#F6830F"/>
</svg>
