<svg width="24" height="24" viewBox="0 0 24 24" fill="none" xmlns="http://www.w3.org/2000/svg">
<path d="M14.5595 8C14.5595 8.88 13.9639 9.6 13.2359 9.6H1.32359C0.595616 9.6 0 8.88 0 8C0 7.12 0.595616 6.4 1.32359 6.4H13.2359C13.9639 6.4 14.5595 7.12 14.5595 8ZM0 1.6C0 2.48 0.595616 3.2 1.32359 3.2H13.2359C13.9639 3.2 14.5595 2.48 14.5595 1.6C14.5595 0.72 13.9639 0 13.2359 0H1.32359C0.595616 0 0 0.72 0 1.6ZM9.26513 14.4C9.26513 13.52 8.66952 12.8 7.94154 12.8H1.32359C0.595616 12.8 0 13.52 0 14.4C0 15.28 0.595616 16 1.32359 16H7.94154C8.66952 16 9.26513 15.28 9.26513 14.4ZM19.8671 10.992L20.8068 9.856C21.323 9.232 22.1569 9.232 22.6731 9.856L23.6129 10.992C24.1291 11.616 24.1291 12.624 23.6129 13.248L22.6731 14.384L19.8671 10.992ZM18.9273 12.128L12.0976 20.384C11.9785 20.528 11.9123 20.72 11.9123 20.944V23.2C11.9123 23.648 12.2035 24 12.5741 24H14.4404C14.6124 24 14.7845 23.92 14.9036 23.76L21.7334 15.504L18.9273 12.128Z" fill="white"/>
</svg>
