<svg width="90" height="90" viewBox="0 0 90 90" fill="none" xmlns="http://www.w3.org/2000/svg">
<circle cx="45" cy="45" r="45" fill="white"/>
<path fill-rule="evenodd" clip-rule="evenodd" d="M34.3438 49.5039C34.2795 49.852 34.3053 50.2107 34.4189 50.5459C34.4695 50.7088 34.5342 50.867 34.6123 51.0186C34.6905 51.1805 34.7803 51.3367 34.8809 51.4858C34.983 51.6354 35.0961 51.7773 35.2192 51.9102C35.3325 52.0372 35.4585 52.1524 35.5952 52.2539C35.8905 52.496 36.2478 52.6505 36.6265 52.6997C37.1938 52.6468 37.7351 52.4366 38.1895 52.0928L38.2808 52.0283L38.7588 51.7222C38.8026 51.6955 38.8514 51.678 38.9021 51.6706C38.9529 51.6632 39.0046 51.6661 39.0542 51.6792C39.1524 51.7 39.2389 51.7577 39.2959 51.8403C39.3 51.8598 39.3 51.8799 39.2959 51.8994L39.4517 52.1787C39.6558 52.5493 39.8599 52.9092 40.0693 53.2529C40.2788 53.5967 40.4775 53.9136 40.687 54.1929V54.2251C40.7147 54.2682 40.7453 54.3095 40.7783 54.3486C40.9019 54.5205 41.0361 54.7031 41.1704 54.8857C41.2825 55.0272 41.4125 55.1536 41.5571 55.2617C41.5928 55.2925 41.6351 55.3148 41.6807 55.3269C41.7263 55.339 41.774 55.3406 41.8203 55.3315C41.9575 55.283 42.0735 55.188 42.1479 55.063L42.2231 54.9287L42.3091 54.8052C42.4196 54.7004 42.522 54.5872 42.6152 54.4668C42.66 54.3756 42.6891 54.2776 42.7012 54.1768C42.6458 54.1708 42.59 54.1708 42.5347 54.1768C42.1104 54.123 41.6914 54.0747 41.5518 53.2476V53.1455C41.5518 53.0327 41.5518 52.9575 41.5142 52.9092C41.5119 52.886 41.5119 52.8626 41.5142 52.8393L41.3799 52.7749H41.3315C41.1968 52.7075 41.0792 52.6101 40.9878 52.4902C40.8943 52.3566 40.8252 52.2075 40.7837 52.0498C40.7403 51.8846 40.7134 51.7154 40.7031 51.5449C40.6903 51.3661 40.6903 51.1866 40.7031 51.0078C40.7091 50.9417 40.7333 50.8785 40.7729 50.8252C40.813 50.7744 40.8646 50.7339 40.9233 50.707C41.8973 50.2146 42.9322 49.8534 44.001 49.6328C44.6429 49.5369 45.2909 49.4884 45.9399 49.4878C44.6119 48.5435 43.4533 47.3813 42.5132 46.0503C41.5028 44.7147 40.7206 43.221 40.1982 41.6299C39.8646 42.6267 39.4138 43.5805 38.8555 44.4712C38.0981 45.6797 34.5586 48.6392 34.333 49.5039H34.3438ZM53.2715 41.0068C53.9128 40.4167 54.7272 40.049 55.594 39.958C56.4607 39.867 57.3337 40.0577 58.0836 40.5018C58.8335 40.9459 59.4203 41.6197 59.7572 42.4235C60.0941 43.2273 60.163 44.1182 59.9539 44.9642C59.7447 45.8103 59.2686 46.5664 58.596 47.1206C57.9234 47.6748 57.0901 47.9976 56.2197 48.0411C55.3493 48.0847 54.488 47.8466 53.7635 47.3622C53.039 46.8779 52.4898 46.173 52.1973 45.352L49.6782 45.9429C49.556 45.9446 49.4368 45.9046 49.3404 45.8295C49.244 45.7543 49.1761 45.6486 49.1479 45.5296C49.1197 45.4106 49.133 45.2856 49.1854 45.1752C49.2379 45.0648 49.3265 44.9756 49.4365 44.9224L51.9771 44.3262C51.924 43.7112 52.0126 43.0922 52.236 42.5168C52.4595 41.9414 52.8119 41.4248 53.2661 41.0068H53.2715ZM56.709 42.6182L57.606 42.4141C57.7379 42.3905 57.8738 42.4172 57.9871 42.4887C58.1004 42.5603 58.1828 42.6716 58.2183 42.8008L58.417 43.7246C58.4405 43.8565 58.4139 43.9924 58.3424 44.1057C58.2708 44.219 58.1595 44.3015 58.0303 44.3369L57.6436 44.4228C57.7345 44.6477 57.8968 44.8364 58.1055 44.96C57.712 44.9621 57.3308 44.8229 57.0312 44.5679H56.9614H56.8809C56.9403 44.5024 56.9846 44.4247 57.0106 44.3403C57.0366 44.2558 57.0436 44.1666 57.0312 44.0791L56.9775 43.7246L56.9023 43.3916L56.7788 42.8545C56.7611 42.7916 56.7378 42.7305 56.709 42.6719V42.6182ZM54.1792 42.79L55.5703 42.4731C55.661 42.4526 55.7548 42.4502 55.8464 42.4661C55.938 42.482 56.0255 42.5159 56.1039 42.5659C56.1823 42.6158 56.2501 42.6808 56.3032 42.7571C56.3564 42.8333 56.3939 42.9194 56.4136 43.0103L56.6392 44.0039C56.6534 44.11 56.6413 44.2179 56.6038 44.3182C56.5663 44.4185 56.5047 44.5079 56.4243 44.5786C56.2786 44.7326 56.0925 44.8424 55.8872 44.8955C55.7952 45.0778 55.6776 45.2459 55.5381 45.395C55.3733 45.5643 55.1807 45.7042 54.9688 45.8086C54.9493 45.8205 54.927 45.8267 54.9043 45.8267C54.8816 45.8267 54.8592 45.8205 54.8398 45.8086C54.8255 45.7989 54.8132 45.7864 54.8038 45.7719C54.7944 45.7574 54.788 45.7412 54.785 45.7241C54.782 45.7071 54.7824 45.6896 54.7863 45.6727C54.7902 45.6559 54.7974 45.64 54.8076 45.626C54.8782 45.5397 54.9328 45.4415 54.9688 45.3359C54.9739 45.2752 54.9739 45.2141 54.9688 45.1533L54.7002 45.2124C54.6095 45.233 54.5157 45.2354 54.4241 45.2194C54.3325 45.2035 54.245 45.1696 54.1666 45.1197C54.0882 45.0697 54.0204 45.0047 53.9673 44.9285C53.9141 44.8522 53.8766 44.7661 53.8569 44.6753L53.6313 43.6816C53.6108 43.591 53.6084 43.4971 53.6243 43.4055C53.6402 43.314 53.6741 43.2264 53.7241 43.148C53.774 43.0696 53.839 43.0019 53.9153 42.9487C53.9916 42.8956 54.0776 42.8581 54.1685 42.8384L54.1792 42.79ZM48.3301 31.833C48.933 31.4638 49.625 31.2656 50.3319 31.2598C51.0389 31.254 51.7341 31.4408 52.3429 31.8C52.9518 32.1593 53.4514 32.6776 53.788 33.2993C54.1247 33.9209 54.2858 34.6225 54.254 35.3288C54.2222 36.035 53.9988 36.7193 53.6076 37.3082C53.2165 37.8971 52.6724 38.3684 52.0337 38.6716C51.395 38.9747 50.6859 39.0983 49.9823 39.029C49.2788 38.9597 48.6073 38.7002 48.04 38.2783L46.375 40.0615C46.3352 40.1322 46.28 40.1929 46.2134 40.2391C46.1468 40.2854 46.0707 40.316 45.9906 40.3286C45.9105 40.3412 45.8286 40.3356 45.751 40.312C45.6735 40.2885 45.6022 40.2477 45.5426 40.1927C45.4831 40.1377 45.4367 40.07 45.4071 39.9945C45.3774 39.9191 45.3652 39.8379 45.3714 39.7571C45.3776 39.6762 45.402 39.5978 45.4428 39.5278C45.4836 39.4577 45.5397 39.3978 45.6069 39.3525L47.2988 37.521C47.2176 37.418 47.1422 37.3104 47.0732 37.1987C46.8022 36.7638 46.6198 36.2796 46.5363 35.774C46.4528 35.2684 46.4699 34.7513 46.5866 34.2523C46.7034 33.7533 46.9175 33.2822 47.2167 32.8662C47.5159 32.4501 47.8942 32.0972 48.3301 31.8276V31.833ZM49.3291 35.2598L50.2798 34.1855C50.2531 34.1492 50.2314 34.1095 50.2153 34.0674C50.1425 33.8849 50.1445 33.6811 50.2209 33.5002C50.2973 33.3192 50.442 33.1756 50.6235 33.1006C50.7987 33.0558 50.9842 33.0765 51.1451 33.1589C51.3061 33.2413 51.4313 33.3797 51.4973 33.5481C51.5633 33.7164 51.5655 33.903 51.5035 34.0729C51.4415 34.2427 51.3196 34.384 51.1606 34.4702C51.0162 34.5303 50.8565 34.5434 50.7041 34.5078L49.7051 35.6357V35.668V35.7324L51.0908 35.8345C51.1679 35.6631 51.3084 35.5283 51.4829 35.4585C51.6188 35.403 51.7682 35.3892 51.912 35.4187C52.0558 35.4482 52.1877 35.5198 52.2907 35.6244C52.3938 35.7289 52.4635 35.8617 52.491 36.0059C52.5185 36.1502 52.5026 36.2993 52.4452 36.4344C52.3878 36.5696 52.2916 36.6846 52.1687 36.765C52.0459 36.8454 51.9019 36.8875 51.7551 36.8859C51.6083 36.8844 51.4652 36.8393 51.3441 36.7563C51.223 36.6733 51.1292 36.5562 51.0747 36.4199V36.377L49.6729 36.2749C49.594 36.4362 49.4581 36.5625 49.2915 36.6294C49.2002 36.6748 49.1004 36.7007 48.9986 36.7056C48.8967 36.7104 48.7949 36.694 48.6997 36.6574C48.6045 36.6208 48.518 36.5648 48.4456 36.4929C48.3732 36.4211 48.3165 36.335 48.2791 36.2401C48.2418 36.1452 48.2245 36.0436 48.2285 35.9417C48.2325 35.8398 48.2577 35.7398 48.3024 35.6481C48.3471 35.5564 48.4103 35.4751 48.4881 35.4091C48.566 35.3432 48.6566 35.2942 48.7544 35.2651C48.9274 35.1995 49.1185 35.1995 49.2915 35.2651L49.3291 35.2598ZM21.7217 28.3042V58.667H68.1387V28.3042H21.7217ZM69.2773 26C69.586 26.0014 69.8817 26.1247 70.0999 26.3429C70.3182 26.5612 70.4415 26.8568 70.4429 27.1655V59.4673C70.4427 59.7257 70.3565 59.9768 70.1981 60.181C70.0396 60.3852 69.8177 60.5309 69.5674 60.5952H76.6357C76.9976 60.5952 77.3446 60.7389 77.6004 60.9948C77.8563 61.2506 78 61.5976 78 61.9595C78 62.3213 77.8563 62.6683 77.6004 62.9241C77.3446 63.18 76.9976 63.3237 76.6357 63.3237H13.3643C13.0024 63.3237 12.6554 63.18 12.3996 62.9241C12.1437 62.6683 12 62.3213 12 61.9595C12 61.5976 12.1437 61.2506 12.3996 60.9948C12.6554 60.7389 13.0024 60.5952 13.3643 60.5952H20.1265C19.8761 60.5309 19.6543 60.3852 19.4958 60.181C19.3373 59.9768 19.2512 59.7257 19.251 59.4673V27.1655C19.2524 26.8568 19.3756 26.5612 19.5939 26.3429C19.8122 26.1247 20.1078 26.0014 20.4165 26H69.2773ZM43.0825 61.1055H46.9121C47.0859 61.1055 47.2526 61.1745 47.3755 61.2974C47.4983 61.4203 47.5674 61.5869 47.5674 61.7607C47.5674 61.9345 47.4983 62.1012 47.3755 62.2241C47.2526 62.347 47.0859 62.416 46.9121 62.416H43.0825C42.9087 62.416 42.7421 62.347 42.6192 62.2241C42.4963 62.1012 42.4272 61.9345 42.4272 61.7607C42.4272 61.5869 42.4963 61.4203 42.6192 61.2974C42.7421 61.1745 42.9087 61.1055 43.0825 61.1055ZM42.1748 44.1489C42.5468 43.9884 42.953 43.9238 43.3564 43.9609C43.6126 43.9778 43.8628 44.0458 44.0923 44.1608C44.3218 44.2759 44.5259 44.4358 44.6926 44.631C44.8593 44.8263 44.9852 45.0529 45.0629 45.2976C45.1406 45.5423 45.1685 45.8 45.145 46.0557C45.0907 46.5462 44.9392 47.0209 44.6992 47.4521C44.9176 47.6634 45.154 47.8782 45.4082 48.0967C45.7432 48.3996 46.1024 48.6744 46.4824 48.9185C46.7968 49.12 47.1316 49.2874 47.4814 49.418H47.5728L47.6587 49.375C47.6855 49.3599 47.7092 49.3399 47.7285 49.3159C47.7889 49.197 47.8254 49.0675 47.8359 48.9346C47.855 48.756 47.855 48.576 47.8359 48.3975C47.7127 47.682 47.4751 46.991 47.1323 46.3511C46.6821 45.4592 46.1537 44.609 45.5532 43.8105C44.9694 43.0101 44.3248 42.2559 43.625 41.5547C43.0922 41.0011 42.4912 40.5174 41.8364 40.1152C41.666 40.0153 41.4861 39.9326 41.2993 39.8682C41.1768 39.8267 41.0467 39.812 40.918 39.8252H40.8589L40.8213 39.8896V39.938C40.7834 40.3599 40.829 40.7852 40.9556 41.1895C41.1293 41.8028 41.3613 42.3981 41.6484 42.9673C41.8472 43.3755 42.0405 43.7515 42.2393 44.106L42.1748 44.1489ZM46.3052 50.272C44.6434 50.2217 42.9916 50.5447 41.4712 51.2173C41.4659 51.3013 41.4659 51.3857 41.4712 51.4697C41.4759 51.5662 41.4921 51.6618 41.5195 51.7544C41.5308 51.8125 41.5547 51.8675 41.5894 51.9155C41.6035 51.946 41.6258 51.9721 41.6538 51.9907H41.7021C41.8909 52.0521 42.0535 52.175 42.1641 52.3398C42.2522 52.5067 42.3069 52.6891 42.3252 52.8769V52.9038V53.0112C42.3273 53.0486 42.3367 53.0853 42.3529 53.119C42.3692 53.1528 42.3919 53.183 42.4198 53.2079C42.4478 53.2329 42.4804 53.2521 42.5157 53.2644C42.5511 53.2767 42.5886 53.282 42.626 53.2798C43.2705 53.3496 43.5015 53.6558 43.4961 54.0478C43.4527 54.4622 43.2987 54.8574 43.0503 55.1919L42.9697 55.3101L42.9053 55.4175C42.8139 55.5766 42.6918 55.716 42.5461 55.8275C42.4005 55.9391 42.2341 56.0206 42.0566 56.0674C41.9069 56.0883 41.7545 56.0786 41.6086 56.0389C41.4628 55.9992 41.3265 55.9303 41.208 55.8364C40.8507 55.5465 40.5393 55.2042 40.2842 54.8213L40.2358 54.7622L40.1929 54.7031L40.1177 54.6011C39.8857 54.2832 39.6705 53.9533 39.4731 53.6128C39.2744 53.2852 39.0703 52.9145 38.8608 52.5386L38.748 52.6138L38.5923 52.7158C38.0328 53.1934 37.313 53.441 36.5781 53.4087C36.0447 53.3787 35.5306 53.198 35.0957 52.8877C34.9298 52.754 34.7736 52.6086 34.6284 52.4526C34.3286 52.1352 34.0803 51.7727 33.8926 51.3784C33.7959 51.1873 33.7168 50.9877 33.6562 50.7822C33.4992 50.3133 33.4677 49.8115 33.5649 49.3267C34.0107 47.436 38.1895 45.4058 39.6826 40.6416C39.7578 40.416 39.8169 40.2119 39.8867 40.0239C39.9432 39.8539 40.0132 39.6886 40.0962 39.5298C40.1284 39.4703 40.1642 39.4129 40.2036 39.3579C40.2455 39.3017 40.2963 39.2527 40.354 39.2129C40.4124 39.1685 40.4777 39.134 40.5474 39.1108C40.6219 39.0836 40.6994 39.0655 40.7783 39.0571C41.0116 39.0311 41.2478 39.0549 41.4712 39.127C41.7359 39.2054 41.9901 39.3154 42.2285 39.4546C42.9331 39.8859 43.5808 40.4038 44.1567 40.9961C44.8946 41.7311 45.5735 42.5231 46.187 43.3647C46.8202 44.209 47.3774 45.1077 47.8521 46.0503C48.2249 46.7563 48.4806 47.5182 48.6094 48.3061C48.6469 48.5662 48.6469 48.8303 48.6094 49.0903C48.5813 49.3166 48.5102 49.5353 48.3999 49.7349C48.083 50.272 47.0732 50.272 46.4609 50.272H46.3052Z" fill="#0E918C"/>
</svg>
