<svg width="90" height="90" viewBox="0 0 90 90" fill="none" xmlns="http://www.w3.org/2000/svg">
<circle cx="45" cy="45" r="45" fill="white"/>
<path d="M26.1957 41.988C32.3007 47.5177 38.3918 52.8619 44.5293 58.3545L63.1458 42.1178V29.4764L52.1466 18.3984H26.1957V41.988ZM34.4208 36.9824C33.5718 38.6757 35.0192 42.2106 36.9537 42.6606C37.9557 42.9668 39.315 42.2895 40.2289 41.9833C40.4051 41.9416 40.6232 41.9416 40.7531 42.0251C40.9294 42.1132 41.0593 42.2431 41.1474 42.4194C41.1474 42.4611 41.1474 42.4611 41.1891 42.5075C41.2309 42.6838 41.319 42.8555 41.3654 43.0317C41.8015 44.34 42.1958 45.6064 42.6736 46.6131C42.7154 46.7012 42.7618 46.8311 42.8035 46.9193V46.961C42.9334 47.2672 43.1097 47.5734 43.286 47.8795C43.4623 48.1857 43.5922 48.4038 43.7685 48.58C43.8566 48.6682 43.9865 48.7563 44.1164 48.7563C44.2463 48.7563 44.4226 48.6682 44.6823 48.4501C44.7705 48.3203 44.9004 48.2321 45.0303 48.1022C45.1184 48.0141 45.2483 47.8842 45.4246 47.7079C45.9071 47.2718 46.6029 46.6177 46.8673 46.2652L46.7374 46.2188C45.253 45.7363 45.3411 44.9523 45.4292 44.2564C45.471 44.0384 45.471 43.8204 45.4292 43.6905C45.4292 43.6487 45.3875 43.6905 45.2993 43.6023C45.2576 43.5606 45.2112 43.5606 45.1694 43.5142C44.9514 43.3379 44.8215 43.1663 44.687 42.9482C44.5571 42.6884 44.5107 42.424 44.469 42.1642C44.4272 41.9045 44.469 41.5983 44.5107 41.3338C44.5525 40.9859 44.6406 40.6797 44.7287 40.4153C44.7705 40.2854 44.8169 40.1973 44.905 40.1091C44.9932 40.021 45.1231 39.9792 45.253 39.9329C48.3101 39.2324 49.8827 39.803 51.3672 40.3272C51.5853 40.4153 51.8497 40.5035 52.0677 40.587C48.4029 37.5577 45.6844 31.2857 45.7354 26.9853C45.0813 28.1218 44.1628 29.4718 42.8546 30.8728C41.3886 32.2228 34.9403 35.8041 34.4208 36.9824ZM51.1028 36.9128C51.6688 37.785 52.3229 38.6154 52.9816 39.3159C53.6404 40.0164 54.2898 40.5823 54.9903 41.0184H55.0321C55.0321 41.0184 55.0738 41.0184 55.1202 41.0184C55.162 41.0184 55.2084 41.0184 55.2501 40.9766C55.2919 40.9766 55.3382 40.9349 55.3382 40.9349C55.4681 40.805 55.5563 40.6287 55.598 40.4107C55.6862 40.1509 55.7279 39.8865 55.7279 39.5803C55.7697 38.62 55.598 37.4417 55.2455 36.1288C54.4429 33.1877 52.8935 29.9171 51.1863 27.3981C50.4023 26.2198 49.5719 25.2132 48.8297 24.559C48.5699 24.2993 48.2637 24.123 48.0457 23.9931C47.8276 23.8632 47.6513 23.8168 47.4797 23.8168H47.4379C47.3962 23.8585 47.3498 23.9049 47.308 23.9931C47.0483 24.6472 47.0483 25.6956 47.2199 26.9621C47.3916 28.2285 47.7859 29.6713 48.3101 31.1558C52.3368 30.5898 53.7702 34.6907 51.1028 36.9128ZM54.9486 42.5029C54.9068 42.5029 54.8187 42.5029 54.7723 42.5029C54.7305 42.5029 54.6424 42.5029 54.596 42.4611L54.378 42.4194C53.8537 42.3776 53.2878 42.2431 52.7172 42.1596H52.6754C52.0631 42.0297 51.5389 41.8534 51.0146 41.6354C49.7899 41.1529 48.4817 40.6334 45.9952 41.1529C45.9534 41.2828 45.9534 41.371 45.9534 41.5009C45.9534 41.6307 45.9117 41.807 45.9534 41.9369C45.9534 42.0251 45.9952 42.1132 45.9952 42.1967C45.9952 42.2385 46.037 42.2849 46.037 42.2849L46.0787 42.3266C46.4266 42.5864 46.6029 42.7209 46.7328 43.0689C46.8627 43.375 46.8209 43.6812 46.8209 43.9874C46.7792 44.2936 46.7792 44.5997 47.1271 44.7296C47.5632 44.8595 47.9993 45.0358 48.2637 45.6018C48.3054 45.6435 48.3054 45.7317 48.3518 45.7781C48.3518 45.8244 48.3518 45.9079 48.3518 45.9543C48.2637 46.7847 47.0436 47.963 46.3431 48.6172C46.2132 48.747 46.0833 48.8769 45.9952 48.9651L45.9534 49.0068C45.8653 49.095 45.7772 49.1831 45.689 49.2713V49.4475C45.1231 50.0135 44.5525 50.2362 44.0746 50.2362C43.5504 50.2362 43.1143 49.9764 42.72 49.5821C42.4602 49.3223 42.2376 48.9697 42.0195 48.6218C41.8432 48.2739 41.6716 47.9213 41.4953 47.5316C40.9154 46.3719 40.4283 44.8874 40.0526 43.6441C38.7861 44.1683 37.6078 44.7343 36.1651 44.2982C33.326 43.4029 31.5631 39.1999 32.7136 36.5695C33.6321 34.5608 39.6536 31.9398 42.0149 29.3233C43.5875 27.5327 44.5014 25.8719 45.1602 24.6518V24.6101C45.5545 23.9096 45.8607 23.3436 46.1668 22.9493C46.255 22.8612 46.3431 22.773 46.4266 22.6895C46.5148 22.6014 46.6029 22.5596 46.7328 22.4715C46.8627 22.4715 46.9508 22.4297 47.0807 22.3833C47.2106 22.3833 47.3405 22.3833 47.4751 22.3833C47.823 22.4251 48.1756 22.5132 48.5652 22.6895C48.9596 22.8658 49.3075 23.1256 49.7018 23.4735C50.5322 24.2158 51.4507 25.2642 52.3229 26.5306C53.2414 27.8389 54.0718 29.3697 54.814 30.9424C55.5563 32.5568 56.2104 34.2175 56.6465 35.7902C57.0408 37.2329 57.2124 38.5411 57.1707 39.6313C57.1289 40.1138 57.0408 40.5035 56.9062 40.8978C56.7764 41.2921 56.6001 41.5983 56.3403 41.8998L56.2985 41.9416L56.2568 42.0251C56.0805 42.155 55.9088 42.2431 55.7326 42.3312C55.5563 42.4194 55.3846 42.4611 55.2501 42.4611C55.2084 42.4611 55.1202 42.4611 55.0738 42.4611L54.9486 42.5029ZM65.5581 40.188C65.855 39.9329 66.1983 39.8169 66.5415 39.8169C66.8384 39.8169 67.1075 39.905 67.3766 40.0535C67.5714 40.1741 67.7338 40.3225 67.8822 40.4849C68.2673 40.9302 68.5688 41.6307 68.5688 42.2106V70.7269C68.5688 71.3531 68.3137 71.9191 67.9008 72.332C67.4833 72.7495 66.9173 73 66.2957 73H23.2778C22.6515 73 22.0902 72.7495 21.6727 72.332C21.2551 71.9145 21 71.3485 21 70.7269V42.2153C21 41.6354 21.2969 40.921 21.7005 40.4756C21.8489 40.3133 22.0113 40.1648 22.2062 40.0581C22.4567 39.9097 22.7257 39.8215 23.0226 39.8215C23.2917 39.8215 23.5561 39.8957 23.8113 40.0442V17.0995C23.8113 16.4917 24.303 16 24.9154 16H52.8471C53.1904 16 53.5012 16.1484 53.696 16.4036L65.2612 27.9641C65.4699 28.1729 65.572 28.4558 65.572 28.7388V29.0496C65.572 29.096 65.5859 29.1378 65.5859 29.1842C65.5859 29.2306 65.5859 29.2723 65.572 29.3187V40.2066L65.5581 40.188ZM43.787 60.8457L39.0969 56.6474L23.185 70.5923V70.7129C23.185 70.7269 23.185 70.7593 23.1989 70.7593C23.2128 70.7733 23.2267 70.7733 23.2453 70.7733H66.2539C66.2678 70.7733 66.3003 70.7733 66.3003 70.7593C66.3142 70.7454 66.3142 70.7315 66.3142 70.7129V70.6387L50.1843 56.4989L45.2158 60.8318C44.7983 61.189 44.1721 61.2029 43.7592 60.8179L43.787 60.8457ZM37.4315 55.1768L23.1711 42.4379V67.6651L37.4315 55.1768ZM66.3328 67.7208V42.4379L51.8822 55.0562L66.3328 67.7208Z" fill="#DEBC0A"/>
</svg>
