<svg width="90" height="90" viewBox="0 0 90 90" fill="none" xmlns="http://www.w3.org/2000/svg">
<circle cx="45" cy="45" r="45" fill="white"/>
<rect x="17" y="36" width="9" height="25" rx="1" fill="#F6830F"/>
<rect x="28" y="26" width="9" height="35" rx="1" fill="#F6830F"/>
<rect x="65" y="17" width="9" height="44" rx="1" fill="#F6830F"/>
<path d="M53.2447 41.7122L53.2474 41.7128L53.2471 41.714C55.5511 42.1873 57.4457 43.5498 58.6457 45.3697C59.8437 47.1868 60.3498 49.4629 59.879 51.7654L59.8802 51.7657L59.879 51.7712L59.8777 51.7779L59.8765 51.7776C59.6853 52.7053 59.3498 53.5671 58.899 54.3423C58.8234 54.4725 58.7468 54.5967 58.6701 54.7145L58.6698 54.7157C58.303 55.2773 57.8724 55.791 57.3906 56.2467L61.3512 61.6074L61.3536 61.6107L61.3748 61.6405L61.3763 61.6427C61.5969 61.9599 61.6745 62.34 61.6206 62.6985C61.5671 63.053 61.3845 63.3893 61.0857 63.6278L61.0833 63.6301L61.0471 63.658L61.0401 63.6626L61.0102 63.6843L61.0068 63.6873C60.6893 63.9078 60.3099 63.9852 59.9511 63.9311C59.5971 63.8778 59.2604 63.6955 59.0218 63.3963L59.0197 63.394L58.9916 63.3577L58.9876 63.3527L54.9367 57.87C54.7685 57.9434 54.5984 58.011 54.4275 58.0727C54.1958 58.1565 53.9582 58.2315 53.7184 58.2952C52.4854 58.6238 51.157 58.6784 49.8207 58.4043L49.8204 58.4054L49.8178 58.4049L49.818 58.4037C47.5141 57.9304 45.6191 56.5678 44.4191 54.7479C43.2206 52.9307 42.7151 50.6544 43.1857 48.3525L43.1846 48.3523L43.1857 48.3467L43.1863 48.3441L43.1874 48.3443C43.6607 46.0404 45.0234 44.1454 46.8432 42.9454C48.6603 41.7476 50.9364 41.2415 53.2389 41.7123L53.2392 41.7111L53.2447 41.7122ZM52.8634 43.5846L52.8631 43.5857L52.8605 43.5852L52.855 43.5841L52.8552 43.5829C51.0707 43.218 49.3046 43.6114 47.8937 44.5416C46.4829 45.4718 45.425 46.9419 45.058 48.7282L45.0592 48.7285L45.0586 48.7311L45.0575 48.7366L45.0563 48.7364C44.6915 50.5209 45.0845 52.2861 46.0151 53.6974C46.9453 55.1083 48.4154 56.1663 50.2016 56.5331L50.2018 56.5319L50.2045 56.5324L50.21 56.5336L50.2098 56.5347C51.9943 56.8996 53.7596 56.5064 55.171 55.576C56.5817 54.6458 57.6395 53.1762 58.0063 51.39L58.0053 51.3898L58.0059 51.3871L58.007 51.3816L58.008 51.3818C58.373 49.5973 57.9795 47.8312 57.0495 46.4203C56.1193 45.0094 54.6497 43.9516 52.8634 43.5846Z" fill="#F6830F"/>
<rect x="40" y="21" width="22" height="39" stroke="#F6830F" stroke-width="2" stroke-linecap="square" stroke-dasharray="4 4"/>
</svg>
