<svg width="90" height="90" viewBox="0 0 90 90" fill="none" xmlns="http://www.w3.org/2000/svg">
<circle cx="45" cy="45" r="45" fill="white"/>
<path fill-rule="evenodd" clip-rule="evenodd" d="M44.1538 64.8667C38.2513 64.8667 42.1385 65.3282 42.9436 58.9128C44.1487 49.3179 53.2718 49.3179 54.6205 58.9128C55.482 65.0667 59.1846 64.8667 53.4051 64.8667H51.0974C51.0974 66.4462 50.8513 66.2615 52.4769 67.1436C53.3077 67.5949 54.8564 67.9282 56.1744 68.4513C58.1949 66.7282 61.7795 67.8667 62.1487 64.7026C62.2051 64.2205 61.0667 63.0359 60.8102 62.1385C60.2564 61.2462 60.0564 59.841 60.6615 58.9026C60.9026 58.5282 60.8051 57.8359 60.8051 57.3231C60.8051 52.1949 69.759 52.1949 69.759 57.3231C69.759 57.9641 69.6154 58.4923 69.959 59C70.5487 59.8513 70.2461 61.359 69.7487 62.1436C69.4308 63.0718 68.2102 64.1949 68.3282 64.7077C69.159 68.9231 74.6718 64.5333 75.1897 71H13.8308C14.4872 63.4051 22.9949 68.0769 23.6154 62.7949C23.6872 62.2 22.2769 60.5795 21.9487 59.4872C21.2564 58.3846 21.0103 56.6308 21.7692 55.4615C22.0667 55 21.9385 54.3282 21.9385 53.6923C21.9385 47.3436 33.0667 47.3385 33.0667 53.6923C33.0667 54.4974 32.882 54.9487 33.3179 55.5795C34.0513 56.6359 33.6718 58.5077 33.0564 59.4872C32.6667 60.6359 31.1641 62.1487 31.2923 62.7949C32.2256 67.5385 38.4718 63.8205 40.1487 69.0513C41.5128 68.2154 43.8103 67.9077 45.2769 67.041C46.7436 66.1744 46.4667 66.3077 46.4564 64.8769L44.1538 64.8667ZM13 48.4615H16.5897C16.3123 48.3875 16.0667 48.2245 15.8907 47.9976C15.7147 47.7707 15.618 47.4923 15.6154 47.2051V20.3077C15.6167 19.9613 15.7549 19.6295 15.9999 19.3845C16.2448 19.1396 16.5767 19.0014 16.9231 19H71.7487C72.0951 19.0014 72.4269 19.1396 72.6719 19.3845C72.9168 19.6295 73.055 19.9613 73.0564 20.3077V47.2051C73.0575 47.4952 72.9617 47.7773 72.7843 48.0067C72.6068 48.2362 72.3579 48.3999 72.0769 48.4718H76.0154V51.5487H71.041C70.2488 50.906 69.3496 50.4077 68.3846 50.0769C66.3633 49.3658 64.1598 49.3658 62.1385 50.0769V50.0769C61.1874 50.4016 60.2993 50.8873 59.5128 51.5128H55.8564C55.1727 50.6053 54.3404 49.8199 53.3949 49.1897C52.0036 48.2588 50.3663 47.7642 48.6923 47.7692C47.3044 47.7999 45.9429 48.1548 44.7168 48.8058C43.4906 49.4567 42.4338 50.3855 41.6308 51.5179H36.7846C36.3729 49.7905 35.3898 48.2527 33.9949 47.1538H71.3333V20.7179H45.1795V39.7436C44.7252 39.6275 44.2491 39.6275 43.7949 39.7436V20.7179H17.5179V47.1538H21.0154C19.6204 48.2527 18.6374 49.7905 18.2256 51.5179H13V48.441V48.4615ZM26.5282 29.7282C26.3677 29.7269 26.2099 29.7695 26.0718 29.8513C26.0123 29.885 25.9655 29.9372 25.9385 30C25.9059 30.0778 25.8918 30.162 25.8974 30.2462C25.9428 30.6332 26.0936 31.0004 26.3333 31.3077V31.3077L27.2462 32.759C27.584 33.352 27.9977 33.8985 28.4769 34.3846C28.948 34.8385 29.5766 35.0922 30.2308 35.0923C30.573 35.099 30.9131 35.0371 31.2311 34.9103C31.549 34.7835 31.8384 34.5943 32.082 34.3538C32.5776 33.8372 33.0035 33.2579 33.3487 32.6308L34.3744 30.9333C34.532 30.6597 34.6069 30.3461 34.5897 30.0308C34.5897 29.9282 34.4513 29.8769 34.2615 29.8718H34.1333H33.9897C33.9644 29.8769 33.9382 29.8769 33.9128 29.8718C33.8191 29.882 33.7245 29.882 33.6308 29.8718L33.9846 28.3333C31.3641 28.7436 29.4103 26.7949 26.641 27.9436L26.8462 29.7692C26.7404 29.7797 26.6339 29.7797 26.5282 29.7692V29.7282ZM30.7949 37.5949L31.6 40.3949C32.2256 39.0821 32.8718 37.7795 33.0205 36.2923C32.758 35.9637 32.5132 35.6214 32.2872 35.2667L32.0923 34.9897C31.553 35.3884 30.8961 35.596 30.2256 35.5795C29.4952 35.5842 28.7886 35.3195 28.241 34.8359L27.959 35.2462C27.7641 35.5282 27.5436 35.8462 27.3333 36.1179C27.6318 37.5988 28.1504 39.0266 28.8718 40.3538L29.6769 37.5538C28.1128 35.5692 32.4359 35.6359 30.8051 37.5538L30.7949 37.5949ZM32.4154 34.7487L32.6256 35.0564C32.7692 35.2615 32.9231 35.4923 33.0769 35.6974C34.1487 36.6256 37.2103 36.8154 38.3538 37.4513C39.4974 38.0872 39.7949 39.559 40.1026 40.841H20.1795C20.3385 39.9333 20.4769 38.9692 21.0051 38.2769C21.2616 37.9424 21.5846 37.6648 21.9538 37.4615C23.041 36.8564 25.8564 36.6564 27.0513 35.8462C27.241 35.6051 27.4308 35.3333 27.6103 35.0667C27.7128 34.9077 27.8154 34.759 27.8974 34.6462C27.9118 34.6266 27.9291 34.6093 27.9487 34.5949C27.5193 34.121 27.1379 33.6056 26.8103 33.0564L25.8974 31.6C25.6086 31.2123 25.4313 30.753 25.3846 30.2718C25.3778 30.11 25.4076 29.9487 25.4718 29.8C25.5426 29.6505 25.6524 29.523 25.7897 29.4308C25.8594 29.3861 25.9333 29.3483 26.0103 29.3179C25.9453 28.4443 25.9299 27.5677 25.9641 26.6923C26.0139 26.1633 26.1905 25.6541 26.4788 25.2077C26.7672 24.7614 27.1588 24.3911 27.6205 24.1282C27.8814 23.961 28.16 23.8234 28.4513 23.7179C28.9641 23.5282 28.7231 22.7282 29.3026 22.6923C30.6718 22.6615 32.8923 23.8154 33.7795 24.7436C34.3306 25.3628 34.6464 26.1561 34.6718 26.9846L34.6154 29.3538C34.7358 29.3853 34.845 29.4501 34.9303 29.5408C35.0155 29.6315 35.0735 29.7445 35.0974 29.8667C35.1489 30.2999 35.0608 30.7382 34.8461 31.1179V31.1179V31.1436L33.8205 32.8615C33.4545 33.5305 32.999 34.1464 32.4667 34.6923V34.7231L32.4154 34.7487ZM54.1538 32.6974L55.0513 32.6923H55.8103C54.9231 29.9641 55.2205 27.4564 57.3487 25.3231C57.5555 25.9499 57.8902 26.527 58.3316 27.0178C58.7729 27.5086 59.3114 27.9024 59.9128 28.1744C60.6057 28.6995 61.2463 29.2903 61.8256 29.9385C61.9385 29.4872 61.5179 28.9385 61.0102 28.3744C61.543 28.6043 61.9759 29.0172 62.2308 29.5385C62.5435 30.1983 62.6266 30.9439 62.4667 31.6564C62.4158 32.0076 62.3246 32.3518 62.1949 32.6821H63.4564C64.7897 29.8308 63.9692 25.6 61.2205 23.8051C60.3846 23.2564 59.7846 23.2923 58.8051 23.2923C57.682 23.2923 57.1077 23.3282 56.1487 23.9641C54.7282 24.9026 53.8615 26.5282 53.4923 28.7744C53.4205 29.8974 53.3692 31.8513 54.1538 32.7385V32.6974ZM63.7282 37.0667C63.217 36.0639 62.5642 35.1398 61.7897 34.3231C63.1705 34.7971 64.5058 35.3944 65.7795 36.1077C66.3378 36.4005 66.8006 36.8472 67.1128 37.3949C67.6872 38.4769 67.7077 39.6564 67.9179 40.8205H49.6564C49.8667 39.6564 49.8923 38.4769 50.4667 37.3949C50.7782 36.8484 51.2389 36.402 51.7949 36.1077C53.0691 35.3954 54.4043 34.7981 55.7846 34.3231C55.009 35.1377 54.3575 36.0622 53.8513 37.0667L55.3487 37.0308L58.7897 40.0256L62.2308 37.0513L63.7282 37.0872V37.0667ZM57.6154 37.9026L58.2974 35.5385L57.9641 35.1744C57.8943 35.0972 57.8476 35.0019 57.8295 34.8994C57.8113 34.7969 57.8224 34.6913 57.8615 34.5949C58.0461 34.2359 58.4205 34.3026 58.7692 34.3026C59.1179 34.3026 59.5897 34.2359 59.7026 34.6923C59.7184 34.7764 59.7161 34.863 59.6958 34.9461C59.6754 35.0292 59.6375 35.1071 59.5846 35.1744L59.2513 35.5385L59.9333 37.9026L58.7744 38.8205L57.6154 37.9026Z" fill="#F6830F"/>
</svg>
