<svg width="152" height="144" viewBox="0 0 152 144" fill="none" xmlns="http://www.w3.org/2000/svg">
<path d="M76.2 144C61.9333 144 49.0667 140.933 37.6 134.8C26.1333 128.533 17.1333 119.933 10.6 109C4.06667 97.9333 0.800001 85.6 0.800001 72C0.800001 58.4 4.06667 46.1333 10.6 35.2C17.1333 24.1333 26.1333 15.5333 37.6 9.39999C49.0667 3.13333 61.9333 -7.62939e-06 76.2 -7.62939e-06C90.4667 -7.62939e-06 103.333 3.13333 114.8 9.39999C126.267 15.5333 135.267 24.0667 141.8 35C148.333 45.9333 151.6 58.2667 151.6 72C151.6 85.7333 148.333 98.0667 141.8 109C135.267 119.933 126.267 128.533 114.8 134.8C103.333 140.933 90.4667 144 76.2 144ZM76.2 121.2C85.5333 121.2 93.9333 119.133 101.4 115C108.867 110.733 114.733 104.867 119 97.4C123.267 89.8 125.4 81.3333 125.4 72C125.4 62.6667 123.267 54.2667 119 46.8C114.733 39.2 108.867 33.3333 101.4 29.2C93.9333 24.9333 85.5333 22.8 76.2 22.8C66.8667 22.8 58.4667 24.9333 51 29.2C43.5333 33.3333 37.6667 39.2 33.4 46.8C29.1333 54.2667 27 62.6667 27 72C27 81.3333 29.1333 89.8 33.4 97.4C37.6667 104.867 43.5333 110.733 51 115C58.4667 119.133 66.8667 121.2 76.2 121.2Z" fill="black"/>
</svg>
