<svg width="70" height="71" viewBox="0 0 70 71" fill="none" xmlns="http://www.w3.org/2000/svg">
<path d="M31.2571 1.65486C27.9997 3.45684 26.8908 7.47665 28.6928 11.0113C31.465 16.3479 39.9205 15.3083 41.4452 9.48655C43.0393 3.45684 36.8017 -1.39464 31.2571 1.65486ZM37.8413 4.49645C40.0591 6.71427 39.8512 9.41724 37.2868 11.2885C35.6235 12.5361 35.2076 12.5361 33.3363 11.7737C28.6928 9.90239 30.1482 3.11031 35.2076 2.83308C35.6928 2.76377 36.871 3.52615 37.8413 4.49645Z" fill="black"/>
<path d="M6.23828 10.3187C6.23828 13.6455 6.4462 14.5465 7.27789 14.5465C7.97095 14.5465 8.31749 13.8534 8.31749 12.6752C8.31749 10.8732 8.66402 11.0811 13.4462 15.8633C20.3769 22.7247 21.763 21.7544 15.2482 14.5465C10.8125 9.62568 10.466 9.07122 11.9214 8.8633C12.8224 8.72469 13.5155 8.17023 13.5155 7.61578C13.5155 6.8534 12.5452 6.50687 9.91155 6.36825L6.23828 6.16033V10.3187Z" fill="black"/>
<path d="M55.7902 6.92261C55.0971 8.03152 56.0674 9.00182 57.8001 9.00182C59.1862 9.00182 58.5625 9.8335 54.1268 14.1998C49.8991 18.2889 48.9981 19.4672 49.7605 20.2295C50.4536 20.9226 51.5625 20.0909 55.6516 16.0711C58.4239 13.2988 60.9189 11.081 61.2654 11.081C61.5427 11.081 61.612 11.8434 61.4041 12.8137C61.0575 14.1998 61.1961 14.5464 62.3744 14.5464C63.6219 14.5464 63.7605 14.1305 63.7605 10.388V6.22954H60.0179C57.9387 6.22954 55.9981 6.50677 55.7902 6.92261Z" fill="black"/>
<path d="M28.2775 17.2499C21.832 18.636 19.4756 22.6558 19.4062 32.2895C19.4062 37.7648 19.6142 38.943 21.0003 40.9529C21.832 42.2697 23.4261 43.7252 24.4657 44.2103L26.3369 45.1113V57.9331C26.3369 68.8143 26.4756 70.6855 27.3765 70.6855C28.2775 70.6855 28.4162 67.636 28.4162 47.4677C28.4162 27.2994 28.2775 24.2499 27.3765 24.2499C26.4756 24.2499 26.3369 25.7053 26.3369 33.2598C26.3369 38.8044 26.0597 42.2697 25.6439 42.2697C24.2577 42.2697 22.2478 39.5667 21.7627 37.141C21.5548 35.7549 21.4855 32.2895 21.6241 29.4479C21.832 24.6657 22.0399 24.042 24.1191 21.9628C26.3369 19.8143 26.4756 19.745 33.5449 19.537C45.1884 19.1212 47.129 20.9232 47.129 32.4281C47.129 38.6657 46.9904 39.3588 45.535 40.745C42.5548 43.5865 42.2775 42.8935 42.2775 33.2598C42.2775 25.7053 42.1389 24.2499 41.2379 24.2499C40.3369 24.2499 40.1983 27.2301 40.1983 47.0519C40.1983 63.0618 40.4062 70.0618 40.9607 70.4083C42.4855 71.3093 42.7627 69.0915 42.9013 57.3093C42.9706 46.9133 43.1785 45.3192 44.1488 44.6954C44.8419 44.2796 46.228 43.1707 47.2676 42.1311C49.2082 40.3291 49.2082 40.1212 49.2082 32.2202C49.2082 23.2103 48.6538 21.4776 44.7033 18.844C42.9706 17.5964 41.2379 17.1806 36.6637 16.9727C33.4756 16.8341 29.733 16.9034 28.2775 17.2499Z" fill="black"/>
<path d="M2.21782 32.7745C0.970297 34.022 0 35.3388 0 35.7547C0 36.1705 1.10891 37.4873 2.42574 38.8042C4.29703 40.6062 5.05941 40.9527 5.68317 40.3289C6.30693 39.7052 6.16832 39.22 5.19802 38.1111C3.9505 36.725 3.9505 36.725 10.604 36.725C16.1485 36.725 17.3267 36.517 17.3267 35.6854C17.3267 34.8537 16.1485 34.6458 10.604 34.6458C4.22772 34.6458 4.0198 34.5764 5.05941 33.3982C5.75248 32.7052 6.23762 31.7349 6.23762 31.319C6.23762 29.7943 4.43564 30.4873 2.21782 32.7745Z" fill="black"/>
<path d="M63.4164 31.1121C63.2085 31.4586 63.555 32.221 64.1095 32.7755C64.6639 33.3992 65.1491 34.023 65.1491 34.2309C65.1491 34.4388 62.3768 34.6467 58.9115 34.6467C53.852 34.6467 52.6738 34.8547 52.6738 35.6864C52.6738 36.518 53.852 36.726 59.0501 36.726C65.357 36.726 65.357 36.726 64.1095 38.1121C63.1392 39.221 63.0006 39.7062 63.6243 40.3299C64.2481 40.9537 65.0798 40.5378 67.2283 38.4586L70.0006 35.7557L67.4362 33.122C64.7332 30.3497 64.1095 30.0725 63.4164 31.1121Z" fill="black"/>
<path d="M33.5447 44.5577C33.4061 45.0428 33.3368 51.0725 33.4061 57.8646C33.614 68.3992 33.7526 70.3398 34.6536 70.3398C35.5546 70.3398 35.6932 68.3299 35.9011 56.9636C36.0398 45.32 35.9011 43.6567 35.0002 43.6567C34.3764 43.6567 33.7526 44.0725 33.5447 44.5577Z" fill="black"/>
<path d="M13.169 55.576C8.87194 60.2889 8.66402 60.4275 8.4561 58.6948C8.31749 57.6552 7.76303 56.8235 7.20858 56.8235C6.51551 56.8235 6.23828 57.7938 6.23828 60.6354V64.4473H10.0502C12.9611 64.4473 13.862 64.2393 13.862 63.4077C13.862 62.7839 13.2383 62.3681 12.1294 62.3681C11.1591 62.3681 10.3967 62.2294 10.3967 62.0908C10.3967 61.9522 12.5452 59.5265 15.1789 56.7542C17.8125 53.9126 19.8224 51.4176 19.6838 51.1403C18.9214 49.8928 17.466 50.9324 13.169 55.576Z" fill="black"/>
<path d="M49.6229 51.1403C49.415 51.4176 51.6328 54.1205 54.5437 57.0314L59.811 62.3681H57.6625C56.1377 62.3681 55.4447 62.7146 55.4447 63.4077C55.4447 64.2393 56.3457 64.4473 59.6031 64.4473H63.7615V60.5661C63.7615 57.3087 63.5536 56.7542 62.5833 56.9621C61.9595 57.1007 61.1971 57.8631 60.9892 58.7641C60.6427 60.2195 60.2268 59.9423 55.7912 55.4374C51.009 50.5859 50.316 50.1007 49.6229 51.1403Z" fill="black"/>
</svg>
