<svg width="90" height="90" viewBox="0 0 90 90" fill="none" xmlns="http://www.w3.org/2000/svg">
<circle cx="45" cy="45" r="45" fill="white"/>
<path d="M40 78C52.6666 78.1667 77.8 70.8 77 40C76 1.50002 24 13.5 40 11.5C33.3333 11.3333 19.3 14.9 16.5 30.5C15.5 34.8333 17.4 43.9 33 45.5" stroke="#DEBC0A" stroke-dasharray="2 2"/>
<circle cx="36.5" cy="12.5" r="7.25" fill="white" stroke="#DEBC0A" stroke-width="0.5"/>
<circle cx="19.5" cy="40.5" r="4.25" fill="white" stroke="#DEBC0A" stroke-width="0.5"/>
<path d="M19.5908 41.7988H19.0459C19.0479 41.6113 19.0645 41.458 19.0957 41.3389C19.1289 41.2178 19.1826 41.1074 19.2568 41.0078C19.3311 40.9082 19.4297 40.7949 19.5527 40.668C19.6426 40.5762 19.7246 40.4902 19.7988 40.4102C19.875 40.3281 19.9365 40.2402 19.9834 40.1465C20.0303 40.0508 20.0537 39.9365 20.0537 39.8037C20.0537 39.6689 20.0293 39.5527 19.9805 39.4551C19.9336 39.3574 19.8633 39.2822 19.7695 39.2295C19.6777 39.1768 19.5635 39.1504 19.4268 39.1504C19.3135 39.1504 19.2061 39.1709 19.1045 39.2119C19.0029 39.2529 18.9209 39.3164 18.8584 39.4023C18.7959 39.4863 18.7637 39.5967 18.7617 39.7334H18.2197C18.2236 39.5127 18.2783 39.3232 18.3838 39.165C18.4912 39.0068 18.6357 38.8857 18.8174 38.8018C18.999 38.7178 19.2021 38.6758 19.4268 38.6758C19.6748 38.6758 19.8857 38.7207 20.0596 38.8105C20.2354 38.9004 20.3691 39.0293 20.4609 39.1973C20.5527 39.3633 20.5986 39.5605 20.5986 39.7891C20.5986 39.9648 20.5625 40.127 20.4902 40.2754C20.4199 40.4219 20.3291 40.5596 20.2178 40.6885C20.1064 40.8174 19.9883 40.9404 19.8633 41.0576C19.7559 41.1572 19.6836 41.2695 19.6465 41.3945C19.6094 41.5195 19.5908 41.6543 19.5908 41.7988ZM19.0225 42.7275C19.0225 42.6396 19.0498 42.5654 19.1045 42.5049C19.1592 42.4443 19.2383 42.4141 19.3418 42.4141C19.4473 42.4141 19.5273 42.4443 19.582 42.5049C19.6367 42.5654 19.6641 42.6396 19.6641 42.7275C19.6641 42.8115 19.6367 42.8838 19.582 42.9443C19.5273 43.0049 19.4473 43.0352 19.3418 43.0352C19.2383 43.0352 19.1592 43.0049 19.1045 42.9443C19.0498 42.8838 19.0225 42.8115 19.0225 42.7275Z" fill="#DEBC0A"/>
<circle cx="71.5" cy="60.5" r="7.25" fill="white" stroke="#DEBC0A" stroke-width="0.5"/>
<path d="M28.0375 68.9182L28.0394 68.9171L28.0399 68.918C29.7068 67.9874 31.5935 67.8203 33.2958 68.3025C34.9955 68.7842 36.5132 69.9147 37.4446 71.5794L37.4454 71.5789L37.4477 71.5829L37.4504 71.5877L37.4495 71.5882C37.8239 72.2597 38.0746 72.9671 38.2085 73.6826C38.2311 73.8027 38.2498 73.9196 38.2651 74.0328L38.2656 74.0336C38.3379 74.5732 38.3456 75.1172 38.2911 75.6527L43.5673 76.8475L43.5705 76.8482L43.5993 76.8553L43.6014 76.8558C43.9052 76.9338 44.1544 77.1263 44.3113 77.3752C44.4663 77.6214 44.5324 77.9249 44.4752 78.2299L44.475 78.2326L44.4675 78.2689L44.4657 78.2755L44.4588 78.3047L44.4583 78.3083C44.3801 78.6122 44.188 78.8609 43.9387 79.0179C43.693 79.1728 43.3894 79.2392 43.0841 79.1818L43.0816 79.1815L43.0451 79.1742L43.04 79.1732L37.6436 77.9513C37.5791 78.0856 37.5104 78.2173 37.4382 78.3458C37.3402 78.5202 37.2339 78.6922 37.1203 78.8585C36.5367 79.7142 35.7493 80.452 34.7827 80.992L34.7832 80.9928L34.7812 80.9939L34.7808 80.9931C33.1139 81.9237 31.2269 82.0909 29.5246 81.6087C27.8246 81.1272 26.3071 79.9963 25.3759 78.3321L25.3751 78.3325L25.3729 78.3285L25.3718 78.3266L25.3726 78.3261C24.442 76.6592 24.2748 74.7722 24.7571 73.0699C25.2388 71.3704 26.3693 69.8527 28.034 68.9213L28.0335 68.9204L28.0375 68.9182ZM28.7958 70.2711L28.7962 70.2719L28.7943 70.273L28.7903 70.2752L28.7899 70.2744C27.4997 70.9962 26.6229 72.1743 26.2489 73.494C25.875 74.8136 26.0042 76.2779 26.7258 77.5704L26.7266 77.5699L26.7277 77.5718L26.7299 77.5758L26.7291 77.5763C27.451 78.8664 28.6283 79.7429 29.9485 80.1169C31.2682 80.4908 32.7325 80.3617 34.0248 79.6401L34.0243 79.6392L34.0262 79.6381L34.0302 79.6359L34.0307 79.6368C35.3208 78.9149 36.1973 77.7373 36.5714 76.4173C36.9452 75.0977 36.8162 73.6337 36.0947 72.3414L36.0939 72.3419L36.0929 72.3399L36.0906 72.3359L36.0913 72.3355C35.3696 71.0453 34.1914 70.1685 32.8719 69.7945C31.5522 69.4205 30.0882 69.5495 28.7958 70.2711Z" fill="#DEBC0A"/>
<path d="M75.6355 57.2689C75.6337 57.253 75.6311 57.2361 75.6311 57.2184C75.6311 57.2016 75.6319 57.1848 75.6355 57.168V56.0621C74.8599 55.9886 74.0603 56.0736 73.3617 56.3383C72.7092 56.5862 72.1461 56.9926 71.7804 57.5761V63.8759C72.3497 63.496 72.9314 63.1835 73.5291 62.971C74.21 62.7284 74.9103 62.6133 75.6355 62.6708V57.2689ZM71.1101 63.8104V57.5655C70.7586 56.9457 70.1902 56.5313 69.5491 56.2852C68.8222 56.0072 68.005 55.9443 67.2931 56.0452L67.255 62.6903C68.0315 62.662 68.7921 62.7611 69.5066 62.9949C70.076 63.1799 70.6152 63.4518 71.1101 63.8104Z" fill="#DEBC0A"/>
<path d="M66.5861 63.017L66.6171 57.5548H66V64.5053C66.8473 64.2867 67.6973 64.1476 68.5544 64.1414C69.3451 64.137 70.1358 64.2468 70.9282 64.5151C70.4359 64.1167 69.887 63.8227 69.3008 63.6323C68.5633 63.3915 67.7655 63.3118 66.9474 63.3818C66.7623 63.3968 66.6012 63.2596 66.5853 63.0754C66.5835 63.055 66.5835 63.0356 66.5861 63.017ZM72.1049 64.4637C72.846 64.2309 73.5854 64.1352 74.3256 64.1397C75.1818 64.1441 76.0327 64.2849 76.88 64.5036V57.5548H76.3063V63.0471C76.3063 63.2321 76.1557 63.3826 75.9707 63.3826C75.9441 63.3826 75.9184 63.38 75.8936 63.3738C75.1596 63.2587 74.4486 63.3543 73.7545 63.6013C73.1949 63.8006 72.6459 64.0989 72.1049 64.4637Z" fill="#DEBC0A"/>
<path fill-rule="evenodd" clip-rule="evenodd" d="M32.8805 29H63.5135C63.7468 29.0007 63.9704 29.0937 64.1354 29.2587C64.3003 29.4236 64.3933 29.6472 64.394 29.8805V50.1795C64.3933 50.4128 64.3003 50.6363 64.1354 50.8013C63.9704 50.9663 63.7468 51.0593 63.5135 51.06H32.8805C32.7645 51.0596 32.6498 51.0364 32.5427 50.9917C32.4357 50.947 32.3386 50.8817 32.2568 50.7994C32.175 50.7172 32.1103 50.6196 32.0662 50.5124C32.0222 50.4051 31.9997 50.2902 32 50.1742V29.8752C32.0021 29.6428 32.0957 29.4206 32.2605 29.2568C32.4253 29.0929 32.6481 29.0007 32.8805 29V29ZM45.0072 45.4764H45.0388L45.8745 44.994C45.8804 44.988 45.8849 44.9808 45.8877 44.9729C45.8891 44.97 45.8898 44.9669 45.8898 44.9637C45.8898 44.9605 45.8891 44.9573 45.8877 44.9545L44.9729 43.3727C44.9649 43.3598 44.9595 43.3455 44.9571 43.3305C44.9528 43.3117 44.9524 43.2921 44.9559 43.2731C44.9593 43.254 44.9665 43.2359 44.9771 43.2196C44.9876 43.2034 45.0013 43.1895 45.0174 43.1787C45.0334 43.1678 45.0515 43.1603 45.0704 43.1566L46.4149 42.8771C46.5152 42.8587 46.6105 42.8191 46.6944 42.7611C46.7216 42.7421 46.7426 42.7155 46.755 42.6847C46.7586 42.6764 46.7605 42.6674 46.7605 42.6583C46.7605 42.6492 46.7586 42.6403 46.755 42.6319C46.7245 42.585 46.684 42.5454 46.6364 42.5159L42.0783 39.3709L42.5028 44.8833C42.5039 44.9391 42.5174 44.9941 42.5423 45.0441C42.5469 45.0527 42.5533 45.0601 42.561 45.0661C42.5687 45.072 42.5776 45.0762 42.5871 45.0784C42.6196 45.0824 42.6526 45.0769 42.682 45.0625C42.7746 45.0206 42.8565 44.9584 42.9219 44.8806L43.8367 43.8525C43.847 43.8399 43.8595 43.8292 43.8736 43.8209C43.9079 43.8017 43.9484 43.7968 43.9864 43.8071C44.0243 43.8175 44.0567 43.8423 44.0766 43.8762L44.9993 45.458C45.0044 45.4598 45.01 45.4598 45.0151 45.458L45.0072 45.4764ZM36.8955 35.1951C36.8478 35.1949 36.8006 35.2047 36.7569 35.2239C36.7132 35.2431 36.6741 35.2712 36.642 35.3065C36.61 35.3418 36.5857 35.3835 36.5708 35.4288C36.5558 35.4741 36.5506 35.522 36.5554 35.5695V36.2786C36.5551 36.3459 36.5748 36.4118 36.612 36.468C36.6492 36.5241 36.7022 36.5679 36.7643 36.5939C36.8264 36.6198 36.8948 36.6268 36.9609 36.6139C37.0269 36.6009 37.0877 36.5687 37.1354 36.5212C37.1682 36.4899 37.1942 36.4522 37.2119 36.4105C37.2295 36.3688 37.2385 36.3239 37.2382 36.2786V35.8542H37.5783C37.6229 35.8542 37.6672 35.8454 37.7084 35.8283C37.7497 35.8112 37.7872 35.7862 37.8187 35.7546C37.8503 35.723 37.8754 35.6855 37.8925 35.6443C37.9095 35.603 37.9183 35.5588 37.9183 35.5141C37.9183 35.4695 37.9095 35.4252 37.8925 35.384C37.8754 35.3427 37.8503 35.3052 37.8187 35.2737C37.7872 35.2421 37.7497 35.217 37.7084 35.1999C37.6672 35.1828 37.6229 35.174 37.5783 35.174L36.8955 35.1951ZM37.2356 37.6416C37.2359 37.5742 37.2162 37.5083 37.179 37.4522C37.1418 37.3961 37.0888 37.3523 37.0267 37.3263C36.9646 37.3003 36.8962 37.2934 36.8301 37.3063C36.764 37.3193 36.7033 37.3515 36.6556 37.399C36.6228 37.4303 36.5968 37.468 36.5791 37.5097C36.5614 37.5514 36.5525 37.5963 36.5528 37.6416V38.3243C36.5525 38.3917 36.5722 38.4576 36.6094 38.5137C36.6465 38.5698 36.6995 38.6136 36.7616 38.6396C36.8238 38.6656 36.8922 38.6725 36.9582 38.6596C37.0243 38.6466 37.085 38.6144 37.1327 38.5669C37.1655 38.5356 37.1915 38.4979 37.2092 38.4562C37.2269 38.4145 37.2359 38.3696 37.2356 38.3243V37.631V37.6416ZM37.2356 39.6873C37.2351 39.6203 37.2151 39.5549 37.1779 39.4991C37.1407 39.4434 37.088 39.3998 37.0263 39.3737C36.9646 39.3476 36.8966 39.3402 36.8307 39.3524C36.7648 39.3645 36.7039 39.3957 36.6556 39.4421C36.6229 39.474 36.5969 39.5121 36.5792 39.5542C36.5616 39.5963 36.5526 39.6416 36.5528 39.6873V40.3674C36.5532 40.4344 36.5732 40.4998 36.6104 40.5555C36.6476 40.6113 36.7003 40.6549 36.762 40.681C36.8237 40.707 36.8918 40.7145 36.9576 40.7023C37.0235 40.6902 37.0844 40.659 37.1327 40.6126C37.1655 40.5807 37.1914 40.5426 37.2091 40.5005C37.2268 40.4583 37.2358 40.4131 37.2356 40.3674V39.6767V39.6873ZM37.2356 41.7304C37.2346 41.6636 37.2142 41.5985 37.1768 41.5432C37.1394 41.4879 37.0867 41.4447 37.0251 41.4189C36.9635 41.3931 36.8957 41.3859 36.8301 41.3982C36.7644 41.4104 36.7038 41.4416 36.6556 41.4878C36.6231 41.5193 36.5972 41.557 36.5795 41.5986C36.5619 41.6403 36.5528 41.6851 36.5528 41.7304V42.4131C36.5486 42.4605 36.5543 42.5082 36.5696 42.5532C36.5849 42.5982 36.6093 42.6396 36.6414 42.6746C36.6735 42.7097 36.7126 42.7377 36.7561 42.7568C36.7996 42.776 36.8466 42.7859 36.8942 42.7859C36.9417 42.7859 36.9887 42.776 37.0322 42.7568C37.0757 42.7377 37.1148 42.7097 37.1469 42.6746C37.179 42.6396 37.2035 42.5982 37.2187 42.5532C37.234 42.5082 37.2397 42.4605 37.2356 42.4131V41.7198V41.7304ZM37.2356 43.7761C37.2359 43.7087 37.2162 43.6429 37.179 43.5867C37.1418 43.5306 37.0888 43.4868 37.0267 43.4608C36.9646 43.4349 36.8962 43.4279 36.8301 43.4408C36.764 43.4538 36.7033 43.486 36.6556 43.5335C36.6228 43.5648 36.5968 43.6025 36.5791 43.6442C36.5614 43.6859 36.5525 43.7308 36.5528 43.7761V44.3982C36.551 44.4443 36.5586 44.4903 36.575 44.5334C36.5914 44.5765 36.6164 44.6159 36.6484 44.6491C36.6804 44.6824 36.7188 44.7088 36.7612 44.7268C36.8037 44.7449 36.8493 44.7541 36.8955 44.7541H36.9403C37.0003 44.7538 37.0592 44.7378 37.1111 44.7076C37.163 44.6774 37.206 44.6341 37.2359 44.5821C37.2658 44.53 37.2815 44.471 37.2815 44.411C37.2814 44.351 37.2656 44.292 37.2356 44.24V43.7629V43.7761ZM38.3032 44.0713C38.2359 44.071 38.17 44.0907 38.1139 44.1279C38.0578 44.1651 38.014 44.2181 37.988 44.2802C37.962 44.3423 37.9551 44.4107 37.968 44.4768C37.981 44.5428 38.0132 44.6036 38.0607 44.6513C38.092 44.6841 38.1296 44.7101 38.1713 44.7278C38.213 44.7455 38.2579 44.7544 38.3032 44.7541H38.986C39.0528 44.7532 39.1178 44.7328 39.1732 44.6954C39.2285 44.658 39.2717 44.6053 39.2975 44.5437C39.3232 44.482 39.3304 44.4143 39.3182 44.3486C39.3059 44.283 39.2748 44.2223 39.2286 44.1741C39.1973 44.1414 39.1596 44.1153 39.1179 44.0977C39.0762 44.08 39.0313 44.071 38.986 44.0713H38.3032ZM40.3489 44.0713C40.282 44.0717 40.2165 44.0918 40.1608 44.129C40.1051 44.1662 40.0615 44.2189 40.0354 44.2806C40.0093 44.3423 40.0019 44.4103 40.014 44.4762C40.0262 44.5421 40.0574 44.603 40.1038 44.6513C40.1356 44.684 40.1738 44.71 40.2159 44.7277C40.258 44.7453 40.3033 44.7543 40.3489 44.7541H41.0291C41.058 44.757 41.0872 44.757 41.1161 44.7541L41.066 44.0845H40.3569L40.3489 44.0713ZM45.4448 39.6003C45.4457 39.6671 45.4661 39.7321 45.5035 39.7874C45.5409 39.8428 45.5936 39.886 45.6552 39.9117C45.7169 39.9375 45.7846 39.9447 45.8503 39.9324C45.9159 39.9202 45.9766 39.8891 46.0248 39.8428C46.0575 39.8115 46.0836 39.7739 46.1012 39.7322C46.1189 39.6905 46.1279 39.6456 46.1276 39.6003V38.9175C46.1279 38.8502 46.1082 38.7843 46.071 38.7282C46.0338 38.672 45.9808 38.6282 45.9187 38.6023C45.8566 38.5763 45.7882 38.5693 45.7221 38.5823C45.656 38.5952 45.5953 38.6275 45.5476 38.675C45.5148 38.7062 45.4888 38.7439 45.4711 38.7856C45.4534 38.8273 45.4445 38.8722 45.4448 38.9175V39.6003V39.6003ZM45.4448 37.5546C45.4406 37.6019 45.4464 37.6496 45.4616 37.6946C45.4769 37.7397 45.5013 37.781 45.5335 37.8161C45.5656 37.8511 45.6046 37.8791 45.6481 37.8983C45.6916 37.9174 45.7386 37.9273 45.7862 37.9273C45.8337 37.9273 45.8807 37.9174 45.9242 37.8983C45.9677 37.8791 46.0068 37.8511 46.0389 37.8161C46.071 37.781 46.0955 37.7397 46.1107 37.6946C46.126 37.6496 46.1317 37.6019 46.1276 37.5546V36.8718C46.1266 36.805 46.1062 36.74 46.0688 36.6846C46.0315 36.6293 45.9787 36.5861 45.9171 36.5603C45.8555 36.5346 45.7877 36.5274 45.7221 36.5396C45.6564 36.5519 45.5958 36.583 45.5476 36.6292C45.5151 36.6607 45.4892 36.6984 45.4715 36.7401C45.4539 36.7817 45.4448 36.8265 45.4448 36.8718V37.5546ZM45.7638 35.8542C45.8306 35.854 45.8958 35.8341 45.9514 35.7971C46.0069 35.76 46.0503 35.7074 46.0762 35.6458C46.1021 35.5843 46.1092 35.5164 46.0968 35.4508C46.0844 35.3852 46.0529 35.3247 46.0063 35.2769C45.975 35.2441 45.9374 35.2181 45.8957 35.2004C45.854 35.1827 45.8091 35.1737 45.7638 35.174H45.081C45.0142 35.1743 44.949 35.1941 44.8934 35.2312C44.8378 35.2682 44.7944 35.3208 44.7686 35.3824C44.7427 35.444 44.7355 35.5118 44.748 35.5774C44.7604 35.643 44.7919 35.7035 44.8385 35.7514C44.8697 35.7842 44.9074 35.8102 44.9491 35.8279C44.9908 35.8455 45.0357 35.8545 45.081 35.8542H45.7638ZM43.7181 35.8542C43.7627 35.8542 43.8069 35.8454 43.8482 35.8283C43.8895 35.8112 43.9269 35.7862 43.9585 35.7546C43.9901 35.723 44.0151 35.6855 44.0322 35.6443C44.0493 35.603 44.0581 35.5588 44.0581 35.5141C44.0581 35.4695 44.0493 35.4252 44.0322 35.384C44.0151 35.3427 43.9901 35.3052 43.9585 35.2737C43.9269 35.2421 43.8895 35.217 43.8482 35.1999C43.8069 35.1828 43.7627 35.174 43.7181 35.174H43.0379C42.9932 35.174 42.949 35.1828 42.9078 35.1999C42.8665 35.217 42.829 35.2421 42.7974 35.2737C42.7659 35.3052 42.7408 35.3427 42.7237 35.384C42.7066 35.4252 42.6978 35.4695 42.6978 35.5141C42.6978 35.5588 42.7066 35.603 42.7237 35.6443C42.7408 35.6855 42.7659 35.723 42.7974 35.7546C42.829 35.7862 42.8665 35.8112 42.9078 35.8283C42.949 35.8454 42.9932 35.8542 43.0379 35.8542H43.7181ZM41.675 35.8542C41.7652 35.8542 41.8517 35.8184 41.9154 35.7546C41.9792 35.6908 42.015 35.6043 42.015 35.5141C42.015 35.4239 41.9792 35.3374 41.9154 35.2737C41.8517 35.2099 41.7652 35.174 41.675 35.174H40.9922C40.9475 35.174 40.9033 35.1828 40.862 35.1999C40.8208 35.217 40.7833 35.2421 40.7517 35.2737C40.7201 35.3052 40.6951 35.3427 40.678 35.384C40.6609 35.4252 40.6521 35.4695 40.6521 35.5141C40.6521 35.5588 40.6609 35.603 40.678 35.6443C40.6951 35.6855 40.7201 35.723 40.7517 35.7546C40.7833 35.7862 40.8208 35.8112 40.862 35.8283C40.9033 35.8454 40.9475 35.8542 40.9922 35.8542H41.675ZM39.6293 35.8542C39.696 35.854 39.7613 35.8341 39.8168 35.7971C39.8724 35.76 39.9158 35.7074 39.9417 35.6458C39.9676 35.5843 39.9747 35.5164 39.9623 35.4508C39.9499 35.3852 39.9184 35.3247 39.8718 35.2769C39.8405 35.2441 39.8029 35.2181 39.7612 35.2004C39.7194 35.1827 39.6746 35.1737 39.6293 35.174H38.9465C38.8797 35.1743 38.8145 35.1941 38.7589 35.2312C38.7033 35.2682 38.6599 35.3208 38.634 35.3824C38.6082 35.444 38.601 35.5118 38.6134 35.5774C38.6259 35.643 38.6573 35.7035 38.7039 35.7514C38.7352 35.7842 38.7729 35.8102 38.8146 35.8279C38.8563 35.8455 38.9012 35.8545 38.9465 35.8542H39.6293ZM53.8807 48.4527C53.8544 43.3015 53.4958 37.0669 53.8807 32.0712H33.1547V47.6751C33.1547 47.8848 33.238 48.086 33.3863 48.2343C33.5346 48.3826 33.7358 48.4659 33.9455 48.4659L53.8807 48.4527ZM56.0583 34.7101C56.0025 34.7165 55.946 34.7111 55.8925 34.6942C55.8389 34.6772 55.7896 34.6492 55.7477 34.6118C55.7058 34.5745 55.6722 34.5287 55.6493 34.4775C55.6263 34.4263 55.6144 34.3708 55.6144 34.3146C55.6144 34.2585 55.6263 34.203 55.6493 34.1518C55.6722 34.1006 55.7058 34.0548 55.7477 34.0174C55.7896 33.9801 55.8389 33.952 55.8925 33.9351C55.946 33.9182 56.0025 33.9128 56.0583 33.9192H61.4256C61.4814 33.9128 61.5379 33.9182 61.5914 33.9351C61.6449 33.952 61.6943 33.9801 61.7362 34.0174C61.7781 34.0548 61.8116 34.1006 61.8346 34.1518C61.8576 34.203 61.8694 34.2585 61.8694 34.3146C61.8694 34.3708 61.8576 34.4263 61.8346 34.4775C61.8116 34.5287 61.7781 34.5745 61.7362 34.6118C61.6943 34.6492 61.6449 34.6772 61.5914 34.6942C61.5379 34.7111 61.4814 34.7165 61.4256 34.7101H56.0583ZM56.5723 44.7752H60.9116C61.055 44.7755 61.1969 44.8042 61.3292 44.8596C61.4615 44.9149 61.5816 44.9959 61.6825 45.0978C61.7835 45.1997 61.8633 45.3206 61.9173 45.4534C61.9714 45.5862 61.9987 45.7284 61.9977 45.8719V45.8719C61.997 46.16 61.8824 46.4361 61.679 46.64C61.4755 46.844 61.1996 46.9592 60.9116 46.9606H56.5723C56.2842 46.9592 56.0084 46.844 55.8049 46.64C55.6015 46.4361 55.4869 46.16 55.4862 45.8719C55.4869 45.584 55.6015 45.3082 55.8051 45.1046C56.0086 44.9011 56.2845 44.7864 56.5723 44.7857V44.7752ZM56.0451 42.9536C55.9481 42.9423 55.8586 42.8959 55.7936 42.8229C55.7286 42.75 55.6927 42.6558 55.6927 42.5581C55.6927 42.4605 55.7286 42.3662 55.7936 42.2933C55.8586 42.2204 55.9481 42.1739 56.0451 42.1627H61.4441C61.5411 42.1739 61.6306 42.2204 61.6955 42.2933C61.7605 42.3662 61.7964 42.4605 61.7964 42.5581C61.7964 42.6558 61.7605 42.75 61.6955 42.8229C61.6306 42.8959 61.5411 42.9423 61.4441 42.9536H56.0451ZM56.1426 40.2066C56.0868 40.2131 56.0304 40.2076 55.9768 40.1907C55.9233 40.1738 55.874 40.1457 55.8321 40.1084C55.7901 40.071 55.7566 40.0253 55.7336 39.974C55.7107 39.9228 55.6988 39.8673 55.6988 39.8112C55.6988 39.755 55.7107 39.6995 55.7336 39.6483C55.7566 39.5971 55.7901 39.5513 55.8321 39.514C55.874 39.4766 55.9233 39.4486 55.9768 39.4316C56.0304 39.4147 56.0868 39.4093 56.1426 39.4157H61.3465C61.4435 39.427 61.533 39.4735 61.598 39.5464C61.663 39.6193 61.6989 39.7135 61.6989 39.8112C61.6989 39.9088 61.663 40.0031 61.598 40.076C61.533 40.1489 61.4435 40.1954 61.3465 40.2066H56.1426ZM56.0398 37.4597C55.984 37.4661 55.9275 37.4607 55.874 37.4438C55.8205 37.4268 55.7712 37.3988 55.7292 37.3614C55.6873 37.3241 55.6538 37.2783 55.6308 37.2271C55.6079 37.1759 55.596 37.1204 55.596 37.0642C55.596 37.0081 55.6079 36.9526 55.6308 36.9014C55.6538 36.8501 55.6873 36.8044 55.7292 36.767C55.7712 36.7297 55.8205 36.7016 55.874 36.6847C55.9275 36.6678 55.984 36.6623 56.0398 36.6688H61.4467C61.5437 36.68 61.6332 36.7265 61.6982 36.7994C61.7631 36.8723 61.799 36.9666 61.799 37.0642C61.799 37.1619 61.7631 37.2561 61.6982 37.329C61.6332 37.402 61.5437 37.4484 61.4467 37.4597H56.0398ZM62.923 48.3025V32.261H54.5635V48.4527H62.4722C62.6365 48.4535 62.7966 48.4008 62.9283 48.3025H62.923ZM44.2058 52.2568H52.1935C52.2146 53.6382 52.7841 54.8772 54.3262 55.85H42.0704C43.3121 54.951 44.2084 53.8623 44.2031 52.2568H44.2058ZM62.0003 30.297C62.1046 30.297 62.2065 30.3279 62.2932 30.3859C62.3799 30.4438 62.4475 30.5262 62.4874 30.6225C62.5273 30.7188 62.5378 30.8249 62.5174 30.9271C62.4971 31.0294 62.4469 31.1234 62.3731 31.1971C62.2994 31.2708 62.2055 31.321 62.1032 31.3414C62.0009 31.3617 61.8949 31.3513 61.7985 31.3114C61.7022 31.2715 61.6199 31.2039 61.5619 31.1172C61.504 31.0305 61.4731 30.9286 61.4731 30.8243C61.4731 30.6844 61.5286 30.5503 61.6275 30.4515C61.7264 30.3526 61.8605 30.297 62.0003 30.297ZM58.4572 30.297C58.5615 30.297 58.6634 30.3279 58.7501 30.3859C58.8369 30.4438 58.9044 30.5262 58.9443 30.6225C58.9842 30.7188 58.9947 30.8249 58.9743 30.9271C58.954 31.0294 58.9038 31.1234 58.83 31.1971C58.7563 31.2708 58.6624 31.321 58.5601 31.3414C58.4578 31.3617 58.3518 31.3513 58.2555 31.3114C58.1591 31.2715 58.0768 31.2039 58.0188 31.1172C57.9609 31.0305 57.93 30.9286 57.93 30.8243C57.93 30.6844 57.9855 30.5503 58.0844 30.4515C58.1833 30.3526 58.3174 30.297 58.4572 30.297ZM60.2288 30.297C60.3331 30.297 60.435 30.3279 60.5217 30.3859C60.6084 30.4438 60.676 30.5262 60.7159 30.6225C60.7558 30.7188 60.7662 30.8249 60.7459 30.9271C60.7255 31.0294 60.6753 31.1234 60.6016 31.1971C60.5279 31.2708 60.4339 31.321 60.3316 31.3414C60.2294 31.3617 60.1233 31.3513 60.027 31.3114C59.9307 31.2715 59.8483 31.2039 59.7904 31.1172C59.7324 31.0305 59.7015 30.9286 59.7015 30.8243C59.7015 30.6844 59.7571 30.5503 59.856 30.4515C59.9548 30.3526 60.0889 30.297 60.2288 30.297Z" fill="#DEBC0A"/>
<path fill-rule="evenodd" clip-rule="evenodd" d="M79.7074 31.1818C79.7074 31.1818 79.6313 30.6451 79.3969 30.4094C79.1009 30.0995 78.7689 30.0976 78.6168 30.0792C77.5282 30 75.8927 30 75.8927 30C75.8927 30 74.2578 30 73.1679 30.0792C73.0158 30.0976 72.6844 30.0989 72.3878 30.4094C72.1521 30.6451 72.0773 31.1818 72.0773 31.1818C72.0292 31.6005 72.0033 32.0214 72 32.4428V33.0328C72.0034 33.4542 72.0292 33.8751 72.0773 34.2938C72.0773 34.2938 72.1533 34.8305 72.3859 35.0694C72.6825 35.3799 73.0715 35.3697 73.2458 35.4027C73.8687 35.4623 75.8933 35.48 75.8933 35.48C75.8933 35.48 77.5301 35.48 78.6181 35.3995C78.7708 35.3811 79.1022 35.3792 79.3988 35.0694C79.6326 34.8337 79.7086 34.2963 79.7086 34.2963C79.7568 33.8776 79.7826 33.4567 79.7859 33.0353V32.4422C79.7817 32.0207 79.7553 31.5998 79.7067 31.1812L79.7074 31.1818Z" fill="#DEBC0A"/>
<path fill-rule="evenodd" clip-rule="evenodd" d="M75.0869 33.7488V31.5608L77.19 32.6583L75.0869 33.7488Z" fill="white"/>
<path fill-rule="evenodd" clip-rule="evenodd" d="M40.9616 14.625L40.91 12.7153L37.7718 13.6219C37.489 13.684 37.21 13.7136 36.9368 13.7146C36.6435 13.7155 36.355 13.684 36.0713 13.6219L33.0735 12.7057V14.6422C33.1594 15.6481 36.0455 15.9558 36.9311 15.9978C37.6409 16.0322 40.4448 15.6615 40.8135 15.0835C40.8928 14.9574 40.9425 14.8046 40.9616 14.625ZM42.2331 11.3406V13.6744H42.3067C42.3573 13.6744 42.3984 13.7155 42.3984 13.7662V14.3938C42.3984 14.4435 42.3573 14.4855 42.3067 14.4855H42.2331V14.7052C42.3268 14.7224 42.3984 14.8055 42.3984 14.9039C42.3984 15.0148 42.3067 15.1065 42.1959 15.1065H41.8338C41.723 15.1065 41.6313 15.0157 41.6313 14.9039C41.6313 14.8055 41.7029 14.7224 41.7965 14.7052V14.4855H41.723C41.6733 14.4855 41.6313 14.4444 41.6313 14.3938V13.7662C41.6313 13.7155 41.6724 13.6744 41.723 13.6744H41.7965V11.4772L37.9772 12.6637C37.2855 12.828 36.5938 12.8395 35.9022 12.6637L31.6863 11.4055L31.3052 11.2919C30.8304 11.0979 30.9488 10.6422 31.3911 10.5371L36.1592 9.11371C36.6512 8.97328 37.1422 8.95131 37.6342 9.11371L42.3162 10.52C42.8254 10.6441 42.9257 11.1151 42.3334 11.3091L42.2331 11.3406Z" fill="#DEBC0A"/>
<path d="M53.9052 68.4382H48.9022L47.4656 69.3203L48.9071 70.3016H53.906L53.9052 68.4382ZM49.0073 71.3587H50.865V70.6144H48.8632C48.8355 70.6144 48.807 70.607 48.7817 70.5916L47.0747 69.4473C47.0527 69.4335 47.0332 69.4139 47.0193 69.3895C46.9778 69.3146 47.0055 69.2193 47.0804 69.1785L48.7736 68.154C48.7988 68.1361 48.8298 68.1263 48.8632 68.1263H50.865V67.6556L51.4799 67L52.1672 67.6556V68.1255H54.0615C54.1479 68.1255 54.2179 68.1956 54.2179 68.2819V70.458C54.2179 70.5443 54.1479 70.6144 54.0615 70.6144H52.1672V71.3587H54.2057C54.2391 71.3587 54.2692 71.3693 54.2953 71.3864L55.9884 72.4109C56.0634 72.4525 56.091 72.547 56.0495 72.6219C56.0357 72.6463 56.0169 72.6659 55.9941 72.6797L54.2871 73.8248C54.2619 73.8402 54.2334 73.8476 54.2057 73.8476H52.1672V76.7039C52.2943 76.7039 51.4195 76.5777 51.4195 76.7039H51.1052C51.1052 76.8309 51.2314 75.8151 51.1052 75.8151L50.865 76.4844C51.1641 76.4844 50.7379 76.4844 50.865 76.4844L51.1052 75.8151C51.1052 75.5928 51.9506 76.4844 50.865 76.4844V73.8476H49.0073C48.921 73.8476 48.8509 73.7775 48.8509 73.6912V71.5151C48.8509 71.4288 48.921 71.3587 49.0073 71.3587ZM54.1674 71.6715H49.1637V73.5348H54.1625L55.604 72.5535L54.1674 71.6715Z" fill="#DEBC0A"/>
<path fill-rule="evenodd" clip-rule="evenodd" d="M12.9691 28.5845H14.5345C14.6157 30.0022 14.3755 31.319 12.4321 31.2205C11.9568 31.7938 11.3846 31.9456 11.6998 32.8016H12.0234C12.1858 32.8016 12.3179 32.9343 12.3179 33.0961V33.3358H12.4416C12.6006 33.3358 12.7311 33.4657 12.7311 33.6252V33.88H9.81684V33.6252C9.81684 33.4662 9.94674 33.3358 10.1063 33.3358H10.23V33.0961C10.23 32.9338 10.3627 32.8016 10.5246 32.8016H10.8818C11.1768 31.9612 10.6141 31.8358 10.1371 31.2188C8.17411 31.3286 7.93167 30.0078 8.01342 28.5845H9.57889V28.0935H9.31853C9.1556 28.0935 9.02291 27.9602 9.02291 27.7979V27.5067H9.00107C8.86166 27.5067 8.748 27.3925 8.748 27.2536V27.1008C8.748 27.0454 8.79335 27 8.84878 27H13.6997C13.7552 27 13.8005 27.0454 13.8005 27.1008V27.2531C13.8005 27.3925 13.6863 27.5061 13.5474 27.5061H13.5256V27.7973C13.5256 27.9602 13.3923 28.0929 13.23 28.0929H12.9696V28.5845H12.9691ZM11.2743 28.7256L11.4495 29.1522L11.9103 29.187L11.5576 29.4859L11.6673 29.9339L11.2748 29.6909L10.8823 29.9339L10.9921 29.4859L10.6393 29.187L11.1001 29.1522L11.2743 28.7256ZM12.8285 29.1153L12.6544 30.6864C13.8111 30.6746 13.9881 30.0374 13.9881 29.1153H12.8285ZM9.71942 29.1153L9.89355 30.6864C8.73736 30.6746 8.55987 30.0374 8.55987 29.1153H9.71942ZM11.2743 28.4507C11.7597 28.4507 12.1533 28.8443 12.1533 29.3297C12.1533 29.8152 11.7597 30.2088 11.2743 30.2088C10.7888 30.2088 10.3952 29.8152 10.3952 29.3297C10.3947 28.8443 10.7883 28.4507 11.2743 28.4507Z" fill="#DEBC0A"/>
<path fill-rule="evenodd" clip-rule="evenodd" d="M60.1859 18.9023C60.4143 18.9709 60.6325 19.0698 60.8347 19.1963L61.1839 18.8454C61.265 18.7647 61.3748 18.7194 61.4893 18.7194C61.6037 18.7194 61.7135 18.7647 61.7946 18.8454L62.1523 19.2048C62.233 19.286 62.2784 19.3957 62.2784 19.5102C62.2784 19.6246 62.233 19.7344 62.1523 19.8155L61.7764 20.1915C61.8847 20.3878 61.9678 20.597 62.0236 20.8141H62.5659C62.6229 20.814 62.6793 20.8251 62.7319 20.8468C62.7846 20.8684 62.8325 20.9003 62.8728 20.9405C62.9131 20.9807 62.9451 21.0285 62.9669 21.0811C62.9888 21.1337 63 21.1901 63 21.2471V21.7541C62.9997 21.8685 62.9541 21.9782 62.8732 22.0591C62.7923 22.14 62.6826 22.1856 62.5682 22.1859H62.0208C61.9637 22.4007 61.8801 22.6076 61.7718 22.8017L62.1523 23.1839C62.233 23.265 62.2784 23.3748 62.2784 23.4893C62.2784 23.6037 62.233 23.7135 62.1523 23.7946L61.7952 24.1523C61.7139 24.2331 61.6041 24.2784 61.4895 24.2784C61.375 24.2784 61.2651 24.2331 61.1839 24.1523L60.8228 23.7906C60.6235 23.9128 60.4093 24.0086 60.1853 24.0754V24.5648C60.185 24.6792 60.1394 24.7889 60.0585 24.8698C59.9776 24.9507 59.8679 24.9963 59.7535 24.9966H59.2471C59.1326 24.9963 59.023 24.9507 58.9421 24.8698C58.8612 24.7889 58.8156 24.6792 58.8153 24.5648V24.1227C58.5695 24.0671 58.3327 23.9774 58.1117 23.8561L57.8155 24.1523C57.7342 24.2328 57.6245 24.2779 57.5102 24.2779C57.3958 24.2779 57.2861 24.2328 57.2048 24.1523L56.8454 23.7929C56.7648 23.7117 56.7196 23.6019 56.7196 23.4875C56.7196 23.3732 56.7648 23.2634 56.8454 23.1822L57.1143 22.9133C56.9734 22.6878 56.8667 22.4426 56.7975 22.1859H56.4318C56.3174 22.1856 56.2077 22.14 56.1268 22.0591C56.0459 21.9782 56.0003 21.8685 56 21.7541V21.2471C56 21.1324 56.0455 21.0225 56.1264 20.9413C56.2073 20.8602 56.3172 20.8144 56.4318 20.8141H56.7935C56.8608 20.5541 56.9666 20.3056 57.1074 20.077L56.8454 19.8155C56.7649 19.7342 56.7198 19.6245 56.7198 19.5102C56.7198 19.3958 56.7649 19.2861 56.8454 19.2048L57.2048 18.8454C57.286 18.7647 57.3957 18.7194 57.5102 18.7194C57.6246 18.7194 57.7344 18.7647 57.8155 18.8454L58.1003 19.1302C58.3237 19.0043 58.5641 18.9114 58.8141 18.8545V18.4318C58.8144 18.3172 58.8602 18.2073 58.9413 18.1264C59.0225 18.0455 59.1324 18 59.2471 18H59.7541C59.8685 18.0003 59.9782 18.0459 60.0591 18.1268C60.14 18.2077 60.1856 18.3174 60.1859 18.4318V18.9023ZM59.41 20.0895C59.6872 20.0895 59.9581 20.1717 60.1886 20.3257C60.4191 20.4797 60.5987 20.6986 60.7047 20.9547C60.8108 21.2108 60.8385 21.4926 60.7844 21.7645C60.7303 22.0363 60.5968 22.286 60.4007 22.482C60.2047 22.678 59.9549 22.8114 59.683 22.8654C59.4112 22.9194 59.1294 22.8916 58.8733 22.7854C58.6173 22.6793 58.3984 22.4996 58.2445 22.269C58.0906 22.0385 58.0085 21.7675 58.0086 21.4903C58.0086 21.3063 58.0449 21.1241 58.1153 20.9541C58.1857 20.7841 58.289 20.6297 58.4191 20.4996C58.5492 20.3695 58.7037 20.2663 58.8738 20.196C59.0438 20.1256 59.226 20.0894 59.41 20.0895V20.0895Z" fill="#DEBC0A"/>
</svg>
