<svg width="112" height="144" viewBox="0 0 112 144" fill="none" xmlns="http://www.w3.org/2000/svg">
<path d="M55.2 144C44.4 144 33.9333 142.467 23.8 139.4C13.8 136.333 5.86667 132.267 2.98023e-08 127.2L9 107C14.7333 111.533 21.7333 115.267 30 118.2C38.4 121 46.8 122.4 55.2 122.4C65.6 122.4 73.3333 120.733 78.4 117.4C83.6 114.067 86.2 109.667 86.2 104.2C86.2 100.2 84.7333 96.9333 81.8 94.4C79 91.7333 75.4 89.6667 71 88.2C66.6 86.7333 60.6 85.0667 53 83.2C42.3333 80.6667 33.6667 78.1333 27 75.6C20.4667 73.0667 14.8 69.1333 10 63.8C5.33333 58.3333 3 51 3 41.8C3 34.0667 5.06667 27.0667 9.2 20.8C13.4667 14.4 19.8 9.33332 28.2 5.59999C36.7333 1.86666 47.1333 -7.62939e-06 59.4 -7.62939e-06C67.9333 -7.62939e-06 76.3333 1.06666 84.6 3.2C92.8667 5.33333 100 8.4 106 12.4L97.8 32.6C91.6667 29 85.2667 26.2667 78.6 24.4C71.9333 22.5333 65.4667 21.6 59.2 21.6C48.9333 21.6 41.2667 23.3333 36.2 26.8C31.2667 30.2667 28.8 34.8667 28.8 40.6C28.8 44.6 30.2 47.8667 33 50.4C35.9333 52.9333 39.6 54.9333 44 56.4C48.4 57.8667 54.4 59.5333 62 61.4C72.4 63.8 80.9333 66.3333 87.6 69C94.2667 71.5333 99.9333 75.4667 104.6 80.8C109.4 86.1333 111.8 93.3333 111.8 102.4C111.8 110.133 109.667 117.133 105.4 123.4C101.267 129.667 94.9333 134.667 86.4 138.4C77.8667 142.133 67.4667 144 55.2 144Z" fill="black"/>
</svg>
