<svg width="90" height="90" viewBox="0 0 90 90" fill="none" xmlns="http://www.w3.org/2000/svg">
<circle cx="45" cy="45" r="45" fill="white"/>
<path d="M41.2731 16.1187C39.4685 16.4749 38.0557 17.2228 36.8091 18.4457C35.3606 19.8704 34.5652 21.5088 34.304 23.5984C33.9834 26.151 35.0163 28.9291 36.9397 30.7219C40.3233 33.8562 45.4641 33.7612 48.7647 30.4963C49.5483 29.7127 49.8213 29.3447 50.2725 28.4186C51.0205 26.9108 51.2342 26.0322 51.2342 24.5007C51.2342 22.9691 51.0205 22.0906 50.2725 20.5827C49.8213 19.6448 49.5483 19.2886 48.7409 18.4813C47.1975 16.9616 45.3098 16.1306 43.1134 16.0118C42.5079 15.9762 41.7718 16.0237 41.2731 16.1187ZM44.0157 17.9827C45.1554 18.1845 46.5445 18.9206 47.4112 19.7873C48.7409 21.117 49.3464 22.5773 49.3464 24.5007C49.3464 26.8752 48.3966 28.6323 46.4021 29.962C43.7664 31.731 40.1571 31.3392 37.9844 29.0597C35.978 26.9464 35.6218 23.6221 37.1178 21.117C38.5781 18.6831 41.2256 17.4721 44.0157 17.9827Z" fill="#DEBC0A"/>
<path d="M40.2041 20.9983L39.9073 21.2832V24.5363C39.9073 27.7775 39.9073 27.7893 40.1804 28.0387C40.3347 28.193 40.6078 28.2999 40.8096 28.2999C41.0115 28.2999 42.3887 27.6706 44.1933 26.7564C46.8171 25.4386 47.2564 25.1655 47.387 24.8687C47.482 24.6312 47.4939 24.4057 47.4226 24.1801C47.3395 23.8951 46.9002 23.634 44.2408 22.2805C42.543 21.4138 40.9996 20.7133 40.8215 20.7014C40.6197 20.7014 40.3703 20.8202 40.2041 20.9983ZM44.3001 24.5006C44.3001 24.5363 43.7421 24.8449 43.0535 25.1893L41.8069 25.8066V24.5006V23.1947L43.0535 23.812C43.7421 24.1563 44.3001 24.465 44.3001 24.5006Z" fill="#DEBC0A"/>
<path d="M61.0993 17.0091C60.2682 17.2228 59.6033 17.7689 59.1878 18.5644C58.9266 19.0987 58.796 21.4732 59.0097 21.9956C59.2709 22.6248 60.0426 22.7791 60.5056 22.3042C60.7906 22.0312 60.8025 21.9362 60.8025 20.7014C60.8025 19.4667 60.8143 19.3717 61.0993 19.0987L61.3842 18.8018H67.4511H73.5179L73.8029 19.0987L74.0997 19.3836V25.4505V31.5173L73.8029 31.8022L73.5179 32.0991H67.4511H61.3842L61.0993 31.8022L60.8025 31.5173V28.2999V25.0824L60.5056 24.7975C60.197 24.4769 59.9001 24.4294 59.449 24.6313C58.9266 24.8806 58.8791 25.1893 58.9266 28.6679C58.9622 31.731 58.9741 31.9447 59.2234 32.3959C59.5202 32.9539 59.9833 33.405 60.565 33.7137C60.9568 33.9274 61.3605 33.9393 67.4511 33.9393C73.8503 33.9393 73.9216 33.9393 74.3965 33.6781C74.9545 33.3813 75.4056 32.9183 75.7143 32.3365C75.928 31.9447 75.9399 31.5411 75.9399 25.4505C75.9399 19.3599 75.928 18.9562 75.7143 18.5644C75.4056 17.9826 74.9545 17.5196 74.3965 17.2228C73.9335 16.9616 73.8266 16.9616 67.6885 16.9379C64.2574 16.926 61.3011 16.9616 61.0993 17.0091Z" fill="#DEBC0A"/>
<path d="M67.6893 20.8083C66.3833 21.212 65.671 22.1618 65.576 23.634L65.5166 24.5007H65.0061C64.3294 24.5007 63.9376 24.6906 63.7595 25.1062C63.6526 25.3674 63.6526 25.5336 63.7595 25.7948C63.9376 26.2103 64.3294 26.4003 65.018 26.4003H65.5522V28.0031C65.5522 29.5584 65.5641 29.6296 65.8491 29.9027C66.1934 30.2588 66.7276 30.2826 67.1075 29.9739C67.3806 29.7602 67.3925 29.6652 67.4281 28.0743L67.4756 26.4003H67.9861C68.6747 26.4003 69.0665 26.2103 69.2446 25.7948C69.3514 25.5336 69.3514 25.3674 69.2446 25.1062C69.0665 24.6906 68.6747 24.5007 67.9861 24.5007H67.4518V23.8477C67.4518 23.3015 67.4993 23.1353 67.7487 22.8979C68.0099 22.6248 68.1167 22.6011 69.2208 22.6011C70.5624 22.6011 70.9305 22.4823 71.1442 21.9956C71.3223 21.5563 71.1204 21.022 70.7049 20.8321C70.3725 20.6896 68.1523 20.6658 67.6893 20.8083Z" fill="#DEBC0A"/>
<path d="M19.5343 25.5929C19.3918 25.6523 19.2137 25.8422 19.1425 25.9966C18.9525 26.4121 18.9525 41.5852 19.1425 41.9889C19.2137 42.1551 19.4037 42.345 19.5699 42.4163C19.9735 42.5944 31.3474 42.5944 31.7511 42.4163C31.9173 42.345 32.1073 42.1551 32.1785 41.9889C32.3684 41.5852 32.3684 26.4121 32.1785 26.0085C32.1073 25.8422 31.9173 25.6523 31.7511 25.581C31.3712 25.403 19.8904 25.4148 19.5343 25.5929ZM30.4095 33.9987V40.6473H25.6605H20.9115V33.9987V27.3501H25.6605H30.4095V33.9987Z" fill="#DEBC0A"/>
<path d="M25.2217 29.3921C24.8417 29.5821 24.6518 30.1163 24.818 30.5437C25.0198 31.0186 25.3997 31.1492 26.6107 31.1492C27.8217 31.1492 28.2017 31.0186 28.4035 30.5437C28.5816 30.1045 28.3797 29.5702 27.9642 29.3802C27.5962 29.214 25.5778 29.2259 25.2217 29.3921Z" fill="#DEBC0A"/>
<path d="M23.3214 33.1913C22.9414 33.3813 22.7515 33.9155 22.9177 34.343C23.1433 34.8772 23.4638 34.9485 25.6603 34.9485C26.895 34.9485 27.7854 34.901 27.9635 34.8179C28.6165 34.5092 28.6165 33.4881 27.9635 33.1795C27.5836 33.0132 23.6775 33.0132 23.3214 33.1913Z" fill="#DEBC0A"/>
<path d="M23.0839 37.1568C22.8346 37.4061 22.7989 37.5367 22.8464 37.8929C22.977 38.6646 23.0483 38.6883 25.4465 38.7239C27.821 38.7714 28.1653 38.7002 28.3909 38.1422C28.5808 37.7029 28.379 37.1686 27.9635 36.9787C27.7735 36.8956 26.8712 36.8481 25.5296 36.8481H23.3926L23.0839 37.1568Z" fill="#DEBC0A"/>
<path d="M54.6883 31.2798C54.4034 31.4342 51.554 35.2096 51.3759 35.6845C51.2809 35.9576 51.2928 36.0644 51.4946 36.3375C51.8508 36.8124 52.2782 36.943 52.6581 36.6937C52.9787 36.48 55.7212 32.9064 55.9587 32.4077C56.1249 32.0159 55.9112 31.4698 55.5075 31.2798C55.1514 31.1255 55.0089 31.1255 54.6883 31.2798Z" fill="#DEBC0A"/>
<path d="M58.2269 36.2188C56.5054 37.3942 54.3921 39.0801 54.2615 39.3769C54.0121 39.9705 54.6414 40.7541 55.2588 40.5997C55.6743 40.5048 59.521 37.5485 59.7228 37.1923C59.9484 36.7887 59.7347 36.2306 59.3073 36.0288C58.8799 35.8389 58.7611 35.8626 58.2269 36.2188Z" fill="#DEBC0A"/>
<path d="M47.3867 36.9668C47.2798 37.0261 44.2049 39.5312 40.56 42.5469C33.9826 47.9607 33.8877 48.032 31.715 49.2904C30.5159 49.979 29.3524 50.7033 29.1387 50.8932C28.9249 51.0832 28.5806 51.5937 28.3669 52.0211C28.0108 52.7335 27.9751 52.9116 27.987 53.7664L27.9989 54.728L27.2984 55.1436C26.9066 55.3573 26.4317 55.761 26.2418 56.0103C24.8883 57.8505 26.218 60.4743 28.5094 60.4743C29.0199 60.4743 29.3642 60.3794 30.0528 60.0469L30.9314 59.6314L31.2401 59.857C32.0712 60.4743 32.5817 60.6524 33.5671 60.6524C34.4575 60.6524 34.6119 60.6168 35.4073 60.2013C36.4402 59.6789 36.2028 59.5008 37.4613 61.721C38.423 63.4069 38.7554 63.8105 39.4796 64.1786C40.1326 64.511 41.2367 64.511 41.8897 64.1786C42.4952 63.8699 43.1957 63.0625 43.35 62.5045C43.5044 61.9347 43.5044 61.1867 43.3263 60.6999C43.2551 60.4862 42.792 59.6195 42.3053 58.7766C41.8304 57.9336 41.4742 57.1975 41.5336 57.15C41.581 57.1025 42.0085 56.9245 42.4596 56.7582C44.2524 56.1053 55.0801 52.0211 55.555 51.8074C56.1842 51.5225 56.3623 51.1425 56.1249 50.5727C55.8162 49.8484 51.3996 42.25 51.1622 42.0363C50.6042 41.5614 49.5594 42.0601 49.6662 42.7606C49.69 42.9386 50.6635 44.7314 51.827 46.7378C52.9905 48.7562 53.9047 50.4302 53.881 50.4658C53.786 50.5489 38.7079 56.2002 38.5654 56.2002C38.4942 56.2002 37.4732 56.7582 36.2859 57.4469C34.3388 58.5629 34.0657 58.6935 33.5434 58.6935C32.5817 58.6935 32.2849 58.3967 31.0383 56.2477C30.4446 55.2029 29.9222 54.17 29.8747 53.9326C29.7798 53.4339 30.0885 52.6029 30.504 52.2348C30.7533 52.0211 33.9945 50.1215 34.0301 50.1809C34.042 50.1927 34.5763 51.1069 35.2174 52.2229C35.8466 53.3271 36.464 54.3481 36.5827 54.4669C36.8914 54.7874 37.4613 54.7637 37.8293 54.4194C38.3636 53.9207 38.3398 53.8495 36.6658 50.9882C35.9535 49.7653 35.6329 49.1005 35.7042 49.0055C35.7635 48.9224 37.7106 47.2959 40.0257 45.3844C42.3409 43.4729 44.9766 41.3121 45.867 40.5641L47.5054 39.2225L47.8022 39.6974C48.2771 40.4573 48.8945 40.576 49.405 40.018C49.7612 39.6381 49.7018 39.2819 49.0489 38.154C48.3721 36.9786 47.921 36.6462 47.3867 36.9668ZM40.7856 60.0469C41.213 60.783 41.5692 61.5072 41.5692 61.6497C41.5692 62.0178 41.0587 62.4927 40.6431 62.4927C40.4413 62.4927 40.2038 62.3858 40.0614 62.2196C39.7883 61.9228 38.5179 59.7976 38.4586 59.5364C38.423 59.3702 39.5627 58.7053 39.8714 58.6935C39.9426 58.6935 40.3582 59.299 40.7856 60.0469Z" fill="#DEBC0A"/>
<path d="M59.936 42.1313C57.2172 42.6774 56.9679 42.808 56.9679 43.5085C56.9679 43.924 57.4428 44.4464 57.8227 44.4464C57.9295 44.4464 59.1999 44.209 60.6246 43.924C63.4503 43.3542 63.6521 43.2592 63.6521 42.5231C63.6521 42.0719 63.1772 41.597 62.7379 41.6089C62.5598 41.6208 61.2895 41.8463 59.936 42.1313Z" fill="#DEBC0A"/>
<path d="M22.3831 45.5387C22.2406 45.5981 22.0625 45.7881 21.9913 45.9424C21.8963 46.1561 21.8607 49.148 21.8607 56.2596V66.2919H20.8515C19.1063 66.2919 18.9519 66.4937 19.035 68.6901C19.1063 70.3404 19.32 71.0528 20.0323 72.0263C20.5191 72.6912 21.5876 73.4273 22.4187 73.6647C23.2735 73.914 48.9419 73.914 49.7967 73.6647C50.6278 73.4273 51.6963 72.6912 52.1831 72.0263C52.8954 71.0765 53.1092 70.3404 53.1804 68.702C53.2635 66.5056 53.1092 66.2919 51.3639 66.2919H50.3666L50.331 61.4123L50.2954 56.5327L50.0104 56.3071C49.6305 55.9984 49.0962 56.0222 48.7519 56.3783L48.4551 56.6633V61.4835V66.2919H36.1077H23.7603V56.7939V47.2959H27.8444C31.7861 47.2959 31.9286 47.284 32.2373 47.0465C32.6528 46.7141 32.6647 46.0967 32.2491 45.6931L31.9642 45.3963L27.2983 45.4081C24.3421 45.4081 22.5374 45.4556 22.3831 45.5387ZM51.3045 68.892C51.3045 69.8299 51.0433 70.5185 50.4497 71.124C49.7967 71.7889 49.1675 71.9907 47.7309 71.9907H46.5793L46.5318 71.2783C46.4724 70.4591 46.3062 70.2336 45.7126 70.1386C45.0477 70.0317 44.7509 70.3641 44.6797 71.2665L44.6322 71.9907H36.1077H27.5833L27.5358 71.2783C27.4764 70.4591 27.3102 70.2336 26.7166 70.1386C26.0517 70.0317 25.7549 70.3641 25.6836 71.2665L25.6362 71.9907H24.4964C23.0836 71.9907 22.5731 71.8363 21.8607 71.1952C21.184 70.5897 20.9109 69.913 20.9109 68.8801V68.1915H36.1077H51.3045V68.892Z" fill="#DEBC0A"/>
<path d="M61.1001 46.4529C60.2809 46.6547 59.6161 47.2009 59.1887 48.0082C58.9749 48.4 58.9631 48.8037 58.9631 54.8943C58.9631 61.2936 58.9631 61.3648 59.2243 61.8397C59.5211 62.3977 59.9841 62.8489 60.5659 63.1575C60.9577 63.3712 61.3613 63.3831 67.4519 63.3831C73.8512 63.3831 73.9224 63.3831 74.3973 63.1219C74.9553 62.8251 75.4184 62.3502 75.7152 61.7803C75.9883 61.2461 76.107 58.8716 75.8814 58.3492C75.5965 57.6368 74.5517 57.6012 74.2311 58.2898C74.1599 58.456 74.1005 59.1209 74.1005 59.7739C74.1005 60.878 74.0768 60.9849 73.8037 61.2461L73.5188 61.5429H67.4519H61.3851L61.1001 61.2461L60.8033 60.9611V54.8943V48.8274L61.1001 48.5425L61.3851 48.2457H67.4519H73.5188L73.8037 48.5425L74.1005 48.8274V51.9143C74.1005 53.9563 74.148 55.0961 74.2311 55.2979C74.5398 55.9747 75.5965 55.9509 75.8814 55.2504C75.9764 55.0249 76.0001 53.9445 75.9764 51.6768C75.9408 48.7799 75.917 48.3763 75.7152 48.0082C75.4065 47.4265 74.9553 46.9634 74.3973 46.6666C73.9343 46.4054 73.8275 46.4054 67.6894 46.3817C64.2582 46.3698 61.302 46.4054 61.1001 46.4529Z" fill="#DEBC0A"/>
<path d="M66.585 51.2138C63.7475 51.9261 62.7265 55.4998 64.7804 57.5656C66.2289 59.0022 68.6627 59.0022 70.1112 57.5537C71.5596 56.1053 71.5596 53.6714 70.123 52.223C69.2564 51.3681 67.7367 50.9288 66.585 51.2138ZM68.4965 53.3152C69.0901 53.7664 69.292 54.1463 69.292 54.8824C69.292 55.4404 69.2326 55.6422 68.9714 55.9865C68.081 57.1619 66.3595 56.9838 65.7302 55.6541C65.3147 54.7874 65.7421 53.6477 66.6444 53.1846C67.143 52.9353 68.0691 52.9947 68.4965 53.3152Z" fill="#DEBC0A"/>
</svg>
