<svg width="90" height="90" viewBox="0 0 90 90" fill="none" xmlns="http://www.w3.org/2000/svg">
<circle cx="45" cy="45" r="45" fill="white"/>
<path fill-rule="evenodd" clip-rule="evenodd" d="M53.4194 64.4253C55.0683 69.2753 61.9624 69.4585 63.5148 64.4253C67.3283 67.8579 73.3788 65.2931 74.2418 72.1921C74.1406 73.2768 73.5283 73.9036 72.3134 74H44.6161C43.4012 73.9036 42.7889 73.2768 42.6877 72.1921C43.5072 65.6306 49.8084 67.6747 53.4194 64.4253ZM17.9409 36.4339H60.7234V20.423C60.7258 20.3596 60.714 20.2964 60.689 20.238C60.664 20.1797 60.6264 20.1276 60.5788 20.0855C60.5363 20.0385 60.4842 20.0012 60.4259 19.9762C60.3677 19.9512 60.3047 19.9392 60.2413 19.9409H18.423C18.3596 19.9385 18.2964 19.9503 18.238 19.9753C18.1797 20.0003 18.1276 20.038 18.0855 20.0855C18.0342 20.1244 17.9939 20.176 17.9686 20.2351C17.9432 20.2943 17.9337 20.359 17.9409 20.423V36.4339ZM60.7234 38.9023H17.9409V70.6734C17.9392 70.7368 17.9512 70.7998 17.9762 70.858C18.0012 70.9163 18.0385 70.9684 18.0855 71.0109C18.1276 71.0585 18.1797 71.0961 18.238 71.1212C18.2964 71.1462 18.3596 71.1579 18.423 71.1555L36.0586 71.1073C36.4422 71.1073 36.8101 71.2597 37.0813 71.531C37.3526 71.8022 37.505 72.1701 37.505 72.5537C37.505 72.9373 37.3526 73.3051 37.0813 73.5764C36.8101 73.8476 36.4422 74 36.0586 74H18.423C17.5174 73.9937 16.651 73.6298 16.0125 72.9876C15.6905 72.6743 15.435 72.2994 15.261 71.8853C15.0871 71.4711 14.9983 71.0262 15 70.577V20.423C14.9983 19.9738 15.0871 19.5289 15.261 19.1147C15.435 18.7006 15.6905 18.3257 16.0125 18.0125C16.3257 17.6905 16.7006 17.435 17.1147 17.261C17.5289 17.0871 17.9738 16.9983 18.423 17H60.1931C61.0987 17.0063 61.9652 17.3702 62.6037 18.0125C62.9256 18.3257 63.1811 18.7006 63.3551 19.1147C63.529 19.5289 63.6178 19.9738 63.6161 20.423V41.0477C63.6161 41.4313 63.4637 41.7992 63.1925 42.0704C62.9212 42.3417 62.5533 42.4941 62.1698 42.4941C61.7862 42.4941 61.4183 42.3417 61.147 42.0704C60.8758 41.7992 60.7234 41.4313 60.7234 41.0477V38.9023ZM30.7651 24.1208H33.8361C33.8618 24.1194 33.8875 24.1234 33.9115 24.1326C33.9355 24.1418 33.9574 24.156 33.9756 24.1742C33.9937 24.1924 34.0079 24.2142 34.0171 24.2382C34.0263 24.2623 34.0303 24.288 34.0289 24.3136V35.0503C34.0303 35.0759 34.0263 35.1016 34.0171 35.1257C34.0079 35.1497 33.9937 35.1715 33.9756 35.1897C33.9574 35.2079 33.9355 35.2221 33.9115 35.2313C33.8875 35.2405 33.8618 35.2445 33.8361 35.2431H30.7651C30.739 35.2452 30.7127 35.2417 30.6881 35.2328C30.6635 35.2239 30.6411 35.2099 30.6224 35.1916C30.6036 35.1734 30.589 35.1513 30.5796 35.1269C30.5701 35.1025 30.5659 35.0764 30.5674 35.0503V24.3136C30.5659 24.2875 30.5701 24.2614 30.5796 24.237C30.589 24.2126 30.6036 24.1905 30.6224 24.1723C30.6411 24.154 30.6635 24.14 30.6881 24.1311C30.7127 24.1222 30.739 24.1187 30.7651 24.1208V24.1208ZM37.7701 28.1995H40.846C40.8717 28.1981 40.8974 28.2021 40.9214 28.2113C40.9454 28.2205 40.9673 28.2347 40.9854 28.2529C41.0036 28.271 41.0178 28.2929 41.027 28.3169C41.0362 28.3409 41.0402 28.3666 41.0388 28.3923V35.0117C41.0402 35.0374 41.0362 35.0631 41.027 35.0871C41.0178 35.1111 41.0036 35.133 40.9854 35.1511C40.9673 35.1693 40.9454 35.1835 40.9214 35.1927C40.8974 35.2019 40.8717 35.2059 40.846 35.2045H37.7701C37.7444 35.2059 37.7187 35.2019 37.6947 35.1927C37.6707 35.1835 37.6489 35.1693 37.6307 35.1511C37.6125 35.133 37.5983 35.1111 37.5891 35.0871C37.5799 35.0631 37.5759 35.0374 37.5773 35.0117V28.3923C37.5807 28.3423 37.6021 28.2952 37.6375 28.2597C37.673 28.2242 37.7201 28.2028 37.7701 28.1995V28.1995ZM51.7899 28.1995H54.861C54.887 28.1974 54.9133 28.2009 54.9379 28.2097C54.9625 28.2186 54.9849 28.2327 55.0036 28.2509C55.0224 28.2692 55.037 28.2913 55.0464 28.3157C55.0559 28.34 55.0601 28.3662 55.0586 28.3923V35.0117C55.0601 35.0378 55.0559 35.0639 55.0464 35.0883C55.037 35.1127 55.0224 35.1348 55.0036 35.1531C54.9849 35.1713 54.9625 35.1854 54.9379 35.1943C54.9133 35.2031 54.887 35.2066 54.861 35.2045H51.7899C51.7642 35.2059 51.7385 35.2019 51.7145 35.1927C51.6905 35.1835 51.6686 35.1693 51.6505 35.1511C51.6323 35.133 51.6181 35.1111 51.6089 35.0871C51.5997 35.0631 51.5957 35.0374 51.5971 35.0117V28.3923C51.6005 28.3423 51.6219 28.2952 51.6573 28.2597C51.6928 28.2242 51.7399 28.2028 51.7899 28.1995ZM44.78 24.1208H47.8511C47.8771 24.1187 47.9034 24.1222 47.928 24.1311C47.9526 24.14 47.975 24.154 47.9937 24.1723C48.0125 24.1905 48.0271 24.2126 48.0366 24.237C48.046 24.2614 48.0502 24.2875 48.0487 24.3136V35.0503C48.0502 35.0764 48.046 35.1025 48.0366 35.1269C48.0271 35.1513 48.0125 35.1734 47.9937 35.1916C47.975 35.2099 47.9526 35.2239 47.928 35.2328C47.9034 35.2417 47.8771 35.2452 47.8511 35.2431H44.78C44.7543 35.2445 44.7286 35.2405 44.7046 35.2313C44.6806 35.2221 44.6588 35.2079 44.6406 35.1897C44.6224 35.1715 44.6082 35.1497 44.599 35.1257C44.5898 35.1016 44.5858 35.0759 44.5872 35.0503V24.3136C44.5858 24.288 44.5898 24.2623 44.599 24.2382C44.6082 24.2142 44.6224 24.1924 44.6406 24.1742C44.6588 24.156 44.6806 24.1418 44.7046 24.1326C44.7286 24.1234 44.7543 24.1194 44.78 24.1208ZM23.76 25.5961H26.831C26.8575 25.5939 26.8842 25.5975 26.9092 25.6066C26.9342 25.6158 26.9568 25.6303 26.9757 25.6491C26.9945 25.6679 27.009 25.6906 27.0181 25.7156C27.0273 25.7405 27.0309 25.7672 27.0287 25.7937V35.0503C27.0302 35.0764 27.026 35.1025 27.0165 35.1269C27.007 35.1513 26.9924 35.1734 26.9737 35.1916C26.955 35.2099 26.9326 35.2239 26.9079 35.2328C26.8833 35.2417 26.8571 35.2452 26.831 35.2431H23.76C23.7343 35.2445 23.7086 35.2405 23.6846 35.2313C23.6605 35.2221 23.6387 35.2079 23.6205 35.1897C23.6023 35.1715 23.5882 35.1497 23.579 35.1257C23.5698 35.1016 23.5657 35.0759 23.5671 35.0503V25.7937C23.5286 25.6732 23.6443 25.5961 23.76 25.5961ZM34.1736 56.4512L42.437 56.5958C42.4394 58.0442 42.0864 59.4711 41.4089 60.7512C40.7314 62.0314 39.7501 63.1258 38.5511 63.9383L34.1736 56.4271V56.4512ZM33.7204 53.9249L33.624 44.2827V43.6415L34.2555 43.6897C35.0284 43.7433 35.7939 43.8741 36.5407 44.0802C38.758 44.7013 40.7226 46.0065 42.1545 47.8097C43.5863 49.613 44.4124 51.8222 44.5149 54.1226L44.5631 54.7541H43.9267L34.352 54.4649H33.8024L33.7059 53.8815L33.7204 53.9249ZM34.8871 53.3415L43.2999 53.5826C43.125 51.9715 42.5592 50.4276 41.6518 49.0849C40.7444 47.7423 39.5228 46.6416 38.0931 45.8785C37.2092 45.4276 36.2663 45.103 35.2921 44.9142C35.1282 44.8853 34.9594 44.8564 34.81 44.8419L34.9064 53.303L34.8871 53.3415ZM31.3918 55.5689L36.1068 63.7648C34.6714 64.5913 33.0436 65.0251 31.3872 65.0226C29.7308 65.0201 28.1043 64.5814 26.6713 63.7505C25.2384 62.9197 24.0495 61.7261 23.2245 60.2898C22.3994 58.8535 21.9672 57.2253 21.9713 55.5689C21.9681 53.1325 22.9079 50.7893 24.594 49.0305C26.28 47.2716 28.5814 46.2336 31.0158 46.134L31.3918 55.5689ZM51.9828 55.5303C51.7759 55.5411 51.5752 55.6041 51.3994 55.7135C51.3101 55.7685 51.2396 55.8492 51.1969 55.9449C51.1456 56.0651 51.1225 56.1954 51.1294 56.3258C51.2235 56.9718 51.4789 57.5836 51.8719 58.1048L53.4339 60.5877C54.0072 61.5877 54.709 62.5083 55.5214 63.3261C56.3082 64.0919 57.3644 64.5178 58.4623 64.5121C59.0394 64.5256 59.6134 64.4238 60.1507 64.2127C60.6879 64.0016 61.1777 63.6854 61.5912 63.2827C62.4304 62.4045 63.1516 61.4208 63.7366 60.3563L65.4915 57.4636C65.8483 56.6536 65.9736 56.1571 65.8386 55.916C65.7711 55.781 65.5301 55.7328 65.1396 55.7521C64.8218 55.8332 64.4876 55.8232 64.1753 55.7232L64.884 53.7224C61.6684 53.6838 59.4699 53.1246 56.8714 51.4613C56.0132 50.9165 55.7577 50.2898 54.9043 50.3525C54.2849 50.4616 53.7179 50.7696 53.2893 51.2299C52.8317 51.7519 52.5119 52.38 52.3588 53.0571L52.8795 55.5544C52.589 55.6331 52.2829 55.6331 51.9924 55.5544L51.9828 55.5303ZM65.964 54.812C66.1354 54.8558 66.2952 54.9363 66.4325 55.0478C66.5699 55.1593 66.6814 55.2993 66.7595 55.458C67.0198 55.9883 66.9137 56.7742 66.422 57.8975L66.393 57.9602L64.6092 60.8721C63.98 62.0214 63.1983 63.0804 62.2855 64.0203C61.7811 64.5144 61.1831 64.9029 60.5266 65.1628C59.8701 65.4228 59.1683 65.549 58.4623 65.5341C57.1097 65.5452 55.8065 65.026 54.832 64.0878C53.9475 63.2125 53.1853 62.2216 52.5661 61.1421L51.0089 58.6592C50.5058 57.9888 50.1957 57.1936 50.1122 56.3596C50.0981 56.0682 50.1526 55.7776 50.2713 55.511C50.3973 55.2445 50.5941 55.0177 50.8401 54.8554C50.9685 54.7711 51.106 54.7015 51.2499 54.6481C51.1491 53.4326 51.1282 52.2119 51.1873 50.9937C51.2219 50.6516 51.2848 50.3129 51.3753 49.9812C51.8098 48.5705 52.7486 47.3692 54.0124 46.6065C54.4679 46.3245 54.9529 46.0933 55.4588 45.917C58.4575 44.8323 62.4301 45.4349 64.5562 47.725C65.4976 48.783 66.0384 50.1375 66.0845 51.5529L65.9833 54.7975L65.964 54.812Z" fill="#0E918C"/>
</svg>
