<svg width="91" height="63" viewBox="0 0 91 63" fill="none" xmlns="http://www.w3.org/2000/svg">
<path d="M13.6104 1.32028C12.8772 2.05354 12.3639 3.3734 12.3639 4.25331C12.3639 5.3532 11.9239 5.86647 10.8974 5.86647C8.25766 5.86647 5.76459 9.0928 5.76459 12.3925C5.76459 15.0322 5.54461 15.3255 3.7848 15.5455C1.2184 15.8388 -0.834717 19.1384 0.338493 21.0449C0.778447 21.7781 2.17163 22.878 3.41817 23.4646C5.17799 24.2712 5.76459 25.0778 5.76459 26.5443C5.76459 29.844 7.30443 32.2637 9.72418 32.8503C11.4107 33.2903 12.0706 34.0235 12.5105 35.7833C13.1705 38.2031 15.2236 39.303 18.01 38.7164C20.1364 38.3497 19.6231 36.2966 17.2767 36.0766L15.2969 35.8567L15.4436 19.5784L15.6636 3.30008H18.2299H20.7963L21.0163 19.5784C21.163 35.3434 21.2363 35.93 22.6295 35.93C23.9494 35.93 24.096 35.4167 24.096 30.0639C24.096 24.3445 24.1693 24.1979 25.8558 24.1979C26.8824 24.1979 28.6422 25.1511 29.8154 26.3977C31.0619 27.6442 32.8218 28.5974 33.8483 28.5974C34.8015 28.5974 36.1947 29.2574 36.928 30.0639C38.0279 31.3105 38.1745 32.337 37.8079 36.5166C37.5146 39.303 36.6347 43.4825 35.7548 45.9023C34.8749 48.3953 34.0683 53.0149 33.8483 56.7545C33.4084 62.8405 33.4817 63.2071 34.8015 62.9138C35.9748 62.6939 36.2681 61.8139 36.6347 57.1944C36.8547 54.1881 37.8079 49.3486 38.6878 46.5622C39.5677 43.7025 40.5209 39.083 40.7409 36.2233C41.1075 31.2371 41.0342 30.7972 39.0544 28.3041C37.5879 26.471 36.3414 25.6644 34.9482 25.6644C32.0885 25.6644 29.9621 22.5847 29.9621 18.4052C29.9621 16.4987 30.3287 14.5922 30.842 14.0789C32.2351 12.6858 33.6283 14.4456 33.6283 17.5986C33.6283 20.7516 34.2149 21.5582 35.6081 20.4583C36.1947 19.945 36.5614 17.9652 36.5614 15.1055C36.5614 12.5391 36.928 10.1927 37.4413 9.67941C38.6878 8.43287 55.6994 8.43287 56.9459 9.67941C57.5325 10.266 57.8258 13.1257 57.8258 17.7452C57.8258 24.7112 57.7525 24.9311 55.5527 27.4975C53.2063 30.1373 53.2063 30.1373 53.6462 36.5166C53.8662 40.0362 54.7461 44.8757 55.626 47.2955C56.5059 49.7152 57.3858 54.1881 57.6791 57.1944C58.0458 61.374 58.4857 62.6939 59.2923 62.6939C61.1254 62.6939 60.6122 53.6015 58.3391 45.6823C56.066 37.8365 55.7727 31.4571 57.6058 29.9906C58.2657 29.404 59.219 27.8642 59.8056 26.5443C60.6855 24.4912 61.1254 24.1979 63.6185 24.1979H66.4782L66.6982 30.5039C66.9915 37.5432 68.0181 39.083 72.051 38.7164C75.0573 38.4231 75.3506 36.7366 72.5642 36.2233L70.2912 35.71L70.4378 19.505L70.6578 3.30008L72.7842 3.0801C73.9574 2.93345 75.1307 3.22675 75.4973 3.81335C75.8639 4.32663 76.1572 11.8059 76.1572 20.3116C76.1572 35.3434 76.2305 35.93 77.6237 35.93C79.0169 35.93 79.0902 35.3434 79.2369 22.5114C79.4569 11.2192 79.6035 9.16613 80.5567 9.16613C81.4367 9.16613 81.73 10.9259 82.0233 19.4317C82.3166 27.9375 82.6099 29.6973 83.4898 29.6973C84.223 29.6973 84.663 28.8174 84.8096 26.9109C84.9563 24.9311 85.3962 24.1979 86.2761 24.1979C87.0094 24.1979 88.3293 23.6846 89.2092 23.0247C90.529 22.1448 90.8223 21.2649 90.6757 19.2117C90.4557 16.8653 90.1624 16.4254 87.8893 15.6921C85.5429 14.8855 85.3229 14.5922 84.883 11.3659C84.5163 7.77294 82.9032 5.86647 80.4101 5.86647C79.6035 5.86647 79.0902 5.3532 79.0902 4.39996C79.0902 1.83356 76.5238 0.000423431 73.0042 0.000423431C68.238 0.000423431 67.0648 1.68691 66.6249 9.01948L66.2582 14.9589H63.6918C61.2721 15.0322 61.1254 14.8855 60.6855 12.1725C60.3922 10.3393 59.5123 8.65285 58.2657 7.55296C56.4326 6.01313 55.626 5.86647 47.4869 5.86647C38.3945 5.86647 35.0215 6.67306 34.1416 9.16613C33.8483 9.75273 32.9684 10.266 32.0885 10.266C31.2086 10.266 29.4488 11.4392 28.1289 12.9057C26.7357 14.3722 25.3425 15.3255 24.9026 15.0322C24.3893 14.8122 24.096 12.0258 24.096 8.43287C24.096 2.93345 23.9494 2.20019 22.4828 1.17363C20.2097 -0.439533 15.0769 -0.366207 13.6104 1.32028ZM11.6306 19.4317C11.6306 28.9641 10.9707 31.8238 9.35755 29.2574C8.47764 27.7908 8.55097 11.9525 9.5042 10.1927C11.044 7.25966 11.6306 9.82606 11.6306 19.4317ZM5.76459 19.4317C5.76459 20.6049 5.32464 21.2649 4.66471 21.2649C3.12487 21.2649 2.39161 19.0651 3.63815 18.2585C5.32464 17.2319 5.76459 17.4519 5.76459 19.4317ZM27.029 19.4317C27.029 20.7516 26.6624 21.2649 25.5625 21.2649C24.096 21.2649 23.5094 19.2117 24.6093 18.1119C25.7092 16.9386 27.029 17.6719 27.029 19.4317ZM66.8448 18.9918C67.3581 20.9716 66.8448 21.2649 63.5452 21.2649C61.0521 21.2649 60.7588 21.0449 60.7588 19.4317C60.7588 17.8186 61.0521 17.5986 63.6185 17.5986C65.8183 17.5986 66.5515 17.8919 66.8448 18.9918ZM87.5227 19.505C87.5227 20.2383 86.9361 20.9716 86.2761 21.1182C84.9563 21.3382 84.3697 19.1384 85.4696 18.0385C86.3495 17.2319 87.5227 18.0385 87.5227 19.505Z" fill="black"/>
</svg>
