<svg width="90" height="90" viewBox="0 0 90 90" fill="none" xmlns="http://www.w3.org/2000/svg">
<circle cx="45" cy="45" r="45" fill="white"/>
<path fill-rule="evenodd" clip-rule="evenodd" d="M47.9412 38.166L49.1372 39.3621C49.4517 39.6765 49.4517 40.1931 49.1372 40.5076L48.177 41.4678C48.4409 41.9619 48.6431 42.4954 48.7722 43.0625H50.0188C50.4624 43.0625 50.8274 43.4275 50.8274 43.8711V45.5613C50.8274 46.0049 50.4624 46.3699 50.0188 46.3699H48.6543C48.4858 46.9202 48.25 47.4424 47.9468 47.9197L48.8284 48.8013C49.1428 49.1157 49.1428 49.6323 48.8284 49.9468L47.6323 51.1428C47.3179 51.4573 46.8013 51.4573 46.4868 51.1428L45.5266 50.1826C45.0325 50.4465 44.499 50.6487 43.9319 50.7778V52.0244C43.9319 52.468 43.5669 52.833 43.1233 52.833H41.4331C40.9895 52.833 40.6245 52.468 40.6245 52.0244V50.6655C40.0742 50.4971 39.552 50.2612 39.0747 49.958L38.1931 50.8396C37.8787 51.1541 37.3621 51.1541 37.0476 50.8396L35.8516 49.6436C35.5371 49.3291 35.5371 48.8125 35.8516 48.498L36.8118 47.5378C36.5479 47.0437 36.3457 46.5103 36.2166 45.9431H34.97C34.5264 45.9431 34.1614 45.5781 34.1614 45.1345V43.4443C34.1614 43.0007 34.5264 42.6357 34.97 42.6357H36.3289C36.4973 42.0854 36.7332 41.5632 37.0364 41.0859L36.1548 40.2043C35.8403 39.8899 35.8403 39.3733 36.1548 39.0588L37.3508 37.8628C37.6653 37.5483 38.1819 37.5483 38.4963 37.8628L39.4565 38.823C39.9507 38.5591 40.4841 38.3569 41.0513 38.2278V36.9812C41.0513 36.5376 41.4163 36.1726 41.8599 36.1726H43.55C43.9937 36.1726 44.3586 36.5376 44.3586 36.9812V38.3401C44.9089 38.5085 45.4312 38.7444 45.9084 39.0476L46.79 38.166C47.1101 37.8516 47.6267 37.8516 47.9412 38.166ZM22.2571 32.8708L30.8708 24.2571C30.7136 23.4878 30.6294 22.6904 30.6294 21.8706C30.6294 18.5913 31.9602 15.6265 34.1052 13.4758C36.2559 11.3308 39.2207 10 42.5 10C45.7793 10 48.7441 11.3308 50.8948 13.4758C53.0454 15.6265 54.3706 18.5913 54.3706 21.8706C54.3706 22.6904 54.2864 23.4878 54.1292 24.2571L62.7373 32.8708C63.5066 32.7136 64.304 32.6294 65.1238 32.6294C68.4031 32.6294 71.3679 33.9602 73.5186 36.1052C75.6692 38.2502 76.9944 41.2207 76.9944 44.5C76.9944 47.7793 75.6636 50.7441 73.5186 52.8948C71.3679 55.0454 68.4031 56.3706 65.1238 56.3706C64.304 56.3706 63.5066 56.2864 62.7373 56.1292L54.1292 64.7429C54.2864 65.5122 54.3706 66.3096 54.3706 67.1294C54.3706 70.4087 53.0398 73.3735 50.8948 75.5242C48.7498 77.6748 45.7793 79 42.5 79C39.2207 79 36.2559 77.6692 34.1052 75.5242C31.9546 73.3735 30.6294 70.4087 30.6294 67.1294C30.6294 66.3096 30.7136 65.5122 30.8708 64.7429L22.2571 56.1292C21.4878 56.2864 20.6904 56.3706 19.8706 56.3706C16.5913 56.3706 13.6265 55.0398 11.4758 52.8948C9.33081 50.7441 8 47.7793 8 44.5C8 41.2207 9.33081 38.2559 11.4758 36.1052C13.6265 33.9546 16.5913 32.6294 19.8706 32.6294C20.6904 32.6294 21.4878 32.7136 22.2571 32.8708ZM32.3364 28.0081L26.0081 34.3364C26.8279 34.8362 27.5859 35.4314 28.2654 36.1052C30.416 38.2559 31.7412 41.2207 31.7412 44.5C31.7412 47.7793 30.4104 50.7441 28.2654 52.8948C27.5916 53.5686 26.8335 54.1638 26.0081 54.6636L32.3364 60.9919C32.8362 60.1721 33.4314 59.4141 34.1052 58.7346C36.2559 56.584 39.2207 55.2588 42.5 55.2588C45.7793 55.2588 48.7441 56.5896 50.8948 58.7346C51.5686 59.4084 52.1638 60.1665 52.6636 60.9919L58.9863 54.6636C58.1665 54.1638 57.4084 53.5686 56.729 52.8948C54.5784 50.7441 53.2532 47.7793 53.2532 44.5C53.2532 41.2207 54.584 38.2559 56.729 36.1052C57.4028 35.4314 58.1609 34.8362 58.9863 34.3364L52.6636 28.0081C52.1638 28.8279 51.5686 29.5859 50.8948 30.2654C48.7441 32.416 45.7793 33.7412 42.5 33.7412C39.2207 33.7412 36.2559 32.4104 34.1052 30.2654C33.4314 29.5916 32.8362 28.8335 32.3364 28.0081ZM49.126 15.2446C47.4302 13.5488 45.0886 12.4988 42.5 12.4988C39.9114 12.4988 37.5698 13.5488 35.874 15.2446C34.1782 16.9404 33.1282 19.282 33.1282 21.8706C33.1282 24.4592 34.1782 26.8008 35.874 28.4966C37.5698 30.1924 39.9114 31.2424 42.5 31.2424C45.0886 31.2424 47.4302 30.1924 49.126 28.4966C50.8218 26.8008 51.8718 24.4592 51.8718 21.8706C51.8718 19.282 50.8218 16.9404 49.126 15.2446ZM13.6545 44.5056C13.6545 42.5459 14.1992 41.0242 15.2942 39.9348C16.3835 38.8455 17.9053 38.2952 19.8538 38.2952C21.8528 38.2952 23.3914 38.8342 24.4695 39.9011C25.5532 40.9736 26.0923 42.4785 26.0923 44.4045C26.0923 45.8083 25.8564 46.9539 25.3848 47.8523C24.9131 48.7507 24.228 49.447 23.3352 49.9468C22.4424 50.4465 21.3306 50.6936 19.9998 50.6936C18.6465 50.6936 17.5291 50.4802 16.6418 50.0479C15.7546 49.6155 15.0359 48.936 14.4856 47.9983C13.9297 47.0774 13.6545 45.9094 13.6545 44.5056ZM17.355 44.5168C17.355 45.7241 17.5796 46.6001 18.0288 47.1279C18.4836 47.6558 19.0957 47.9197 19.8706 47.9197C20.668 47.9197 21.2856 47.6614 21.7236 47.1448C22.1616 46.6282 22.3806 45.696 22.3806 44.354C22.3806 43.2253 22.1504 42.3999 21.6956 41.8833C21.2351 41.3611 20.6174 41.1028 19.8369 41.1028C19.0901 41.1028 18.4836 41.3667 18.0344 41.8945C17.5852 42.4167 17.355 43.2983 17.355 44.5168ZM26.4966 51.126C28.1924 49.4302 29.2424 47.0886 29.2424 44.5C29.2424 41.9114 28.1924 39.5698 26.4966 37.874C24.8008 36.1782 22.4592 35.1282 19.8706 35.1282C17.282 35.1282 14.9404 36.1782 13.2446 37.874C11.5488 39.5698 10.4988 41.9114 10.4988 44.5C10.4988 47.0886 11.5488 49.4302 13.2446 51.126C14.9404 52.8218 17.282 53.8718 19.8706 53.8718C22.4592 53.8718 24.8008 52.8218 26.4966 51.126ZM37.3958 61.6938H47.6099V64.3779H44.179V72.5593H40.8267V64.3835H37.3958V61.6938V61.6938ZM49.126 60.5034C47.4302 58.8076 45.0886 57.7576 42.5 57.7576C39.9114 57.7576 37.5698 58.8076 35.874 60.5034C34.1782 62.1992 33.1282 64.5408 33.1282 67.1294C33.1282 69.718 34.1782 72.0596 35.874 73.7554C37.5698 75.4512 39.9114 76.5012 42.5 76.5012C45.0886 76.5012 47.4302 75.4512 49.126 73.7554C50.8218 72.0596 51.8718 69.718 51.8718 67.1294C51.8718 64.5408 50.8218 62.1992 49.126 60.5034ZM58.3462 39.6484H61.1931L62.2151 45.0615L63.7144 39.6484H66.5388L68.0493 45.0728L69.0769 39.6484H71.907L69.7676 49.3516H66.8252L65.1238 43.2422L63.4336 49.3516H60.5024L58.3462 39.6484ZM71.7554 51.126C73.4512 49.4302 74.5012 47.0886 74.5012 44.5C74.5012 41.9114 73.4512 39.5698 71.7554 37.874C70.0596 36.1782 67.718 35.1282 65.1294 35.1282C62.5408 35.1282 60.1992 36.1782 58.5034 37.874C56.8076 39.5698 55.7576 41.9114 55.7576 44.5C55.7576 47.0886 56.8076 49.4302 58.5034 51.126C60.1992 52.8218 62.5408 53.8718 65.1294 53.8718C67.718 53.8718 70.0596 52.8218 71.7554 51.126ZM37.2441 23.8359L40.647 23.6226C40.72 24.1729 40.8716 24.594 41.0962 24.8804C41.4668 25.3464 41.9946 25.5823 42.6797 25.5823C43.1907 25.5823 43.5837 25.4644 43.8589 25.2229C44.1396 24.9814 44.2744 24.7063 44.2744 24.3862C44.2744 24.0886 44.1453 23.8191 43.8813 23.5776C43.6174 23.3418 43.011 23.1172 42.0508 22.9038C40.4785 22.55 39.3611 22.084 38.6929 21.5C38.019 20.916 37.6821 20.1692 37.6821 19.2651C37.6821 18.6699 37.8562 18.1084 38.1987 17.5806C38.5413 17.0471 39.0635 16.6316 39.7541 16.3284C40.4448 16.0251 41.3994 15.8735 42.6067 15.8735C44.0891 15.8735 45.2178 16.1487 45.9927 16.7046C46.7676 17.2549 47.2336 18.1309 47.3796 19.3381L44.0105 19.5347C43.9207 19.0068 43.7297 18.625 43.449 18.3892C43.1626 18.1477 42.7639 18.0298 42.2585 18.0298C41.843 18.0298 41.5286 18.1196 41.3152 18.2937C41.1018 18.4678 41.0007 18.6868 41.0007 18.9395C41.0007 19.1248 41.085 19.2876 41.259 19.4336C41.4219 19.5852 41.8206 19.7256 42.4551 19.8604C44.0217 20.1973 45.1392 20.5398 45.813 20.8879C46.4924 21.2305 46.9866 21.6572 47.2898 22.1738C47.5986 22.6848 47.7502 23.2576 47.7502 23.8921C47.7502 24.6333 47.5425 25.3184 47.1326 25.9473C46.717 26.5706 46.1499 27.0535 45.4087 27.3735C44.6731 27.6992 43.741 27.8564 42.6179 27.8564C40.647 27.8564 39.2825 27.4746 38.5244 26.7166C37.772 25.9641 37.3452 25.0039 37.2441 23.8359ZM42.5 41.1758C44.3362 41.1758 45.8242 42.6638 45.8242 44.5C45.8242 46.3362 44.3362 47.8242 42.5 47.8242C40.6638 47.8242 39.1758 46.3362 39.1758 44.5C39.1758 42.6638 40.6638 41.1758 42.5 41.1758Z" fill="#F6830F"/>
</svg>
