<svg width="70" height="71" viewBox="0 0 70 71" fill="none" xmlns="http://www.w3.org/2000/svg">
<path d="M31.3843 1.39781C28.4001 2.75425 25.5516 6.00969 24.5343 9.26513C23.9239 11.232 23.7204 11.2998 18.8373 11.6389L13.8184 11.978L13.4793 16.8612C13.1402 21.6765 13.0724 21.7443 10.2917 23.779C6.15459 26.7631 2.83133 31.5785 1.20361 37.0042C-2.66223 49.28 3.03479 62.3017 14.7001 68.0666C18.9051 70.169 19.7189 70.3047 26.0264 70.3047C31.9947 70.3047 33.2833 70.1012 36.7422 68.4735C42.2357 65.8963 48.1362 59.7245 50.1031 54.57C54.3758 43.3795 51.0526 30.8324 41.9645 23.9824C38.9125 21.6765 38.9125 21.6087 38.5734 16.7933L38.2343 11.978L32.3338 11.7745C29.0105 11.7067 26.3655 11.3676 26.3655 11.1641C26.3655 10.8929 26.9759 9.40078 27.7897 7.84088C29.6209 3.97504 33.8937 1.80474 38.3021 2.41514C42.3036 2.95771 47.5258 5.26365 49.4927 7.29831L50.9848 8.92603H49.0179C47.9328 8.92603 46.5763 9.26513 46.0338 9.60424C45.2199 10.2146 45.559 10.825 48.2719 13.1988C50.0352 14.8265 51.4595 16.5899 51.4595 17.1325C51.4595 17.6072 50.8491 19.7097 50.0352 21.7443C49.2214 23.9146 48.9501 25.678 49.2892 26.0171C49.6283 26.3562 51.5951 25.7458 54.0367 24.3894L58.1739 22.1513L62.2432 24.3894C64.4813 25.6102 66.4481 26.3562 66.6516 26.0171C66.855 25.678 66.3125 23.3721 65.5664 20.8626L64.0743 16.3864L67.3976 13.3344C71.3313 9.80771 70.9243 8.92603 65.363 8.92603H61.904L60.6154 5.19583C58.7842 -0.229904 57.8347 -0.704659 56.2748 2.88989C55.5966 4.51762 54.8506 6.48444 54.5793 7.16266C54.1724 8.38345 54.0367 8.38345 52.2734 6.75573C45.9659 0.85524 37.4204 -1.31506 31.3843 1.39781ZM59.5303 8.58692C60.7511 11.4354 61.0902 11.6389 63.4639 11.6389L66.0412 11.7067L63.6674 13.6057L61.3615 15.5726L62.4466 19.0315L63.5318 22.4904L60.8189 20.9983L58.106 19.4384L55.3932 20.9305L52.6803 22.4904L53.0872 20.9305C54.5115 16.1151 54.3758 15.3013 52.0699 13.4701L49.764 11.6389H52.5447C55.2575 11.6389 55.3932 11.5033 56.4783 8.58692C57.1565 6.89137 57.7669 5.53494 57.9026 5.53494C58.0382 5.53494 58.7842 6.89137 59.5303 8.58692ZM36.5387 18.4211C36.5387 22.8973 36.6744 23.1686 38.4377 24.1181C43.9313 27.0344 49.2892 35.6478 49.8996 42.7691C50.7813 52.2641 44.8808 62.1661 35.8605 66.4388C32.7407 67.9309 31.1808 68.2022 26.0264 68.27C20.6684 68.27 19.4477 68.0666 16.1244 66.3032C3.91648 60.1314 -1.10233 46.7705 4.32341 34.9017C6.15459 30.7646 10.4952 25.7458 13.6828 24.1181C15.3783 23.1686 15.514 22.8973 15.514 18.4211V13.6735H26.0264H36.5387V18.4211Z" fill="black"/>
<path d="M56.8867 13.6729C56.8867 14.4189 57.3615 15.0293 57.904 15.0293C58.4466 15.0293 58.9214 14.4189 58.9214 13.6729C58.9214 12.9268 58.4466 12.3164 57.904 12.3164C57.3615 12.3164 56.8867 12.9268 56.8867 13.6729Z" fill="black"/>
<path d="M31.4524 26.0166C27.9256 28.0512 27.2474 32.3918 30.1637 34.6299C35.9286 39.174 42.7786 31.6458 37.1494 26.9661C34.9113 25.0671 33.5548 24.7958 31.4524 26.0166ZM35.9286 28.526C37.285 29.6111 37.4207 30.0859 36.8781 31.7136C35.6573 35.2403 30.435 34.5621 30.435 30.8997C30.435 29.5433 32.6053 27.2374 33.8939 27.2374C34.1652 27.2374 35.0469 27.8477 35.9286 28.526Z" fill="black"/>
<path d="M41.151 34.767C39.3876 35.7843 39.5911 39.1754 41.3544 40.1927C43.6604 41.4135 46.0341 39.9892 46.0341 37.4798C46.0341 34.6313 43.5925 33.2749 41.151 34.767ZM43.6604 38.0902C43.3213 38.6328 42.9143 38.6328 42.5074 38.2259C42.1005 37.8189 42.0326 37.1407 42.3039 36.7338C42.643 36.1912 43.05 36.1912 43.4569 36.5981C43.8638 37.0051 43.9317 37.6833 43.6604 38.0902Z" fill="black"/>
<path d="M4.86668 47.5165C5.95183 56.4012 14.1583 64.6076 22.9751 65.6927C25.8236 66.0318 26.3662 65.8962 26.3662 64.9467C26.3662 64.2685 25.8236 63.8616 24.6706 63.8616C21.5508 63.8616 15.6503 61.0809 12.8018 58.368C9.68202 55.316 7.71519 51.4502 6.96916 47.0418C6.69787 45.1428 6.15529 44.1933 5.47708 44.1933C4.66322 44.1933 4.52757 44.8036 4.86668 47.5165Z" fill="black"/>
</svg>
