<svg width="70" height="71" viewBox="0 0 70 71" fill="none" xmlns="http://www.w3.org/2000/svg">
<path d="M63.4022 0.920997C62.7602 1.16177 58.7474 4.77328 54.4938 8.94658C47.2708 16.0894 46.709 16.4104 44.6223 15.6078C37.8808 13.0396 32.3431 15.5276 22.7927 25.3188C14.2053 34.1469 12.841 37.2769 14.3658 44.0987L15.3289 48.0312L7.62432 55.7358C1.2841 62.076 0 63.8416 0 65.848C0 68.8977 2.16691 70.9844 5.29689 70.9844C7.14278 70.9844 9.06892 69.4595 15.2486 63.3601L22.9532 55.6555L26.8857 56.6186C29.8552 57.2606 31.7814 57.2606 34.189 56.6186C37.8808 55.6555 41.7331 52.9268 41.7331 51.4019C41.7331 49.9573 35.8744 44.4999 34.2693 44.4999C33.547 44.4999 32.9049 43.8579 32.9049 43.0553C32.8247 40.9687 30.8985 38.882 28.4106 38.1597L26.2437 37.5979L31.1393 32.4616C33.868 29.6526 36.1954 27.4857 36.2757 27.7265C36.4362 27.887 37.0782 29.0908 37.7203 30.4552C38.4426 31.8195 39.9675 33.1839 41.4121 33.6654C42.7764 34.0667 43.7395 34.789 43.6592 35.2705C43.3382 36.2336 44.4618 37.5979 47.9931 40.8082C50.16 42.8146 50.7218 42.9751 51.7651 42.0923C55.4569 39.0425 57.2225 31.2577 55.3766 26.3621C54.574 24.2755 54.8951 23.7137 62.1181 16.4906C66.2914 12.2371 69.8227 8.22428 69.9029 7.58223C70.3845 5.17456 69.0201 2.20509 67.0137 1.32228C65.8901 0.760486 64.8468 0.359206 64.7666 0.439462C64.6863 0.439462 64.0442 0.68023 63.4022 0.920997ZM66.3717 5.65609C66.6927 6.53891 63.4825 10.3109 55.2963 18.497C44.3815 29.4118 40.9305 31.8998 40.9305 28.6895C40.9305 27.0844 63.2417 4.372 64.8468 4.372C65.4086 4.372 66.0506 4.93379 66.3717 5.65609ZM43.258 19.2996C43.9 19.9416 41.4923 22.0283 39.9675 22.0283C37.2388 22.0283 34.189 24.1952 27.9291 30.6959C23.6755 35.0297 21.6691 37.6782 21.6691 39.0425C21.6691 41.2897 19.4219 44.7407 18.3786 44.0987C17.255 43.3764 17.4958 38.24 18.8601 35.3508C20.706 31.4182 32.1826 20.5034 35.7942 19.2193C38.5229 18.176 42.2146 18.2563 43.258 19.2996ZM52.2466 29.0106C52.4874 31.98 52.0861 35.11 51.2836 36.6349C50.5612 37.919 50.2402 37.9992 49.1969 37.1967C47.1905 35.5113 49.0364 27.6462 51.4441 27.6462C51.8453 27.6462 52.2466 28.2883 52.2466 29.0106ZM28.8921 43.5369C28.8921 45.142 6.50073 67.7741 4.89561 67.7741C4.41408 67.7741 3.77203 67.2123 3.45101 66.49C3.12998 65.6072 6.34022 61.8352 14.5263 53.6491C25.5214 42.6541 28.8921 40.2464 28.8921 43.5369ZM36.1954 49.7968C37.0782 50.9204 36.998 51.2414 35.7139 52.2045C34.0285 53.4083 27.608 53.7294 26.966 52.6058C26.2437 51.5625 29.0527 49.4758 31.7011 49.0745C33.0655 48.914 34.3495 48.6732 34.5903 48.593C34.9113 48.593 35.6336 49.0745 36.1954 49.7968Z" fill="black"/>
<path d="M55.4663 45.2226C52.9784 46.8277 55.2255 48.3525 61.004 48.9143C64.134 49.2354 66.9429 49.3156 67.1837 49.0749C68.4678 47.7908 66.3811 46.1856 62.8499 45.7041C60.7632 45.3831 58.4358 45.0621 57.7937 44.8213C57.1517 44.6608 56.1084 44.8213 55.4663 45.2226Z" fill="black"/>
<path d="M49.1812 50.5987C48.6194 52.1236 55.0398 58.9453 57.1265 58.9453C59.7749 58.9453 58.6514 56.2166 54.6386 52.6854C50.1442 48.9133 49.9035 48.8331 49.1812 50.5987Z" fill="black"/>
<path d="M44.3679 56.2164C44.1271 56.8585 44.2073 59.6674 44.6086 62.3961C45.2507 66.8102 45.5717 67.372 47.2571 67.6128C49.1832 67.9338 49.1832 67.8535 48.6214 62.4764C48.0596 57.2597 47.1768 54.9323 45.5717 54.9323C45.1704 54.9323 44.6889 55.4941 44.3679 56.2164Z" fill="black"/>
</svg>
