<svg width="52" height="52" viewBox="0 0 52 52" fill="none" xmlns="http://www.w3.org/2000/svg">
<circle cx="26" cy="26" r="26" fill="#D5D5D5"/>
<path d="M36.7915 28.3021H28.4359V36.5852C28.4359 37.9188 27.3453 39 26 39C24.6547 39 23.5641 37.9188 23.5641 36.5852V28.3021H15.2085C13.9536 28.1733 13 27.125 13 25.8743C13 24.6236 13.9536 23.5753 15.2085 23.4465H23.5379V15.1894C23.6678 13.9454 24.7253 13 25.9869 13C27.2485 13 28.306 13.9454 28.4359 15.1894V23.4465H36.7915C38.0464 23.5753 39 24.6236 39 25.8743C39 27.125 38.0464 28.1733 36.7915 28.3021Z" fill="#AFAFAF"/>
</svg>
