<svg width="52" height="52" viewBox="0 0 52 52" fill="none" xmlns="http://www.w3.org/2000/svg">
<g filter="url(#filter0_i_8907_175334)">
<circle cx="26" cy="26" r="26" fill="white"/>
</g>
<path d="M22.2 14C23.52 14 24.6 15.08 24.6 16.4C24.6 17.72 23.52 18.8 22.2 18.8C20.88 18.8 19.8 17.72 19.8 16.4C19.8 15.08 20.88 14 22.2 14ZM33 23C33 23.996 33.804 24.8 34.8 24.8C35.796 24.8 36.6 23.996 36.6 23C36.6 22.004 35.796 21.2 34.8 21.2C33.804 21.2 33 22.004 33 23ZM36.6 26H33.192C32.496 26.012 31.824 26.384 31.452 27.032L30.348 28.616L26.064 21.2C25.62 20.444 24.828 20.012 24.012 20H20.4C19.08 20 18 21.08 18 22.4V28.4C18 29.06 18.54 29.6 19.2 29.6H19.8V36.8C19.8 37.46 20.34 38 21 38H24.6C25.26 38 25.8 37.46 25.8 36.8V25.532L28.488 30.2C28.704 30.572 29.1 30.8 29.532 30.8H30.852C31.248 30.8 31.608 30.608 31.836 30.284L32.4 29.48V36.8C32.4 37.46 32.94 38 33.6 38H36C36.66 38 37.2 37.46 37.2 36.8V32C37.86 32 38.4 31.46 38.4 30.8V27.8C38.4 26.816 37.596 26 36.6 26Z" fill="#0E918C"/>
<defs>
<filter id="filter0_i_8907_175334" x="0" y="0" width="52" height="52" filterUnits="userSpaceOnUse" color-interpolation-filters="sRGB">
<feFlood flood-opacity="0" result="BackgroundImageFix"/>
<feBlend mode="normal" in="SourceGraphic" in2="BackgroundImageFix" result="shape"/>
<feColorMatrix in="SourceAlpha" type="matrix" values="0 0 0 0 0 0 0 0 0 0 0 0 0 0 0 0 0 0 127 0" result="hardAlpha"/>
<feMorphology radius="1" operator="erode" in="SourceAlpha" result="effect1_innerShadow_8907_175334"/>
<feOffset/>
<feGaussianBlur stdDeviation="2"/>
<feComposite in2="hardAlpha" operator="arithmetic" k2="-1" k3="1"/>
<feColorMatrix type="matrix" values="0 0 0 0 0.054902 0 0 0 0 0.568627 0 0 0 0 0.54902 0 0 0 0.3 0"/>
<feBlend mode="normal" in2="shape" result="effect1_innerShadow_8907_175334"/>
</filter>
</defs>
</svg>
