<svg width="52" height="52" viewBox="0 0 52 52" fill="none" xmlns="http://www.w3.org/2000/svg">
<circle cx="26" cy="26" r="26" fill="#898989" fill-opacity="0.2"/>
<path d="M17.6 24.4969C18.9237 24.4969 20 23.2268 20 21.6646C20 20.1024 18.9237 18.8323 17.6 18.8323C16.2762 18.8323 15.2 20.1024 15.2 21.6646C15.2 23.2268 16.2762 24.4969 17.6 24.4969ZM34.4 24.4969C35.7237 24.4969 36.8 23.2268 36.8 21.6646C36.8 20.1024 35.7237 18.8323 34.4 18.8323C33.0762 18.8323 32 20.1024 32 21.6646C32 23.2268 33.0762 24.4969 34.4 24.4969ZM35.6 25.913H33.2C32.54 25.913 31.9438 26.2273 31.5087 26.7362C33.02 27.7142 34.0925 29.48 34.325 31.5776H36.8C37.4638 31.5776 38 30.9448 38 30.1615V28.7453C38 27.1832 36.9237 25.913 35.6 25.913ZM26 25.913C28.3212 25.913 30.2 23.6959 30.2 20.9565C30.2 18.2172 28.3212 16 26 16C23.6788 16 21.8 18.2172 21.8 20.9565C21.8 23.6959 23.6788 25.913 26 25.913ZM28.88 27.3292H28.5687C27.7887 27.7717 26.9225 28.0373 26 28.0373C25.0775 28.0373 24.215 27.7717 23.4313 27.3292H23.12C20.735 27.3292 18.8 29.6127 18.8 32.4273V33.7019C18.8 34.8746 19.6062 35.8261 20.6 35.8261H31.4C32.3937 35.8261 33.2 34.8746 33.2 33.7019V32.4273C33.2 29.6127 31.265 27.3292 28.88 27.3292ZM20.4913 26.7362C20.0563 26.2273 19.46 25.913 18.8 25.913H16.4C15.0763 25.913 14 27.1832 14 28.7453V30.1615C14 30.9448 14.5362 31.5776 15.2 31.5776H17.6712C17.9075 29.48 18.98 27.7142 20.4913 26.7362Z" fill="#898989" fill-opacity="0.5"/>
</svg>
