<svg width="52" height="52" viewBox="0 0 52 52" fill="none" xmlns="http://www.w3.org/2000/svg">
<g filter="url(#filter0_i_8907_175383)">
<circle cx="26" cy="26" r="26" fill="white"/>
</g>
<path d="M25.7241 30.5544C21.0189 30.5544 17 31.2963 17 34.2636C17 37.232 20.9939 38 25.7241 38C30.4292 38 34.4482 37.2592 34.4482 34.2908C34.4482 31.3225 30.4554 30.5544 25.7241 30.5544Z" fill="#0E918C"/>
<path d="M25.7224 27.7282C28.9275 27.7282 31.4955 25.1591 31.4955 21.955C31.4955 18.751 28.9275 16.1819 25.7224 16.1819C22.5183 16.1819 19.9492 18.751 19.9492 21.955C19.9492 25.1591 22.5183 27.7282 25.7224 27.7282Z" fill="#0E918C"/>
<path fill-rule="evenodd" clip-rule="evenodd" d="M38.4398 17.7899C38.5631 17.852 38.6581 17.9502 38.725 18.0484C38.8553 18.2513 38.8447 18.5 38.718 18.7193L38.4715 19.112C38.3413 19.3215 38.0983 19.4524 37.8484 19.4524C37.7251 19.4524 37.5878 19.4197 37.4752 19.3542C37.3836 19.2986 37.278 19.279 37.1654 19.279C36.8168 19.279 36.5246 19.5506 36.514 19.8746C36.514 20.251 36.1901 20.5455 35.7853 20.5455H35.3065C34.8981 20.5455 34.5742 20.251 34.5742 19.8746C34.5671 19.5506 34.2749 19.279 33.9264 19.279C33.8102 19.279 33.7046 19.2986 33.6165 19.3542C33.5039 19.4197 33.3631 19.4524 33.2434 19.4524C32.9899 19.4524 32.7469 19.3215 32.6167 19.112L32.3738 18.7193C32.2435 18.5066 32.2364 18.2513 32.3667 18.0484C32.423 17.9502 32.5287 17.852 32.6484 17.7899C32.7469 17.744 32.8103 17.6688 32.8702 17.5804C33.0462 17.2989 32.9406 16.9291 32.6413 16.7622C32.2928 16.5757 32.1801 16.16 32.3808 15.836L32.6167 15.4498C32.8209 15.1258 33.2574 15.0113 33.6095 15.2011C33.9158 15.3582 34.3136 15.2535 34.4932 14.9753C34.5495 14.8836 34.5812 14.7855 34.5742 14.6873C34.5671 14.5596 34.6058 14.4385 34.6727 14.3404C34.803 14.1375 35.0389 14.0065 35.2959 14H35.7923C36.0528 14 36.2887 14.1375 36.419 14.3404C36.4823 14.4385 36.5246 14.5596 36.514 14.6873C36.507 14.7855 36.5387 14.8836 36.595 14.9753C36.7746 15.2535 37.1724 15.3582 37.4822 15.2011C37.8308 15.0113 38.2708 15.1258 38.4715 15.4498L38.7074 15.836C38.9116 16.16 38.7989 16.5757 38.4469 16.7622C38.1476 16.9291 38.042 17.2989 38.2215 17.5804C38.2779 17.6688 38.3413 17.744 38.4398 17.7899ZM34.6844 17.4383C34.6844 17.893 35.0716 18.255 35.5503 18.255C36.0289 18.255 36.4069 17.893 36.4069 17.4383C36.4069 16.9836 36.0289 16.6186 35.5503 16.6186C35.0716 16.6186 34.6844 16.9836 34.6844 17.4383Z" fill="#0E918C"/>
<defs>
<filter id="filter0_i_8907_175383" x="0" y="0" width="52" height="52" filterUnits="userSpaceOnUse" color-interpolation-filters="sRGB">
<feFlood flood-opacity="0" result="BackgroundImageFix"/>
<feBlend mode="normal" in="SourceGraphic" in2="BackgroundImageFix" result="shape"/>
<feColorMatrix in="SourceAlpha" type="matrix" values="0 0 0 0 0 0 0 0 0 0 0 0 0 0 0 0 0 0 127 0" result="hardAlpha"/>
<feMorphology radius="1" operator="erode" in="SourceAlpha" result="effect1_innerShadow_8907_175383"/>
<feOffset/>
<feGaussianBlur stdDeviation="2"/>
<feComposite in2="hardAlpha" operator="arithmetic" k2="-1" k3="1"/>
<feColorMatrix type="matrix" values="0 0 0 0 0.054902 0 0 0 0 0.568627 0 0 0 0 0.54902 0 0 0 0.3 0"/>
<feBlend mode="normal" in2="shape" result="effect1_innerShadow_8907_175383"/>
</filter>
</defs>
</svg>
