<svg width="52" height="52" viewBox="0 0 52 52" fill="none" xmlns="http://www.w3.org/2000/svg">
<circle cx="26" cy="26" r="26" fill="#D5D5D5"/>
<g clip-path="url(#clip0_8907_175341)">
<path d="M27.7973 32.9194H15.8021C14.8073 32.9194 14 33.7266 14 34.7216V37.9986H29.5994V34.7216C29.5994 33.7266 28.7921 32.9194 27.7973 32.9194Z" fill="#AFAFAF"/>
<path d="M37.6766 33.1735L26.7271 22.2239L28.842 20.1128C29.1907 20.4203 29.7269 20.4052 30.0569 20.0753C30.4019 19.7265 30.4019 19.1678 30.0569 18.8191L25.4971 14.263C25.1521 13.9143 24.5897 13.9143 24.2447 14.263C23.896 14.608 23.896 15.1705 24.2447 15.5154L24.2072 15.4779L18.4174 21.2639L18.4549 21.3051C18.1099 20.9564 17.5474 20.9564 17.2025 21.3051C16.8537 21.6502 16.8537 22.2126 17.2025 22.5576L21.7585 27.1174C22.1072 27.4624 22.6697 27.4624 23.0147 27.1174C23.3597 26.7687 23.3597 26.21 23.0147 25.8613L23.0522 25.8987L25.1671 23.7876L36.1129 34.7334C36.5441 35.1646 37.2454 35.1646 37.6766 34.7334C38.1079 34.3022 38.1079 33.6047 37.6766 33.1735Z" fill="#AFAFAF"/>
</g>
<defs>
<clipPath id="clip0_8907_175341">
<rect width="24" height="24" fill="white" transform="translate(14 14)"/>
</clipPath>
</defs>
</svg>
