<svg width="52" height="52" viewBox="0 0 52 52" fill="none" xmlns="http://www.w3.org/2000/svg">
<circle cx="26" cy="26" r="26" fill="#898989" fill-opacity="0.2"/>
<path fill-rule="evenodd" clip-rule="evenodd" d="M34.0424 33.6487H35.6663V34.1506H34.0424V33.6487ZM34.0424 32.642H36.3863V33.1439H34.0424V32.642ZM34.0424 31.6384H36.3863V32.1402H34.0424V31.6384ZM33.0263 29.9491V36.4945H37.3899V29.9491H33.0263ZM28.0143 29.9491V36.4945H32.378V29.9491H28.0143ZM27.0107 28.961H38.406V37.4982H34.0424C34.0415 37.6315 33.988 37.7592 33.8934 37.8532C33.7988 37.9472 33.6708 38 33.5375 38H31.8637C31.7327 37.9968 31.6083 37.9425 31.5168 37.8487C31.4254 37.7549 31.3743 37.6291 31.3743 37.4982H27.0107V28.961ZM27.3224 25.2208C28.7169 25.2258 30.1032 25.4359 31.4367 25.8442C33.0953 26.2819 34.6591 27.0215 36.0496 28.026H26.0756V35.1948H18.0621C18.5918 34.9231 19.016 34.4827 19.2677 33.9432C19.5195 33.4036 19.5844 32.7956 19.4523 32.2151C19.3226 31.7264 19.0554 31.2852 18.6825 30.9438C18.3096 30.6023 17.8466 30.375 17.3484 30.2888V30.2078C17.3564 29.8222 17.4501 29.4432 17.6226 29.0982C17.7951 28.7532 18.0421 28.4509 18.3458 28.2131C19.8208 27.1539 21.4649 26.3528 23.2081 25.8442C24.5457 25.4545 25.9293 25.2448 27.3224 25.2208ZM13.2138 22.1709C13.2923 22.1449 13.378 22.1511 13.4519 22.1882C13.5259 22.2254 13.582 22.2904 13.6081 22.3689L16.432 30.8904C16.6956 30.8301 16.9685 30.8231 17.2349 30.8699C17.5012 30.9168 17.7554 31.0164 17.9826 31.163C18.2098 31.3096 18.4054 31.5002 18.5578 31.7235C18.7102 31.9469 18.8164 32.1985 18.8701 32.4635C18.9238 32.7285 18.9238 33.0016 18.8703 33.2666C18.8168 33.5317 18.7108 33.7833 18.5586 34.0068C18.4063 34.2302 18.2108 34.4209 17.9837 34.5677C17.7566 34.7144 17.5024 34.8142 17.2361 34.8612C16.0673 35.1512 15.4221 35.3133 14.9296 33.3497C14.5026 31.6291 14.9421 31.2894 15.8398 31.037L13.0159 22.5651C13.003 22.5263 12.9979 22.4852 13.0008 22.4443C13.0038 22.4035 13.0148 22.3636 13.0332 22.327C13.0515 22.2904 13.0769 22.2578 13.1079 22.231C13.1389 22.2042 13.1749 22.1838 13.2138 22.1709ZM27.3224 14C28.3087 14 29.2729 14.2925 30.093 14.8405C30.9131 15.3884 31.5523 16.1673 31.9298 17.0786C32.3072 17.9898 32.406 18.9925 32.2136 19.9599C32.0211 20.9273 31.5462 21.8159 30.8487 22.5134C30.1513 23.2108 29.2627 23.6858 28.2953 23.8782C27.3279 24.0706 26.3252 23.9719 25.4139 23.5944C24.5027 23.217 23.7238 22.5778 23.1758 21.7576C22.6278 20.9375 22.3354 19.9734 22.3354 18.987C22.3354 17.6644 22.8608 16.3959 23.796 15.4607C24.7313 14.5254 25.9997 14 27.3224 14Z" fill="#898989" fill-opacity="0.5"/>
</svg>
