<svg width="52" height="52" viewBox="0 0 52 52" fill="none" xmlns="http://www.w3.org/2000/svg">
<circle cx="26" cy="26" r="26" fill="#898989" fill-opacity="0.2"/>
<path d="M35.7909 15H25.2468C24.0266 15 23.0376 15.9891 23.0376 17.2092V22.403C23.595 22.68 24.1972 22.9796 24.7593 23.259L25.6194 21.5381C26.1401 20.4976 27.4096 20.0748 28.4498 20.5946C29.4922 21.1163 29.9147 22.3823 29.3928 23.4249L27.8597 26.4919C27.9003 26.8978 27.8643 27.3071 27.7498 27.7031H28.762L26.0923 35.0442C25.934 35.4796 26.2401 35.9877 26.7534 35.9877C27.0403 35.9877 27.3102 35.8107 27.4138 35.5247L30.2582 27.7031H30.7509L33.6242 35.527C33.7288 35.8116 33.9979 35.9877 34.2847 35.9877C34.7642 35.9877 35.1158 35.5087 34.9442 35.0424L32.2489 27.7031H35.7909C37.0109 27.7031 38.0001 26.714 38.0001 25.494V17.2092C38.0001 15.9891 37.0109 15 35.7909 15V15ZM34.2843 24.6909H31.1296C30.7414 24.6909 30.4265 24.3759 30.4265 23.9877C30.4265 23.5992 30.7414 23.2846 31.1296 23.2846H34.2843C34.6729 23.2846 34.9874 23.5992 34.9874 23.9877C34.9874 24.3759 34.6729 24.6909 34.2843 24.6909ZM34.2843 22.0547H31.1296C30.7414 22.0547 30.4265 21.7401 30.4265 21.3516C30.4265 20.9634 30.7414 20.6484 31.1296 20.6484H34.2843C34.6729 20.6484 34.9874 20.9634 34.9874 21.3516C34.9874 21.7401 34.6729 22.0547 34.2843 22.0547ZM34.2843 19.4189H26.7534C26.3648 19.4189 26.0502 19.1039 26.0502 18.7158C26.0502 18.3276 26.3648 18.0126 26.7534 18.0126H34.2843C34.6729 18.0126 34.9874 18.3276 34.9874 18.7158C34.9874 19.1039 34.6729 19.4189 34.2843 19.4189Z" fill="#898989" fill-opacity="0.5"/>
<path d="M26.3713 27.4016C26.4984 27.0293 26.4975 26.6404 26.3902 26.2855L28.1352 22.7959C28.3088 22.4485 28.1682 22.0261 27.8208 21.8525C27.4736 21.6788 27.0512 21.8196 26.8774 22.1669L25.3892 25.1431C24.4996 24.7002 23.1481 24.0282 22.0594 23.4868C21.0464 22.983 20.3235 22.5313 19.0901 22.5313H18.4689C19.4293 22.5313 20.2864 22.0893 20.8474 21.3975C21.2755 20.8711 21.5315 20.2002 21.5315 19.4691C21.5315 17.7773 20.1604 16.4062 18.4685 16.4062C16.7773 16.4062 15.4062 17.7773 15.4062 19.4691C15.4062 20.2815 15.7227 21.0198 16.2388 21.5676C16.7969 22.1611 17.5896 22.5313 18.4683 22.5315C17.2902 22.5315 16.1385 23.0089 15.3099 23.8396C14.4653 24.6821 14 25.8045 14 27.0002V29.2595C14 30.2322 14.6315 31.0598 15.5062 31.3542V35.2844C15.5062 35.6728 15.821 35.9875 16.2094 35.9875H20.728C21.1164 35.9875 21.4312 35.6728 21.4312 35.2844V27.3843C22.0978 27.7176 22.9736 28.1554 23.6823 28.5099C24.179 28.7582 24.7595 28.7805 25.2771 28.5699C25.7933 28.3575 26.1912 27.9348 26.3686 27.4098C26.3695 27.407 26.3704 27.4043 26.3713 27.4016Z" fill="#898989" fill-opacity="0.5"/>
</svg>
