<svg width="24" height="24" viewBox="0 0 24 24" fill="none" xmlns="http://www.w3.org/2000/svg">
<circle cx="12" cy="12" r="12" fill="#23183D"/>
<path d="M18.6309 11.3363C18.3437 11.138 17.9556 11.2183 17.7641 11.5156L17.7455 11.5445C17.5194 8.34778 14.9349 5.81836 11.7901 5.81836C8.49726 5.8184 5.81836 8.59154 5.81836 12.0002C5.81836 15.4089 8.49726 18.182 11.7901 18.182C12.2504 18.182 12.6235 17.7958 12.6235 17.3193C12.6235 16.8428 12.2504 16.4566 11.7901 16.4566C9.41634 16.4565 7.48517 14.4574 7.48517 12.0002C7.48517 9.54299 9.41634 7.54385 11.7901 7.54385C13.9902 7.54385 15.8098 9.26131 16.0643 11.4691C15.8637 11.2106 15.5023 11.1489 15.2309 11.3363C14.9436 11.5345 14.8661 11.9363 15.0576 12.2336L16.2953 14.1549C16.4413 14.3817 16.679 14.517 16.931 14.517C17.1829 14.517 17.4205 14.3816 17.5665 14.1549L18.8042 12.2336C18.9957 11.9363 18.9181 11.5345 18.6309 11.3363Z" fill="#E9E9E9"/>
</svg>
