<svg width="24" height="24" viewBox="0 0 24 24" fill="none" xmlns="http://www.w3.org/2000/svg">
<circle cx="12" cy="12" r="12" fill="#0E918C"/>
<path d="M6.00003 14.19C6.03405 14.0311 6.06071 13.8723 6.10312 13.716C6.40983 12.5923 7.41048 11.7881 8.53046 11.7831C10.0834 11.7757 11.6362 11.7794 13.1891 11.7831C13.6945 11.7826 14.1882 11.9409 14.6059 12.2375C14.4601 12.5628 14.3877 12.9187 14.3944 13.2778C14.3944 13.308 14.3548 13.3517 14.3233 13.3686C13.6474 13.7362 13.312 14.3171 13.3125 15.1112C13.3125 15.689 13.3125 16.267 13.3125 16.8665H13.1503C10.9413 16.8665 8.73231 16.8638 6.52333 16.8702C6.27399 16.8702 6.09905 16.7894 5.99927 16.5487L6.00003 14.19Z" fill="#E9E9E9"/>
<path d="M19 17.1557C18.9792 17.2224 18.9627 17.2907 18.9368 17.355C18.7735 17.7626 18.4762 17.9879 18.056 17.9924C17.0624 18.003 16.0687 18.003 15.0749 17.9924C14.5196 17.9868 14.1271 17.5528 14.1255 16.9719C14.1238 16.3458 14.1238 15.7195 14.1255 15.0932C14.1255 14.4675 14.5064 14.0579 15.1071 14.0365C15.1363 14.0365 15.1655 14.0317 15.211 14.028C15.211 13.7796 15.2044 13.5336 15.2133 13.2884C15.2194 13.1222 15.2275 12.9511 15.2696 12.7925C15.4415 12.1435 16.0748 11.705 16.7024 11.7863C17.3814 11.8734 17.8892 12.434 17.9108 13.1304C17.9197 13.4251 17.9123 13.72 17.9123 14.0306L18.0695 14.0399C18.528 14.0664 18.8662 14.3555 18.9774 14.8189C18.9837 14.8393 18.9912 14.8592 19 14.8785V17.1557ZM16.0293 14.0288H17.0957C17.0957 13.7129 17.11 13.4049 17.0914 13.0989C17.0757 12.8341 16.8243 12.6273 16.5628 12.6273C16.3013 12.6273 16.0496 12.8343 16.0339 13.0986C16.0154 13.4047 16.0293 13.7134 16.0293 14.0288Z" fill="#E9E9E9"/>
<path d="M10.8788 10.6473C10.1617 10.6485 9.47342 10.3532 8.96474 9.82608C8.45606 9.29897 8.1685 8.58307 8.16507 7.83525C8.15746 6.27804 9.37545 5.00203 10.871 5.00017C11.2287 4.99606 11.5837 5.06592 11.9154 5.20571C12.247 5.3455 12.5489 5.55246 12.8034 5.81462C13.058 6.07678 13.2602 6.38895 13.3984 6.73308C13.5365 7.07722 13.6079 7.4465 13.6085 7.81959C13.609 8.19268 13.5386 8.56217 13.4014 8.90672C13.2642 9.25128 13.0628 9.56406 12.809 9.82699C12.5552 10.0899 12.2539 10.2978 11.9226 10.4386C11.5913 10.5794 11.2366 10.6503 10.8788 10.6473Z" fill="#E9E9E9"/>
</svg>
