<svg width="182" height="45" viewBox="0 0 182 45" fill="none" xmlns="http://www.w3.org/2000/svg">
<path d="M6.73752 44.0112C6.47124 44.0112 6.26803 43.9377 6.12788 43.7908C5.98774 43.6438 5.91767 43.4373 5.91767 43.1714V37.8592H4.05723C3.60176 37.8592 3.37402 37.6353 3.37402 37.1873C3.37402 36.7394 3.60176 36.5154 4.05723 36.5154H9.40729C9.86276 36.5154 10.0905 36.7394 10.0905 37.1873C10.0905 37.6353 9.86276 37.8592 9.40729 37.8592H7.54686V43.1714C7.54686 43.4373 7.47678 43.6438 7.33664 43.7908C7.2035 43.9377 7.00379 44.0112 6.73752 44.0112Z" fill="#24A19C"/>
<path d="M11.6129 44.0112C11.3466 44.0112 11.1434 43.9377 11.0032 43.7908C10.8631 43.6438 10.793 43.4373 10.793 43.1714V37.2608C10.793 36.7009 11.0663 36.421 11.6129 36.421C12.1524 36.421 12.4222 36.7009 12.4222 37.2608V39.4865H15.8698V37.2608C15.8698 36.7009 16.1396 36.421 16.6791 36.421C17.2257 36.421 17.499 36.7009 17.499 37.2608V43.1714C17.499 43.4373 17.4289 43.6438 17.2888 43.7908C17.1486 43.9377 16.9454 44.0112 16.6791 44.0112C16.4199 44.0112 16.2201 43.9377 16.08 43.7908C15.9399 43.6438 15.8698 43.4373 15.8698 43.1714V40.8407H12.4222V43.1714C12.4222 43.7313 12.1524 44.0112 11.6129 44.0112Z" fill="#24A19C"/>
<path d="M19.8458 43.9167C19.2782 43.9167 18.9944 43.6333 18.9944 43.0664V37.3658C18.9944 36.7989 19.2782 36.5154 19.8458 36.5154H23.5141C23.9415 36.5154 24.1553 36.7254 24.1553 37.1453C24.1553 37.5723 23.9415 37.7857 23.5141 37.7857H20.55V39.518H23.2723C23.7068 39.518 23.924 39.7314 23.924 40.1584C23.924 40.5853 23.7068 40.7987 23.2723 40.7987H20.55V42.6464H23.5141C23.9415 42.6464 24.1553 42.8564 24.1553 43.2763C24.1553 43.7033 23.9415 43.9167 23.5141 43.9167H19.8458Z" fill="#24A19C"/>
<path d="M29.1245 44.0112C28.8582 44.0112 28.6515 43.9377 28.5043 43.7908C28.3642 43.6438 28.2941 43.4303 28.2941 43.1504V37.3658C28.2941 36.7989 28.5779 36.5154 29.1455 36.5154H32.7402C33.1677 36.5154 33.3814 36.7254 33.3814 37.1453C33.3814 37.5723 33.1677 37.7857 32.7402 37.7857H29.9233V39.5914H32.509C32.9434 39.5914 33.1606 39.8014 33.1606 40.2213C33.1606 40.6483 32.9434 40.8617 32.509 40.8617H29.9233V43.1504C29.9233 43.7243 29.657 44.0112 29.1245 44.0112Z" fill="#24A19C"/>
<path d="M37.4629 44.0322C36.4118 44.0322 35.6095 43.7628 35.0559 43.2239C34.5093 42.6849 34.236 41.8836 34.236 40.8197V37.2503C34.236 36.9844 34.3061 36.7814 34.4463 36.6414C34.5864 36.4944 34.7896 36.421 35.0559 36.421C35.5955 36.421 35.8652 36.6974 35.8652 37.2503V40.8302C35.8652 41.4321 36.0019 41.8871 36.2752 42.195C36.5484 42.496 36.9444 42.6464 37.4629 42.6464C38.521 42.6464 39.05 42.041 39.05 40.8302V37.2503C39.05 36.6974 39.3198 36.421 39.8594 36.421C40.1187 36.421 40.3149 36.4944 40.448 36.6414C40.5881 36.7814 40.6582 36.9844 40.6582 37.2503V40.8197C40.6582 41.8836 40.3884 42.6849 39.8489 43.2239C39.3093 43.7628 38.514 44.0322 37.4629 44.0322Z" fill="#24A19C"/>
<path d="M44.6856 44.0112C44.4193 44.0112 44.2161 43.9377 44.076 43.7908C43.9358 43.6438 43.8658 43.4373 43.8658 43.1714V37.8592H42.0053C41.5499 37.8592 41.3221 37.6353 41.3221 37.1873C41.3221 36.7394 41.5499 36.5154 42.0053 36.5154H47.3554C47.8109 36.5154 48.0386 36.7394 48.0386 37.1873C48.0386 37.6353 47.8109 37.8592 47.3554 37.8592H45.495V43.1714C45.495 43.4373 45.4249 43.6438 45.2847 43.7908C45.1516 43.9377 44.9519 44.0112 44.6856 44.0112Z" fill="#24A19C"/>
<path d="M51.9154 44.0322C50.8643 44.0322 50.062 43.7628 49.5084 43.2239C48.9618 42.6849 48.6886 41.8836 48.6886 40.8197V37.2503C48.6886 36.9844 48.7586 36.7814 48.8988 36.6414C49.0389 36.4944 49.2421 36.421 49.5084 36.421C50.048 36.421 50.3178 36.6974 50.3178 37.2503V40.8302C50.3178 41.4321 50.4544 41.8871 50.7277 42.195C51.001 42.496 51.3969 42.6464 51.9154 42.6464C52.9735 42.6464 53.5026 42.041 53.5026 40.8302V37.2503C53.5026 36.6974 53.7723 36.421 54.3119 36.421C54.5712 36.421 54.7674 36.4944 54.9005 36.6414C55.0407 36.7814 55.1107 36.9844 55.1107 37.2503V40.8197C55.1107 41.8836 54.841 42.6849 54.3014 43.2239C53.7618 43.7628 52.9665 44.0322 51.9154 44.0322Z" fill="#24A19C"/>
<path d="M57.3723 44.0112C57.106 44.0112 56.9028 43.9377 56.7627 43.7908C56.6225 43.6438 56.5525 43.4373 56.5525 43.1714V37.3448C56.5525 36.7919 56.8292 36.5154 57.3828 36.5154H59.937C60.7638 36.5154 61.4015 36.7149 61.85 37.1138C62.2984 37.5128 62.5227 38.0692 62.5227 38.7831C62.5227 39.336 62.379 39.7979 62.0917 40.1688C61.8114 40.5328 61.4085 40.7812 60.8829 40.9142C61.2543 41.0262 61.5591 41.2957 61.7974 41.7226L62.4491 42.9299C62.5962 43.1959 62.6243 43.4443 62.5332 43.6753C62.4421 43.8992 62.2213 44.0112 61.871 44.0112C61.6397 44.0112 61.4505 43.9622 61.3034 43.8642C61.1562 43.7663 61.0301 43.6158 60.925 43.4128L59.9159 41.5546C59.8108 41.3587 59.6812 41.2257 59.527 41.1557C59.3729 41.0857 59.1907 41.0507 58.9805 41.0507H58.1816V43.1714C58.1816 43.4373 58.1116 43.6438 57.9714 43.7908C57.8383 43.9377 57.6386 44.0112 57.3723 44.0112ZM58.1816 39.8749H59.6427C60.5186 39.8749 60.9565 39.525 60.9565 38.8251C60.9565 38.1322 60.5186 37.7857 59.6427 37.7857H58.1816V39.8749Z" fill="#24A19C"/>
<path d="M64.7225 43.9167C64.1549 43.9167 63.8711 43.6333 63.8711 43.0664V37.3658C63.8711 36.7989 64.1549 36.5154 64.7225 36.5154H68.3908C68.8182 36.5154 69.0319 36.7254 69.0319 37.1453C69.0319 37.5723 68.8182 37.7857 68.3908 37.7857H65.4267V39.518H68.149C68.5835 39.518 68.8007 39.7314 68.8007 40.1584C68.8007 40.5853 68.5835 40.7987 68.149 40.7987H65.4267V42.6464H68.3908C68.8182 42.6464 69.0319 42.8564 69.0319 43.2763C69.0319 43.7033 68.8182 43.9167 68.3908 43.9167H64.7225Z" fill="#24A19C"/>
<path d="M76.6079 44.0322C75.8791 44.0322 75.2379 43.8747 74.6844 43.5598C74.1378 43.2378 73.7103 42.7934 73.402 42.2265C73.1007 41.6526 72.9501 40.9807 72.9501 40.2108C72.9501 39.441 73.1007 38.7726 73.402 38.2057C73.7103 37.6318 74.1378 37.1873 74.6844 36.8724C75.2309 36.5574 75.8721 36.4 76.6079 36.4C77.3436 36.4 77.9848 36.5574 78.5314 36.8724C79.0849 37.1873 79.5124 37.6318 79.8137 38.2057C80.122 38.7726 80.2762 39.4375 80.2762 40.2003C80.2762 40.9702 80.122 41.6421 79.8137 42.216C79.5124 42.7899 79.0849 43.2378 78.5314 43.5598C77.9848 43.8747 77.3436 44.0322 76.6079 44.0322ZM76.6079 42.6464C77.2245 42.6464 77.7045 42.433 78.0478 42.006C78.3982 41.5721 78.5734 40.9737 78.5734 40.2108C78.5734 39.441 78.4017 38.8461 78.0584 38.4261C77.715 37.9992 77.2315 37.7857 76.6079 37.7857C75.9982 37.7857 75.5182 37.9992 75.1679 38.4261C74.8245 38.8461 74.6528 39.441 74.6528 40.2108C74.6528 40.9737 74.8245 41.5721 75.1679 42.006C75.5182 42.433 75.9982 42.6464 76.6079 42.6464Z" fill="#24A19C"/>
<path d="M82.3668 44.0112C82.1005 44.0112 81.8938 43.9377 81.7466 43.7908C81.6065 43.6438 81.5364 43.4303 81.5364 43.1504V37.3658C81.5364 36.7989 81.8202 36.5154 82.3878 36.5154H85.9825C86.41 36.5154 86.6237 36.7254 86.6237 37.1453C86.6237 37.5723 86.41 37.7857 85.9825 37.7857H83.1656V39.5914H85.7513C86.1857 39.5914 86.403 39.8014 86.403 40.2213C86.403 40.6483 86.1857 40.8617 85.7513 40.8617H83.1656V43.1504C83.1656 43.7243 82.8993 44.0112 82.3668 44.0112Z" fill="#24A19C"/>
<path d="M91.2969 44.0112C91.0307 44.0112 90.8239 43.9377 90.6768 43.7908C90.5367 43.6438 90.4666 43.4303 90.4666 43.1504V37.3658C90.4666 36.7989 90.7504 36.5154 91.318 36.5154H94.9127C95.3401 36.5154 95.5539 36.7254 95.5539 37.1453C95.5539 37.5723 95.3401 37.7857 94.9127 37.7857H92.0958V39.5914H94.6815C95.1159 39.5914 95.3331 39.8014 95.3331 40.2213C95.3331 40.6483 95.1159 40.8617 94.6815 40.8617H92.0958V43.1504C92.0958 43.7243 91.8295 44.0112 91.2969 44.0112Z" fill="#24A19C"/>
<path d="M99.7955 44.0322C99.0668 44.0322 98.4256 43.8747 97.872 43.5598C97.3254 43.2378 96.898 42.7934 96.5897 42.2265C96.2884 41.6526 96.1377 40.9807 96.1377 40.2108C96.1377 39.441 96.2884 38.7726 96.5897 38.2057C96.898 37.6318 97.3254 37.1873 97.872 36.8724C98.4186 36.5574 99.0597 36.4 99.7955 36.4C100.531 36.4 101.172 36.5574 101.719 36.8724C102.273 37.1873 102.7 37.6318 103.001 38.2057C103.31 38.7726 103.464 39.4375 103.464 40.2003C103.464 40.9702 103.31 41.6421 103.001 42.216C102.7 42.7899 102.273 43.2378 101.719 43.5598C101.172 43.8747 100.531 44.0322 99.7955 44.0322ZM99.7955 42.6464C100.412 42.6464 100.892 42.433 101.236 42.006C101.586 41.5721 101.761 40.9737 101.761 40.2108C101.761 39.441 101.589 38.8461 101.246 38.4261C100.903 37.9992 100.419 37.7857 99.7955 37.7857C99.1859 37.7857 98.7059 37.9992 98.3555 38.4261C98.0122 38.8461 97.8405 39.441 97.8405 40.2108C97.8405 40.9737 98.0122 41.5721 98.3555 42.006C98.7059 42.433 99.1859 42.6464 99.7955 42.6464Z" fill="#24A19C"/>
<path d="M107.373 44.0322C106.924 44.0322 106.476 43.9832 106.027 43.8852C105.579 43.7873 105.19 43.6438 104.861 43.4548C104.665 43.3498 104.542 43.2099 104.493 43.0349C104.444 42.8529 104.454 42.6779 104.524 42.51C104.594 42.342 104.707 42.223 104.861 42.153C105.015 42.083 105.201 42.1005 105.418 42.2055C105.698 42.3665 106.01 42.4855 106.353 42.5625C106.697 42.6394 107.036 42.6779 107.373 42.6779C107.877 42.6779 108.238 42.601 108.455 42.447C108.68 42.286 108.792 42.0865 108.792 41.8486C108.792 41.6456 108.715 41.4846 108.561 41.3657C108.406 41.2467 108.137 41.1452 107.751 41.0612L106.563 40.8092C105.239 40.5293 104.577 39.8434 104.577 38.7516C104.577 38.2827 104.703 37.8732 104.955 37.5233C105.208 37.1663 105.558 36.8899 106.006 36.6939C106.462 36.4979 106.987 36.4 107.583 36.4C107.975 36.4 108.361 36.449 108.739 36.5469C109.118 36.6379 109.45 36.7744 109.738 36.9564C109.913 37.0614 110.022 37.1978 110.064 37.3658C110.106 37.5338 110.092 37.6948 110.022 37.8487C109.959 38.0027 109.846 38.1112 109.685 38.1742C109.531 38.2372 109.338 38.2127 109.107 38.1007C108.876 37.9817 108.631 37.8942 108.371 37.8382C108.112 37.7822 107.846 37.7542 107.573 37.7542C107.131 37.7542 106.788 37.8417 106.542 38.0167C106.304 38.1847 106.185 38.4051 106.185 38.6781C106.185 38.8811 106.259 39.0455 106.406 39.1715C106.553 39.2975 106.809 39.399 107.173 39.476L108.361 39.7279C109.72 40.0219 110.4 40.6868 110.4 41.7226C110.4 42.1845 110.274 42.5905 110.022 42.9404C109.776 43.2833 109.426 43.5528 108.97 43.7488C108.522 43.9377 107.989 44.0322 107.373 44.0322Z" fill="#24A19C"/>
<path d="M113.889 44.0112C113.623 44.0112 113.42 43.9377 113.28 43.7908C113.14 43.6438 113.069 43.4373 113.069 43.1714V37.8592H111.209C110.754 37.8592 110.526 37.6353 110.526 37.1873C110.526 36.7394 110.754 36.5154 111.209 36.5154H116.559C117.015 36.5154 117.242 36.7394 117.242 37.1873C117.242 37.6353 117.015 37.8592 116.559 37.8592H114.699V43.1714C114.699 43.4373 114.629 43.6438 114.488 43.7908C114.355 43.9377 114.156 44.0112 113.889 44.0112Z" fill="#24A19C"/>
<path d="M118.796 43.9167C118.229 43.9167 117.945 43.6333 117.945 43.0664V37.3658C117.945 36.7989 118.229 36.5154 118.796 36.5154H122.465C122.892 36.5154 123.106 36.7254 123.106 37.1453C123.106 37.5723 122.892 37.7857 122.465 37.7857H119.5V39.518H122.223C122.657 39.518 122.874 39.7314 122.874 40.1584C122.874 40.5853 122.657 40.7987 122.223 40.7987H119.5V42.6464H122.465C122.892 42.6464 123.106 42.8564 123.106 43.2763C123.106 43.7033 122.892 43.9167 122.465 43.9167H118.796Z" fill="#24A19C"/>
<path d="M125.129 44.0112C124.862 44.0112 124.659 43.9377 124.519 43.7908C124.379 43.6438 124.309 43.4373 124.309 43.1714V37.3448C124.309 36.7919 124.586 36.5154 125.139 36.5154H127.693C128.52 36.5154 129.158 36.7149 129.606 37.1138C130.055 37.5128 130.279 38.0692 130.279 38.7831C130.279 39.336 130.135 39.7979 129.848 40.1688C129.568 40.5328 129.165 40.7812 128.639 40.9142C129.011 41.0262 129.316 41.2957 129.554 41.7226L130.205 42.9299C130.353 43.1959 130.381 43.4443 130.29 43.6753C130.198 43.8992 129.978 44.0112 129.627 44.0112C129.396 44.0112 129.207 43.9622 129.06 43.8642C128.913 43.7663 128.787 43.6158 128.681 43.4128L127.672 41.5546C127.567 41.3587 127.438 41.2257 127.283 41.1557C127.129 41.0857 126.947 41.0507 126.737 41.0507H125.938V43.1714C125.938 43.4373 125.868 43.6438 125.728 43.7908C125.595 43.9377 125.395 44.0112 125.129 44.0112ZM125.938 39.8749H127.399C128.275 39.8749 128.713 39.525 128.713 38.8251C128.713 38.1322 128.275 37.7857 127.399 37.7857H125.938V39.8749Z" fill="#24A19C"/>
<path d="M132.447 44.0112C132.181 44.0112 131.978 43.9377 131.838 43.7908C131.698 43.6438 131.627 43.4373 131.627 43.1714V37.2608C131.627 36.7009 131.901 36.421 132.447 36.421C132.987 36.421 133.257 36.7009 133.257 37.2608V43.1714C133.257 43.7313 132.987 44.0112 132.447 44.0112Z" fill="#24A19C"/>
<path d="M135.505 44.0112C135 44.0112 134.748 43.7488 134.748 43.2239V37.2398C134.748 36.9739 134.811 36.7709 134.937 36.6309C135.07 36.4909 135.245 36.421 135.463 36.421C135.645 36.421 135.789 36.4595 135.894 36.5364C135.999 36.6064 136.118 36.7254 136.251 36.8934L139.657 41.2292V37.1978C139.657 36.6799 139.909 36.421 140.413 36.421C140.918 36.421 141.17 36.6799 141.17 37.1978V43.2553C141.17 43.4863 141.111 43.6718 140.991 43.8118C140.872 43.9447 140.711 44.0112 140.508 44.0112C140.312 44.0112 140.154 43.9727 140.035 43.8957C139.923 43.8188 139.8 43.6963 139.667 43.5283L136.261 39.1925V43.2239C136.261 43.7488 136.009 44.0112 135.505 44.0112Z" fill="#24A19C"/>
<path d="M146.33 44.0322C145.496 44.0322 144.789 43.8747 144.207 43.5598C143.632 43.2448 143.194 42.8039 142.893 42.237C142.592 41.6701 142.441 41.0052 142.441 40.2423C142.441 39.4585 142.595 38.7796 142.904 38.2057C143.219 37.6318 143.671 37.1873 144.26 36.8724C144.848 36.5574 145.556 36.4 146.383 36.4C146.761 36.4 147.14 36.442 147.518 36.5259C147.896 36.6099 148.261 36.7499 148.611 36.9459C148.8 37.0509 148.912 37.1908 148.947 37.3658C148.989 37.5408 148.972 37.7122 148.895 37.8802C148.818 38.0412 148.699 38.1602 148.538 38.2372C148.383 38.3072 148.198 38.2897 147.98 38.1847C147.511 37.9397 146.982 37.8172 146.393 37.8172C145.644 37.8172 145.079 38.0272 144.701 38.4471C144.33 38.8601 144.144 39.4585 144.144 40.2423C144.144 41.0332 144.333 41.6316 144.712 42.0375C145.097 42.4435 145.665 42.6464 146.414 42.6464C146.814 42.6464 147.234 42.5835 147.676 42.4575V41.0087H146.73C146.295 41.0087 146.078 40.8127 146.078 40.4208C146.078 40.0289 146.295 39.8329 146.73 39.8329H148.38C148.807 39.8329 149.021 40.0499 149.021 40.4838V42.9194C149.021 43.1014 148.982 43.2553 148.905 43.3813C148.835 43.5073 148.72 43.5983 148.559 43.6543C148.243 43.7663 147.889 43.8572 147.497 43.9272C147.105 43.9972 146.716 44.0322 146.33 44.0322Z" fill="#24A19C"/>
<path d="M44.3625 28.1807C43.5975 28.1807 43.0086 27.9679 42.5958 27.5423C42.183 27.1168 41.9766 26.498 41.9766 25.6862V8.92322C41.9766 7.27983 42.7919 6.45813 44.4226 6.45813H54.7544C55.9831 6.45813 56.5975 7.06704 56.5975 8.28485C56.5975 9.52121 55.9831 10.1394 54.7544 10.1394H46.659V15.3773H54.0897C55.3379 15.3773 55.962 15.9857 55.962 17.2024C55.962 18.4398 55.3379 19.0586 54.0897 19.0586H46.659V25.6911C46.659 27.3508 45.8935 28.1807 44.3625 28.1807Z" fill="white"/>
<path d="M64.4629 28.1806C62.8707 28.1806 61.4856 27.8558 60.3074 27.2062C59.1534 26.5803 58.203 25.6227 57.5729 24.451C56.9226 23.2638 56.5974 21.8551 56.5974 20.2249C56.5974 18.6146 56.9226 17.2159 57.5729 16.0287C58.2009 14.8591 59.1522 13.9058 60.3074 13.2885C61.4867 12.6489 62.8718 12.329 64.4629 12.329C66.054 12.329 67.4392 12.6489 68.6184 13.2885C69.7754 13.9085 70.7308 14.8608 71.3676 16.0287C72.0179 17.2159 72.343 18.6146 72.343 20.2249C72.343 21.8562 72.0179 23.2649 71.3676 24.451C70.7287 25.621 69.7742 26.5776 68.6184 27.2062C67.4402 27.8558 66.0551 28.1806 64.4629 28.1806ZM64.4629 24.6825C64.9121 24.6953 65.3585 24.6046 65.769 24.4173C66.1795 24.2299 66.5437 23.9505 66.8349 23.5997C67.4495 22.8768 67.7567 21.7518 67.7567 20.2249C67.7567 18.7179 67.4495 17.6074 66.8349 16.8933C66.5418 16.5458 66.1769 16.2695 65.7666 16.0845C65.3563 15.8996 64.911 15.8105 64.4629 15.8239C64.0168 15.8095 63.5734 15.8982 63.1653 16.0834C62.7572 16.2685 62.395 16.5453 62.1055 16.8933C61.5007 17.6051 61.1989 18.7157 61.2 20.2249C61.2 21.7529 61.5018 22.8779 62.1055 23.5997C62.3931 23.9509 62.7547 24.2308 63.1629 24.4183C63.5712 24.6058 64.0157 24.6962 64.4629 24.6825V24.6825Z" fill="white"/>
<path d="M79.8318 28.1806C78.9176 28.1783 78.0052 28.0958 77.1046 27.9341C76.2204 27.7862 75.3622 27.5056 74.5574 27.1013C74.0548 26.8326 73.7305 26.4917 73.5846 26.0787C73.434 25.6925 73.4288 25.2626 73.57 24.8728C73.7018 24.49 73.9717 24.174 74.3239 23.99C74.6861 23.7934 75.1076 23.7984 75.5886 24.005C76.3202 24.327 77.0804 24.5758 77.8586 24.7478C78.5184 24.8889 79.1903 24.9614 79.8642 24.9644C80.7074 24.9644 81.33 24.825 81.7321 24.5463C81.9168 24.433 82.0697 24.2722 82.1754 24.0797C82.2812 23.8872 82.3363 23.6697 82.3352 23.4487C82.3352 22.7258 81.8229 22.2716 80.7981 22.0862L77.6332 21.4982C76.3664 21.2695 75.4022 20.8048 74.7406 20.1041C74.0791 19.4034 73.7473 18.4851 73.7451 17.3492C73.7219 16.3878 74.0201 15.4473 74.5898 14.6842C75.1996 13.9048 76.0004 13.3063 76.9101 12.9503C77.995 12.5183 79.1516 12.3079 80.315 12.3307C82.0823 12.3307 83.6496 12.6816 85.017 13.3834C85.2206 13.4676 85.4034 13.5975 85.5521 13.7634C85.7007 13.9294 85.8115 14.1273 85.8763 14.3428C85.9864 14.7424 85.9595 15.1687 85.8001 15.5503C85.65 15.9311 85.3722 16.2442 85.017 16.4331C84.6554 16.6297 84.2225 16.613 83.7199 16.3865C83.1384 16.1067 82.5326 15.8837 81.9104 15.7202C81.4075 15.5914 80.8916 15.5238 80.3733 15.5187C79.4708 15.5187 78.8179 15.6686 78.4147 15.9684C78.2307 16.0901 78.0792 16.2572 77.9742 16.4545C77.8691 16.6517 77.8138 16.8728 77.8132 17.0977C77.8132 17.8206 78.285 18.2747 79.2286 18.4602L82.3936 19.0481C83.6983 19.2769 84.6927 19.726 85.377 20.3956C86.0612 21.0652 86.4028 21.9779 86.4017 23.1339C86.4017 24.7228 85.7991 25.9609 84.5938 26.8482C83.3886 27.7354 81.8013 28.1795 79.8318 28.1806Z" fill="white"/>
<path d="M94.9566 28.1806C90.8739 28.1806 88.8326 26.0786 88.8326 21.8746V15.9771H87.5897C86.4226 15.9771 85.8391 15.3914 85.8391 14.22C85.8391 13.0284 86.4226 12.4326 87.5897 12.4326H88.8326V10.0476C88.8326 8.43733 89.5822 7.6322 91.0814 7.6322C92.5593 7.6322 93.2988 8.43733 93.2999 10.0476V12.4326H96.1088C97.2525 12.4326 97.8244 13.0284 97.8244 14.22C97.8244 15.3914 97.2525 15.9771 96.1088 15.9771H93.2999V21.6873C93.2999 22.565 93.4919 23.2238 93.876 23.6638C94.26 24.1038 94.8765 24.3232 95.7252 24.3221C96.0036 24.3246 96.2813 24.2929 96.5528 24.2275C96.7866 24.1696 97.0237 24.1279 97.2626 24.1026C97.3891 24.0885 97.517 24.1066 97.6355 24.1557C97.754 24.2047 97.8597 24.2832 97.9437 24.3845C98.1209 24.5938 98.2095 25.0225 98.2095 25.6707C98.2215 26.1281 98.1406 26.5828 97.9724 27.0041C97.8911 27.1889 97.7761 27.3547 97.6341 27.492C97.4921 27.6293 97.3258 27.7354 97.1448 27.8042C96.8043 27.9311 96.4523 28.0205 96.0945 28.0709C95.7184 28.1383 95.338 28.175 94.9566 28.1806V28.1806Z" fill="white"/>
<path d="M106.302 28.1806C104.62 28.1806 103.175 27.8557 101.966 27.2059C100.804 26.6006 99.8358 25.6417 99.1829 24.4498C98.5339 23.2623 98.2099 21.8632 98.2109 20.2525C98.2109 18.685 98.523 17.307 99.147 16.1184C99.7535 14.9555 100.646 13.9916 101.728 13.3307C102.884 12.6453 104.19 12.3003 105.512 12.3309C107.581 12.3309 109.225 13.028 110.443 14.4221C111.661 15.8162 112.27 17.7003 112.27 20.0742C112.27 20.8584 111.815 21.2506 110.906 21.2506H102.387C102.541 22.4492 102.952 23.3218 103.62 23.8683C104.288 24.4148 105.211 24.6881 106.389 24.6881C106.919 24.6822 107.447 24.6265 107.968 24.5215C108.558 24.4081 109.13 24.2044 109.666 23.9166C110.225 23.6278 110.699 23.5723 111.087 23.75C111.271 23.8289 111.437 23.9483 111.574 24.1005C111.711 24.2527 111.817 24.4342 111.884 24.6331C112.029 25.0473 112.029 25.5036 111.884 25.9178C111.739 26.3622 111.415 26.7288 110.912 27.0176C110.205 27.422 109.449 27.7192 108.666 27.9007C107.89 28.0857 107.097 28.1796 106.302 28.1806V28.1806ZM105.692 15.4219C104.765 15.4219 104.016 15.7213 103.445 16.32C102.874 16.9188 102.522 17.7519 102.387 18.8194H108.656C108.537 16.5544 107.548 15.4219 105.692 15.4219Z" fill="white"/>
<path d="M116.773 28.1806C115.269 28.1806 114.518 27.3832 114.519 25.7883V14.7541C114.519 13.1793 115.231 12.3918 116.657 12.3918C118.082 12.3918 118.795 13.1793 118.796 14.7541V15.3192C119.49 13.4768 120.925 12.4827 123.102 12.3367C123.584 12.2949 123.956 12.4253 124.215 12.7245C124.475 13.0238 124.615 13.517 124.634 14.2008C124.673 14.8427 124.553 15.3504 124.273 15.7238C123.993 16.0972 123.527 16.3251 122.873 16.4076L122.208 16.4694C120.05 16.6979 118.971 17.8788 118.971 20.0121V25.7916C118.97 27.3843 118.237 28.1806 116.773 28.1806Z" fill="white"/>
<path d="M128.904 28.1806C128.085 28.1806 127.5 27.8929 127.148 27.3174C126.797 26.742 126.805 26.0321 127.172 25.1877L134.666 7.87977C134.981 7.18149 135.351 6.67245 135.777 6.35264C136.219 6.03865 136.74 5.87091 137.273 5.87091C137.806 5.87091 138.327 6.03865 138.769 6.35264C139.197 6.67135 139.558 7.18039 139.852 7.87977L147.409 25.1877C147.778 26.0531 147.793 26.768 147.453 27.3324C147.113 27.8967 146.562 28.1795 145.8 28.1806C145.135 28.1806 144.623 28.0146 144.263 27.6826C143.903 27.3506 143.588 26.836 143.318 26.1389L142.089 23.1776H132.441L131.242 26.1389C130.949 26.8593 130.634 27.3788 130.297 27.6975C129.96 28.0162 129.496 28.1773 128.904 28.1806ZM137.215 11.2494L133.967 19.456H140.579L137.273 11.2494H137.215Z" fill="white"/>
<path d="M151.613 33.4645C150.127 33.4645 149.384 32.6787 149.384 31.1071V14.7252C149.384 13.1734 150.107 12.3974 151.554 12.3974C153.019 12.3974 153.752 13.1734 153.753 14.7252V14.8175C154.179 14.0433 154.81 13.4141 155.57 13.0053C156.401 12.5491 157.329 12.3174 158.267 12.3315C159.429 12.2968 160.574 12.6251 161.556 13.2744C162.538 13.9236 163.312 14.8642 163.779 15.9756C164.304 17.1387 164.567 18.5269 164.567 20.1403C164.567 21.7536 164.304 23.1468 163.779 24.3197C163.305 25.4285 162.539 26.3736 161.57 27.0446C160.586 27.698 159.438 28.0333 158.272 28.0083C157.358 28.0224 156.455 27.8036 155.64 27.3707C154.893 26.9829 154.261 26.3908 153.812 25.6574V31.1087C153.812 32.6792 153.079 33.4645 151.613 33.4645ZM156.949 24.5537C157.383 24.5672 157.813 24.4778 158.209 24.2924C158.605 24.1069 158.956 23.8301 159.234 23.4829C159.821 22.7679 160.115 21.6553 160.115 20.1452C160.115 18.6548 159.821 17.5566 159.234 16.8504C158.954 16.5063 158.603 16.2325 158.207 16.0494C157.811 15.8663 157.381 15.7786 156.949 15.7927C156.511 15.7763 156.076 15.8629 155.675 16.046C155.274 16.229 154.917 16.504 154.632 16.8504C154.042 17.5599 153.747 18.6581 153.747 20.1452C153.747 21.6564 154.04 22.769 154.625 23.4829C154.91 23.8334 155.267 24.1119 155.669 24.2974C156.072 24.4829 156.509 24.5705 156.949 24.5537V24.5537Z" fill="white"/>
<path d="M169.045 33.4645C167.559 33.4645 166.817 32.6787 166.817 31.1069V14.7242C166.817 13.1722 167.54 12.3963 168.986 12.3963C170.452 12.3963 171.185 13.1722 171.186 14.7242V14.8164C171.612 14.0422 172.243 13.413 173.004 13.0042C173.835 12.5481 174.763 12.3165 175.702 12.3304C176.867 12.3053 178.014 12.6351 179.002 13.2793C179.969 13.9393 180.736 14.8746 181.211 15.9746C181.737 17.1378 182 18.5261 182 20.1395C182 21.753 181.737 23.1462 181.211 24.3192C180.737 25.4276 179.97 26.3726 179.002 27.0442C178.017 27.6977 176.869 28.033 175.702 28.008C174.791 28.0193 173.89 27.7988 173.078 27.3655C172.33 26.9795 171.696 26.3891 171.244 25.657V31.1086C171.244 32.6792 170.511 33.4645 169.045 33.4645ZM174.383 24.5532C174.817 24.5667 175.248 24.4774 175.645 24.2919C176.041 24.1064 176.392 23.8296 176.671 23.4823C177.258 22.7673 177.551 21.6547 177.55 20.1445C177.55 18.654 177.257 17.5557 176.671 16.8495C176.39 16.5053 176.039 16.2315 175.643 16.0484C175.246 15.8653 174.816 15.7776 174.383 15.7918C173.946 15.7754 173.51 15.8619 173.109 16.045C172.708 16.2281 172.352 16.5031 172.067 16.8495C171.48 17.5535 171.186 18.6518 171.186 20.1445C171.186 21.6558 171.48 22.7684 172.067 23.4823C172.35 23.832 172.706 24.11 173.107 24.2954C173.508 24.4809 173.945 24.569 174.383 24.5532V24.5532Z" fill="white"/>
<path d="M37.4231 5.87091V28.7677" stroke="#F6830F" strokeWidth="2" stroke-miterlimit="10"/>
<path d="M25.5668 27.1491L25.3403 27.0065C25.3299 27.0303 25.3182 27.0523 25.3054 27.0723L25.7585 28.7678C25.7963 28.7355 25.8328 28.6988 25.8678 28.658C25.7002 28.2032 25.5971 27.6861 25.5668 27.1491V27.1491Z" fill="#0E918C"/>
<path d="M25.3055 28.7678L25.0117 27.0065C25.0002 27.0108 24.9885 27.0108 24.9769 27.0065L24.7432 28.7649L25.3055 28.7678Z" fill="#0E918C"/>
<path d="M28.5772 26.4194L27.5549 27.0263C27.5577 27.0496 27.5577 27.0732 27.5549 27.0965L28.6138 27.5936C28.7128 27.2094 28.6998 26.7923 28.5772 26.4194Z" fill="#0E918C"/>
<path d="M27.5548 27.0065L26.9924 28.7678H27.5548V27.0065Z" fill="#0E918C"/>
<path d="M28.1171 28.6244L27.7203 27.5935V28.6492H26.9924V28.6698C27.3599 28.8145 27.7587 28.7984 28.1171 28.6244V28.6244Z" fill="#0E918C"/>
<path d="M28.6796 27.6382L27.5549 27.0065V27.293L28.0014 28.7678C28.3091 28.5288 28.55 28.1276 28.6796 27.6382V27.6382Z" fill="#0E918C"/>
<path d="M24.7431 27.1971C24.7406 27.1824 24.7406 27.1676 24.7431 27.1529L24.2637 27.0065H23.6322C23.5976 27.2053 23.6284 27.4083 23.7215 27.5936L24.7431 27.1971Z" fill="#0E918C"/>
<path d="M29.1319 27.8019C29.2967 27.4346 29.2756 27.0293 29.0731 26.6747C28.8707 26.32 28.5034 26.0451 28.0519 25.9102C27.9247 25.8716 27.7924 25.8454 27.6576 25.8322V25.906C27.8974 25.9323 28.1277 25.9993 28.3335 26.1027C28.5393 26.206 28.716 26.3434 28.852 26.506C28.9881 26.6685 29.0806 26.8525 29.1233 27.046C29.1661 27.2395 29.1582 27.4382 29.1002 27.629C29.0422 27.8199 28.9354 27.9987 28.7867 28.1538C28.638 28.3089 28.4508 28.4368 28.2373 28.5292C28.0237 28.6216 27.7886 28.6764 27.5473 28.69C27.3059 28.7037 27.0637 28.6759 26.8365 28.6084C26.7559 28.5839 26.6775 28.555 26.6016 28.5221H26.4302C26.6587 28.6451 26.9186 28.7245 27.1902 28.7544C27.4619 28.7842 27.7384 28.7638 27.9989 28.6945C28.2595 28.6252 28.4974 28.5089 28.6948 28.3543C28.8922 28.1998 29.044 28.0109 29.1388 27.8019H29.1319Z" fill="#0E918C"/>
<path d="M22.955 28.2514C22.9041 28.2057 22.8393 28.1807 22.7722 28.1807H22.7385C22.685 28.188 22.6347 28.2114 22.5935 28.2479C22.5523 28.2844 22.522 28.3326 22.5062 28.3867C22.4904 28.4408 22.4898 28.4985 22.5044 28.5529C22.5191 28.6074 22.5483 28.6562 22.5887 28.6937C22.6291 28.7312 22.679 28.7557 22.7323 28.7643C22.7856 28.7729 22.8402 28.7653 22.8894 28.7423C22.9387 28.7193 22.9807 28.6819 23.0102 28.6346C23.0398 28.5873 23.0558 28.532 23.0562 28.4755C23.0567 28.3985 23.0284 28.3245 22.9775 28.2691V28.2691C22.9706 28.2624 22.9631 28.2565 22.955 28.2514ZM22.7722 28.5904C22.7571 28.5923 22.7417 28.5907 22.7272 28.5859C22.7127 28.581 22.6993 28.573 22.6879 28.5624C22.6765 28.5517 22.6674 28.5387 22.6611 28.5241C22.6549 28.5095 22.6517 28.4937 22.6517 28.4777C22.6517 28.4617 22.6549 28.4459 22.6611 28.4313C22.6674 28.4167 22.6765 28.4036 22.6879 28.393C22.6993 28.3823 22.7127 28.3743 22.7272 28.3695C22.7417 28.3647 22.7571 28.3631 22.7722 28.3649C22.7874 28.3631 22.8028 28.3647 22.8173 28.3695C22.8318 28.3743 22.8452 28.3823 22.8566 28.393C22.868 28.4036 22.8771 28.4167 22.8834 28.4313C22.8896 28.4459 22.8928 28.4617 22.8928 28.4777C22.8928 28.4937 22.8896 28.5095 22.8834 28.5241C22.8771 28.5387 22.868 28.5517 22.8566 28.5624C22.8452 28.573 22.8318 28.581 22.8173 28.5859C22.8028 28.5907 22.7874 28.5923 22.7722 28.5904V28.5904Z" fill="#0E918C"/>
<path d="M26.9645 27.0065L26.6315 27.4531C26.6226 27.5611 26.6112 27.6674 26.5976 27.7713C26.5581 28.075 26.5016 28.3579 26.4302 28.6087C26.4495 28.6645 26.4699 28.7175 26.4912 28.7678H26.7767L26.9925 27.0679C26.9822 27.0515 26.9727 27.0308 26.9645 27.0065V27.0065Z" fill="#0E918C"/>
<path d="M23.6185 27.8859C23.5755 27.809 23.5408 27.7295 23.5146 27.6482V27.6482L23.4871 27.5935L23.0562 28.095C23.0743 28.1229 23.0906 28.1515 23.1051 28.1806C23.2386 28.0479 23.4161 27.946 23.6185 27.8859V27.8859Z" fill="#0E918C"/>
<path d="M20.8067 27.7776L20.6552 27.0065C20.4413 27.0065 20.2126 27.0065 19.9631 27.0065C19.7137 27.0065 19.4879 27.0065 19.2741 27.0065L19.1196 27.7776V28.7678H20.8067V27.7776Z" fill="#0E918C"/>
<path d="M11.8093 27.5935V28.7677H12.3717V27.5935C12.2882 27.5935 12.1968 27.6019 12.0898 27.6019C11.9829 27.6019 11.8915 27.5991 11.8093 27.5935Z" fill="#0E918C"/>
<path d="M8.1562 25.8453C8.0916 25.8495 8.0267 25.8451 7.96331 25.8322L7.8728 28.7677H8.43515L8.34909 25.8322C8.28567 25.845 8.2208 25.8494 8.1562 25.8453Z" fill="#0E918C"/>
<path d="M16.1975 25.8322C16.0818 25.8494 15.9645 25.8494 15.8488 25.8322L15.7456 28.7677H16.3079L16.1975 25.8322Z" fill="#0E918C"/>
<path d="M25.8677 27.8504C25.8677 27.9605 25.9801 28.0705 26.0426 28.1806C26.1833 27.9924 26.3127 27.7964 26.43 27.5935V27.5935L25.8677 27.8504Z" fill="#0E918C"/>
<path d="M25.9059 27.4739L26.3441 27.5936C26.4287 27.4045 26.4513 27.2032 26.4098 27.0065H25.8818C25.8568 27.1623 25.865 27.32 25.9059 27.4739V27.4739Z" fill="#0E918C"/>
<path d="M24.6327 28.7651H24.7011L25.3054 27.066C25.2814 27.0498 25.2601 27.0297 25.2424 27.0065L23.6184 27.7884C23.6776 27.9082 23.747 28.0223 23.826 28.1293C24.0229 28.2254 24.1849 28.3837 24.2885 28.5811C24.3899 28.6527 24.4972 28.7151 24.6091 28.7678H24.6327V28.7651Z" fill="#0E918C"/>
<path d="M23.9037 28.7678C23.9692 28.7678 24.0327 28.7436 24.0831 28.6994C24.1336 28.6552 24.1678 28.5938 24.1798 28.5258C24.1811 28.508 24.1811 28.4902 24.1798 28.4724V28.4662C24.1781 28.4227 24.1669 28.3802 24.1469 28.3421C24.1236 28.2939 24.0881 28.2535 24.0443 28.2252C24.0006 28.197 23.9503 28.182 23.899 28.182C23.8803 28.1802 23.8614 28.1802 23.8426 28.182H23.8356H23.8262C23.7605 28.2005 23.7034 28.2436 23.6656 28.3032C23.6278 28.3629 23.6119 28.4351 23.6208 28.5062C23.6298 28.5774 23.6629 28.6427 23.7141 28.6899C23.7653 28.7371 23.831 28.763 23.899 28.7628L23.9037 28.7678ZM23.9037 28.3595C23.9249 28.3595 23.9455 28.3661 23.9631 28.3785C23.9807 28.3909 23.9944 28.4086 24.0025 28.4292C24.0106 28.4498 24.0127 28.4725 24.0086 28.4944C24.0045 28.5164 23.9943 28.5365 23.9793 28.5523C23.9644 28.5681 23.9453 28.5788 23.9246 28.5832C23.9038 28.5875 23.8823 28.5853 23.8628 28.5767C23.8433 28.5682 23.8266 28.5537 23.8148 28.5352C23.8031 28.5166 23.7968 28.4948 23.7968 28.4724C23.7966 28.4574 23.7993 28.4426 23.8047 28.4287C23.8101 28.4149 23.8181 28.4023 23.8282 28.3917C23.8383 28.3812 23.8502 28.3729 23.8634 28.3674C23.8766 28.3618 23.8907 28.3592 23.9049 28.3595H23.9037Z" fill="#0E918C"/>
<path d="M27.91 25.8322L27.5549 26.7507V26.9789V27.0064L28.6796 26.5089C28.5163 26.2028 28.2433 25.9627 27.91 25.8322Z" fill="#0E918C"/>
<path d="M17.4319 0L10.2568 5.95921V3.28234H6.58228V9.01449L0 14.4785H4.05162V28.7612H5.42239C5.41169 28.7505 5.4032 28.7377 5.39744 28.7236C5.39167 28.7094 5.38875 28.6942 5.38884 28.6789V26.4495C5.38884 25.8408 5.40641 25.2748 5.8889 25.26C5.94755 25.2579 6.00589 25.2697 6.05949 25.2943C6.11309 25.3189 6.16055 25.3557 6.19827 25.402C6.23599 25.4483 6.26298 25.5028 6.2772 25.5615C6.29141 25.6201 6.29248 25.6813 6.28032 25.7404C6.27893 25.7554 6.27467 25.7699 6.26779 25.7831C6.26092 25.7963 6.25157 25.808 6.24028 25.8175C6.22899 25.827 6.21598 25.8341 6.20201 25.8384C6.18804 25.8426 6.17339 25.844 6.1589 25.8424C6.1444 25.841 6.13031 25.8366 6.11746 25.8295C6.10461 25.8224 6.09326 25.8128 6.08405 25.8012C6.07483 25.7896 6.06795 25.7762 6.0638 25.7618C6.05965 25.7474 6.0583 25.7323 6.05985 25.7174C6.05985 25.6401 6.03588 25.4986 5.93843 25.4772C5.76269 25.4393 5.6189 25.5644 5.6189 26.4495V28.6789C5.61899 28.6942 5.61607 28.7094 5.6103 28.7236C5.60454 28.7377 5.59605 28.7505 5.58535 28.7612H6.91778V25.0461H9.5427V28.7612H11.5909V27.3511C11.4499 27.3437 11.3116 27.3085 11.1835 27.2475C11.1835 27.2475 11.6308 26.7325 11.4854 25.0428L11.3592 25.186L11.0173 24.9178C11.207 24.583 11.5077 24.3301 11.8641 24.2054C11.8641 24.2054 11.9791 24.5147 12.2443 24.5147C12.5095 24.5147 12.6261 24.2054 12.6261 24.2054C12.9823 24.3298 13.2825 24.5829 13.4713 24.9178L13.131 25.1827L13.0048 25.0395C12.8578 26.7292 13.3051 27.2442 13.3051 27.2442C13.1776 27.3051 13.0398 27.3403 12.8993 27.3479V28.7579H15.136L15.0354 25.3538H17.4542L17.3472 28.7579H19.2516V27.7839L19.2196 26.9859C18.9905 26.9656 18.7637 26.9232 18.5422 26.8592C18.5422 26.8592 18.924 26.109 19.0886 24.5328C18.7084 24.3271 18.2115 23.8286 18.3808 23.3811C18.5568 22.9294 18.8436 22.5326 19.2132 22.2294C19.3056 22.4185 19.3651 22.6229 19.389 22.8332C19.3056 22.8649 19.2286 22.9124 19.1621 22.9731C19.1621 22.9731 18.8346 23.3663 18.7962 23.6114C18.7755 23.7348 18.9432 23.9553 19.1238 24.1363C19.1477 23.8072 19.1621 23.4485 19.1621 23.0586C19.2371 22.9698 19.337 22.9072 19.4481 22.8793C19.4263 22.6393 19.3601 22.4059 19.2532 22.1915L19.4129 22.0616C19.5375 22.3026 19.6126 22.5675 19.6334 22.8398C19.7243 22.8236 19.8161 22.8126 19.9082 22.8069C19.8184 22.8969 19.7346 22.9931 19.6574 23.0948C19.2915 23.5884 19.2452 24.0507 19.3714 24.3979C19.2963 24.3156 19.2116 24.2333 19.1206 24.1412C19.1094 24.2794 19.0982 24.4127 19.0854 24.5394C19.3235 24.6693 19.5327 24.7253 19.5375 24.6924L19.5807 24.7401C19.7626 24.9172 20.0046 25.0141 20.2549 25.0099C20.5938 24.9955 20.9178 24.8626 21.1735 24.6331L21.1991 24.6118C21.4943 24.3445 21.7486 24.0328 21.9532 23.6871C22.1129 24.309 21.2486 24.7138 21.1991 24.6118C21.3668 26.1402 21.7391 26.8691 21.7391 26.8691C21.5171 26.9329 21.2898 26.9753 21.0601 26.9958L21.0281 27.7937V28.7677H23.4581C23.3653 28.6836 23.2987 28.5731 23.2664 28.4502C23.2157 28.5052 23.1544 28.5489 23.0866 28.5784C23.0187 28.608 22.9457 28.6229 22.872 28.6221C22.7983 28.6214 22.7255 28.605 22.6583 28.574C22.591 28.543 22.5306 28.4981 22.4809 28.4421C22.4313 28.3861 22.3933 28.3201 22.3694 28.2483C22.3456 28.1765 22.3364 28.1004 22.3423 28.0247C22.3482 27.9491 22.3692 27.8755 22.404 27.8086C22.4387 27.7417 22.4865 27.6829 22.5443 27.6358V27.6358L21.7694 27.3495C21.7559 27.3447 21.7434 27.3372 21.7327 27.3273C21.722 27.3175 21.7134 27.3056 21.7073 27.2922C21.7012 27.2789 21.6977 27.2644 21.6972 27.2496C21.6966 27.2349 21.6989 27.2202 21.7039 27.2064C21.7119 27.1833 21.727 27.1636 21.7469 27.1502C21.7668 27.1368 21.7905 27.1305 21.8142 27.1323H21.8429L22.8734 27.514C22.9962 27.5141 23.1152 27.5577 23.2105 27.6374L23.2744 27.5387L23.4342 27.2936L23.3655 27.2508L23.2473 27.5321L23.2345 27.5617L23.1131 27.5173L21.8925 27.0616L21.9036 27.0468C21.9182 27.0293 21.9349 27.0139 21.9532 27.0007L21.7646 26.93L21.7758 26.9168C21.9931 26.6618 22.5363 26.846 22.605 26.8707C22.5283 26.8247 22.4452 26.7786 22.3606 26.7325C22.6412 26.2549 22.8884 25.7573 23.1003 25.2435V25.0181C23.1001 24.7817 23.1728 24.5512 23.308 24.36V24.36C23.2815 24.369 23.2534 24.3717 23.2257 24.368C23.1981 24.3643 23.1716 24.3542 23.1482 24.3386L23.1865 23.9882C23.3176 23.7727 23.7521 23.6131 23.7521 23.6131L25.3082 23.4765L25.452 22.9829L25.3993 22.9648C25.4616 22.6753 25.6485 22.0632 25.6789 21.9629C25.6754 21.9562 25.6705 21.9506 25.6645 21.9464C25.786 21.8665 25.9209 21.8107 26.0623 21.7819L26.0815 21.6256C25.6948 21.517 25.5574 21.1534 25.5111 20.849C25.4386 20.8357 25.3738 20.794 25.3303 20.7327C25.2869 20.6714 25.2681 20.5952 25.2779 20.5199C25.2838 20.4823 25.2985 20.4468 25.3207 20.4164C25.343 20.386 25.3722 20.3617 25.4057 20.3455H25.3274L25.3514 19.9424C25.3068 19.9114 25.2729 19.8668 25.2542 19.8149C25.2356 19.7629 25.2333 19.7063 25.2475 19.6529C25.3207 19.684 25.4028 19.684 25.476 19.6529C25.476 19.6529 25.2986 19.5229 25.4121 19.1955C25.4121 19.1955 25.5047 19.462 26.3035 19.3107C26.3035 19.3107 26.7924 19.258 26.9841 19.5723C27.3356 19.5459 27.4075 20.0445 27.4075 20.0445C27.3656 19.9872 27.3161 19.9362 27.2605 19.8931C27.3352 20.0131 27.3663 20.1565 27.3484 20.2978C27.3789 20.3142 27.4055 20.3375 27.4259 20.3661C27.4464 20.3946 27.4603 20.4275 27.4666 20.4624C27.4666 20.4624 27.505 20.8605 27.1471 20.8474C27.1095 20.9997 27.0415 21.1423 26.9474 21.2661C26.8533 21.3899 26.7353 21.4921 26.6007 21.5663L26.6167 21.7045C26.76 21.6294 26.9177 21.5878 27.0784 21.5828V21.5515H28.021V21.5631H28.0737V21.823H28.021V21.8724H27.2765C27.485 21.9763 27.6777 22.111 27.8485 22.2722C28.0385 22.0976 28.2825 21.9979 28.537 21.9908V21.9596H29.4797V21.9908H29.5308V22.2508H29.4797V22.3001H28.537V22.2541C28.3321 22.2617 28.1371 22.3466 27.9891 22.4926C28.1558 22.6545 28.3077 22.8318 28.4428 23.0224C28.331 23.5456 27.9092 24.3666 27.7334 24.694V24.8585C28.1686 24.9061 28.5761 25.1009 28.8923 25.4125C29.2084 25.7241 29.4153 26.1349 29.4805 26.5805C29.5457 27.0261 29.4656 27.4814 29.2526 27.8751C29.0397 28.2688 28.706 28.5787 28.3038 28.7562H30.8201V14.4785H34.8653L17.4319 0ZM20.1894 18.4601C20.3556 18.3656 20.5478 18.3313 20.7352 18.3626C20.9226 18.3939 21.0944 18.489 21.2231 18.6328C22.0746 19.4719 21.0936 20.6812 21.8717 21.0464C21.7714 21.1246 21.6545 21.1773 21.5307 21.2001C21.4069 21.223 21.2796 21.2154 21.1591 21.1781C21.0565 21.1496 20.9592 21.1034 20.8716 21.0415C21.0459 20.8679 21.1655 20.6443 21.2151 20.3998C21.2683 20.3775 21.3133 20.3384 21.3437 20.2882C21.3741 20.238 21.3883 20.1792 21.3844 20.1201C21.3891 20.0605 21.375 20.001 21.3442 19.9503C21.3134 19.8996 21.2675 19.8605 21.2135 19.8388C21.1662 19.5916 21.0424 19.3667 20.8607 19.198C20.6789 19.0292 20.449 18.9256 20.2054 18.9026C20.1436 19.0913 20.0332 19.2591 19.8858 19.388C19.6693 19.6065 19.3882 19.7443 19.087 19.7796L19.0726 19.8388C19.0217 19.8646 18.9789 19.9045 18.9489 19.9541C18.9189 20.0037 18.903 20.0609 18.903 20.1193C18.903 20.1777 18.9189 20.235 18.9489 20.2845C18.9789 20.3341 19.0217 20.3741 19.0726 20.3998C19.1259 20.663 19.2604 20.9014 19.4561 21.0793C19.3832 21.1221 19.3053 21.1553 19.2244 21.1781C19.1042 21.2152 18.9772 21.2226 18.8537 21.1997C18.7301 21.1769 18.6136 21.1243 18.5135 21.0464C19.2915 20.6812 18.3106 19.4719 19.1525 18.6328C19.2814 18.4883 19.4538 18.3926 19.6419 18.3613C19.83 18.33 20.0228 18.3647 20.1894 18.4601V18.4601ZM17.6491 7.34124C17.6491 7.29155 17.6586 7.24234 17.6771 7.19643C17.6956 7.15052 17.7226 7.1088 17.7568 7.07366C17.7909 7.03852 17.8314 7.01065 17.876 6.99163C17.9205 6.97262 17.9683 6.96283 18.0166 6.96283H18.7755C18.8729 6.96283 18.9664 7.0027 19.0353 7.07366C19.1042 7.14463 19.1429 7.24088 19.1429 7.34124V8.12275C19.1429 8.22311 19.1042 8.31937 19.0353 8.39033C18.9664 8.4613 18.8729 8.50117 18.7755 8.50117H18.0102C17.9127 8.50117 17.8193 8.4613 17.7504 8.39033C17.6815 8.31937 17.6427 8.22311 17.6427 8.12275L17.6491 7.34124ZM17.6491 9.01614C17.6491 8.96644 17.6586 8.91724 17.6771 8.87133C17.6956 8.82541 17.7226 8.7837 17.7568 8.74856C17.7909 8.71342 17.8314 8.68555 17.876 8.66653C17.9205 8.64751 17.9683 8.63773 18.0166 8.63773H18.7755C18.8729 8.63773 18.9664 8.67759 19.0353 8.74856C19.1042 8.81953 19.1429 8.91578 19.1429 9.01614V9.79765C19.1429 9.89801 19.1042 9.99426 19.0353 10.0652C18.9664 10.1362 18.8729 10.1761 18.7755 10.1761H18.0102C17.9127 10.1761 17.8193 10.1362 17.7504 10.0652C17.6815 9.99426 17.6427 9.89801 17.6427 9.79765L17.6491 9.01614ZM16.01 7.34124C16.01 7.24088 16.0487 7.14463 16.1176 7.07366C16.1865 7.0027 16.28 6.96283 16.3774 6.96283H17.1363C17.2337 6.96283 17.3272 7.0027 17.3961 7.07366C17.465 7.14463 17.5037 7.24088 17.5037 7.34124V8.12275C17.5037 8.22311 17.465 8.31937 17.3961 8.39033C17.3272 8.4613 17.2337 8.50117 17.1363 8.50117H16.3774C16.28 8.50117 16.1865 8.4613 16.1176 8.39033C16.0487 8.31937 16.01 8.22311 16.01 8.12275V7.34124ZM16.01 8.98652C16.01 8.88616 16.0487 8.78991 16.1176 8.71894C16.1865 8.64798 16.28 8.60811 16.3774 8.60811H17.1363C17.2337 8.60811 17.3272 8.64798 17.3961 8.71894C17.465 8.78991 17.5037 8.88616 17.5037 8.98652V9.76803C17.5037 9.86839 17.465 9.96465 17.3961 10.0356C17.3272 10.1066 17.2337 10.1464 17.1363 10.1464H16.3774C16.28 10.1464 16.1865 10.1066 16.1176 10.0356C16.0487 9.96465 16.01 9.86839 16.01 9.76803V8.98652ZM15.9413 18.0602C16.363 17.695 17.8808 18.5637 17.5692 19.3765H17.5389C17.3791 18.8335 16.7097 18.4469 16.101 18.4469C15.4923 18.4469 15.1073 18.8335 14.9459 19.3765H14.9156C14.6088 18.5555 15.5195 17.6868 15.9413 18.052V18.0602ZM14.9827 19.4818C15.0625 19.2002 15.2288 18.9529 15.4566 18.777C15.6845 18.601 15.9616 18.5059 16.2464 18.5059C16.5312 18.5059 16.8083 18.601 17.0362 18.777C17.264 18.9529 17.4303 19.2002 17.5101 19.4818C17.566 19.4901 17.6172 19.5188 17.6542 19.5628C17.6912 19.6068 17.7115 19.663 17.7115 19.7212C17.7115 19.7793 17.6912 19.8356 17.6542 19.8795C17.6172 19.9235 17.566 19.9523 17.5101 19.9605C17.4468 20.232 17.2997 20.475 17.0908 20.653C16.882 20.831 16.6226 20.9344 16.3518 20.9477C16.4159 21.1599 16.5476 21.3437 16.7257 21.4693L16.2464 22.0928L15.7671 21.4693C15.9452 21.3437 16.0769 21.1599 16.141 20.9477C15.8702 20.9344 15.6109 20.831 15.402 20.653C15.1931 20.475 15.046 20.232 14.9827 19.9605C14.9268 19.9523 14.8756 19.9235 14.8386 19.8795C14.8016 19.8356 14.7813 19.7793 14.7813 19.7212C14.7813 19.663 14.8016 19.6068 14.8386 19.5628C14.8756 19.5188 14.9268 19.4901 14.9827 19.4818V19.4818ZM8.94199 18.4749C9.01868 18.3103 9.3398 18.3992 9.29667 18.6081C9.50117 18.4847 9.70247 18.7727 9.58105 18.9109C9.61761 18.9263 9.64951 18.9515 9.67345 18.9839C9.69739 19.0163 9.7125 19.0547 9.71722 19.0951C9.72195 19.1355 9.71611 19.1765 9.70032 19.2138C9.68452 19.2511 9.65934 19.2834 9.62738 19.3074C9.59752 19.2996 9.56704 19.2946 9.53631 19.2926L9.51714 19.2843C9.42319 18.9637 9.21561 18.6912 8.9356 18.5209L8.94199 18.4749ZM6.86506 18.9109C6.74204 18.7727 6.94494 18.4847 7.14944 18.6081C7.1063 18.3992 7.42743 18.3153 7.50411 18.4749V18.5209C7.22413 18.6916 7.01616 18.9639 6.92098 19.2843L6.9034 19.2926C6.87267 19.2946 6.84219 19.2996 6.81234 19.3074C6.77849 19.2832 6.75184 19.2498 6.73536 19.2109C6.71889 19.1721 6.71323 19.1292 6.71904 19.0872C6.72484 19.0452 6.74187 19.0057 6.76822 18.9731C6.79457 18.9405 6.82921 18.9161 6.86825 18.9026L6.86506 18.9109ZM10.5157 25.2682C10.4661 25.2682 10.4486 25.0609 10.4246 24.7664H10.3128C10.2728 23.6789 10.1738 23.1211 9.53951 22.5288V24.9869H6.90979V22.5157C6.27074 23.108 6.17488 23.6674 6.13494 24.7533H6.0231C5.99914 25.0478 5.98316 25.2551 5.93364 25.2551C5.88411 25.2551 5.81381 25.0609 5.7531 24.7615L5.55819 24.7713C5.32813 23.0323 6.28352 21.7276 7.72459 21.1501C7.85674 21.0591 7.96621 20.9374 8.04412 20.7947C7.78891 20.7687 7.54787 20.6616 7.35437 20.4883C7.16088 20.315 7.02449 20.084 6.96411 19.8273C6.90928 19.8179 6.85946 19.7887 6.82352 19.745C6.78759 19.7014 6.76787 19.646 6.76787 19.5887C6.76787 19.5315 6.78759 19.4761 6.82352 19.4324C6.85946 19.3887 6.90928 19.3596 6.96411 19.3501C7.08394 18.799 7.46098 18.3827 8.08246 18.3827C8.70394 18.3827 9.36057 18.799 9.4772 19.3501C9.53204 19.3596 9.58186 19.3887 9.61779 19.4324C9.65372 19.4761 9.67344 19.5315 9.67344 19.5887C9.67344 19.646 9.65372 19.7014 9.61779 19.745C9.58186 19.7887 9.53204 19.8179 9.4772 19.8273C9.41608 20.0839 9.27927 20.3146 9.08559 20.4879C8.8919 20.6611 8.65086 20.7683 8.3956 20.7947C8.47445 20.9367 8.58374 21.0582 8.71513 21.1501C10.153 21.7226 11.1116 23.0323 10.8815 24.7812L10.6882 24.7713C10.6387 25.0659 10.5588 25.26 10.5189 25.26L10.5157 25.2682ZM11.3145 25.232C11.186 25.3626 11.0709 25.5065 10.971 25.6614C10.6515 26.1962 10.6706 26.6881 10.6163 26.7259C10.562 26.7638 10.3974 26.0234 10.8528 25.181C10.8959 25.1053 10.9374 25.0346 10.9806 24.9688L11.3145 25.232ZM13.0383 23.2083C12.9978 23.3779 12.9052 23.5295 12.7742 23.6404C12.6432 23.7513 12.4808 23.8156 12.3114 23.8237C12.358 23.9728 12.4527 24.1011 12.5798 24.1873C12.5798 24.1873 12.4744 24.462 12.2459 24.462C12.0174 24.462 11.912 24.1955 11.9104 24.1955C12.0379 24.1098 12.1328 23.9814 12.1788 23.8319C12.0082 23.8231 11.845 23.7576 11.7136 23.6452C11.5822 23.5328 11.4898 23.3795 11.4503 23.2083C11.2905 23.2083 11.2905 22.9089 11.4503 22.9072C11.4912 22.7511 11.576 22.6109 11.6939 22.5041C11.8118 22.3973 11.9577 22.3286 12.1133 22.3067C12.3466 22.3989 12.4328 22.6489 12.4744 22.8957C12.5145 22.8088 12.5372 22.7145 12.541 22.6184C12.5449 22.5223 12.5298 22.4263 12.4967 22.3363C12.6276 22.3737 12.7464 22.4463 12.8411 22.5467C12.9357 22.647 13.0027 22.7714 13.0351 22.9072C13.1981 22.9056 13.2077 23.2083 13.0383 23.2083ZM13.2125 23.0438C13.2118 23.002 13.1986 22.9615 13.1745 22.9279C13.1505 22.8943 13.1168 22.8692 13.0783 22.8562C13.0315 22.6979 12.9416 22.5567 12.8193 22.4494C12.697 22.3421 12.5473 22.2732 12.3881 22.2508C12.4402 22.3168 12.4763 22.3947 12.4936 22.4779C12.5108 22.5611 12.5086 22.6474 12.4872 22.7296C12.4804 22.6203 12.4414 22.5158 12.3755 22.43C12.3096 22.3441 12.2198 22.281 12.1181 22.2491C11.9556 22.2686 11.8021 22.3364 11.6765 22.4442C11.5508 22.552 11.4583 22.6952 11.4103 22.8562C11.372 22.8693 11.3386 22.8944 11.3148 22.9281C11.291 22.9617 11.278 23.0022 11.2777 23.0438C11.1844 23.0528 11.0907 23.0323 11.0091 22.9849C10.9274 22.9376 10.8617 22.8657 10.8208 22.7789C10.8067 22.7334 10.8029 22.6851 10.8095 22.6378C10.8161 22.5905 10.8331 22.5454 10.8592 22.5058L10.6754 22.4482L10.7793 22.2574L10.8959 22.4581C10.9204 22.4297 10.949 22.4053 10.9806 22.3857C10.9583 22.411 10.9385 22.4386 10.9215 22.468L11.1451 22.5091L11.0141 22.695L10.8943 22.5222C10.8793 22.5526 10.8715 22.5861 10.8715 22.6201C10.8715 22.6542 10.8793 22.6877 10.8943 22.718C10.914 22.7524 10.9407 22.7818 10.9726 22.8044C11.0045 22.8271 11.0408 22.8423 11.0789 22.849C11.1171 22.8557 11.1562 22.8538 11.1936 22.8434C11.2309 22.833 11.2656 22.8144 11.2953 22.7888C11.404 22.7032 11.3385 22.6029 11.4183 22.4318C11.626 21.9958 12.0414 21.8757 12.2491 22.027C12.4584 21.8757 12.8738 21.9958 13.0799 22.4318C13.1614 22.5963 13.0959 22.7032 13.2029 22.7888C13.2327 22.8144 13.2676 22.8331 13.305 22.8435C13.3425 22.8539 13.3818 22.8558 13.42 22.8491C13.4583 22.8423 13.4947 22.8271 13.5267 22.8045C13.5588 22.7819 13.5856 22.7524 13.6055 22.718C13.6201 22.6876 13.6278 22.6541 13.6278 22.6201C13.6278 22.5862 13.6201 22.5527 13.6055 22.5222L13.4857 22.695L13.3531 22.5091L13.5783 22.468C13.5613 22.4386 13.5415 22.411 13.5192 22.3857C13.5484 22.4048 13.5747 22.4281 13.5975 22.4548L13.7141 22.2541L13.818 22.4449L13.6343 22.5025C13.6603 22.5421 13.6773 22.5872 13.6839 22.6345C13.6906 22.6818 13.6867 22.7301 13.6726 22.7756C13.6321 22.8626 13.5668 22.9349 13.4855 22.9828C13.4042 23.0307 13.3106 23.052 13.2173 23.0438H13.2125ZM13.4537 25.543C13.3545 25.4412 13.2637 25.3312 13.1821 25.2139L13.4601 24.9935C13.4953 25.0478 13.532 25.107 13.5656 25.1712C13.9458 25.872 14.4682 25.7092 14.4682 25.747C14.4682 25.7848 13.8755 25.9856 13.4537 25.5446V25.543ZM14.4123 23.7513C14.1902 24.4851 14.243 25.5693 14.1391 25.5693C14.0353 25.5693 13.6598 24.0606 14.1391 23.08L14.1838 22.9928L14.596 23.3087C14.5202 23.4499 14.4586 23.5988 14.4123 23.7529V23.7513ZM17.4478 22.6094V25.2847H15.0354V22.8168L14.6855 23.3103L14.1535 22.904C14.2937 22.6169 14.4844 22.3592 14.7159 22.1438C15.0087 21.8643 15.348 21.6414 15.7176 21.4857L16.2448 22.1669L16.7704 21.4857C17.2659 21.4803 17.7608 21.5238 18.2482 21.6157L18.3681 22.5091L17.4478 22.6094ZM19.0183 22.2804C18.8158 22.2544 18.6121 22.2395 18.408 22.236L18.3409 21.6832C18.7197 21.7125 19.0946 21.7826 19.4593 21.8921L19.0183 22.2804ZM19.6797 22.774C19.6538 22.512 19.5772 22.258 19.4545 22.027C19.7309 21.8098 19.9641 21.6371 20.0488 21.2916C19.8144 21.2612 19.5959 21.1532 19.4265 20.9837C19.257 20.8142 19.1457 20.5925 19.1094 20.3521C19.0988 20.3538 19.088 20.3538 19.0774 20.3521C18.8921 20.2945 18.9177 19.898 19.111 19.898C19.111 19.8783 19.111 19.8602 19.1238 19.8404C19.4251 19.7977 19.7051 19.6564 19.9226 19.4373C20.0633 19.311 20.1728 19.1519 20.2421 18.9734C20.4712 19.0067 20.684 19.1143 20.8497 19.2806C21.0155 19.4468 21.1255 19.6631 21.1639 19.898C21.3764 19.898 21.3764 20.3521 21.1639 20.3571C21.1286 20.5979 21.0176 20.8201 20.848 20.9898C20.6783 21.1595 20.4593 21.2672 20.2245 21.2965C20.3108 21.6535 20.5441 21.8164 20.8188 22.032C20.7914 22.072 20.7683 22.115 20.7501 22.1603C20.4698 22.3284 20.2075 22.5264 19.9673 22.7509C19.8733 22.7526 19.7795 22.7592 19.6861 22.7707L19.6797 22.774ZM21.1352 24.5838C20.4961 25.1103 19.9098 24.9902 19.6174 24.694C19.3251 24.3979 19.1972 23.7973 19.6973 23.1294C20.0715 22.6814 20.5303 22.3164 21.0457 22.0566C21.0423 22.3522 21.1526 22.6372 21.3526 22.8493C21.5526 23.0614 21.8259 23.1834 22.1129 23.1886H22.1641C22.0586 23.3992 21.6848 24.1346 21.1416 24.5821L21.1352 24.5838ZM22.8638 22.6934C22.8902 22.7392 22.901 22.7929 22.8945 22.8458C22.888 22.8987 22.8646 22.9478 22.828 22.9855C22.7914 23.0232 22.7437 23.0473 22.6923 23.054C22.6409 23.0607 22.5889 23.0496 22.5443 23.0224V23.0224C22.3586 23.1185 22.1484 23.1523 21.9431 23.1191C21.7378 23.0859 21.5477 22.9874 21.3996 22.8374C21.2514 22.6873 21.1525 22.4933 21.1169 22.2824C21.0812 22.0716 21.1105 21.8546 21.2007 21.6618H21.1911C21.1647 21.6159 21.1539 21.5623 21.1604 21.5094C21.1669 21.4565 21.1903 21.4073 21.2269 21.3696C21.2635 21.3319 21.3113 21.3078 21.3626 21.3011C21.414 21.2944 21.4661 21.3056 21.5106 21.3327L21.5186 21.3442C21.6994 21.248 21.9052 21.2135 22.1062 21.2458C22.3073 21.278 22.4932 21.3753 22.637 21.5236L22.6545 21.5417C22.6906 21.5778 22.7237 21.6169 22.7536 21.6585L22.7616 21.6683L22.7776 21.6963C22.7738 21.7352 22.7607 21.7726 22.7395 21.805C22.7183 21.8374 22.6897 21.864 22.6561 21.8822C22.6168 21.9053 22.5702 21.9117 22.5264 21.9C22.4826 21.8883 22.4448 21.8595 22.4213 21.8197C22.3931 21.7701 22.384 21.7114 22.3957 21.6552C22.3662 21.6995 22.3526 21.753 22.3574 21.8066C22.3699 21.8657 22.4006 21.919 22.4449 21.9587C22.4893 21.9985 22.5448 22.0224 22.6034 22.027C22.6573 22.0314 22.7113 22.0202 22.7593 21.9946C22.8073 21.969 22.8474 21.9301 22.875 21.8822C22.9318 22.0122 22.9593 22.1537 22.9554 22.2962C22.9515 22.4387 22.9164 22.5784 22.8526 22.7049C22.8566 22.6983 22.8629 22.6936 22.8702 22.6917L22.8638 22.6934Z" fill="#0E918C"/>
<path d="M7.86498 20.0492C7.79033 19.7748 7.60191 20.2263 7.53437 20.2737C7.50976 20.2999 7.48216 20.311 7.45471 20.3057C7.42726 20.3004 7.40107 20.2789 7.37914 20.2438C7.35188 20.1714 7.39691 20.0841 7.39691 20.0841C7.39691 20.0841 7.30685 20.1215 7.31041 20.2912C7.31396 20.4609 7.44194 20.5806 7.57229 20.5407C7.75833 20.4559 7.90883 20.2263 7.86498 20.0492Z" fill="#0E918C"/>
<path d="M21.5336 22.3953C21.455 22.4364 21.4015 22.4887 21.3799 22.5457C21.3583 22.6027 21.3694 22.6618 21.412 22.7154C21.4546 22.7691 21.5267 22.815 21.6191 22.8472C21.7116 22.8795 21.8203 22.8967 21.9315 22.8967C22.0427 22.8967 22.1514 22.8795 22.2438 22.8472C22.3363 22.815 22.4084 22.7691 22.451 22.7154C22.4935 22.6618 22.5047 22.6027 22.4831 22.5457C22.4614 22.4887 22.4079 22.4364 22.3294 22.3953C22.2235 22.3404 22.0805 22.3096 21.9315 22.3096C21.7824 22.3096 21.6394 22.3404 21.5336 22.3953V22.3953ZM22.1225 22.6974C22.0856 22.7171 22.0383 22.7305 21.9867 22.7361C21.9351 22.7417 21.8815 22.7391 21.8328 22.7287C21.784 22.7183 21.7422 22.7005 21.7129 22.6777C21.6835 22.6548 21.6678 22.6279 21.6678 22.6004C21.6678 22.5729 21.6835 22.5459 21.7129 22.5231C21.7422 22.5002 21.784 22.4825 21.8328 22.4721C21.8815 22.4617 21.9351 22.4591 21.9867 22.4647C22.0383 22.4702 22.0856 22.4837 22.1225 22.5034C22.1711 22.5293 22.1983 22.5641 22.1983 22.6004C22.1983 22.6367 22.1711 22.6715 22.1225 22.6974V22.6974Z" fill="#0E918C"/>
<path d="M24.0374 24.5816C24.2263 24.3387 24.482 24.2013 24.749 24.1991H25.8678C25.8678 24.157 25.8678 24.115 25.8678 24.071H24.3256C24.1764 24.0713 24.0304 24.1269 23.9051 24.2309C23.7797 24.335 23.6802 24.4833 23.6184 24.6581H23.7462C23.8416 24.623 23.9389 24.5974 24.0374 24.5816V24.5816Z" fill="#0E918C"/>
<path d="M8.47371 20.538C8.73668 20.5852 8.99017 20.466 8.99728 20.2896C9.00439 20.1131 8.82671 20.0833 8.82671 20.0833C8.82671 20.0833 8.91436 20.1703 8.85987 20.2423C8.80539 20.3144 8.67982 20.3169 8.54952 20.2722C8.41922 20.2274 8.03779 19.7752 7.89091 20.0485C7.79377 20.2324 8.10176 20.461 8.47371 20.538Z" fill="#0E918C"/>
<path d="M27.6009 22.8968C27.5709 22.9833 27.5555 23.0716 27.5549 23.1603V24.071C27.8626 23.6087 28.1173 23.1926 28.1173 23.1926L27.6009 22.8968Z" fill="#0E918C"/>
<path d="M27.5549 25.8322V26.4193L28.1173 25.879C27.9338 25.858 27.7457 25.8423 27.5549 25.8322V25.8322Z" fill="#0E918C"/>
<path d="M25.8115 24.0685C25.8497 23.8844 25.8783 23.6804 25.864 23.4839H25.8354L25.3054 24.071L25.8115 24.0685Z" fill="#0E918C"/>
</svg>
