<svg width="34" height="29" viewBox="0 0 34 29" fill="none" xmlns="http://www.w3.org/2000/svg">
<path d="M24.5946 27.1491L24.3767 27.0065C24.3667 27.0303 24.3555 27.0524 24.3432 27.0723L24.779 28.7678C24.8154 28.7355 24.8505 28.6988 24.8841 28.658C24.7229 28.2032 24.6237 27.6862 24.5946 27.1491V27.1491Z" fill="#0E918C"/>
<path d="M24.3431 28.7678L24.0605 27.0065C24.0494 27.0108 24.0382 27.0108 24.0271 27.0065L23.8022 28.7649L24.3431 28.7678Z" fill="#0E918C"/>
<path d="M27.4905 26.4194L26.507 27.0263C26.5097 27.0495 26.5097 27.0732 26.507 27.0965L27.5256 27.5935C27.6208 27.2093 27.6083 26.7923 27.4905 26.4194Z" fill="#0E918C"/>
<path d="M26.507 27.0065L25.966 28.7678H26.507V27.0065Z" fill="#0E918C"/>
<path d="M27.048 28.6244L26.6662 27.5935V28.6492H25.966V28.6698C26.3195 28.8145 26.7032 28.7984 27.048 28.6244V28.6244Z" fill="#0E918C"/>
<path d="M27.5889 27.6382L26.507 27.0065V27.293L26.9365 28.7678C27.2325 28.5288 27.4642 28.1276 27.5889 27.6382V27.6382Z" fill="#0E918C"/>
<path d="M23.8022 27.1971C23.7999 27.1825 23.7999 27.1676 23.8022 27.1529L23.3411 27.0065H22.7336C22.7002 27.2053 22.7299 27.4083 22.8195 27.5936L23.8022 27.1971Z" fill="#0E918C"/>
<path d="M28.0241 27.8019C28.1826 27.4346 28.1623 27.0293 27.9675 26.6747C27.7728 26.3201 27.4195 26.0452 26.9851 25.9102C26.8628 25.8716 26.7355 25.8454 26.6058 25.8322V25.906C26.8365 25.9323 27.058 25.9993 27.256 26.1027C27.4539 26.206 27.6239 26.3435 27.7548 26.506C27.8858 26.6685 27.9747 26.8525 28.0158 27.046C28.0569 27.2395 28.0494 27.4382 27.9936 27.629C27.9378 27.8199 27.835 27.9987 27.692 28.1538C27.549 28.3089 27.3689 28.4368 27.1634 28.5292C26.958 28.6216 26.7318 28.6764 26.4997 28.69C26.2675 28.7037 26.0345 28.6759 25.8159 28.6084C25.7384 28.5839 25.663 28.555 25.59 28.5221H25.4251C25.6449 28.6451 25.8949 28.7245 26.1562 28.7544C26.4176 28.7842 26.6835 28.7638 26.9341 28.6945C27.1848 28.6252 27.4136 28.5089 27.6035 28.3544C27.7934 28.1998 27.9395 28.0109 28.0307 27.8019H28.0241Z" fill="#0E918C"/>
<path d="M22.082 28.2514C22.033 28.2057 21.9706 28.1807 21.9062 28.1807H21.8737C21.8222 28.188 21.7738 28.2114 21.7342 28.2479C21.6946 28.2844 21.6654 28.3326 21.6502 28.3867C21.6351 28.4408 21.6345 28.4985 21.6485 28.5529C21.6626 28.6074 21.6908 28.6562 21.7296 28.6937C21.7685 28.7312 21.8164 28.7557 21.8677 28.7643C21.919 28.7729 21.9715 28.7653 22.0189 28.7423C22.0663 28.7193 22.1067 28.6819 22.1351 28.6346C22.1635 28.5873 22.1789 28.532 22.1794 28.4755C22.1798 28.3985 22.1526 28.3245 22.1036 28.2691V28.2691C22.097 28.2624 22.0897 28.2565 22.082 28.2514ZM21.9062 28.5904C21.8916 28.5923 21.8768 28.5907 21.8628 28.5859C21.8488 28.581 21.8359 28.573 21.825 28.5624C21.814 28.5517 21.8053 28.5387 21.7993 28.5241C21.7933 28.5095 21.7902 28.4937 21.7902 28.4777C21.7902 28.4617 21.7933 28.4459 21.7993 28.4313C21.8053 28.4167 21.814 28.4036 21.825 28.393C21.8359 28.3823 21.8488 28.3743 21.8628 28.3695C21.8768 28.3647 21.8916 28.3631 21.9062 28.3649C21.9207 28.3631 21.9355 28.3647 21.9495 28.3695C21.9635 28.3743 21.9764 28.3823 21.9873 28.393C21.9983 28.4036 22.007 28.4167 22.013 28.4313C22.019 28.4459 22.0221 28.4617 22.0221 28.4777C22.0221 28.4937 22.019 28.5095 22.013 28.5241C22.007 28.5387 21.9983 28.5517 21.9873 28.5624C21.9764 28.573 21.9635 28.581 21.9495 28.5859C21.9355 28.5907 21.9207 28.5923 21.9062 28.5904V28.5904Z" fill="#0E918C"/>
<path d="M25.939 27.0065L25.6187 27.4531C25.6101 27.5611 25.5993 27.6674 25.5861 27.7713C25.5482 28.0751 25.4937 28.358 25.4251 28.6087C25.4437 28.6645 25.4632 28.7175 25.4837 28.7678H25.7584L25.966 27.0679C25.9561 27.0516 25.947 27.0309 25.939 27.0065V27.0065Z" fill="#0E918C"/>
<path d="M22.7202 27.8859C22.6789 27.809 22.6455 27.7295 22.6203 27.6482V27.6482L22.5938 27.5935L22.1793 28.0951C22.1967 28.1229 22.2124 28.1515 22.2263 28.1806C22.3548 28.0479 22.5255 27.946 22.7202 27.8859V27.8859Z" fill="#0E918C"/>
<path d="M20.0155 27.7776L19.8697 27.0065C19.664 27.0065 19.444 27.0065 19.204 27.0065C18.964 27.0065 18.7469 27.0065 18.5412 27.0065L18.3926 27.7776V28.7678H20.0155V27.7776Z" fill="#0E918C"/>
<path d="M11.3601 27.5935V28.7677H11.9011V27.5935C11.8208 27.5935 11.7329 27.6019 11.63 27.6019C11.5271 27.6019 11.4392 27.5991 11.3601 27.5935Z" fill="#0E918C"/>
<path d="M7.84609 25.8453C7.78394 25.8495 7.72152 25.8451 7.66054 25.8322L7.57347 28.7677H8.11443L8.03164 25.8322C7.97064 25.845 7.90824 25.8494 7.84609 25.8453Z" fill="#0E918C"/>
<path d="M15.5815 25.8322C15.4702 25.8494 15.3574 25.8494 15.2461 25.8322L15.1468 28.7677H15.6878L15.5815 25.8322Z" fill="#0E918C"/>
<path d="M24.8841 27.8504C24.8841 27.9605 24.9923 28.0705 25.0524 28.1806C25.1877 27.9925 25.3122 27.7964 25.425 27.5935V27.5935L24.8841 27.8504Z" fill="#0E918C"/>
<path d="M24.9209 27.4739L25.3424 27.5936C25.4238 27.4045 25.4455 27.2033 25.4056 27.0065H24.8977C24.8737 27.1623 24.8815 27.32 24.9209 27.4739V27.4739Z" fill="#0E918C"/>
<path d="M23.6961 28.7651H23.7618L24.3432 27.066C24.3201 27.0498 24.2996 27.0297 24.2825 27.0065L22.7203 27.7884C22.7772 27.9082 22.844 28.0223 22.92 28.1293C23.1094 28.2254 23.2653 28.3837 23.3649 28.5811C23.4625 28.6527 23.5657 28.7152 23.6733 28.7678H23.6961V28.7651Z" fill="#0E918C"/>
<path d="M22.9948 28.7678C23.0578 28.7678 23.1189 28.7436 23.1674 28.6994C23.2159 28.6552 23.2488 28.5938 23.2604 28.5258C23.2616 28.508 23.2616 28.4902 23.2604 28.4724V28.4662C23.2588 28.4227 23.2479 28.3802 23.2287 28.3421C23.2063 28.2939 23.1721 28.2535 23.13 28.2252C23.0879 28.197 23.0396 28.182 22.9902 28.182C22.9722 28.1802 22.954 28.1802 22.936 28.182H22.9292H22.9202C22.857 28.2005 22.8021 28.2436 22.7657 28.3032C22.7294 28.3629 22.714 28.4351 22.7226 28.5062C22.7312 28.5774 22.7631 28.6427 22.8124 28.6899C22.8616 28.7371 22.9249 28.763 22.9902 28.7628L22.9948 28.7678ZM22.9948 28.3595C23.0151 28.3595 23.035 28.3661 23.0519 28.3785C23.0688 28.3909 23.082 28.4086 23.0898 28.4292C23.0976 28.4498 23.0996 28.4725 23.0957 28.4944C23.0917 28.5164 23.0819 28.5365 23.0675 28.5523C23.0531 28.5681 23.0348 28.5788 23.0148 28.5832C22.9949 28.5875 22.9742 28.5853 22.9554 28.5767C22.9366 28.5682 22.9205 28.5537 22.9092 28.5352C22.8979 28.5166 22.8919 28.4947 22.8919 28.4724C22.8918 28.4574 22.8943 28.4426 22.8995 28.4287C22.9047 28.4149 22.9124 28.4023 22.9221 28.3917C22.9318 28.3812 22.9433 28.3729 22.956 28.3674C22.9687 28.3618 22.9823 28.3592 22.9959 28.3595H22.9948Z" fill="#0E918C"/>
<path d="M26.8486 25.8322L26.507 26.7508V26.9789V27.0064L27.5889 26.5089C27.4319 26.2028 27.1692 25.9628 26.8486 25.8322Z" fill="#0E918C"/>
<path d="M16.769 0L9.8668 5.95921V3.28234H6.33197V9.01449L0 14.4785H3.89754V28.7612H5.21619C5.2059 28.7505 5.19773 28.7377 5.19219 28.7236C5.18664 28.7094 5.18382 28.6942 5.18391 28.6789V26.4495C5.18391 25.8408 5.20082 25.2748 5.66496 25.26C5.72138 25.2579 5.7775 25.2697 5.82906 25.2943C5.88062 25.3189 5.92628 25.3557 5.96256 25.402C5.99885 25.4483 6.02481 25.5028 6.03849 25.5615C6.05216 25.6201 6.05319 25.6813 6.0415 25.7404C6.04015 25.7554 6.03606 25.7699 6.02944 25.7831C6.02283 25.7963 6.01383 25.808 6.00297 25.8175C5.99211 25.827 5.9796 25.8341 5.96616 25.8384C5.95273 25.8426 5.93863 25.844 5.92469 25.8424C5.91074 25.841 5.89719 25.8366 5.88483 25.8295C5.87247 25.8224 5.86154 25.8128 5.85268 25.8012C5.84382 25.7896 5.8372 25.7762 5.83321 25.7618C5.82921 25.7474 5.82792 25.7323 5.82941 25.7174C5.82941 25.6401 5.80635 25.4986 5.7126 25.4772C5.54355 25.4393 5.40523 25.5644 5.40523 26.4495V28.6789C5.40531 28.6942 5.4025 28.7094 5.39695 28.7236C5.39141 28.7377 5.38324 28.7505 5.37295 28.7612H6.65471V25.0461H9.17982V28.7612H11.1501V27.3511C11.0145 27.3437 10.8815 27.3085 10.7582 27.2475C10.7582 27.2475 11.1885 26.7325 11.0487 25.0428L10.9273 25.186L10.5984 24.9178C10.7809 24.583 11.0701 24.3301 11.4129 24.2054C11.4129 24.2054 11.5236 24.5147 11.7787 24.5147C12.0338 24.5147 12.146 24.2054 12.146 24.2054C12.4886 24.3298 12.7774 24.5829 12.959 24.9178L12.6317 25.1827L12.5102 25.0395C12.3689 26.7292 12.7992 27.2442 12.7992 27.2442C12.6764 27.3051 12.5439 27.3403 12.4088 27.3479V28.7579H14.5605L14.4636 25.3538H16.7905L16.6875 28.7579H18.5195V27.7839L18.4887 26.9859C18.2683 26.9656 18.0501 26.9232 17.8371 26.8592C17.8371 26.8592 18.2044 26.109 18.3627 24.5328C17.9969 24.3271 17.519 23.8286 17.6819 23.3811C17.8511 22.9294 18.127 22.5326 18.4826 22.2294C18.5715 22.4185 18.6287 22.6229 18.6516 22.8332C18.5714 22.8649 18.4974 22.9124 18.4334 22.9731C18.4334 22.9731 18.1183 23.3663 18.0815 23.6114C18.0615 23.7348 18.2228 23.9553 18.3965 24.1363C18.4196 23.8072 18.4334 23.4485 18.4334 23.0586C18.5056 22.9698 18.6017 22.9072 18.7085 22.8793C18.6875 22.6393 18.6239 22.4059 18.521 22.1915L18.6747 22.0616C18.7945 22.3026 18.8667 22.5675 18.8868 22.8398C18.9743 22.8236 19.0625 22.8126 19.1511 22.8069C19.0647 22.8969 18.9841 22.9931 18.9098 23.0948C18.5579 23.5884 18.5133 24.0507 18.6347 24.3979C18.5625 24.3156 18.481 24.2333 18.3934 24.1412C18.3827 24.2794 18.3719 24.4127 18.3596 24.5394C18.5886 24.6693 18.79 24.7253 18.7946 24.6924L18.8361 24.7401C19.011 24.9172 19.2438 25.0141 19.4846 25.0099C19.8106 24.9955 20.1223 24.8626 20.3683 24.6331L20.3929 24.6118C20.677 24.3445 20.9215 24.0328 21.1183 23.6871C21.272 24.309 20.4406 24.7138 20.3929 24.6118C20.5543 26.1402 20.9124 26.8691 20.9124 26.8691C20.6988 26.9329 20.4801 26.9753 20.2592 26.9958L20.2285 27.7937V28.7677H22.5661C22.4768 28.6836 22.4127 28.5731 22.3817 28.4502C22.3328 28.5052 22.2739 28.5489 22.2086 28.5784C22.1434 28.608 22.0731 28.6229 22.0022 28.6221C21.9313 28.6214 21.8613 28.605 21.7966 28.574C21.7319 28.543 21.6738 28.4981 21.626 28.4421C21.5782 28.3861 21.5417 28.3201 21.5188 28.2483C21.4958 28.1765 21.487 28.1004 21.4927 28.0247C21.4984 27.9491 21.5186 27.8755 21.552 27.8086C21.5855 27.7417 21.6314 27.6829 21.687 27.6358V27.6358L20.9416 27.3495C20.9286 27.3447 20.9165 27.3372 20.9063 27.3273C20.896 27.3175 20.8877 27.3056 20.8818 27.2922C20.8759 27.2789 20.8726 27.2644 20.8721 27.2496C20.8715 27.2349 20.8737 27.2202 20.8786 27.2064C20.8863 27.1833 20.9008 27.1636 20.9199 27.1502C20.9391 27.1368 20.9618 27.1305 20.9846 27.1323H21.0123L22.0036 27.514C22.1217 27.5141 22.2362 27.5577 22.3279 27.6374L22.3893 27.5387L22.543 27.2936L22.4769 27.2508L22.3632 27.5321L22.3509 27.5617L22.2341 27.5173L21.0599 27.0616L21.0707 27.0468C21.0847 27.0293 21.1007 27.0139 21.1183 27.0007L20.937 26.93L20.9477 26.9168C21.1568 26.6618 21.6793 26.846 21.7454 26.8707C21.6716 26.8247 21.5917 26.7786 21.5102 26.7325C21.7802 26.2549 22.018 25.7573 22.2218 25.2435V25.0181C22.2217 24.7817 22.2916 24.5512 22.4216 24.36V24.36C22.3961 24.369 22.3691 24.3717 22.3425 24.368C22.3159 24.3643 22.2904 24.3542 22.2679 24.3386L22.3048 23.9882C22.4308 23.7727 22.8489 23.6131 22.8489 23.6131L24.3458 23.4765L24.4841 22.9829L24.4334 22.9648C24.4933 22.6753 24.6732 22.0632 24.7024 21.9629C24.6991 21.9562 24.6943 21.9506 24.6885 21.9464C24.8054 21.8665 24.9352 21.8107 25.0712 21.7819L25.0897 21.6256C24.7177 21.517 24.5856 21.1534 24.541 20.849C24.4712 20.8357 24.4089 20.794 24.3671 20.7327C24.3253 20.6714 24.3072 20.5952 24.3166 20.5199C24.3223 20.4823 24.3364 20.4468 24.3579 20.4164C24.3793 20.386 24.4073 20.3617 24.4395 20.3455H24.3642L24.3873 19.9424C24.3445 19.9114 24.3118 19.8668 24.2939 19.8149C24.276 19.7629 24.2737 19.7063 24.2874 19.6529C24.3578 19.684 24.4368 19.684 24.5072 19.6529C24.5072 19.6529 24.3366 19.5229 24.4457 19.1955C24.4457 19.1955 24.5348 19.462 25.3033 19.3107C25.3033 19.3107 25.7736 19.258 25.958 19.5723C26.2961 19.5459 26.3653 20.0445 26.3653 20.0445C26.325 19.9872 26.2774 19.9362 26.2239 19.8931C26.2957 20.0131 26.3256 20.1565 26.3084 20.2978C26.3378 20.3142 26.3633 20.3375 26.383 20.3661C26.4027 20.3946 26.4161 20.4275 26.4221 20.4624C26.4221 20.4624 26.459 20.8605 26.1148 20.8474C26.0786 20.9997 26.0132 21.1423 25.9227 21.2661C25.8322 21.3899 25.7186 21.4921 25.5891 21.5663L25.6045 21.7045C25.7424 21.6294 25.894 21.5878 26.0487 21.5828V21.5515H26.9554V21.5631H27.0061V21.823H26.9554V21.8724H26.2392C26.4398 21.9763 26.6251 22.111 26.7894 22.2722C26.9723 22.0976 27.2069 21.9979 27.4518 21.9908V21.9596H28.3586V21.9908H28.4078V22.2508H28.3586V22.3001H27.4518V22.2541C27.2547 22.2617 27.0671 22.3466 26.9247 22.4926C27.0851 22.6545 27.2312 22.8318 27.3612 23.0224C27.2536 23.5456 26.8478 24.3666 26.6788 24.694V24.8585C27.0974 24.9061 27.4895 25.1009 27.7936 25.4125C28.0977 25.7241 28.2967 26.1349 28.3594 26.5805C28.4222 27.0261 28.3451 27.4814 28.1402 27.8751C27.9354 28.2688 27.6144 28.5787 27.2275 28.7562H29.6481V14.4785H33.5394L16.769 0ZM19.4216 18.4601C19.5815 18.3656 19.7664 18.3313 19.9467 18.3626C20.1269 18.3939 20.2922 18.489 20.416 18.6328C21.2351 19.4719 20.2915 20.6812 21.04 21.0464C20.9435 21.1246 20.8311 21.1773 20.712 21.2001C20.5928 21.223 20.4704 21.2154 20.3545 21.1781C20.2558 21.1496 20.1622 21.1034 20.0779 21.0415C20.2455 20.8679 20.3607 20.6443 20.4083 20.3998C20.4595 20.3775 20.5028 20.3384 20.532 20.2882C20.5613 20.238 20.575 20.1792 20.5712 20.1201C20.5757 20.0605 20.5621 20.001 20.5325 19.9503C20.5029 19.8996 20.4588 19.8605 20.4068 19.8388C20.3613 19.5916 20.2422 19.3667 20.0674 19.198C19.8926 19.0292 19.6714 18.9256 19.437 18.9026C19.3776 19.0913 19.2714 19.2591 19.1296 19.388C18.9213 19.6065 18.6509 19.7443 18.3612 19.7796L18.3473 19.8388C18.2984 19.8646 18.2571 19.9045 18.2283 19.9541C18.1995 20.0037 18.1842 20.0609 18.1842 20.1193C18.1842 20.1777 18.1995 20.235 18.2283 20.2845C18.2571 20.3341 18.2984 20.3741 18.3473 20.3998C18.3986 20.663 18.528 20.9014 18.7162 21.0793C18.6461 21.1221 18.5712 21.1553 18.4933 21.1781C18.3777 21.2152 18.2555 21.2226 18.1367 21.1997C18.0179 21.1769 17.9058 21.1243 17.8094 21.0464C18.5579 20.6812 17.6142 19.4719 18.4242 18.6328C18.5482 18.4883 18.714 18.3926 18.8949 18.3613C19.0759 18.33 19.2614 18.3647 19.4216 18.4601V18.4601ZM16.978 7.34124C16.978 7.29155 16.9871 7.24234 17.0049 7.19643C17.0226 7.15052 17.0487 7.1088 17.0815 7.07366C17.1143 7.03852 17.1533 7.01065 17.1962 6.99163C17.2391 6.97262 17.285 6.96283 17.3315 6.96283H18.0615C18.1552 6.96283 18.2451 7.0027 18.3114 7.07366C18.3777 7.14463 18.415 7.24088 18.415 7.34124V8.12275C18.415 8.22311 18.3777 8.31937 18.3114 8.39033C18.2451 8.4613 18.1552 8.50117 18.0615 8.50117H17.3253C17.2316 8.50117 17.1416 8.4613 17.0754 8.39033C17.0091 8.31937 16.9718 8.22311 16.9718 8.12275L16.978 7.34124ZM16.978 9.01614C16.978 8.96644 16.9871 8.91724 17.0049 8.87133C17.0226 8.82541 17.0487 8.7837 17.0815 8.74856C17.1143 8.71342 17.1533 8.68555 17.1962 8.66653C17.2391 8.64751 17.285 8.63773 17.3315 8.63773H18.0615C18.1552 8.63773 18.2451 8.67759 18.3114 8.74856C18.3777 8.81953 18.415 8.91578 18.415 9.01614V9.79765C18.415 9.89801 18.3777 9.99426 18.3114 10.0652C18.2451 10.1362 18.1552 10.1761 18.0615 10.1761H17.3253C17.2316 10.1761 17.1416 10.1362 17.0754 10.0652C17.0091 9.99426 16.9718 9.89801 16.9718 9.79765L16.978 9.01614ZM15.4011 7.34124C15.4011 7.24088 15.4384 7.14463 15.5047 7.07366C15.571 7.0027 15.6609 6.96283 15.7546 6.96283H16.4846C16.5784 6.96283 16.6683 7.0027 16.7346 7.07366C16.8009 7.14463 16.8381 7.24088 16.8381 7.34124V8.12275C16.8381 8.22311 16.8009 8.31937 16.7346 8.39033C16.6683 8.4613 16.5784 8.50117 16.4846 8.50117H15.7546C15.6609 8.50117 15.571 8.4613 15.5047 8.39033C15.4384 8.31937 15.4011 8.22311 15.4011 8.12275V7.34124ZM15.4011 8.98652C15.4011 8.88616 15.4384 8.78991 15.5047 8.71894C15.571 8.64798 15.6609 8.60811 15.7546 8.60811H16.4846C16.5784 8.60811 16.6683 8.64798 16.7346 8.71894C16.8009 8.78991 16.8381 8.88616 16.8381 8.98652V9.76803C16.8381 9.86839 16.8009 9.96465 16.7346 10.0356C16.6683 10.1066 16.5784 10.1464 16.4846 10.1464H15.7546C15.6609 10.1464 15.571 10.1066 15.5047 10.0356C15.4384 9.96465 15.4011 9.86839 15.4011 9.76803V8.98652ZM15.335 18.0602C15.7408 17.695 17.2008 18.5637 16.9011 19.3765H16.8719C16.7182 18.8335 16.0743 18.4469 15.4887 18.4469C14.9032 18.4469 14.5328 18.8335 14.3776 19.3765H14.3484C14.0533 18.5555 14.9293 17.6868 15.335 18.052V18.0602ZM14.4129 19.4818C14.4897 19.2002 14.6496 18.9529 14.8688 18.777C15.088 18.601 15.3546 18.5059 15.6286 18.5059C15.9026 18.5059 16.1691 18.601 16.3883 18.777C16.6075 18.9529 16.7675 19.2002 16.8443 19.4818C16.898 19.4901 16.9472 19.5188 16.9828 19.5628C17.0184 19.6068 17.038 19.663 17.038 19.7212C17.038 19.7793 17.0184 19.8356 16.9828 19.8795C16.9472 19.9235 16.898 19.9523 16.8443 19.9605C16.7833 20.232 16.6418 20.475 16.4409 20.653C16.24 20.831 15.9905 20.9344 15.73 20.9477C15.7916 21.1599 15.9184 21.3437 16.0897 21.4693L15.6286 22.0928L15.1675 21.4693C15.3388 21.3437 15.4655 21.1599 15.5272 20.9477C15.2666 20.9344 15.0172 20.831 14.8163 20.653C14.6154 20.475 14.4738 20.232 14.4129 19.9605C14.3591 19.9523 14.3099 19.9235 14.2743 19.8795C14.2388 19.8356 14.2192 19.7793 14.2192 19.7212C14.2192 19.663 14.2388 19.6068 14.2743 19.5628C14.3099 19.5188 14.3591 19.4901 14.4129 19.4818V19.4818ZM8.60195 18.4749C8.67572 18.3103 8.98463 18.3992 8.94314 18.6081C9.13986 18.4847 9.3335 18.7727 9.2167 18.9109C9.25188 18.9263 9.28256 18.9515 9.30559 18.9839C9.32862 19.0163 9.34316 19.0547 9.3477 19.0951C9.35224 19.1355 9.34663 19.1765 9.33143 19.2138C9.31624 19.2511 9.29202 19.2834 9.26127 19.3074C9.23255 19.2996 9.20323 19.2946 9.17367 19.2926L9.15523 19.2843C9.06485 18.9637 8.86516 18.6912 8.5958 18.5209L8.60195 18.4749ZM6.604 18.9109C6.48566 18.7727 6.68084 18.4847 6.87756 18.6081C6.83607 18.3992 7.14498 18.3153 7.21875 18.4749V18.5209C6.94941 18.6916 6.74935 18.9639 6.65779 19.2843L6.64088 19.2926C6.61132 19.2946 6.582 19.2996 6.55328 19.3074C6.52072 19.2832 6.49508 19.2498 6.47923 19.2109C6.46338 19.1721 6.45794 19.1292 6.46353 19.0872C6.46911 19.0452 6.48549 19.0057 6.51084 18.9731C6.53619 18.9405 6.56951 18.9161 6.60707 18.9026L6.604 18.9109ZM10.1158 25.2682C10.0681 25.2682 10.0512 25.0609 10.0282 24.7664H9.9206C9.88217 23.6789 9.78689 23.1211 9.17674 22.5288V24.9869H6.64703V22.5157C6.03227 23.108 5.94006 23.6674 5.90164 24.7533H5.79406C5.771 25.0478 5.75564 25.2551 5.70799 25.2551C5.66035 25.2551 5.59273 25.0609 5.53432 24.7615L5.34682 24.7713C5.12551 23.0323 6.04457 21.7276 7.43084 21.1501C7.55796 21.0591 7.66327 20.9374 7.73822 20.7947C7.49272 20.7687 7.26084 20.6616 7.0747 20.4883C6.88856 20.315 6.75737 20.084 6.69928 19.8273C6.64653 19.8179 6.59861 19.7887 6.56404 19.745C6.52947 19.7014 6.5105 19.646 6.5105 19.5887C6.5105 19.5315 6.52947 19.4761 6.56404 19.4324C6.59861 19.3887 6.64653 19.3596 6.69928 19.3501C6.81455 18.799 7.17725 18.3827 7.7751 18.3827C8.37295 18.3827 9.00461 18.799 9.1168 19.3501C9.16956 19.3596 9.21748 19.3887 9.25205 19.4324C9.28661 19.4761 9.30559 19.5315 9.30559 19.5887C9.30559 19.646 9.28661 19.7014 9.25205 19.745C9.21748 19.7887 9.16956 19.8179 9.1168 19.8273C9.05801 20.0839 8.9264 20.3146 8.74008 20.4879C8.55376 20.6611 8.32188 20.7683 8.07633 20.7947C8.15219 20.9367 8.25732 21.0582 8.38371 21.1501C9.76691 21.7226 10.689 23.0323 10.4677 24.7812L10.2818 24.7713C10.2341 25.0659 10.1573 25.26 10.1189 25.26L10.1158 25.2682ZM10.8842 25.232C10.7606 25.3626 10.6499 25.5065 10.5538 25.6614C10.2464 26.1962 10.2649 26.6881 10.2126 26.7259C10.1603 26.7638 10.002 26.0234 10.4401 25.181C10.4816 25.1053 10.5215 25.0346 10.563 24.9688L10.8842 25.232ZM12.5425 23.2083C12.5036 23.3779 12.4144 23.5295 12.2884 23.6404C12.1624 23.7513 12.0062 23.8156 11.8432 23.8237C11.8881 23.9728 11.9792 24.1011 12.1014 24.1873C12.1014 24.1873 12 24.462 11.7802 24.462C11.5605 24.462 11.459 24.1955 11.4575 24.1955C11.5802 24.1098 11.6714 23.9814 11.7157 23.8319C11.5516 23.8231 11.3945 23.7576 11.2682 23.6452C11.1418 23.5328 11.0529 23.3795 11.0149 23.2083C10.8612 23.2083 10.8612 22.9089 11.0149 22.9072C11.0543 22.7511 11.1358 22.6109 11.2492 22.5041C11.3626 22.3973 11.503 22.3286 11.6527 22.3067C11.877 22.3989 11.96 22.6489 12 22.8957C12.0386 22.8088 12.0604 22.7145 12.0641 22.6184C12.0678 22.5223 12.0533 22.4263 12.0215 22.3363C12.1474 22.3737 12.2617 22.4463 12.3527 22.5467C12.4438 22.647 12.5082 22.7714 12.5394 22.9072C12.6962 22.9056 12.7054 23.2083 12.5425 23.2083ZM12.71 23.0438C12.7094 23.002 12.6967 22.9615 12.6735 22.9279C12.6504 22.8943 12.618 22.8692 12.5809 22.8562C12.5359 22.6979 12.4495 22.5567 12.3318 22.4494C12.2141 22.3421 12.0702 22.2732 11.917 22.2508C11.9671 22.3168 12.0019 22.3947 12.0185 22.4779C12.035 22.5611 12.0329 22.6474 12.0123 22.7296C12.0058 22.6203 11.9683 22.5158 11.9049 22.43C11.8415 22.3441 11.7551 22.281 11.6573 22.2491C11.501 22.2686 11.3533 22.3364 11.2324 22.4442C11.1115 22.552 11.0226 22.6952 10.9764 22.8562C10.9395 22.8693 10.9074 22.8944 10.8845 22.9281C10.8616 22.9617 10.8492 23.0022 10.8489 23.0438C10.7591 23.0528 10.669 23.0323 10.5904 22.9849C10.5119 22.9376 10.4487 22.8657 10.4093 22.7789C10.3958 22.7334 10.392 22.6851 10.3984 22.6378C10.4048 22.5905 10.4212 22.5454 10.4462 22.5058L10.2695 22.4482L10.3694 22.2574L10.4816 22.4581C10.5051 22.4297 10.5326 22.4053 10.563 22.3857C10.5416 22.411 10.5225 22.4386 10.5061 22.468L10.7213 22.5091L10.5953 22.695L10.48 22.5222C10.4656 22.5526 10.4581 22.5861 10.4581 22.6201C10.4581 22.6542 10.4656 22.6877 10.48 22.718C10.499 22.7524 10.5247 22.7818 10.5553 22.8044C10.586 22.8271 10.6209 22.8423 10.6576 22.849C10.6943 22.8557 10.7319 22.8538 10.7679 22.8434C10.8038 22.833 10.8372 22.8144 10.8658 22.7888C10.9703 22.7032 10.9073 22.6029 10.9841 22.4318C11.1839 21.9958 11.5835 21.8757 11.7833 22.027C11.9846 21.8757 12.3842 21.9958 12.5825 22.4318C12.6609 22.5963 12.5978 22.7032 12.7008 22.7888C12.7295 22.8144 12.763 22.8331 12.7991 22.8435C12.8351 22.8539 12.8729 22.8558 12.9097 22.8491C12.9465 22.8423 12.9816 22.8271 13.0124 22.8045C13.0432 22.7819 13.069 22.7524 13.0881 22.718C13.1022 22.6876 13.1095 22.6541 13.1095 22.6201C13.1095 22.5862 13.1022 22.5527 13.0881 22.5222L12.9728 22.695L12.8453 22.5091L13.062 22.468C13.0456 22.4386 13.0266 22.411 13.0051 22.3857C13.0332 22.4048 13.0585 22.4281 13.0804 22.4548L13.1926 22.2541L13.2925 22.4449L13.1158 22.5025C13.1408 22.5421 13.1572 22.5872 13.1636 22.6345C13.1699 22.6818 13.1662 22.7301 13.1527 22.7756C13.1137 22.8626 13.0509 22.9349 12.9727 22.9828C12.8945 23.0307 12.8045 23.052 12.7147 23.0438H12.71ZM12.9421 25.543C12.8467 25.4412 12.7593 25.3312 12.6808 25.2139L12.9483 24.9935C12.9821 25.0478 13.0174 25.107 13.0497 25.1712C13.4155 25.872 13.918 25.7092 13.918 25.747C13.918 25.7848 13.3479 25.9856 12.9421 25.5446V25.543ZM13.8642 23.7513C13.6506 24.4851 13.7013 25.5693 13.6014 25.5693C13.5015 25.5693 13.1404 24.0606 13.6014 23.08L13.6445 22.9928L14.041 23.3087C13.968 23.4499 13.9088 23.5988 13.8642 23.7529V23.7513ZM16.7843 22.6094V25.2847H14.4636V22.8168L14.127 23.3103L13.6153 22.904C13.7501 22.6169 13.9335 22.3592 14.1563 22.1438C14.438 21.8643 14.7644 21.6414 15.1199 21.4857L15.627 22.1669L16.1327 21.4857C16.6094 21.4803 17.0854 21.5238 17.5543 21.6157L17.6696 22.5091L16.7843 22.6094ZM18.2951 22.2804C18.1003 22.2544 17.9043 22.2395 17.708 22.236L17.6434 21.6832C18.0079 21.7125 18.3684 21.7826 18.7193 21.8921L18.2951 22.2804ZM18.9314 22.774C18.9064 22.512 18.8327 22.258 18.7147 22.027C18.9805 21.8098 19.2049 21.6371 19.2864 21.2916C19.0609 21.2612 18.8508 21.1532 18.6877 20.9837C18.5247 20.8142 18.4176 20.5925 18.3827 20.3521C18.3725 20.3538 18.3621 20.3538 18.3519 20.3521C18.1737 20.2945 18.1983 19.898 18.3842 19.898C18.3842 19.8783 18.3842 19.8602 18.3965 19.8404C18.6864 19.7977 18.9558 19.6564 19.165 19.4373C19.3003 19.311 19.4057 19.1519 19.4723 18.9734C19.6927 19.0067 19.8974 19.1143 20.0569 19.2806C20.2163 19.4468 20.3222 19.6631 20.3591 19.898C20.5635 19.898 20.5635 20.3521 20.3591 20.3571C20.3251 20.5979 20.2184 20.8201 20.0552 20.9898C19.892 21.1595 19.6813 21.2672 19.4554 21.2965C19.5384 21.6535 19.7628 21.8164 20.0272 22.032C20.0007 22.072 19.9786 22.115 19.9611 22.1603C19.6914 22.3284 19.439 22.5264 19.208 22.7509C19.1176 22.7526 19.0273 22.7592 18.9375 22.7707L18.9314 22.774ZM20.3315 24.5838C19.7167 25.1103 19.1527 24.9902 18.8714 24.694C18.5902 24.3979 18.4672 23.7973 18.9483 23.1294C19.3083 22.6814 19.7496 22.3164 20.2454 22.0566C20.2421 22.3522 20.3482 22.6372 20.5406 22.8493C20.733 23.0614 20.9959 23.1834 21.272 23.1886H21.3212C21.2198 23.3992 20.8601 24.1346 20.3376 24.5821L20.3315 24.5838ZM21.9944 22.6934C22.0197 22.7392 22.0301 22.7929 22.0239 22.8458C22.0176 22.8987 21.9951 22.9478 21.9599 22.9855C21.9247 23.0232 21.8788 23.0473 21.8294 23.054C21.7799 23.0607 21.7299 23.0496 21.687 23.0224V23.0224C21.5084 23.1185 21.3061 23.1523 21.1086 23.1191C20.9112 23.0859 20.7283 22.9874 20.5858 22.8374C20.4433 22.6873 20.3482 22.4933 20.3139 22.2824C20.2795 22.0716 20.3077 21.8546 20.3945 21.6618H20.3852C20.3599 21.6159 20.3495 21.5623 20.3557 21.5094C20.362 21.4565 20.3845 21.4073 20.4197 21.3696C20.4549 21.3319 20.5008 21.3078 20.5503 21.3011C20.5997 21.2944 20.6498 21.3056 20.6926 21.3327L20.7003 21.3442C20.8742 21.248 21.0722 21.2135 21.2656 21.2458C21.459 21.278 21.6378 21.3753 21.7761 21.5236L21.793 21.5417C21.8277 21.5778 21.8596 21.6169 21.8883 21.6585L21.896 21.6683L21.9114 21.6963C21.9077 21.7352 21.8952 21.7726 21.8748 21.805C21.8544 21.8374 21.8269 21.864 21.7946 21.8822C21.7567 21.9053 21.7119 21.9117 21.6698 21.9C21.6276 21.8883 21.5913 21.8595 21.5686 21.8197C21.5416 21.7701 21.5328 21.7114 21.5441 21.6552C21.5156 21.6995 21.5026 21.753 21.5072 21.8066C21.5192 21.8657 21.5488 21.919 21.5914 21.9587C21.634 21.9985 21.6875 22.0224 21.7439 22.027C21.7957 22.0314 21.8477 22.0202 21.8938 21.9946C21.94 21.969 21.9786 21.9301 22.0051 21.8822C22.0598 22.0122 22.0862 22.1537 22.0825 22.2962C22.0787 22.4387 22.0449 22.5784 21.9836 22.7049C21.9874 22.6983 21.9935 22.6936 22.0005 22.6917L21.9944 22.6934Z" fill="#0E918C"/>
<path d="M7.56599 20.0492C7.49417 19.7748 7.31292 20.2263 7.24795 20.2737C7.22428 20.2999 7.19773 20.311 7.17132 20.3057C7.14491 20.3004 7.11972 20.2789 7.09862 20.2438C7.0724 20.1714 7.11572 20.0841 7.11572 20.0841C7.11572 20.0841 7.02908 20.1215 7.0325 20.2912C7.03592 20.4608 7.15903 20.5806 7.28443 20.5407C7.4634 20.4559 7.60817 20.2263 7.56599 20.0492Z" fill="#0E918C"/>
<path d="M20.7147 22.3953C20.6391 22.4364 20.5877 22.4887 20.5668 22.5457C20.546 22.6027 20.5568 22.6618 20.5977 22.7154C20.6387 22.7691 20.708 22.815 20.797 22.8473C20.8859 22.8795 20.9905 22.8967 21.0974 22.8967C21.2044 22.8967 21.309 22.8795 21.3979 22.8473C21.4869 22.815 21.5562 22.7691 21.5972 22.7154C21.6381 22.6618 21.6489 22.6027 21.6281 22.5457C21.6072 22.4887 21.5558 22.4364 21.4802 22.3953C21.3784 22.3404 21.2408 22.3097 21.0974 22.3097C20.9541 22.3097 20.8165 22.3404 20.7147 22.3953V22.3953ZM21.2812 22.6974C21.2457 22.7171 21.2002 22.7306 21.1506 22.7361C21.101 22.7417 21.0494 22.7391 21.0025 22.7287C20.9556 22.7183 20.9154 22.7005 20.8871 22.6777C20.8589 22.6548 20.8438 22.6279 20.8438 22.6004C20.8438 22.5729 20.8589 22.546 20.8871 22.5231C20.9154 22.5003 20.9556 22.4825 21.0025 22.4721C21.0494 22.4617 21.101 22.4591 21.1506 22.4647C21.2002 22.4702 21.2457 22.4837 21.2812 22.5034C21.3279 22.5293 21.3541 22.5641 21.3541 22.6004C21.3541 22.6367 21.3279 22.6715 21.2812 22.6974V22.6974Z" fill="#0E918C"/>
<path d="M23.1233 24.5816C23.3051 24.3387 23.551 24.2013 23.8079 24.1991H24.8841C24.8841 24.157 24.8841 24.1149 24.8841 24.071H23.4006C23.2571 24.0713 23.1167 24.1268 22.9961 24.2309C22.8755 24.335 22.7797 24.4833 22.7203 24.6581H22.8432C22.935 24.623 23.0286 24.5974 23.1233 24.5816V24.5816Z" fill="#0E918C"/>
<path d="M8.15153 20.538C8.4045 20.5852 8.64835 20.466 8.65519 20.2895C8.66203 20.1131 8.4911 20.0833 8.4911 20.0833C8.4911 20.0833 8.57542 20.1703 8.52301 20.2423C8.47059 20.3144 8.3498 20.3169 8.22445 20.2722C8.09911 20.2274 7.73219 19.7752 7.59089 20.0485C7.49745 20.2324 7.79372 20.461 8.15153 20.538Z" fill="#0E918C"/>
<path d="M26.5513 22.8968C26.5224 22.9833 26.5075 23.0716 26.507 23.1603V24.071C26.803 23.6087 27.048 23.1926 27.048 23.1926L26.5513 22.8968Z" fill="#0E918C"/>
<path d="M26.507 25.8322V26.4193L27.048 25.879C26.8715 25.858 26.6905 25.8423 26.507 25.8322V25.8322Z" fill="#0E918C"/>
<path d="M24.83 24.0685C24.8667 23.8844 24.8943 23.6804 24.8805 23.4839H24.8529L24.3432 24.071L24.83 24.0685Z" fill="#0E918C"/>
</svg>
