<svg width="17" height="24" viewBox="0 0 17 24" fill="none" xmlns="http://www.w3.org/2000/svg">
<path d="M7.38978 22.1647C7.14294 22.1647 6.92775 22.1647 6.70623 22.1647C5.71889 22.1647 4.73788 22.1584 3.75053 22.1647C3.16826 22.171 2.76319 22.5951 2.78851 23.1394C2.81383 23.6394 3.23155 24.0001 3.79484 24.0001C6.81383 24.0001 9.82648 24.0001 12.8455 24.0001C12.9088 24.0001 12.9721 24.0001 13.0353 23.9938C13.5037 23.9432 13.8645 23.5381 13.8581 23.0698C13.8518 22.5508 13.4467 22.1647 12.8708 22.1647C11.7632 22.1584 10.6493 22.1647 9.54167 22.1647C9.45307 22.1647 9.35813 22.1647 9.26319 22.1647C9.26319 21.5128 9.26319 20.8862 9.26319 20.2913C9.81383 20.1647 10.3518 20.0698 10.8708 19.9115C12.2759 19.4811 13.4594 18.69 14.4467 17.6077C15.3581 16.6141 16.01 15.4748 16.3581 14.1584C16.7189 12.7976 16.6176 11.4115 16.6113 10.0318C16.6113 9.62672 16.1936 9.26596 15.7822 9.24064C15.2126 9.20267 14.7948 9.62672 14.7822 10.2533C14.7632 11.171 14.8138 12.1077 14.6809 13.0128C14.3202 15.4242 12.9278 17.1267 10.6999 18.0001C8.18091 18.9875 5.82648 18.5255 3.83281 16.6394C2.64294 15.5191 1.97205 14.1267 1.88345 12.4811C1.84547 11.7153 1.86446 10.9495 1.8518 10.1837C1.84547 9.6457 1.44041 9.23431 0.921421 9.24064C0.421421 9.24697 0.0226864 9.65203 0.0100282 10.1773C0.00369911 10.5824 -0.00895912 10.9938 0.0100282 11.3989C0.0416738 12.1141 0.0353447 12.8419 0.149269 13.5444C0.389775 15.0634 1.07965 16.3799 2.10496 17.5255C3.21889 18.766 4.56066 19.6394 6.19357 20.0381C6.58598 20.133 6.97838 20.2027 7.37712 20.2849C7.38978 20.8989 7.38978 21.5191 7.38978 22.1647Z" fill="white"/>
<path d="M8.79564 0C8.94121 0.0316456 9.08678 0.056962 9.22602 0.0886076C11.245 0.455696 12.8906 2.31646 12.9159 4.36076C12.9539 7.03165 12.9539 9.70253 12.9096 12.3734C12.8842 13.7278 12.2134 14.8101 11.1627 15.6329C8.6121 17.6203 4.91589 16.4873 3.92855 13.4051C3.77665 12.9241 3.71969 12.3924 3.71969 11.8861C3.7007 9.50633 3.70703 7.12025 3.71336 4.74051C3.71336 2.72152 4.66906 1.29747 6.45387 0.411392C6.81463 0.227848 7.23868 0.170886 7.63741 0.0632911C7.71336 0.0443038 7.78931 0.0316456 7.86526 0.0126582C8.17539 0 8.48551 0 8.79564 0Z" fill="#23183D"/>
<path d="M7.38884 22.1637C7.38884 21.5181 7.38884 20.9042 7.38884 20.2713C6.99643 20.189 6.5977 20.1194 6.20529 20.0244C4.57238 19.6257 3.23061 18.7523 2.11668 17.5118C1.09137 16.3725 0.401494 15.0498 0.160987 13.5308C0.0533925 12.8282 0.0533925 12.1004 0.021747 11.3852C0.00275963 10.9801 0.0154179 10.5751 0.021747 10.1637C0.0280761 9.63836 0.42681 9.2333 0.933139 9.22697C1.4458 9.22064 1.85086 9.63203 1.86352 10.17C1.87618 10.9358 1.85719 11.7017 1.89516 12.4675C1.97744 14.113 2.65466 15.4991 3.84453 16.6257C5.84453 18.5118 8.19263 18.9738 10.7116 17.9865C12.9395 17.113 14.3319 15.4105 14.6926 12.9991C14.8255 12.0941 14.7749 11.1637 14.7939 10.2396C14.8066 9.61304 15.2179 9.18899 15.7939 9.22697C16.2053 9.25861 16.6167 9.61304 16.623 10.0181C16.6357 11.3979 16.7306 12.7839 16.3698 14.1447C16.0217 15.4548 15.3698 16.5941 14.4585 17.5941C13.4711 18.6763 12.2876 19.4738 10.8825 19.8979C10.3635 20.0561 9.81922 20.151 9.27491 20.2776C9.27491 20.8789 9.27491 21.4991 9.27491 22.151C9.37618 22.151 9.46478 22.151 9.55339 22.151C10.661 22.151 11.7749 22.1447 12.8825 22.151C13.4521 22.151 13.8635 22.5371 13.8698 23.0561C13.8762 23.5244 13.5154 23.9295 13.0471 23.9801C12.9838 23.9865 12.9205 23.9865 12.8572 23.9865C9.8382 23.9865 6.82554 23.9865 3.80656 23.9865C3.24327 23.9865 2.82554 23.6257 2.80023 23.1257C2.77491 22.5751 3.17997 22.151 3.76225 22.151C4.7496 22.1447 5.73061 22.151 6.71795 22.151C6.92681 22.1637 7.142 22.1637 7.38884 22.1637Z" fill="#23183D"/>
</svg>
