<svg width="36" height="41" viewBox="0 0 36 41" fill="none" xmlns="http://www.w3.org/2000/svg">
<path d="M18.1598 12.6719C13.9027 12.6719 10.4395 16.1351 10.4395 20.3919C10.4395 24.6491 13.9027 28.1123 18.1598 28.1123C22.4166 28.1123 25.8799 24.6491 25.8799 20.3919C25.8799 16.1351 22.4166 12.6719 18.1598 12.6719ZM22.7434 18.9381L17.2126 24.4688C16.9805 24.701 16.676 24.8172 16.3718 24.8172C16.0676 24.8172 15.7634 24.7013 15.5312 24.4688L13.4177 22.3553C12.9534 21.8913 12.9534 21.1385 13.4177 20.6742C13.8817 20.2099 14.6344 20.2099 15.0988 20.6742L16.3718 21.9472L21.0623 17.257C21.5263 16.7927 22.2791 16.7927 22.7434 17.257C23.2077 17.721 23.2077 18.4738 22.7434 18.9381Z" fill="white"/>
<path d="M35.3722 11.1267L35.371 11.0952C35.3533 10.706 35.3416 10.2942 35.3345 9.83604C35.3014 7.60192 33.5254 5.75391 31.291 5.62901C26.6323 5.36903 23.0284 3.84994 19.9491 0.848539L19.9228 0.823499C18.9184 -0.0974164 17.4034 -0.0974164 16.3987 0.823499L16.3724 0.848539C13.2931 3.84994 9.68919 5.36903 5.03051 5.62932C2.79639 5.75391 1.0201 7.60192 0.987018 9.83635C0.980217 10.2914 0.968161 10.7032 0.95054 11.0952L0.948686 11.1684C0.858109 15.9189 0.745583 21.8311 2.72343 27.1974C3.81097 30.1484 5.45805 32.7136 7.6186 34.8223C10.0793 37.2236 13.3024 39.1301 17.1981 40.4884C17.3248 40.5326 17.4565 40.5685 17.5907 40.5954C17.7799 40.6331 17.9703 40.6519 18.1607 40.6519C18.3512 40.6519 18.5419 40.6331 18.7308 40.5954C18.865 40.5685 18.9976 40.5323 19.1249 40.4878C23.016 39.127 26.2357 37.2196 28.6942 34.8185C30.8539 32.7093 32.5009 30.1435 33.5894 27.1919C35.5747 21.8095 35.4625 15.8861 35.3722 11.1267ZM18.1601 30.491C12.592 30.491 8.06221 25.9612 8.06221 20.393C8.06221 14.8249 12.592 10.2951 18.1601 10.2951C23.728 10.2951 28.2581 14.8249 28.2581 20.393C28.2581 25.9612 23.728 30.491 18.1601 30.491Z" fill="white"/>
</svg>
