<svg width="20" height="16" viewBox="0 0 20 16" fill="none" xmlns="http://www.w3.org/2000/svg">
<path d="M16.5327 4.44444H3.46602C1.91668 4.44444 0.666016 5.63556 0.666016 7.11111V10.6667C0.666016 11.6444 1.50602 12.4444 2.53268 12.4444H4.39935V14.2222C4.39935 15.2 5.23935 16 6.26602 16H13.7327C14.7593 16 15.5993 15.2 15.5993 14.2222V12.4444H17.466C18.4927 12.4444 19.3327 11.6444 19.3327 10.6667V7.11111C19.3327 5.63556 18.082 4.44444 16.5327 4.44444ZM12.7993 14.2222H7.19935C6.68602 14.2222 6.26602 13.8222 6.26602 13.3333V9.77778H13.7327V13.3333C13.7327 13.8222 13.3127 14.2222 12.7993 14.2222ZM16.5327 8C16.0194 8 15.5993 7.6 15.5993 7.11111C15.5993 6.62222 16.0194 6.22222 16.5327 6.22222C17.046 6.22222 17.466 6.62222 17.466 7.11111C17.466 7.6 17.046 8 16.5327 8ZM14.666 0H5.33268C4.81935 0 4.39935 0.4 4.39935 0.888889V2.66667C4.39935 3.15556 4.81935 3.55556 5.33268 3.55556H14.666C15.1793 3.55556 15.5993 3.15556 15.5993 2.66667V0.888889C15.5993 0.4 15.1793 0 14.666 0Z" fill="white"/>
</svg>
