<svg width="13" height="14" viewBox="0 0 13 14" fill="none" xmlns="http://www.w3.org/2000/svg">
<path d="M10.8333 9.89558C10.2844 9.89558 9.79333 10.1064 9.41778 10.4367L4.26833 7.52008C4.30444 7.35843 4.33333 7.19679 4.33333 7.02811C4.33333 6.85944 4.30444 6.69779 4.26833 6.53614L9.36 3.64759C9.75 3.999 10.2628 4.21687 10.8333 4.21687C12.0322 4.21687 13 3.2751 13 2.10843C13 0.941767 12.0322 0 10.8333 0C9.63444 0 8.66667 0.941767 8.66667 2.10843C8.66667 2.27711 8.69556 2.43875 8.73167 2.6004L3.64 5.48896C3.25 5.13755 2.73722 4.91968 2.16667 4.91968C0.967778 4.91968 0 5.86145 0 7.02811C0 8.19478 0.967778 9.13655 2.16667 9.13655C2.73722 9.13655 3.25 8.91867 3.64 8.56727L8.78222 11.491C8.74611 11.6386 8.72444 11.7932 8.72444 11.9478C8.72444 13.0793 9.67056 14 10.8333 14C11.9961 14 12.9422 13.0793 12.9422 11.9478C12.9422 10.8163 11.9961 9.89558 10.8333 9.89558Z" fill="#E9E9E9"/>
</svg>
