<svg width="24" height="24" viewBox="0 0 24 24" fill="none" xmlns="http://www.w3.org/2000/svg">
<path d="M22.9161 2.23258H14.1706V0H12.5403L0 2.23815V21.7674L12.4667 24H14.1706V21.7758H22.3545C22.818 21.7535 23.3332 21.7897 23.7312 21.4995C24.0502 21 23.9684 20.3749 23.9956 19.8111V3.31536C24.0529 2.67908 23.5377 2.16838 22.9161 2.23258ZM9.09446 15.7926C8.63921 16.0354 7.95764 15.7814 7.41788 15.8204C7.0553 13.973 6.63272 12.1368 6.30835 10.281C5.98936 12.0837 5.57499 13.8697 5.20969 15.6614C4.68628 15.6335 4.16016 15.6 3.63399 15.5637C3.18141 13.1079 2.64984 10.6688 2.22727 8.20744C2.69344 8.18513 3.16233 8.1656 3.6285 8.14885C3.90928 9.92654 4.22827 11.6958 4.47366 13.4763C4.85803 11.6512 5.25056 9.82606 5.63227 8.00096C6.15024 7.97025 6.6682 7.94794 7.18617 7.92001C7.54875 9.80374 7.91949 11.6846 8.31207 13.56C8.62013 11.6233 8.96086 9.69208 9.29077 7.75816C9.83597 7.73863 10.3812 7.70792 10.9237 7.67442C10.3076 10.3786 9.76782 13.1051 9.09446 15.7926ZM22.6981 20.4504H14.1706V18.6977H21.2586V17.5814H14.1706V16.186H21.2586V15.0698H14.1706V13.6744H21.2586V12.5582H14.1706V11.1628H21.2586V10.0465H14.1706V8.65115H21.2586V7.53489H14.1706V6.13954H21.2586V5.02327H14.1706V3.54966H22.6981V20.4503V20.4504Z" fill="#0E918C"/>
</svg>
