<svg width="40" height="40" viewBox="0 0 40 40" fill="none" xmlns="http://www.w3.org/2000/svg">
<g filter="url(#filter0_i_133_17683)">
<circle cx="20" cy="20" r="20" fill="white"/>
</g>
<path d="M14.8174 30.9796C13.759 31.0074 12.6936 31.1188 11.8511 30.2763C11.3497 29.768 11.0921 29.1691 11.106 28.4171C11.5377 28.4171 11.9625 28.4241 12.3872 28.4171C13.1044 28.4032 13.7311 27.9088 13.933 27.2264C14.2394 26.175 13.4804 25.1235 12.3872 25.0887C11.9694 25.0748 11.5586 25.0887 11.1199 25.0887C11.1199 24.5943 11.1199 24.1278 11.1199 23.6265C11.5447 23.6265 11.9625 23.6334 12.3803 23.6265C13.195 23.6125 13.8913 22.9858 13.9888 22.192C14.0932 21.3634 13.6058 20.5696 12.805 20.3747C12.4429 20.2841 12.046 20.312 11.67 20.2911C11.489 20.2841 11.3079 20.2911 11.106 20.2911C11.106 20.1797 11.106 20.0892 11.106 20.0056C11.106 19.6226 11.106 19.2466 11.106 18.8288C11.5377 18.8288 11.9416 18.8358 12.3454 18.8288C13.0418 18.8079 13.564 18.4876 13.8495 17.854C14.135 17.2273 14.0445 16.6285 13.6127 16.0993C13.2855 15.6954 12.8468 15.5074 12.3315 15.5004C11.9346 15.4935 11.5377 15.5004 11.1199 15.5004C11.1199 15.013 11.1199 14.5465 11.1199 14.0382C11.4611 14.0382 11.8093 14.0451 12.1505 14.0382C12.3803 14.0312 12.624 14.0243 12.8468 13.9546C13.6267 13.7179 14.1002 12.945 13.9888 12.1303C13.8843 11.3434 13.2019 10.7376 12.3942 10.7098C11.9764 10.6959 11.5656 10.7098 11.1547 10.7098C10.9946 9.90206 11.5308 8.8158 12.3385 8.37713C12.6588 8.18912 13.0418 8.07771 13.4108 8.02897C13.8704 7.97326 14.3439 8.01504 14.8174 8.01504C14.8174 15.6745 14.8174 23.3201 14.8174 30.9796Z" fill="#EB9411"/>
<path d="M11.0829 13.1963C10.6652 13.1963 10.2474 13.2032 9.82957 13.1963C9.34215 13.1893 9.01488 12.862 9.00792 12.3816C9.00095 11.8942 9.34215 11.5321 9.82957 11.5321C10.6652 11.5251 11.4938 11.5251 12.3293 11.5321C12.8446 11.539 13.1649 11.8733 13.151 12.3746C13.144 12.869 12.8098 13.1963 12.3015 13.1963C11.9046 13.1963 11.4938 13.1963 11.0829 13.1963Z" fill="#EB9411"/>
<path d="M11.0612 17.9864C10.6504 17.9864 10.2465 17.9934 9.83569 17.9864C9.33434 17.9794 9.01403 17.6591 9.00011 17.1787C8.99314 16.6912 9.32738 16.3292 9.82176 16.3222C10.6643 16.3152 11.5068 16.3152 12.3494 16.3222C12.8438 16.3292 13.1571 16.6704 13.1502 17.1578C13.1432 17.6382 12.8159 17.9794 12.3355 17.9864C11.9177 17.9934 11.4929 17.9864 11.0612 17.9864Z" fill="#EB9411"/>
<path d="M11.0681 22.7843C10.6572 22.7843 10.2534 22.7843 9.84254 22.7843C9.33423 22.7774 9 22.4501 9 21.9557C9.00696 21.4683 9.3412 21.1202 9.83558 21.1202C10.6572 21.1132 11.4859 21.1132 12.3075 21.1202C12.8228 21.1271 13.15 21.4544 13.1431 21.9488C13.1431 22.4501 12.8019 22.7843 12.2797 22.7843C11.8897 22.7843 11.4789 22.7843 11.0681 22.7843Z" fill="#EB9411"/>
<path d="M11.0899 27.582C10.6721 27.582 10.2543 27.589 9.83654 27.582C9.34215 27.5751 9.01488 27.2547 9.00792 26.7743C9.00096 26.2869 9.33519 25.9248 9.82957 25.9178C10.6652 25.9109 11.4938 25.9109 12.3293 25.9178C12.8446 25.9248 13.1649 26.259 13.158 26.7534C13.151 27.2478 12.8168 27.5751 12.3154 27.582C11.9046 27.582 11.4938 27.582 11.0899 27.582Z" fill="#EB9411"/>
<path d="M29.543 24.0659C29.8842 24.1286 30.2114 24.1634 30.5248 24.2539C30.6223 24.2818 30.7337 24.4489 30.7406 24.5603C30.7546 25.563 30.7546 26.5727 30.7406 27.5754C30.7406 27.6798 30.6223 27.8539 30.5317 27.8817C30.2184 27.9723 29.8911 28.0071 29.5499 28.0697C29.543 26.7258 29.543 25.4098 29.543 24.0659Z" fill="#EB9411"/>
<path d="M29.543 15.0409C29.543 13.6831 29.543 12.381 29.543 11.0371C29.8911 11.0998 30.2254 11.1416 30.5457 11.2251C30.6362 11.246 30.7406 11.4201 30.7406 11.5176C30.7546 12.5342 30.7546 13.5438 30.7406 14.5605C30.7406 14.6649 30.6083 14.8251 30.5108 14.8529C30.2045 14.9504 29.8842 14.9852 29.543 15.0409Z" fill="#EB9411"/>
<path d="M29.543 19.3786C29.543 18.0347 29.543 16.7186 29.543 15.3887C29.8633 15.4444 30.1766 15.4862 30.483 15.5419C30.664 15.5767 30.7476 15.6951 30.7546 15.8761C30.7546 16.8858 30.7615 17.8884 30.7406 18.8981C30.7406 19.0095 30.6014 19.1766 30.4969 19.2115C30.1905 19.295 29.8702 19.3229 29.543 19.3786Z" fill="#EB9411"/>
<path d="M29.543 23.7317C29.543 22.3948 29.543 21.0927 29.543 19.7349C29.8842 19.7906 30.2184 19.8323 30.5387 19.9159C30.6223 19.9368 30.7197 20.1109 30.7267 20.2153C30.7546 21.2111 30.7685 22.2068 30.7615 23.2025C30.7615 23.3209 30.6501 23.5089 30.5457 23.5368C30.2254 23.6273 29.8842 23.6691 29.543 23.7317Z" fill="#EB9411"/>
<path d="M23.1019 18.7524C23.0601 18.6758 23.0183 18.641 22.9278 18.6689C22.4404 18.7803 21.9529 18.7872 21.4655 18.6689C21.368 18.648 21.3263 18.6828 21.2775 18.7594C20.8528 19.4975 20.421 20.2356 19.9963 20.9737C19.7735 21.3566 19.9615 21.6839 20.4071 21.6909C20.5882 21.6909 20.7692 21.6909 20.9503 21.6909C20.992 21.6909 21.0338 21.6978 21.0825 21.6978C21.0825 21.7675 21.0825 21.8232 21.0825 21.8789C21.0825 22.422 21.0825 22.9651 21.0825 23.5083C21.0825 23.8425 21.2497 24.0096 21.5909 24.0096C21.9808 24.0096 22.3707 24.0096 22.7676 24.0096C23.1367 24.0096 23.2899 23.8495 23.2968 23.4874C23.2968 22.9512 23.2968 22.4081 23.2968 21.8719C23.2968 21.8162 23.2968 21.7605 23.2968 21.6909C23.5405 21.6909 23.7634 21.6909 23.9862 21.6909C24.4179 21.6839 24.6059 21.3566 24.3901 20.9806C23.9583 20.2356 23.5266 19.4975 23.1019 18.7524Z" fill="#EB9411"/>
<path d="M26.0687 8.00162C22.6986 8.00162 19.3284 8.00162 15.9582 8.00162C15.8677 8.00162 15.7772 8.00858 15.6797 8.01554C15.6797 15.682 15.6797 23.3136 15.6797 30.9801C15.7772 30.987 15.8538 30.994 15.9304 30.994C19.3214 30.994 22.7055 31.001 26.0966 30.994C27.6494 30.994 28.7008 29.9147 28.7008 28.3619C28.7008 22.4571 28.7008 16.5524 28.7008 10.6407C28.7008 9.06698 27.6424 8.00162 26.0687 8.00162ZM20.533 12.6321C20.923 12.3954 21.3477 12.2631 21.8003 12.2074C21.8282 12.2074 21.856 12.1934 21.8769 12.1795C22.0858 12.1795 22.2947 12.1795 22.5106 12.1795C22.7821 12.2491 23.0676 12.284 23.3252 12.3884C24.5438 12.8619 25.2331 13.7602 25.4769 15.0762C25.1148 15.0344 24.7736 15.0205 24.4463 14.9509C23.8057 14.8186 23.2138 14.5679 22.7612 14.0805C22.6846 13.9969 22.615 13.9064 22.5384 13.8159C22.3365 13.5791 22.0371 13.5722 21.8491 13.8159C21.1179 14.7559 20.1013 15.0344 18.9733 15.0414C18.9593 15.0414 18.9454 15.0344 18.9245 15.0275C19.0916 13.983 19.6208 13.1752 20.533 12.6321ZM26.0618 26.3635C26.0618 26.642 25.8877 26.8231 25.6092 26.8231C23.3322 26.8231 21.0622 26.8231 18.7853 26.8231C18.4998 26.8231 18.3257 26.649 18.3257 26.3565C18.3257 24.8107 18.3048 23.2649 18.3327 21.726C18.3605 20.2289 19.0707 19.1079 20.3729 18.3628C20.4007 18.3489 20.4286 18.328 20.4634 18.3141C20.4703 18.3071 20.4773 18.3001 20.4912 18.2862C19.6208 17.7222 19.0986 16.9423 18.9315 15.9118C20.157 15.9118 21.2711 15.6124 22.1972 14.7489C23.1094 15.5984 24.2235 15.9118 25.4629 15.9048C25.3028 16.9354 24.7805 17.7222 23.9171 18.2723C24.1747 18.4533 24.4463 18.6135 24.6831 18.8154C25.5535 19.5535 26.0339 20.5075 26.0548 21.6425C26.0757 23.2231 26.0618 24.7898 26.0618 26.3635Z" fill="#EB9411"/>
<defs>
<filter id="filter0_i_133_17683" x="0" y="0" width="40" height="40" filterUnits="userSpaceOnUse" color-interpolation-filters="sRGB">
<feFlood flood-opacity="0" result="BackgroundImageFix"/>
<feBlend mode="normal" in="SourceGraphic" in2="BackgroundImageFix" result="shape"/>
<feColorMatrix in="SourceAlpha" type="matrix" values="0 0 0 0 0 0 0 0 0 0 0 0 0 0 0 0 0 0 127 0" result="hardAlpha"/>
<feMorphology radius="1" operator="erode" in="SourceAlpha" result="effect1_innerShadow_133_17683"/>
<feOffset/>
<feGaussianBlur stdDeviation="2"/>
<feComposite in2="hardAlpha" operator="arithmetic" k2="-1" k3="1"/>
<feColorMatrix type="matrix" values="0 0 0 0 0 0 0 0 0 0 0 0 0 0 0 0 0 0 0.25 0"/>
<feBlend mode="normal" in2="shape" result="effect1_innerShadow_133_17683"/>
</filter>
</defs>
</svg>
