<svg width="40" height="40" viewBox="0 0 40 40" fill="none" xmlns="http://www.w3.org/2000/svg">
<g filter="url(#filter0_i_133_17638)">
<circle cx="20" cy="20" r="20" fill="white"/>
</g>
<path d="M21.0877 26.1081C21.1177 26.0721 21.1476 26.0362 21.1776 25.9942C21.4473 25.6286 21.717 25.257 21.9927 24.8974C22.1725 24.6576 22.4302 24.5857 22.7119 24.6576C22.9817 24.7296 23.1675 24.9273 23.1794 25.1971C23.1854 25.3889 23.1135 25.6166 23.0056 25.7724C22.2205 26.8753 21.4173 27.9601 20.6262 29.0629C20.5123 29.2187 20.4164 29.3926 20.3625 29.5784C20.2846 29.8241 20.2965 30.0698 20.5063 30.2616C20.842 30.5673 21.2195 30.5493 21.4893 30.1837C22.658 28.6014 23.8267 27.0251 24.9835 25.4308C25.451 24.7835 25.6488 24.0283 25.5169 23.2432C25.2113 21.3852 24.1864 20.0606 22.4542 19.3054C21.9328 19.0776 21.3994 18.8918 20.8659 18.7C20.788 18.6701 20.6621 18.694 20.5962 18.748C18.8701 20.0486 16.6764 20.0486 14.9623 18.742C14.8544 18.6581 14.7705 18.6641 14.6626 18.706C14.2011 18.8858 13.7396 19.0537 13.2841 19.2335C11.9775 19.7189 11.0245 20.6 10.4431 21.8646C9.98162 22.8656 9.80181 23.9024 10.3113 24.9333C10.557 25.4308 10.9046 25.8803 11.2343 26.3358C12.1872 27.6424 13.1522 28.937 14.1112 30.2317C14.285 30.4654 14.5367 30.5193 14.7885 30.4234C15.0761 30.3156 15.232 30.0938 15.232 29.8121C15.232 29.5124 15.0881 29.2667 14.9203 29.0389C14.1292 27.9541 13.332 26.8693 12.5529 25.7724C12.439 25.6166 12.373 25.3889 12.379 25.1971C12.385 24.9273 12.5708 24.7296 12.8465 24.6576C13.1402 24.5797 13.3979 24.6636 13.5837 24.9154C13.8834 25.3169 14.1771 25.7185 14.4708 26.1141C14.6986 25.8444 14.9263 25.5926 15.1421 25.3229C15.172 25.281 15.184 25.1971 15.166 25.1491C14.9263 24.6277 14.9023 24.0823 14.9203 23.5249C14.9623 22.3321 15.7774 21.2653 16.9282 20.8997C18.0789 20.5341 19.3556 20.9356 20.0688 21.9066C20.788 22.8895 20.806 23.9684 20.4344 25.0892C20.4104 25.1611 20.3924 25.275 20.4344 25.3229C20.6322 25.5926 20.8659 25.8444 21.0877 26.1081ZM14.4948 14.5525C14.5128 14.5525 14.5247 14.5585 14.5427 14.5585C14.5547 14.8761 14.5547 15.1998 14.5907 15.5175C14.7645 17.0458 16.0111 18.2325 17.5455 18.3464C19.0739 18.4603 20.4883 17.4714 20.8839 15.985C21.0937 15.2058 21.0517 14.4086 20.9678 13.6235C20.812 12.0951 19.5893 10.9264 18.0549 10.7825C16.5745 10.6447 15.1481 11.5797 14.7225 13.0301C14.5787 13.5216 14.5667 14.049 14.4948 14.5525ZM19.3016 23.8245C19.3016 23.7586 19.3016 23.6927 19.3016 23.6208C19.2776 22.8236 18.6903 22.1763 17.9231 22.1224C17.102 22.0624 16.4247 22.5779 16.2928 23.393C16.2569 23.6208 16.2569 23.8545 16.2689 24.0823C16.3348 25.0352 17.2338 25.6885 18.1568 25.4548C18.8761 25.275 19.3016 24.6696 19.3016 23.8245Z" fill="#F63D31"/>
<path d="M11.8123 33.7508C11.4227 33.571 11.3028 33.2653 11.3088 32.8458C11.3268 31.5092 11.3148 30.1727 11.3148 28.7702C11.3927 28.8661 11.4407 28.926 11.4826 28.9859C12.0101 29.6812 12.5255 30.3884 13.0649 31.0777C13.6043 31.7609 14.4854 31.9887 15.2825 31.671C16.1156 31.3414 16.6191 30.5802 16.5771 29.7171C16.5532 29.2736 16.4153 28.8661 16.1696 28.5004C15.9598 28.1888 15.75 27.8831 15.5223 27.5834C15.4084 27.4396 15.3904 27.2957 15.4743 27.1519C15.6481 26.8582 15.8339 26.5765 16.0197 26.2708C17.1945 27.032 18.3273 27.038 19.478 26.2948C19.7358 26.5525 19.9575 26.8342 20.0894 27.1879C20.1373 27.3197 20.1253 27.4396 20.0354 27.5595C19.7957 27.8771 19.5679 28.2008 19.3522 28.5304C19.0285 29.0339 18.8907 29.5853 18.9985 30.1786C19.2683 31.6351 21.0603 32.2944 22.2051 31.3654C22.343 31.2515 22.4568 31.1076 22.5647 30.9698C23.0622 30.3165 23.5537 29.6572 24.0511 28.9979C24.0991 28.932 24.147 28.8721 24.2369 28.7642C24.2369 28.89 24.2369 28.962 24.2369 29.0339C24.2369 30.3045 24.2249 31.5751 24.2429 32.8458C24.2489 33.2653 24.135 33.571 23.7395 33.7508C19.7717 33.7508 15.792 33.7508 11.8123 33.7508Z" fill="#F63D31"/>
<path d="M21.0893 26.1073C20.8616 25.8436 20.6338 25.5919 20.424 25.3222C20.3881 25.2742 20.4001 25.1604 20.424 25.0884C20.7896 23.9676 20.7777 22.8948 20.0584 21.9059C19.3452 20.9349 18.0686 20.5333 16.9178 20.8989C15.773 21.2645 14.9579 22.3314 14.916 23.5241C14.898 24.0815 14.922 24.6269 15.1617 25.1484C15.1857 25.1963 15.1737 25.2862 15.1377 25.3222C14.922 25.5859 14.6942 25.8436 14.4664 26.1133C14.1728 25.7178 13.8791 25.3102 13.5794 24.9146C13.3936 24.6689 13.1359 24.585 12.8422 24.6569C12.5725 24.7288 12.3867 24.9266 12.3747 25.1963C12.3687 25.3881 12.4406 25.6159 12.5485 25.7717C13.3277 26.8685 14.1248 27.9534 14.916 29.0382C15.0838 29.2719 15.2276 29.5117 15.2276 29.8114C15.2276 30.0931 15.0658 30.3148 14.7841 30.4227C14.5264 30.5186 14.2806 30.4587 14.1068 30.2309C13.1419 28.9363 12.1769 27.6417 11.2299 26.3351C10.9003 25.8796 10.5526 25.4301 10.3069 24.9326C9.79746 23.9017 9.97726 22.8648 10.4448 21.8639C11.0321 20.5993 11.9851 19.7182 13.2917 19.2147C13.7532 19.0409 14.2147 18.8671 14.6702 18.6873C14.7841 18.6454 14.862 18.6394 14.9699 18.7233C16.6841 20.0359 18.8777 20.0299 20.6038 18.7293C20.6698 18.6813 20.8016 18.6573 20.8736 18.6813C21.407 18.8731 21.9404 19.0649 22.4619 19.2867C24.194 20.0419 25.2189 21.3664 25.5246 23.2244C25.6564 24.0096 25.4586 24.7648 24.9911 25.4121C23.8404 27.0064 22.6716 28.5827 21.4969 30.165C21.2272 30.5306 20.8496 30.5486 20.5139 30.2429C20.3042 30.0511 20.2922 29.8054 20.3701 29.5596C20.43 29.3798 20.5259 29.2 20.6338 29.0442C21.425 27.9474 22.2281 26.8565 23.0133 25.7537C23.1271 25.5979 23.1931 25.3701 23.1871 25.1783C23.1811 24.9086 22.9953 24.7108 22.7196 24.6389C22.4379 24.567 22.1802 24.6389 22.0003 24.8787C21.7246 25.2443 21.4549 25.6099 21.1852 25.9755C21.1493 26.0354 21.1193 26.0714 21.0893 26.1073Z" fill="#F63D31"/>
<path d="M14.4922 14.553C14.5641 14.0435 14.5701 13.5221 14.7139 13.0366C15.1395 11.5922 16.566 10.6572 18.0464 10.789C19.5807 10.9329 20.8094 12.1016 20.9592 13.63C21.0372 14.4151 21.0851 15.2123 20.8753 15.9914C20.4738 17.4778 19.0653 18.4728 17.5369 18.3529C16.0026 18.239 14.7619 17.0463 14.5821 15.5239C14.5461 15.2063 14.5521 14.8826 14.5341 14.565C14.5222 14.559 14.5102 14.559 14.4922 14.553Z" fill="#F63D31"/>
<path d="M19.3064 23.8248C19.3064 24.6699 18.8808 25.2692 18.1556 25.455C17.2386 25.6888 16.3336 25.0355 16.2676 24.0825C16.2497 23.8548 16.2556 23.615 16.2916 23.3933C16.4235 22.5841 17.1067 22.0627 17.9219 22.1226C18.689 22.1826 19.2824 22.8239 19.3004 23.621C19.3064 23.6929 19.3064 23.7589 19.3064 23.8248Z" fill="#F63D31"/>
<path d="M28.4537 15.9599C28.7194 15.676 28.7715 15.254 28.5605 14.931C28.4459 14.7539 28.2844 14.6054 28.1386 14.4387C27.9692 14.5663 27.8155 14.6835 27.6488 14.8112C27.7765 14.9362 27.8937 15.043 28.0057 15.1576C28.1203 15.2748 28.1359 15.4311 28.0344 15.5457C27.8989 15.6942 27.7478 15.8271 27.5993 15.9729C27.4066 15.788 27.2112 15.5978 27.0237 15.4181C26.7449 15.6968 26.4714 15.9703 26.1953 16.2464C26.5939 16.632 27.0002 17.0227 27.4014 17.416C27.5264 17.5385 27.654 17.6505 27.8286 17.6922C27.8937 17.6922 27.9588 17.6922 28.0239 17.6922C28.0291 17.6896 28.0344 17.6843 28.0396 17.6817C28.5006 17.5932 28.6986 16.9993 28.2922 16.6424C28.2037 16.5642 28.1229 16.4731 28.0239 16.3715C28.1672 16.236 28.3183 16.1058 28.4537 15.9599Z" fill="#F63D31"/>
<path d="M28.9165 8.54145C28.9165 8.73161 29.0363 8.86446 29.2056 8.86446C29.3749 8.86446 29.5 8.73161 29.5 8.54406C29.5026 8.39037 29.4922 8.23929 29.5026 8.0856C29.513 7.90326 29.4531 7.77041 29.2864 7.69226C29.2343 7.69226 29.1822 7.69226 29.1301 7.69226C28.9634 7.7652 28.9008 7.89284 28.9113 8.07257C28.9243 8.22887 28.9165 8.38516 28.9165 8.54145Z" fill="#F63D31"/>
<path d="M25.1328 12.2635C25.8439 12.9746 26.5473 13.678 27.2558 14.3865C28.1076 13.6701 29.0714 13.17 30.1707 12.9668C28.9594 11.7555 27.7507 10.5443 26.5368 9.33301C26.3337 10.4349 25.8466 11.4091 25.1328 12.2635Z" fill="#F63D31"/>
<path d="M26.7888 14.7961C26.0959 14.1032 25.4108 13.4181 24.7205 12.7278C24.7101 12.7382 24.6893 12.7565 24.671 12.7747C24.2152 13.2306 23.7593 13.6838 23.3035 14.1423C22.9232 14.5226 22.9258 15.054 23.3061 15.4369C23.5587 15.6896 23.8114 15.9422 24.0667 16.1975C24.4705 16.6013 24.9914 16.6013 25.3978 16.1949C25.8432 15.7521 26.2861 15.3066 26.7315 14.8612C26.7523 14.8352 26.7732 14.8117 26.7888 14.7961ZM25.3509 14.5799C25.2155 14.7205 25.0774 14.8586 24.9367 14.9941C24.843 15.0826 24.7309 15.1061 24.6111 15.0514C24.4991 15.0019 24.4444 14.9107 24.421 14.7779C24.4574 14.7101 24.4809 14.6346 24.5278 14.5799C24.658 14.4366 24.7961 14.3038 24.9341 14.1709C25.0592 14.0511 25.2389 14.0511 25.3535 14.1683C25.4681 14.2803 25.4681 14.4575 25.3509 14.5799Z" fill="#F63D31"/>
<path d="M29.2681 9.54954C28.7419 9.02335 28.2131 8.49456 27.687 7.96838C27.5645 7.84334 27.4187 7.77562 27.2702 7.77301C26.9993 7.77301 26.7779 7.9267 26.6971 8.15853C26.6085 8.41381 26.6841 8.62741 26.8716 8.81496C28.1428 10.0835 29.414 11.3547 30.6852 12.6259C30.7164 12.6572 30.7503 12.691 30.7842 12.7197C31.0499 12.9307 31.4354 12.8734 31.6281 12.5946C31.7975 12.3524 31.7636 12.0476 31.537 11.8236C30.7842 11.063 30.0261 10.3076 29.2681 9.54954Z" fill="#F63D31"/>
<path d="M30.2618 9.41919C30.3816 9.47389 30.4936 9.45566 30.5874 9.36709C30.788 9.17172 30.9859 8.97636 31.1813 8.77318C31.2985 8.65075 31.2933 8.47362 31.1787 8.36161C31.0641 8.2496 30.8869 8.24699 30.7645 8.36421C30.5665 8.55697 30.3686 8.75234 30.1784 8.95291C30.1315 9.00241 30.1107 9.08055 30.0898 9.11702C30.0977 9.27592 30.1498 9.36709 30.2618 9.41919Z" fill="#F63D31"/>
<path d="M31.2579 10.6232C31.1641 10.6232 31.0703 10.6266 30.9766 10.6232C31.0703 10.6266 31.1641 10.6232 31.2579 10.6232C31.3595 10.6232 31.4585 10.6266 31.5601 10.6232C31.4585 10.6266 31.3595 10.6232 31.2579 10.6232Z" fill="#F63D31"/>
<path d="M31.5615 10.0367C31.3661 10.0341 31.1707 10.0341 30.978 10.0367C30.8113 10.0393 30.6862 10.1644 30.6836 10.3233C30.681 10.4874 30.8061 10.615 30.978 10.6202C31.0718 10.6228 31.1655 10.6202 31.2593 10.6202C31.3609 10.6202 31.4599 10.6228 31.5615 10.6202C31.7256 10.615 31.8532 10.4874 31.8532 10.3285C31.8532 10.1722 31.7256 10.0419 31.5615 10.0367Z" fill="#F63D31"/>
<defs>
<filter id="filter0_i_133_17638" x="0" y="0" width="40" height="40" filterUnits="userSpaceOnUse" color-interpolation-filters="sRGB">
<feFlood flood-opacity="0" result="BackgroundImageFix"/>
<feBlend mode="normal" in="SourceGraphic" in2="BackgroundImageFix" result="shape"/>
<feColorMatrix in="SourceAlpha" type="matrix" values="0 0 0 0 0 0 0 0 0 0 0 0 0 0 0 0 0 0 127 0" result="hardAlpha"/>
<feMorphology radius="1" operator="erode" in="SourceAlpha" result="effect1_innerShadow_133_17638"/>
<feOffset/>
<feGaussianBlur stdDeviation="2"/>
<feComposite in2="hardAlpha" operator="arithmetic" k2="-1" k3="1"/>
<feColorMatrix type="matrix" values="0 0 0 0 0 0 0 0 0 0 0 0 0 0 0 0 0 0 0.25 0"/>
<feBlend mode="normal" in2="shape" result="effect1_innerShadow_133_17638"/>
</filter>
</defs>
</svg>
