<svg width="40" height="40" viewBox="0 0 40 40" fill="none" xmlns="http://www.w3.org/2000/svg">
<g filter="url(#filter0_i_133_17660)">
<circle cx="20" cy="20" r="20" fill="white"/>
</g>
<path d="M17.6191 16.6845C17.8299 16.9231 17.9076 17.1617 17.9076 17.4224C17.9076 17.6721 17.8799 17.9218 17.8632 18.1715C17.8466 18.4711 18.0186 18.6819 18.3126 18.7208C18.4902 18.7485 18.6677 18.7596 18.8453 18.7652C19.1338 18.7763 19.3613 18.5821 19.378 18.2935C19.4001 17.9384 19.4168 17.5833 19.3946 17.2282C19.3669 16.8343 19.2892 16.4459 18.9674 16.1574C18.5623 15.7967 18.0907 15.6691 17.5581 15.7246C17.4304 15.7412 17.3583 15.708 17.2862 15.5914C16.5593 14.4318 14.9281 14.2765 13.9848 15.2807C13.8572 15.4194 13.7796 15.6414 13.6297 15.7135C13.4688 15.7856 13.2414 15.7135 13.0472 15.7246C12.3481 15.7745 11.7932 16.224 11.6878 16.912C11.6157 17.3836 11.6434 17.8719 11.66 18.349C11.6656 18.5932 11.9042 18.7707 12.1539 18.7652C12.2926 18.7652 12.4313 18.743 12.57 18.7319C13.0416 18.6986 13.2136 18.4766 13.1526 18.0217C13.1248 17.8053 13.1137 17.5889 13.1248 17.3725C13.1359 17.1339 13.2025 16.9064 13.3967 16.7067C13.4855 18.1326 14.6118 18.7818 15.4053 18.8095C15.8769 18.8262 16.3097 18.7208 16.6925 18.4489C17.2806 18.0272 17.5913 17.4502 17.6191 16.6845ZM24.7932 15.0754C23.6503 15.0532 22.6904 15.9965 22.6737 17.1561C22.6571 18.3046 23.6003 19.259 24.76 19.2756C25.8918 19.2867 26.8406 18.3546 26.8739 17.2005C26.9017 16.0631 25.9584 15.0976 24.7932 15.0754Z" fill="#20BE60"/>
<path d="M30.2462 26.2885C30.1296 26.5826 29.9743 26.8378 29.6525 26.9599C29.2863 27.0986 28.8368 26.9987 28.6094 26.6714C28.3985 26.3718 28.221 26.0444 28.0323 25.7281C27.7438 25.2399 27.4608 24.7516 27.1335 24.2744C27.1335 24.3466 27.1335 24.4242 27.1335 24.4964C27.1335 27.0764 27.1335 29.6509 27.1335 32.2309C27.1335 32.5638 27.0724 32.8579 26.8172 33.0909C26.279 33.5848 25.4134 33.3295 25.2248 32.6249C25.1915 32.4917 25.1804 32.353 25.1804 32.2143C25.1749 30.6718 25.1804 29.1293 25.1804 27.5869C25.1804 27.5036 25.1804 27.4149 25.1638 27.3316C25.1194 27.1541 24.9585 27.0376 24.7865 27.0487C24.6089 27.0542 24.4591 27.1818 24.4314 27.3649C24.4147 27.4537 24.4203 27.548 24.4203 27.6424C24.4258 29.1959 24.4314 30.755 24.4314 32.3086C24.4314 32.9744 23.9542 33.4128 23.3161 33.3406C22.9111 33.2962 22.5671 32.98 22.4894 32.5749C22.4672 32.4529 22.4617 32.3253 22.4617 32.2032C22.4672 29.6343 22.4728 27.0598 22.4783 24.4908C22.4783 24.4242 22.4783 24.3521 22.4395 24.2744C22.4062 24.3244 22.3673 24.3799 22.3396 24.4298C21.9401 25.1178 21.5406 25.8058 21.1356 26.4938C20.8471 26.9876 20.3699 27.1541 19.8983 26.9266C19.7873 26.8711 19.6763 26.7768 19.6042 26.6714C19.3434 26.283 19.0993 25.8835 18.8607 25.484C18.5223 24.9181 18.1949 24.3466 17.8343 23.7307C17.8343 24.1468 17.7954 24.513 17.8398 24.8681C18.0284 26.3329 18.2448 27.7922 18.4446 29.2514C18.5001 29.6675 18.317 29.9117 17.8176 30.0559C17.8176 30.117 17.8176 30.1891 17.8176 30.2612C17.8176 31.1046 17.8232 31.948 17.8176 32.7913C17.8121 33.4072 17.4126 33.84 16.8522 33.8455C16.3695 33.8511 15.9422 33.4849 15.8867 33.0022C15.8645 32.8246 15.8645 32.6471 15.8645 32.4695C15.8645 31.7371 15.8645 31.0047 15.8645 30.2723C15.8645 30.2002 15.8645 30.1336 15.8645 30.0504C15.6038 30.0504 15.3596 30.0504 15.0989 30.0504C15.0989 30.1281 15.0989 30.1946 15.0989 30.2668C15.0989 31.1212 15.1044 31.9812 15.0989 32.8357C15.0933 33.5681 14.4109 34.0397 13.7617 33.7679C13.3899 33.6125 13.168 33.3184 13.1625 32.9134C13.1458 32.0367 13.1458 31.1601 13.1569 30.2834C13.1569 30.117 13.1292 30.0337 12.9461 29.9894C12.652 29.9172 12.4744 29.6121 12.5188 29.2958C12.6742 28.1528 12.8295 27.0098 12.9904 25.8724C13.0792 25.2288 13.1957 24.5852 13.1569 23.9249C13.1514 23.8694 13.1569 23.8084 13.1125 23.7362C13.0792 23.7917 13.0404 23.8472 13.0071 23.9027C12.591 24.6129 12.1804 25.3286 11.7642 26.0333C11.4924 26.4994 11.0374 26.6658 10.588 26.4827C10.0886 26.2774 9.85557 25.7281 10.0942 25.2454C10.244 24.9403 10.4271 24.6462 10.5991 24.3521C11.4813 22.8318 12.3746 21.3171 13.2512 19.7913C13.5065 19.3474 13.8505 19.1421 14.3609 19.1532C15.1266 19.1699 15.8923 19.1643 16.6524 19.1532C17.113 19.1477 17.4403 19.3363 17.6678 19.7358C18.4945 21.1729 19.3323 22.6044 20.1702 24.0414C20.2034 24.1024 20.2478 24.1635 20.2978 24.2411C20.3477 24.1635 20.381 24.108 20.4198 24.047C21.1689 22.7653 21.9179 21.4891 22.6559 20.2074C22.8833 19.8135 23.1941 19.6082 23.6657 19.6193C24.4536 19.6415 25.247 19.6359 26.0404 19.6193C26.4399 19.6137 26.7284 19.7857 26.9226 20.1186C27.9879 21.9441 29.0532 23.7695 30.113 25.6005C30.174 25.7004 30.2073 25.8169 30.2573 25.9223C30.2462 26.0499 30.2462 26.1665 30.2462 26.2885Z" fill="#20BE60"/>
<path d="M17.6188 16.6848C17.5966 17.4504 17.2804 18.0275 16.6922 18.4492C16.3094 18.721 15.8711 18.8265 15.405 18.8098C14.6116 18.7821 13.4908 18.1385 13.3965 16.7069C13.2023 16.9011 13.1357 17.1286 13.1246 17.3728C13.1135 17.5892 13.1246 17.8055 13.1523 18.0219C13.2134 18.4825 13.0358 18.6988 12.5697 18.7321C12.431 18.7432 12.2923 18.7654 12.1536 18.7654C11.9039 18.7654 11.6653 18.5879 11.6598 18.3493C11.6487 17.8721 11.621 17.3839 11.6875 16.9122C11.7874 16.2242 12.3422 15.7748 13.0469 15.7249C13.2411 15.7138 13.4686 15.7859 13.6295 15.7138C13.7793 15.6416 13.857 15.4197 13.9846 15.281C14.9278 14.2767 16.5591 14.4321 17.2859 15.6028C17.3581 15.7138 17.4302 15.7471 17.5578 15.736C18.0849 15.6749 18.5621 15.8025 18.9671 16.1687C19.2889 16.4573 19.3721 16.8457 19.3943 17.2396C19.4165 17.5947 19.3999 17.9498 19.3777 18.3049C19.361 18.5934 19.1336 18.7821 18.845 18.7765C18.6675 18.771 18.4899 18.7543 18.3124 18.7321C18.0183 18.6877 17.8463 18.4825 17.863 18.1828C17.8741 17.9332 17.9074 17.6835 17.9074 17.4338C17.9074 17.1619 17.8297 16.9233 17.6188 16.6848Z" fill="#20BE60"/>
<path d="M24.7916 15.0755C25.9512 15.0977 26.9 16.0687 26.8723 17.2006C26.8445 18.3547 25.8957 19.2868 24.7583 19.2757C23.5987 19.2646 22.6554 18.3048 22.6721 17.1562C22.6887 15.9966 23.6486 15.0534 24.7916 15.0755Z" fill="#20BE60"/>
<path d="M20.817 12.114C21.0827 11.8301 21.1348 11.4081 20.9238 11.0851C20.8092 10.9079 20.6477 10.7595 20.5018 10.5927C20.3325 10.7204 20.1788 10.8376 20.0121 10.9652C20.1398 11.0903 20.257 11.1971 20.369 11.3117C20.4836 11.4289 20.4992 11.5852 20.3976 11.6998C20.2622 11.8483 20.1111 11.9811 19.9626 12.127C19.7699 11.9421 19.5745 11.7519 19.3869 11.5722C19.1082 11.8509 18.8347 12.1244 18.5586 12.4005C18.9571 12.7861 19.3635 13.1768 19.7647 13.5701C19.8897 13.6926 20.0173 13.8046 20.1919 13.8462C20.257 13.8462 20.3221 13.8462 20.3872 13.8462C20.3924 13.8436 20.3976 13.8384 20.4029 13.8358C20.8639 13.7473 21.0619 13.1533 20.6555 12.7965C20.567 12.7183 20.4862 12.6272 20.3872 12.5256C20.5305 12.3901 20.6816 12.2599 20.817 12.114Z" fill="#20BE60"/>
<path d="M21.2798 4.69514C21.2798 4.8853 21.3996 5.01814 21.5689 5.01814C21.7382 5.01814 21.8632 4.8853 21.8632 4.69774C21.8659 4.54406 21.8554 4.39297 21.8659 4.23928C21.8763 4.05694 21.8164 3.92409 21.6496 3.84595C21.5975 3.84595 21.5455 3.84595 21.4934 3.84595C21.3266 3.91888 21.2641 4.04652 21.2745 4.22626C21.2876 4.38255 21.2798 4.53885 21.2798 4.69514Z" fill="#20BE60"/>
<path d="M17.4961 8.41771C18.2072 9.12884 18.9105 9.83216 19.6191 10.5407C20.4709 9.82434 21.4347 9.3242 22.5339 9.12102C21.3227 7.90975 20.114 6.69848 18.9001 5.48721C18.6969 6.58908 18.2098 7.5633 17.4961 8.41771Z" fill="#20BE60"/>
<path d="M19.1521 10.9498C18.4592 10.2569 17.7741 9.57186 17.0838 8.88156C17.0734 8.89198 17.0525 8.91022 17.0343 8.92845C16.5785 9.3843 16.1226 9.83755 15.6667 10.296C15.2864 10.6763 15.289 11.2077 15.6694 11.5906C15.922 11.8433 16.1747 12.096 16.43 12.3513C16.8337 12.755 17.3547 12.755 17.7611 12.3487C18.2065 11.9058 18.6493 11.4604 19.0948 11.015C19.1156 10.9889 19.1365 10.9655 19.1521 10.9498ZM17.7142 10.7336C17.5787 10.8743 17.4407 11.0124 17.3 11.1478C17.2062 11.2364 17.0942 11.2598 16.9744 11.2051C16.8624 11.1556 16.8077 11.0645 16.7842 10.9316C16.8207 10.8639 16.8442 10.7883 16.891 10.7336C17.0213 10.5904 17.1593 10.4575 17.2974 10.3247C17.4224 10.2048 17.6022 10.2048 17.7168 10.3221C17.8314 10.4341 17.8314 10.6112 17.7142 10.7336Z" fill="#20BE60"/>
<path d="M21.6314 5.70344C21.1052 5.17725 20.5764 4.64846 20.0502 4.12228C19.9278 3.99724 19.7819 3.92952 19.6335 3.92691C19.3625 3.92691 19.1411 4.0806 19.0604 4.31243C18.9718 4.56771 19.0474 4.78131 19.2349 4.96886C20.5061 6.23744 21.7773 7.50862 23.0485 8.7798C23.0797 8.81106 23.1136 8.84493 23.1474 8.87358C23.4131 9.08458 23.7987 9.02727 23.9914 8.74855C24.1607 8.50629 24.1269 8.20152 23.9003 7.9775C23.1474 7.21688 22.3894 6.46146 21.6314 5.70344Z" fill="#20BE60"/>
<path d="M22.625 5.57287C22.7449 5.62758 22.8569 5.60934 22.9507 5.52078C23.1512 5.32541 23.3492 5.13004 23.5446 4.92686C23.6618 4.80443 23.6566 4.6273 23.542 4.51529C23.4274 4.40328 23.2502 4.40068 23.1278 4.5179C22.9298 4.71066 22.7318 4.90602 22.5417 5.1066C22.4948 5.15609 22.474 5.23424 22.4531 5.27071C22.4609 5.42961 22.513 5.52078 22.625 5.57287Z" fill="#20BE60"/>
<path d="M23.6212 6.77692C23.5274 6.77692 23.4336 6.7803 23.3398 6.77692C23.4336 6.7803 23.5274 6.77692 23.6212 6.77692C23.7228 6.77692 23.8217 6.7803 23.9233 6.77692C23.8217 6.7803 23.7228 6.77692 23.6212 6.77692Z" fill="#20BE60"/>
<path d="M23.9248 6.1904C23.7294 6.18779 23.534 6.18779 23.3413 6.1904C23.1746 6.193 23.0495 6.31804 23.0469 6.47694C23.0443 6.64104 23.1693 6.76868 23.3413 6.77389C23.435 6.7765 23.5288 6.77389 23.6226 6.77389C23.7242 6.77389 23.8232 6.7765 23.9248 6.77389C24.0889 6.76868 24.2165 6.64104 24.2165 6.48215C24.2165 6.32585 24.0889 6.19561 23.9248 6.1904Z" fill="#20BE60"/>
<defs>
<filter id="filter0_i_133_17660" x="0" y="0" width="40" height="40" filterUnits="userSpaceOnUse" color-interpolation-filters="sRGB">
<feFlood flood-opacity="0" result="BackgroundImageFix"/>
<feBlend mode="normal" in="SourceGraphic" in2="BackgroundImageFix" result="shape"/>
<feColorMatrix in="SourceAlpha" type="matrix" values="0 0 0 0 0 0 0 0 0 0 0 0 0 0 0 0 0 0 127 0" result="hardAlpha"/>
<feMorphology radius="1" operator="erode" in="SourceAlpha" result="effect1_innerShadow_133_17660"/>
<feOffset/>
<feGaussianBlur stdDeviation="2"/>
<feComposite in2="hardAlpha" operator="arithmetic" k2="-1" k3="1"/>
<feColorMatrix type="matrix" values="0 0 0 0 0 0 0 0 0 0 0 0 0 0 0 0 0 0 0.25 0"/>
<feBlend mode="normal" in2="shape" result="effect1_innerShadow_133_17660"/>
</filter>
</defs>
</svg>
