<svg width="40" height="40" viewBox="0 0 40 40" fill="none" xmlns="http://www.w3.org/2000/svg">
<g filter="url(#filter0_i_4367_303210)">
<circle cx="20" cy="20" r="20" fill="white"/>
</g>
<path d="M10.7007 31.0021C10.7007 30.2287 10.7465 29.4552 10.6949 28.6817C10.5517 26.5504 11.4111 25.6853 13.5539 25.84C13.9721 25.8686 14.3961 25.8457 14.8258 25.8457C14.568 25.7541 14.3044 25.6853 14.0695 25.5593C13.8231 25.4218 13.5825 25.2556 13.382 25.0551C13.1872 24.8603 13.021 24.6254 12.9065 24.3733C12.7861 24.1212 12.7002 23.8347 12.6658 23.554C12.6314 23.2847 12.6429 22.9925 12.7002 22.7232C12.958 21.4628 14.1211 20.5977 15.3987 20.6836C16.6592 20.7696 17.6904 21.7894 17.7878 23.0613C17.8795 24.2243 17.1461 25.5192 15.605 25.8343C16.1321 25.8343 16.6592 25.8285 17.1805 25.8343C17.4956 25.84 17.8165 25.8228 18.1201 25.8744C19.0483 26.0233 19.7129 26.8083 19.7243 27.7479C19.7358 28.8307 19.7243 29.9078 19.7301 30.9907C16.7164 31.0021 13.7086 31.0021 10.7007 31.0021Z" fill="#0E918C"/>
<path d="M21.0132 31.0021C21.0132 30.2287 21.059 29.4552 21.0074 28.6817C20.8642 26.5504 21.7236 25.6853 23.8664 25.84C24.2846 25.8686 24.7086 25.8457 25.1383 25.8457C24.8805 25.7541 24.6169 25.6853 24.382 25.5593C24.1356 25.4218 23.895 25.2556 23.6945 25.0551C23.4997 24.8603 23.3335 24.6254 23.219 24.3733C23.0986 24.1212 23.0127 23.8347 22.9783 23.554C22.9439 23.2847 22.9554 22.9925 23.0127 22.7232C23.2705 21.4628 24.4336 20.5977 25.7112 20.6836C26.9717 20.7696 28.0029 21.7894 28.1003 23.0613C28.192 24.2243 27.4586 25.5192 25.9175 25.8343C26.4446 25.8343 26.9717 25.8285 27.493 25.8343C27.8081 25.84 28.129 25.8228 28.4326 25.8744C29.3608 26.0233 30.0254 26.8083 30.0368 27.7479C30.0483 28.8307 30.0368 29.9078 30.0426 30.9907C27.0289 31.0021 24.0211 31.0021 21.0132 31.0021Z" fill="#0E918C"/>
<path fill-rule="evenodd" clip-rule="evenodd" d="M25.5593 9.05919L25.5593 9.05919C25.4756 9.03998 25.392 9.02077 25.3089 9C22.0146 9 18.7202 9 15.4144 9.00573C15.4025 9.00968 15.39 9.01498 15.3771 9.02048C15.3524 9.03094 15.3261 9.04208 15.2998 9.04583C13.644 9.28074 12.3263 10.5641 12.0341 12.2199C11.7419 13.8642 12.5841 15.5372 14.0794 16.3106C14.6295 16.5914 15.2139 16.7231 15.8555 16.746V19.6222C15.9358 19.5591 15.9873 19.519 16.0389 19.4789C16.2815 19.2758 16.5245 19.0727 16.7675 18.8696L16.7688 18.8685C17.5469 18.218 18.3259 17.5668 19.0983 16.9122C19.2473 16.7861 19.3848 16.7289 19.5796 16.7346C19.8517 16.7403 20.1238 16.7403 20.396 16.7403H20.396C20.6682 16.7403 20.9403 16.7403 21.2125 16.746C21.3328 16.746 21.4817 16.7976 21.5734 16.8721C22.1389 17.3369 22.7018 17.8096 23.2657 18.283C23.5358 18.5099 23.8062 18.7369 24.0771 18.9633C24.2766 19.1311 24.4798 19.2989 24.7035 19.4837L24.8849 19.6336V16.746C24.9478 16.74 25.007 16.7346 25.064 16.7294L25.064 16.7294C25.168 16.72 25.2642 16.7113 25.3605 16.7002C27.1767 16.471 28.5345 15.0559 28.7351 13.1996C28.9184 11.4808 27.8126 9.78492 26.1339 9.21198C25.946 9.14801 25.7525 9.10357 25.5593 9.05919ZM17.1618 13.5032V12.2313H17.1621V12.2295H18.4226V13.5014H18.4223V13.5032H17.1618ZM20.989 13.4975H19.7228V13.4932H19.7228V12.2385H20.9889V12.2428H20.989V13.4975ZM22.3182 12.2371H23.5787V12.2385H23.5789V13.4989H22.3184V13.4975H22.3182V12.2371Z" fill="#0E918C"/>
<defs>
<filter id="filter0_i_4367_303210" x="0" y="0" width="40" height="40" filterUnits="userSpaceOnUse" color-interpolation-filters="sRGB">
<feFlood flood-opacity="0" result="BackgroundImageFix"/>
<feBlend mode="normal" in="SourceGraphic" in2="BackgroundImageFix" result="shape"/>
<feColorMatrix in="SourceAlpha" type="matrix" values="0 0 0 0 0 0 0 0 0 0 0 0 0 0 0 0 0 0 127 0" result="hardAlpha"/>
<feMorphology radius="1" operator="erode" in="SourceAlpha" result="effect1_innerShadow_4367_303210"/>
<feOffset/>
<feGaussianBlur stdDeviation="2"/>
<feComposite in2="hardAlpha" operator="arithmetic" k2="-1" k3="1"/>
<feColorMatrix type="matrix" values="0 0 0 0 0 0 0 0 0 0 0 0 0 0 0 0 0 0 0.25 0"/>
<feBlend mode="normal" in2="shape" result="effect1_innerShadow_4367_303210"/>
</filter>
</defs>
</svg>
