<svg width="40" height="40" viewBox="0 0 40 40" fill="none" xmlns="http://www.w3.org/2000/svg">
<g filter="url(#filter0_i_1_25506)">
<circle cx="20" cy="20" r="20" fill="white"/>
</g>
<path d="M32.8827 17.2729C32.7804 17.7705 32.7122 18.2749 32.5759 18.7657C31.7307 21.765 29.0109 24.0077 25.9093 24.2871C21.7512 24.6552 18.1112 21.765 17.5591 17.6546C17.0205 13.6601 19.7676 9.86332 23.728 9.13395C27.7498 8.38413 31.642 10.8517 32.6441 14.7985C32.7463 15.2075 32.8009 15.6301 32.8827 16.0459C32.8827 16.4549 32.8827 16.8639 32.8827 17.2729ZM25.1663 19.7337C26.6387 19.6791 27.8452 19.1134 28.7723 17.975C29.0995 17.5728 29.0654 17.1025 28.7041 16.823C28.3496 16.5435 27.8998 16.6185 27.5794 17.0071C26.3388 18.5067 23.9871 18.5135 22.7533 17.0071C22.4261 16.6117 21.9625 16.5367 21.6081 16.8298C21.2604 17.1161 21.24 17.5728 21.5535 17.9682C22.4874 19.1202 23.7076 19.686 25.1663 19.7337ZM23.6258 14.3486C23.619 13.9328 23.2713 13.592 22.8623 13.592C22.4465 13.592 22.0989 13.9396 22.0989 14.3486C22.0989 14.7712 22.4533 15.1257 22.876 15.1189C23.2918 15.1121 23.6326 14.7644 23.6258 14.3486ZM28.227 14.3418C28.2201 13.926 27.8725 13.5852 27.4567 13.5852C27.0409 13.5852 26.7 13.9396 26.6932 14.3486C26.6932 14.7712 27.0545 15.1257 27.4771 15.1189C27.8929 15.1121 28.2338 14.7576 28.227 14.3418Z" fill="#23183D"/>
<path d="M6.70703 23.7131C6.80246 23.2223 6.87063 22.7247 7.00696 22.2407C7.86584 19.1937 10.5447 16.9783 13.694 16.6989C14.2529 16.6511 14.8119 16.6989 15.3777 16.7125C15.5685 16.7193 15.7594 16.7738 15.8957 16.7943C16.0321 17.5782 16.1343 18.328 16.2979 19.0642C16.4888 19.9231 16.8841 20.707 17.3204 21.4704C17.2318 21.4227 17.1432 21.375 17.0546 21.3273C16.7001 21.1569 16.2843 21.2864 16.0798 21.6136C15.8753 21.9408 15.9503 22.3566 16.2434 22.602C16.5501 22.8542 16.9796 22.8474 17.259 22.5679C17.5385 22.2816 17.5522 21.9544 17.3954 21.6068C17.6953 21.9885 17.9748 22.3771 18.2952 22.7451C19.2563 23.8358 20.4219 24.6538 21.7716 25.1855C21.9625 25.2605 21.9965 25.3354 21.9625 25.5399C21.4103 28.7778 19.0382 31.2249 15.8139 31.8589C11.649 32.6905 7.42277 29.7117 6.80246 25.5127C6.7752 25.3218 6.74111 25.1309 6.70703 24.9401C6.70703 24.5311 6.70703 24.1221 6.70703 23.7131ZM14.4234 24.3198C12.9578 24.3675 11.7513 24.9401 10.8242 26.0716C10.497 26.4738 10.5243 26.9373 10.8856 27.2236C11.24 27.5031 11.6899 27.4281 12.0103 27.0396C13.2577 25.5331 15.6026 25.5331 16.8364 27.0328C17.1636 27.4349 17.6271 27.5031 17.9748 27.21C18.3224 26.9237 18.3497 26.467 18.0293 26.0716C17.1023 24.9333 15.8889 24.3607 14.4234 24.3198ZM12.1262 22.7929C12.542 22.7929 12.8896 22.4452 12.8896 22.0294C12.8965 21.6136 12.5488 21.266 12.133 21.2591C11.7104 21.2523 11.3491 21.6068 11.3559 22.0294C11.3627 22.4452 11.7104 22.7929 12.1262 22.7929Z" fill="#23183D"/>
<path d="M17.3884 21.6161C17.5452 21.9637 17.5384 22.2909 17.2521 22.5772C16.9726 22.8567 16.5432 22.8703 16.2365 22.6113C15.9433 22.3659 15.8684 21.9501 16.0729 21.6229C16.2773 21.2889 16.7 21.1662 17.0476 21.3366C17.1362 21.3775 17.2249 21.432 17.3135 21.4797C17.3407 21.5206 17.368 21.5683 17.3884 21.6161Z" fill="white"/>
<path d="M25.1665 19.7346C23.7077 19.6869 22.4944 19.1212 21.5605 17.976C21.2401 17.5874 21.2674 17.1239 21.615 16.8376C21.9695 16.5445 22.4262 16.6127 22.7602 17.0148C24.0008 18.5145 26.3525 18.5145 27.5863 17.0148C27.9067 16.6263 28.3566 16.5513 28.7111 16.8308C29.0724 17.1171 29.1064 17.5806 28.7792 17.9828C27.8386 19.1143 26.632 19.6801 25.1665 19.7346Z" fill="white"/>
<path d="M23.6257 14.3455C23.6325 14.7614 23.2849 15.109 22.8759 15.1158C22.4533 15.1226 22.092 14.7682 22.0988 14.3455C22.0988 13.9297 22.4533 13.5889 22.8623 13.5889C23.2781 13.5889 23.6257 13.9297 23.6257 14.3455Z" fill="white"/>
<path d="M28.227 14.3386C28.2338 14.7544 27.8929 15.1089 27.4771 15.1157C27.0545 15.1294 26.6932 14.7749 26.6932 14.3455C26.6932 13.9296 27.0409 13.582 27.4567 13.582C27.8725 13.582 28.2201 13.9296 28.227 14.3386Z" fill="white"/>
<path d="M14.4232 24.3217C15.8887 24.3694 17.1021 24.9352 18.0359 26.0804C18.3563 26.4689 18.329 26.9325 17.9814 27.2187C17.6269 27.5119 17.1702 27.4369 16.843 27.0415C15.6024 25.5419 13.2575 25.5419 12.0169 27.0483C11.6965 27.4369 11.2466 27.5119 10.8922 27.2324C10.5309 26.9461 10.5036 26.4826 10.8308 26.0804C11.7511 24.9352 12.9576 24.3694 14.4232 24.3217Z" fill="white"/>
<path d="M12.1264 22.794C11.7106 22.794 11.363 22.4464 11.363 22.0374C11.3562 21.6148 11.7174 21.2603 12.1401 21.2671C12.5559 21.274 12.8967 21.6216 12.8967 22.0374C12.8899 22.4464 12.5422 22.7872 12.1264 22.794Z" fill="white"/>
<defs>
<filter id="filter0_i_1_25506" x="0" y="0" width="40" height="40" filterUnits="userSpaceOnUse" color-interpolation-filters="sRGB">
<feFlood flood-opacity="0" result="BackgroundImageFix"/>
<feBlend mode="normal" in="SourceGraphic" in2="BackgroundImageFix" result="shape"/>
<feColorMatrix in="SourceAlpha" type="matrix" values="0 0 0 0 0 0 0 0 0 0 0 0 0 0 0 0 0 0 127 0" result="hardAlpha"/>
<feMorphology radius="1" operator="erode" in="SourceAlpha" result="effect1_innerShadow_1_25506"/>
<feOffset/>
<feGaussianBlur stdDeviation="2"/>
<feComposite in2="hardAlpha" operator="arithmetic" k2="-1" k3="1"/>
<feColorMatrix type="matrix" values="0 0 0 0 0 0 0 0 0 0 0 0 0 0 0 0 0 0 0.25 0"/>
<feBlend mode="normal" in2="shape" result="effect1_innerShadow_1_25506"/>
</filter>
</defs>
</svg>
