<svg width="40" height="40" viewBox="0 0 40 40" fill="none" xmlns="http://www.w3.org/2000/svg">
<g filter="url(#filter0_i_4387_317544)">
<circle cx="20" cy="20" r="20" fill="white"/>
</g>
<path d="M12 25.6096C12 25.4671 12 25.3866 12 25.3122C12 20.3686 12 15.4311 12 10.4875C12 9.22986 12.762 8.46167 14.0196 8.46167C18.3747 8.46167 22.7236 8.46167 27.0788 8.46167C27.9151 8.46167 28.355 8.89532 28.355 9.73166C28.355 14.6629 28.355 19.6004 28.355 24.5317C28.355 24.6184 28.355 24.6989 28.355 24.8166C28.2496 24.8166 28.1505 24.8166 28.0514 24.8166C23.4794 24.8166 18.9137 24.8228 14.3417 24.8104C13.4744 24.8104 12.6815 24.9281 12 25.6096ZM17.7614 15.5055C18.0835 15.3754 18.3809 15.2577 18.6721 15.1337C19.4217 14.8054 20.2023 14.6567 21.0014 14.9045C21.5404 15.0718 22.0546 15.2948 22.5936 15.4993C22.1909 16.4037 21.782 17.2958 21.4041 18.1941C21.3236 18.38 21.2926 18.6216 21.3236 18.8198C21.5094 19.9907 22.5564 20.5916 23.7396 20.288C24.545 20.0774 25.3751 18.8818 24.8238 17.9897C24.7123 17.8162 24.6503 17.6118 24.5636 17.4197C24.2786 16.7816 23.9936 16.1373 23.7087 15.4807C23.8388 15.4311 23.9627 15.4001 24.068 15.3444C24.229 15.2577 24.3963 15.1647 24.5326 15.047C24.6937 14.9045 24.6813 14.7001 24.5512 14.5452C24.4211 14.3903 24.229 14.3656 24.0494 14.4957C23.5724 14.8426 23.0582 14.8674 22.5254 14.6753C21.8811 14.4461 21.2802 14.0806 20.5492 14.0744C20.5492 13.8142 20.5554 13.585 20.5492 13.3558C20.543 13.0832 20.4005 12.9283 20.1651 12.9345C19.9421 12.9407 19.812 13.0894 19.812 13.3558C19.812 13.585 19.812 13.8142 19.812 14.0682C19.1243 14.0868 18.542 14.3965 17.9411 14.6381C17.3711 14.8674 16.8136 14.8674 16.287 14.4833C16.1197 14.3594 15.9463 14.3965 15.81 14.5514C15.6737 14.7063 15.6737 14.8859 15.8162 15.0346C15.9215 15.1399 16.0578 15.2267 16.1879 15.301C16.3303 15.3754 16.4852 15.4249 16.6401 15.4869C16.6029 15.5736 16.572 15.6541 16.541 15.7285C16.1755 16.5524 15.7976 17.3764 15.4445 18.2127C15.3701 18.3924 15.3391 18.6216 15.3701 18.8136C15.556 19.9721 16.572 20.573 17.7366 20.3066C18.6225 20.1022 19.3783 18.9003 18.8703 17.9711C18.4429 17.1781 18.1269 16.3232 17.7614 15.5055ZM19.7934 15.5364C19.7934 17.3949 19.7934 19.2411 19.7934 21.0996C19.2854 21.0996 18.796 21.0934 18.3066 21.0996C18.065 21.1058 17.9287 21.2545 17.9287 21.4775C17.9349 21.6943 18.065 21.8368 18.3004 21.8368C19.5456 21.843 20.7908 21.843 22.0422 21.8368C22.2714 21.8368 22.4077 21.6943 22.4077 21.4775C22.4077 21.2545 22.2652 21.1058 22.0236 21.0996C21.6085 21.0934 21.1873 21.0996 20.7722 21.0996C20.6979 21.0996 20.6235 21.0996 20.5368 21.0996C20.5368 19.2225 20.5368 17.3826 20.5368 15.5364C20.2952 15.5364 20.066 15.5364 19.7934 15.5364Z" fill="#465987"/>
<path d="M19.4476 29.2704C19.4476 28.7686 19.4476 28.2915 19.4476 27.7897C19.5467 27.7897 19.6397 27.7897 19.7326 27.7897C21.9256 27.7897 24.1187 27.7897 26.3055 27.7897C26.3799 27.7897 26.4604 27.7959 26.5348 27.7835C26.7392 27.7588 26.8755 27.6101 26.8631 27.4056C26.8507 27.2012 26.7454 27.0773 26.5348 27.0463C26.4666 27.0339 26.3985 27.0401 26.3241 27.0401C22.2168 27.0401 18.1157 27.0401 14.0084 27.0401C13.9402 27.0401 13.8659 27.0339 13.7977 27.0463C13.5933 27.0773 13.4818 27.2012 13.4756 27.4118C13.4756 27.6163 13.5809 27.7526 13.7853 27.7773C13.9154 27.7959 14.0455 27.7835 14.1942 27.7835C14.1942 28.2791 14.1942 28.7624 14.1942 29.2456C13.141 29.4562 12.1189 28.6942 11.9888 27.6101C11.8649 26.5755 12.7012 25.6029 13.7482 25.5595C13.8225 25.5533 13.903 25.5595 13.9774 25.5595C18.6732 25.5595 23.3629 25.5595 28.0587 25.5595C28.1455 25.5595 28.226 25.5595 28.3375 25.5595C28.3375 25.7887 28.3375 26.0056 28.3375 26.2162C28.3375 26.8543 28.3375 27.4862 28.3375 28.1181C28.3313 28.7748 27.8605 29.2704 27.2224 29.2704C24.6639 29.2766 22.1115 29.2704 19.5529 29.2704C19.5343 29.2766 19.4972 29.2766 19.4476 29.2704Z" fill="#465987"/>
<path d="M16.8296 29.4323C16.4393 29.8288 16.0676 30.2005 15.6959 30.5722C15.5596 30.7147 15.4171 30.8262 15.2065 30.7395C14.9896 30.6527 14.9648 30.4669 14.9648 30.2624C14.971 29.4509 14.9648 28.6393 14.9648 27.8092C16.1977 27.8092 17.4243 27.8092 18.6695 27.8092C18.6757 27.8588 18.6819 27.9207 18.6819 27.9765C18.6819 28.7509 18.6819 29.5252 18.6819 30.2934C18.6819 30.4855 18.6385 30.6465 18.4465 30.7271C18.2482 30.8076 18.1057 30.7147 17.9756 30.5784C17.6101 30.2067 17.2322 29.835 16.8296 29.4323Z" fill="#465987"/>
<path d="M18.1143 18.12C17.4886 18.12 16.9125 18.12 16.293 18.12C16.5903 17.4448 16.8815 16.7881 17.2036 16.0695C17.5134 16.7757 17.8046 17.4324 18.1143 18.12Z" fill="#465987"/>
<path d="M24.0557 18.12C23.4362 18.12 22.8601 18.12 22.2344 18.12C22.5317 17.4448 22.8229 16.7881 23.1389 16.0695C23.4548 16.7757 23.746 17.4324 24.0557 18.12Z" fill="#465987"/>
<defs>
<filter id="filter0_i_4387_317544" x="0" y="0" width="40" height="40" filterUnits="userSpaceOnUse" color-interpolation-filters="sRGB">
<feFlood flood-opacity="0" result="BackgroundImageFix"/>
<feBlend mode="normal" in="SourceGraphic" in2="BackgroundImageFix" result="shape"/>
<feColorMatrix in="SourceAlpha" type="matrix" values="0 0 0 0 0 0 0 0 0 0 0 0 0 0 0 0 0 0 127 0" result="hardAlpha"/>
<feMorphology radius="1" operator="erode" in="SourceAlpha" result="effect1_innerShadow_4387_317544"/>
<feOffset/>
<feGaussianBlur stdDeviation="2"/>
<feComposite in2="hardAlpha" operator="arithmetic" k2="-1" k3="1"/>
<feColorMatrix type="matrix" values="0 0 0 0 0 0 0 0 0 0 0 0 0 0 0 0 0 0 0.25 0"/>
<feBlend mode="normal" in2="shape" result="effect1_innerShadow_4387_317544"/>
</filter>
</defs>
</svg>
