<svg width="40" height="40" viewBox="0 0 40 40" fill="none" xmlns="http://www.w3.org/2000/svg">
<g filter="url(#filter0_i_4387_317535)">
<circle cx="20" cy="20" r="20" fill="white"/>
</g>
<path d="M32.3068 19.2326C32.3068 19.7454 32.3068 20.2582 32.3068 20.771C32.2933 20.8326 32.2716 20.8938 32.2668 20.9564C32.1214 22.855 31.5773 24.6323 30.5863 26.2564C28.6333 29.4566 25.8131 31.4241 22.1213 32.1194C21.6754 32.2032 21.2219 32.246 20.7721 32.3076C20.2593 32.3076 19.747 32.3076 19.2342 32.3076C19.1566 32.2932 19.0796 32.2754 19.0016 32.2643C18.4873 32.1892 17.9663 32.1463 17.4603 32.037C14.5144 31.3985 12.0957 29.8914 10.2679 27.4992C7.98069 24.5061 7.21171 21.1269 7.97925 17.4404C8.65096 14.2128 10.4061 11.6646 13.1237 9.81509C15.8169 7.98244 18.8066 7.35069 22.0197 7.86447C24.344 8.23571 26.3933 9.22667 28.1494 10.795C30.282 12.6989 31.6158 15.0607 32.118 17.8814C32.1975 18.3283 32.2447 18.7819 32.3068 19.2326ZM21.024 16.8669C21.024 15.8735 21.0268 14.8801 21.0225 13.8868C21.0206 13.4086 20.7765 13.048 20.3681 12.8915C19.6747 12.6262 18.9843 13.127 18.9828 13.9085C18.9785 16.0632 18.9862 18.2185 18.977 20.3733C18.9756 20.77 19.1085 21.0763 19.3887 21.3546C21.0201 22.9744 22.6423 24.6034 24.2684 26.2285C24.3474 26.3075 24.4258 26.3893 24.5144 26.4572C25.0793 26.8887 25.9051 26.62 26.1073 25.9386C26.2349 25.5091 26.0967 25.1567 25.7885 24.8494C24.2631 23.3274 22.7425 21.801 21.2146 20.2818C21.0798 20.1479 21.0177 20.017 21.0196 19.8234C21.0297 18.8377 21.0244 17.8521 21.024 16.8669Z" fill="#20BE60"/>
<defs>
<filter id="filter0_i_4387_317535" x="0" y="0" width="40" height="40" filterUnits="userSpaceOnUse" color-interpolation-filters="sRGB">
<feFlood flood-opacity="0" result="BackgroundImageFix"/>
<feBlend mode="normal" in="SourceGraphic" in2="BackgroundImageFix" result="shape"/>
<feColorMatrix in="SourceAlpha" type="matrix" values="0 0 0 0 0 0 0 0 0 0 0 0 0 0 0 0 0 0 127 0" result="hardAlpha"/>
<feMorphology radius="1" operator="erode" in="SourceAlpha" result="effect1_innerShadow_4387_317535"/>
<feOffset/>
<feGaussianBlur stdDeviation="2"/>
<feComposite in2="hardAlpha" operator="arithmetic" k2="-1" k3="1"/>
<feColorMatrix type="matrix" values="0 0 0 0 0 0 0 0 0 0 0 0 0 0 0 0 0 0 0.25 0"/>
<feBlend mode="normal" in2="shape" result="effect1_innerShadow_4387_317535"/>
</filter>
</defs>
</svg>
