<svg width="40" height="40" viewBox="0 0 40 40" fill="none" xmlns="http://www.w3.org/2000/svg">
<g filter="url(#filter0_i_1_25505)">
<circle cx="20" cy="20" r="20" fill="white"/>
</g>
<path d="M17.2478 31.9948C16.8755 31.823 16.7552 31.5309 16.7667 31.1299C16.7896 30.4025 16.7724 29.6694 16.7724 28.942C16.7724 28.8675 16.7724 28.7873 16.7724 28.6899C16.423 28.6899 16.0965 28.6899 15.7701 28.6899C14.2522 28.6842 13.1239 27.5616 13.1239 26.0438C13.1239 25.1044 13.1296 24.1708 13.1239 23.2315C13.1182 22.7389 13.2785 22.3379 13.6795 22.0401C13.7367 21.9943 13.7654 21.8855 13.7654 21.8053C13.7711 20.969 13.7711 20.1328 13.7711 19.2908C13.7711 19.2106 13.7711 19.1362 13.7711 19.0388C14.195 19.0388 14.6131 19.0388 15.0598 19.0388C15.0598 19.1133 15.0598 19.1877 15.0598 19.2622C15.0598 20.1156 15.0541 20.9633 15.0656 21.8167C15.0656 21.9026 15.1171 22.0115 15.1801 22.063C15.5295 22.3437 15.7013 22.6988 15.7013 23.1398C15.7013 24.0391 15.7013 24.944 15.7013 25.8433C15.7013 25.9235 15.7013 25.9979 15.7013 26.1068C16.0851 26.1068 16.4517 26.1239 16.824 26.101C17.2478 26.0724 17.5743 26.1755 17.9237 26.4561C19.241 27.51 21.0854 27.4069 22.3225 26.2614C22.4485 26.1468 22.5688 26.101 22.7406 26.101C23.2504 26.1125 23.7544 26.1068 24.2928 26.1068C24.2928 26.0208 24.2928 25.9407 24.2928 25.8662C24.2928 24.9669 24.2928 24.062 24.2928 23.1627C24.2928 22.7045 24.4647 22.3322 24.8312 22.0516C24.8885 22.0057 24.9286 21.8969 24.9286 21.8225C24.9343 20.9805 24.9343 20.1328 24.9343 19.2908C24.9343 19.2106 24.9343 19.1362 24.9343 19.0445C25.3639 19.0445 25.782 19.0445 26.2231 19.0445C26.2231 19.1247 26.2231 19.1992 26.2231 19.2736C26.2231 20.1156 26.2231 20.9633 26.2231 21.8053C26.2231 21.9313 26.2574 22.0115 26.3605 22.0917C26.6927 22.3379 26.8646 22.6759 26.8646 23.0883C26.8703 24.1307 26.8818 25.1789 26.8646 26.2213C26.8359 27.5501 25.7019 28.6613 24.373 28.6899C23.995 28.6957 23.617 28.6899 23.2218 28.6899C23.2218 29.0565 23.2218 29.3944 23.2218 29.7381C23.2218 30.202 23.2046 30.6717 23.2275 31.1357C23.2447 31.5366 23.1187 31.8287 22.7521 32.0005C20.9135 31.9948 19.0807 31.9948 17.2478 31.9948Z" fill="#F6830F"/>
<path d="M9.4754 10C9.25775 10.1031 9.1031 10.2577 9 10.4754C9 10.315 9 10.1604 9 10C9.16037 10 9.31502 10 9.4754 10Z" fill="#F6830F"/>
<path d="M30.9943 10.4754C30.8912 10.2635 30.7366 10.1031 30.5189 10C30.6793 10 30.834 10 30.9943 10C30.9943 10.1604 30.9943 10.315 30.9943 10.4754Z" fill="#F6830F"/>
<path d="M22.145 23.7359C22.1507 24.9158 21.1942 25.8838 20.0143 25.8952C18.823 25.901 17.8493 24.933 17.855 23.7474C17.855 22.5675 18.8172 21.6052 19.9971 21.5995C21.177 21.5995 22.1393 22.556 22.145 23.7359Z" fill="#F6830F"/>
<path fill-rule="evenodd" clip-rule="evenodd" d="M30.9943 17.2627C30.8224 17.635 30.5303 17.7438 30.1294 17.7381C23.3765 17.7324 16.6178 17.7324 9.86488 17.7381C9.46394 17.7381 9.17183 17.6293 9 17.257V10.4697C9.1031 10.2577 9.25775 10.1031 9.4754 10H30.5246C30.7365 10.1031 30.8969 10.2577 31 10.4754C30.9943 12.7378 30.9943 15.0003 30.9943 17.2627ZM17.5916 13.8668C17.5916 13.7073 17.6776 13.5673 17.8128 13.495C17.8745 13.4595 17.947 13.4385 18.0268 13.4366C18.3247 13.4309 18.6282 13.4309 18.9261 13.4366C19.1838 13.4481 19.3442 13.6199 19.3556 13.8776C19.3917 14.6841 18.9564 15.3807 18.3062 15.6636C18.1266 15.7441 17.9305 15.7927 17.7233 15.8027C16.6866 15.8543 15.7587 15.0524 15.6957 14.0501C15.6442 13.2482 15.9592 12.6181 16.6465 12.2115C16.6673 12.1992 16.688 12.1873 16.7088 12.1759C17.3514 11.8171 18.0094 11.8486 18.6511 12.2281C18.8401 12.3426 18.9261 12.503 18.8802 12.7149C18.8561 12.8286 18.7989 12.9194 18.7172 12.9751C18.6617 13.0159 18.5933 13.0396 18.5137 13.042C18.3877 13.0477 18.2503 12.9904 18.1357 12.9332C17.7839 12.751 17.4012 12.7669 17.0979 12.9327C16.8535 13.0702 16.6624 13.3059 16.5834 13.6142C16.4059 14.3187 17.0016 15.0117 17.7232 14.9373C18.0667 14.9029 18.3187 14.6797 18.4161 14.2963C18.3674 14.2963 18.3199 14.297 18.2736 14.2977H18.2736H18.2736H18.2736H18.2736H18.2736C18.1839 14.2989 18.0984 14.3001 18.0154 14.2963C17.7691 14.2849 17.5916 14.0959 17.5916 13.8668ZM12.3045 14.7641L12.3045 14.7641L12.3045 14.7642L12.3045 14.7642C12.3411 14.8026 12.3688 14.8316 12.3965 14.8628C12.4764 14.9525 12.555 15.0421 12.6334 15.1316L12.6335 15.1316C12.7854 15.305 12.9366 15.4775 13.0953 15.6475C13.1033 15.6563 13.1115 15.6648 13.1199 15.673C13.2342 15.7955 13.399 15.8614 13.5478 15.7787C13.6738 15.71 13.8055 15.5725 13.8342 15.4465C13.8571 15.3262 13.7826 15.1544 13.6967 15.0456C13.6068 14.9299 13.5111 14.8178 13.4128 14.7065C13.3174 14.5975 13.2191 14.4894 13.1192 14.3797C13.094 14.3517 13.0688 14.3235 13.0438 14.2952C13.0896 14.2666 13.1125 14.2551 13.1354 14.2437L13.1354 14.2437C13.6013 13.9965 13.8541 13.5994 13.848 13.1473C13.8475 13.0513 13.8353 12.9527 13.8112 12.8524C13.6795 12.3083 13.1755 11.936 12.5626 11.9302C12.4827 11.9302 12.4021 11.9296 12.3213 11.929L12.3212 11.929C12.1589 11.9277 11.9958 11.9264 11.8352 11.9302C11.5374 11.936 11.3655 12.1021 11.3655 12.3942C11.3617 13.054 11.3604 13.7139 11.3618 14.3738C11.3624 14.697 11.3637 15.0202 11.3656 15.3434C11.3656 15.6183 11.5488 15.8016 11.7951 15.8016C12.0414 15.7959 12.2132 15.6069 12.219 15.3319C12.2227 15.202 12.2216 15.072 12.2204 14.9264C12.2197 14.8476 12.219 14.7642 12.219 14.6738C12.2528 14.7099 12.2805 14.7389 12.3044 14.764L12.3044 14.764L12.3045 14.7641ZM19.8597 12.5374C19.8597 12.2321 19.9476 12.0429 20.1208 11.9726C20.1686 11.9533 20.2228 11.9429 20.2835 11.9417C20.3125 11.9411 20.3401 11.9427 20.3663 11.9465C20.6022 11.9781 20.7245 12.1862 20.7245 12.5495V13.3793H21.9388C21.9388 13.3147 21.9382 13.2494 21.9376 13.184V13.1839V13.1839V13.1838V13.1838V13.1837V13.1837V13.1837V13.1837V13.1837V13.1836C21.9363 13.0519 21.935 12.9194 21.9388 12.7894C21.9405 12.7402 21.9412 12.6906 21.9419 12.6409V12.6409C21.9436 12.5169 21.9454 12.3925 21.9617 12.2739C21.9961 12.062 22.1908 11.9245 22.397 11.936C22.4056 11.9364 22.4141 11.9372 22.4225 11.9382C22.6137 11.9576 22.7647 12.0981 22.7979 12.2974C22.8094 12.3604 22.8094 12.4234 22.8094 12.4922V15.2586C22.8094 15.2987 22.8094 15.3446 22.8036 15.3847C22.7807 15.6252 22.6203 15.7913 22.3912 15.797C22.3825 15.7973 22.3739 15.7972 22.3653 15.797C22.1451 15.7979 21.9614 15.6343 21.9503 15.3897C21.9417 15.1837 21.9428 14.9744 21.9438 14.7643V14.7642V14.7642V14.7642V14.7642V14.7642C21.9442 14.694 21.9445 14.6237 21.9445 14.5535V14.3322L21.9445 14.2563H20.7245V15.1097C20.7245 15.1384 20.7251 15.167 20.7258 15.1956C20.727 15.2529 20.7283 15.3102 20.7245 15.3675C20.713 15.6252 20.524 15.8085 20.2834 15.8028C20.2692 15.8024 20.2552 15.8014 20.2414 15.7998C20.0296 15.7772 19.8651 15.6057 19.8597 15.3726C19.8559 15.1094 19.8571 14.8487 19.8584 14.5872V14.5872V14.5872V14.5871V14.5871V14.587C19.859 14.4559 19.8597 14.3246 19.8597 14.1927V12.5374ZM27.0558 12.8904C27.0222 12.9289 26.9964 12.9833 26.9964 13.0236C26.9964 13.0809 27.0708 13.1554 27.1281 13.184C27.2785 13.2548 27.4323 13.3153 27.587 13.3762C27.6325 13.3941 27.6781 13.412 27.7238 13.4303C27.7495 13.4417 27.7767 13.4518 27.804 13.4618C27.8312 13.4718 27.8584 13.4818 27.8841 13.4933C28.5256 13.7568 28.8578 14.2551 28.749 14.7877C28.7113 14.9697 28.6349 15.1342 28.5264 15.275C28.2752 15.6036 27.8456 15.8045 27.3228 15.7964C26.9047 15.7792 26.4694 15.6188 26.1143 15.2752C25.9228 15.0837 25.8985 14.8452 26.0365 14.6694C26.0447 14.659 26.0534 14.6488 26.0627 14.6388C26.2346 14.4498 26.4923 14.4498 26.71 14.6446C26.9104 14.8278 27.1395 14.9309 27.403 14.9309C27.5004 14.9309 27.6149 14.9138 27.6894 14.8622C27.7137 14.846 27.7393 14.8262 27.7637 14.804C27.8216 14.7486 27.8705 14.6798 27.8784 14.6165C27.8841 14.542 27.781 14.4218 27.7009 14.3817C27.5252 14.2939 27.3445 14.2213 27.1638 14.1488L27.1637 14.1487C27.0734 14.1125 26.983 14.0762 26.8933 14.038C26.2804 13.7803 26.0341 13.3851 26.1315 12.8352C26.1591 12.6831 26.2228 12.5424 26.3143 12.4196C26.5239 12.1318 26.885 11.94 27.2999 11.9239C27.7352 11.9067 28.119 12.0499 28.4626 12.3019C28.6746 12.4566 28.7204 12.7086 28.5829 12.9033C28.5712 12.9204 28.5588 12.9362 28.5457 12.9508C28.4056 13.1142 28.1878 13.1349 27.9701 13.0128C27.8269 12.9268 27.6665 12.8409 27.5061 12.8066C27.3801 12.7779 27.2369 12.8123 27.1109 12.8524C27.0924 12.8579 27.0732 12.8719 27.0558 12.8904ZM24.8772 12.7894V13.2061C24.8775 13.8704 24.8791 14.5146 24.8886 15.1549V15.1549C24.8886 15.2408 24.8886 15.3267 24.8771 15.4127C24.8427 15.6475 24.6595 15.8079 24.4361 15.7964C24.426 15.7959 24.416 15.7951 24.4062 15.794C24.1916 15.7746 24.0236 15.6111 24.018 15.3772C24.0094 14.9819 24.0105 14.5833 24.0116 14.1864V14.1862C24.0119 14.0541 24.0123 13.9222 24.0123 13.7906V12.7894C23.9627 12.7895 23.9161 12.7901 23.8714 12.7907L23.8713 12.7907C23.7813 12.792 23.6991 12.7931 23.617 12.7894C23.6066 12.7889 23.5963 12.7881 23.5861 12.787C23.35 12.767 23.1818 12.5874 23.1818 12.3644C23.1818 12.1353 23.3593 11.9406 23.5999 11.9349C24.1555 11.9291 24.7168 11.9291 25.2724 11.9349C25.2861 11.9352 25.2997 11.9361 25.313 11.9375C25.544 11.9569 25.7076 12.1399 25.7076 12.3598C25.7076 12.5889 25.5358 12.7722 25.2895 12.7894C25.2072 12.7931 25.1224 12.792 25.0304 12.7907H25.0304C24.9816 12.7901 24.9308 12.7894 24.8772 12.7894ZM14.3267 13.8605V15.2981C14.3267 15.6074 14.4986 15.8021 14.762 15.8021C15.0116 15.7965 15.1826 15.611 15.1858 15.3181C15.1859 15.3153 15.1859 15.3124 15.1859 15.3096V12.4171C15.1859 12.125 15.0026 11.936 14.7506 11.936C14.5204 11.936 14.3571 12.0984 14.3306 12.3491M14.3267 13.8605V12.4228ZM14.3267 12.4228C14.3267 12.3975 14.328 12.3729 14.3306 12.3491Z" fill="#F6830F"/>
<path d="M12.2303 13.4939C12.2303 13.2476 12.2303 13.0357 12.2303 12.7951C12.4766 12.8066 12.7458 12.7092 12.9119 12.9612C12.9692 13.0472 12.9749 13.2247 12.9234 13.3106C12.7687 13.5741 12.4938 13.4767 12.2303 13.4939Z" fill="#F6830F"/>
<defs>
<filter id="filter0_i_1_25505" x="0" y="0" width="40" height="40" filterUnits="userSpaceOnUse" color-interpolation-filters="sRGB">
<feFlood flood-opacity="0" result="BackgroundImageFix"/>
<feBlend mode="normal" in="SourceGraphic" in2="BackgroundImageFix" result="shape"/>
<feColorMatrix in="SourceAlpha" type="matrix" values="0 0 0 0 0 0 0 0 0 0 0 0 0 0 0 0 0 0 127 0" result="hardAlpha"/>
<feMorphology radius="1" operator="erode" in="SourceAlpha" result="effect1_innerShadow_1_25505"/>
<feOffset/>
<feGaussianBlur stdDeviation="2"/>
<feComposite in2="hardAlpha" operator="arithmetic" k2="-1" k3="1"/>
<feColorMatrix type="matrix" values="0 0 0 0 0 0 0 0 0 0 0 0 0 0 0 0 0 0 0.25 0"/>
<feBlend mode="normal" in2="shape" result="effect1_innerShadow_1_25505"/>
</filter>
</defs>
</svg>
