<svg width="40" height="40" viewBox="0 0 40 40" fill="none" xmlns="http://www.w3.org/2000/svg">
<g filter="url(#filter0_i_4387_317498)">
<circle cx="20" cy="20" r="20" fill="white"/>
</g>
<path d="M14.9895 10.4507C14.1692 10.0594 13.3657 9.63877 12.5538 9.23071C12.4402 9.23071 12.3308 9.23071 12.2172 9.23071C11.4222 9.63456 10.6271 10.0426 9.82362 10.4338C9.57542 10.5558 9.35667 10.6989 9.23047 10.9555C9.23047 11.9104 9.23047 12.8611 9.23047 13.816C9.35667 14.0727 9.57542 14.2199 9.82782 14.3377C10.421 14.6195 11.0057 14.9266 11.5947 15.2169C11.7082 15.2716 11.7587 15.3305 11.7587 15.4693C11.7503 15.9531 11.7503 16.4368 11.7587 16.9206C11.7629 17.0552 11.7082 17.1183 11.5947 17.173C11.0057 17.4633 10.421 17.7662 9.82782 18.0522C9.57542 18.1658 9.35667 18.313 9.23047 18.5697C9.23047 19.5246 9.23047 20.4753 9.23047 21.4302C9.35667 21.6868 9.57542 21.8341 9.82782 21.9519C10.421 22.2337 11.0057 22.5408 11.5947 22.8311C11.7082 22.8858 11.7587 22.9447 11.7587 23.0835C11.7503 23.5673 11.7503 24.051 11.7587 24.5348C11.7629 24.6694 11.7082 24.7325 11.5947 24.7872C11.0057 25.0775 10.421 25.3804 9.82782 25.6664C9.57542 25.78 9.35667 25.9272 9.23047 26.1838C9.23047 27.1388 9.23047 28.0895 9.23047 29.0444C9.35667 29.301 9.57542 29.4441 9.82362 29.566C10.6229 29.9573 11.418 30.3653 12.2172 30.7692C12.3308 30.7692 12.4402 30.7692 12.5538 30.7692C13.4035 30.3401 14.2491 29.911 15.0989 29.4903C15.4017 29.3389 15.5448 29.1117 15.5406 28.771C15.5322 28.0054 15.5322 27.2439 15.5406 26.4783C15.5448 26.1207 15.3975 25.8852 15.0778 25.7295C14.4342 25.4182 13.799 25.0901 13.1596 24.7746C13.0502 24.7199 13.0081 24.661 13.0123 24.5348C13.0207 24.051 13.0207 23.5673 13.0123 23.0835C13.0081 22.9531 13.0544 22.8858 13.1722 22.8311C13.8116 22.5198 14.451 22.1917 15.0904 21.8804C15.4017 21.7289 15.549 21.4933 15.5448 21.1442C15.5364 20.387 15.5322 19.6298 15.5448 18.8725C15.549 18.5066 15.4017 18.2668 15.0736 18.1069C14.4384 17.7998 13.8074 17.4759 13.1722 17.1646C13.0544 17.1057 13.0123 17.0426 13.0123 16.9122C13.0207 16.4284 13.0207 15.9447 13.0123 15.4609C13.0123 15.3389 13.0544 15.2758 13.1596 15.2211C13.8074 14.9014 14.4468 14.5733 15.0947 14.2578C15.3975 14.1105 15.5406 13.8792 15.5406 13.5384C15.5322 12.8106 15.5195 12.0787 15.5448 11.3509C15.5616 10.9092 15.3891 10.64 14.9895 10.4507ZM13.0123 27.6099C13.0165 27.9549 12.7305 28.2409 12.3855 28.2451C12.0406 28.2493 11.7545 27.9633 11.7545 27.6183C11.7545 27.2734 12.0364 26.9873 12.3813 26.9831C12.7263 26.9831 13.0123 27.265 13.0123 27.6099ZM13.0123 19.9957C13.0165 20.3407 12.7305 20.6267 12.3897 20.631C12.0448 20.6352 11.7587 20.3533 11.7545 20.0084C11.7503 19.6634 12.0322 19.3773 12.3771 19.3731C12.7221 19.3689 13.0123 19.6508 13.0123 19.9957ZM12.3771 13.0168C12.0322 13.0126 11.7503 12.7223 11.7587 12.3773C11.7629 12.0324 12.0532 11.7505 12.3981 11.759C12.7431 11.7632 13.0249 12.0534 13.0207 12.3984C13.0081 12.7391 12.7178 13.021 12.3771 13.0168Z" fill="#EC9E29"/>
<path d="M29.9216 10.4882C25.8116 10.4966 21.7058 10.4924 17.6001 10.4924C17.0953 10.4924 16.8008 10.7237 16.8008 11.1234C16.8008 11.523 17.0953 11.7544 17.6001 11.7544C21.7058 11.7544 25.8116 11.7502 29.9216 11.7586C30.3128 11.7586 30.6031 11.6534 30.7671 11.2916C30.7671 11.1781 30.7671 11.0687 30.7671 10.9551C30.5989 10.5891 30.3086 10.484 29.9216 10.4882Z" fill="#EC9E29"/>
<path d="M29.9216 18.1023C25.8158 18.1107 21.71 18.1065 17.6001 18.1065C17.0953 18.1065 16.8008 18.3379 16.8008 18.7375C16.8008 19.1371 17.0953 19.3685 17.6001 19.3685C21.7058 19.3685 25.8116 19.3643 29.9216 19.3727C30.3128 19.3727 30.6031 19.2676 30.7671 18.9058C30.7671 18.7922 30.7671 18.6828 30.7671 18.5692C30.5989 18.2033 30.3086 18.0981 29.9216 18.1023Z" fill="#EC9E29"/>
<path d="M29.9216 25.7166C25.8158 25.725 21.71 25.7208 17.6001 25.7208C17.0953 25.7208 16.8008 25.9521 16.8008 26.3518C16.8008 26.7514 17.0953 26.9828 17.6001 26.9828C21.7058 26.9828 25.8116 26.9786 29.9216 26.987C30.3128 26.987 30.6031 26.8818 30.7671 26.52C30.7671 26.4065 30.7671 26.2971 30.7671 26.1835C30.5989 25.8175 30.3086 25.7123 29.9216 25.7166Z" fill="#EC9E29"/>
<path d="M17.476 14.2792C18.5193 14.2834 19.5668 14.2792 20.61 14.2792C21.6491 14.2792 22.684 14.2792 23.723 14.2792C24.0427 14.2792 24.2741 14.132 24.3709 13.8754C24.5391 13.4421 24.2236 13.0214 23.723 13.0214C22.0824 13.0172 20.4418 13.0214 18.8012 13.0214C18.351 13.0214 17.9051 13.0172 17.455 13.0214C17.1647 13.0256 16.9418 13.177 16.8492 13.4252C16.6852 13.8501 16.9923 14.275 17.476 14.2792Z" fill="#EC9E29"/>
<path d="M17.476 16.6441C18.5193 16.6483 19.5668 16.6441 20.61 16.6441C21.6491 16.6441 22.684 16.6441 23.723 16.6441C24.0427 16.6441 24.2741 16.4968 24.3709 16.2402C24.5391 15.8069 24.2236 15.3863 23.723 15.3863C22.0824 15.3821 20.4418 15.3863 18.8012 15.3863C18.351 15.3863 17.9051 15.3821 17.455 15.3863C17.1647 15.3905 16.9418 15.5419 16.8492 15.7901C16.6852 16.215 16.9923 16.6399 17.476 16.6441Z" fill="#EC9E29"/>
<path d="M17.4798 21.8932C18.5189 21.8974 19.5537 21.8932 20.5928 21.8932C21.0135 21.8932 21.4341 21.8932 21.8548 21.8932C22.4984 21.8932 23.1463 21.8974 23.7899 21.889C24.1517 21.8847 24.4167 21.5987 24.4125 21.2537C24.4083 20.9172 24.1475 20.6522 23.7983 20.6311C23.7268 20.6269 23.6595 20.6311 23.588 20.6311C21.7454 20.6311 19.8987 20.6311 18.0561 20.6311C17.8458 20.6311 17.6354 20.6269 17.4251 20.6353C17.1475 20.648 16.9455 20.7826 16.8446 21.0434C16.6805 21.4683 16.996 21.889 17.4798 21.8932Z" fill="#EC9E29"/>
<path d="M17.4798 24.3405C18.5189 24.3448 19.5537 24.3405 20.5928 24.3405C21.0135 24.3405 21.4341 24.3405 21.8548 24.3405C22.4984 24.3405 23.1463 24.3448 23.7899 24.3363C24.1517 24.3321 24.4167 24.0461 24.4125 23.7011C24.4083 23.3646 24.1475 23.0996 23.7983 23.0785C23.7268 23.0743 23.6595 23.0785 23.588 23.0785C21.7454 23.0785 19.8987 23.0785 18.0561 23.0785C17.8458 23.0785 17.6354 23.0743 17.4251 23.0827C17.1475 23.0954 16.9455 23.23 16.8446 23.4908C16.6805 23.9157 16.996 24.3363 17.4798 24.3405Z" fill="#EC9E29"/>
<path d="M23.7474 28.2453C22.7041 28.2411 21.6566 28.2453 20.6134 28.2453C19.5743 28.2453 18.5394 28.2453 17.5004 28.2453C17.1765 28.2453 16.9493 28.3883 16.8483 28.6449C16.6759 29.0782 16.9914 29.5031 17.492 29.5073C18.8676 29.5115 20.239 29.5073 21.6146 29.5073C22.3213 29.5073 23.0322 29.5073 23.739 29.5073C24.025 29.5073 24.2438 29.3895 24.3616 29.1245C24.5509 28.7038 24.2396 28.2495 23.7474 28.2453Z" fill="#EC9E29"/>
<defs>
<filter id="filter0_i_4387_317498" x="0" y="0" width="40" height="40" filterUnits="userSpaceOnUse" color-interpolation-filters="sRGB">
<feFlood flood-opacity="0" result="BackgroundImageFix"/>
<feBlend mode="normal" in="SourceGraphic" in2="BackgroundImageFix" result="shape"/>
<feColorMatrix in="SourceAlpha" type="matrix" values="0 0 0 0 0 0 0 0 0 0 0 0 0 0 0 0 0 0 127 0" result="hardAlpha"/>
<feMorphology radius="1" operator="erode" in="SourceAlpha" result="effect1_innerShadow_4387_317498"/>
<feOffset/>
<feGaussianBlur stdDeviation="2"/>
<feComposite in2="hardAlpha" operator="arithmetic" k2="-1" k3="1"/>
<feColorMatrix type="matrix" values="0 0 0 0 0 0 0 0 0 0 0 0 0 0 0 0 0 0 0.25 0"/>
<feBlend mode="normal" in2="shape" result="effect1_innerShadow_4387_317498"/>
</filter>
</defs>
</svg>
