<svg width="60" height="62" viewBox="0 0 60 62" fill="none" xmlns="http://www.w3.org/2000/svg">
<path d="M36.7663 5.77991L34.5463 7.9999L32.3263 10.2199L30.5997 13.6732V17.1265V22.3065V25.2665L28.133 28.7198L24.9264 30.1998H19.9931H16.0464L11.6064 31.4331L8.64643 33.1598L5.93311 36.3665L24.9264 53.3864C21.2264 53.3864 25.5184 55.2611 22.953 53.8797L24.9264 54.3731L28.133 51.6597L30.5997 47.7131V42.7798V37.8465V33.1598L33.5597 30.9398H36.7663H40.713H45.153L48.6063 30.1998L52.0596 27.4865L55.5129 24.0332L36.7663 5.77991Z" stroke="#F6830F" stroke-width="3.5"/>
<path d="M35.8143 6.67331C34.0383 3.71332 35.7321 1.65778 36.801 1L59.0002 23.4466L58.5069 23.9399C58.0136 23.9399 56.5336 25.6666 53.0803 23.9399L35.8143 6.67331Z" fill="#F6830F" stroke="#F6830F"/>
<path d="M25.0309 52.597C26.948 55.4677 25.3556 57.6027 24.3198 58.3114L1.06096 36.9647L1.52986 36.4481C2.02261 36.4242 3.41737 34.628 6.95016 36.1857L25.0309 52.597Z" fill="#F6830F" stroke="#F6830F"/>
<path d="M30.3899 5.37896L16.2672 2.3987L20.7476 16.1195L30.3899 5.37896ZM6.14628 29.7766C7.74876 24.3512 12.4478 14.9208 20.363 9.92817L19.0292 7.81368C10.3993 13.2572 5.44113 23.3384 3.74868 29.0684L6.14628 29.7766Z" fill="#F6830F"/>
<path d="M31.5652 56.1448L45.5386 59.7614L41.684 45.8518L31.5652 56.1448ZM56.8886 32.8698C55.0421 38.2171 49.921 47.425 41.7879 52.0542L43.0245 54.2269C51.8921 49.1797 57.3015 39.3333 59.2517 33.6857L56.8886 32.8698Z" fill="#F6830F"/>
</svg>
