<svg width="18" height="24" viewBox="0 0 18 24" fill="none" xmlns="http://www.w3.org/2000/svg">
<path d="M9 15.1579C11.1534 15.1579 12.8787 13.4653 12.8787 11.3684L12.8916 3.78947C12.8916 1.69263 11.1534 0 9 0C6.84663 0 5.10837 1.69263 5.10837 3.78947V11.3684C5.10837 13.4653 6.84663 15.1579 9 15.1579ZM16.887 11.3684C16.3422 11.3684 15.8882 11.7474 15.8103 12.2653C15.3304 15.5621 12.2819 17.8105 9 17.8105C5.71806 17.8105 2.66962 15.5747 2.18965 12.2653C2.11182 11.7474 1.64482 11.3684 1.11297 11.3684C0.438418 11.3684 -0.0804658 11.9495 0.0103388 12.5937C0.607055 16.3453 3.85008 19.2884 7.70279 19.8568V22.7368C7.70279 23.4316 8.28653 24 9 24C9.71346 24 10.2972 23.4316 10.2972 22.7368V19.8568C14.1369 19.3137 17.3929 16.3453 17.9897 12.5937C18.0805 11.9495 17.5616 11.3684 16.887 11.3684Z" fill="#343A40"/>
</svg>
