<svg width="50" height="50" viewBox="0 0 50 50" fill="none" xmlns="http://www.w3.org/2000/svg">
<circle cx="25" cy="25" r="25" fill="white"/>
<path d="M25.5 9.9C21.3626 9.9 17.3947 11.5436 14.4691 14.4691C11.5436 17.3947 9.9 21.3626 9.9 25.5C9.9 29.6374 11.5436 33.6053 14.4691 36.5309C17.3947 39.4564 21.3626 41.1 25.5 41.1C29.6374 41.1 33.6053 39.4564 36.5309 36.5309C39.4564 33.6053 41.1 29.6374 41.1 25.5C41.1 21.3626 39.4564 17.3947 36.5309 14.4691C33.6053 11.5436 29.6374 9.9 25.5 9.9ZM6 25.5C6 14.7302 14.7302 6 25.5 6C36.2698 6 45 14.7302 45 25.5C45 36.2698 36.2698 45 25.5 45C14.7302 45 6 36.2698 6 25.5Z" fill="#038703"/>
<path d="M32.7284 20.2194C33.094 20.5851 33.2993 21.081 33.2993 21.598C33.2993 22.1151 33.094 22.611 32.7284 22.9767L24.9284 30.7767C24.5627 31.1422 24.0668 31.3476 23.5497 31.3476C23.0327 31.3476 22.5368 31.1422 22.1711 30.7767L18.2711 26.8767C18.0848 26.6968 17.9363 26.4816 17.8341 26.2437C17.7319 26.0058 17.6781 25.7499 17.6759 25.491C17.6736 25.2321 17.7229 24.9753 17.821 24.7357C17.919 24.496 18.0638 24.2783 18.2469 24.0952C18.43 23.9121 18.6477 23.7673 18.8874 23.6693C19.127 23.5712 19.3838 23.5219 19.6427 23.5241C19.9016 23.5264 20.1575 23.5802 20.3954 23.6824C20.6333 23.7846 20.8485 23.9331 21.0284 24.1194L23.5497 26.6407L29.9711 20.2194C30.3368 19.8538 30.8327 19.6484 31.3497 19.6484C31.8668 19.6484 32.3627 19.8538 32.7284 20.2194Z" fill="#038703"/>
</svg>
