<svg width="50" height="50" viewBox="0 0 50 50" fill="none" xmlns="http://www.w3.org/2000/svg">
<circle cx="25" cy="25" r="25" fill="white"/>
<path fill-rule="evenodd" clip-rule="evenodd" d="M17.7526 17.7526C18.5685 16.9366 19.8913 16.9366 20.7073 17.7526L25.4978 22.5431L30.2883 17.7526C31.1042 16.9366 32.4271 16.9366 33.243 17.7526C34.0589 18.5685 34.0589 19.8913 33.243 20.7073L28.4525 25.4978L33.243 30.2883C34.0589 31.1042 34.0589 32.4271 33.243 33.243C32.4271 34.0589 31.1042 34.0589 30.2883 33.243L25.4978 28.4525L20.7073 33.243C19.8913 34.0589 18.5685 34.0589 17.7526 33.243C16.9366 32.4271 16.9366 31.1042 17.7526 30.2883L22.5431 25.4978L17.7526 20.7073C16.9366 19.8913 16.9366 18.5685 17.7526 17.7526Z" fill="#C82333"/>
<path d="M25.5 9.9C21.3626 9.9 17.3947 11.5436 14.4691 14.4691C11.5436 17.3947 9.9 21.3626 9.9 25.5C9.9 29.6374 11.5436 33.6053 14.4691 36.5309C17.3947 39.4564 21.3626 41.1 25.5 41.1C29.6374 41.1 33.6053 39.4564 36.5309 36.5309C39.4564 33.6053 41.1 29.6374 41.1 25.5C41.1 21.3626 39.4564 17.3947 36.5309 14.4691C33.6053 11.5436 29.6374 9.9 25.5 9.9ZM6 25.5C6 14.7302 14.7302 6 25.5 6C36.2698 6 45 14.7302 45 25.5C45 36.2698 36.2698 45 25.5 45C14.7302 45 6 36.2698 6 25.5Z" fill="#C82333"/>
</svg>
