<svg width="50" height="50" viewBox="0 0 50 50" fill="none" xmlns="http://www.w3.org/2000/svg">
<circle cx="25" cy="25" r="25" fill="white"/>
<path d="M36 14.6944V10.2332C36 8.7341 31.2975 6 25.5 6C19.7006 6 15 8.7341 15 10.2332V14.6944C15 18.7623 22.2694 22.1196 22.2694 25C22.2694 27.8766 15 31.2339 15 35.3018V39.7668C15 41.264 19.7006 44 25.5 44C31.2975 44 36 41.264 36 39.7649V35.2999C36 31.232 28.7306 27.8747 28.7306 24.9981C28.7306 22.1196 36 18.7623 36 14.6944ZM17.8894 10.4232C19.1944 9.5891 21.6394 8.3674 25.6031 8.3674C29.565 8.3674 33.1144 10.4232 33.1144 10.4232C33.3806 10.5866 34.4231 11.1509 33.7087 11.5803C32.1375 12.5246 29.0625 13.5183 25.5 13.5183C21.9375 13.5183 18.9675 12.4239 17.3925 11.4777C16.6781 11.0502 17.8894 10.4232 17.8894 10.4232ZM26.4394 25C26.4394 27.2667 28.3069 28.7259 30.285 30.6734C31.7306 32.0946 33.7087 34.0421 33.7087 35.2999V37.8231C31.89 36.9054 26.4487 36.0086 26.4487 33.0655C26.4487 31.5778 24.5494 31.5778 24.5494 33.0655C24.5494 36.0086 19.1081 36.9054 17.2894 37.8231V35.2999C17.2894 34.0421 19.2694 32.0927 20.7131 30.6734C22.6912 28.7259 24.5587 27.2667 24.5587 25C24.5587 22.7333 22.6912 21.2741 20.7131 19.3266C19.2675 17.9016 17.2894 15.9541 17.2894 14.6944L17.2031 12.7982C19.1269 13.8489 22.1756 14.8464 25.5 14.8464C28.8225 14.8464 31.8862 13.8489 33.8119 12.7982L33.7087 14.6944C33.7087 15.9522 31.7288 17.9016 30.285 19.3266C28.3088 21.2741 26.4394 22.7333 26.4394 25Z" fill="#F6830F"/>
</svg>
