<svg width="37" height="37" viewBox="0 0 37 37" fill="none" xmlns="http://www.w3.org/2000/svg">
<circle cx="18.5" cy="18.5" r="18.5" fill="#C82333"/>
<path d="M27.4933 10.5045C27.5722 10.5573 27.6369 10.6287 27.6816 10.7124C27.7264 10.796 27.7499 10.8895 27.75 10.9844V19.6562C27.75 19.7717 27.7154 19.8845 27.6507 19.9801C27.586 20.0757 27.4941 20.1498 27.3869 20.1927L27.1719 19.6562L27.3869 20.1927L27.3835 20.1939L27.3765 20.1974L27.3499 20.2078C27.1979 20.2682 27.0449 20.326 26.8909 20.3812C26.5857 20.4911 26.1613 20.6391 25.6803 20.7859C24.7368 21.0773 23.5077 21.3906 22.5469 21.3906C21.5675 21.3906 20.757 21.0669 20.0517 20.7836L20.0193 20.772C19.2863 20.4772 18.6619 20.2344 17.9219 20.2344C17.1125 20.2344 16.0279 20.5003 15.1041 20.7859C14.6905 20.9148 14.2806 21.0556 13.875 21.2079V28.3281C13.875 28.4815 13.8141 28.6285 13.7057 28.7369C13.5973 28.8453 13.4502 28.9062 13.2969 28.9062C13.1435 28.9062 12.9965 28.8453 12.8881 28.7369C12.7797 28.6285 12.7188 28.4815 12.7188 28.3281V10.9844C12.7188 10.831 12.7797 10.684 12.8881 10.5756C12.9965 10.4672 13.1435 10.4062 13.2969 10.4062C13.4502 10.4062 13.5973 10.4672 13.7057 10.5756C13.8141 10.684 13.875 10.831 13.875 10.9844V11.3104C14.1363 11.2191 14.4485 11.1139 14.7884 11.0098C15.7319 10.7208 16.9622 10.4062 17.9219 10.4062C18.8931 10.4062 19.684 10.7265 20.3743 11.0063L20.424 11.0272C21.1432 11.3174 21.7699 11.5625 22.5469 11.5625C23.3562 11.5625 24.4408 11.2966 25.3647 11.011C25.8911 10.8466 26.4114 10.663 26.9244 10.4606L26.9464 10.4525L26.951 10.4502H26.9522" fill="white"/>
</svg>
