<svg width="53" height="53" viewBox="0 0 53 53" fill="none" xmlns="http://www.w3.org/2000/svg">
<rect width="53" height="53" rx="26.5" fill="white"/>
<path d="M11.502 37.6016V12.9629C11.6931 12.4548 12.0335 12.1143 12.576 12H32.2486C32.9788 12.2508 33.2276 12.7768 33.2182 13.5287C33.1929 15.5484 33.2097 17.5686 33.2094 19.5886C33.2094 19.9001 33.2201 20.2122 33.2032 20.5231C33.1956 20.6907 33.1526 20.8548 33.0771 21.0046C33.0015 21.1544 32.8952 21.2865 32.7649 21.3922C32.6347 21.498 32.4836 21.575 32.3215 21.6183C32.1595 21.6615 31.9901 21.6699 31.8245 21.6431C31.1809 21.5456 30.7955 21.0495 30.7943 20.2998C30.7916 18.459 30.7913 16.6184 30.7934 14.7779V14.4364H21.1709C21.2417 14.4956 21.3252 14.5378 21.4149 14.5597C22.576 14.9114 23.7373 15.2627 24.8987 15.6136C25.7134 15.8598 25.9736 16.2126 25.9736 17.0739C25.9736 23.3132 25.9736 29.5525 25.9736 35.7918V36.1485H30.7933V35.7899C30.7933 33.9585 30.7935 32.1273 30.794 30.2963C30.7946 29.6426 31.0625 29.1982 31.5646 29.002C32.3781 28.6841 33.2049 29.2728 33.2072 30.1875C33.2132 32.5098 33.2095 34.8316 33.2093 37.1537C33.2093 38.1219 32.7581 38.5785 31.7978 38.579C29.9702 38.5801 28.1426 38.5801 26.315 38.579H25.9736C25.9736 38.9055 25.9569 39.1894 25.9768 39.4707C26.03 40.2226 25.7394 40.7465 25.0126 41H24.5038C24.4647 40.9774 24.4232 40.9592 24.3801 40.9456C20.5134 40.1697 16.6478 39.3879 12.7779 38.6282C12.1483 38.5046 11.6946 38.2346 11.502 37.6016Z" fill="#523C87"/>
<path d="M36.3203 24.0772C35.7912 23.5468 35.3227 23.0746 34.8512 22.6054C34.5318 22.2877 34.3611 21.9196 34.4406 21.4591C34.4754 21.2589 34.5605 21.0708 34.6879 20.9125C34.8153 20.7542 34.9809 20.6308 35.169 20.554C35.3571 20.4772 35.5617 20.4494 35.7635 20.4732C35.9653 20.4971 36.1577 20.5718 36.3227 20.6904C36.384 20.7344 36.4417 20.7831 36.4955 20.836C37.6884 22.029 38.8873 23.2161 40.0694 24.4197C40.5921 24.9518 40.5765 25.6516 40.0482 26.1859C38.8752 27.3721 37.6967 28.5529 36.5127 29.728C35.9878 30.2487 35.2561 30.2549 34.7699 29.7671C34.287 29.2825 34.3031 28.5523 34.8143 28.0192C35.0556 27.7676 35.305 27.5236 35.5531 27.2785C35.8105 27.0379 36.0488 26.7776 36.2659 26.5H35.9816C33.8819 26.5 31.7821 26.4996 29.6823 26.4988C28.8915 26.4973 28.3607 25.9573 28.3984 25.2095C28.412 24.9487 28.512 24.6999 28.6827 24.5024C28.8534 24.3048 29.085 24.1697 29.341 24.1184C29.5079 24.0898 29.677 24.0766 29.8463 24.0789C31.8614 24.0763 33.8764 24.0757 35.8914 24.0772H36.3203Z" fill="#523C87"/>
<path d="M22.3575 28.7371L20.7137 27.4566C21.1366 27.0573 21.4299 26.5403 21.5556 25.9724C21.6813 25.4045 21.6337 24.8119 21.4188 24.2714C21.204 23.7309 20.8318 23.2674 20.3505 22.9408C19.8693 22.6142 19.301 22.4396 18.7194 22.4396C18.1378 22.4396 17.5695 22.6142 17.0882 22.9408C16.607 23.2674 16.2348 23.7309 16.02 24.2714C15.8051 24.8119 15.7575 25.4045 15.8832 25.9724C16.0089 26.5403 16.3022 27.0573 16.7251 27.4566L15.0834 28.7306C14.4041 27.9021 14.0437 26.8578 14.0675 25.7866C14.0913 24.7154 14.4977 23.6881 15.2132 22.8906C15.6228 22.4127 16.126 22.0237 16.6916 21.7476C17.2573 21.4715 17.8734 21.3141 18.5022 21.2851C19.131 21.2561 19.759 21.3562 20.3477 21.5791C20.9363 21.802 21.4731 22.1431 21.9249 22.5813C22.759 23.3643 23.2669 24.4332 23.3471 25.5744C23.4273 26.7157 23.0739 27.8451 22.3575 28.7371Z" fill="white"/>
<path d="M20.4451 25.3289C20.4451 25.6711 20.3437 26.0057 20.1535 26.2902C19.9634 26.5748 19.6931 26.7966 19.3769 26.9276C19.0608 27.0585 18.7128 27.0928 18.3772 27.026C18.0415 26.9593 17.7332 26.7944 17.4912 26.5525C17.2492 26.3105 17.0844 26.0021 17.0176 25.6665C16.9509 25.3308 16.9851 24.9829 17.1161 24.6667C17.2471 24.3505 17.4688 24.0803 17.7534 23.8901C18.038 23.7 18.3725 23.5985 18.7148 23.5985C19.1726 23.6019 19.6108 23.7853 19.9346 24.1091C20.2583 24.4329 20.4417 24.871 20.4451 25.3289Z" fill="white"/>
<path d="M21.4404 29.6204C20.6591 30.2256 19.6999 30.556 18.7116 30.5603C17.7233 30.5646 16.7612 30.2425 15.9746 29.6442C16.2876 29.2136 16.6975 28.8628 17.1713 28.6202C17.645 28.3776 18.1692 28.2499 18.7015 28.2476C19.2338 28.2453 19.7591 28.3684 20.2349 28.6069C20.7108 28.8454 21.1238 29.1926 21.4404 29.6204Z" fill="white"/>
</svg>
