<svg width="22" height="26" viewBox="0 0 22 26" fill="none" xmlns="http://www.w3.org/2000/svg">
<path d="M6.46008 20.1885C6.71675 20.0553 6.99725 19.9253 7.30158 19.8018C7.04449 20.1415 6.76918 20.4701 6.47658 20.7865C5.96325 21.3341 5.56358 21.625 5.31241 21.716C5.29156 21.7238 5.27012 21.7303 5.24825 21.7355C5.22995 21.713 5.214 21.6891 5.20058 21.664C5.09791 21.4853 5.10158 21.313 5.27391 21.079C5.46825 20.8109 5.85875 20.5037 6.46008 20.1885ZM10.9609 17.5121C10.7427 17.5528 10.5264 17.5934 10.3082 17.6389C10.6314 17.0777 10.9371 16.5087 11.2249 15.9326C11.5147 16.4086 11.8266 16.8738 12.1599 17.3269C11.7621 17.3789 11.3606 17.4406 10.9609 17.5121ZM15.5901 19.038C15.3053 18.8344 15.0387 18.6117 14.7926 18.3717C15.2106 18.3799 15.5882 18.4075 15.9146 18.4595C16.4957 18.5521 16.7689 18.6984 16.8642 18.7991C16.8943 18.8273 16.9113 18.8644 16.9119 18.9031C16.9055 19.0178 16.8677 19.1293 16.8019 19.2281C16.7649 19.3073 16.7056 19.3767 16.6296 19.4296C16.5917 19.4502 16.5471 19.4588 16.5031 19.454C16.3381 19.4491 16.0301 19.3468 15.5901 19.038ZM11.5109 11.3257C11.4376 11.7222 11.3129 12.1772 11.1442 12.6729C11.0821 12.4873 11.0277 12.2998 10.9811 12.1106C10.8417 11.537 10.8216 11.0869 10.8967 10.7749C10.9664 10.4872 11.0984 10.3719 11.2561 10.315C11.3406 10.282 11.4302 10.2601 11.5219 10.25C11.5457 10.2988 11.5732 10.3995 11.5806 10.5717C11.5897 10.77 11.5677 11.0219 11.5109 11.3274V11.3257Z" fill="#0E918C"/>
<path fill-rule="evenodd" clip-rule="evenodd" d="M3.66667 0H13.3705C13.8567 9.20358e-05 14.3229 0.171357 14.6667 0.476125L21.4628 6.5C21.8067 6.80468 21.9999 7.21793 22 7.64887V22.75C22 23.612 21.6137 24.4386 20.9261 25.0481C20.2384 25.6576 19.3058 26 18.3333 26H3.66667C2.69421 26 1.76157 25.6576 1.07394 25.0481C0.386308 24.4386 0 23.612 0 22.75V3.25C0 2.38805 0.386308 1.5614 1.07394 0.951903C1.76157 0.34241 2.69421 0 3.66667 0V0ZM13.75 2.4375V5.6875C13.75 6.11848 13.9432 6.5318 14.287 6.83655C14.6308 7.14129 15.0971 7.3125 15.5833 7.3125H19.25L13.75 2.4375ZM3.96917 22.2105C4.13417 22.503 4.39083 22.7679 4.77217 22.8914C5.15167 23.0133 5.5275 22.9564 5.8355 22.8426C6.4185 22.6314 6.99967 22.1341 7.53317 21.5654C8.14367 20.9137 8.78533 20.059 9.405 19.1116C10.6013 18.7973 11.8264 18.5766 13.0662 18.4519C13.6162 19.0742 14.1845 19.6105 14.7345 19.9956C15.2478 20.3531 15.84 20.6505 16.4468 20.6733C16.7774 20.6878 17.1046 20.6093 17.3818 20.449C17.666 20.2849 17.8768 20.0476 18.0308 19.773C18.1958 19.4789 18.2967 19.1717 18.2838 18.8581C18.2722 18.5489 18.143 18.2523 17.9172 18.0164C17.5028 17.5776 16.8245 17.3664 16.1572 17.2607C15.3476 17.1496 14.5263 17.1223 13.7097 17.1795C13.0201 16.3154 12.4188 15.3985 11.913 14.4397C12.3713 13.3672 12.7142 12.3532 12.8663 11.5245C12.9323 11.1702 12.9672 10.8323 12.9543 10.5268C12.9521 10.2235 12.8725 9.92464 12.7215 9.6525C12.6345 9.50231 12.5109 9.37117 12.3597 9.26858C12.2084 9.16599 12.0333 9.09453 11.847 9.05937C11.4767 8.9895 11.0953 9.05937 10.7452 9.1845C10.054 9.42825 9.68917 9.94825 9.55167 10.5219C9.41783 11.0744 9.47833 11.7179 9.636 12.3679C9.79733 13.0276 10.0723 13.7459 10.4243 14.4722C9.86129 15.7134 9.21102 16.9221 8.47733 18.0911C7.53251 18.3546 6.62178 18.7059 5.76033 19.1392C5.082 19.4967 4.47883 19.9192 4.11583 20.4181C3.73083 20.9479 3.61167 21.5784 3.96917 22.2105Z" fill="#0E918C"/>
</svg>
