<svg width="53" height="53" viewBox="0 0 53 53" fill="none" xmlns="http://www.w3.org/2000/svg">
<rect width="53" height="53" rx="26.5" fill="white"/>
<path d="M44.3641 35.779C44.9419 35.2635 45.3512 34.586 45.5384 33.8346C45.7256 33.0832 45.6821 32.2928 45.4136 31.5665C45.145 30.8402 44.664 30.2116 44.033 29.7627C43.402 29.3138 42.6505 29.0654 41.8763 29.0498C41.1021 29.0342 40.3411 29.2523 39.6926 29.6755C39.0441 30.0987 38.5382 30.7074 38.2407 31.4223C37.9432 32.1373 37.868 32.9253 38.0249 33.6836C38.1817 34.4419 38.5634 35.1353 39.1201 35.6736C38.7251 35.9123 38.3221 36.1278 37.9493 36.393C37.5765 36.6583 37.242 36.9908 36.8853 37.2967C36.0131 36.1859 35.5622 34.8022 35.6124 33.3907C35.6626 31.9793 36.2107 30.6311 37.1597 29.5851C37.7083 28.9646 38.3766 28.4614 39.1244 28.1056C39.8723 27.7499 40.6844 27.5489 41.5119 27.5148C42.3394 27.4807 43.1652 27.6141 43.9399 27.9071C44.7145 28.2001 45.4219 28.6466 46.0197 29.2199C47.1629 30.2805 47.8511 31.7425 47.9402 33.2994C48.0292 34.8563 47.5122 36.3873 46.4974 37.5714L44.3641 35.779Z" fill="#523C87"/>
<path d="M41.6744 35.2077C41.2204 35.1801 40.7848 35.0185 40.4226 34.7432C40.0605 34.468 39.7881 34.0915 39.64 33.6614C39.4919 33.2314 39.4747 32.767 39.5906 32.3272C39.7064 31.8873 39.9502 31.4917 40.2909 31.1904C40.6317 30.8891 41.0542 30.6957 41.5049 30.6346C41.9556 30.5734 42.4144 30.6474 42.8231 30.8471C43.2318 31.0467 43.572 31.3631 43.8008 31.7563C44.0297 32.1494 44.1367 32.6015 44.1085 33.0555C44.0655 33.6616 43.7865 34.2266 43.3313 34.6291C42.8761 35.0315 42.2812 35.2393 41.6744 35.2077Z" fill="#523C87"/>
<path d="M45.2981 38.6796C44.2318 39.4539 42.9403 39.8556 41.6229 39.8227C40.3056 39.7899 39.0357 39.3243 38.0093 38.4979C38.4465 37.9408 39.0077 37.4935 39.6484 37.1917C40.289 36.8899 40.9913 36.7419 41.6993 36.7596C42.4072 36.7772 43.1013 36.96 43.7261 37.2934C44.3509 37.6267 44.8892 38.1014 45.2981 38.6796Z" fill="#523C87"/>
<path d="M17.8595 21.9298L21.2983 21.1549C21.6122 21.0842 21.942 21.1444 22.2153 21.3223C22.4886 21.5002 22.6829 21.7811 22.7555 22.1034C22.8281 22.4257 22.7731 22.7629 22.6025 23.0408C22.432 23.3187 22.1598 23.5145 21.846 23.5852L16.3316 24.8279C16.0178 24.8986 15.6879 24.8384 15.4147 24.6605C15.1414 24.4826 14.9471 24.2016 14.8745 23.8794L13.599 18.2192C13.5263 17.8969 13.5814 17.5597 13.7519 17.2818C13.9225 17.0039 14.1946 16.8081 14.5085 16.7374C14.8223 16.6666 15.1521 16.7268 15.4254 16.9047C15.6987 17.0826 15.893 17.3636 15.9656 17.6859L16.3983 19.6058C17.9966 17.2302 20.2412 15.3909 22.8579 14.3126C25.4746 13.2343 28.35 12.9637 31.1327 13.5339C33.9154 14.1042 36.4849 15.4905 38.5271 17.5234C40.5694 19.5564 41.9959 22.148 42.6325 24.9815L40.2658 25.5148C39.7144 23.0669 38.4559 20.8382 36.6551 19.1207C34.8543 17.4031 32.5952 16.2768 30.1737 15.8893C27.7522 15.5018 25.2812 15.871 23.0843 16.9488C20.8875 18.0265 19.0672 19.7625 17.8619 21.9293L17.8595 21.9298Z" fill="#523C87"/>
<circle cx="13.7259" cy="33.6803" r="6.17124" fill="#523C87"/>
<path d="M16.2485 37.4332C16.1111 37.5757 15.9275 37.6534 15.7379 37.6491C15.5482 37.6449 15.3682 37.5591 15.2374 37.4107L13.7015 35.417L12.0784 37.3396C12.0106 37.4112 11.9304 37.4674 11.8426 37.5053C11.7547 37.5431 11.6609 37.5617 11.5665 37.56C11.4721 37.5583 11.379 37.5364 11.2926 37.4954C11.2062 37.4545 11.1282 37.3954 11.0631 37.3215C10.998 37.2476 10.947 37.1604 10.9132 37.0649C10.8794 36.9695 10.8633 36.8676 10.866 36.7652C10.8687 36.6628 10.89 36.562 10.9287 36.4684C10.9675 36.3749 11.0229 36.2905 11.0918 36.2202L12.7804 34.2208L11.182 32.1467C11.1163 32.0734 11.0647 31.9867 11.0302 31.8915C10.9956 31.7963 10.9788 31.6946 10.9807 31.5922C10.9826 31.4898 11.0032 31.3888 11.0412 31.2949C11.0793 31.201 11.134 31.1162 11.2024 31.0453C11.2707 30.9744 11.3513 30.9188 11.4395 30.8817C11.5276 30.8447 11.6216 30.8269 11.7159 30.8294C11.8103 30.8319 11.9032 30.8547 11.9893 30.8964C12.0754 30.9381 12.1529 30.9979 12.2175 31.0724L13.7539 33.0668L15.3771 31.1428C15.4449 31.0713 15.525 31.015 15.6129 30.9772C15.7008 30.9394 15.7946 30.9207 15.889 30.9224C15.9834 30.9241 16.0765 30.9461 16.1629 30.987C16.2493 31.0279 16.3273 31.0871 16.3924 31.1609C16.4575 31.2348 16.5085 31.322 16.5423 31.4175C16.5761 31.513 16.5922 31.6149 16.5895 31.7172C16.5868 31.8196 16.5655 31.9205 16.5268 32.014C16.488 32.1076 16.4326 32.1919 16.3637 32.2622L14.6751 34.263L16.2729 36.3357C16.3378 36.4092 16.3886 36.4959 16.4225 36.5909C16.4564 36.6859 16.4727 36.7872 16.4704 36.8891C16.4681 36.9911 16.4473 37.0916 16.4093 37.1849C16.3712 37.2783 16.3165 37.3627 16.2485 37.4332Z" fill="white"/>
</svg>
