<svg width="37" height="37" viewBox="0 0 37 37" fill="none" xmlns="http://www.w3.org/2000/svg">
<path d="M18.5 0C8.288 0 0 8.288 0 18.5C0 28.712 8.288 37 18.5 37C28.712 37 37 28.712 37 18.5C37 8.288 28.712 0 18.5 0ZM20.35 25.9C20.35 26.9217 19.5217 27.75 18.5 27.75C17.4783 27.75 16.65 26.9217 16.65 25.9V18.5C16.65 17.4783 17.4783 16.65 18.5 16.65C19.5217 16.65 20.35 17.4783 20.35 18.5V25.9ZM20.35 11.1C20.35 12.1217 19.5217 12.95 18.5 12.95C17.4783 12.95 16.65 12.1217 16.65 11.1C16.65 10.0783 17.4783 9.25 18.5 9.25C19.5217 9.25 20.35 10.0783 20.35 11.1Z" fill="white"/>
</svg>
