<svg width="53" height="53" viewBox="0 0 53 53" fill="none" xmlns="http://www.w3.org/2000/svg">
<rect width="53" height="53" rx="26.5" fill="white"/>
<path d="M13.6018 29.6367H14.7196V17.7596C14.7106 17.6442 14.7106 17.5283 14.7196 17.413C14.731 17.2792 14.7925 17.1547 14.8917 17.0642C14.9909 16.9737 15.1206 16.924 15.2549 16.9249C15.3952 16.9195 15.5321 16.969 15.6366 17.0628C15.7411 17.1567 15.8049 17.2875 15.8145 17.4276C15.8211 17.5431 15.8211 17.6588 15.8145 17.7742V29.6383H16.9144V23.7176L18.0305 23.991V29.6318H19.1369V24.2725L20.2514 24.5442V29.6367H21.3464V24.8224C21.6166 24.861 21.8804 24.936 22.1306 25.0453C22.2184 25.1024 22.2929 25.1777 22.349 25.2661C22.4052 25.3546 22.4417 25.454 22.456 25.5578C22.4777 27.5199 22.4777 29.4821 22.456 31.4443C22.437 32.0039 22.2314 32.5411 21.8719 32.9704C21.4798 33.4699 21.0877 33.9678 20.6777 34.4526C20.5832 34.558 20.4512 34.6222 20.31 34.6316C18.4281 34.6435 16.5467 34.6435 14.6659 34.6316C14.5144 34.6182 14.3737 34.5478 14.2721 34.4347C13.8752 33.9694 13.4993 33.4862 13.1202 33.0078C12.7099 32.5022 12.4889 31.8693 12.4955 31.2181C12.4955 30.4795 12.4824 29.7408 12.4955 29.0021C12.5157 28.2491 12.339 27.5038 11.983 26.8399C11.8037 26.5174 11.6408 26.1862 11.4949 25.8474C11.4594 25.7752 11.4394 25.6963 11.4361 25.616C11.4327 25.5356 11.4461 25.4554 11.4753 25.3804C11.5371 25.3268 11.6094 25.2866 11.6875 25.2625C11.7657 25.2384 11.848 25.2309 11.9293 25.2405C12.3879 25.287 12.8129 25.5025 13.1215 25.845C13.43 26.1875 13.6001 26.6326 13.5986 27.0937C13.6116 27.93 13.6018 28.7744 13.6018 29.6367Z" fill="#0E918C"/>
<path d="M16.9396 17.9844C16.8306 16.481 16.31 15.8026 15.2606 15.8026C14.2112 15.8026 13.6889 16.4794 13.5766 17.9893C13.5025 18.0036 13.4275 18.0128 13.3521 18.0169C12.5386 18.0169 11.7137 18.0169 10.8937 18.0169C10.8096 18.0278 10.7242 18.0193 10.644 17.992C10.5637 17.9647 10.4908 17.9194 10.4308 17.8595C10.3708 17.7997 10.3253 17.7269 10.2978 17.6467C10.2703 17.5665 10.2615 17.4811 10.2722 17.3971C10.2722 15.9653 10.2722 14.5335 10.2722 13.1018C10.2613 13.0176 10.2698 12.932 10.2972 12.8516C10.3246 12.7712 10.37 12.6982 10.4301 12.6381C10.4901 12.5781 10.5631 12.5326 10.6435 12.5053C10.7239 12.4779 10.8095 12.4693 10.8937 12.4802C14.907 12.4802 18.9235 12.4802 22.9433 12.4802C23.0275 12.4693 23.1131 12.4779 23.1935 12.5053C23.2738 12.5326 23.3469 12.5781 23.4069 12.6381C23.4669 12.6982 23.5124 12.7712 23.5398 12.8516C23.5672 12.932 23.5757 13.0176 23.5648 13.1018C23.5648 14.5335 23.5648 15.9653 23.5648 17.3971C23.5758 17.4783 23.5685 17.561 23.5432 17.639C23.518 17.717 23.4755 17.7884 23.4189 17.8478C23.3624 17.9071 23.2932 17.953 23.2165 17.982C23.1398 18.011 23.0575 18.0224 22.9758 18.0153C20.9909 18.0153 19.0059 18.0153 17.021 18.0153C16.9928 18.0082 16.9655 17.9978 16.9396 17.9844Z" fill="#0E918C"/>
<path d="M21.3335 42.3812H13.5971C13.5971 41.7093 13.5808 41.0552 13.5971 40.4012C13.5993 39.4685 13.6498 38.5366 13.7484 37.6092C13.8809 37.0485 14.0717 36.5032 14.3178 35.9822C14.3442 35.9012 14.3983 35.8321 14.4707 35.7872C14.543 35.7422 14.6289 35.7243 14.7132 35.7365C16.5463 35.7463 18.381 35.7463 20.2174 35.7365C20.3067 35.7283 20.3964 35.7495 20.4727 35.7967C20.549 35.844 20.6079 35.9148 20.6404 35.9985C21.0407 36.7175 21.2727 37.5181 21.3188 38.3397C21.3628 39.6755 21.3335 41.0178 21.3335 42.3812Z" fill="#0E918C"/>
<path d="M41.3719 18.233C40.9132 17.3437 40.1745 16.6301 39.2698 16.2025C39.5972 15.9038 39.8493 15.5318 40.0054 15.1169C40.1615 14.7021 40.2172 14.2562 40.1679 13.8157C40.0939 13.117 39.75 12.4749 39.2096 12.026C38.6807 11.5771 38.0025 11.3434 37.3093 11.3711C36.6162 11.3988 35.9588 11.686 35.4675 12.1757C35.2027 12.4425 34.9945 12.76 34.8553 13.1091C34.7161 13.4582 34.6487 13.8319 34.6572 14.2076C34.6658 14.5834 34.75 14.9536 34.9048 15.2961C35.0597 15.6386 35.2821 15.9463 35.5586 16.2009C34.6662 16.6259 33.9372 17.331 33.4825 18.2086C32.7678 17.3055 32.3978 16.1776 32.4386 15.0267C32.4794 13.8757 32.9285 12.7769 33.7054 11.9267C34.5595 10.9706 35.7502 10.3818 37.0285 10.2834C38.3068 10.185 39.5736 10.5846 40.564 11.3987C41.5544 12.2128 42.1917 13.3783 42.3425 14.6514C42.4934 15.9245 42.1462 17.2067 41.3735 18.2297L41.3719 18.233Z" fill="#0E918C"/>
<path d="M35.8795 29.2727C35.5866 28.8707 35.2693 28.4871 34.9293 28.124C34.5651 27.8095 34.1815 27.5182 33.7807 27.252C34.1827 26.8715 34.4613 26.3791 34.5805 25.8386C34.6997 25.298 34.654 24.7341 34.4492 24.2199C34.2445 23.7056 33.8901 23.2646 33.432 22.9539C32.9739 22.6432 32.433 22.4771 31.8795 22.4771C31.326 22.4771 30.7852 22.6432 30.327 22.9539C29.8689 23.2646 29.5146 23.7056 29.3098 24.2199C29.105 24.7341 29.0593 25.298 29.1785 25.8386C29.2977 26.3791 29.5763 26.8715 29.9784 27.252C29.5699 27.5285 29.1782 27.8289 28.8053 28.1517C28.4798 28.5035 28.1771 28.8757 27.899 29.2662C27.1807 28.3274 26.8275 27.1598 26.905 25.9802C26.9825 24.8007 27.4855 23.6893 28.3204 22.8525C29.1988 21.9465 30.3889 21.4085 31.6493 21.3476C32.9098 21.2867 34.1462 21.7075 35.1078 22.5246C36.0694 23.3418 36.6842 24.4941 36.8275 25.7478C36.9708 27.0016 36.6319 28.2629 35.8795 29.2759V29.2727Z" fill="#0E918C"/>
<path d="M41.4193 40.3569C41.1279 39.9545 40.8128 39.5699 40.4756 39.205C40.1112 38.8896 39.727 38.5977 39.3253 38.3313C39.7281 37.9486 40.0063 37.4534 40.1237 36.9104C40.241 36.3673 40.1921 35.8014 39.9833 35.2866C39.7745 34.7717 39.4154 34.3316 38.9529 34.0237C38.4904 33.7158 37.9459 33.5544 37.3903 33.5604C36.8347 33.5664 36.2938 33.7396 35.8381 34.0574C35.3823 34.3752 35.0329 34.8229 34.8352 35.3422C34.6376 35.8614 34.6009 36.4282 34.7299 36.9686C34.859 37.509 35.1478 37.9981 35.5588 38.372C34.6642 38.7957 33.9336 39.5017 33.4795 40.3813C32.7613 39.4642 32.3948 38.3206 32.4461 37.1569C32.4975 35.9932 32.9632 34.8863 33.7593 34.036C34.6199 33.0958 35.8086 32.5219 37.0801 32.4329C38.3516 32.344 39.6087 32.7467 40.5918 33.5579C41.5749 34.3692 42.2089 35.527 42.3629 36.7922C42.5169 38.0575 42.1791 39.3335 41.4193 40.3569Z" fill="#0E918C"/>
<path d="M40.5283 19.113C39.6556 19.8278 38.5631 20.2197 37.435 20.2227C36.307 20.2256 35.2124 19.8395 34.3359 19.1293C34.539 18.5145 34.9218 17.9748 35.4349 17.5801C35.9481 17.1853 36.5678 16.9536 37.2141 16.9149C37.9306 16.8699 38.6422 17.0604 39.2405 17.4572C39.8388 17.854 40.291 18.4354 40.5283 19.113Z" fill="#0E918C"/>
<path d="M28.7676 30.1803C28.9685 29.5945 29.3342 29.0792 29.8208 28.6963C30.3074 28.3133 30.8942 28.0789 31.5107 28.0212C32.1394 27.9276 32.7816 28.0284 33.3514 28.3102C33.9211 28.592 34.391 29.0413 34.698 29.5978C35.134 30.3137 35.0982 30.1819 34.4637 30.574C33.5931 31.1147 32.5744 31.3676 31.5521 31.2969C30.5297 31.2263 29.5555 30.8356 28.7676 30.1803Z" fill="#0E918C"/>
<path d="M34.332 41.2831C34.5533 40.6401 34.9694 40.082 35.5225 39.6864C36.0756 39.2909 36.7381 39.0774 37.4181 39.0758C38.0981 39.0742 38.7617 39.2845 39.3167 39.6774C39.8716 40.0704 40.2903 40.6265 40.5146 41.2684C39.6479 41.9921 38.5552 42.3898 37.426 42.3925C36.2968 42.3951 35.2022 42.0027 34.332 41.2831Z" fill="#0E918C"/>
<path d="M22.4202 37.9479L22.1973 36.8839H31.3117V37.9479H22.4202Z" fill="#0E918C"/>
<path d="M37.4299 12.4788C37.7593 12.4798 38.0809 12.5787 38.3539 12.7629C38.627 12.9471 38.8391 13.2083 38.9633 13.5134C39.0876 13.8184 39.1183 14.1535 39.0516 14.4761C38.985 14.7986 38.824 15.0941 38.589 15.3249C38.354 15.5557 38.0558 15.7115 37.7321 15.7724C37.4084 15.8334 37.0739 15.7967 36.7711 15.6671C36.4683 15.5374 36.2109 15.3207 36.0315 15.0445C35.8522 14.7682 35.759 14.4449 35.7639 14.1155C35.7707 13.6785 35.9493 13.2617 36.2611 12.9554C36.5729 12.6491 36.9928 12.4779 37.4299 12.4788Z" fill="#0E918C"/>
<path d="M31.8887 23.5676C32.2184 23.569 32.5403 23.6684 32.8133 23.8533C33.0863 24.0382 33.2981 24.3001 33.4218 24.6058C33.5454 24.9114 33.5753 25.2469 33.5077 25.5696C33.4401 25.8923 33.2779 26.1876 33.0419 26.4178C32.8059 26.6481 32.5067 26.8029 32.1825 26.8625C31.8582 26.9222 31.5235 26.884 31.221 26.7528C30.9185 26.6217 30.6619 26.4035 30.4838 26.126C30.3057 25.8485 30.2143 25.5243 30.2211 25.1946C30.2304 24.759 30.4104 24.3445 30.7223 24.0402C31.0342 23.736 31.453 23.5663 31.8887 23.5676Z" fill="#0E918C"/>
<path d="M39.0801 36.2918C39.0824 36.6211 38.9867 36.9436 38.8053 37.2184C38.6238 37.4932 38.3648 37.7079 38.0611 37.8352C37.7574 37.9625 37.4227 37.9966 37.0995 37.9333C36.7763 37.87 36.4793 37.712 36.2461 37.4795C36.0129 37.247 35.8541 36.9504 35.7898 36.6274C35.7255 36.3045 35.7586 35.9697 35.885 35.6656C36.0114 35.3615 36.2253 35.1018 36.4996 34.9196C36.7739 34.7373 37.0961 34.6407 37.4255 34.642C37.8627 34.6445 38.2813 34.819 38.5909 35.1277C38.9006 35.4364 39.0763 35.8546 39.0801 36.2918Z" fill="#0E918C"/>
<path d="M31.3241 14.7178V15.7786H24.707V14.7178H31.3241Z" fill="#0E918C"/>
<path d="M25.7795 25.7981V26.8606H23.5977V25.7981H25.7795Z" fill="#0E918C"/>
</svg>
