<svg width="53" height="53" viewBox="0 0 53 53" fill="none" xmlns="http://www.w3.org/2000/svg">
<rect width="53" height="53" rx="26.5" fill="white"/>
<path d="M32.8281 10C33.0333 10.0582 33.239 10.1135 33.4435 10.175C34.2638 10.42 34.9835 10.9225 35.4961 11.6081C36.0088 12.2938 36.2871 13.1263 36.2899 13.9824C36.3136 16.671 36.3008 19.3599 36.2939 22.0487C36.2922 22.7452 35.8171 23.2158 35.1706 23.204C34.5446 23.1925 34.1121 22.7216 34.1113 22.0277C34.1077 19.4415 34.1071 16.8553 34.1093 14.269C34.1093 12.9069 33.3852 12.1876 32.018 12.1876C26.5949 12.1876 21.1717 12.1876 15.7486 12.1876C14.4078 12.1876 13.687 12.9114 13.687 14.2576C13.687 21.6289 13.687 29.0003 13.687 36.3716C13.687 37.7152 14.4094 38.4372 15.7536 38.4373C18.317 38.4373 20.8805 38.4378 23.4439 38.4386C24.2841 38.4397 24.8348 39.1682 24.5519 39.9063C24.3808 40.3526 24.0405 40.6175 23.5624 40.6186C20.7939 40.6267 18.0249 40.6546 15.2571 40.6067C13.4625 40.5757 11.9279 39.1657 11.5685 37.3606C11.5497 37.2854 11.5269 37.2113 11.5 37.1386V13.4863C11.5233 13.4126 11.5525 13.3402 11.5689 13.2649C11.8667 11.8962 12.6444 10.9078 13.9255 10.3379C14.2625 10.1879 14.6319 10.1105 14.9863 10H32.8281Z" fill="#23183D"/>
<path d="M23.8801 27.4998C22.3652 27.4998 20.8502 27.4998 19.3353 27.4998C18.4825 27.4992 18.087 27.0757 18.0589 26.2148C18.0235 25.1358 18.2042 24.1258 18.8856 23.2559C19.6592 22.2685 20.6717 21.7096 21.9333 21.6824C23.197 21.655 24.4619 21.6614 25.7261 21.6756C27.9426 21.7004 29.6472 23.3773 29.7325 25.6003C29.7422 25.8505 29.7426 26.1017 29.7345 26.3519C29.7119 27.0572 29.2661 27.4966 28.5616 27.4985C27.0011 27.5026 25.4406 27.4998 23.8801 27.4998Z" fill="#23183D"/>
<path d="M23.8975 20.2007C23.3212 20.2005 22.7579 20.0292 22.2789 19.7087C21.7999 19.3882 21.4268 18.9327 21.2068 18.4C20.9868 17.8673 20.9299 17.2813 21.0431 16.7162C21.1564 16.1511 21.4347 15.6323 21.843 15.2255C22.2513 14.8187 22.7711 14.5422 23.3366 14.431C23.9021 14.3197 24.4879 14.3788 25.0198 14.6007C25.5517 14.8226 26.0058 15.1974 26.3246 15.6775C26.6435 16.1577 26.8126 16.7216 26.8108 17.2979C26.812 17.6804 26.7373 18.0592 26.5912 18.4126C26.4451 18.766 26.2304 19.087 25.9595 19.3569C25.6886 19.6268 25.3669 19.8403 25.013 19.9852C24.6591 20.13 24.2799 20.2032 23.8975 20.2007Z" fill="#23183D"/>
<path d="M21.4028 31.8749C20.4461 31.8749 19.4893 31.8771 18.5327 31.8742C17.8357 31.872 17.3385 31.4212 17.3302 30.7922C17.3218 30.1494 17.8233 29.6889 18.5424 29.6882C20.4558 29.6862 22.3692 29.6862 24.2826 29.6882C24.9808 29.689 25.4752 30.1381 25.4837 30.769C25.4924 31.4088 24.9876 31.8724 24.2728 31.874C23.3165 31.8768 22.3595 31.8749 21.4028 31.8749Z" fill="#23183D"/>
<path d="M21.0024 36.25C20.1713 36.25 19.3403 36.2532 18.5097 36.249C17.824 36.2456 17.3225 35.7719 17.3302 35.1456C17.3381 34.5238 17.8238 34.0657 18.4948 34.064C20.1452 34.06 21.7956 34.06 23.4459 34.064C24.1347 34.0653 24.6283 34.5331 24.6228 35.1663C24.6175 35.7857 24.1297 36.2453 23.4608 36.2492C22.6414 36.2537 21.8218 36.25 21.0024 36.25Z" fill="#23183D"/>
<path d="M43.5 35.5C43.5 37.1811 43.0015 38.8245 42.0675 40.2223C41.1335 41.6202 39.806 42.7096 38.2528 43.353C36.6996 43.9963 34.9906 44.1646 33.3417 43.8367C31.6929 43.5087 30.1783 42.6992 28.9896 41.5104C27.8008 40.3217 26.9913 38.8071 26.6633 37.1583C26.3354 35.5094 26.5037 33.8004 27.147 32.2472C27.7904 30.694 28.8798 29.3665 30.2777 28.4325C31.6755 27.4985 33.3189 27 35 27C37.2543 27 39.4163 27.8955 41.0104 29.4896C42.6045 31.0837 43.5 33.2457 43.5 35.5ZM40.1213 33.97C40.3091 33.7821 40.4147 33.5273 40.4147 33.2617C40.4147 32.996 40.3091 32.7412 40.1213 32.5533C39.9334 32.3655 39.6786 32.2599 39.4129 32.2599C39.1472 32.2599 38.8924 32.3655 38.7046 32.5533L33.9092 37.3487L31.4583 34.905C31.2705 34.7171 31.0157 34.6116 30.75 34.6116C30.4843 34.6116 30.2295 34.7171 30.0417 34.905C29.8538 35.0929 29.7483 35.3477 29.7483 35.6133C29.7483 35.879 29.8538 36.1338 30.0417 36.3217L33.9021 40.1821L40.1213 33.97Z" fill="#23183D"/>
</svg>
