<svg width="53" height="53" viewBox="0 0 53 53" fill="none" xmlns="http://www.w3.org/2000/svg">
<rect width="53" height="53" rx="26.5" fill="white"/>
<path d="M32.359 22.8068C32.0458 22.0519 31.5814 21.369 30.9945 20.8002C30.4076 20.2313 29.7106 19.7886 28.9462 19.4991C29.3568 19.1604 29.677 18.7252 29.878 18.2324C30.0791 17.7395 30.1548 17.2046 30.0984 16.6753C30.0195 15.8711 29.6304 15.1292 29.0137 14.607C28.4274 14.0962 27.674 13.8184 26.8964 13.8265C26.1189 13.8345 25.3714 14.1278 24.7958 14.6507C24.4489 14.9553 24.1742 15.3332 23.9914 15.7572C23.8086 16.1811 23.7223 16.6403 23.7389 17.1017C23.7525 17.5616 23.8641 18.0134 24.0662 18.4268C24.2683 18.8402 24.5563 19.2058 24.9108 19.4991C24.1463 19.7876 23.449 20.2295 22.8617 20.7977C22.2744 21.3659 21.8097 22.0483 21.4961 22.8028C20.4727 21.518 19.9499 19.9057 20.0246 18.2648C20.0994 16.6239 20.7666 15.0657 21.9026 13.8793C22.5357 13.2046 23.2981 12.6642 24.1443 12.2902C24.9906 11.9162 25.9035 11.7164 26.8286 11.7025C27.7537 11.6886 28.6721 11.861 29.5292 12.2094C30.3864 12.5579 31.1646 13.0752 31.8176 13.7306C33.0087 14.9118 33.7224 16.4907 33.8223 18.1652C33.9222 19.8398 33.4012 21.4923 32.359 22.8068ZM30.6159 15.5371L31.1593 16.3303L32.0893 15.8167L31.431 14.8569L30.6159 15.5371ZM32.7596 18.0495L32.5395 16.9093L31.5202 17.2187L31.7185 18.1546L32.7596 18.0495ZM31.7066 19.1184L31.5083 20.0484L32.5236 20.3716L32.7536 19.2274L31.7066 19.1184Z" fill="#0E918C"/>
<path d="M17.58 35.4408C17.9683 35.0738 18.2371 34.5983 18.3512 34.0763C18.4654 33.5543 18.4196 33.0101 18.22 32.5145C18.0203 32.0188 17.676 31.5949 17.2318 31.2978C16.7877 31.0008 16.2644 30.8444 15.7301 30.8491C15.1958 30.8538 14.6753 31.0193 14.2364 31.3241C13.7976 31.6289 13.4607 32.0588 13.2698 32.5579C13.0788 33.0569 13.0427 33.6019 13.166 34.1218C13.2892 34.6417 13.5663 35.1124 13.961 35.4725C13.6933 35.645 13.4196 35.8017 13.1678 35.9921C12.916 36.1824 12.6919 36.4184 12.4519 36.6365C11.8282 35.8877 11.4897 34.9423 11.4962 33.9678C11.5027 32.9933 11.8539 32.0526 12.4876 31.3122C12.8536 30.8733 13.3045 30.5129 13.8133 30.2526C14.322 29.9924 14.8781 29.8376 15.4482 29.7976C16.0183 29.7576 16.5905 29.8332 17.1307 30.0198C17.6708 30.2065 18.1676 30.5004 18.5913 30.8838C19.4009 31.5926 19.9047 32.5873 19.9971 33.6594C20.0896 34.7314 19.7634 35.7977 19.0871 36.6346L17.58 35.4408Z" fill="#0E918C"/>
<path d="M41.4411 36.6188L39.934 35.4448C40.3217 35.0787 40.5906 34.6047 40.7059 34.0841C40.8212 33.5634 40.7775 33.0202 40.5805 32.5247C40.3835 32.0291 40.0424 31.6042 39.6011 31.3047C39.1599 31.0053 38.6389 30.8452 38.1057 30.8452C37.5724 30.8452 37.0515 31.0053 36.6103 31.3047C36.169 31.6042 35.8278 32.0291 35.6309 32.5247C35.4339 33.0202 35.3902 33.5634 35.5055 34.0841C35.6207 34.6047 35.8896 35.0787 36.2774 35.4448L34.7723 36.6128C34.1494 35.8532 33.819 34.8958 33.8409 33.9137C33.8627 32.9317 34.2353 31.9899 34.8912 31.2587C35.2668 30.8206 35.728 30.4639 36.2466 30.2108C36.7652 29.9577 37.3301 29.8134 37.9066 29.7868C38.483 29.7602 39.0588 29.852 39.5985 30.0563C40.1381 30.2607 40.6302 30.5734 41.0445 30.9751C41.8092 31.693 42.2748 32.673 42.3483 33.7193C42.4218 34.7655 42.0979 35.801 41.4411 36.6188Z" fill="#0E918C"/>
<path d="M23.5957 40.8728C22.9613 40.0892 22.6341 39.1014 22.6753 38.094C22.7166 37.0866 23.1235 36.1288 23.8198 35.3997C24.198 34.99 24.6534 34.6591 25.1599 34.4259C25.6664 34.1927 26.2139 34.0618 26.7711 34.0408C27.3283 34.0198 27.8842 34.109 28.4068 34.3035C28.9294 34.4979 29.4084 34.7936 29.8164 35.1737C30.6042 35.8877 31.0905 36.875 31.1763 37.9348C31.2621 38.9946 30.9411 40.0472 30.2785 40.8788L28.7575 39.689C29.0654 39.3983 29.2993 39.0382 29.4396 38.6387C29.58 38.2393 29.6229 37.812 29.5646 37.3926C29.4803 36.7246 29.1379 36.1161 28.6107 35.6972C28.0761 35.2684 27.3968 35.0624 26.7141 35.1221C26.0314 35.1818 25.398 35.5025 24.9459 36.0175C24.4938 36.5325 24.2578 37.202 24.287 37.8867C24.3162 38.5713 24.6085 39.2183 25.1028 39.6929L23.5957 40.8728Z" fill="#0E918C"/>
<path d="M18.9564 19.1445L19.0972 20.1935C18.9723 20.1935 18.8751 20.2074 18.776 20.2074C17.2709 20.2074 15.7658 20.2074 14.2607 20.2074C13.8938 20.2219 13.5278 20.1604 13.1859 20.0266C12.8439 19.8928 12.5334 19.6897 12.2737 19.43C12.0141 19.1704 11.811 18.8598 11.6772 18.5179C11.5434 18.1759 11.4819 17.81 11.4964 17.4431C11.4964 17.0227 11.4964 16.6023 11.4964 16.1819C11.511 16.087 11.493 15.9898 11.4455 15.9063C11.398 15.8228 11.3237 15.7578 11.2346 15.7219C10.9011 15.5395 10.6462 15.2411 10.5182 14.8832C10.3903 14.5253 10.3982 14.1329 10.5406 13.7805C10.6707 13.4178 10.9285 13.115 11.2656 12.9284C11.6027 12.7419 11.9962 12.6844 12.3726 12.7667C12.749 12.849 13.0826 13.0655 13.3111 13.3758C13.5396 13.686 13.6473 14.0689 13.6142 14.4527C13.6026 14.7258 13.5174 14.9906 13.3676 15.2193C13.2179 15.4479 13.0092 15.6318 12.7635 15.7516C12.6935 15.7785 12.6346 15.8281 12.5961 15.8924C12.5577 15.9568 12.5419 16.0322 12.5513 16.1066C12.5632 16.5607 12.5513 17.0148 12.5513 17.4669C12.5385 17.6895 12.5727 17.9122 12.6517 18.1207C12.7308 18.3291 12.8529 18.5186 13.01 18.6767C13.1672 18.8348 13.3559 18.958 13.5639 19.0383C13.7719 19.1185 13.9944 19.1541 14.2171 19.1425C15.6666 19.1425 17.1162 19.1425 18.5658 19.1425L18.9564 19.1445Z" fill="#0E918C"/>
<path d="M34.7539 20.2075L34.8927 19.1545H39.5468C39.7802 19.1747 40.0152 19.1436 40.2353 19.0635C40.4554 18.9834 40.6554 18.8562 40.8212 18.6907C40.9871 18.5253 41.1148 18.3256 41.1954 18.1057C41.276 17.8857 41.3076 17.6508 41.2879 17.4174C41.2879 16.9851 41.2879 16.5528 41.2879 16.1205C41.2989 16.0472 41.2855 15.9723 41.2496 15.9074C41.2138 15.8425 41.1575 15.7913 41.0896 15.7616C40.7695 15.6032 40.5142 15.3389 40.367 15.0135C40.2199 14.6881 40.19 14.3218 40.2825 13.9769C40.3658 13.6332 40.5616 13.3271 40.8387 13.1074C41.1158 12.8877 41.4584 12.7668 41.8121 12.7641C42.1657 12.7614 42.5101 12.8769 42.7906 13.0923C43.0711 13.3077 43.2716 13.6107 43.3602 13.9531C43.459 14.2973 43.4354 14.6652 43.2933 14.9939C43.1511 15.3226 42.8993 15.5919 42.5808 15.7556C42.5033 15.7906 42.4391 15.8496 42.3977 15.9239C42.3563 15.9982 42.3399 16.0838 42.3508 16.1681C42.3741 16.798 42.3536 17.4288 42.2893 18.0559C42.2072 18.6284 41.9291 19.1548 41.5024 19.5453C41.0757 19.9358 40.5269 20.1663 39.9494 20.1976C38.2301 20.2432 36.5128 20.2075 34.7539 20.2075Z" fill="#0E918C"/>
<path d="M34.8985 18.0776L34.7676 17.0167C35.3089 17.0167 35.8325 17.0167 36.354 17.0167C36.5749 17.0189 36.7951 16.9909 37.0084 16.9334C37.3216 16.8334 37.5955 16.6376 37.7916 16.3736C37.9876 16.1096 38.0958 15.7907 38.101 15.462C38.1129 14.9861 38.101 14.5101 38.101 14.0342C38.1145 13.9443 38.0966 13.8524 38.0504 13.7741C38.0042 13.6957 37.9324 13.6356 37.8472 13.6039C37.5128 13.4233 37.2563 13.1264 37.1262 12.7693C36.9961 12.4123 37.0014 12.0199 37.1412 11.6665C37.2685 11.3063 37.5215 11.0042 37.8537 10.8155C38.1859 10.6269 38.5749 10.5645 38.9495 10.6397C39.324 10.715 39.6588 10.9228 39.8924 11.2251C40.1259 11.5274 40.2426 11.9038 40.2208 12.2852C40.2176 12.5641 40.1371 12.8367 39.9884 13.0726C39.8396 13.3085 39.6283 13.4986 39.3781 13.6217C39.3044 13.6527 39.2429 13.7068 39.2028 13.7758C39.1627 13.8449 39.1463 13.9252 39.156 14.0045C39.1786 14.645 39.1574 15.2864 39.0925 15.924C38.9936 16.5198 38.6887 17.0619 38.231 17.4558C37.7733 17.8498 37.1918 18.0705 36.588 18.0795C36.0367 18.0895 35.4934 18.0776 34.8985 18.0776Z" fill="#0E918C"/>
<path d="M19.0916 17.0167L18.9548 18.1093C18.2261 18.1144 17.4978 18.0773 16.7734 17.9983C16.1969 17.8835 15.6769 17.5751 15.2996 17.1243C14.9224 16.6735 14.7105 16.1072 14.6992 15.5195C14.686 15.0343 14.686 14.5472 14.6992 14.058C14.7153 13.9632 14.6985 13.8657 14.6516 13.7816C14.6048 13.6976 14.5306 13.6321 14.4414 13.596C14.1126 13.4164 13.8595 13.1242 13.7287 12.773C13.598 12.4219 13.5982 12.0353 13.7295 11.6844C13.8508 11.3209 14.0994 11.0136 14.4296 10.8193C14.7597 10.6249 15.1491 10.5565 15.5257 10.6269C15.9023 10.6972 16.2407 10.9015 16.4785 11.2019C16.7162 11.5024 16.8372 11.8787 16.8191 12.2614C16.8192 12.5462 16.7391 12.8252 16.5879 13.0665C16.4368 13.3078 16.2207 13.5016 15.9644 13.6257C15.8948 13.6534 15.8365 13.7036 15.7987 13.7683C15.761 13.833 15.746 13.9085 15.7562 13.9827C15.7562 14.4586 15.7562 14.9365 15.7562 15.4124C15.754 15.6236 15.7941 15.8331 15.874 16.0285C15.9539 16.224 16.072 16.4016 16.2214 16.5508C16.3708 16.7001 16.5486 16.818 16.7441 16.8976C16.9397 16.9773 17.1492 17.0171 17.3604 17.0147C17.9295 17.0226 18.4927 17.0167 19.0916 17.0167Z" fill="#0E918C"/>
<path d="M29.0505 17.0171C29.0505 17.4377 28.9258 17.8488 28.6923 18.1986C28.4587 18.5484 28.1268 18.8211 27.7383 18.9823C27.3499 19.1436 26.9223 19.186 26.5098 19.1044C26.0972 19.0228 25.718 18.8207 25.4202 18.5238C25.1224 18.2268 24.9193 17.8482 24.8365 17.4359C24.7538 17.0235 24.7951 16.5959 24.9552 16.207C25.1153 15.8181 25.3871 15.4853 25.7362 15.2508C26.0854 15.0163 26.4962 14.8905 26.9167 14.8893C27.1966 14.8888 27.4738 14.9435 27.7325 15.0501C27.9912 15.1568 28.2264 15.3134 28.4246 15.511C28.6227 15.7086 28.78 15.9434 28.8874 16.2018C28.9948 16.4602 29.0502 16.7373 29.0505 17.0171Z" fill="#0E918C"/>
<path d="M26.9624 25.5275C28.5013 25.5275 30.0414 25.5275 31.5828 25.5275C31.9795 25.5275 32.2015 25.6921 32.2412 25.9935C32.2501 26.0628 32.2453 26.1332 32.2269 26.2006C32.2086 26.268 32.1772 26.3311 32.1345 26.3863C32.0918 26.4416 32.0386 26.4879 31.9779 26.5226C31.9173 26.5572 31.8504 26.5796 31.7811 26.5884C31.6702 26.5964 31.5589 26.5964 31.448 26.5884H22.4015C22.2907 26.5984 22.1792 26.5984 22.0684 26.5884C21.9406 26.5727 21.8231 26.5108 21.7378 26.4143C21.6525 26.3179 21.6055 26.1936 21.6055 26.0649C21.6055 25.9362 21.6525 25.8119 21.7378 25.7155C21.8231 25.6191 21.9406 25.5572 22.0684 25.5414C22.1673 25.5325 22.2669 25.5325 22.3658 25.5414L26.9624 25.5275Z" fill="#0E918C"/>
<path d="M23.8184 27.6713H30.0371C29.9534 28.1737 29.7165 28.638 29.3586 29.0005C29.0007 29.363 28.5395 29.6059 28.0382 29.6959C27.3051 29.794 26.5622 29.794 25.8291 29.6959C25.3263 29.6065 24.8634 29.364 24.5035 29.0016C24.1436 28.6393 23.9044 28.1747 23.8184 27.6713Z" fill="#0E918C"/>
<path d="M16.2892 28.7139H15.2264V28.3907C15.2264 26.951 15.2264 25.5107 15.2264 24.0697C15.2067 23.6974 15.2655 23.3251 15.3989 22.977C15.5323 22.6289 15.7373 22.3127 16.0008 22.0489C16.2642 21.7851 16.5801 21.5796 16.928 21.4457C17.2759 21.3118 17.6481 21.2525 18.0204 21.2717C18.417 21.2717 18.7978 21.2717 19.1844 21.2717C19.2347 21.2708 19.2845 21.2806 19.3306 21.3004C19.3768 21.3203 19.4182 21.3497 19.4521 21.3867C19.5989 21.6802 19.7159 21.9816 19.8587 22.3286H18.0105C17.7798 22.311 17.548 22.3436 17.3311 22.424C17.1142 22.5044 16.9172 22.6308 16.7537 22.7945C16.5902 22.9582 16.464 23.1553 16.3839 23.3723C16.3037 23.5894 16.2714 23.8212 16.2892 24.0518C16.2892 25.4809 16.2892 26.91 16.2892 28.3391V28.7139Z" fill="#0E918C"/>
<path d="M34.0039 22.3348C34.1506 21.9898 34.2736 21.6844 34.4124 21.3869C34.4306 21.3565 34.4557 21.3308 34.4857 21.3118C34.5156 21.2929 34.5496 21.2812 34.5849 21.2779C35.2035 21.2546 35.823 21.2732 36.439 21.3334C37.0122 21.408 37.5414 21.6801 37.9356 22.1029C38.3297 22.5256 38.5642 23.0726 38.5985 23.6495C38.6699 25.3272 38.6164 27.0088 38.6164 28.7082H37.5674V28.3751C37.5674 26.9354 37.5674 25.4964 37.5674 24.058C37.5855 23.8275 37.5535 23.5957 37.4736 23.3787C37.3936 23.1616 37.2677 22.9645 37.1043 22.8008C36.941 22.637 36.7441 22.5106 36.5272 22.4302C36.3104 22.3497 36.0787 22.3172 35.8481 22.3348H34.0039Z" fill="#0E918C"/>
<path d="M15.7137 35.1C15.4 35.09 15.0963 34.9872 14.841 34.8046C14.5858 34.622 14.3904 34.3677 14.2797 34.0741C14.169 33.7804 14.1479 33.4604 14.219 33.1548C14.2902 32.8491 14.4504 32.5714 14.6795 32.3568C14.9085 32.1422 15.196 32.0003 15.5057 31.9492C15.8154 31.8981 16.1332 31.9399 16.4191 32.0695C16.705 32.1991 16.946 32.4106 17.1116 32.6771C17.2773 32.9437 17.3601 33.2535 17.3497 33.5672C17.3321 33.986 17.1509 34.3813 16.845 34.6679C16.539 34.9546 16.1328 35.1097 15.7137 35.1Z" fill="#0E918C"/>
<path d="M39.6884 33.494C39.6884 33.8078 39.5954 34.1145 39.4211 34.3754C39.2468 34.6363 38.999 34.8396 38.7091 34.9597C38.4192 35.0797 38.1003 35.1112 37.7925 35.05C37.4848 34.9887 37.2021 34.8376 36.9803 34.6158C36.7584 34.3939 36.6073 34.1113 36.5461 33.8035C36.4849 33.4958 36.5163 33.1768 36.6364 32.8869C36.7565 32.5971 36.9598 32.3493 37.2207 32.175C37.4816 32.0007 37.7883 31.9076 38.102 31.9076C38.5218 31.9107 38.9235 32.0789 39.2203 32.3757C39.5172 32.6725 39.6853 33.0742 39.6884 33.494Z" fill="#0E918C"/>
<path d="M26.9184 36.166C27.2322 36.166 27.5389 36.2591 27.7998 36.4334C28.0607 36.6077 28.264 36.8555 28.3841 37.1453C28.5042 37.4352 28.5356 37.7542 28.4744 38.0619C28.4131 38.3696 28.2621 38.6523 28.0402 38.8742C27.8183 39.096 27.5357 39.2471 27.2279 39.3083C26.9202 39.3696 26.6012 39.3381 26.3113 39.2181C26.0215 39.098 25.7737 38.8947 25.5994 38.6338C25.4251 38.3729 25.332 38.0662 25.332 37.7524C25.3351 37.3326 25.5033 36.9309 25.8001 36.6341C26.097 36.3373 26.4987 36.1691 26.9184 36.166Z" fill="#0E918C"/>
<path d="M28.3027 20.4278C29.1801 20.6565 29.9599 21.163 30.5257 21.8714C30.8779 22.3889 31.1914 22.9318 31.4636 23.4955C31.4993 23.5589 31.539 23.6938 31.5112 23.7116C31.2237 23.9714 30.958 24.3521 30.6209 24.4315C30.0751 24.5031 29.5231 24.5137 28.975 24.4632L28.3027 20.4278Z" fill="#0E918C"/>
<path d="M25.5472 20.4569L24.879 24.4626C24.3019 24.4626 23.7487 24.4904 23.1994 24.4447C23.0288 24.4309 22.8682 24.2226 22.7135 24.0898C22.2793 23.713 22.2773 23.7091 22.4994 23.1855C22.7452 22.5849 23.111 22.0406 23.5744 21.5861C24.0378 21.1316 24.589 20.7764 25.1943 20.5422C25.2656 20.5132 25.3384 20.4881 25.4124 20.4668C25.457 20.4598 25.5021 20.4564 25.5472 20.4569Z" fill="#0E918C"/>
<path d="M18.2828 37.4226C17.5628 37.9778 16.68 38.2806 15.7708 38.2842C14.8615 38.2878 13.9764 37.9919 13.252 37.4424C13.5424 37.0494 13.9206 36.7297 14.3565 36.5088C14.7923 36.2879 15.2738 36.1718 15.7624 36.1699C16.2511 36.168 16.7334 36.2802 17.171 36.4977C17.6086 36.7152 17.9893 37.0319 18.2828 37.4226Z" fill="#0E918C"/>
<path d="M40.6009 37.4285C39.8846 37.9833 39.0051 38.2862 38.0991 38.2902C37.193 38.2941 36.311 37.9989 35.5898 37.4503C35.8768 37.0555 36.2526 36.7339 36.6869 36.5115C37.1213 36.2891 37.6019 36.172 38.0898 36.1699C38.5778 36.1678 39.0594 36.2806 39.4957 36.4993C39.9319 36.7179 40.3106 37.0362 40.6009 37.4285Z" fill="#0E918C"/>
<path d="M24.4102 41.6967C24.7017 41.3059 25.08 40.9883 25.5154 40.7688C25.9507 40.5493 26.4311 40.4341 26.9187 40.4322C27.4062 40.4303 27.8875 40.5417 28.3246 40.7577C28.7616 40.9737 29.1425 41.2884 29.4371 41.6769C28.7193 42.2356 27.8366 42.5406 26.927 42.5442C26.0174 42.5478 25.1323 42.2497 24.4102 41.6967Z" fill="#0E918C"/>
<path d="M27.8902 24.4513H25.9727L26.6746 20.2275H27.1942L27.8902 24.4513Z" fill="#0E918C"/>
<path d="M27.4353 32.9715H26.416V30.8715H27.4353V32.9715Z" fill="#0E918C"/>
</svg>
