<svg width="53" height="53" viewBox="0 0 53 53" fill="none" xmlns="http://www.w3.org/2000/svg">
<rect width="53" height="53" rx="26.5" fill="white"/>
<path d="M40.8639 35.2059C40.8649 37.8032 40.8645 40.4012 40.8629 42.9998H37.0066C37.0076 42.7953 37.0123 42.59 37.0162 42.3903C37.0384 41.8184 37.0292 41.2456 36.9885 40.6747C36.9168 39.8599 37.1442 39.3144 37.7269 38.9046L37.7355 38.8979C37.8392 38.8134 37.9349 38.7194 38.0211 38.6171C38.4576 38.1662 38.5016 37.6972 38.1414 37.3294C38.063 37.242 37.9655 37.1738 37.8566 37.1301C37.7476 37.0864 37.63 37.0683 37.5129 37.0772C37.2571 37.1141 37.0221 37.2387 36.848 37.4297C36.7372 37.5377 36.6283 37.6485 36.5194 37.7583C36.3332 37.9475 36.1402 38.1423 35.9434 38.3219C35.8619 38.3941 35.7588 38.4374 35.6502 38.4451C34.4714 38.4518 33.2716 38.4528 32.111 38.4528C31.5283 38.4528 30.9456 38.4531 30.3629 38.4537C30.0314 38.4537 29.8365 38.3487 29.7305 38.1127C29.6293 37.8901 29.6656 37.6838 29.8241 37.5644C29.9917 37.4424 30.192 37.3736 30.3992 37.3667C31.7509 37.3457 33.1216 37.3447 34.4685 37.3638C34.6833 37.3738 34.8976 37.3359 35.0959 37.2528C35.2941 37.1697 35.4714 37.0435 35.6148 36.8833C35.9788 36.505 36.358 36.1287 36.7248 35.7647C37.0085 35.482 37.3027 35.1906 37.5922 34.8955C37.6868 34.7915 37.8033 34.71 37.9334 34.6566C38.0634 34.6033 38.2036 34.5794 38.344 34.5869C38.6821 34.5946 39.0251 34.5926 39.3565 34.5917C39.6479 34.5907 39.9497 34.5888 40.2449 34.5936C40.649 34.6012 40.8629 34.8123 40.8639 35.2059Z" fill="#23183D"/>
<path d="M37.0078 30.9804C37.0107 30.4708 37.2152 29.983 37.5765 29.6236C37.9379 29.2642 38.4268 29.0624 38.9364 29.0623H38.946C39.4575 29.0638 39.9475 29.2685 40.3081 29.6312C40.6687 29.994 40.8704 30.4852 40.8689 30.9967C40.8674 31.5082 40.6627 31.9981 40.3 32.3587C39.9372 32.7194 39.446 32.9211 38.9345 32.9196H38.925C38.416 32.9091 37.9311 32.7008 37.5732 32.3387C37.2153 31.9767 37.0125 31.4895 37.0078 30.9804Z" fill="#23183D"/>
<path d="M28.4792 29.9086C28.4753 30.4173 28.2707 30.9038 27.9098 31.2623C27.549 31.6208 27.0611 31.8223 26.5525 31.8229H26.5372C26.0258 31.8213 25.536 31.6165 25.1756 31.2538C24.8152 30.891 24.6136 30.3999 24.6152 29.8885C24.6169 29.3772 24.8216 28.8874 25.1844 28.5269C25.5471 28.1665 26.0382 27.9649 26.5496 27.9666H26.5639C27.0729 27.9783 27.5573 28.1874 27.9147 28.5499C28.2722 28.9123 28.4746 29.3996 28.4792 29.9086Z" fill="#23183D"/>
<path d="M30.6652 35.9674C30.3354 35.9854 30.0129 36.0722 29.7186 36.2222C29.4243 36.3722 29.1646 36.5822 28.9563 36.8386C28.5513 37.3563 28.4042 38.0193 28.535 38.7204H24.5765C24.6921 37.9734 24.5402 37.3143 24.1333 36.8061C23.9243 36.5577 23.6672 36.3541 23.3774 36.2077C23.0876 36.0612 22.7712 35.975 22.4473 35.954C22.7644 35.2644 23.349 34.6587 24.0674 34.2212C24.8 33.772 25.6375 33.5224 26.4965 33.4971C28.1998 33.4647 29.9173 34.4916 30.6652 35.9674Z" fill="#23183D"/>
<path d="M16.0972 31.0187C16.089 31.525 15.8822 32.0078 15.5215 32.3631C15.1608 32.7185 14.6749 32.918 14.1686 32.9187H14.1409C13.632 32.9115 13.1467 32.7034 12.7906 32.3398C12.4346 31.9762 12.2368 31.4866 12.2403 30.9777C12.2438 30.4688 12.4484 29.982 12.8095 29.6233C13.1705 29.2647 13.6587 29.0634 14.1676 29.0633H14.1972C14.7059 29.0784 15.1888 29.291 15.5434 29.656C15.8981 30.021 16.0967 30.5098 16.0972 31.0187Z" fill="#23183D"/>
<path d="M23.3889 37.9713C23.3545 38.1462 23.089 38.3496 22.9887 38.427C22.905 38.4546 22.8163 38.4634 22.7289 38.4528C22.6983 38.4518 22.6687 38.4509 22.641 38.4509L22.1634 38.4518C20.6436 38.4547 19.0722 38.4576 17.5352 38.4442C17.3803 38.4339 17.233 38.3739 17.1149 38.2732C16.9286 38.1118 16.7509 37.9303 16.579 37.7545C16.4586 37.6313 16.3344 37.5052 16.2064 37.3839C15.7938 36.9913 15.3171 36.9703 14.9646 37.3275C14.616 37.681 14.6427 38.1567 15.0363 38.5684C15.1834 38.7222 15.3362 38.8741 15.4852 39.0212C15.6505 39.1845 15.8215 39.3545 15.9839 39.5265C16.0444 39.5895 16.0824 39.6708 16.0918 39.7577C16.1004 40.6776 16.0985 41.6127 16.0966 42.5164L16.0956 42.9998H12.2441C12.2403 42.9358 12.2374 42.8746 12.2374 42.8125C12.2364 40.3365 12.2361 37.8599 12.2364 35.3826C12.2374 34.7627 12.4065 34.5926 13.0255 34.5917C13.2079 34.5917 13.3904 34.5926 13.5719 34.5936C13.9607 34.5955 14.3619 34.5974 14.7602 34.5869C14.901 34.5794 15.0417 34.6034 15.1721 34.6571C15.3025 34.7108 15.4192 34.7929 15.5139 34.8974C15.8435 35.2336 16.1826 35.5708 16.5102 35.8975C16.856 36.2424 17.2142 36.5987 17.5591 36.9511C17.686 37.0872 17.8408 37.1944 18.0129 37.2653C18.185 37.3361 18.3704 37.3691 18.5563 37.3619C19.9672 37.3504 21.3609 37.3504 22.7012 37.3638C22.9237 37.3657 23.1062 37.4116 23.1769 37.4813C23.3116 37.617 23.4128 37.851 23.3889 37.9713Z" fill="#23183D"/>
<path d="M35.7955 40.1391H17.3125V42.9914H35.7955V40.1391Z" fill="#23183D"/>
<path d="M40.8639 35.2059C40.8649 37.8032 40.8645 40.4012 40.8629 42.9998H37.0066C37.0076 42.7953 37.0123 42.59 37.0162 42.3903C37.0384 41.8184 37.0292 41.2456 36.9885 40.6747C36.9168 39.8599 37.1442 39.3144 37.7269 38.9046L37.7355 38.8979C37.8392 38.8134 37.9349 38.7194 38.0211 38.6171C38.4576 38.1662 38.5016 37.6972 38.1414 37.3294C38.063 37.242 37.9655 37.1738 37.8566 37.1301C37.7476 37.0864 37.63 37.0683 37.5129 37.0772C37.2571 37.1141 37.0221 37.2387 36.848 37.4297C36.7372 37.5377 36.6283 37.6485 36.5194 37.7583C36.3332 37.9475 36.1402 38.1423 35.9434 38.3219C35.8619 38.3941 35.7588 38.4374 35.6502 38.4451C34.4714 38.4518 33.2716 38.4528 32.111 38.4528C31.5283 38.4528 30.9456 38.4531 30.3629 38.4537C30.0314 38.4537 29.8365 38.3487 29.7305 38.1127C29.6293 37.8901 29.6656 37.6838 29.8241 37.5644C29.9917 37.4424 30.192 37.3736 30.3992 37.3667C31.7509 37.3457 33.1216 37.3447 34.4685 37.3638C34.6833 37.3738 34.8976 37.3359 35.0959 37.2528C35.2941 37.1697 35.4714 37.0435 35.6148 36.8833C35.9788 36.505 36.358 36.1287 36.7248 35.7647C37.0085 35.482 37.3027 35.1906 37.5922 34.8955C37.6868 34.7915 37.8033 34.71 37.9334 34.6566C38.0634 34.6033 38.2036 34.5794 38.344 34.5869C38.6821 34.5946 39.0251 34.5926 39.3565 34.5917C39.6479 34.5907 39.9497 34.5888 40.2449 34.5936C40.649 34.6012 40.8629 34.8123 40.8639 35.2059Z" fill="#23183D"/>
<path d="M40.8641 31.0014C40.8603 31.5109 40.6554 31.9983 40.294 32.3575C39.9326 32.7167 39.4441 32.9187 38.9345 32.9196H38.925C38.416 32.9091 37.9311 32.7008 37.5732 32.3387C37.2153 31.9767 37.0125 31.4895 37.0078 30.9804C37.0107 30.4708 37.2152 29.983 37.5765 29.6236C37.9379 29.2642 38.4268 29.0624 38.9364 29.0623H38.946C39.4574 29.0653 39.9467 29.2713 40.3064 29.6349C40.6661 29.9985 40.8667 30.49 40.8641 31.0014Z" fill="#23183D"/>
<path d="M34.2114 19.0097C34.1755 19.0097 34.1397 19.009 34.1039 19.0076C32.2807 19.0084 30.4564 19.0086 28.6309 19.0082C26.792 19.0082 24.9532 19.0074 23.1144 19.006C22.9315 19.0121 22.7487 18.9932 22.571 18.9497C22.3943 18.8988 22.2389 18.792 22.1279 18.6454C22.0169 18.4989 21.9563 18.3203 21.9551 18.1364C21.9539 17.9526 22.0123 17.7733 22.1214 17.6253C22.2305 17.4773 22.3846 17.3686 22.5606 17.3154C22.7392 17.2696 22.9234 17.2496 23.1077 17.2561C26.7548 17.253 30.4669 17.2524 34.1388 17.2541C34.2649 17.2497 34.3911 17.2542 34.5164 17.2677C34.7313 17.287 34.9312 17.3857 35.0771 17.5445C35.223 17.7033 35.3044 17.9109 35.3053 18.1266C35.3063 18.3423 35.2268 18.5505 35.0823 18.7107C34.9378 18.8708 34.7388 18.9713 34.5242 18.9925C34.4203 19.0039 34.3159 19.0097 34.2114 19.0097ZM34.1057 18.9122C34.2421 18.9173 34.3786 18.9124 34.5143 18.8975C34.7052 18.8786 34.8823 18.7892 35.0108 18.6467C35.1394 18.5041 35.2101 18.3188 35.2092 18.1269C35.2083 17.935 35.1359 17.7503 35.006 17.609C34.8761 17.4677 34.6982 17.3799 34.5071 17.3629C34.3854 17.3497 34.2629 17.3453 34.1406 17.3497C30.4669 17.3479 26.7549 17.3485 23.106 17.3516C22.931 17.3454 22.7559 17.3642 22.5862 17.4074C22.4304 17.455 22.2941 17.5516 22.1977 17.6829C22.1012 17.8142 22.0497 17.9731 22.0507 18.136C22.0518 18.2989 22.1054 18.4571 22.2036 18.5871C22.3018 18.717 22.4393 18.8119 22.5958 18.8574C22.7648 18.8987 22.9388 18.9165 23.1127 18.9105C24.9532 18.9119 26.7926 18.9126 28.6309 18.9126C30.4558 18.9132 32.2807 18.9131 34.1057 18.9124V18.9122Z" fill="#23183D"/>
<path d="M34.2068 14.8611C34.1725 14.8611 34.1382 14.8605 34.1037 14.8594C32.2809 14.8604 30.4566 14.8604 28.6308 14.8594C26.792 14.8594 24.9531 14.8588 23.1142 14.8575C22.9314 14.8639 22.7486 14.8451 22.571 14.8017C22.3943 14.7507 22.2388 14.6439 22.1279 14.4972C22.0169 14.3506 21.9563 14.172 21.9551 13.9881C21.9539 13.8042 22.0123 13.6249 22.1214 13.4768C22.2305 13.3288 22.3846 13.2201 22.5606 13.1668C22.7391 13.1213 22.9232 13.1014 23.1072 13.1076C27.0459 13.1043 30.6546 13.1038 34.1388 13.1056C34.2649 13.1015 34.3911 13.1061 34.5165 13.1192C34.7451 13.1402 34.956 13.2509 35.1031 13.4271C35.2501 13.6033 35.3214 13.8307 35.3011 14.0593C35.2834 14.2602 35.196 14.4486 35.054 14.5919C34.912 14.7351 34.7244 14.8243 34.5237 14.8438C34.4184 14.8555 34.3127 14.8612 34.2068 14.8611ZM34.1054 14.7639C34.2417 14.7687 34.3781 14.7637 34.5137 14.7489C34.6924 14.7316 34.8594 14.6524 34.9859 14.5249C35.1123 14.3975 35.1902 14.2298 35.206 14.051C35.224 13.8474 35.1605 13.645 35.0294 13.4882C34.8984 13.3314 34.7106 13.2329 34.507 13.2144C34.3852 13.2015 34.2627 13.1971 34.1403 13.2012C30.655 13.1995 27.046 13.1999 23.1057 13.2031C22.9308 13.1973 22.756 13.2161 22.5863 13.2589C22.4305 13.3065 22.2942 13.4032 22.1976 13.5345C22.1011 13.6658 22.0496 13.8248 22.0506 13.9878C22.0517 14.1507 22.1054 14.309 22.2036 14.4391C22.3018 14.5691 22.4394 14.6639 22.5959 14.7095C22.765 14.7505 22.9389 14.7682 23.1128 14.7621C24.9532 14.764 26.7927 14.7646 28.6311 14.764C30.4556 14.7649 32.2803 14.7648 34.1054 14.7639Z" fill="#23183D"/>
<path d="M37.3419 9H17.1528C16.3179 9 16.0352 9.27893 16.0352 10.1062V21.9961C16.0361 22.8319 16.315 23.1137 17.1404 23.1137C20.9652 23.1166 24.8502 23.1157 28.6969 23.1099C28.7759 23.105 28.8548 23.1187 28.9275 23.1499C29.0002 23.1811 29.0645 23.2289 29.1153 23.2895C29.8279 24.0862 30.5597 24.8886 31.2665 25.6652C31.5015 25.9231 31.7368 26.1814 31.9725 26.4399C32.0594 26.5354 32.1463 26.6329 32.2332 26.7293C32.4281 26.9481 32.6297 27.1735 32.8389 27.3875C32.9218 27.4775 33.0217 27.55 33.1329 27.601C33.2441 27.652 33.3643 27.6804 33.4865 27.6846H33.5133C33.6131 27.6803 33.7109 27.6548 33.8002 27.6099C33.8894 27.5649 33.9681 27.5015 34.031 27.4238C34.1941 27.2121 34.2848 26.9536 34.2899 26.6864C34.3061 25.7798 34.3042 24.8886 34.3023 23.9458C34.3014 23.6707 34.3007 23.3933 34.3004 23.1137H37.3362C38.1682 23.1128 38.45 22.8339 38.45 22.0057V10.1148C38.45 9.2818 38.1701 9 37.3419 9ZM21.0664 18.1188C21.0697 18.3134 20.9956 18.5014 20.8604 18.6415C20.7251 18.7815 20.5399 18.8622 20.3452 18.8658H20.3328C20.1404 18.8647 19.9562 18.7881 19.8197 18.6526C19.6832 18.5171 19.6053 18.3334 19.6028 18.141C19.6003 17.9487 19.6733 17.763 19.8063 17.624C19.9392 17.485 20.1214 17.4037 20.3137 17.3976H20.3223C20.5148 17.4002 20.699 17.4762 20.8373 17.6101C20.9756 17.7439 21.0575 17.9255 21.0664 18.1178V18.1188ZM20.3299 14.7162H20.329C20.1839 14.7155 20.0422 14.6717 19.922 14.5904C19.8017 14.5092 19.7083 14.3941 19.6535 14.2597C19.5986 14.1253 19.5849 13.9777 19.614 13.8355C19.6431 13.6934 19.7138 13.563 19.817 13.461C19.8855 13.3932 19.9666 13.3396 20.0558 13.3032C20.145 13.2668 20.2405 13.2484 20.3369 13.2489C20.4332 13.2494 20.5285 13.269 20.6173 13.3063C20.7061 13.3437 20.7866 13.3982 20.8544 13.4667C20.9224 13.5351 20.9762 13.6164 21.0126 13.7058C21.049 13.7951 21.0673 13.8908 21.0664 13.9873C21.0592 14.1797 20.9791 14.362 20.8423 14.4974C20.7055 14.6328 20.5223 14.711 20.3299 14.7162ZM22.0331 13.7581C22.0705 13.6294 22.1394 13.512 22.2337 13.4168C22.3279 13.3215 22.4445 13.2513 22.5729 13.2126C22.7463 13.1688 22.9251 13.1495 23.104 13.1553C26.7817 13.1525 30.4594 13.1518 34.1371 13.1534C34.2614 13.1493 34.3859 13.1537 34.5096 13.1668C34.7125 13.185 34.9014 13.2782 35.0392 13.4283C35.1771 13.5783 35.254 13.7744 35.255 13.9781C35.2559 14.1819 35.1808 14.3787 35.0444 14.53C34.908 14.6813 34.72 14.7763 34.5172 14.7964C34.3799 14.8115 34.2417 14.8167 34.1036 14.8117C32.2791 14.8127 30.4543 14.8127 28.6291 14.8117C26.7903 14.8117 24.9514 14.8111 23.1126 14.8098C22.9336 14.8161 22.7545 14.7978 22.5805 14.7554C22.4791 14.7258 22.3844 14.6766 22.302 14.6105C22.2196 14.5444 22.1511 14.4627 22.1002 14.3701C22.0494 14.2775 22.0173 14.1758 22.0058 14.0708C21.9943 13.9657 22.0036 13.8595 22.0331 13.7581ZM35.2519 18.2033C35.235 18.3931 35.1524 18.5711 35.0183 18.7065C34.8843 18.8419 34.7072 18.9263 34.5175 18.9452C34.3801 18.9604 34.2418 18.9654 34.1037 18.9601C32.2787 18.961 30.4538 18.9612 28.6289 18.9606C26.7901 18.9606 24.9512 18.9599 23.1124 18.9584C22.9334 18.9646 22.7544 18.9461 22.5804 18.9035C22.4139 18.855 22.2676 18.7541 22.1631 18.6156C22.0587 18.4772 22.0018 18.3088 22.0009 18.1354C22 17.962 22.0552 17.793 22.1582 17.6535C22.2612 17.514 22.4065 17.4115 22.5725 17.3614C22.746 17.317 22.925 17.2977 23.1041 17.304C26.7817 17.301 30.4594 17.3004 34.1371 17.3022C34.2615 17.2977 34.386 17.3021 34.5097 17.3155C34.7258 17.3348 34.9255 17.4392 35.0646 17.6057C35.2038 17.7722 35.2712 17.9872 35.2519 18.2033Z" fill="#23183D"/>
</svg>
