<svg width="53" height="53" viewBox="0 0 53 53" fill="none" xmlns="http://www.w3.org/2000/svg">
<rect width="53" height="53" rx="26.5" fill="white"/>
<path d="M31.8281 10C32.0333 10.0582 32.239 10.1135 32.4435 10.175C33.2638 10.42 33.9835 10.9225 34.4961 11.6081C35.0088 12.2938 35.2871 13.1263 35.2899 13.9824C35.3136 16.671 35.3008 19.3599 35.2939 22.0487C35.2922 22.7452 34.8171 23.2158 34.1706 23.204C33.5446 23.1925 33.1121 22.7216 33.1113 22.0277C33.1077 19.4415 33.1071 16.8553 33.1093 14.269C33.1093 12.9069 32.3852 12.1876 31.018 12.1876C25.5949 12.1876 20.1717 12.1876 14.7486 12.1876C13.4078 12.1876 12.687 12.9114 12.687 14.2576C12.687 21.6289 12.687 29.0003 12.687 36.3716C12.687 37.7152 13.4094 38.4372 14.7536 38.4373C17.317 38.4373 19.8805 38.4378 22.4439 38.4386C23.2841 38.4397 23.8348 39.1682 23.5519 39.9063C23.3808 40.3526 23.0405 40.6175 22.5624 40.6186C19.7939 40.6267 17.0249 40.6546 14.2571 40.6067C12.4625 40.5757 10.9279 39.1657 10.5685 37.3606C10.5497 37.2854 10.5269 37.2113 10.5 37.1386V13.4863C10.5233 13.4126 10.5525 13.3402 10.5689 13.2649C10.8667 11.8962 11.6444 10.9078 12.9255 10.3379C13.2625 10.1879 13.6319 10.1105 13.9863 10H31.8281Z" fill="#23183D"/>
<path d="M26.5488 35.5057C26.5501 34.2617 26.7965 33.0301 27.274 31.8814C27.7515 30.7327 28.4508 29.6893 29.3318 28.811C30.2128 27.9327 31.2583 27.2366 32.4085 26.7626C33.5586 26.2886 34.791 26.046 36.035 26.0485C41.2683 26.0604 45.5095 30.3116 45.4995 35.5352C45.4894 40.7588 41.2248 45.0115 36.0058 45.0001C33.4932 44.9934 31.086 43.9898 29.3128 42.2096C27.5397 40.4294 26.5456 38.0183 26.5488 35.5057ZM40.2565 29.6369C37.5026 27.5182 33.2166 27.7339 30.5896 30.6647C27.9889 33.5663 28.3748 37.6247 30.1546 39.7423L40.2565 29.6369ZM41.9209 31.3096L31.8114 41.4207C34.4576 43.4495 38.526 43.3328 41.1844 40.6597C43.8499 37.9791 43.9279 33.9266 41.9207 31.3096H41.9209Z" fill="#23183D"/>
<path d="M22.8801 27.4998C21.3652 27.4998 19.8502 27.4998 18.3353 27.4998C17.4825 27.4992 17.087 27.0757 17.0589 26.2148C17.0235 25.1358 17.2042 24.1258 17.8856 23.2559C18.6592 22.2685 19.6717 21.7096 20.9333 21.6824C22.197 21.655 23.4619 21.6614 24.7261 21.6756C26.9426 21.7004 28.6472 23.3773 28.7325 25.6003C28.7422 25.8505 28.7426 26.1017 28.7345 26.3519C28.7119 27.0572 28.2661 27.4966 27.5616 27.4985C26.0011 27.5026 24.4406 27.4998 22.8801 27.4998Z" fill="#23183D"/>
<path d="M22.8975 20.2007C22.3212 20.2005 21.7579 20.0292 21.2789 19.7087C20.7999 19.3882 20.4268 18.9327 20.2068 18.4C19.9868 17.8673 19.9299 17.2813 20.0431 16.7162C20.1564 16.1511 20.4347 15.6323 20.843 15.2255C21.2513 14.8187 21.7711 14.5422 22.3366 14.431C22.9021 14.3197 23.4879 14.3788 24.0198 14.6007C24.5517 14.8226 25.0058 15.1974 25.3246 15.6775C25.6435 16.1577 25.8126 16.7216 25.8108 17.2979C25.812 17.6804 25.7373 18.0592 25.5912 18.4126C25.4451 18.766 25.2304 19.087 24.9595 19.3569C24.6886 19.6268 24.3669 19.8403 24.013 19.9852C23.6591 20.13 23.2799 20.2032 22.8975 20.2007Z" fill="#23183D"/>
<path d="M20.4028 31.8749C19.4461 31.8749 18.4893 31.8771 17.5327 31.8742C16.8357 31.872 16.3385 31.4212 16.3302 30.7922C16.3218 30.1494 16.8233 29.6889 17.5424 29.6882C19.4558 29.6862 21.3692 29.6862 23.2826 29.6882C23.9808 29.689 24.4752 30.1381 24.4837 30.769C24.4924 31.4088 23.9876 31.8724 23.2728 31.874C22.3165 31.8768 21.3595 31.8749 20.4028 31.8749Z" fill="#23183D"/>
<path d="M20.0024 36.25C19.1713 36.25 18.3403 36.2532 17.5097 36.249C16.824 36.2456 16.3225 35.7719 16.3302 35.1456C16.3381 34.5238 16.8238 34.0657 17.4948 34.064C19.1452 34.06 20.7956 34.06 22.4459 34.064C23.1347 34.0653 23.6283 34.5331 23.6228 35.1663C23.6175 35.7857 23.1297 36.2453 22.4608 36.2492C21.6414 36.2537 20.8218 36.25 20.0024 36.25Z" fill="#23183D"/>
</svg>
