<svg width="54" height="53" viewBox="0 0 54 53" fill="none" xmlns="http://www.w3.org/2000/svg">
<rect width="53" height="53" rx="26.5" fill="white"/>
<path d="M30.0479 28.8295C30.6961 28.2168 31.1447 27.4231 31.3353 26.5518C31.5258 25.6805 31.4495 24.772 31.1162 23.9448C30.7829 23.1175 30.2081 22.4098 29.4668 21.9139C28.7254 21.4181 27.8519 21.157 26.96 21.1649C26.0682 21.1727 25.1994 21.449 24.4668 21.9578C23.7343 22.4666 23.172 23.1842 22.8533 24.0172C22.5345 24.8502 22.4741 25.7599 22.6799 26.6277C22.8857 27.4955 23.3482 28.2812 24.007 28.8824C23.5602 29.1704 23.1034 29.4319 22.683 29.7497C22.2626 30.0674 21.8886 30.4613 21.4881 30.8254C20.447 29.5755 19.8818 27.9974 19.8927 26.3708C19.9036 24.7441 20.4899 23.1738 21.5477 21.9379C22.1586 21.2053 22.9113 20.6037 23.7605 20.1693C24.6097 19.7349 25.538 19.4765 26.4895 19.4097C27.4411 19.3429 28.3963 19.4691 29.2979 19.7807C30.1994 20.0923 31.0288 20.5829 31.736 21.2229C33.0874 22.4061 33.9284 24.0664 34.0827 25.8559C34.2369 27.6454 33.6925 29.4251 32.5635 30.8221L30.0479 28.8295Z" fill="#523C87"/>
<path d="M26.9349 28.2606C26.4113 28.244 25.9044 28.0723 25.4783 27.7675C25.0522 27.4627 24.7262 27.0383 24.5413 26.5481C24.3565 26.0578 24.3213 25.5238 24.44 25.0136C24.5588 24.5033 24.8263 24.0397 25.2086 23.6815C25.5909 23.3233 26.0708 23.0866 26.5877 23.0012C27.1046 22.9159 27.6352 22.9858 28.1124 23.2021C28.5896 23.4184 28.9919 23.7713 29.2684 24.2163C29.5449 24.6613 29.6831 25.1783 29.6657 25.7019C29.6364 26.4011 29.3339 27.0609 28.8233 27.5394C28.3126 28.0179 27.6345 28.2768 26.9349 28.2606Z" fill="#523C87"/>
<path d="M31.2179 32.1382C30.016 33.065 28.5425 33.5704 27.0247 33.5764C25.507 33.5824 24.0295 33.0886 22.8203 32.1713C23.3051 31.5154 23.9365 30.9817 24.664 30.613C25.3915 30.2442 26.1952 30.0505 27.0108 30.0473C27.8265 30.0441 28.6316 30.2314 29.362 30.5945C30.0925 30.9575 30.728 31.4861 31.2179 32.1382Z" fill="#523C87"/>
<path d="M45.7258 27.1562C45.5989 30.7919 44.4163 34.3122 42.3222 37.2875C40.2282 40.2628 37.3133 42.5642 33.9336 43.9109C30.5538 45.2575 26.8554 45.591 23.2898 44.8708C19.7242 44.1505 16.4458 42.4077 13.8547 39.8549L16.0458 37.63C18.2857 39.8361 21.1398 41.3142 24.2343 41.8708C27.3289 42.4273 30.5196 42.0364 33.3888 40.7491C36.2579 39.4618 38.6717 37.3382 40.314 34.6564C41.9564 31.9746 42.7508 28.8595 42.5931 25.7191L39.4095 28.9519C39.119 29.247 38.7232 29.4145 38.3092 29.4178C37.8951 29.421 37.4968 29.2596 37.2019 28.9692C36.9069 28.6787 36.7395 28.2829 36.7364 27.8689C36.7332 27.4549 36.8947 27.0566 37.1853 26.7615L42.2882 21.5797C42.5788 21.2847 42.9746 21.1171 43.3886 21.1139C43.8026 21.1106 44.2009 21.272 44.4959 21.5625L49.6718 26.6596C49.9667 26.95 50.1342 27.3458 50.1373 27.7598C50.1404 28.1739 49.9789 28.5722 49.6884 28.8672C49.3978 29.1623 49.002 29.3298 48.588 29.3331C48.174 29.3363 47.7757 29.1749 47.4807 28.8845L45.7235 27.154L45.7258 27.1562ZM11.4112 27.294L14.5947 24.0612C14.8853 23.7662 15.2811 23.5986 15.6951 23.5954C16.1092 23.5921 16.5074 23.7535 16.8024 24.044C17.0974 24.3344 17.2648 24.7302 17.2679 25.1442C17.271 25.5582 17.1096 25.9566 16.819 26.2516L11.7139 31.4357C11.4233 31.7307 11.0275 31.8983 10.6135 31.9015C10.1995 31.9047 9.80116 31.7434 9.50621 31.4529L4.32589 26.3514C4.03094 26.0609 3.86348 25.6652 3.86037 25.2512C3.85725 24.8371 4.01873 24.4388 4.30928 24.1438C4.59984 23.8487 4.99566 23.6811 5.40967 23.6779C5.82369 23.6747 6.22199 23.836 6.51694 24.1265L8.27411 25.8569C8.39855 22.2194 9.57991 18.6966 11.6738 15.719C13.7678 12.7414 16.6835 10.438 20.0648 9.09036C23.4461 7.74268 27.1465 7.40907 30.7138 8.13031C34.281 8.85154 37.5606 10.5964 40.1517 13.1516L37.9607 15.3765C35.7205 13.17 32.866 11.6918 29.771 11.1353C26.676 10.5789 23.4849 10.9703 20.6155 12.2581C17.7462 13.546 15.3324 15.6703 13.6904 18.3528C12.0484 21.0354 11.2548 24.151 11.4133 27.2918L11.4112 27.294Z" fill="#523C87"/>
</svg>
