<svg width="53" height="53" viewBox="0 0 53 53" fill="none" xmlns="http://www.w3.org/2000/svg">
<rect width="53" height="53" rx="26.5" fill="white"/>
<path d="M42.8967 40.5814C43.1961 40.2974 43.4029 39.9299 43.4905 39.5267C43.578 39.1235 43.5421 38.7033 43.3875 38.3208C43.2329 37.9382 42.9667 37.6111 42.6235 37.382C42.2804 37.1529 41.8763 37.0324 41.4637 37.0362C41.0511 37.0399 40.6492 37.1678 40.3104 37.4032C39.9715 37.6386 39.7113 37.9705 39.5637 38.3558C39.4162 38.7411 39.388 39.1619 39.4829 39.5634C39.5778 39.9649 39.7914 40.3286 40.0958 40.607C39.882 40.7396 39.6682 40.8593 39.4865 41.009C39.3047 41.1587 39.1187 41.3383 38.9348 41.5072C38.4519 40.9277 38.1899 40.1959 38.1954 39.4416C38.2009 38.6873 38.4735 37.9594 38.9648 37.387C39.2478 37.0478 39.5964 36.7692 39.9897 36.568C40.383 36.3668 40.8129 36.2472 41.2536 36.2162C41.6943 36.1853 42.1367 36.2437 42.5542 36.3879C42.9718 36.5322 43.3559 36.7593 43.6836 37.0556C44.3054 37.6047 44.692 38.372 44.7632 39.1984C44.8345 40.0248 44.5849 40.847 44.0663 41.4944L42.8967 40.5814Z" fill="#0E918C"/>
<path d="M41.4527 40.3179C41.2082 40.3114 40.9712 40.2323 40.7717 40.0908C40.5722 39.9493 40.4193 39.7516 40.3324 39.523C40.2455 39.2944 40.2286 39.0451 40.2837 38.8068C40.3388 38.5685 40.4634 38.3519 40.6419 38.1847C40.8203 38.0174 41.0444 37.9069 41.2858 37.8673C41.5271 37.8277 41.7748 37.8607 41.9974 37.9621C42.2199 38.0636 42.4073 38.2289 42.5357 38.4371C42.6641 38.6452 42.7277 38.8869 42.7185 39.1313C42.7051 39.4555 42.565 39.7615 42.3282 39.9834C42.0915 40.2054 41.7771 40.3255 41.4527 40.3179Z" fill="#0E918C"/>
<path d="M43.4379 42.1138C42.8809 42.5415 42.199 42.7746 41.4969 42.7773C40.7947 42.78 40.111 42.5522 39.5508 42.1288C39.775 41.8249 40.0672 41.5777 40.404 41.4069C40.7408 41.236 41.1129 41.1463 41.4906 41.1449C41.8682 41.1434 42.241 41.2303 42.5791 41.3985C42.9172 41.5667 43.2113 41.8117 43.4379 42.1138Z" fill="#0E918C"/>
<path d="M14.6383 40.5815C14.9379 40.2977 15.1451 39.9302 15.2328 39.5269C15.3206 39.1236 15.2849 38.7033 15.1303 38.3206C14.9758 37.9379 14.7096 37.6106 14.3664 37.3814C14.0232 37.1521 13.6189 37.0315 13.2063 37.0353C12.7936 37.0391 12.3916 37.1671 12.0526 37.4026C11.7137 37.6381 11.4535 37.9702 11.3061 38.3556C11.1586 38.7411 11.1306 39.162 11.2257 39.5636C11.3209 39.9652 11.5347 40.3289 11.8395 40.6072C11.6257 40.7398 11.4226 40.8595 11.2301 41.0092C11.0377 41.1588 10.8624 41.3384 10.6764 41.5073C10.1938 40.9277 9.93211 40.196 9.93758 39.4418C9.94306 38.6876 10.2154 37.9598 10.7063 37.3872C10.9895 37.0479 11.3383 36.7693 11.7318 36.5681C12.1252 36.3668 12.5553 36.2472 12.9962 36.2162C13.4371 36.1853 13.8796 36.2437 14.2974 36.388C14.7151 36.5322 15.0994 36.7594 15.4272 37.0558C16.049 37.6048 16.4356 38.3721 16.5069 39.1986C16.5782 40.025 16.3286 40.8471 15.81 41.4945L14.6383 40.5815Z" fill="#0E918C"/>
<path d="M13.1908 40.3179C12.9464 40.3109 12.7096 40.2315 12.5104 40.0897C12.3112 39.9479 12.1587 39.7502 12.0721 39.5215C11.9855 39.2929 11.9689 39.0436 12.0242 38.8055C12.0795 38.5673 12.2044 38.351 12.3829 38.1839C12.5614 38.0169 12.7855 37.9066 13.0268 37.8672C13.2681 37.8277 13.5156 37.8608 13.738 37.9623C13.9605 38.0638 14.1477 38.2291 14.276 38.4372C14.4043 38.6454 14.4679 38.8869 14.4587 39.1312C14.4459 39.456 14.3056 39.7627 14.0683 39.9848C13.831 40.2069 13.5157 40.3266 13.1908 40.3179Z" fill="#0E918C"/>
<path d="M15.1744 42.1138C14.6173 42.542 13.935 42.7754 13.2323 42.7781C12.5296 42.7808 11.8455 42.5527 11.2852 42.1288C11.5096 41.8249 11.802 41.5777 12.139 41.4069C12.476 41.236 12.8482 41.1463 13.226 41.1449C13.6038 41.1434 13.9767 41.2303 14.315 41.3985C14.6533 41.5667 14.9476 41.8117 15.1744 42.1138Z" fill="#0E918C"/>
<path d="M22.8424 15.2618V13.6005C22.2523 13.6005 21.6771 13.6005 21.102 13.6005C20.9422 13.6306 20.777 13.6045 20.6343 13.5265C20.4916 13.4486 20.3804 13.3236 20.3194 13.1729C20.1826 12.8094 20.3707 12.5657 20.6466 12.3476C22.7205 10.6955 24.7916 9.03991 26.8599 7.38073C26.9233 7.30409 27.0028 7.24238 27.0928 7.20003C27.1828 7.15767 27.2811 7.13571 27.3805 7.13571C27.48 7.13571 27.5783 7.15767 27.6683 7.20003C27.7582 7.24238 27.8378 7.30409 27.9012 7.38073L34.1466 12.3732C34.283 12.4498 34.3882 12.5717 34.4441 12.7178C34.4999 12.8638 34.5029 13.0249 34.4524 13.1729C34.3992 13.3202 34.2967 13.4446 34.1622 13.5249C34.0278 13.6052 33.8696 13.6365 33.7147 13.6133C33.1267 13.6133 32.5366 13.6133 31.9294 13.6133V15.2276C32.8937 15.5013 33.8537 15.7429 34.7945 16.0486C35.7248 16.333 36.5866 16.8061 37.326 17.4384C37.6535 17.6657 37.9204 17.9697 38.1033 18.3239C38.2862 18.6781 38.3797 19.0716 38.3755 19.4703C38.3713 19.8689 38.2695 20.2604 38.0791 20.6106C37.8887 20.9609 37.6155 21.2592 37.2832 21.4795C36.3391 22.228 35.2455 22.7653 34.076 23.0552C31.0733 23.8919 27.9394 24.1538 24.8394 23.8271C22.8896 23.7025 20.9748 23.25 19.1755 22.4886C18.4907 22.1797 17.8542 21.7736 17.2854 21.2827C17.008 21.0701 16.7822 20.7974 16.625 20.4852C16.4677 20.173 16.383 19.8293 16.3773 19.4798C16.3715 19.1303 16.4448 18.784 16.5917 18.4668C16.7386 18.1496 16.9553 17.8696 17.2256 17.648C18.2836 16.6995 19.5664 16.0371 20.9523 15.7236C21.5659 15.5355 22.1881 15.4136 22.8424 15.2618ZM31.9101 16.5981V19.1746C31.9101 19.8609 31.6963 20.064 31.0207 20.064H24.1531C22.9108 20.064 22.8595 20.0106 22.8595 18.7705V16.5917C21.6739 16.7827 20.5219 17.1427 19.4385 17.6608C18.9939 17.8833 18.5794 18.1613 18.2048 18.4882C18.0486 18.5882 17.92 18.7259 17.8309 18.8886C17.7418 19.0513 17.6951 19.2339 17.6951 19.4194C17.6951 19.6049 17.7418 19.7874 17.8309 19.9501C17.92 20.1129 18.0486 20.2506 18.2048 20.3505C18.4297 20.5832 18.6939 20.7743 18.9852 20.915C19.9125 21.3347 20.8668 21.6918 21.8418 21.984C24.4219 22.6246 27.0939 22.8105 29.7378 22.5335C31.5141 22.4254 33.2606 22.0267 34.9078 21.3533C35.4987 21.0978 36.053 20.7649 36.5563 20.3634C36.7225 20.265 36.8602 20.125 36.9558 19.9573C37.0515 19.7895 37.1018 19.5997 37.1018 19.4065C37.1018 19.2134 37.0515 19.0236 36.9558 18.8558C36.8602 18.6881 36.7225 18.5481 36.5563 18.4497C36.275 18.201 35.9657 17.9857 35.6347 17.8083C34.466 17.2068 33.2086 16.7961 31.9101 16.5917V16.5981ZM24.1809 13.6176V18.7384H30.5952V13.6176H24.1809ZM31.985 12.2898C30.4669 11.0754 29.0258 9.93791 27.5976 8.7705C27.3838 8.59945 27.2704 8.69781 27.1165 8.82182C26.1629 9.59011 25.2079 10.3548 24.2514 11.116L22.789 12.2898H31.985Z" fill="#0E918C"/>
<path d="M12.5197 30.4059C12.5197 29.7752 12.5197 29.2086 12.5197 28.6441C12.5197 28.039 12.7335 27.8209 13.3514 27.8209H26.7232V25.2552H28.0231V27.8209H41.3222C42.0684 27.8209 42.2566 28.0048 42.2566 28.7425C42.2566 29.2791 42.2566 29.8115 42.2566 30.4059C42.6671 30.4059 43.0519 30.4059 43.4368 30.4059C43.7447 30.4059 44.0462 30.4829 44.1125 30.7908C44.1627 31.0431 44.1178 31.3051 43.9863 31.5263C43.4176 32.343 42.8061 33.1299 42.2031 33.9231C42.1487 34.0341 42.0643 34.1276 41.9594 34.1931C41.8545 34.2585 41.7334 34.2932 41.6098 34.2932C41.4862 34.2932 41.365 34.2585 41.2602 34.1931C41.1553 34.1276 41.0708 34.0341 41.0165 33.9231C40.4135 33.1299 39.802 32.343 39.2333 31.5263C39.1026 31.3056 39.0592 31.044 39.1114 30.7929C39.1798 30.4829 39.4834 30.4059 39.7913 30.4123C40.1655 30.4123 40.5418 30.4123 40.9395 30.4123V29.1294H28.0638V30.4123C28.4337 30.4123 28.8078 30.4123 29.1799 30.4123C29.3204 30.3912 29.4641 30.4135 29.5917 30.4762C29.7193 30.5388 29.8247 30.6389 29.894 30.763C29.9589 30.8896 29.9821 31.0335 29.9602 31.174C29.9383 31.3146 29.8725 31.4447 29.7721 31.5455C29.1735 32.3409 28.5791 33.1427 27.9761 33.9338C27.926 34.0448 27.8452 34.1392 27.7434 34.206C27.6416 34.2728 27.5228 34.3092 27.401 34.311C27.2793 34.3128 27.1595 34.2799 27.0557 34.2161C26.952 34.1523 26.8685 34.0604 26.8151 33.9509C26.2015 33.1491 25.6007 32.3366 24.9934 31.5306C24.8993 31.4331 24.8372 31.3092 24.8154 31.1755C24.7936 31.0417 24.8132 30.9045 24.8716 30.7822C24.936 30.6552 25.0383 30.5514 25.1643 30.4851C25.2903 30.4188 25.4339 30.3934 25.575 30.4123C25.9492 30.4123 26.3233 30.4123 26.7189 30.4123V29.1508H13.841V30.4123C14.2272 30.3884 14.6145 30.3934 14.9999 30.4273C15.2524 30.4691 15.4844 30.5923 15.6606 30.7779C15.8616 31.0046 15.744 31.2847 15.5708 31.5156C14.955 32.3345 14.3478 33.1577 13.7256 33.968C13.6695 34.0662 13.5884 34.1478 13.4906 34.2046C13.3928 34.2614 13.2817 34.2913 13.1686 34.2913C13.0555 34.2913 12.9444 34.2614 12.8466 34.2046C12.7488 34.1478 12.6677 34.0662 12.6116 33.968C11.9809 33.1448 11.3501 32.3238 10.7579 31.4728C10.6927 31.3715 10.6516 31.2565 10.6379 31.1367C10.6242 31.017 10.6382 30.8957 10.6788 30.7822C10.7565 30.6824 10.8532 30.599 10.9633 30.5366C11.0734 30.4742 11.1946 30.4342 11.3202 30.4187C11.7192 30.3853 12.1201 30.381 12.5197 30.4059ZM13.1611 32.5568L13.7876 31.723H12.5411L13.1611 32.5568ZM28.0018 31.7358H26.7659L27.3881 32.5526L28.0018 31.7358ZM41.6066 32.5568L42.248 31.7016H40.9651L41.6066 32.5568Z" fill="#0E918C"/>
<path d="M14.6383 40.5815C14.9379 40.2977 15.1451 39.9302 15.2328 39.5269C15.3206 39.1236 15.2849 38.7033 15.1303 38.3206C14.9758 37.9379 14.7096 37.6106 14.3664 37.3814C14.0232 37.1521 13.6189 37.0315 13.2063 37.0353C12.7936 37.0391 12.3916 37.1671 12.0526 37.4026C11.7137 37.6381 11.4535 37.9702 11.3061 38.3556C11.1586 38.7411 11.1306 39.162 11.2257 39.5636C11.3209 39.9652 11.5347 40.3289 11.8395 40.6072C11.6257 40.7398 11.4226 40.8595 11.2301 41.0092C11.0377 41.1588 10.8624 41.3384 10.6764 41.5073C10.1938 40.9277 9.93211 40.196 9.93758 39.4418C9.94306 38.6876 10.2154 37.9598 10.7063 37.3872C10.9895 37.0479 11.3383 36.7693 11.7318 36.5681C12.1252 36.3668 12.5553 36.2472 12.9962 36.2162C13.4371 36.1853 13.8796 36.2437 14.2974 36.388C14.7151 36.5322 15.0994 36.7594 15.4272 37.0558C16.049 37.6048 16.4356 38.3721 16.5069 39.1986C16.5782 40.025 16.3286 40.8471 15.81 41.4945L14.6383 40.5815Z" fill="#0E918C"/>
<path d="M13.1908 40.3179C12.9464 40.3109 12.7096 40.2315 12.5104 40.0897C12.3112 39.9479 12.1587 39.7502 12.0721 39.5215C11.9855 39.2929 11.9689 39.0436 12.0242 38.8055C12.0795 38.5673 12.2044 38.351 12.3829 38.1839C12.5614 38.0169 12.7855 37.9066 13.0268 37.8672C13.2681 37.8277 13.5156 37.8608 13.738 37.9623C13.9605 38.0638 14.1477 38.2291 14.276 38.4372C14.4043 38.6454 14.4679 38.8869 14.4587 39.1312C14.4459 39.456 14.3056 39.7627 14.0683 39.9848C13.831 40.2069 13.5157 40.3266 13.1908 40.3179Z" fill="#0E918C"/>
<path d="M15.1744 42.1138C14.6173 42.542 13.935 42.7754 13.2323 42.7781C12.5296 42.7808 11.8455 42.5527 11.2852 42.1288C11.5096 41.8249 11.802 41.5777 12.139 41.4069C12.476 41.236 12.8482 41.1463 13.226 41.1449C13.6038 41.1434 13.9767 41.2303 14.315 41.3985C14.6533 41.5667 14.9476 41.8117 15.1744 42.1138Z" fill="#0E918C"/>
<path d="M28.525 40.5814C28.8246 40.2975 29.0318 39.93 29.1195 39.5268C29.2073 39.1235 29.1716 38.7031 29.0171 38.3204C28.8625 37.9377 28.5963 37.6105 28.2531 37.3812C27.9099 37.152 27.5057 37.0314 27.093 37.0352C26.6803 37.0389 26.2783 37.1669 25.9394 37.4024C25.6004 37.6379 25.3403 37.97 25.1928 38.3555C25.0453 38.7409 25.0173 39.1619 25.1124 39.5635C25.2076 39.9651 25.4214 40.3287 25.7262 40.607C25.5124 40.7396 25.2986 40.8593 25.1168 41.009C24.9351 41.1587 24.7469 41.3383 24.5631 41.5072C24.0805 40.9276 23.8188 40.1958 23.8243 39.4416C23.8298 38.6875 24.1021 37.9596 24.593 37.387C24.876 37.0478 25.2246 36.7692 25.6179 36.568C26.0112 36.3668 26.4411 36.2472 26.8818 36.2162C27.3225 36.1853 27.7649 36.2437 28.1825 36.3879C28.6001 36.5322 28.9842 36.7593 29.3118 37.0556C29.9335 37.6047 30.3201 38.3717 30.3918 39.198C30.4634 40.0243 30.2145 40.8465 29.6967 41.4944L28.525 40.5814Z" fill="#0E918C"/>
<path d="M27.0796 40.3179C26.8351 40.3114 26.5981 40.2323 26.3986 40.0908C26.1992 39.9493 26.0463 39.7516 25.9594 39.523C25.8725 39.2944 25.8555 39.0451 25.9106 38.8068C25.9657 38.5685 26.0904 38.3519 26.2688 38.1847C26.4473 38.0174 26.6714 37.9069 26.9127 37.8673C27.1541 37.8277 27.4018 37.8607 27.6243 37.9621C27.8469 38.0636 28.0342 38.2289 28.1626 38.4371C28.291 38.6452 28.3546 38.8869 28.3454 39.1313C28.332 39.4555 28.1919 39.7615 27.9552 39.9834C27.7185 40.2054 27.4041 40.3255 27.0796 40.3179Z" fill="#0E918C"/>
<path d="M29.0609 42.1138C28.504 42.5415 27.8221 42.7746 27.1199 42.7773C26.4177 42.78 25.734 42.5522 25.1738 42.1288C25.3981 41.8249 25.6903 41.5777 26.0271 41.4069C26.3639 41.236 26.736 41.1463 27.1136 41.1449C27.4913 41.1434 27.864 41.2303 28.2021 41.3985C28.5402 41.5667 28.8343 41.8117 29.0609 42.1138Z" fill="#0E918C"/>
</svg>
