<svg width="20" height="20" viewBox="0 0 20 20" fill="none" xmlns="http://www.w3.org/2000/svg">
<path d="M10 0C4.4782 0 0 4.4782 0 10C0 15.5218 4.4782 20 10 20C15.5218 20 20 15.5218 20 10C20 4.4782 15.5267 0 10 0ZM15.316 6.6585C13.3366 9.51004 11.3621 12.3665 9.38756 15.2229C9.30426 15.3405 9.25527 15.3356 9.15238 15.2523C7.67271 14.096 6.19304 12.9397 4.71338 11.7932C4.58599 11.6952 4.57129 11.6365 4.67908 11.5091C5.05145 11.0485 5.41891 10.583 5.77168 10.1078C5.86967 9.9755 5.92847 9.9559 6.07055 10.0637C6.91818 10.7349 7.7756 11.3915 8.62322 12.0676C8.78491 12.1999 8.8486 12.1656 8.95639 12.0088C10.4606 9.82362 11.9745 7.64821 13.4787 5.46791C13.5865 5.30622 13.6551 5.30622 13.8021 5.41401C14.2822 5.76188 14.7722 6.09505 15.2621 6.43312C15.3111 6.46742 15.3503 6.50171 15.3993 6.54091C15.365 6.58011 15.3454 6.6193 15.316 6.6585Z" fill="#198754"/>
<path d="M13.8017 5.41106C13.6498 5.30327 13.5861 5.30327 13.4783 5.46496C11.9742 7.65016 10.4602 9.82556 8.95603 12.0059C8.84824 12.1627 8.78945 12.1921 8.62286 12.0647C7.77524 11.3885 6.91782 10.7369 6.07019 10.0607C5.933 9.94805 5.87421 9.96765 5.77132 10.1048C5.41365 10.5801 5.05108 11.0456 4.67872 11.5061C4.57583 11.6335 4.59053 11.6923 4.71301 11.7903C6.19758 12.9417 7.67725 14.0931 9.15201 15.2494C9.25491 15.3327 9.3039 15.3376 9.38719 15.22C11.3617 12.3635 13.3411 9.51199 15.3157 6.65555C15.3402 6.61635 15.3647 6.57716 15.3941 6.52816C15.3451 6.48896 15.301 6.45467 15.2569 6.42037C14.7718 6.0921 14.277 5.75893 13.8017 5.41106Z" fill="white"/>
</svg>
