<svg width="40" height="35" viewBox="0 0 40 35" fill="none" xmlns="http://www.w3.org/2000/svg">
<path d="M20 34.7102C25.3418 34.7102 30.6836 34.7102 36.0253 34.7102C36.2627 34.7102 36.515 34.7102 36.7524 34.6957C38.2511 34.6233 39.4826 33.653 39.8833 32.2626C40.1652 31.2344 39.913 30.3075 39.3788 29.4096C35.2686 22.487 31.1881 15.5644 27.0927 8.64181C25.7424 6.36807 24.407 4.09432 23.0567 1.83507C22.2999 0.589578 21.2167 -0.0621315 19.7329 0.0392455C18.4123 0.12614 17.522 0.835779 16.884 1.93644C13.026 8.46802 9.16808 14.9996 5.2953 21.5312C3.7076 24.2104 2.11991 26.8897 0.547053 29.5689C-0.313566 31.0316 -0.150345 32.6102 0.977363 33.7254C1.73411 34.4785 2.68376 34.7391 3.75212 34.7391C9.16808 34.7102 14.584 34.7102 20 34.7102Z" fill="white"/>
<path d="M19.9993 34.7102C14.5833 34.7102 9.16737 34.6957 3.75141 34.7102C2.68305 34.7102 1.7334 34.464 0.976654 33.6964C-0.136215 32.5957 -0.314274 31.0027 0.546344 29.5399C2.1192 26.8607 3.72173 24.1815 5.29459 21.5022C9.15253 14.9706 13.0253 8.43906 16.8833 1.90748C17.5213 0.806818 18.4264 0.0971788 19.7322 0.0102843C21.216 -0.0910927 22.2992 0.560616 23.0263 1.80611C24.3766 4.07985 25.712 6.35359 27.0623 8.61284C31.1577 15.5354 35.253 22.458 39.3484 29.3806C39.8826 30.2786 40.1497 31.2054 39.8529 32.2337C39.4671 33.6385 38.2207 34.5943 36.722 34.6667C36.4846 34.6812 36.2472 34.6812 35.9949 34.6812C30.6828 34.7102 25.3411 34.7102 19.9993 34.7102ZM22.1063 16.752C22.1063 15.2168 22.1212 13.6817 22.0915 12.1321C22.0915 11.8424 22.0025 11.5238 21.8541 11.2631C21.4089 10.4231 20.6077 10.3073 19.7322 10.3363C18.6639 10.3797 17.8774 11.1038 17.8774 12.1321C17.8774 15.1734 17.8774 18.2147 17.8774 21.256C17.8774 21.4443 17.9071 21.647 17.9665 21.8353C18.2632 22.6898 18.8864 23.0084 19.9399 23.0808C21.3199 23.1822 22.1954 22.1684 22.136 20.9808C22.047 19.576 22.1063 18.1568 22.1063 16.752ZM22.1063 28.1352C22.1063 26.9766 21.1715 26.0352 19.9993 26.0207C18.8122 26.0062 17.8774 26.9621 17.8774 28.1641C17.8774 29.3227 18.8271 30.2206 20.0141 30.2351C21.0677 30.2641 22.2399 29.2213 22.1063 28.1352Z" fill="#F6830F"/>
<path d="M22.1078 16.752C22.1078 18.1568 22.0484 19.576 22.1226 20.9808C22.1968 22.1684 21.3065 23.1822 19.9265 23.0808C18.873 23.0084 18.2646 22.6898 17.953 21.8353C17.8937 21.647 17.864 21.4588 17.864 21.256C17.864 18.2147 17.8492 15.1734 17.864 12.1321C17.864 11.1038 18.6653 10.3652 19.7188 10.3363C20.5943 10.3073 21.3955 10.4232 21.8407 11.2631C21.9742 11.5238 22.0781 11.8424 22.0781 12.1321C22.1226 13.6672 22.1078 15.2024 22.1078 16.752Z" fill="white"/>
<path d="M22.1078 28.1352C22.2414 29.2213 21.0691 30.2641 20.0156 30.2496C18.8286 30.2351 17.8789 29.3372 17.8789 28.1786C17.8789 26.9766 18.8137 26.0207 20.0008 26.0352C21.173 26.0207 22.1078 26.9621 22.1078 28.1352Z" fill="white"/>
</svg>
