<svg width="30" height="29" viewBox="0 0 30 29" fill="none" xmlns="http://www.w3.org/2000/svg">
<path d="M0 11.43C0 11.28 0 11.12 0 10.97C0.06 10.86 0.12 10.76 0.18 10.65C1.49 8.38 2.81 6.1 4.12 3.83C4.46 3.24 4.9 3.12 5.49 3.45C6.03 3.76 6.57 4.06 7.1 4.38C7.23 4.46 7.32 4.45 7.45 4.37C8.14 3.96 8.83 3.56 9.53 3.17C9.69 3.08 9.74 3 9.74 2.82C9.73 2.19 9.73 1.56 9.74 0.93C9.74 0.35 10.08 0 10.66 0C13.34 0 16.01 0 18.69 0C19.27 0 19.61 0.35 19.61 0.93C19.61 1.56 19.62 2.19 19.61 2.82C19.61 3 19.67 3.08 19.82 3.17C20.52 3.55 21.22 3.96 21.9 4.37C22.03 4.45 22.12 4.46 22.25 4.38C22.79 4.06 23.34 3.75 23.89 3.43C24.43 3.12 24.9 3.24 25.2 3.77C26.53 6.07 27.85 8.37 29.18 10.66C29.49 11.2 29.37 11.66 28.84 11.97C28.29 12.29 27.74 12.62 27.18 12.93C27.04 13.01 27.02 13.09 27.02 13.25C27.03 14.05 27.03 14.85 27.02 15.65C27.02 15.8 27.04 15.89 27.18 15.97C27.74 16.28 28.29 16.6 28.84 16.93C29.37 17.24 29.49 17.71 29.19 18.24C27.87 20.54 26.54 22.84 25.21 25.13C24.9 25.66 24.43 25.78 23.9 25.48C23.35 25.17 22.81 24.85 22.26 24.53C22.13 24.45 22.04 24.46 21.91 24.54C21.21 24.95 20.51 25.36 19.8 25.75C19.66 25.83 19.61 25.9 19.61 26.05C19.62 26.69 19.62 27.33 19.61 27.97C19.61 28.55 19.27 28.9 18.69 28.9C16.01 28.9 13.34 28.9 10.66 28.9C10.08 28.9 9.74 28.55 9.74 27.97C9.74 27.34 9.73 26.71 9.74 26.08C9.74 25.9 9.69 25.82 9.53 25.73C8.83 25.35 8.13 24.95 7.45 24.53C7.31 24.45 7.23 24.44 7.1 24.52C6.59 24.82 6.08 25.11 5.56 25.41C4.89 25.79 4.47 25.68 4.09 25.02C2.73 22.66 1.36 20.3 0 17.93C0 17.78 0 17.62 0 17.47C0.15 17.16 0.399997 16.96 0.699997 16.79C1.19 16.52 1.67 16.23 2.17 15.95C2.32 15.87 2.34 15.77 2.34 15.61C2.32 14.82 2.32 14.03 2.34 13.24C2.34 13.08 2.32 12.98 2.17 12.9C1.68 12.63 1.2 12.33 0.699997 12.06C0.399997 11.94 0.15 11.74 0 11.43ZM9.27 9.88C8.83 9.88 8.46 10.13 8.29 10.58C7.36 13 6.44 15.43 5.52 17.85C5.34 18.33 5.56 18.81 6 18.99C6.45 19.16 6.92 18.95 7.12 18.47C7.25999 18.13 7.39 17.78 7.52 17.43C7.58 17.27 7.66 17.21 7.83 17.21C8.79 17.22 9.74 17.22 10.7 17.21C10.88 17.21 10.95 17.27 11.01 17.43C11.12 17.76 11.23 18.1 11.39 18.42C11.48 18.61 11.62 18.8 11.79 18.92C12.08 19.13 12.47 19.08 12.75 18.85C13.04 18.61 13.15 18.24 13.01 17.87C12.76 17.18 12.49 16.49 12.23 15.81C11.58 14.09 10.93 12.36 10.28 10.64C10.07 10.15 9.73 9.88 9.27 9.88ZM15.83 15.79C16.32 15.79 16.79 15.81 17.25 15.79C18.75 15.72 19.96 14.5 20.05 12.97C20.13 11.51 19.04 10.13 17.56 9.94C16.78 9.84 15.98 9.89 15.19 9.88C14.42 9.87 14.11 10.19 14.11 10.95C14.11 13.3 14.11 15.65 14.11 18C14.11 18.09 14.1 18.17 14.12 18.26C14.17 18.61 14.34 18.87 14.68 19C14.99 19.12 15.28 19.06 15.54 18.85C15.76 18.67 15.84 18.42 15.84 18.14C15.83 17.37 15.83 16.61 15.83 15.79ZM22.88 14.5C22.88 13.29 22.88 12.08 22.88 10.86C22.88 10.28 22.54 9.89 22.03 9.88C21.52 9.88 21.16 10.27 21.16 10.84C21.16 13.25 21.16 15.67 21.16 18.08C21.16 18.66 21.52 19.05 22.03 19.04C22.54 19.04 22.88 18.65 22.88 18.06C22.88 16.88 22.88 15.69 22.88 14.5Z" fill="#0E918C"/>
</svg>
