<svg width="30" height="30" viewBox="0 0 30 30" fill="none" xmlns="http://www.w3.org/2000/svg">
<path d="M2.70071 26.95C2.70071 26.78 2.70071 26.64 2.70071 26.51C2.70071 18.21 2.70071 9.9 2.70071 1.6C2.70071 0.51 3.21071 0 4.31071 0C11.3507 0 18.3907 0 25.4407 0C26.2507 0 26.7907 0.39 26.9307 1.08C26.9607 1.24 26.9607 1.41 26.9607 1.58C26.9607 9.9 26.9607 18.21 26.9607 26.53C26.9607 26.66 26.9607 26.78 26.9607 26.95C27.4207 26.95 27.8707 26.94 28.3207 26.95C29.2207 26.97 29.8307 27.79 29.6107 28.65C29.4507 29.26 28.9107 29.65 28.2007 29.65C26.0807 29.65 23.9707 29.65 21.8507 29.65C21.7707 29.65 21.6907 29.64 21.5707 29.63C21.5707 29.49 21.5707 29.37 21.5707 29.25C21.5707 26.32 21.5707 23.4 21.5707 20.47C21.5707 19.38 21.0607 18.87 19.9607 18.87C16.5207 18.87 13.0807 18.87 9.63071 18.87C8.60071 18.87 8.08071 19.4 8.08071 20.43C8.08071 23.37 8.08071 26.3 8.08071 29.24C8.08071 29.36 8.08071 29.49 8.08071 29.63C7.98071 29.64 7.91071 29.66 7.84071 29.66C5.70071 29.66 3.57071 29.67 1.43071 29.66C0.48071 29.66 -0.149292 28.9 0.0307085 28.02C0.160708 27.41 0.680709 26.98 1.32071 26.97C1.77071 26.94 2.21071 26.95 2.70071 26.95ZM10.7807 12.82C10.7807 12.56 10.7907 12.29 10.7807 12.03C10.7407 11.36 10.2007 10.83 9.54071 10.78C8.86071 10.73 8.21071 11.19 8.14071 11.87C8.08071 12.48 8.08071 13.11 8.14071 13.72C8.21071 14.4 8.85071 14.86 9.54071 14.82C10.2107 14.78 10.7607 14.23 10.7907 13.55C10.7907 13.3 10.7807 13.06 10.7807 12.82ZM18.8707 12.8C18.8707 13.04 18.8607 13.28 18.8707 13.52C18.9007 14.2 19.4307 14.76 20.1007 14.81C20.7907 14.87 21.4507 14.4 21.5207 13.71C21.5807 13.11 21.5807 12.49 21.5207 11.89C21.4507 11.19 20.8007 10.73 20.1007 10.78C19.4307 10.83 18.8907 11.39 18.8607 12.07C18.8607 12.31 18.8707 12.56 18.8707 12.8ZM10.7807 6.08C10.7807 5.84 10.7907 5.6 10.7807 5.36C10.7607 4.65 10.2107 4.09 9.50071 4.05C8.84071 4.01 8.19071 4.49 8.13071 5.18C8.07071 5.77 8.07071 6.38 8.13071 6.97C8.20071 7.69 8.84071 8.14 9.57071 8.08C10.2407 8.03 10.7707 7.47 10.7907 6.78C10.7907 6.54 10.7807 6.31 10.7807 6.08ZM18.8707 6.06C18.8707 6.31 18.8607 6.56 18.8707 6.82C18.9007 7.49 19.4407 8.04 20.1007 8.08C20.8207 8.13 21.4507 7.68 21.5207 6.99C21.5807 6.39 21.5807 5.77 21.5207 5.17C21.4507 4.49 20.8007 4.01 20.1407 4.05C19.4407 4.1 18.9007 4.65 18.8707 5.34C18.8607 5.57 18.8707 5.81 18.8707 6.06ZM16.1607 6.07C16.1607 5.81 16.1707 5.54 16.1507 5.28C16.1107 4.58 15.5107 4.03 14.8107 4.04C14.1107 4.05 13.5107 4.6 13.4807 5.3C13.4607 5.8 13.4607 6.31 13.4807 6.81C13.5107 7.54 14.0907 8.08 14.8207 8.08C15.5507 8.08 16.1207 7.53 16.1507 6.8C16.1707 6.55 16.1607 6.31 16.1607 6.07ZM16.1607 12.78C16.1607 12.54 16.1707 12.3 16.1607 12.06C16.1307 11.34 15.5407 10.78 14.8207 10.78C14.1007 10.78 13.5107 11.34 13.4807 12.06C13.4607 12.55 13.4607 13.05 13.4807 13.54C13.5007 14.26 14.1007 14.82 14.8107 14.82C15.5307 14.82 16.1107 14.26 16.1507 13.54C16.1707 13.29 16.1607 13.04 16.1607 12.78Z" fill="#0E918C"/>
<path d="M18.8507 29.63C16.1607 29.63 13.4907 29.63 10.8007 29.63C10.8007 26.95 10.8007 24.28 10.8007 21.59C13.4807 21.59 16.1507 21.59 18.8507 21.59C18.8507 24.26 18.8507 26.93 18.8507 29.63Z" fill="#0E918C"/>
</svg>
