<svg width="30" height="32" viewBox="0 0 30 32" fill="none" xmlns="http://www.w3.org/2000/svg">
<path d="M15.18 0.00999999C15.46 0.15 15.57 0.38 15.56 0.69C15.54 1.3 15.56 1.92 15.55 2.53C15.55 2.97 15.36 3.16 14.93 3.16C11.83 3.16 8.73001 3.16 5.64001 3.16C5.23001 3.16 5.03001 2.96 5.02001 2.54C5.01001 1.9 5.02001 1.26 5.02001 0.62C5.02001 0.33 5.15001 0.15 5.38001 0C8.64001 0.01 11.91 0.00999999 15.18 0.00999999Z" fill="#DEBC0A"/>
<path d="M22.13 31.04C15.99 32.1 10.69 26.78 11.79 20.65C12.45 16.98 15.46 14.06 19.14 13.5C25.18 12.58 30.28 17.71 29.33 23.74C28.75 27.42 25.81 30.4 22.13 31.04ZM17.19 21.93C16.7 22.42 16.7 23.2 17.19 23.69L18.48 24.98C19.13 25.63 20.18 25.63 20.83 24.98L24.63 21.18C25.13 20.68 25.13 19.88 24.63 19.38C24.13 18.88 23.32 18.89 22.83 19.39L19.62 22.64L18.97 21.96C18.49 21.44 17.68 21.43 17.19 21.93Z" fill="#DEBC0A"/>
<path d="M18.73 1.67C18.21 1.57 17.68 1.6 17.13 1.56V2.61C17.12 3.85 16.21 4.75 14.97 4.75C11.86 4.76 8.74 4.76 5.62 4.75C5.4 4.75 5.18 4.73 4.97 4.66C4.03 4.4 3.46 3.6 3.44 2.57V1.59H2.51C1.05 1.6 0.03 2.59 0.02 4.05C0.01 10.91 0 17.76 0 24.62C0 25.95 1.04 26.99 2.36 26.99H11.37C10.63 25.56 10.21 23.94 10.21 22.22C10.21 22.02 10.21 21.82 10.23 21.62H3.8C3.37 21.62 3.01 21.27 3.01 20.83C3.01 20.4 3.37 20.04 3.8 20.04H10.43C10.72 18.69 11.27 17.45 12.03 16.36H3.8C3.37 16.36 3.01 16 3.01 15.57C3.01 15.13 3.37 14.77 3.8 14.77H13.38C15.23 12.97 17.76 11.87 20.55 11.87V3.84C20.5 2.8 19.74 1.86 18.73 1.67ZM16.92 11.08H3.8C3.37 11.08 3.01 10.72 3.01 10.29C3.01 9.85 3.37 9.5 3.8 9.5H16.92C17.35 9.5 17.71 9.85 17.71 10.29C17.71 10.72 17.35 11.08 16.92 11.08Z" fill="#DEBC0A"/>
</svg>
