<svg width="30" height="30" viewBox="0 0 30 30" fill="none" xmlns="http://www.w3.org/2000/svg">
<path d="M17.7625 7.66106C17.7325 8.15106 17.6925 8.55106 17.6925 8.95106C17.6925 9.09106 17.7925 9.28105 17.9125 9.35105C18.5325 9.73105 19.0925 10.1811 19.5525 10.7411C19.7025 10.9311 19.8825 10.9311 20.0925 10.8811C20.5525 10.7611 21.0225 10.6511 21.4825 10.5311C21.7425 10.4611 21.9025 10.5411 21.9925 10.8011C22.2725 11.6011 22.5625 12.3911 22.8625 13.1911C22.9625 13.4511 22.8725 13.5911 22.6425 13.7011C22.2025 13.9111 21.7725 14.1411 21.3325 14.3411C21.1125 14.4411 21.0425 14.5911 21.0125 14.8311C20.9225 15.5211 20.8025 16.2011 20.6625 16.8911C20.6225 17.1011 20.6325 17.2511 20.7825 17.4111C21.1225 17.7511 21.4325 18.1011 21.7725 18.4411C21.9825 18.6511 22.0125 18.8311 21.8025 19.0711C21.2625 19.7011 20.7325 20.3311 20.2125 20.9711C20.0225 21.2011 19.8425 21.2111 19.6125 21.0511C19.2225 20.7811 18.8125 20.5211 18.4325 20.2511C18.2425 20.1211 18.0925 20.1311 17.8725 20.2111C17.2325 20.4711 16.5725 20.7111 15.9125 20.9211C15.6825 20.9911 15.5525 21.0911 15.4825 21.3211C15.3625 21.7811 15.2125 22.2311 15.0925 22.6911C15.0225 22.9611 14.8725 23.0711 14.5825 23.0111C13.7825 22.8611 12.9825 22.7211 12.1725 22.5911C11.8625 22.5411 11.7325 22.4011 11.7625 22.0711C11.8125 21.6011 11.8125 21.1211 11.8525 20.6411C11.8725 20.4111 11.7725 20.2911 11.5925 20.1511C11.0525 19.7311 10.5225 19.2911 10.0225 18.8311C9.84251 18.6711 9.69251 18.6011 9.46251 18.6611C9.00251 18.7811 8.53251 18.8811 8.07251 19.0111C7.79251 19.0911 7.63252 19.0011 7.53252 18.7311C7.25252 17.9411 6.97251 17.1611 6.67251 16.3711C6.57251 16.1011 6.65251 15.9511 6.90251 15.8411C7.34251 15.6311 7.77251 15.4111 8.21251 15.2011C8.42251 15.1011 8.51251 14.9611 8.51251 14.7311C8.50251 14.0111 8.6425 13.3211 8.8625 12.6411C8.9025 12.5011 8.8525 12.2811 8.7525 12.1711C8.4425 11.8011 8.0925 11.4511 7.7525 11.1111C7.5525 10.9111 7.5225 10.7311 7.7225 10.5111C8.2725 9.87105 8.80251 9.23105 9.34251 8.59105C9.52251 8.37105 9.70251 8.36105 9.92251 8.51105C10.3225 8.79105 10.7325 9.05105 11.1325 9.33105C11.3125 9.45105 11.4625 9.45106 11.6625 9.37106C12.3225 9.11106 12.9825 8.86106 13.6525 8.65106C13.8725 8.58106 14.0025 8.49105 14.0625 8.27105C14.1925 7.81105 14.3325 7.36106 14.4525 6.90106C14.5325 6.61106 14.6725 6.50105 14.9825 6.56105C15.6925 6.70105 16.4025 6.81105 17.1125 6.94105C17.7925 7.04105 17.7925 7.05106 17.7625 7.66106ZM14.7525 17.8311C16.4425 17.8411 17.8225 16.4811 17.8325 14.8011C17.8425 13.1111 16.4825 11.7411 14.8025 11.7311C13.1125 11.7211 11.7325 13.0811 11.7225 14.7611C11.7125 16.4411 13.0725 17.8211 14.7525 17.8311Z" fill="#DEBC0A"/>
<path d="M24.6825 3.85106C25.2425 3.29106 25.7725 2.74106 26.3325 2.20106C26.4425 2.09106 26.6325 2.06106 26.7925 2.00106C26.8525 2.15106 26.9725 2.31106 26.9725 2.46106C26.9825 4.37106 26.9825 6.28106 26.9825 8.18106C26.9825 8.58106 26.9025 8.66106 26.4925 8.66106C24.5825 8.66106 22.6725 8.66106 20.7725 8.65106C20.6225 8.65106 20.4025 8.56106 20.3325 8.45106C20.2825 8.37106 20.3925 8.14106 20.5025 8.03106C21.1525 7.36106 21.8125 6.71106 22.5125 6.01106C22.2425 5.79106 21.9925 5.57106 21.7225 5.37106C14.9025 0.28106 5.03251 4.05106 3.31251 12.4011C3.04251 13.7111 2.9925 15.0311 3.1825 16.3511C3.3225 17.3511 2.9225 18.0511 2.1025 18.2811C1.2225 18.5211 0.352508 17.9811 0.202508 17.0711C-0.247491 14.3111 0.0425097 11.6211 1.17251 9.07106C3.33251 4.19106 7.0425 1.16106 12.3025 0.24106C16.8125 -0.55894 20.8625 0.65106 24.3825 3.59106C24.4725 3.68106 24.5725 3.76106 24.6825 3.85106Z" fill="#DEBC0A"/>
<path d="M4.85251 25.7211C4.33251 26.2411 3.81251 26.7611 3.29251 27.2911C3.22251 27.3611 3.1625 27.4411 3.0825 27.4811C2.9825 27.5311 2.84251 27.5811 2.76251 27.5411C2.67251 27.4911 2.58251 27.3611 2.57251 27.2511C2.55251 26.9211 2.56252 26.5911 2.56252 26.2611C2.56252 24.6311 2.56252 23.0011 2.56252 21.3611C2.56252 20.9511 2.64251 20.8811 3.04251 20.8811C4.95251 20.8811 6.86251 20.8811 8.76251 20.8911C8.91251 20.8911 9.0725 21.0111 9.2225 21.0811C9.1525 21.2311 9.12251 21.4211 9.02251 21.5411C8.45251 22.1411 7.86251 22.7111 7.27251 23.3011C7.20251 23.3711 7.13251 23.4511 7.04251 23.5411C7.86251 24.2811 8.76251 24.8811 9.74251 25.3411C16.2725 28.4011 23.8225 25.0611 25.9725 18.1711C26.4725 16.5611 26.6025 14.9111 26.3725 13.2411C26.3325 12.9411 26.3225 12.6211 26.3925 12.3311C26.5625 11.6311 27.2225 11.1811 27.9425 11.2211C28.6425 11.2611 29.2325 11.7711 29.3425 12.4811C29.7325 14.8911 29.5725 17.2711 28.7225 19.5611C26.7225 24.9411 22.9025 28.2911 17.2425 29.3111C12.7225 30.1311 8.6625 28.9011 5.1425 25.9411C5.0725 25.8811 4.99252 25.8211 4.92252 25.7611C4.91252 25.7511 4.89251 25.7411 4.85251 25.7211Z" fill="#DEBC0A"/>
</svg>
