<svg width="30" height="24" viewBox="0 0 30 24" fill="none" xmlns="http://www.w3.org/2000/svg">
<path d="M14.9914 7.64C15.9414 8.14 16.8914 8.65 17.8414 9.15C17.9214 9.19 18.0014 9.24 18.1014 9.29C18.0414 9.32 18.0014 9.34 17.9614 9.37C16.9714 9.87 15.9814 10.36 14.9814 10.85C14.9214 10.88 14.8214 10.89 14.7714 10.86C13.7514 10.36 12.7314 9.84 11.7114 9.33C11.6914 9.32 11.6714 9.3 11.6314 9.28C11.6914 9.25 11.7414 9.22 11.7914 9.19C12.7714 8.67 13.7514 8.16 14.7314 7.64C14.7314 7.64 14.7314 7.63 14.7414 7.63C14.8214 7.64 14.9114 7.64 14.9914 7.64Z" fill="#F6830F"/>
<path d="M6.82138 18.86C6.86138 18.87 6.90138 18.88 6.94138 18.9C7.82138 19.33 8.69138 19.77 9.57138 20.2C9.65138 20.24 9.69138 20.28 9.69138 20.38C9.69138 21.47 9.69138 22.56 9.69138 23.65C9.69138 23.67 9.69138 23.69 9.68138 23.73C9.62138 23.7 9.57139 23.68 9.52139 23.66C8.76139 23.28 7.99138 22.9 7.23138 22.53C7.05138 22.44 6.90138 22.33 6.83138 22.14C6.82138 21.04 6.82138 19.95 6.82138 18.86Z" fill="#F6830F"/>
<path d="M11.1814 16.66C11.6214 15.86 12.0514 15.07 12.4914 14.26C12.2914 14.16 12.1114 14.06 11.9214 13.98C11.6614 13.86 11.5514 13.67 11.5514 13.39C11.5614 12.43 11.5514 11.46 11.5514 10.5C11.5514 10.45 11.5514 10.4 11.5514 10.33C11.6214 10.36 11.6614 10.38 11.7114 10.4C12.5614 10.82 13.4014 11.25 14.2514 11.67C14.3314 11.71 14.3814 11.74 14.3814 11.85C14.3714 12.95 14.3814 14.06 14.3814 15.16C14.3814 15.18 14.3814 15.19 14.3714 15.24C14.0214 15.05 13.6814 14.87 13.3214 14.69C12.8814 15.49 12.4414 16.29 12.0014 17.1C12.4514 17.34 12.9014 17.57 13.3614 17.81C13.3114 17.84 13.2714 17.86 13.2314 17.88C12.2314 18.38 11.2414 18.88 10.2414 19.37C10.1814 19.4 10.0914 19.4 10.0314 19.38C9.0114 18.88 8.0014 18.38 6.9814 17.87C6.9514 17.85 6.9214 17.83 6.8714 17.81C6.9314 17.78 6.9814 17.75 7.0314 17.72C7.9614 17.24 8.8914 16.77 9.8214 16.28C10.0414 16.16 10.2414 16.16 10.4614 16.28C10.7014 16.42 10.9414 16.54 11.1814 16.66Z" fill="#F6830F"/>
<path d="M18.5514 16.66C18.8114 16.52 19.0714 16.39 19.3214 16.26C19.4914 16.17 19.6614 16.17 19.8314 16.26C20.8114 16.76 21.7914 17.27 22.7714 17.77C22.7914 17.78 22.8014 17.79 22.8314 17.81C22.7814 17.84 22.7314 17.86 22.6914 17.89C21.6914 18.38 20.7014 18.88 19.7014 19.37C19.6414 19.4 19.5414 19.41 19.4914 19.38C18.4714 18.88 17.4514 18.36 16.4314 17.85C16.4114 17.84 16.3914 17.82 16.3514 17.8C16.8114 17.56 17.2614 17.33 17.7114 17.09C17.2714 16.28 16.8314 15.49 16.3914 14.68C16.0414 14.86 15.7014 15.04 15.3514 15.23C15.3514 15.17 15.3414 15.13 15.3414 15.09C15.3414 14.02 15.3414 12.94 15.3414 11.87C15.3414 11.79 15.3414 11.73 15.4314 11.68C16.3114 11.25 17.1914 10.8 18.0714 10.36C18.0914 10.35 18.1214 10.34 18.1614 10.32C18.1614 10.38 18.1714 10.43 18.1714 10.48C18.1714 11.45 18.1714 12.43 18.1714 13.4C18.1714 13.67 18.0714 13.85 17.8214 13.96C17.6314 14.05 17.4414 14.15 17.2314 14.25C17.6814 15.07 18.1114 15.86 18.5514 16.66Z" fill="#F6830F"/>
<path d="M10.6314 23.71C10.6314 22.96 10.6314 22.21 10.6314 21.47C10.6314 21.1 10.6314 20.74 10.6314 20.37C10.6314 20.32 10.6714 20.24 10.7114 20.21C11.6014 19.76 12.4814 19.32 13.3714 18.87C13.3914 18.86 13.4114 18.86 13.4414 18.85C13.4414 19.22 13.4414 19.58 13.4414 19.95C14.3914 19.95 15.3214 19.95 16.2714 19.95C16.2714 19.59 16.2714 19.23 16.2714 18.85C16.3214 18.87 16.3614 18.88 16.4014 18.9C17.2614 19.33 18.1314 19.77 18.9914 20.2C19.0614 20.24 19.1014 20.27 19.1014 20.36C19.1014 21.46 19.1014 22.56 19.1014 23.66C19.1014 23.68 19.1014 23.69 19.0914 23.73C19.0414 23.71 18.9914 23.69 18.9514 23.66C18.1814 23.27 17.4114 22.89 16.6314 22.51C16.3814 22.39 16.2614 22.21 16.2714 21.93C16.2814 21.6 16.2714 21.26 16.2714 20.92C15.3314 20.92 14.4014 20.92 13.4514 20.92C13.4514 20.96 13.4414 21.01 13.4414 21.05C13.4414 21.36 13.4414 21.68 13.4414 21.99C13.4414 22.2 13.3614 22.36 13.1714 22.45C12.3314 22.87 11.5014 23.29 10.6614 23.71C10.6714 23.71 10.6614 23.7 10.6314 23.71Z" fill="#F6830F"/>
<path d="M20.0514 23.72C20.0514 23.65 20.0514 23.6 20.0514 23.55C20.0514 22.5 20.0514 21.46 20.0514 20.41C20.0514 20.3 20.0814 20.23 20.1814 20.18C21.0414 19.76 21.9014 19.34 22.7514 18.91C22.7914 18.89 22.8314 18.87 22.8914 18.85C22.9014 18.9 22.9014 18.94 22.9014 18.98C22.9014 19.97 22.9014 20.97 22.9014 21.96C22.9014 22.19 22.8114 22.36 22.6014 22.47C21.7814 22.88 20.9614 23.28 20.1414 23.68C20.1214 23.69 20.0914 23.7 20.0514 23.72Z" fill="#F6830F"/>
<path d="M29.7514 13.73C29.7614 14.5 29.7614 15.25 29.7514 16.02C29.7414 16.45 29.5114 16.73 29.1114 16.9C28.9114 16.97 28.7314 17.04 28.5314 17.13H23.8514C24.7214 12.55 23.2814 8.87 18.9114 6.61C15.5514 4.87 12.1514 5.29 9.19139 7.65C6.07139 10.14 5.13139 13.39 5.92139 17.13H1.28139C1.02139 17 0.771387 16.89 0.501387 16.79C0.291387 16.72 0.0613877 16.33 0.0413877 16.08C-0.0186123 15.28 0.00138888 14.47 0.0113889 13.67C0.0213889 13.24 0.271388 12.97 0.651388 12.83C1.33139 12.56 2.00139 12.32 2.66139 12.02C2.82139 11.95 2.97139 11.76 3.04139 11.61C3.44139 10.68 3.84139 9.74 4.21139 8.81C4.27139 8.65 4.30139 8.41 4.22139 8.25C3.98139 7.58 3.68139 6.94 3.39139 6.29C3.20139 5.88 3.23139 5.49 3.58139 5.15C4.12139 4.61 4.65139 4.07 5.20139 3.54C5.50139 3.24 5.84139 3.2 6.24139 3.37C6.91139 3.67 7.58139 3.97 8.26139 4.22C8.43139 4.28 8.66139 4.25 8.83139 4.19C9.77139 3.82 10.7014 3.44 11.6214 3.04C11.7914 2.97 11.9614 2.81 12.0314 2.64C12.3114 2 12.5714 1.34 12.8314 0.68C13.0014 0.22 13.3314 0 13.8114 0H15.9714C16.4414 0 16.7514 0.23 16.9114 0.67C17.1814 1.34 17.4414 2.01 17.7214 2.68C17.7914 2.82 17.9614 2.96 18.1214 3.04C19.0514 3.44 20.0014 3.84 20.9514 4.21C21.1114 4.28 21.3514 4.3 21.5214 4.24C22.1914 3.98 22.8414 3.68 23.5014 3.4C23.9114 3.21 24.2714 3.26 24.5814 3.57C25.1214 4.11 25.6814 4.65 26.2214 5.21C26.5214 5.52 26.5314 5.88 26.3814 6.25C26.1014 6.93 25.8014 7.6 25.5314 8.29C25.4714 8.45 25.4914 8.66 25.5614 8.82C25.9314 9.77 26.3314 10.71 26.7314 11.65C26.8014 11.81 26.9414 11.98 27.1014 12.05C27.7514 12.33 28.4214 12.59 29.0914 12.85C29.5014 12.99 29.7514 13.29 29.7514 13.73Z" fill="#F6830F"/>
</svg>
