<svg width="30" height="31" viewBox="0 0 30 31" fill="none" xmlns="http://www.w3.org/2000/svg">
<path d="M24.6825 3.84106C25.2425 3.28106 25.7725 2.73106 26.3325 2.19106C26.4425 2.08106 26.6325 2.05106 26.7925 1.99106C26.8525 2.14106 26.9725 2.30106 26.9725 2.45106C26.9825 4.36106 26.9825 6.27106 26.9825 8.17106C26.9825 8.57106 26.9025 8.65106 26.4925 8.65106C24.5825 8.65106 22.6725 8.65106 20.7725 8.64106C20.6225 8.64106 20.4025 8.55106 20.3325 8.44106C20.2825 8.36106 20.3925 8.13106 20.5025 8.02106C21.1525 7.35106 21.8125 6.70106 22.5125 6.00106C22.2425 5.78106 21.9925 5.56106 21.7225 5.36106C14.9025 0.28106 5.03251 4.05106 3.31251 12.3911C3.04251 13.7011 2.99251 15.0211 3.18251 16.3411C3.32251 17.3411 2.92251 18.0411 2.10251 18.2711C1.22251 18.5111 0.352509 17.9711 0.202509 17.0611C-0.247491 14.3011 0.0425087 11.6111 1.17251 9.06106C3.33251 4.20106 7.04251 1.16106 12.3025 0.24106C16.8125 -0.55894 20.8625 0.65106 24.3825 3.59106C24.4725 3.67106 24.5725 3.75106 24.6825 3.84106Z" fill="#DEBC0A"/>
<path d="M4.85251 26.7111C4.33251 27.2311 3.81251 27.7511 3.29251 28.2811C3.22251 28.3511 3.16251 28.4311 3.08251 28.4711C2.98251 28.5211 2.84251 28.5711 2.76251 28.5311C2.67251 28.4811 2.58251 28.3511 2.57251 28.2411C2.55251 27.9111 2.56251 27.5811 2.56251 27.2511C2.56251 25.6211 2.56251 23.9911 2.56251 22.3511C2.56251 21.9411 2.64251 21.8711 3.04251 21.8711C4.95251 21.8711 6.86251 21.8711 8.76251 21.8811C8.91251 21.8811 9.07251 22.0011 9.22251 22.0711C9.15251 22.2211 9.12251 22.4111 9.02251 22.5311C8.45251 23.1311 7.86251 23.7011 7.27251 24.2911C7.20251 24.3611 7.13251 24.4411 7.04251 24.5311C7.86251 25.2711 8.76251 25.8711 9.74251 26.3311C16.2725 29.3911 23.8225 26.0511 25.9725 19.1611C26.4725 17.5511 26.6025 15.9011 26.3725 14.2311C26.3325 13.9311 26.3225 13.6111 26.3925 13.3211C26.5625 12.6211 27.2225 12.1711 27.9425 12.2111C28.6425 12.2511 29.2325 12.7611 29.3425 13.4711C29.7325 15.8811 29.5725 18.2611 28.7225 20.5511C26.7225 25.9311 22.9025 29.2811 17.2425 30.3011C12.7225 31.1211 8.66251 29.8911 5.14251 26.9311C5.07251 26.8711 5.00251 26.8111 4.93251 26.7511C4.91251 26.7311 4.89251 26.7311 4.85251 26.7111Z" fill="#DEBC0A"/>
<path d="M10.4425 21.6311C10.1525 21.5611 9.88251 21.4511 9.68251 21.2211C9.45251 20.9511 9.36251 20.6411 9.36251 20.2911C9.36251 17.2511 9.36251 14.2011 9.36251 11.1611C9.36251 10.7111 9.34251 10.2511 9.38251 9.80106C9.43251 9.20106 9.88251 8.76106 10.4825 8.72106C11.0325 8.69106 11.5925 8.71106 12.1625 8.71106C12.1625 8.76106 12.1725 8.82106 12.1725 8.87106C12.1725 9.27106 12.1725 9.67105 12.1725 10.0711C12.1725 10.4311 12.3525 10.6111 12.7125 10.6211C13.7825 10.6211 14.8625 10.6211 15.9325 10.6211C16.3025 10.6211 16.4725 10.4411 16.4725 10.0711C16.4725 9.62105 16.4725 9.17105 16.4725 8.70105C16.5325 8.70105 16.5825 8.70105 16.6425 8.70105C17.0725 8.70105 17.5025 8.71105 17.9325 8.70105C18.7025 8.67105 19.2925 9.23106 19.2825 10.0511C19.2625 11.3411 19.2825 12.6311 19.2825 13.9211C19.2825 16.0411 19.2825 18.1711 19.2825 20.2911C19.2825 20.7411 19.1525 21.1211 18.7725 21.3811C18.6025 21.5011 18.3825 21.5511 18.1925 21.6311C15.6025 21.6311 13.0225 21.6311 10.4425 21.6311ZM12.7125 16.4111C13.0325 16.4111 13.3625 16.4111 13.6825 16.4111C13.9925 16.4111 14.2025 16.2211 14.2025 15.9511C14.2025 15.6811 13.9925 15.4911 13.6825 15.4911C13.0325 15.4911 12.3825 15.4911 11.7325 15.4911C11.4225 15.4911 11.2125 15.6811 11.2125 15.9511C11.2125 16.2211 11.4225 16.4111 11.7325 16.4111C12.0725 16.4111 12.3925 16.4111 12.7125 16.4111ZM12.7225 13.8911C13.0525 13.8911 13.3825 13.8911 13.7125 13.8911C14.0025 13.8911 14.2025 13.7111 14.2125 13.4411C14.2225 13.1811 14.0225 12.9711 13.7225 12.9711C13.0525 12.9611 12.3825 12.9611 11.7125 12.9711C11.4225 12.9711 11.2225 13.1711 11.2225 13.4311C11.2225 13.7011 11.4325 13.8811 11.7325 13.8911C12.0625 13.9011 12.3925 13.8911 12.7225 13.8911ZM12.7225 18.0011C12.3925 18.0011 12.0625 18.0011 11.7325 18.0011C11.4425 18.0011 11.2325 18.1911 11.2225 18.4611C11.2225 18.7211 11.4225 18.9211 11.7125 18.9211C12.3825 18.9311 13.0525 18.9311 13.7225 18.9211C14.0125 18.9211 14.2125 18.7211 14.2125 18.4611C14.2125 18.1911 14.0025 18.0011 13.7125 18.0011C13.3825 18.0011 13.0525 18.0011 12.7225 18.0011ZM15.9725 15.3311C15.8925 15.2311 15.8425 15.1411 15.7725 15.0711C15.5825 14.9011 15.3125 14.9011 15.1425 15.0811C14.9625 15.2511 14.9525 15.5211 15.1225 15.7111C15.3025 15.9111 15.4925 16.1011 15.6925 16.2811C15.8725 16.4511 16.1225 16.4511 16.3025 16.2811C16.6325 15.9611 16.9625 15.6311 17.2825 15.3011C17.4225 15.1511 17.4425 14.9511 17.3425 14.7711C17.1925 14.5011 16.8525 14.4511 16.6125 14.6711C16.4125 14.8711 16.2125 15.0911 15.9725 15.3311ZM15.9825 17.8311C15.9125 17.7511 15.8625 17.6711 15.8025 17.6211C15.5925 17.4211 15.3225 17.4111 15.1325 17.6011C14.9425 17.7911 14.9525 18.0611 15.1525 18.2711C15.3125 18.4311 15.4725 18.5911 15.6325 18.7511C15.8725 18.9911 16.1225 18.9911 16.3625 18.7511C16.6525 18.4611 16.9425 18.1711 17.2325 17.8811C17.4525 17.6611 17.4625 17.3811 17.2725 17.1911C17.0825 16.9911 16.8025 17.0011 16.5825 17.2211C16.3925 17.4111 16.2025 17.6011 15.9825 17.8311ZM15.9925 12.7911C15.9225 12.7111 15.8725 12.6511 15.8125 12.6011C15.6025 12.4011 15.3225 12.3811 15.1325 12.5711C14.9425 12.7611 14.9525 13.0411 15.1625 13.2511C15.3125 13.4111 15.4725 13.5611 15.6325 13.7211C15.8725 13.9611 16.1225 13.9611 16.3625 13.7211C16.6525 13.4311 16.9425 13.1411 17.2325 12.8511C17.4525 12.6311 17.4625 12.3511 17.2725 12.1611C17.0825 11.9711 16.8025 11.9811 16.5825 12.2011C16.3925 12.3911 16.2025 12.5811 15.9925 12.7911Z" fill="#DEBC0A"/>
<path d="M13.0925 9.68106C13.0925 9.33106 13.0925 9.00106 13.0925 8.65106C13.9025 8.65106 14.7125 8.65106 15.5425 8.65106C15.5425 8.99106 15.5425 9.33106 15.5425 9.68106C14.7225 9.68106 13.9125 9.68106 13.0925 9.68106Z" fill="#DEBC0A"/>
</svg>
