<svg width="30" height="27" viewBox="0 0 30 27" fill="none" xmlns="http://www.w3.org/2000/svg">
<path d="M0 8.05754C0.12 7.48754 0.189998 6.90754 0.349998 6.34754C1.32 2.91754 4.42 0.357536 7.98 0.0375359C12.73 -0.392464 16.89 2.91754 17.53 7.62754C18.19 12.5075 14.58 17.0375 9.66 17.4875C9.33 17.5175 9 17.5275 8.67 17.5375C6.32 17.5375 3.97 17.5375 1.62 17.5375C1.52 17.5375 1.41 17.5375 1.27 17.5375C1.67 16.7475 2.03 15.9875 2.43 15.2375C2.55 15.0075 2.54 14.8675 2.36 14.6675C1.06 13.2475 0.269998 11.5875 0.0599976 9.65754C0.0499976 9.57754 0.0300021 9.48754 0.0100021 9.40754C2.13645e-06 8.95754 0 8.50754 0 8.05754ZM7.06 6.98754C7.08 6.87754 7.09 6.76754 7.11 6.66754C7.32 5.68754 8.25001 5.07754 9.21001 5.29754C10.18 5.51754 10.76 6.46754 10.52 7.43754C10.39 7.96754 10.04 8.33754 9.57001 8.59754C8.76001 9.04754 8.24999 9.73754 8.03999 10.6375C7.97999 10.8775 7.97 11.1275 7.94 11.3775C8.56 11.3775 9.11999 11.3775 9.67999 11.3775C9.83999 10.5875 9.96 10.4375 10.66 9.98754C11.86 9.20754 12.45 8.08754 12.31 6.66754C12.17 5.20754 11.36 4.18754 9.97 3.69754C8.61 3.21754 7.37 3.53754 6.34 4.53754C5.66 5.19754 5.34001 6.01754 5.32001 6.98754C5.92001 6.98754 6.49 6.98754 7.06 6.98754ZM7.97 12.2775C7.97 12.8675 7.97 13.4375 7.97 13.9975C8.56 13.9975 9.13 13.9975 9.69 13.9975C9.69 13.4175 9.69 12.8575 9.69 12.2775C9.12 12.2775 8.56 12.2775 7.97 12.2775Z" fill="#F6830F"/>
<path d="M28.67 26.3075C28.53 26.3075 28.44 26.3075 28.35 26.3075C25.98 26.3075 23.62 26.3075 21.25 26.3075C16.79 26.3075 13.18 23.2175 12.48 18.8175C12.47 18.7575 12.47 18.7075 12.47 18.6675C16.74 16.8275 19.05 13.6175 19.39 8.95754C20.09 8.78754 20.84 8.71754 21.58 8.77754C25.04 9.05754 27.6 10.7375 29.11 13.8575C30.66 17.0575 30.03 20.7975 27.59 23.4375C27.4 23.6375 27.4 23.7775 27.52 24.0075C27.91 24.7475 28.27 25.5075 28.67 26.3075ZM18.49 16.6375C20.83 16.6375 23.16 16.6375 25.47 16.6375C25.47 16.0475 25.47 15.4775 25.47 14.9175C23.13 14.9175 20.82 14.9175 18.49 14.9175C18.49 15.4875 18.49 16.0475 18.49 16.6375ZM18.5 18.4275C18.5 19.0075 18.5 19.5775 18.5 20.1475C20.84 20.1475 23.16 20.1475 25.48 20.1475C25.48 19.5575 25.48 18.9875 25.48 18.4275C23.14 18.4275 20.82 18.4275 18.5 18.4275Z" fill="#F6830F"/>
</svg>
