<svg width="30" height="20" viewBox="0 0 30 20" fill="none" xmlns="http://www.w3.org/2000/svg">
<path d="M29.72 2.26444C29.72 7.14444 29.72 12.0144 29.72 16.8944C29.7 16.9344 29.68 16.9844 29.67 17.0244C29.37 18.3544 28.37 19.1544 27.01 19.1544C18.91 19.1544 10.8 19.1544 2.7 19.1544C1.14 19.1544 0 18.0244 0 16.4644C0 11.8744 0 7.27444 0 2.68444C0 2.43444 0.0299963 2.18444 0.0899963 1.94444C0.399996 0.754444 1.43 0.00444444 2.72 0.00444444C8.98 0.00444444 15.23 0.00444444 21.49 0.00444444C23.35 0.00444444 25.2 -0.00555556 27.06 0.00444444C28.18 0.0144444 28.99 0.544445 29.48 1.55444C29.6 1.77444 29.65 2.02444 29.72 2.26444ZM7.06 9.33444C6.95 9.39444 6.87 9.43444 6.78 9.48444C4.76 10.6544 3.68 12.3944 3.6 14.7244C3.58 15.3044 3.95 15.6744 4.53 15.6744C7.93 15.6744 11.34 15.6744 14.74 15.6744C15.32 15.6744 15.69 15.3044 15.67 14.7244C15.63 12.9044 14.92 11.3844 13.54 10.2044C13.14 9.86444 12.68 9.59444 12.25 9.29444C13.7 7.54444 13.17 5.43444 11.92 4.34444C10.63 3.21444 8.65 3.21444 7.35 4.34444C6.1 5.43444 5.58 7.55444 7.06 9.33444ZM21.83 5.22444C22.97 5.22444 24.11 5.22444 25.25 5.22444C25.67 5.22444 25.98 5.01444 26.12 4.66444C26.35 4.06444 25.92 3.48444 25.23 3.48444C22.98 3.48444 20.73 3.48444 18.48 3.48444C17.87 3.48444 17.47 3.83445 17.48 4.36445C17.49 4.88445 17.88 5.22444 18.47 5.22444C19.59 5.22444 20.71 5.22444 21.83 5.22444ZM21.86 6.96444C20.72 6.96444 19.58 6.96444 18.44 6.96444C17.87 6.96444 17.48 7.31444 17.48 7.82444C17.47 8.34444 17.87 8.70444 18.45 8.70444C20.7 8.70444 22.95 8.70444 25.2 8.70444C25.79 8.70444 26.18 8.34444 26.18 7.83444C26.18 7.31444 25.78 6.96444 25.19 6.96444C24.08 6.96444 22.97 6.96444 21.86 6.96444ZM21.83 10.4544C20.7 10.4544 19.57 10.4444 18.44 10.4644C18.25 10.4644 18.03 10.5244 17.87 10.6244C17.55 10.8044 17.42 11.2044 17.52 11.5544C17.64 11.9644 17.96 12.2044 18.41 12.2044C20.67 12.2044 22.93 12.2044 25.19 12.2044C25.8 12.2044 26.2 11.8544 26.19 11.3244C26.18 10.8044 25.79 10.4644 25.2 10.4644C24.07 10.4444 22.95 10.4544 21.83 10.4544ZM20.09 15.6744C20.64 15.6744 21.19 15.6744 21.74 15.6744C22.3 15.6744 22.69 15.3144 22.7 14.8144C22.7 14.3044 22.31 13.9444 21.75 13.9344C20.64 13.9344 19.53 13.9344 18.42 13.9344C17.86 13.9344 17.47 14.3044 17.48 14.8144C17.49 15.3144 17.87 15.6744 18.41 15.6744C18.97 15.6744 19.53 15.6744 20.09 15.6744Z" fill="#DEBC0A"/>
<path d="M5.47 13.9144C5.63 12.5044 7.16 10.4944 9.64 10.4944C12.17 10.4944 13.66 12.5444 13.81 13.9144C11.03 13.9144 8.25 13.9144 5.47 13.9144Z" fill="#DEBC0A"/>
<path d="M11.38 6.97445C11.37 7.93445 10.58 8.71445 9.61 8.70445C8.66 8.69445 7.89 7.90445 7.9 6.95445C7.91 5.99445 8.7 5.21445 9.67 5.22445C10.62 5.23445 11.38 6.02445 11.38 6.97445Z" fill="#DEBC0A"/>
</svg>
