<svg width="25" height="28" viewBox="0 0 25 28" fill="none" xmlns="http://www.w3.org/2000/svg">
<path d="M24.6535 20.1367C24.654 14.4952 24.6562 8.85369 24.6513 3.21217C24.6508 2.93038 24.6148 2.64095 24.545 2.36772C24.18 0.938092 22.9304 0.00271412 21.4004 0.00181385C16.7118 0.000463451 12.0232 0.00136372 7.33461 0.00136372C6.38933 0.00136372 5.44405 -0.00223735 4.49877 0.00226399C3.45761 0.00766559 2.74595 0.722028 2.74235 1.75824C2.74055 2.36592 2.74235 2.9736 2.7428 3.58128V3.8338C2.88909 3.8338 3.00072 3.83335 3.11191 3.8338C3.5922 3.8365 4.07384 3.81445 4.55188 3.84731C5.48906 3.91213 6.16696 4.39197 6.52752 5.25443C6.88808 6.11688 6.74944 6.93477 6.14401 7.65139C5.69838 8.17849 5.11275 8.43777 4.42315 8.44632C3.87038 8.45353 3.31762 8.44812 2.759 8.44812V11.2254C3.34463 11.2254 3.91404 11.2137 4.48211 11.2277C6.13681 11.2691 7.21127 13.0224 6.48791 14.511C6.07424 15.3608 5.37293 15.8042 4.42585 15.8303C3.87308 15.8456 3.31987 15.833 2.75585 15.833V18.6004C2.82742 18.6045 2.88594 18.6103 2.94401 18.6103C3.44681 18.6112 3.94961 18.6058 4.45195 18.6126C5.13571 18.622 5.71143 18.889 6.14851 19.4093C6.76339 20.1422 6.89663 20.978 6.50727 21.8486C6.11475 22.7264 5.40174 23.1887 4.43305 23.2152C3.87983 23.231 3.32617 23.2184 2.7419 23.2184C2.7419 23.9206 2.741 24.5877 2.74235 25.2543C2.7437 26.354 3.44411 27.0553 4.54198 27.0553C10.1682 27.0558 15.7949 27.0558 21.4211 27.0535C21.6228 27.0535 21.828 27.0459 22.0256 27.0094C23.5876 26.7209 24.6522 25.4398 24.6549 23.8499C24.6571 22.612 24.6535 21.3742 24.6535 20.1367ZM15.126 7.00364C16.8914 7.0068 18.3215 8.44632 18.3188 10.2176C18.3161 11.9898 16.8865 13.4095 15.108 13.4072C13.3534 13.405 11.9098 11.9745 11.9161 10.2442C11.9228 8.42922 13.338 7.00004 15.126 7.00364ZM20.4601 19.1005C20.4569 19.7051 20.1126 20.0535 19.5116 20.0544C18.041 20.0557 16.5705 20.0548 15.0999 20.0548C13.6518 20.0548 12.2037 20.0548 10.7556 20.0544C10.1056 20.0544 9.78649 19.7195 9.76848 19.0699C9.73968 18.0247 9.88687 17.0218 10.3969 16.0918C10.8313 15.2996 11.429 14.6609 12.1875 14.1693C12.3072 14.0915 12.3905 14.0852 12.5229 14.1666C14.2527 15.2289 15.9889 15.2267 17.7178 14.163C17.838 14.0888 17.9164 14.0838 18.0334 14.1621C19.5882 15.1988 20.3988 16.6478 20.4592 18.5154C20.465 18.7103 20.461 18.9056 20.4601 19.1005Z" fill="#F6830F"/>
<path d="M2.758 5.06627C3.29051 5.06627 3.82302 5.06447 4.35507 5.06672C5.00822 5.06942 5.48806 5.53171 5.48401 6.152C5.48041 6.75788 4.99967 7.22061 4.35958 7.22286C3.27971 7.22647 2.19983 7.22647 1.11996 7.22286C0.483474 7.22061 0.00363174 6.75337 0.00138107 6.14479C-0.000869602 5.52811 0.485725 5.06717 1.13752 5.06717C1.67723 5.06717 2.21739 5.06717 2.7571 5.06717C2.758 5.06672 2.758 5.06627 2.758 5.06627Z" fill="#F6830F"/>
<path d="M2.74268 21.9949C2.20252 21.9949 1.66281 21.9972 1.12265 21.9945C0.484809 21.9909 0.00316632 21.5286 1.53854e-05 20.9213C-0.00313555 20.315 0.478057 19.8406 1.1123 19.8383C2.19982 19.8343 3.28734 19.8343 4.37487 19.8383C5.0091 19.841 5.48805 20.3146 5.4849 20.9222C5.48174 21.5295 5.00235 21.9877 4.36271 21.9949C4.34786 21.9949 4.33255 21.9949 4.3177 21.9949C3.79239 21.9949 3.26754 21.9949 2.74268 21.9949Z" fill="#F6830F"/>
<path d="M2.73546 12.4517C3.27562 12.4517 3.81533 12.4494 4.3555 12.4521C5.00819 12.4553 5.48848 12.9189 5.48488 13.5378C5.48128 14.1442 4.99964 14.6064 4.36045 14.6078C3.28058 14.6105 2.2007 14.6101 1.12083 14.6078C0.489296 14.6064 -0.000449824 14.1325 3.10043e-07 13.5311C0.000450444 12.923 0.483444 12.4548 1.11543 12.453C1.65559 12.4517 2.1953 12.4526 2.73546 12.4526C2.73546 12.4526 2.73546 12.4521 2.73546 12.4517Z" fill="#F6830F"/>
</svg>
