<svg width="20" height="25" viewBox="0 0 20 25" fill="none" xmlns="http://www.w3.org/2000/svg">
<path d="M9.9717 20.015C7.2617 20.015 4.55171 19.985 1.84171 20.025C0.161712 20.055 -0.238289 18.625 0.121711 17.595C0.291711 17.085 0.601699 16.685 1.0317 16.375C1.2717 16.195 1.51171 16.015 1.76171 15.835C2.52171 15.265 2.9217 14.495 2.9417 13.555C2.9717 11.865 2.9717 10.185 2.9717 8.49495C2.9717 7.08495 3.39171 5.83495 4.32171 4.76495C5.18171 3.77495 6.2717 3.13495 7.5017 2.70495C8.2217 2.45495 8.2617 2.41495 8.2717 1.64495C8.2817 0.854952 8.6017 0.364952 9.2717 0.124952C10.0017 -0.145048 10.8817 0.0349516 11.3317 0.544952C11.5617 0.804952 11.6617 1.10495 11.6817 1.45495C11.7217 2.43495 11.7317 2.42495 12.6417 2.76495C14.0717 3.30495 15.2917 4.11495 16.1417 5.42495C16.7017 6.28495 16.9917 7.23495 16.9917 8.26495C17.0017 9.81495 16.9917 11.365 17.0017 12.915C17.0017 13.265 17.0217 13.615 17.0717 13.965C17.1817 14.745 17.5817 15.365 18.2217 15.835C18.4817 16.025 18.7417 16.215 18.9917 16.415C19.5517 16.845 19.8717 17.415 19.9617 18.125C20.0917 19.205 19.3817 20.025 18.2917 20.025C16.2217 20.025 14.1617 20.025 12.0917 20.025C11.3717 20.015 10.6717 20.015 9.9717 20.015Z" fill="#F6830F"/>
<path d="M13.4217 21.605C13.4117 22.775 12.8717 23.625 11.9317 24.235C10.7217 25.025 9.46171 25.065 8.20171 24.345C7.16171 23.745 6.5517 22.865 6.5217 21.605C8.8217 21.605 11.1017 21.605 13.4217 21.605Z" fill="#F6830F"/>
</svg>
