<svg width="30" height="30" viewBox="0 0 30 30" fill="none" xmlns="http://www.w3.org/2000/svg">
<path d="M29.8712 23.5C29.2812 24.51 28.7011 25.51 28.1111 26.52C27.8311 27.01 27.5511 27.49 27.2511 28.01C26.7411 27.71 26.2311 27.43 25.7411 27.12C25.5512 27 25.4211 27.03 25.2211 27.11C24.6611 27.32 24.5611 27.71 24.6111 28.24C24.6511 28.76 24.6212 29.29 24.6212 29.84C22.8812 29.84 21.1511 29.84 19.3711 29.84C19.3711 29.54 19.3711 29.23 19.3711 28.93C19.3711 28.71 19.3711 28.48 19.3711 28.26C19.3711 27.42 19.3711 27.41 18.6211 27.05C18.5511 27.01 18.4111 27.04 18.3411 27.09C17.8211 27.39 17.3012 27.7 16.7512 28.02C15.8812 26.51 15.0211 25.01 14.1311 23.48C14.6411 23.18 15.1311 22.87 15.6311 22.59C15.8311 22.48 15.8612 22.35 15.8912 22.14C15.9712 21.59 15.7612 21.27 15.2512 21.05C14.8612 20.88 14.5111 20.63 14.1211 20.39C14.9911 18.88 15.8611 17.38 16.7311 15.85C17.2711 16.16 17.7911 16.46 18.3011 16.77C18.4511 16.86 18.5612 16.83 18.7212 16.77C19.3112 16.56 19.4311 16.15 19.3811 15.58C19.3311 15.09 19.3711 14.59 19.3711 14.08C21.1211 14.08 22.8512 14.08 24.6212 14.08C24.6212 14.76 24.6312 15.42 24.6212 16.09C24.6212 16.31 24.7012 16.41 24.8712 16.54C25.3212 16.89 25.6911 16.85 26.1311 16.52C26.4611 16.27 26.8512 16.09 27.2112 15.88C27.2212 15.88 27.2311 15.88 27.2711 15.87C27.3211 15.95 27.3812 16.03 27.4312 16.12C28.1912 17.43 28.9412 18.74 29.7012 20.06C29.7612 20.16 29.8211 20.25 29.8911 20.35C29.8911 20.37 29.8911 20.39 29.8911 20.41C29.3411 20.73 28.7912 21.04 28.2411 21.37C28.1911 21.4 28.1411 21.47 28.1411 21.52C28.1311 21.79 28.1311 22.06 28.1411 22.33C28.1411 22.38 28.1911 22.46 28.2411 22.48C28.7912 22.8 29.3411 23.12 29.8911 23.43C29.8711 23.46 29.8712 23.48 29.8712 23.5ZM22.0012 24.55C23.4412 24.55 24.6112 23.37 24.6212 21.94C24.6212 20.49 23.4411 19.31 21.9911 19.31C20.5511 19.31 19.3811 20.49 19.3711 21.92C19.3711 23.36 20.5612 24.55 22.0012 24.55Z" fill="#0E918C"/>
<path d="M10.0511 0C10.7011 0.06 11.3511 0.11 11.9911 0.18C13.3611 0.34 14.7212 0.57 16.0012 1.12C16.4212 1.3 16.8411 1.54 17.1911 1.83C17.7911 2.33 17.8012 2.95 17.1812 3.43C16.7312 3.77 16.2211 4.05 15.6911 4.25C14.0711 4.87 12.3612 5.08 10.6412 5.19C8.69115 5.32 6.74115 5.25 4.80115 4.95C3.63115 4.77 2.47115 4.53 1.39115 4.02C1.07115 3.87 0.751147 3.68 0.481147 3.45C-0.138853 2.93 -0.138847 2.33 0.471153 1.8C0.941153 1.38 1.52115 1.14 2.11115 0.94C3.73115 0.39 5.41115 0.17 7.11115 0.0599999C7.27115 0.0499999 7.44115 0.03 7.60115 0.00999999C8.41115 -9.31323e-09 9.23115 0 10.0511 0Z" fill="#0E918C"/>
<path d="M17.6211 4.69C17.6211 5.97 17.6311 7.25001 17.6211 8.53C17.6211 8.91001 17.3911 9.2 17.0911 9.39C16.6411 9.67 16.1712 9.94001 15.6812 10.13C14.3012 10.66 12.8511 10.87 11.3911 11.01C9.68115 11.17 7.97115 11.17 6.27115 11.01C4.74115 10.87 3.22115 10.63 1.79115 10.07C1.36115 9.9 0.95115 9.66 0.57115 9.4C0.19115 9.15 0.0111465 8.77001 0.0211465 8.28C0.0411465 7.17 0.0311486 6.07 0.0311486 4.96C0.0311486 4.87 0.0311486 4.77 0.0311486 4.63C0.561149 5.56 1.45115 5.84 2.32115 6.11C3.89115 6.59 5.51115 6.79001 7.13115 6.91001C9.85115 7.11001 12.5212 6.85001 15.1512 6.16001C15.6912 6.02001 16.2011 5.77001 16.7111 5.54001C17.1011 5.38001 17.4111 5.09 17.6211 4.69Z" fill="#0E918C"/>
<path d="M0.0211482 10.59C0.351148 11.19 0.901153 11.47 1.47115 11.72C2.46115 12.14 3.51115 12.35 4.56115 12.52C6.07115 12.76 7.59115 12.93 9.11115 12.88C11.2812 12.82 13.4311 12.6 15.5211 11.95C15.8511 11.85 16.1812 11.71 16.4911 11.56C17.0511 11.29 17.2812 11.07 17.6112 10.55C17.6112 11.8 17.6112 13.03 17.6112 14.31C17.1012 14.01 16.6212 13.73 16.1112 13.43C15.8412 13.9 15.5711 14.35 15.3111 14.81C15.0611 15.25 14.8011 15.68 14.5611 16.12C14.4611 16.3 14.3412 16.39 14.1412 16.43C12.4012 16.8 10.6511 16.95 8.87115 16.95C6.78115 16.95 4.69115 16.79 2.68115 16.19C2.02115 15.99 1.38115 15.69 0.761154 15.37C0.221154 15.09 -0.0188484 14.62 0.00115157 13.98C0.0511516 12.86 0.0211482 11.72 0.0211482 10.59Z" fill="#0E918C"/>
<path d="M13.2411 18.42C12.7511 19.27 12.2612 20.12 11.7512 21.01C12.2612 21.31 12.7512 21.61 13.2811 21.93C12.7112 22.26 12.2312 22.6 11.5712 22.66C8.86115 22.92 6.18115 22.85 3.53115 22.16C2.58115 21.91 1.66115 21.57 0.881149 20.94C0.301149 20.47 -0.0188486 19.87 0.00115143 19.1C0.0211514 18.2 0.0111536 17.29 0.0111536 16.36C0.631154 17.37 1.65115 17.68 2.66115 17.97C5.12115 18.67 7.65115 18.82 10.1911 18.69C11.2111 18.63 12.2211 18.51 13.2411 18.42Z" fill="#0E918C"/>
<path d="M22.0012 22.8C21.5312 22.8 21.1312 22.41 21.1212 21.94C21.1112 21.46 21.5212 21.05 22.0012 21.06C22.4712 21.07 22.8611 21.46 22.8611 21.94C22.8711 22.4 22.4812 22.8 22.0012 22.8Z" fill="#0E918C"/>
</svg>
