<svg width="32" height="33" viewBox="0 0 32 33" fill="none" xmlns="http://www.w3.org/2000/svg">
<path d="M21.8912 2.23413C21.8322 3.21521 21.7535 4.01609 21.7535 4.81698C21.7535 5.09729 21.9502 5.47771 22.1862 5.61786C23.4054 6.37871 24.5067 7.2797 25.4113 8.40094C25.7062 8.78136 26.0602 8.78136 26.4732 8.68125C27.3778 8.44098 28.3021 8.22074 29.2067 7.98048C29.718 7.84032 30.0326 8.0005 30.2096 8.52107C30.7602 10.1228 31.3305 11.7046 31.9205 13.3064C32.1171 13.8269 31.9401 14.1072 31.4878 14.3275C30.6226 14.748 29.777 15.2085 28.9117 15.6089C28.4791 15.8091 28.3414 16.1095 28.2824 16.59C28.1054 17.9715 27.8694 19.333 27.5941 20.7146C27.5155 21.135 27.5351 21.4353 27.8301 21.7557C28.4987 22.4365 29.1084 23.1372 29.777 23.818C30.1899 24.2384 30.2489 24.5988 29.836 25.0794C28.774 26.3408 27.7318 27.6022 26.7092 28.8836C26.3355 29.3441 25.9816 29.3641 25.5293 29.0438C24.7623 28.5032 23.956 27.9826 23.2088 27.442C22.8351 27.1817 22.5401 27.2017 22.1075 27.3619C20.8489 27.8825 19.551 28.363 18.2531 28.7835C17.8008 28.9236 17.5452 29.1238 17.4075 29.5844C17.1715 30.5054 16.8765 31.4064 16.6406 32.3274C16.5029 32.868 16.2079 33.0882 15.6376 32.9681C14.0644 32.6678 12.4912 32.3874 10.8983 32.1272C10.2887 32.0271 10.033 31.7467 10.092 31.086C10.1903 30.145 10.1903 29.1839 10.269 28.2228C10.3083 27.7623 10.1117 27.5221 9.7577 27.2418C8.69577 26.4008 7.65349 25.5199 6.67023 24.5988C6.31625 24.2785 6.02128 24.1383 5.56898 24.2585C4.66437 24.4987 3.7401 24.699 2.8355 24.9592C2.28487 25.1194 1.97024 24.9392 1.77358 24.3986C1.22296 22.8169 0.672326 21.2551 0.0823669 19.6734C-0.114286 19.1328 0.0430278 18.8325 0.534661 18.6122C1.39993 18.1918 2.24554 17.7513 3.11081 17.3308C3.52378 17.1306 3.70078 16.8503 3.70078 16.3898C3.68111 14.9482 3.95641 13.5666 4.38905 12.2051C4.46771 11.9248 4.36938 11.4843 4.17273 11.2641C3.5631 10.5233 2.87481 9.82251 2.20619 9.14176C1.81289 8.74132 1.75389 8.38092 2.1472 7.94043C3.22879 6.65901 4.27107 5.3776 5.333 4.09618C5.68698 3.6557 6.04096 3.63567 6.47359 3.93601C7.26021 4.49662 8.06647 5.0172 8.85308 5.57782C9.20706 5.81808 9.50203 5.81809 9.89534 5.65791C11.1932 5.13733 12.4912 4.63678 13.8087 4.21632C14.2414 4.07616 14.497 3.89596 14.615 3.45547C14.8707 2.53446 15.146 1.63346 15.382 0.712443C15.5393 0.131802 15.8146 -0.0884421 16.4242 0.0316906C17.8205 0.312 19.2167 0.532244 20.6129 0.792532C21.9502 0.992753 21.9502 1.01278 21.8912 2.23413ZM15.9719 22.5966C19.2954 22.6166 22.0092 19.8936 22.0288 16.5299C22.0485 13.1462 19.374 10.4032 16.0702 10.3831C12.7468 10.3631 10.033 13.0861 10.0133 16.4498C9.99366 19.8136 12.6681 22.5766 15.9719 22.5966Z" fill="#F6830F"/>
</svg>
