<svg width="30" height="30" viewBox="0 0 30 30" fill="none" xmlns="http://www.w3.org/2000/svg">
<path d="M0.0100098 13.38C0.90001 13.06 1.79 12.72 2.69 12.44C3.15 12.3 3.36001 12.05 3.46001 11.58C3.69001 10.57 4.1 9.61 4.64 8.72C4.74 8.55 4.74 8.42 4.66 8.24C4.23 7.35 3.81 6.46 3.38 5.57C3.31 5.42 3.31 5.32 3.44 5.2C4.04 4.66 4.63001 4.11 5.21001 3.56C5.33001 3.45 5.42 3.44 5.56 3.51C6.46 3.95 7.37001 4.38 8.29001 4.8C8.40001 4.85 8.58001 4.84 8.68001 4.78C9.75001 4.15 10.86 3.6 12.07 3.29C12.16 3.27 12.25 3.13 12.29 3.03C12.67 2.03 13.03 1.02 13.4 0C14.39 0 15.38 0 16.38 0C16.7 0.99 17.02 1.97 17.32 2.96C17.39 3.18 17.48 3.3 17.71 3.35C18.85 3.61 19.93 4.03 20.93 4.64C21.1 4.74 21.22 4.72 21.38 4.64C22.25 4.22 23.13 3.81 24 3.39C24.19 3.3 24.31 3.3 24.47 3.46C25.03 4.05 25.61 4.62 26.2 5.19C26.33 5.31 26.34 5.4 26.26 5.56C25.83 6.45 25.41 7.34 24.98 8.23C24.89 8.41 24.89 8.54 24.99 8.71C25.64 9.77 26.13 10.9 26.43 12.12C26.48 12.31 26.58 12.38 26.75 12.44C27.66 12.72 28.58 13.02 29.49 13.31C29.58 13.34 29.67 13.37 29.76 13.4C29.76 14.39 29.76 15.37 29.76 16.37C29.02 16.61 28.28 16.85 27.54 17.08C27.26 17.17 26.99 17.26 26.71 17.34C26.56 17.38 26.5 17.46 26.47 17.62C26.41 17.94 26.32 18.25 26.23 18.57C26.2 18.59 26.17 18.6 26.13 18.62C25.94 18.41 25.77 18.2 25.57 18C24.99 17.41 24.41 16.83 23.82 16.25C23.7 16.13 23.66 16.02 23.68 15.84C24.07 12.37 22.79 9.62 20 7.58C18.22 6.28 16.19 5.79 14.01 6C11.51 6.25 9.46 7.39 7.89 9.34C6.81 10.68 6.18 12.22 6 13.92C5.81 15.66 6.10001 17.34 6.90001 18.91C7.92001 20.92 9.49 22.34 11.58 23.18C13.15 23.81 14.79 23.95 16.46 23.7C16.55 23.69 16.69 23.69 16.75 23.75C17.51 24.49 18.26 25.25 19.05 26.04C18.62 26.17 18.23 26.3 17.83 26.4C17.64 26.45 17.54 26.54 17.48 26.73C17.15 27.67 16.8 28.6 16.46 29.54C16.43 29.61 16.42 29.69 16.4 29.76C15.39 29.76 14.38 29.76 13.38 29.76C13.01 28.76 12.63 27.75 12.25 26.75C12.23 26.69 12.13 26.62 12.06 26.6C10.85 26.29 9.74001 25.75 8.68001 25.1C8.54001 25.01 8.43 25.02 8.28 25.09C7.39 25.52 6.5 25.94 5.61 26.37C5.42 26.46 5.31 26.43 5.16 26.29C4.6 25.71 4.03 25.14 3.45 24.58C3.3 24.44 3.29 24.33 3.38 24.16C3.81 23.29 4.21 22.41 4.64 21.54C4.73 21.35 4.74001 21.2 4.63 21.01C4.12 20.1 3.7 19.16 3.45 18.15C3.34 17.71 3.16001 17.47 2.71001 17.33C1.80001 17.05 0.9 16.7 0 16.38C0.01 15.4 0.0100098 14.39 0.0100098 13.38Z" fill="#0E918C"/>
<path d="M9.25 13.27C9.38 13.39 9.48 13.48 9.58 13.58C10.42 14.37 11.25 15.17 12.09 15.96C13.02 16.84 14.69 16.93 15.71 16.12C16.38 15.59 16.88 14.95 16.95 14.04C17.01 13.15 16.79 12.36 16.17 11.72C15.35 10.87 14.51 10.04 13.67 9.20001C13.6 9.13001 13.5 9.07001 13.42 9.00001C13.43 8.97001 13.44 8.93001 13.45 8.90001C13.81 8.84001 14.18 8.75001 14.54 8.73001C18.03 8.50001 20.98 11.31 20.93 14.8C20.92 15.51 20.78 16.21 20.49 16.86C20.41 17.05 20.44 17.16 20.58 17.31C23.4 20.12 26.22 22.94 29.03 25.76C29.78 26.51 29.95 27.72 29.38 28.59C28.6 29.78 27.13 30.06 26.06 29.16C25.93 29.05 25.81 28.94 25.7 28.82C22.91 26.03 20.12 23.24 17.34 20.45C17.18 20.29 17.06 20.25 16.84 20.33C13.78 21.4 10.47 19.83 9.35001 16.77C8.94001 15.66 8.86001 14.55 9.18001 13.41C9.20001 13.39 9.22 13.36 9.25 13.27Z" fill="#0E918C"/>
</svg>
