<svg width="31" height="27" viewBox="0 0 31 27" fill="none" xmlns="http://www.w3.org/2000/svg">
<path d="M30.32 14.27C28.46 14.27 26.6 14.27 24.72 14.27C24.52 12.31 23.8 10.58 22.59 9.1C23.91 7.77 25.22 6.46 26.54 5.13C27.39 6.08 28.12 7.16001 28.72 8.33001C29.57 10.02 30.09 11.8 30.27 13.69C30.28 13.77 30.3 13.84 30.32 13.92C30.32 14.03 30.32 14.15 30.32 14.27Z" fill="#DEBC0A"/>
<path d="M30.32 16.4C30.22 17.03 30.15 17.67 30.02 18.29C29.41 21.2 28.04 23.71 25.96 25.84C25.53 26.28 25.02 26.27 24.58 25.85C24.3 25.58 24.01 25.31 23.7 25.01C23.82 24.94 23.88 24.9 23.95 24.86C25.21 24.08 25.61 22.49 24.85 21.22C24.53 20.69 24.18 20.18 23.85 19.65C23.8 19.57 23.78 19.43 23.81 19.34C23.99 18.81 24.23 18.3 24.39 17.76C24.55 17.22 24.63 16.66 24.75 16.06C26.58 16.06 28.45 16.06 30.32 16.06C30.32 16.16 30.32 16.28 30.32 16.4Z" fill="#DEBC0A"/>
<path d="M15.21 12.38C15.97 12.4 16.71 12.67 17.22 13.31C18.03 14.32 18.82 15.34 19.54 16.41C20.8 18.25 22 20.12 23.23 21.98C23.41 22.26 23.51 22.54 23.39 22.87C23.19 23.43 22.56 23.62 22.02 23.28C21.13 22.71 20.24 22.15 19.37 21.56C17.58 20.34 15.8 19.1 14.02 17.85C13.74 17.65 13.48 17.42 13.23 17.18C12.4 16.4 12.14 15.19 12.56 14.13C12.99 13.09 14.03 12.38 15.21 12.38Z" fill="#DEBC0A"/>
<path d="M0 16.06C1.88 16.06 3.73 16.06 5.57 16.06C5.69 16.65 5.79 17.25 5.95 17.82C6.38 19.34 7.15 20.66 8.24 21.8C8.28 21.84 8.32 21.89 8.36 21.93C8.74 22.35 8.74 22.84 8.33 23.25C7.47 24.12 6.6 24.98 5.74 25.84C5.3 26.28 4.79 26.27 4.34 25.81C2.04 23.45 0.639997 20.64 0.129997 17.39C0.0699973 16.96 0.04 16.52 0 16.06Z" fill="#DEBC0A"/>
<path d="M16.06 5.61C16.06 3.73 16.06 1.88 16.06 0C19.56 0.24 22.6 1.5 25.21 3.78C23.89 5.1 22.58 6.41 21.25 7.74C19.76 6.53 18.03 5.81 16.06 5.61Z" fill="#DEBC0A"/>
<path d="M3.82003 5.10001C5.13003 6.41001 6.44002 7.72001 7.76003 9.05001C6.54002 10.54 5.81002 12.27 5.61002 14.24C3.75002 14.24 1.89003 14.24 0.0300257 14.24C-0.169974 11.79 1.83003 6.97001 3.82003 5.10001Z" fill="#DEBC0A"/>
<path d="M14.25 5.61C12.29 5.81 10.57 6.53 9.09001 7.74C7.77001 6.41 6.45 5.1 5.13 3.77C7.72 1.51 10.76 0.25 14.25 0C14.25 1.87 14.25 3.73 14.25 5.61Z" fill="#DEBC0A"/>
</svg>
