<svg width="30" height="30" viewBox="0 0 30 30" fill="none" xmlns="http://www.w3.org/2000/svg">
<path d="M18.6015 0C19.1015 0.23 19.2815 0.63 19.2515 1.17C19.2215 1.6 19.2415 2.04 19.2415 2.48C19.6415 2.65 20.0215 2.82 20.4115 2.96C20.4715 2.98 20.5915 2.94 20.6515 2.89C20.9715 2.58 21.2815 2.26 21.6015 1.95C22.0515 1.51 22.5415 1.51 22.9815 1.95C24.5815 3.55 26.1815 5.15 27.7815 6.75C28.2315 7.2 28.2215 7.68 27.7815 8.13C27.4715 8.45 27.1515 8.76 26.8415 9.08C26.7915 9.14 26.7415 9.26 26.7715 9.32C26.9215 9.71 27.0915 10.09 27.2515 10.49C27.7515 10.49 28.2615 10.49 28.7615 10.49C29.3815 10.49 29.7315 10.84 29.7315 11.47C29.7315 12.57 29.7315 13.66 29.7315 14.76C29.7315 15.38 29.3815 15.73 28.7515 15.73C27.3415 15.73 25.9415 15.73 24.4815 15.73C24.6315 12.16 23.3815 9.22 20.5015 7.08C18.6815 5.73 16.6015 5.15 14.3515 5.26C13.0515 5.32 11.8015 5.65 10.6315 6.24C9.46154 6.81 8.46155 7.59 7.61155 8.57C6.75155 9.56 6.13155 10.67 5.72155 11.92C5.32155 13.15 5.21155 14.42 5.27155 15.74C5.15155 15.74 5.07155 15.74 4.98155 15.74C3.66155 15.74 2.34155 15.74 1.02155 15.74C0.361545 15.74 0.0215454 15.4 0.0215454 14.74C0.0215454 13.65 0.0215454 12.57 0.0215454 11.48C0.0215454 10.86 0.371545 10.51 0.991545 10.5C1.49155 10.5 2.00155 10.5 2.50155 10.5C2.67155 10.1 2.84155 9.72 2.99155 9.33C3.00155 9.26 2.96155 9.14 2.90155 9.08C2.60155 8.76 2.27155 8.45 1.96155 8.13C1.52155 7.68 1.52155 7.2 1.96155 6.75C3.56155 5.15 5.16155 3.55 6.76155 1.95C7.20155 1.51 7.68155 1.51 8.14155 1.95C8.45155 2.25 8.75154 2.57 9.07154 2.87C9.13155 2.93 9.26155 2.98 9.33154 2.96C9.72155 2.81 10.1015 2.65 10.4915 2.48C10.4915 2.04 10.5115 1.61 10.4815 1.17C10.4615 0.63 10.6415 0.23 11.1415 0C13.6315 0 16.1115 0 18.6015 0Z" fill="#0E918C"/>
<path d="M0.651559 29.83C0.151559 29.6 -0.0184409 29.2 0.00155911 28.66C0.0315591 27.89 0.00155911 27.11 0.0115591 26.33C0.0215591 25.45 0.371559 24.72 1.02156 24.13C1.16156 24 1.26156 23.97 1.43156 24.11C3.17156 25.53 5.58156 25.53 7.33156 24.11C7.48156 23.99 7.57156 23.98 7.72156 24.11C8.36156 24.68 8.73156 25.39 8.75156 26.25C8.77156 27.14 8.75156 28.03 8.76156 28.93C8.76156 29.39 8.49156 29.65 8.12156 29.84C5.62156 29.83 3.14156 29.83 0.651559 29.83Z" fill="#0E918C"/>
<path d="M11.1415 29.83C10.6415 29.6 10.4715 29.2 10.4915 28.66C10.5215 27.89 10.4915 27.11 10.5015 26.33C10.5115 25.45 10.8615 24.72 11.5115 24.13C11.6515 24 11.7515 23.97 11.9215 24.11C13.6615 25.53 16.0715 25.53 17.8215 24.11C17.9715 23.99 18.0615 23.98 18.2115 24.11C18.8515 24.68 19.2215 25.39 19.2415 26.25C19.2615 27.14 19.2415 28.03 19.2515 28.93C19.2515 29.39 18.9816 29.65 18.6116 29.84C16.1116 29.83 13.6315 29.83 11.1415 29.83Z" fill="#0E918C"/>
<path d="M21.6316 29.83C21.1316 29.6 20.9616 29.2 20.9816 28.66C21.0116 27.89 20.9816 27.11 20.9916 26.33C21.0016 25.45 21.3516 24.72 22.0016 24.13C22.1416 24 22.2416 23.97 22.4116 24.11C24.1516 25.53 26.5616 25.53 28.3116 24.11C28.4616 23.99 28.5516 23.98 28.7016 24.11C29.3416 24.68 29.7116 25.39 29.7316 26.25C29.7516 27.14 29.7316 28.03 29.7416 28.93C29.7416 29.39 29.4716 29.65 29.1016 29.84C26.6016 29.83 24.1116 29.83 21.6316 29.83Z" fill="#0E918C"/>
<path d="M22.7115 15.73C22.1115 15.73 21.5316 15.74 20.9516 15.73C20.4516 15.72 20.1316 15.33 20.1116 14.79C20.0416 12.87 19.2015 11.38 17.5715 10.37C14.3915 8.4 10.1215 10.46 9.67155 14.16C9.64155 14.4 9.63155 14.64 9.62155 14.88C9.59155 15.32 9.27155 15.69 8.83155 15.71C8.23155 15.73 7.63155 15.72 7.01155 15.72C6.85155 12.65 7.87155 10.11 10.4415 8.38C13.1715 6.54 16.0716 6.47 18.9215 8.13C21.5515 9.67 22.9815 12.53 22.7115 15.73Z" fill="#0E918C"/>
<path d="M4.37155 17.6C5.97155 17.6 7.28155 18.9 7.29155 20.5C7.30155 22.11 5.98155 23.43 4.37155 23.43C2.77155 23.43 1.46155 22.12 1.46155 20.52C1.47155 18.91 2.77155 17.6 4.37155 17.6Z" fill="#0E918C"/>
<path d="M14.8615 23.42C13.2615 23.42 11.9615 22.11 11.9615 20.51C11.9615 18.9 13.2815 17.59 14.9015 17.6C16.5015 17.61 17.8015 18.93 17.7915 20.53C17.7715 22.13 16.4615 23.43 14.8615 23.42Z" fill="#0E918C"/>
<path d="M25.3716 23.42C23.7716 23.42 22.4516 22.12 22.4516 20.52C22.4416 18.91 23.7516 17.59 25.3716 17.59C26.9716 17.59 28.2816 18.9 28.2816 20.5C28.2716 22.11 26.9716 23.42 25.3716 23.42Z" fill="#0E918C"/>
</svg>
