<svg width="25" height="23" viewBox="0 0 25 23" fill="none" xmlns="http://www.w3.org/2000/svg">
<path d="M24.4637 8.87739V20.6797C24.1444 22.0398 23.1496 22.4542 21.9792 22.4484C16.4292 22.4216 10.8786 22.4363 5.32797 22.4356C5.18473 22.4379 5.04148 22.4321 4.89889 22.4184C3.82043 22.2971 3.05421 21.4562 3.05294 20.3707C3.04911 16.6443 3.05038 12.9175 3.05677 9.19026C3.0593 8.9511 3.10048 8.71391 3.17872 8.48789C3.47244 7.63739 4.22397 7.14126 5.1958 7.14063C10.9054 7.14063 16.615 7.14063 22.3246 7.14063C22.3885 7.14063 22.4523 7.14062 22.5162 7.14573C22.9367 7.16189 23.3417 7.30896 23.6745 7.56641C24.0074 7.82386 24.2516 8.17882 24.373 8.58176C24.4017 8.68073 24.433 8.77714 24.4637 8.87739ZM9.15715 19.3893C10.1679 19.3893 11.1793 19.3893 12.1901 19.3893C12.7118 19.3893 13.1555 19.0655 13.2213 18.6045C13.3311 17.83 13.1575 17.097 12.3274 16.636C11.5424 16.2091 10.6802 15.9429 9.7912 15.8532C8.52566 15.7127 7.34185 16.0103 6.20465 16.5351C5.47036 16.8742 5.08661 17.4463 5.09491 18.2706C5.10257 18.9934 5.49207 19.3893 6.22125 19.3906C7.19946 19.391 8.17809 19.3906 9.15715 19.3893ZM9.13608 15.306C10.2401 15.3373 11.1755 14.4344 11.21 13.3049C11.2438 12.2021 10.3339 11.2533 9.21462 11.2239C8.0953 11.1946 7.1554 12.1006 7.12922 13.2378C7.10368 14.3444 8.00527 15.2734 9.13608 15.306ZM17.8199 14.2754H18.2739C19.4673 14.2754 20.6607 14.2754 21.854 14.2754C22.2442 14.2754 22.4836 13.997 22.4076 13.6471C22.3527 13.3917 22.1522 13.264 21.8042 13.264H13.879C13.8075 13.2619 13.736 13.2653 13.6651 13.2742C13.6004 13.2855 13.5386 13.3095 13.4832 13.3448C13.4278 13.38 13.3799 13.4259 13.3422 13.4797C13.3045 13.5335 13.2779 13.5942 13.2637 13.6583C13.2495 13.7224 13.2481 13.7887 13.2596 13.8533C13.3094 14.126 13.5093 14.278 13.8343 14.2786C15.1624 14.2773 16.4907 14.2763 17.8193 14.2754H17.8199ZM18.8505 16.3187H17.8927C17.2088 16.3187 16.5243 16.3187 15.8399 16.3187C15.5078 16.3187 15.2901 16.5236 15.2863 16.8161C15.2824 17.1085 15.511 17.3269 15.8501 17.332H21.7947C21.8586 17.3356 21.9228 17.333 21.9862 17.3243C22.2091 17.2803 22.3629 17.1526 22.4064 16.924C22.4498 16.6954 22.3815 16.5013 22.1752 16.3953C22.0527 16.3412 21.9196 16.3154 21.7857 16.3199C20.8075 16.3161 19.8287 16.3187 18.8498 16.3187H18.8505Z" fill="#CACACA"/>
<path d="M14.2015 6.1049C12.0732 6.1049 9.94627 6.1049 7.82086 6.1049C7.61781 6.1049 7.44158 6.06595 7.31515 5.89546C7.11785 5.62984 7.20597 5.30739 7.5348 5.11456C8.47087 4.56927 9.40566 4.02483 10.3392 3.48124C12.1402 2.43151 13.9415 1.38179 15.7429 0.332074C16.8469 -0.312827 18.0646 0.000684323 18.6986 1.10659C19.4946 2.4943 20.2883 3.88286 21.0796 5.27227C21.2795 5.62346 21.1767 5.96953 20.8402 6.07553C20.74 6.10004 20.6367 6.10951 20.5337 6.10362C18.4228 6.1049 16.3121 6.10532 14.2015 6.1049Z" fill="#CACACA"/>
<path d="M2.03507 11.0646C2.03507 11.6533 2.04082 12.242 2.03507 12.8301C2.02933 13.2483 1.68261 13.5127 1.33909 13.3569C1.22025 13.2954 1.12145 13.2012 1.05431 13.0855C0.784432 12.6364 0.523705 12.1816 0.272129 11.721C-0.345954 10.5985 0.126548 9.26206 1.3078 8.75827C1.67559 8.60248 2.02677 8.84575 2.03252 9.27547C2.0421 9.87185 2.03507 10.4682 2.03507 11.0646Z" fill="#CACACA"/>
</svg>
