<svg width="19" height="18" viewBox="0 0 19 18" fill="none" xmlns="http://www.w3.org/2000/svg">
<path d="M16.4981 12.2748L13.953 11.9842C13.3417 11.914 12.7405 12.1245 12.3096 12.5553L10.4659 14.3991C7.63022 12.9561 5.30554 10.6415 3.86264 7.79573L5.71637 5.94199C6.14724 5.51112 6.35766 4.90991 6.28752 4.29868L5.99694 1.77358C5.87669 0.761537 5.02498 0 4.00292 0H2.26943C1.13715 0 0.195258 0.941901 0.2654 2.07419C0.796468 10.6315 7.64024 17.4652 16.1874 17.9963C17.3197 18.0665 18.2616 17.1246 18.2616 15.9923V14.2588C18.2716 13.2467 17.5101 12.395 16.4981 12.2748Z" fill="#0E918C"/>
</svg>
