<svg width="23" height="16" viewBox="0 0 23 16" fill="none" xmlns="http://www.w3.org/2000/svg">
<path d="M23 1.81167V14.1516C22.6571 15.5727 21.5886 16.0059 20.3314 15.9999C14.3702 15.9719 8.40828 15.9879 2.44636 15.9866C2.29251 15.9889 2.13864 15.9829 1.98548 15.9686C0.827111 15.8437 0.00411498 14.9639 0 13.8291C0 9.93346 0.0022861 6.03733 0.0068583 2.14076C0.0096507 1.89166 0.0536502 1.64463 0.137166 1.40915C0.453334 0.520003 1.26056 0 2.30439 0C8.43708 0 14.5698 0 20.7025 0C20.7711 0 20.8396 0 20.9082 0.00467268C21.3599 0.0217121 21.7949 0.175599 22.1525 0.444854C22.51 0.714108 22.7723 1.0853 22.9026 1.50661C22.9335 1.60874 22.9671 1.7102 23 1.81167ZM6.55928 12.8038C7.64495 12.8038 8.7313 12.8072 9.81697 12.8038C10.3773 12.8038 10.8539 12.4654 10.9246 11.9834C11.0426 11.1737 10.856 10.4081 9.96443 9.92612C9.12148 9.47927 8.19532 9.2008 7.24031 9.10706C5.88099 8.96021 4.60946 9.27127 3.388 9.81998C2.59724 10.1731 2.18506 10.7712 2.19466 11.633C2.20289 12.3886 2.62124 12.8025 3.40446 12.8038C4.45607 12.8052 5.50767 12.8052 6.55928 12.8038ZM6.53665 8.53499C7.72245 8.5677 8.72719 7.62449 8.76422 6.44296C8.80057 5.29015 7.82327 4.2982 6.621 4.2675C5.41874 4.23679 4.4092 5.18401 4.38108 6.37287C4.35365 7.5297 5.32204 8.50162 6.53665 8.53499ZM15.8639 7.4576H16.3509C17.6334 7.4576 18.9152 7.4576 20.197 7.4576C20.6161 7.4576 20.8732 7.16656 20.7916 6.80076C20.7326 6.53375 20.5173 6.40024 20.1435 6.40024H11.631C11.5542 6.39809 11.4774 6.40166 11.4012 6.41092C11.3317 6.42269 11.2653 6.44771 11.2057 6.48454C11.1462 6.52137 11.0947 6.5693 11.0542 6.62556C11.0137 6.68181 10.9851 6.7453 10.9699 6.81237C10.9547 6.87944 10.9533 6.94877 10.9657 7.01637C11.0192 7.3014 11.2339 7.46027 11.583 7.46094C13.0095 7.4605 14.4363 7.45938 15.8633 7.4576H15.8639ZM16.9709 9.59369H15.9421C15.2076 9.59369 14.4724 9.59369 13.7372 9.59369C13.3805 9.59369 13.1467 9.80796 13.1426 10.1137C13.1384 10.4194 13.384 10.6477 13.7482 10.6531H20.1332C20.2019 10.6568 20.2708 10.6542 20.339 10.645C20.5783 10.599 20.7436 10.4655 20.7903 10.2265C20.8369 9.98753 20.7635 9.7846 20.542 9.67446C20.4106 9.61736 20.2675 9.5902 20.1236 9.59502C19.0729 9.59102 18.0216 9.59369 16.9702 9.59369H16.9709Z" fill="#CACACA"/>
</svg>
