<svg width="24" height="24" viewBox="0 0 24 24" fill="none" xmlns="http://www.w3.org/2000/svg">
<circle opacity="0.51" cx="12" cy="12" r="12" fill="#1A202E"/>
<path d="M19.3801 9.58017V17.0002C19.1793 17.8552 18.5539 18.1158 17.8181 18.1122C14.3289 18.0953 10.8392 18.1045 7.34962 18.1041C7.25957 18.1055 7.16951 18.1019 7.07986 18.0933C6.40184 18.017 5.92013 17.4883 5.91932 16.8059C5.91691 14.4632 5.91772 12.1201 5.92173 9.77687C5.92332 9.62651 5.94922 9.47739 5.99841 9.3353C6.18306 8.80059 6.65555 8.48868 7.26652 8.48828C10.8561 8.48828 14.4457 8.48828 18.0353 8.48828C18.0754 8.48828 18.1156 8.48828 18.1557 8.49149C18.4201 8.50165 18.6747 8.59411 18.884 8.75597C19.0932 8.91782 19.2467 9.14099 19.3231 9.39431C19.3411 9.45653 19.3608 9.51715 19.3801 9.58017ZM9.75699 16.1889C10.3925 16.1889 11.0283 16.1889 11.6638 16.1889C11.9918 16.1889 12.2707 15.9854 12.3121 15.6955C12.3811 15.2086 12.2719 14.7478 11.7501 14.4579C11.2566 14.1895 10.7145 14.0222 10.1556 13.9658C9.35998 13.8775 8.61573 14.0645 7.90078 14.3945C7.43914 14.6077 7.19788 14.9674 7.2031 15.4856C7.20791 15.94 7.45278 16.1889 7.91122 16.1897C8.52621 16.19 9.14147 16.1897 9.75699 16.1889ZM9.74374 13.6218C10.4378 13.6414 11.0259 13.0738 11.0476 12.3637C11.0689 11.6704 10.4968 11.0739 9.79312 11.0554C9.08941 11.037 8.49851 11.6066 8.48205 12.3215C8.46599 13.0172 9.03281 13.6013 9.74374 13.6218ZM15.2032 12.9739H15.4886C16.2389 12.9739 16.9891 12.9739 17.7394 12.9739C17.9847 12.9739 18.1352 12.7988 18.0875 12.5788C18.0529 12.4183 17.9269 12.338 17.7081 12.338H12.7256C12.6806 12.3367 12.6357 12.3388 12.5911 12.3444C12.5504 12.3515 12.5116 12.3666 12.4767 12.3888C12.4419 12.4109 12.4118 12.4398 12.3881 12.4736C12.3644 12.5074 12.3476 12.5456 12.3387 12.5859C12.3298 12.6262 12.329 12.6679 12.3362 12.7085C12.3675 12.8799 12.4931 12.9755 12.6975 12.9759C13.5324 12.9751 14.3675 12.9744 15.2028 12.9739H15.2032ZM15.8511 14.2584H15.249C14.819 14.2584 14.3887 14.2584 13.9584 14.2584C13.7496 14.2584 13.6127 14.3873 13.6103 14.5711C13.6079 14.755 13.7516 14.8923 13.9648 14.8955H17.7021C17.7423 14.8978 17.7826 14.8962 17.8225 14.8907C17.9626 14.863 18.0594 14.7827 18.0867 14.639C18.114 14.4953 18.071 14.3732 17.9413 14.3066C17.8643 14.2726 17.7806 14.2564 17.6965 14.2592C17.0815 14.2568 16.4661 14.2584 15.8507 14.2584H15.8511Z" fill="white"/>
<path d="M12.9301 7.8381C11.592 7.8381 10.2548 7.8381 8.91861 7.8381C8.79095 7.8381 8.68016 7.81361 8.60068 7.70643C8.47663 7.53943 8.53203 7.33671 8.73877 7.21548C9.32726 6.87266 9.91496 6.53037 10.5018 6.18862C11.6341 5.52867 12.7666 4.86872 13.8991 4.20877C14.5932 3.80333 15.3587 4.00043 15.7574 4.69571C16.2578 5.56815 16.7568 6.44112 17.2543 7.31463C17.3799 7.53542 17.3153 7.753 17.1038 7.81963C17.0408 7.83504 16.9758 7.841 16.9111 7.8373C15.5839 7.8381 14.257 7.83837 12.9301 7.8381Z" fill="white"/>
<path d="M5.27943 10.9563C5.27943 11.3264 5.28305 11.6965 5.27943 12.0662C5.27582 12.3292 5.05784 12.4954 4.84187 12.3974C4.76716 12.3588 4.70505 12.2996 4.66284 12.2268C4.49317 11.9445 4.32925 11.6585 4.17109 11.369C3.7825 10.6632 4.07956 9.82305 4.8222 9.50632C5.05343 9.40837 5.27421 9.56132 5.27783 9.83148C5.28385 10.2064 5.27943 10.5814 5.27943 10.9563Z" fill="white"/>
</svg>
