<svg width="25" height="22" viewBox="0 0 25 22" fill="none" xmlns="http://www.w3.org/2000/svg">
<path d="M0.512207 5.06482C0.512207 3.77272 0.512207 2.48063 0.512207 1.18854C0.496375 1.02977 0.518859 0.869753 0.57806 0.719862C0.637261 0.569971 0.731726 0.433886 0.854737 0.321285C0.977748 0.208683 1.12628 0.122329 1.28979 0.0683624C1.45329 0.0143955 1.62774 -0.00585815 1.80074 0.00903973H10.2502C10.4252 -0.00661467 10.6018 0.0136412 10.7673 0.0683392C10.9327 0.123037 11.0828 0.210807 11.2067 0.325296C11.3306 0.439785 11.4253 0.578126 11.4837 0.730299C11.5422 0.882473 11.563 1.04467 11.5447 1.20515C11.5447 3.77642 11.5447 6.35045 11.5447 8.92725C11.5447 9.69144 11.071 10.1261 10.2321 10.1261H1.80376C1.62882 10.1409 1.45248 10.1199 1.28743 10.0647C1.12239 10.0095 0.97273 9.92136 0.849228 9.80671C0.725726 9.69207 0.631448 9.55375 0.573174 9.40168C0.514899 9.24961 0.494078 9.08759 0.512207 8.92725V5.06482Z" fill="#1A202E" fill-opacity="0.05"/>
<path d="M24.1396 5.08652V8.92404C24.1396 9.67992 23.6628 10.1202 22.845 10.1202H14.3956C14.2229 10.1354 14.0487 10.1155 13.8853 10.0621C13.7218 10.0086 13.5733 9.92284 13.45 9.81082C13.3268 9.6988 13.2319 9.56327 13.1721 9.41385C13.1123 9.26443 13.0891 9.10477 13.104 8.94619C13.104 6.362 13.104 3.77228 13.104 1.17702C13.0896 1.02046 13.1123 0.862878 13.1707 0.715176C13.2291 0.567474 13.3218 0.433168 13.4423 0.32154C13.5628 0.209912 13.7083 0.123624 13.8687 0.0686366C14.0291 0.013649 14.2007 -0.00872745 14.3714 0.00305692H22.8631C23.034 -0.00830149 23.2056 0.014461 23.366 0.0697773C23.5264 0.125093 23.6718 0.21165 23.7923 0.323486C23.9128 0.435322 24.0054 0.569781 24.0637 0.717606C24.1221 0.86543 24.1449 1.02311 24.1305 1.17979L24.1396 5.08652Z" fill="#1A202E" fill-opacity="0.05"/>
<path d="M11.5379 16.623C11.5379 17.9151 11.5379 19.2016 11.5379 20.4827C11.5379 21.2496 11.0641 21.6843 10.2282 21.6843C7.41174 21.6843 4.60633 21.6843 1.81199 21.6843C1.63716 21.7002 1.46068 21.6803 1.29522 21.6262C1.12976 21.572 0.97944 21.4849 0.855073 21.371C0.730705 21.2572 0.63538 21.1194 0.575952 20.9678C0.516524 20.8161 0.494471 20.6542 0.511378 20.4937C0.511378 17.9096 0.511378 15.3254 0.511378 12.7412C0.495686 12.5826 0.518137 12.4227 0.577148 12.2729C0.636158 12.1231 0.730288 11.9871 0.852892 11.8743C0.975496 11.7615 1.12358 11.6749 1.2867 11.6204C1.44981 11.5659 1.62398 11.5449 1.7969 11.5589H10.2614C10.4324 11.5463 10.6043 11.568 10.7652 11.6225C10.9261 11.6769 11.0722 11.7628 11.1934 11.8742C11.3145 11.9857 11.4078 12.1199 11.4668 12.2677C11.5257 12.4155 11.549 12.5733 11.5349 12.7301C11.5389 14.0296 11.5399 15.3272 11.5379 16.623Z" fill="#1A202E" fill-opacity="0.05"/>
<path d="M18.5989 21.6841C17.2048 21.6841 15.8106 21.6841 14.4164 21.6841C13.5926 21.6841 13.1128 21.2466 13.1128 20.4991C13.1128 17.9149 13.1128 15.3307 13.1128 12.7465C13.0962 12.5877 13.1179 12.4275 13.1764 12.2772C13.2348 12.127 13.3285 11.9903 13.4509 11.877C13.5732 11.7637 13.7213 11.6764 13.8845 11.6214C14.0477 11.5664 14.2221 11.545 14.3953 11.5587H22.8447C23.0157 11.5454 23.1877 11.5663 23.3489 11.6201C23.5101 11.6738 23.6566 11.7591 23.7783 11.87C23.9001 11.9809 23.994 12.1147 24.0538 12.2623C24.1135 12.4098 24.1375 12.5675 24.1242 12.7244C24.1242 15.3215 24.1242 17.9177 24.1242 20.5129C24.1376 20.6697 24.1136 20.8273 24.0538 20.9747C23.9941 21.1221 23.9001 21.2558 23.7783 21.3665C23.6565 21.4772 23.5099 21.5622 23.3487 21.6156C23.1875 21.669 23.0155 21.6896 22.8447 21.6758C21.4385 21.6869 20.0202 21.6841 18.5989 21.6841Z" fill="#1A202E" fill-opacity="0.05"/>
</svg>
