<svg width="17" height="20" viewBox="0 0 17 20" fill="none" xmlns="http://www.w3.org/2000/svg">
<path d="M15.25 2.5H11.8125V1.875C11.8125 0.839453 10.973 0 9.9375 0H7.4375C6.40195 0 5.5625 0.839453 5.5625 1.875V2.5H2.125C1.26207 2.5 0.5625 3.19957 0.5625 4.0625V5.3125C0.5625 5.6577 0.842305 5.9375 1.1875 5.9375H16.1875C16.5327 5.9375 16.8125 5.6577 16.8125 5.3125V4.0625C16.8125 3.19957 16.1129 2.5 15.25 2.5ZM6.8125 1.875C6.8125 1.53047 7.09297 1.25 7.4375 1.25H9.9375C10.282 1.25 10.5625 1.53047 10.5625 1.875V2.5H6.8125V1.875Z" fill="#0E918C"/>
<path d="M1.74609 7.1875C1.63456 7.1875 1.5457 7.2807 1.55101 7.39211L2.06663 18.2141C2.11429 19.2156 2.93694 20 3.93929 20H13.4307C14.433 20 15.2557 19.2156 15.3034 18.2141L15.819 7.39211C15.8243 7.2807 15.7354 7.1875 15.6239 7.1875H1.74609ZM11.185 8.75C11.185 8.40469 11.4647 8.125 11.81 8.125C12.1553 8.125 12.435 8.40469 12.435 8.75V16.875C12.435 17.2203 12.1553 17.5 11.81 17.5C11.4647 17.5 11.185 17.2203 11.185 16.875V8.75ZM8.05999 8.75C8.05999 8.40469 8.33968 8.125 8.68499 8.125C9.0303 8.125 9.30999 8.40469 9.30999 8.75V16.875C9.30999 17.2203 9.0303 17.5 8.68499 17.5C8.33968 17.5 8.05999 17.2203 8.05999 16.875V8.75ZM4.93499 8.75C4.93499 8.40469 5.21468 8.125 5.55999 8.125C5.9053 8.125 6.18499 8.40469 6.18499 8.75V16.875C6.18499 17.2203 5.9053 17.5 5.55999 17.5C5.21468 17.5 4.93499 17.2203 4.93499 16.875V8.75Z" fill="#0E918C"/>
</svg>
