<svg width="25" height="18" viewBox="0 0 25 18" fill="none" xmlns="http://www.w3.org/2000/svg">
<path d="M24.3576 4.93359V5.12115C24.3576 8.54638 24.3576 11.9714 24.3576 15.3961C24.3579 15.587 24.3348 15.7772 24.2888 15.9625C24.0348 16.9697 23.183 17.5989 22.0786 17.5996C18.9512 17.5996 15.8241 17.5996 12.6973 17.5996C9.51713 17.5996 6.33673 17.5996 3.15608 17.5996C2.5329 17.5996 1.98594 17.4166 1.52864 16.9832C1.16475 16.6387 0.983923 16.2009 0.871094 15.7256V8.85125V4.94555C0.906266 4.95766 0.940276 4.97292 0.972715 4.99113C2.90501 6.27883 4.83682 7.56703 6.76812 8.85573L10.5042 11.3492C11.8895 12.2727 13.3249 12.2802 14.7043 11.3619C17.8426 9.26969 20.9827 7.17748 24.1244 5.08528C24.1917 5.03746 24.2604 4.99561 24.3576 4.93359Z" fill="#CACACA"/>
<path d="M23.4346 3.88403C22.0067 4.85541 20.5638 5.80288 19.1269 6.76081L13.9973 10.1845C13.0139 10.8399 12.2181 10.8391 11.2326 10.1845C10.5695 9.74319 9.90725 9.30109 9.24572 8.85824C6.89597 7.29009 4.54349 5.72591 2.18826 4.16573C1.54342 3.74056 1.0256 3.25711 0.867188 2.47254V1.87476C0.904548 1.74325 0.937426 1.611 0.980764 1.48173C1.27965 0.591794 2.08515 0.0179332 3.06101 0.00298886C3.50934 -0.00373608 3.9629 0.00298886 4.41422 0.00298886C8.66937 0.00298886 12.925 0.00298886 17.1811 0.00298886H22.0522C22.7367 0.00298886 23.33 0.206979 23.7955 0.723305C24.675 1.69244 24.5173 3.14727 23.4346 3.88403Z" fill="#CACACA"/>
</svg>
