<svg width="24" height="23" viewBox="0 0 24 23" fill="none" xmlns="http://www.w3.org/2000/svg">
<path d="M22.0307 9.92716V11.6672C21.949 11.5639 21.8615 11.4654 21.7687 11.372C21.4511 11.0484 21.0727 10.7908 20.6553 10.6139C20.2379 10.4369 19.7896 10.3442 19.3362 10.341H19.3107C18.6411 10.3399 17.9856 10.5331 17.4236 10.8971C16.8615 11.2611 16.4171 11.7802 16.1441 12.3916C15.8712 13.0031 15.7814 13.6805 15.8856 14.342C15.9898 15.0034 16.2836 15.6204 16.7314 16.1183C15.1969 16.8417 14.1024 18.43 14.0672 20.1873C14.0534 20.8638 14.3203 21.2804 14.5458 21.5107C14.761 21.7307 15.1445 21.99 15.7638 22.0128C11.6451 22.016 7.52623 22.016 3.4071 22.0128C1.6726 22.0128 0.342932 20.9093 0.0484464 19.2259C0.0202419 19.0388 0.00824322 18.8495 0.0125839 18.6604C0.0125839 15.83 0.0125839 12.9996 0.0125839 10.1692C0.0125839 10.0941 0.0194805 10.0182 0.0243082 9.92578L22.0307 9.92716Z" fill="#CACACA"/>
<path d="M17.6298 3.30227C18.0043 3.30227 18.3381 3.30227 18.6725 3.30227C20.6036 3.31538 22.0174 4.73126 22.0305 6.66576C22.0305 7.00025 22.0305 7.33473 22.0305 7.68577H0.0406192C-0.087658 6.323 0.0364813 5.04643 1.17236 4.08849C1.7296 3.61883 2.36823 3.34434 3.0972 3.31055C3.52479 3.29193 3.95376 3.31055 4.41377 3.31055V2.20709C4.41377 1.85467 4.41377 1.50157 4.41377 1.14915C4.41998 0.492589 4.87239 0.0112044 5.48964 0.000169757C6.1262 -0.0101752 6.60345 0.453278 6.62069 1.12087C6.63379 1.74157 6.62069 2.36226 6.62069 2.97882V3.28158H15.4229V2.68572C15.4229 2.16916 15.416 1.65122 15.4229 1.13742C15.4346 0.467071 15.9056 -0.00396822 16.5353 0.000169757C17.1649 0.00430773 17.6236 0.486382 17.627 1.15673C17.6325 1.86226 17.6298 2.56434 17.6298 3.30227Z" fill="#CACACA"/>
<path d="M22.7985 20.9263C22.2628 20.9263 21.7265 20.9263 21.1895 20.9263H15.8542C15.3805 20.9263 15.1508 20.6897 15.1604 20.2125C15.1908 18.6787 16.2915 17.2911 17.7536 16.9062C18.2338 17.1475 18.7638 17.2729 19.3012 17.2725H19.3101C19.8483 17.2736 20.3792 17.1489 20.8605 16.9083C21.2845 17.0203 21.6827 17.2135 22.0329 17.4773C22.4387 17.7805 22.7748 18.1671 23.0187 18.611C23.2625 19.055 23.4085 19.546 23.4467 20.0511C23.4509 20.1111 23.4564 20.1711 23.4592 20.2311C23.475 20.6642 23.2295 20.9249 22.7985 20.9263Z" fill="#CACACA"/>
<path d="M21.6818 13.804C21.6804 14.1858 21.5874 14.5617 21.4106 14.9002C21.2338 15.2386 20.9785 15.5296 20.6659 15.7489C20.2679 16.027 19.7941 16.1761 19.3086 16.1761C18.8231 16.1761 18.3493 16.027 17.9514 15.7489C17.6357 15.5269 17.3785 15.2316 17.202 14.8885C17.0254 14.5453 16.9347 14.1644 16.9376 13.7785C16.9431 12.4854 18.0252 11.4233 19.3286 11.4337C20.6321 11.444 21.6914 12.5185 21.6818 13.804Z" fill="#CACACA"/>
</svg>
