<svg width="23" height="19" viewBox="0 0 23 19" fill="none" xmlns="http://www.w3.org/2000/svg">
<path d="M23 5.4394V16.8201C22.9442 17.0495 22.8766 17.2759 22.7974 17.4983C22.4029 18.4615 21.5348 19 20.3932 19H2.78704C2.69629 19 2.60685 19 2.51741 19C1.08641 18.8941 0.00657631 17.8342 0 16.4868C0 11.4883 0.00306895 6.48973 0.00920684 1.4912C0.0116592 1.23948 0.0762422 0.992213 0.197289 0.771083C0.516898 0.202573 1.05879 0 1.69011 0H8.18093C8.94379 0 9.70795 0 10.4708 0C11.3626 0.0065346 11.9071 0.496629 11.9689 1.38141C12.0018 1.90418 11.9781 2.43741 11.982 2.9654C11.982 3.05166 11.9899 3.13661 11.9952 3.24377H12.2819C15.0001 3.24377 17.7183 3.24377 20.4366 3.24377C21.5506 3.24377 22.4094 3.79268 22.804 4.76242C22.8808 4.98465 22.9462 5.2106 23 5.4394ZM11.235 13.1502C11.235 13.4495 11.235 13.7161 11.235 13.9827C11.2274 14.2271 11.2371 14.4716 11.2639 14.7146C11.3099 15.0191 11.4993 15.0792 11.7348 14.8884C11.9978 14.6819 12.2425 14.4715 12.4963 14.2624C13.5853 13.3659 14.6739 12.4693 15.7621 11.5728C16.0567 11.3284 16.0778 10.9546 15.8016 10.7272C14.4398 9.60238 13.0746 8.47973 11.7058 7.35927C11.5099 7.19721 11.3389 7.2521 11.2731 7.49911C11.2453 7.62216 11.2325 7.74809 11.235 7.87419C11.235 8.26627 11.235 8.67011 11.235 9.08701H7.92972C7.45096 9.08701 7.16424 9.32487 7.15371 9.80843C7.13135 10.6919 7.13399 11.578 7.15371 12.4628C7.16424 12.9176 7.45096 13.1555 7.90999 13.1555H11.235V13.1502Z" fill="#0E918C"/>
</svg>
