<svg width="39" height="21" viewBox="0 0 39 21" fill="none" xmlns="http://www.w3.org/2000/svg">
<path d="M19.1657 20.4668H11.7372C10.7147 20.4668 10.2158 19.956 10.2391 18.927C10.3111 15.3069 13.1473 12.0655 16.7426 11.6203C18.5739 11.3937 20.4348 11.3328 22.2565 11.7348C25.4595 12.4419 27.8793 15.3029 28.1067 18.5795C28.1155 18.7092 28.1291 18.8381 28.1347 18.9679C28.174 19.9015 27.6447 20.4644 26.715 20.466C25.1672 20.466 23.6194 20.466 22.0707 20.466L19.1657 20.4668Z" fill="#0E918C"/>
<path d="M19.1768 10.2311C18.5016 10.229 17.8335 10.0934 17.2109 9.83198C16.5884 9.57057 16.0237 9.18857 15.5494 8.70797C15.0752 8.22738 14.7007 7.6577 14.4475 7.03174C14.1944 6.40579 14.0676 5.73593 14.0745 5.06077C14.0849 2.2718 16.4166 -0.0183066 19.2312 0.00011031C22.0218 0.0185273 24.3263 2.34066 24.3063 5.11442C24.3042 6.47302 23.7627 7.77518 22.8008 8.73466C21.8389 9.69414 20.5354 10.2324 19.1768 10.2311Z" fill="#0E918C"/>
<path d="M7.66979 10.2312C6.99432 10.2292 6.32592 10.0935 5.70312 9.83202C5.08033 9.5705 4.51546 9.1883 4.04107 8.70744C3.56669 8.22658 3.19218 7.65658 2.93913 7.03029C2.68608 6.40401 2.55951 5.73383 2.5667 5.0584C2.58031 2.27103 4.91686 -0.0206784 7.72745 0.000140739C10.5076 0.0209599 12.7929 2.31107 12.8009 5.08642C12.8036 5.76163 12.6727 6.4307 12.416 7.0552C12.1592 7.67969 11.7816 8.24728 11.3048 8.72536C10.8279 9.20344 10.2613 9.58258 9.63754 9.841C9.01373 10.0994 8.34501 10.232 7.66979 10.2312Z" fill="#0E918C"/>
<path d="M10.6501 11.9915C9.55471 13.1069 8.72034 14.3937 8.2335 15.8887C7.74665 17.3836 7.47119 18.8834 7.88517 20.4665H1.48889C0.503181 20.4657 0.00912665 19.9596 0.000318541 18.9667C-0.0213014 16.2522 1.05729 14.1118 3.33459 12.6112C4.35084 11.9445 5.53096 11.5702 6.74573 11.5294C7.96365 11.4774 9.18397 11.4494 10.3635 11.8497C10.4387 11.8754 10.5148 11.9002 10.5893 11.9298C10.6045 11.9338 10.6149 11.9546 10.6501 11.9915Z" fill="#0E918C"/>
<path d="M30.596 10.2288C31.2712 10.2264 31.9393 10.0904 32.5618 9.82874C33.1843 9.56705 33.7488 9.18479 34.2229 8.70398C34.697 8.22318 35.0713 7.65333 35.3243 7.02725C35.5772 6.40117 35.7038 5.73123 35.6967 5.05603C35.6855 2.26786 33.3489 -0.0230464 30.5384 0.000174993C27.7574 0.0177912 25.4729 2.3087 25.4649 5.08325C25.4621 5.75853 25.5929 6.42769 25.8496 7.05227C26.1063 7.67685 26.4839 8.24454 26.9608 8.72271C27.4376 9.20087 28.0042 9.58009 28.6281 9.83855C29.2519 10.097 29.9207 10.2296 30.596 10.2288Z" fill="#0E918C"/>
<path d="M27.6133 11.9861C28.7087 13.1023 29.5431 14.3923 30.0299 15.884C30.5168 17.3758 30.7922 18.878 30.3782 20.4619H36.7713C37.757 20.4619 38.2511 19.9558 38.2591 18.9621C38.2815 16.2476 37.2029 14.1072 34.9256 12.6074C33.9098 11.9393 32.7296 11.5636 31.5145 11.5216C30.2957 11.4696 29.0762 11.4416 27.8967 11.8419C27.8215 11.8676 27.7454 11.8932 27.6709 11.922C27.6549 11.9276 27.6453 11.95 27.6133 11.9861Z" fill="#0E918C"/>
</svg>
