<svg width="21" height="24" viewBox="0 0 21 24" fill="none" xmlns="http://www.w3.org/2000/svg">
<path d="M10.8347 2.21675e-06C12.0729 0.00143018 13.2827 0.370134 14.3112 1.05945C15.3397 1.74876 16.1406 2.7277 16.6124 3.87236C17.0843 5.01702 17.206 6.27595 16.9621 7.4898C16.7183 8.70366 16.1197 9.81788 15.2423 10.6914C14.3649 11.565 13.2481 12.1586 12.0332 12.3972C10.8183 12.6357 9.55989 12.5085 8.41731 12.0316C7.27473 11.5547 6.29932 10.7495 5.61453 9.71805C4.92973 8.68655 4.56634 7.47508 4.57035 6.23697C4.57622 4.57988 5.23898 2.99274 6.4133 1.82357C7.58761 0.654396 9.17765 -0.00139143 10.8347 2.21675e-06Z" fill="#0E918C"/>
<path d="M5.7865 12.2734C8.53207 14.3346 11.4274 14.6428 14.4725 13.1982C14.432 13.5104 14.3713 13.8513 14.3491 14.1916C14.3269 14.5318 14.3445 14.8747 14.3445 15.2548C13.9657 15.2548 13.5948 15.2548 13.2245 15.2548C12.7578 15.2475 12.2992 15.3777 11.9059 15.629C11.4868 15.8981 11.1643 16.2936 10.9851 16.7583C10.806 17.223 10.7795 17.7327 10.9096 18.2135C11.0396 18.6943 11.3194 19.1211 11.7084 19.4322C12.0974 19.7432 12.5754 19.9222 13.073 19.9433C13.4864 19.9557 13.9004 19.9433 14.3439 19.9433C14.3439 20.2861 14.3439 20.6094 14.3439 20.9321C14.3439 22.2513 14.9917 23.0905 16.2666 23.4236C16.2783 23.4236 16.2868 23.4419 16.311 23.4654H3.17872C1.63875 23.4654 0.609484 22.4583 0.666302 20.9183C0.808675 17.1135 2.58442 14.2647 5.7865 12.2734Z" fill="#0E918C"/>
<path d="M17.4736 18.3785V19.5711C17.4736 20.0837 17.4795 20.5971 17.4736 21.1097C17.4767 21.2141 17.4587 21.318 17.4209 21.4153C17.383 21.5126 17.326 21.6013 17.2533 21.6761C17.1806 21.751 17.0935 21.8105 16.9974 21.8512C16.9012 21.8918 16.7979 21.9128 16.6935 21.9128C16.5891 21.9128 16.4858 21.8918 16.3897 21.8512C16.2935 21.8105 16.2065 21.751 16.1337 21.6761C16.061 21.6013 16.004 21.5126 15.9662 21.4153C15.9283 21.318 15.9104 21.2141 15.9134 21.1097C15.9069 20.296 15.9134 19.4816 15.9134 18.6672V18.3798H15.1865C14.5432 18.3798 13.8999 18.3798 13.2567 18.3798C12.7427 18.3798 12.3861 18.0533 12.3907 17.5903C12.3952 17.1272 12.7446 16.8177 13.2456 16.8164C14.0358 16.8164 14.8254 16.8164 15.615 16.8164H15.9095V16.5401C15.9095 15.742 15.9095 14.944 15.9095 14.1459C15.9095 13.6482 16.236 13.2969 16.6932 13.2969C17.1504 13.2969 17.4769 13.6489 17.4769 14.1459C17.4802 15.0093 17.4769 15.872 17.4802 16.7354C17.4841 16.7627 17.49 16.7898 17.4978 16.8164H20.0683C20.6333 16.8164 20.9931 17.1174 20.9964 17.5916C21.0003 18.0768 20.6385 18.3798 20.0559 18.3805L17.4736 18.3785Z" fill="#0E918C"/>
</svg>
