<svg width="28" height="25" viewBox="0 0 28 25" fill="none" xmlns="http://www.w3.org/2000/svg">
<path d="M19.9876 3.07753C19.9829 1.59457 19.0873 0.439647 17.6819 0.106169C17.4459 0.0526747 17.2045 0.0268658 16.9625 0.0292645C12.694 0.0151994 8.42569 0.00544455 4.15761 0C2.43645 0 1.15698 1.28355 1.13997 3.00675C1.13589 3.4675 1.13997 3.92824 1.13657 4.41553C1.22912 4.42029 1.31079 4.42778 1.39314 4.42846C1.90901 4.43595 2.42556 4.42166 2.94007 4.45228C3.79215 4.50469 4.45842 5.24038 4.45774 6.09517C4.45733 6.51396 4.29732 6.91685 4.01031 7.22182C3.72329 7.52679 3.33084 7.71091 2.91285 7.73671C2.41399 7.76257 1.91309 7.74692 1.4156 7.74964H1.14473L1.13929 10.3446C1.64155 10.3446 2.13972 10.3446 2.63654 10.3446C2.96866 10.3446 3.28784 10.3902 3.58457 10.5563C3.89739 10.731 4.14568 11.0018 4.29275 11.3285C4.43982 11.6553 4.47787 12.0207 4.40125 12.3707C4.32476 12.7166 4.13788 13.0283 3.86879 13.2587C3.59971 13.4891 3.263 13.6258 2.90945 13.6481C2.4031 13.6733 1.89404 13.659 1.38633 13.6624C1.30262 13.6624 1.21891 13.6624 1.12636 13.6624L1.12091 16.2554C1.20803 16.2554 1.29105 16.2554 1.37408 16.2554C1.88928 16.2615 2.40651 16.2486 2.92102 16.2765C3.76016 16.3234 4.43801 17.0755 4.43256 17.9255C4.42712 18.7755 3.75948 19.5112 2.92986 19.5589C2.42284 19.5881 1.91378 19.5732 1.40607 19.5779H1.09913C1.14609 20.4919 0.956215 21.4005 1.35367 22.2546C1.79604 23.2074 2.53514 23.7859 3.57232 23.9764C3.60849 23.9872 3.6434 24.0018 3.67645 24.02L10.0929 24.0329C10.0929 23.9955 10.0929 23.9581 10.0929 23.92C10.1759 21.2276 10.9653 18.9137 12.449 17.0013L6.66959 16.9877C6.66959 16.4589 6.62059 15.926 6.68252 15.406C6.88669 13.7148 8.18794 12.5851 9.89141 12.5796C10.6958 12.5769 11.5005 12.5785 12.3054 12.5844C13.642 12.596 14.7241 13.3167 15.2209 14.4138C15.3788 14.3062 15.5394 14.1994 15.7035 14.0959C16.992 13.2865 18.4368 12.7578 19.9434 12.5442C19.9482 12.4238 19.955 12.3013 19.9659 12.1754V12.1563L19.9768 6.99421C19.9836 5.68888 19.9917 4.38286 19.9876 3.07753ZM11.064 11.6255C9.43066 11.5792 8.21108 10.2848 8.2594 8.64322C8.305 7.11603 9.63279 5.88556 11.1899 5.92775C11.9411 5.95055 12.6529 6.26926 13.1702 6.81446C13.6875 7.35966 13.9684 8.08718 13.9517 8.83855C13.9054 10.4127 12.6048 11.6697 11.064 11.6255ZM16.433 15.2447C16.1132 15.4471 15.8087 15.6581 15.5197 15.8777C15.5197 16.2499 15.5197 16.6222 15.5197 17.0047H14.2511C12.4776 18.8409 11.5456 21.16 11.4554 23.9622C11.4554 23.988 11.4554 24.0125 11.4554 24.0363H12.4966C12.6892 23.7995 12.8832 23.5599 13.0928 23.3401C14.9855 21.3324 17.2783 20.136 19.955 19.7331L19.9672 13.9197C18.7117 14.1179 17.5094 14.5687 16.433 15.2447ZM14.3097 24.0397L17.3287 24.0459C17.7023 23.9166 18.1059 23.8417 18.4441 23.6484C19.4296 23.0863 19.9039 22.2131 19.9482 21.1099C17.7493 21.4822 15.8947 22.4458 14.3097 24.0411V24.0397Z" fill="#0E918C"/>
<path d="M1.87303 5.16856C2.17725 5.16856 2.48555 5.15903 2.78568 5.17332C3.26752 5.19646 3.61597 5.49387 3.70036 5.93216C3.73631 6.12938 3.70642 6.33295 3.61529 6.51151C3.52416 6.69008 3.37686 6.83373 3.19606 6.92034C3.05337 6.98259 2.89981 7.01612 2.74416 7.01902C2.15887 7.02923 1.57358 7.02991 0.988294 7.01902C0.522104 7.00814 0.179098 6.75224 0.0654425 6.35955C-0.0475319 5.99273 0.0688454 5.56941 0.39688 5.36524C0.592094 5.25752 0.808173 5.193 1.03049 5.17604C1.30816 5.14474 1.59196 5.16924 1.87303 5.16992V5.16856Z" fill="#0E918C"/>
<path d="M1.84069 18.8337C1.51334 18.8337 1.18394 18.8535 0.857952 18.8269C0.374068 18.7868 0.0521586 18.4526 0.00315762 17.9844C-0.013545 17.7845 0.0363426 17.5848 0.145044 17.4163C0.253745 17.2477 0.415151 17.1199 0.6041 17.0527C0.722223 17.0121 0.846037 16.9905 0.970927 16.9887C1.55622 16.9833 2.14151 16.9826 2.72679 16.9887C3.13514 16.9948 3.45228 17.1725 3.61562 17.5597C3.76194 17.9075 3.69933 18.2335 3.45773 18.5214C3.26308 18.7534 2.9997 18.8365 2.7091 18.8405C2.4185 18.8446 2.13198 18.8405 1.84274 18.8405L1.84069 18.8337Z" fill="#0E918C"/>
<path d="M1.85432 12.9234C1.53445 12.9234 1.21322 12.9397 0.894715 12.9172C0.431928 12.8839 0.109339 12.5878 0.0324344 12.1632C-0.0061976 11.9662 0.0221976 11.762 0.113097 11.583C0.203996 11.404 0.352169 11.2607 0.534014 11.1757C0.676831 11.1138 0.830308 11.0803 0.985911 11.077C1.5712 11.0668 2.15717 11.0695 2.74246 11.077C3.1508 11.0831 3.46727 11.2614 3.6272 11.6487C3.77352 11.9964 3.71023 12.3224 3.46863 12.6103C3.2733 12.8417 3.00992 12.9247 2.72 12.9281C2.43008 12.9315 2.1422 12.9281 1.85296 12.9281L1.85432 12.9234Z" fill="#0E918C"/>
<path d="M27.1151 16.4722V16.9302C27.0838 17.0418 27.0572 17.1548 27.0225 17.2651C26.926 17.5575 26.7589 17.8217 26.5359 18.0341C25.3735 19.1911 24.2152 20.3528 23.0439 21.5016C22.8664 21.6755 22.6573 21.8141 22.428 21.91C22.3351 21.9506 22.2348 21.9719 22.1334 21.9726C22.032 21.9733 21.9314 21.9533 21.8379 21.914C21.7445 21.8747 21.6599 21.8168 21.5895 21.7438C21.5191 21.6708 21.4642 21.5842 21.4282 21.4894C21.3395 21.2522 21.29 21.002 21.2819 20.7489C21.2588 20.3794 21.2772 20.0064 21.2778 19.611C21.0675 19.6232 20.8661 19.6287 20.6653 19.6477C20.4244 19.6709 20.1889 19.7008 19.9514 19.7362C17.2747 20.1412 14.9833 21.3376 13.0892 23.3432C12.8796 23.5651 12.6857 23.8026 12.4931 24.0395C12.4311 24.115 12.3706 24.1899 12.3093 24.2634C12.1453 24.4628 11.969 24.5356 11.7648 24.4675C11.6737 24.4388 11.5943 24.3816 11.5381 24.3042C11.482 24.2269 11.4522 24.1336 11.4531 24.0381C11.4531 24.0143 11.4531 23.9898 11.4531 23.9639C11.5389 21.1627 12.4708 18.8435 14.2489 17.0065C14.642 16.5992 15.0652 16.222 15.5148 15.8781C15.8042 15.6585 16.1087 15.4475 16.4281 15.2451C17.5041 14.5682 18.7061 14.1165 19.9616 13.9174C20.3338 13.8563 20.7088 13.8143 21.0852 13.7914C21.1458 13.7914 21.2064 13.7812 21.2894 13.7738C21.2894 13.6785 21.2894 13.5886 21.2894 13.5015C21.2969 13.1 21.2846 12.6957 21.32 12.2962C21.3534 11.911 21.5242 11.5884 21.9217 11.453C22.0463 11.4118 22.1788 11.4001 22.3087 11.4189C22.4387 11.4376 22.5624 11.4864 22.6703 11.5612C22.8164 11.6537 22.952 11.7619 23.0745 11.8838C24.2356 13.0426 25.3937 14.2041 26.5488 15.3683C26.8426 15.6485 27.0342 16.0189 27.0933 16.4205C27.0984 16.4386 27.1057 16.4559 27.1151 16.4722Z" fill="#0E918C"/>
</svg>
