<svg width="24" height="24" viewBox="0 0 24 24" fill="none" xmlns="http://www.w3.org/2000/svg">
<circle cx="12" cy="12" r="12" fill="#0E918C"/>
<path d="M19.9033 11.6198C18.397 8.86432 15.4147 7 12 7C8.58527 7 5.60221 8.86563 4.09665 11.6201C4.03311 11.7379 4 11.8681 4 12.0001C4 12.1322 4.03311 12.2624 4.09665 12.3802C5.60304 15.1357 8.58527 17 12 17C15.4147 17 18.3978 15.1344 19.9033 12.3799C19.9669 12.2621 20 12.1319 20 11.9999C20 11.8678 19.9669 11.7376 19.9033 11.6198ZM12 15.75C11.2089 15.75 10.4355 15.5301 9.77771 15.118C9.11992 14.706 8.60723 14.1203 8.30447 13.4351C8.00172 12.7498 7.92251 11.9958 8.07685 11.2684C8.23119 10.541 8.61216 9.8728 9.17157 9.34835C9.73098 8.8239 10.4437 8.46675 11.2196 8.32206C11.9956 8.17736 12.7998 8.25162 13.5307 8.53545C14.2616 8.81928 14.8864 9.29993 15.3259 9.91661C15.7654 10.5333 16 11.2583 16 12C16.0003 12.4925 15.897 12.9803 15.696 13.4353C15.4951 13.8904 15.2005 14.3039 14.829 14.6522C14.4575 15.0005 14.0165 15.2767 13.531 15.465C13.0456 15.6534 12.5254 15.7502 12 15.75ZM12 9.5C11.762 9.50312 11.5255 9.53632 11.2969 9.5987C11.4853 9.83872 11.5757 10.1341 11.5518 10.4312C11.5278 10.7284 11.391 11.0076 11.1662 11.2184C10.9415 11.4291 10.6436 11.5573 10.3266 11.5798C10.0097 11.6023 9.69463 11.5175 9.43861 11.3409C9.29282 11.8444 9.31914 12.3781 9.51385 12.8669C9.70857 13.3557 10.0619 13.7749 10.5241 14.0656C10.9862 14.3563 11.534 14.5038 12.0903 14.4873C12.6465 14.4708 13.1833 14.2912 13.625 13.9738C14.0667 13.6563 14.391 13.217 14.5525 12.7177C14.7139 12.2184 14.7042 11.6842 14.5248 11.1903C14.3454 10.6963 14.0053 10.2676 13.5524 9.9644C13.0995 9.66119 12.5565 9.49877 12 9.5Z" fill="white"/>
</svg>
