<svg width="24" height="25" viewBox="0 0 24 25" fill="none" xmlns="http://www.w3.org/2000/svg">
<path d="M11.2515 0H12.7517C12.811 0.0169314 12.8713 0.0297759 12.9322 0.0384428C14.8009 0.178149 16.5491 0.714473 18.1431 1.6957C21.241 3.60331 23.1491 6.34681 23.8158 9.9337C23.8969 10.3692 23.9395 10.8118 24 11.2515V12.7517C23.9808 12.9055 23.9592 13.0593 23.9428 13.2135C23.6859 15.5871 22.8256 17.7141 21.3104 19.5631C19.4263 21.8603 17.0161 23.2846 14.0907 23.8176C13.6476 23.8983 13.1976 23.9423 12.7508 24.0052H11.2515C10.9585 23.9691 10.6651 23.9376 10.373 23.8964C8.15737 23.5814 6.17006 22.7375 4.44155 21.3146C2.14717 19.4281 0.718223 17.0212 0.187526 14.093C0.105952 13.6491 0.0614146 13.199 0 12.7517V11.2515C0.0187526 11.0978 0.0398492 10.9445 0.0567265 10.7902C0.334264 8.24785 1.29533 6.00082 2.9915 4.08337C4.85645 1.97605 7.17895 0.665247 9.95714 0.180962C10.3861 0.106421 10.8202 0.0595394 11.2515 0ZM5.01631 19.1004C5.11851 19.0784 5.19259 19.0648 5.26478 19.0456C6.38994 18.7526 7.51228 18.4549 8.64024 18.1698C8.75838 18.1428 8.88212 18.1555 8.99232 18.2059C10.3838 18.8988 11.8432 19.1271 13.3814 18.8993C17.3639 18.3095 20.1351 14.3246 19.3001 10.3781C18.4882 6.54089 14.8933 4.08384 11.0396 4.72987C6.51089 5.48841 3.85459 10.3177 5.62577 14.5712C6.07911 15.1746 5.96472 15.7967 5.74907 16.4596C5.47059 17.3166 5.26384 18.1975 5.01631 19.1004Z" fill="#0E918C"/>
<path d="M6.74249 17.397C6.89626 16.8293 7.01862 16.2831 7.1963 15.7562C7.32006 15.3877 7.27928 15.1022 7.08003 14.7581C4.97599 11.1182 7.26334 6.46758 11.4227 5.8975C14.7325 5.44463 17.7109 7.70666 18.1773 11.0268C18.6143 14.135 16.401 17.1617 13.3218 17.6788C11.8455 17.9268 10.4677 17.6708 9.17235 16.9287C9.06064 16.8696 8.93186 16.8512 8.80808 16.8767C8.17096 17.0286 7.539 17.1997 6.90469 17.3642C6.8625 17.3731 6.8189 17.3806 6.74249 17.397ZM14.1418 15.2541C14.2516 15.254 14.3612 15.2464 14.4699 15.2311C15.3138 15.0558 15.9186 14.5748 15.89 13.684C15.8872 13.5978 15.8347 13.4698 15.7672 13.4356C15.2749 13.1833 14.7742 12.9471 14.273 12.7131C14.108 12.6358 13.981 12.692 13.8717 12.8425C13.7161 13.0568 13.5379 13.2546 13.3748 13.4637C13.2628 13.6081 13.1362 13.6381 12.9646 13.5696C11.9112 13.1477 11.109 12.4403 10.5268 11.4717C10.4419 11.3311 10.4461 11.2176 10.5511 11.0901C10.7038 10.9131 10.8433 10.725 10.9684 10.5275C11.0246 10.4337 11.0584 10.2795 11.0223 10.1834C10.838 9.6949 10.6322 9.21483 10.4227 8.73711C10.3847 8.65132 10.3022 8.53739 10.2253 8.52474C9.89714 8.46895 9.55256 8.40847 9.27361 8.67288C8.71385 9.20311 8.50804 9.8557 8.64915 10.6096C8.77526 11.2809 9.15078 11.8285 9.55303 12.3606C10.312 13.3624 11.1939 14.2255 12.3575 14.7454C12.9266 15.0014 13.5018 15.2546 14.1418 15.2541Z" fill="#0E918C"/>
</svg>
