<svg width="40" height="40" viewBox="0 0 40 40" fill="none" xmlns="http://www.w3.org/2000/svg">
<rect width="40" height="40" rx="20" fill="white"/>
<path d="M22.6655 8.78906V9.58496L22.3432 9.78027C21.8843 10.0586 21.4057 10.5859 21.1567 11.084C20.8686 11.6748 20.7954 12.041 20.8247 12.8076C20.8491 13.5596 20.9419 13.9014 21.269 14.4287L21.4839 14.7803L21.2886 15.3076C21.1811 15.5957 21.0884 15.8398 21.0835 15.8496C21.0737 15.8545 20.7466 15.835 20.3511 15.8057C19.0718 15.708 17.6216 15.8887 16.4155 16.2988C15.8198 16.499 15.0288 16.8408 14.9848 16.9189C14.9653 16.9482 15.0923 17.0898 15.2681 17.2461C15.6733 17.6025 16.1518 18.208 16.3862 18.6523C16.5473 18.9648 16.5669 19.0283 16.518 19.1455C16.4497 19.3164 16.2495 19.3994 16.0786 19.3262C16.0054 19.2969 15.893 19.1699 15.81 19.0186C15.4145 18.3057 14.8188 17.6807 14.145 17.2803C13.2026 16.7139 12.8218 16.5918 11.8452 16.5576C11.1811 16.5332 11.1518 16.5332 11.0444 16.6406C10.9077 16.7773 10.9321 16.8896 11.2104 17.373C11.6792 18.1885 12.1382 19.1992 12.104 19.3359C12.0893 19.3799 11.6157 20.0146 11.0444 20.7422L10.0044 22.0605H9.56004C9.3159 22.0605 9.08641 22.0801 9.05223 22.0996C9.0034 22.1338 8.99364 22.5977 9.0034 24.3848C9.01805 26.4746 9.02293 26.6406 9.11082 26.8115C9.28172 27.1533 10.5903 28.0078 12.1186 28.7744C12.8169 29.126 12.9634 29.2188 13.0659 29.3701C13.1343 29.4824 13.3296 30.0732 13.5395 30.8154L13.896 32.0703H15.2681H16.645L16.811 31.4209L16.9819 30.7764L19.5796 30.7617C21.6352 30.752 22.1821 30.7617 22.2016 30.8105C22.2114 30.8447 22.2895 31.1426 22.3774 31.4697L22.5337 32.0703H23.9057H25.2827L25.8149 30.2295L26.3472 28.3887L26.7768 27.876C27.6509 26.8164 28.1977 25.6738 28.3979 24.4824L28.4565 24.1357L29.4819 24.1113C30.3511 24.0918 30.5268 24.0723 30.6391 23.999C30.937 23.8037 31.0298 23.4668 30.8784 23.1201C30.7075 22.7393 30.6538 22.7246 29.4819 22.6953L28.4565 22.6709L28.3735 22.1826C28.2612 21.5625 28.0415 20.8936 27.7583 20.332C27.5337 19.8828 27.1333 19.248 26.9477 19.0479C26.894 18.9844 26.855 18.9307 26.8696 18.9209C26.8794 18.9111 27.0259 18.8184 27.1968 18.7158C27.8315 18.3398 28.3247 17.7148 28.5591 17.0117C28.7251 16.4941 28.769 15.5713 28.6518 15.0684C28.5591 14.6631 28.2563 14.0576 27.9927 13.7451C27.8852 13.6182 27.8071 13.4863 27.8169 13.4521C27.8511 13.3691 28.6714 10.2051 28.6714 10.1709C28.6714 10.1221 27.6509 9.66309 27.1968 9.50195L26.7671 9.35059V8.67676V7.99805H24.7163H22.6655V8.78906ZM25.4487 9.89258V10.4688L25.8296 10.5225C26.2593 10.5859 26.9917 10.791 27.0698 10.8691C27.104 10.9033 27.0698 11.1182 26.9575 11.5869C26.8257 12.1143 26.7768 12.2461 26.7182 12.2314C26.6792 12.2168 26.4497 12.1484 26.2104 12.0801C25.3755 11.8311 24.5259 11.8066 24.1499 12.0215C23.7641 12.2363 23.7495 12.7295 24.1157 13.0078C24.2134 13.0811 24.604 13.2617 24.98 13.4033C26.3618 13.9355 26.9526 14.3457 27.2554 14.9902C27.6313 15.7959 27.4214 16.8896 26.7915 17.3877C26.5132 17.6123 26.0444 17.8369 25.6929 17.9199L25.4536 17.9736L25.4389 18.6621L25.4243 19.3506H24.7163H24.0083L23.9936 18.6816L23.979 18.0127L23.7495 17.9834C23.2514 17.9102 22.7925 17.8027 22.4263 17.6611C21.8354 17.4365 21.855 17.5 22.1382 16.7529L22.3823 16.1133L22.6557 16.2354C22.8071 16.2988 23.1391 16.4111 23.3979 16.4844C23.7837 16.5918 23.9643 16.6113 24.4966 16.6162C25.0288 16.6162 25.1606 16.6016 25.3218 16.5234C25.8198 16.2744 25.8149 15.6299 25.3169 15.3027C25.2143 15.2344 24.7651 15.0391 24.3208 14.8633C23.354 14.4873 23.1489 14.3896 22.8608 14.1553C22.5532 13.9062 22.4409 13.7744 22.2895 13.4668C22.1626 13.2178 22.1528 13.1543 22.1528 12.6318C22.1528 12.0801 22.1577 12.0654 22.3384 11.6992C22.6167 11.1328 23.1098 10.7471 23.7544 10.5811L23.9839 10.5273V9.92188V9.31641H24.7163H25.4487V9.89258ZM13.896 21.0303C14.4331 21.3623 14.4673 22.2314 13.9643 22.6172C13.5591 22.9248 13.0415 22.8857 12.6802 22.5244C12.3188 22.1631 12.2798 21.6455 12.5874 21.2402C12.8852 20.8545 13.4614 20.7617 13.896 21.0303Z" fill="#0E918C"/>
</svg>
