<svg width="40" height="40" viewBox="0 0 40 40" fill="none" xmlns="http://www.w3.org/2000/svg">
<rect width="40" height="40" rx="20" fill="white"/>
<path d="M9.78433 8.06637C9.57596 8.19139 9.56554 8.25043 9.56554 9.17767V10.0111H8.4716C7.28736 10.0111 7.27695 10.0111 7.09983 10.2022L7.01301 10.2959L7.00259 21.2214C6.99565 31.7754 6.99912 32.1539 7.05816 32.272C7.09289 32.3379 7.17623 32.4213 7.24222 32.4526C7.35335 32.5116 7.80829 32.5151 15.2714 32.5151C24.1202 32.5151 23.3561 32.5394 23.4916 32.2685C23.5541 32.1469 23.561 32.0601 23.561 31.3169V30.5008H24.6689C25.7593 30.5008 25.7732 30.5008 25.8913 30.4209C25.9573 30.3793 26.0372 30.289 26.0684 30.223C26.1274 30.1084 26.1309 29.5111 26.1309 19.2558C26.1309 7.47946 26.1448 8.28863 25.9399 8.10109L25.8461 8.01427L17.8725 8.00733C10.0101 7.99691 9.89546 7.99691 9.78433 8.06637ZM25.1585 19.2315V29.5284H24.3598H23.561V19.9504C23.561 10.5217 23.561 10.3758 23.4916 10.2647C23.4568 10.2022 23.3839 10.1258 23.3284 10.091C23.2381 10.032 22.929 10.0285 16.8758 10.0111L10.5206 9.99378L10.5101 9.50759C10.5067 9.24365 10.5101 9.00403 10.5171 8.97972C10.531 8.94152 11.8854 8.93457 17.8482 8.93457H25.1585V19.2315ZM22.5921 15.8698C22.5956 18.5612 22.5956 20.8464 22.5956 20.9506C22.5921 21.0547 22.5921 23.4892 22.5921 26.3577L22.5886 31.5774H15.2783H7.96804V21.2805V10.9835H15.2783H22.5886L22.5921 15.8698Z" fill="#F6830F"/>
<path d="M11.0375 12.252C10.9299 12.3492 10.9055 12.3978 10.8882 12.5506L10.8708 12.7312L10.6277 12.825C10.3047 12.95 10.1103 13.0785 9.88106 13.3112C9.32194 13.8842 9.20039 14.7281 9.57893 15.447C9.72826 15.7352 10.0825 16.0825 10.3846 16.2388C10.6868 16.395 10.8535 16.4402 11.2528 16.4749C11.6557 16.5096 11.8154 16.5583 12.0203 16.7145C12.4405 17.0306 12.503 17.6001 12.1627 17.9891C11.9717 18.2078 11.7286 18.3225 11.423 18.3433C10.8257 18.3815 10.3916 18.0342 10.3047 17.4438C10.277 17.2493 10.2457 17.1729 10.1728 17.0965C9.94357 16.8569 9.56156 16.916 9.40876 17.2111C9.29763 17.4265 9.38098 17.9335 9.58935 18.3051C9.80813 18.6975 10.1624 18.9997 10.6173 19.1802L10.8708 19.2844L10.8882 19.4963C10.9055 19.6873 10.9194 19.722 11.034 19.8297C11.1591 19.9443 11.2355 19.9651 11.4438 19.9477C11.6591 19.9304 11.8258 19.7151 11.8258 19.4407V19.2671L12.0099 19.208C12.4787 19.0587 12.9545 18.642 13.1664 18.194C13.3365 17.8397 13.3886 17.4612 13.3122 17.1C13.1941 16.5235 12.8295 16.0373 12.3259 15.7734C12.0134 15.6102 11.8814 15.5754 11.4612 15.5372C10.9889 15.4956 10.8083 15.4261 10.586 15.2073C10.2735 14.8913 10.2249 14.5162 10.4506 14.1412C10.5687 13.9432 10.8048 13.7592 11.0201 13.6966C11.2146 13.6446 11.548 13.655 11.7425 13.721C11.8571 13.7592 11.9752 13.839 12.1037 13.971C12.3016 14.169 12.3815 14.3391 12.3815 14.5614C12.3815 14.7177 12.503 14.9364 12.6246 14.999C12.8642 15.124 13.1872 15.0267 13.2948 14.7975C13.3678 14.6482 13.3678 14.5162 13.3018 14.2072C13.1664 13.5682 12.6211 12.9847 11.9752 12.7937C11.8328 12.7486 11.8258 12.7416 11.8258 12.6131C11.8258 12.3249 11.6279 12.1339 11.3292 12.1339C11.1903 12.1339 11.1452 12.1512 11.0375 12.252Z" fill="#F6830F"/>
<path d="M15.1403 13.8314C15.0813 13.8453 14.9875 13.9078 14.9319 13.9668C14.7965 14.1058 14.7722 14.3801 14.8799 14.5503C15.0188 14.7725 14.9007 14.7656 18.0297 14.7656C20.7871 14.7656 20.874 14.7621 20.9816 14.6961C21.3254 14.4878 21.2456 13.9356 20.8566 13.8279C20.7003 13.7863 15.2897 13.7863 15.1403 13.8314Z" fill="#F6830F"/>
<path d="M15.0673 16.0119C14.7443 16.1612 14.713 16.6092 15.0082 16.8315C15.0985 16.901 15.1645 16.901 17.9323 16.9114C20.4918 16.9183 20.7766 16.9149 20.912 16.8628C21.0995 16.7933 21.1968 16.6474 21.1968 16.4391C21.1968 16.2411 21.11 16.0987 20.9363 16.0154C20.7974 15.9494 20.7141 15.9459 17.9983 15.9459C15.359 15.9459 15.1992 15.9494 15.0673 16.0119Z" fill="#F6830F"/>
<path d="M15.0589 18.1643C14.8818 18.2511 14.8054 18.397 14.8227 18.6193C14.8366 18.8346 14.9582 18.9874 15.1561 19.043C15.3298 19.0916 20.6883 19.0881 20.862 19.043C20.9314 19.0221 21.0356 18.9527 21.0946 18.8832C21.2926 18.6609 21.2162 18.2893 20.9488 18.1643C20.8377 18.1122 20.5702 18.1053 18.0004 18.1053C15.4374 18.1053 15.1665 18.1122 15.0589 18.1643Z" fill="#F6830F"/>
<path d="M9.80297 21.268C9.44527 21.4729 9.51472 22.0182 9.91062 22.1293C9.9905 22.1502 11.904 22.1641 15.1928 22.1641H20.3534L20.5062 22.0842C20.8674 21.9001 20.8674 21.4382 20.5027 21.2542C20.3916 21.1951 20.0651 21.1916 15.158 21.1916H9.93146L9.80297 21.268Z" fill="#F6830F"/>
<path d="M9.89651 23.7654C9.49713 23.887 9.45199 24.467 9.83052 24.651C9.92429 24.6962 10.539 24.7031 15.1787 24.7031C20.308 24.7031 20.4192 24.7031 20.5268 24.6337C20.8637 24.4288 20.8463 23.9599 20.4921 23.7967C20.3497 23.7342 20.1865 23.7307 15.1717 23.7342C12.324 23.7342 9.95207 23.7515 9.89651 23.7654Z" fill="#F6830F"/>
<path d="M9.78128 26.3659C9.56596 26.4944 9.49651 26.7965 9.63195 27.0153C9.77433 27.2515 9.35412 27.2341 15.1746 27.2341H20.4463L20.5609 27.1542C20.6686 27.0813 20.7797 26.8799 20.7797 26.7583C20.7797 26.7271 20.7485 26.6333 20.7103 26.5534C20.5748 26.2756 21.0471 26.2964 15.1468 26.2964C9.99659 26.2964 9.88894 26.2964 9.78128 26.3659Z" fill="#F6830F"/>
<path d="M9.88057 28.8618C9.5055 29.0285 9.46036 29.5043 9.80069 29.7266C9.89099 29.7856 10.0473 29.7891 12.5199 29.7891H15.1488L15.2704 29.6953C15.4857 29.5321 15.5274 29.2334 15.3642 29.0285C15.2044 28.8271 15.319 28.834 12.513 28.8375C11.0926 28.8375 9.90835 28.8479 9.88057 28.8618Z" fill="#F6830F"/>
<path d="M29.4092 9.49148C28.7736 9.61997 28.2736 10.0159 27.9714 10.6306C27.8117 10.9501 27.7943 11.1133 27.7943 12.2489C27.7943 13.1623 27.7874 13.3081 27.7387 13.3498C27.5964 13.4679 27.5859 13.5443 27.5859 14.5965C27.5859 15.6314 27.5929 15.68 27.7283 15.8329C27.7908 15.8988 27.7943 16.1037 27.8013 22.0006L27.8117 28.1023L27.9124 28.2065C27.9645 28.2621 28.0478 28.3176 28.0895 28.3281L28.1694 28.3489L28.1833 29.1372C28.1937 29.9082 28.1972 29.9325 28.277 30.0471C28.3986 30.2173 28.534 30.259 28.9577 30.259H29.3224V30.9084C29.3224 31.5022 29.3293 31.5717 29.3918 31.6759C29.5238 31.8877 29.8606 31.9502 30.0621 31.8009C30.2461 31.662 30.26 31.6029 30.26 30.9049V30.259H30.6142C30.8955 30.259 30.9963 30.2451 31.1109 30.1895C31.3609 30.0679 31.3713 30.0228 31.3713 29.1511V28.3836L31.5102 28.3142C31.5901 28.2725 31.6839 28.1926 31.7186 28.1301C31.7881 28.0225 31.7881 27.9148 31.7881 21.9346C31.7881 16.6941 31.795 15.8467 31.8367 15.8224C31.8645 15.8085 31.9131 15.746 31.9409 15.6905C31.986 15.6036 31.9964 15.4265 31.9964 14.6035C31.9964 13.5859 31.9825 13.4644 31.8471 13.3498C31.795 13.3081 31.7881 13.19 31.7881 12.2663C31.7881 11.655 31.7742 11.155 31.7499 11.0473C31.729 10.9466 31.6526 10.7347 31.5762 10.5785C31.3296 10.061 30.8504 9.67206 30.2774 9.52621C29.9996 9.45675 29.6592 9.44286 29.4092 9.49148ZM30.1489 10.4812C30.4927 10.6271 30.7115 10.8737 30.7983 11.2209C30.84 11.3842 30.8504 11.6134 30.8434 12.3253L30.833 13.2248H29.7912H28.7493V12.2176C28.7493 11.2661 28.7528 11.2001 28.8223 11.0508C29.0029 10.6653 29.364 10.4291 29.7842 10.4291C29.9162 10.4291 30.076 10.4534 30.1489 10.4812ZM31.031 14.2041C31.0379 14.2215 31.0379 14.409 31.031 14.6243L31.0206 15.0133L29.7808 15.0063L28.541 14.9959L28.5305 14.6347C28.5271 14.4333 28.5305 14.2492 28.5375 14.2249C28.5514 14.1902 28.8014 14.1798 29.7877 14.1798C30.4649 14.1798 31.024 14.1902 31.031 14.2041ZM30.8434 21.6707L30.833 27.3939L29.7842 27.4043L28.732 27.4112V21.6811V15.9509H29.7912H30.8504L30.8434 21.6707ZM30.4267 28.8247L30.4371 29.2866H29.7912H29.1487V28.842C29.1487 28.5955 29.1591 28.3836 29.173 28.3697C29.1869 28.3593 29.4717 28.3524 29.8051 28.3558L30.4163 28.3663L30.4267 28.8247Z" fill="#F6830F"/>
</svg>
