<svg width="40" height="40" viewBox="0 0 40 40" fill="none" xmlns="http://www.w3.org/2000/svg">
<rect width="40" height="40" rx="20" fill="white"/>
<path d="M27.1245 18.25C23.3339 18.25 20.25 21.3339 20.25 25.1245C20.25 28.9152 23.3339 31.9991 27.1245 31.9991C30.9152 31.9991 33.9991 28.9152 33.9991 25.1245C33.9991 21.3339 30.9152 18.25 27.1245 18.25ZM28.143 27.9253C28.143 28.4875 27.6877 28.9437 27.1245 28.9437C26.5613 28.9437 26.1061 28.4875 26.1061 27.9253V24.3607C26.1061 23.7985 26.5613 23.3422 27.1245 23.3422C27.6877 23.3422 28.143 23.7985 28.143 24.3607V27.9253ZM27.1245 22.833C26.5623 22.833 26.1061 22.3768 26.1061 21.8146C26.1061 21.2524 26.5623 20.7961 27.1245 20.7961C27.6867 20.7961 28.143 21.2524 28.143 21.8146C28.143 22.3768 27.6867 22.833 27.1245 22.833Z" fill="#DEBC0A"/>
<path d="M23.6681 10.75H23.4108V12.052C23.4108 13.6352 22.1447 14.9164 20.5801 14.9164H14.9187C13.3541 14.9164 12.088 13.6352 12.088 12.052V10.75H11.8307C10.2661 10.75 9 12.0312 9 13.6144V26.6343C9 28.2176 10.2661 29.4987 11.8307 29.4987H18.6141C18.0994 28.3842 17.7906 27.1551 17.7597 25.8531H12.86C12.438 25.8531 12.088 25.499 12.088 25.0719C12.088 24.6449 12.438 24.2907 12.86 24.2907H17.842C17.9347 23.6554 18.0891 23.0512 18.295 22.468H12.86C12.438 22.468 12.088 22.1138 12.088 21.6868C12.088 21.2597 12.438 20.9056 12.86 20.9056H19.0361C19.4375 20.2389 19.911 19.6244 20.4669 19.0828H12.86C12.438 19.0828 12.088 18.7286 12.088 18.3016C12.088 17.8745 12.438 17.5204 12.86 17.5204H22.577C23.7608 16.8954 25.0886 16.5204 26.4988 16.4892V13.6144C26.4988 12.0312 25.2327 10.75 23.6681 10.75Z" fill="#DEBC0A"/>
<path d="M22.0203 9.08319H20.9509C20.6301 7.88536 19.5996 7 18.3747 7C17.1498 7 16.1193 7.88536 15.7985 9.08319H14.7291C14.3305 9.08319 14 9.43733 14 9.86439V11.4268C14 12.4267 14.768 13.2496 15.7013 13.2496H21.0481C21.9814 13.2496 22.7494 12.4267 22.7494 11.4268V9.86439C22.7494 9.43733 22.4189 9.08319 22.0203 9.08319Z" fill="#DEBC0A"/>
</svg>
