<svg width="40" height="40" viewBox="0 0 40 40" fill="none" xmlns="http://www.w3.org/2000/svg">
<rect width="40" height="40" rx="20" fill="white"/>
<path d="M22.5 25.75C23.1904 25.75 23.75 25.1904 23.75 24.5C23.75 23.8096 23.1904 23.25 22.5 23.25C21.8096 23.25 21.25 23.8096 21.25 24.5C21.25 25.1904 21.8096 25.75 22.5 25.75Z" fill="#523C87"/>
<path d="M17.5 25.75C18.1904 25.75 18.75 25.1904 18.75 24.5C18.75 23.8096 18.1904 23.25 17.5 23.25C16.8096 23.25 16.25 23.8096 16.25 24.5C16.25 25.1904 16.8096 25.75 17.5 25.75Z" fill="#523C87"/>
<path d="M30.94 26.66C30.98 26.45 31 26.23 31 26C31 25.77 30.98 25.55 30.94 25.34C30.69 23.83 29.58 22.6 28.13 22.17C27.6 21.05 26.85 20.07 25.94 19.26C24.36 17.85 22.28 17 20 17C17.72 17 15.64 17.85 14.06 19.26C13.14 20.07 12.39 21.06 11.87 22.17C10.42 22.6 9.31 23.82 9.06 25.34C9.02 25.55 9 25.77 9 26C9 26.23 9.02 26.45 9.06 26.66C9.31 28.17 10.42 29.4 11.87 29.83C12.39 30.94 13.14 31.92 14.04 32.72C15.62 34.14 17.71 35 20 35C22.29 35 24.38 34.14 25.97 32.72C26.87 31.92 27.62 30.93 28.14 29.83C29.58 29.4 30.69 28.18 30.94 26.66ZM27 28C26.9 28 26.81 27.98 26.71 27.97C26.51 28.64 26.22 29.26 25.85 29.83C24.6 31.74 22.45 33 20 33C17.55 33 15.4 31.74 14.15 29.83C13.78 29.26 13.49 28.64 13.29 27.97C13.19 27.98 13.1 28 13 28C11.9 28 11 27.1 11 26C11 24.9 11.9 24 13 24C13.1 24 13.19 24.02 13.29 24.03C13.49 23.36 13.78 22.74 14.15 22.17C15.4 20.26 17.55 19 20 19C22.45 19 24.6 20.26 25.85 22.17C26.22 22.74 26.51 23.36 26.71 24.03C26.81 24.02 26.9 24 27 24C28.1 24 29 24.9 29 26C29 27.1 28.1 28 27 28ZM15.5 28C16.26 29.77 17.99 31 20 31C22.01 31 23.74 29.77 24.5 28H15.5Z" fill="#523C87"/>
<path d="M20.7682 9.43222C19.2073 9.02652 18.7053 8.60707 18.7053 7.95383C18.7053 7.20432 19.3998 6.68173 20.5619 6.68173C21.7859 6.68173 22.2397 7.26621 22.2809 8.12574H23.8006C23.7525 6.94303 23.0305 5.85658 21.5933 5.50589V4H19.5305V5.48527C18.1965 5.77407 17.1238 6.64047 17.1238 7.96758C17.1238 9.55599 18.4371 10.3468 20.3556 10.8075C22.0747 11.22 22.4185 11.8251 22.4185 12.4646C22.4185 12.9391 22.0815 13.6955 20.5619 13.6955C19.1454 13.6955 18.5884 13.0629 18.5128 12.2515H17C17.0825 13.7574 18.2102 14.6031 19.5305 14.8851V16.3772H21.5933V14.8988C22.9342 14.6444 24 13.8674 24 12.4578C24 10.5049 22.3291 9.83792 20.7682 9.43222Z" fill="#523C87"/>
</svg>
